<?xml version="1.0" encoding="UTF-8"?>
<svg xmlns="http://www.w3.org/2000/svg" xmlns:xlink="http://www.w3.org/1999/xlink" version="1.1" viewBox="0 0 1156.1 735.6">
  <!-- Generator: Adobe Illustrator 30.2.1, SVG Export Plug-In . SVG Version: 2.1.1 Build 1)  -->
  <defs>
    <style>
      .st0, .st1, .st2 {
        fill: none;
      }

      .st3, .st4 {
        fill: #c80000;
      }

      .st5 {
        letter-spacing: 0em;
      }

      .st5, .st6, .st7, .st8, .st9, .st10, .st11, .st12 {
        fill: #fff;
      }

      .st5, .st8, .st13, .st9, .st11, .st12 {
        isolation: isolate;
      }

      .st5, .st8, .st9, .st11, .st12 {
        font-family: Helvetica-Bold, Helvetica;
        font-weight: 700;
      }

      .st5, .st9 {
        font-size: 24px;
      }

      .st6 {
        stroke-miterlimit: 4;
      }

      .st6, .st14, .st1 {
        stroke-width: .2px;
      }

      .st6, .st14, .st1, .st2 {
        stroke: #000;
      }

      .st6, .st14, .st2 {
        stroke-linecap: round;
      }

      .st15 {
        fill: olive;
      }

      .st16 {
        fill: #06338e;
      }

      .st7, .st17, .st4, .st18, .st19, .st20, .st21, .st22 {
        fill-rule: evenodd;
      }

      .st23 {
        fill: #2f61c5;
      }

      .st8 {
        font-size: 36px;
      }

      .st24 {
        fill: #0957a4;
      }

      .st14, .st20, .st25 {
        fill: red;
      }

      .st17 {
        fill: #00923f;
      }

      .st26 {
        fill: #f700ff;
      }

      .st27 {
        fill: #f0f;
      }

      .st18 {
        fill: #d23026;
      }

      .st28 {
        fill: #3fa252;
      }

      .st29 {
        fill: #4da663;
      }

      .st19 {
        fill: #131516;
      }

      .st30 {
        fill: #009150;
      }

      .st22 {
        stroke: #fff;
        stroke-width: .5px;
      }

      .st31 {
        fill: #abbd3a;
      }

      .st32 {
        fill: #282828;
      }

      .st11 {
        letter-spacing: 0em;
      }

      .st11, .st12 {
        font-size: 31px;
      }

      .st33 {
        fill: #1dab3e;
      }

      .st1 {
        stroke-linecap: square;
      }

      .st34 {
        fill: #05338d;
      }

      .st35 {
        fill: #f2c631;
      }

      .st36 {
        fill: #a30d0d;
      }

      .st2 {
        stroke-miterlimit: 4.2;
        stroke-width: .9px;
      }
    </style>
  </defs>
  <g id="Capa_2">
    <g id="Capa_21" data-name="Capa_2">
      <g id="c">
        <rect class="st32" x="-84.4" y="-29.4" width="1323.8" height="795.8"/>
      </g>
    </g>
  </g>
  <g id="b">
    <g id="c1" data-name="c">
      <g class="st13">
        <g class="st13">
          <g class="st13">
            <text class="st12" transform="translate(302.8 26.6) scale(1.2 1)"><tspan x="0" y="0">Senadores </tspan></text>
            <text class="st11" transform="translate(496.3 26.6) scale(1.2 1)"><tspan x="0" y="0">L</tspan></text>
            <text class="st12" transform="translate(517.6 26.6) scale(1.2 1)"><tspan x="0" y="0" xml:space="preserve"> y LI Legislatura</tspan></text>
          </g>
        </g>
      </g>
      <g class="st13">
        <g class="st13">
          <g class="st13">
            <text class="st12" transform="translate(0 439.4) scale(1.2 1)"><tspan x="0" y="0">Diputados </tspan></text>
            <text class="st11" transform="translate(185.5 439.4) scale(1.2 1)"><tspan x="0" y="0">L</tspan></text>
            <text class="st12" transform="translate(206.8 439.4) scale(1.2 1)"><tspan x="0" y="0" xml:space="preserve"> Legislatura</tspan></text>
          </g>
        </g>
      </g>
      <g class="st13">
        <g class="st13">
          <g class="st13">
            <text class="st9" transform="translate(68.8 487.7)"><tspan x="0" y="0">196</tspan></text>
          </g>
        </g>
      </g>
      <g id="d">
        <g id="e">
          <path id="f" class="st34" d="M33.1,496.8h21.3c1.5,0,2.7,1.2,2.7,2.7v21.3c0,1.5-1.2,2.7-2.7,2.7h-21.3c-1.5,0-2.7-1.2-2.7-2.7v-21.3c0-1.5,1.2-2.7,2.7-2.7h0Z"/>
          <g id="g">
            <g id="h">
              <circle id="i" class="st10" cx="43.8" cy="510.2" r="12.9"/>
              <circle id="j" class="st34" cx="43.8" cy="510.2" r="11.4"/>
              <circle id="k" class="st10" cx="43.8" cy="510.2" r="10"/>
            </g>
            <path id="l" class="st16" d="M38.6,509.9c.3,0,.4-.3.4-.7v-2.4c0-.4-.1-.6-.4-.6h-.9v3.7h.9ZM35.9,516.1v-11.8h4.1c.7,0,1,.9,1,1.8v3.7c0,1-.3,2.1-1.3,2.1h-1.9v4.3h-1.8s0,0,0,0ZM42.8,512.8h1l-.5-2.5-.5,2.5h0ZM42.3,514.5l-.3,1.6h-1.9l2.1-11.8h2.4l2,11.8h-1.9l-.3-1.6h-2.1ZM46.8,516.1v-11.8h1.7l1.2,4.1v-4.1h1.9v11.8h-1.8l-1.1-3.6v3.6s-1.9,0-1.9,0Z"/>
          </g>
        </g>
      </g>
      <g class="st13">
        <g class="st13">
          <g class="st13">
            <text class="st9" transform="translate(69.7 523.7)"><tspan x="0" y="0">20</tspan></text>
          </g>
        </g>
      </g>
      <g class="st13">
        <g class="st13">
          <g class="st13">
            <text class="st9" transform="translate(69.8 559)"><tspan x="0" y="0">12</tspan></text>
          </g>
        </g>
      </g>
      <g class="st13">
        <g class="st13">
          <g class="st13">
            <text class="st9" transform="translate(171.5 488)"><tspan x="0" y="0">9</tspan></text>
          </g>
        </g>
      </g>
      <path class="st35" d="M133.8,459.2h13.7c0,0,.1,0,.1,0v28.9c-.1.5-.1.8-.1.8h-13.7c-.6,0-1-.5-1-1v-27.8c0-.5.4-1,1-1h0Z"/>
      <path class="st28" d="M147.6,459.2h14.1c.5,0,.8.4.8.8v28.1c0,.5-.4.8-.8.8h-14.2,0s0-29.7,0-29.7c0-.5-.3,0,.1,0h0Z"/>
      <path d="M149.1,465h-1.6s-1,0-1,0v1.1c-2.9,1.5-4.6,3.7-5.7,6.2l-1,.4v1.3c-.6.8-.9,1.7-.7,2.6h-.8s0,11.6,0,11.6h4.9c0,0,0-8.5,0-8.5,1.6-1.3,3-1.4,4.4-1.5,1.8.1,3.2.8,4.5,1.5l-.2,8.5h5.2s0-11.6,0-11.6h-.4c0-.1,0-2.4,0-2.4l-1.1-1c-1.5-3.4-3.5-6-6.4-7.1v-1.1h0Z"/>
      <rect class="st1" x="132.8" y="459.2" width="29.9" height="29.8" rx="1" ry="1"/>
      <path class="st10" d="M142.8,487.1h-3.9s0-9.9,0-9.9h1.4c0-.4,0-.9.2-1.4h.9s0-.5,0-.5c0-.3.3-.3.5-.4v-2.7h.5s0,2.8,0,2.8h10.4v-3.1s.4,0,.4,0v2.9c.1,0,.2,0,.4.3v.6h.4c.3,0,.6.2.7.7v.8s1.5,0,1.5,0v9.6h-4.4s.1-7.1.1-7.1c-1.3-.8-2.7-1.5-4.6-1.6-1.6,0-3.2.4-4.6,1.6v7.4s0,0,0,0Z"/>
      <path class="st10" d="M139.8,476.7c-.1,0-.2,0-.3,0,0,0-.1-.1-.2-.2,0,0,0-.1,0-.2s0-.1,0-.2c0-.1.1-.3.1-.4,0,0,0,0,0-.1,0,0,0,0,0-.1,0,0,0,0,0,0s0,0,0,0c0,0,0,0,0,0,0,0,0,0,0,0,0,0,0,0,0,0,0,0,0,0,0,0,0,0,0,0,0,0h0c0,0,0-.1,0-.1s0,0,0,0c0,0,0,0,.1,0,0,0,0,0,0,0s0,0,0,0c0,0,0,0,.1,0,0,0,0,0,.1,0,0,0,0,0,.1,0s0,0,0,0c0,0,0,0,0,0,0,0,0,0,0,0,0,0,0,0,.1,0s0,0,.1,0c0,0,.1.1.1.2,0,0,0,0,0,0,0,0,0,0,0,0,0,0,0,0,0,0,0,0,0,0,0,0h0s0,0,0,0c0,0,0,0,0,0h0s0,0,0,0c0,0,0,0,0,0,0,0,0,0,0,0,0,0,0,0,0,0,0,0,0,0,0,0,0,0,0,0,0,0,0,0-.1.1-.2.2,0,0-.1,0-.1.1s0,0-.1.1c0,0,0,.1,0,.2,0,.2,0,.3,0,.5,0,0,0,.1,0,.2,0,0,0,0-.1.1s-.1,0-.2,0h0Z"/>
      <path class="st10" d="M156.1,476.6s-.1,0-.2,0-.1,0-.2,0c-.1,0-.2,0-.3-.1-.1,0-.2-.2-.3-.3,0-.1-.1-.2-.1-.3,0-.1,0-.2,0-.3,0,0-.1-.1-.2-.2,0,0-.2-.1-.3-.2,0,0,0,0-.1,0,0,0,0,0,0-.1,0,0,0,0,0,0,0,0,0,0,0,0h-.1c0,0,0,0,0,0,0,0,0,0,0,0h0c0-.1,0-.1,0-.2,0,0,0,0,0,0,0,0,0,0,0,0,0,0,.1,0,.1,0,0,0,0,0,0,0h0s0,0,0,0c0,0,0,0,0,0,0,0,0,0,0,0h0s0,0,0,0c0,0,0,0,.1,0s.1,0,.1,0c0,0,.2,0,.3,0,0,0,.1,0,.2,0s0,0,.1.1c0,0,0,0,0,0,0,0,0,0,0,0,0,0,0,0,0,0s0,0,0,0c0,0,0,0,0,0h0c0,.2,0,.2,0,.3s0,.1,0,.2c0,0,0,0,0,.1s0,0,0,.1c0,0,0,0,0,0,0,0,0,0,0,0,0,0,0,0,0,0,0,0,.1.1.1.2,0,0,0,.2,0,.2,0,0,0,.2-.2.2h0Z"/>
      <path class="st10" d="M155.9,475h.4c0,0,.1,0,.1-.1v-.2s0,0-.1,0h-.3c0,0-.1,0-.1.1v.3h0Z"/>
      <path class="st10" d="M155.1,474.1s.1,0,.1,0h0c0-.2,0-.2,0-.2v-.3c0,0-.2,0-.2,0v.5h0Z"/>
      <path class="st10" d="M154,474.2h.5c.1,0,.1-.1.1-.2v-.4c0,0,0-.2-.2-.2h-.4c-.1,0-.2.1-.2.3v.3c0,0,0,.1.1.1h0Z"/>
      <path class="st10" d="M154.2,473.1h.3c.1,0,.1-.1.2-.2h0c0-.2-.1-.2-.2-.3h-.3c-.1,0-.1.1-.1.2v.3s0,0,0,0h0Z"/>
      <path class="st10" d="M153.8,471.9s-.1,0-.1,0,0,0,0,.1c0,0,0,.1,0,.1s0,.1,0,.1c0,0,0,0,0,.1s0,0,0,0c0,0,.1,0,.1,0,0,0,.1,0,.2,0,0,0,0,0,.1-.1,0,0,0-.1,0-.2s0-.1,0-.2c0,0,0-.1-.1-.2,0,0-.1,0-.1,0h0Z"/>
      <path class="st10" d="M151.8,468.9l1.1,2.5c.6.5.7,0,.7-.3-.2-1-.8-1.7-1.6-2.4-.3-.1-.2,0-.2.1h0Z"/>
      <path class="st10" d="M143.9,468.9l-1.1,2.5c-.6.5-.7,0-.7-.3.2-1,.8-1.7,1.6-2.4.3-.1.2,0,.2.1h0Z"/>
      <rect class="st10" x="146.9" y="465.5" width=".6" height=".7"/>
      <rect class="st10" x="148.1" y="465.5" width=".6" height=".7"/>
      <path class="st10" d="M143.6,474.5h-.8s0-2.7,0-2.7c.8-.2.8-.3,4.9-.4,1.7.1,4.7,0,5,.5v2.6h-.4s-.5-.1-.5-.1v-.4h.2s0-1.6,0-1.6c-.1-.1-.4-.5-.5,0h-.6c-.4-.3-.8-.4-1.2,0h-.5c-.4-.5-.7-.4-1.1,0h-.4c-.9-.6-1,0-1.4,0h-.6c-.2-.2-.4-.2-.7,0h-.6c-.3-.1-.6-.2-.8,0v2s0,0,0,0Z"/>
      <path class="st10" d="M141.3,474.2c0,0,.1,0,.2-.1v-.3c0-.1,0-.2-.2-.3h-.4c0,0-.2,0-.2.2v.4c0,0,0,.1.1.1h.5c0,0,0,0,0,0Z"/>
      <path class="st10" d="M141.4,471.9s0,0-.1,0,0,0,0,.1c0,0,0,.1,0,.2,0,0,0,.1,0,.2,0,0,0,0,.1.1s0,0,.1,0c0,0,0,0,.1,0,0,0,0,0,0,0,0,0,0,0,0-.1,0,0,0-.1,0-.2,0,0,0-.2,0-.2,0,0,0,0,0-.1,0,0,0,0-.1,0s0,0-.1,0h0Z"/>
      <path class="st10" d="M140.9,473.1c0,0,0,.1.1.2h.4v-.3c0,0,0-.1-.1-.1-.1,0-.2,0-.2,0h-.1v.2h0Z"/>
      <path class="st10" d="M140.2,474.1c0,0-.1,0-.2,0h0c0-.1,0-.2,0-.2v-.2c.1,0,.2,0,.2,0v.5Z"/>
      <path class="st10" d="M145,473.1c0-.5.4-.2.4,0v1.1c0,.2-.3.4-.4,0v-1.1Z"/>
      <path class="st10" d="M146.7,472.5c0-.3.4-.3.4,0v1.6c-.1.2-.3.3-.4,0v-1.6Z"/>
      <path class="st10" d="M148.2,472.6c0-.3.4-.3.4,0v1.6c0,.3-.3.3-.4,0v-1.6Z"/>
      <path class="st10" d="M150,472.5c.1-.2.3-.2.4,0v1.6c0,.2-.3.2-.4,0v-1.6Z"/>
      <path class="st10" d="M145.4,468h-.6c0-.2.1-.4.3-.6h.5c-.1.2-.2.4-.2.6Z"/>
      <path class="st10" d="M145.1,468.8h-.7c0-.2.1-.4.3-.6h.6c-.1.2-.2.4-.2.6Z"/>
      <path class="st10" d="M144,469.5h.9c0-.2,0-.3.2-.6h-.8c-.2.2-.2.4-.2.6h0Z"/>
      <path class="st10" d="M144.8,470.4c0-.5,0-.4,0-.6h-1c0,.1-.1.4-.2.5h1.1s0,0,0,0Z"/>
      <path class="st10" d="M143.5,471.3h1.1v-.6h-1c0,.3-.1.5-.1.6Z"/>
      <path class="st10" d="M150.1,468h.6c0-.2-.1-.4-.3-.6h-.5c.1.2.2.4.2.6Z"/>
      <path class="st10" d="M150.4,468.8h.7c0-.2-.1-.4-.3-.6h-.6c.1.2.2.4.2.6Z"/>
      <path class="st10" d="M151.5,469.6h-.9c0-.2,0-.3-.2-.6h.8c.2.2.2.4.2.6h0Z"/>
      <path class="st10" d="M150.8,470.4c0-.5,0-.4,0-.6h1c0,.1.1.4.2.5h-1.1s0,0,0,0Z"/>
      <path class="st10" d="M152.1,471.4h-1.1v-.6h1c0,.3.1.5.1.6Z"/>
      <path class="st10" d="M146.4,468h-.6c0-.2,0-.4.1-.6h.4s0,.6,0,.6h0Z"/>
      <path class="st10" d="M146.1,468.8h-.6c0-.2,0-.4.2-.6h.5v.6q0,0,0,0Z"/>
      <path class="st10" d="M146,469.5h-.7v-.5h.7v.5h0Z"/>
      <path class="st10" d="M145.9,469.7v.6c-.1,0-.8,0-.8,0,0-.2,0-.5.1-.6h.7,0Z"/>
      <path class="st10" d="M145.7,470.7v.6s-.7,0-.7,0c0-.2,0-.3,0-.6h.7Z"/>
      <path class="st10" d="M149.2,468h.6c0-.2,0-.4-.1-.6h-.4s0,.6,0,.6h0Z"/>
      <path class="st10" d="M149.4,468.8h.6c0-.2,0-.4-.2-.6h-.5v.6q0,0,0,0Z"/>
      <path class="st10" d="M149.6,469.5h.7v-.5h-.7v.5h0Z"/>
      <path class="st10" d="M149.7,469.8v.6c.1,0,.8,0,.8,0,0-.2,0-.5-.1-.6h-.7,0Z"/>
      <path class="st10" d="M149.8,470.7v.6s.7,0,.7,0c0-.2,0-.3,0-.6h-.7Z"/>
      <path class="st10" d="M147.2,468h-.6c0-.3,0-.5.1-.6h.4v.6s0,0,0,0Z"/>
      <path class="st10" d="M147.1,468.7h-.6c0-.2,0-.4.1-.6h.6s0,.6,0,.6h0Z"/>
      <path class="st10" d="M147,469.5h-.7c0-.2,0-.4,0-.6h.6v.6h0Z"/>
      <path class="st10" d="M147,470.3h-.8v-.6h.8v.6h0Z"/>
      <path class="st10" d="M146.9,471.2v-.7h-.8c0,.2,0,.4,0,.6h.8Z"/>
      <path class="st10" d="M148.4,468h.6c0-.3,0-.5-.1-.6h-.4v.6s0,0,0,0Z"/>
      <path class="st10" d="M148.4,468.8h.6c0-.2,0-.4-.1-.6h-.6s0,.6,0,.6h0Z"/>
      <path class="st10" d="M148.5,469.5h.7c0-.2,0-.4,0-.6h-.6v.6h0Z"/>
      <path class="st10" d="M148.6,470.4h.8v-.6h-.8v.6h0Z"/>
      <path class="st10" d="M148.6,471.3v-.7h.8c0,.2,0,.4,0,.6h-.8Z"/>
      <rect class="st10" x="147.5" y="467.4" width=".6" height=".6"/>
      <rect class="st10" x="147.5" y="468.2" width=".7" height=".6"/>
      <rect class="st10" x="147.4" y="468.9" width=".7" height=".6"/>
      <rect class="st10" x="147.4" y="469.7" width=".8" height=".6"/>
      <rect class="st10" x="147.3" y="470.6" width=".9" height=".6"/>
      <path class="st10" d="M149.4,460.3h1.1c.7,0,1.2,0,1.4,0,.2,0,.5.2.6.3.2.2.2.5.2.9s0,.6-.2.7c-.1.1-.3.2-.7.2.3,0,.5.1.6.2s.2.2.2.3c0,0,0,.3,0,.7v1.2h-1.4v-1.5c0-.2,0-.4,0-.5s-.2,0-.4,0v2.1h-1.5v-4.6h0ZM150.9,461.1v1c.2,0,.3,0,.4,0,0,0,.1-.2.1-.4v-.2c0-.1,0-.2-.1-.3,0,0-.2,0-.4,0h0Z"/>
      <path class="st10" d="M161.3,460.3v4.5h-1.2v-3.1l-.5,3.1h-.9l-.5-3v3h-1.2v-4.5h1.8c0,.3.1.6.2,1l.2,1.2.3-2.1h1.8Z"/>
      <path d="M144.4,460.5l.8,4.5h-1.5v-.8h-.6v.8h-1.6l.8-4.5h2.1ZM143.6,463.4c0-.5-.1-1.1-.2-1.9-.1.9-.2,1.5-.3,1.9h.5Z"/>
      <path d="M134.9,460.5h1.3c.4,0,.6,0,.8,0s.3.1.4.2.2.2.2.4c0,.1,0,.3,0,.6v.4c0,.3,0,.5-.1.6,0,.1-.2.2-.4.3s-.4.1-.7.1h-.4v1.8h-1.3v-4.5h0ZM136.2,461.2v1.2h.1c.1,0,.2,0,.2,0,0,0,0-.2,0-.3v-.4c0-.2,0-.3,0-.3,0,0-.2,0-.3,0h0Z"/>
      <g id="m">
        <path id="n" class="st27" d="M59.3,544.6c0,7.9-6.4,14.3-14.3,14.3s-14.4-6.4-14.4-14.3,6.4-14.3,14.4-14.3,14.3,6.4,14.3,14.3Z"/>
        <path id="o" class="st10" d="M56.2,544.6c0,6.2-5,11.2-11.2,11.2s-11.2-5-11.2-11.2,5-11.2,11.2-11.2,11.2,5,11.2,11.2Z"/>
        <path id="p" class="st27" d="M38.5,546.3v4.4h-2.5v-11.9h2.8c1.1,0,1.9.1,2.4.4.5.3.8.8.8,1.7v3.3c0,.8-.2,1.3-.7,1.7-.4.3-1.4.5-2.8.5h0ZM39.3,544v-2.9c0-.4-.3-.6-.9-.6v4.1c.6,0,.9-.2.9-.6h0ZM44.9,546.3v4.4h-2.5v-11.9h2.8c1.1,0,1.9.1,2.4.4.5.3.8.8.8,1.7v3.3c0,.8-.2,1.3-.7,1.7-.4.3-1.4.5-2.8.5h0ZM45.8,544v-2.9c0-.4-.3-.6-.9-.6v4.1c.6,0,.9-.2.9-.6h0ZM48.8,545.9h2.4v2.7c0,.3.2.4.5.4s.5-.1.5-.4v-1.4c0-.4-.3-.9-.9-1.5-1.1-1.1-1.8-1.8-2.1-2.2-.3-.4-.4-.8-.4-1.2v-1.3c0-1.5,1-2.3,3-2.3s2.7.7,2.7,2.1v2.1h-2.4v-2.2c0-.2-.1-.4-.4-.4s-.5.2-.5.7v.8c0,.4.3,1,.9,1.5,1.1,1,1.8,1.8,2.1,2.2.3.4.4.9.4,1.4v1.5c0,1.6-1,2.4-3,2.4s-2.9-.7-2.9-2.2v-2.7h0Z"/>
      </g>
      <g class="st13">
        <g class="st13">
          <g class="st13">
            <text class="st12" transform="translate(737.2 435.8) scale(1.2 1)"><tspan x="0" y="0">Diputados LI Legislatura</tspan></text>
          </g>
        </g>
      </g>
      <g class="st13">
        <g class="st13">
          <g class="st13">
            <text class="st9" transform="translate(805.9 484.2)"><tspan x="0" y="0">276</tspan></text>
          </g>
        </g>
      </g>
      <g id="q">
        <g id="r">
          <path id="s" class="st34" d="M770.2,493.2h21.3c1.5,0,2.7,1.2,2.7,2.7v21.3c0,1.5-1.2,2.7-2.7,2.7h-21.3c-1.5,0-2.7-1.2-2.7-2.7v-21.3c0-1.5,1.2-2.7,2.7-2.7h0Z"/>
          <g id="t">
            <g id="u">
              <circle id="v" class="st10" cx="780.9" cy="506.6" r="12.9"/>
              <circle id="w" class="st34" cx="780.9" cy="506.6" r="11.4"/>
              <circle id="x" class="st10" cx="780.9" cy="506.6" r="10"/>
            </g>
            <path id="y" class="st16" d="M775.8,506.4c.3,0,.4-.3.4-.7v-2.4c0-.4-.1-.6-.4-.6h-.9v3.7h.9ZM773,512.5v-11.8h4.1c.7,0,1,.9,1,1.8v3.7c0,1-.3,2.1-1.3,2.1h-1.9v4.3h-1.8s0,0,0,0ZM780,509.2h1l-.5-2.5-.5,2.5h0ZM779.5,511l-.3,1.6h-1.9l2.1-11.8h2.4l2,11.8h-1.9l-.3-1.6h-2.1,0ZM784,512.5v-11.8h1.7l1.2,4.1v-4.1h1.9v11.8h-1.8l-1.1-3.6v3.6h-1.9Z"/>
          </g>
        </g>
      </g>
      <g class="st13">
        <g class="st13">
          <g class="st13">
            <text class="st9" transform="translate(806.8 520.1)"><tspan x="0" y="0">43</tspan></text>
          </g>
        </g>
      </g>
      <g class="st13">
        <g class="st13">
          <g class="st13">
            <text class="st5" transform="translate(911.3 520.4)"><tspan x="0" y="0">1</tspan></text>
            <text class="st9" transform="translate(923.4 520.4)"><tspan x="0" y="0">1</tspan></text>
          </g>
        </g>
      </g>
      <g class="st13">
        <g class="st13">
          <g class="st13">
            <text class="st9" transform="translate(908.6 484.4)"><tspan x="0" y="0">12</tspan></text>
          </g>
        </g>
      </g>
      <path class="st35" d="M870.9,455.7h13.7c0,0,0,0,0,0v28.9c-.1.5-.1.8-.1.8h-13.7c-.6,0-1-.5-1-1v-27.8c0-.5.5-1,1-1h0Z"/>
      <path class="st28" d="M884.8,455.7h14.1c.5,0,.8.4.8.8v28.1c0,.5-.4.8-.8.8h-14.2,0s0-29.7,0-29.7c0-.5-.3,0,.1,0h0Z"/>
      <path d="M886.2,461.5h-1.6s-1,0-1,0v1.1c-2.9,1.5-4.6,3.7-5.7,6.2l-1,.4v1.3c-.6.8-.9,1.7-.7,2.6h-.8s0,11.6,0,11.6h4.9c0,0,0-8.5,0-8.5,1.6-1.3,3-1.4,4.4-1.5,1.8.1,3.2.8,4.5,1.5l-.2,8.5h5.2s0-11.6,0-11.6h-.3c0-.1,0-2.4,0-2.4l-1.1-1c-1.5-3.4-3.5-6-6.4-7.1v-1.1h0Z"/>
      <rect class="st1" x="869.9" y="455.7" width="29.8" height="29.8" rx="1" ry="1"/>
      <path class="st10" d="M879.9,483.5h-3.9s0-9.9,0-9.9h1.4c0-.4,0-.9.2-1.4h.9s0-.5,0-.5c0-.3.3-.3.5-.4v-2.7h.5s0,2.8,0,2.8h10.5v-3.1s.4,0,.4,0v2.9c.1,0,.2,0,.4.3v.6h.4c.3,0,.6.2.7.7v.8s1.5,0,1.5,0v9.6h-4.4s.1-7.1.1-7.1c-1.3-.8-2.7-1.5-4.6-1.6-1.6,0-3.2.4-4.6,1.6v7.4s0,0,0,0Z"/>
      <path class="st10" d="M876.9,473.1c0,0-.2,0-.3,0,0,0-.1-.1-.2-.2,0,0,0-.1,0-.2s0-.1,0-.2c0-.1,0-.3.1-.4,0,0,0,0,0-.1,0,0,0,0,0-.1,0,0,0,0,0,0s0,0,0,0c0,0,0,0,0,0,0,0,0,0,0,0,0,0,0,0,0,0,0,0,0,0,0,0,0,0,0,0,0,0h0c0,0,0-.1,0-.1s0,0,0,0c0,0,0,0,0,0,0,0,0,0,0,0s0,0,0,0c0,0,0,0,.1,0,0,0,0,0,.1,0,0,0,0,0,0,0s0,0,0,0c0,0,0,0,0,0,0,0,0,0,0,0,0,0,0,0,.1,0s0,0,.1,0c0,0,.1.1.1.2,0,0,0,0,0,0,0,0,0,0,0,0h0s0,0,0,0h0s0,0,0,0c0,0,0,0,0,0h0s0,0,0,0c0,0,0,0,0,0,0,0,0,0,0,0,0,0,0,0,0,0,0,0,0,0,0,0,0,0,0,0,0,0,0,0-.2.1-.2.2,0,0,0,0-.1.1s0,0-.1.1c0,0,0,.1,0,.2,0,.2,0,.3,0,.5,0,0,0,.1,0,.2,0,0,0,0-.1.1s-.1,0-.2,0h0Z"/>
      <path class="st10" d="M893.2,473s-.1,0-.2,0-.1,0-.2,0c0,0-.2,0-.3-.1-.1,0-.2-.2-.3-.3,0-.1-.1-.2-.1-.3,0-.1,0-.2,0-.3,0,0-.1-.1-.2-.2,0,0-.2-.1-.3-.2,0,0,0,0-.1,0,0,0,0,0,0-.1,0,0,0,0,0,0,0,0,0,0,0,0h-.1c0,0,0,0,0,0,0,0,0,0,0,0h0c0-.1,0-.1,0-.2,0,0,0,0,0,0,0,0,0,0,0,0,0,0,0,0,.2,0,0,0,0,0,0,0h0s0,0,0,0c0,0,0,0,0,0,0,0,0,0,0,0h0s0,0,0,0c0,0,0,0,.1,0s0,0,.1,0c0,0,.2,0,.3,0,0,0,.1,0,.2,0s0,0,0,.1c0,0,0,0,0,0,0,0,0,0,0,0,0,0,0,0,0,0s0,0,0,0c0,0,0,0,0,0h0c0,.2,0,.2,0,.3s0,.1,0,.2c0,0,0,0,0,.1s0,0,0,.1h0c0,.1,0,.1,0,.2,0,0,0,0,0,0,0,0,.1.1.1.2,0,0,0,.2,0,.2,0,0,0,.2-.2.2h0Z"/>
      <path class="st10" d="M893.1,471.4h.4c0,0,.1,0,0-.1v-.2s0,0-.1,0h-.3s0,0-.1.1v.3h0Z"/>
      <path class="st10" d="M892.3,470.5s0,0,.1,0h0c0-.2,0-.2,0-.2v-.3c0,0-.2,0-.2,0v.5h0Z"/>
      <path class="st10" d="M891.2,470.6h.5c.1,0,.2-.1.1-.2v-.4c0,0,0-.2-.2-.2h-.4c-.1,0-.2.1-.2.3v.3c0,0,0,.1.1.1h0Z"/>
      <path class="st10" d="M891.3,469.5h.3c.2,0,.1-.1.2-.2h0c0-.2-.1-.2-.2-.3h-.3c0,0-.1.1-.1.2v.3s0,0,0,0h0Z"/>
      <path class="st10" d="M891,468.3s0,0-.1,0,0,0,0,.1c0,0,0,.1,0,.1s0,.1,0,.1c0,0,0,0,0,.1s0,0,0,0c0,0,0,0,.2,0,0,0,.1,0,.2,0,0,0,0,0,0-.1,0,0,0-.1,0-.2s0-.1,0-.2c0,0,0-.1-.1-.2,0,0,0,0-.2,0h0Z"/>
      <path class="st10" d="M889,465.3l1.1,2.5c.6.5.7,0,.7-.3-.2-1-.8-1.7-1.6-2.4-.3-.1-.2,0-.2.1h0Z"/>
      <path class="st10" d="M881,465.3l-1.1,2.5c-.6.5-.7,0-.7-.3.2-1,.8-1.7,1.6-2.4.3-.1.2,0,.2.1h0Z"/>
      <rect class="st10" x="884.1" y="461.9" width=".6" height=".7"/>
      <rect class="st10" x="885.2" y="461.9" width=".6" height=".7"/>
      <path class="st10" d="M880.8,470.9h-.8s0-2.7,0-2.7c.8-.2.8-.3,4.8-.4,1.7.1,4.7,0,5,.5v2.6h-.4s-.5-.1-.5-.1v-.4h.2s0-1.6,0-1.6c-.1-.1-.3-.5-.5,0h-.6c-.4-.3-.8-.4-1.2,0h-.5c-.4-.5-.7-.4-1.1,0h-.5c-.8-.6-1,0-1.4,0h-.6c-.2-.2-.4-.2-.7,0h-.6c-.3-.1-.5-.2-.8,0v2s0,0,0,0Z"/>
      <path class="st10" d="M878.4,470.6c0,0,.1,0,.2-.1v-.3c0-.1,0-.2-.2-.3h-.4c0,0-.2,0-.2.2v.4c0,0,0,.1.1.1h.5c0,0,0,0,0,0Z"/>
      <path class="st10" d="M878.5,468.3s0,0-.1,0c0,0,0,0,0,.1,0,0,0,.1,0,.2,0,0,0,.1,0,.2,0,0,0,0,.1.1,0,0,0,0,0,0,0,0,0,0,0,0,0,0,0,0,0,0,0,0,0,0,0-.1,0,0,0-.1,0-.2,0,0,0-.2,0-.2,0,0,0,0,0-.1,0,0,0,0,0,0s0,0-.1,0h0Z"/>
      <path class="st10" d="M878,469.5c0,0,0,.1.1.2h.4v-.3c0,0,0-.1-.1-.1-.1,0-.2,0-.2,0h-.2v.2h0Z"/>
      <path class="st10" d="M877.4,470.5c0,0-.2,0-.2,0h0c0-.1,0-.2,0-.2v-.2c.1,0,.2,0,.2,0v.5Z"/>
      <path class="st10" d="M882.1,469.5c0-.5.4-.2.4,0v1.1c0,.2-.3.4-.4,0v-1.1Z"/>
      <path class="st10" d="M883.8,468.9c0-.3.4-.3.4,0v1.6c0,.2-.3.3-.4,0v-1.6Z"/>
      <path class="st10" d="M885.4,469c0-.3.4-.3.4,0v1.6c0,.3-.3.3-.4,0v-1.6Z"/>
      <path class="st10" d="M887.1,468.9c.1-.2.3-.2.4,0v1.6c0,.2-.3.2-.4,0v-1.6Z"/>
      <path class="st10" d="M882.6,464.4h-.6c0-.2.1-.4.3-.6h.5c-.1.2-.2.4-.2.6Z"/>
      <path class="st10" d="M882.3,465.2h-.7c0-.2.1-.4.3-.6h.6c-.1.2-.2.4-.2.6h0Z"/>
      <path class="st10" d="M881.2,466h.8c0-.2,0-.3.2-.6h-.8c-.2.2-.2.4-.2.6h0Z"/>
      <path class="st10" d="M881.9,466.8c0-.5,0-.4,0-.6h-1c0,.1-.1.4-.2.5h1.1s0,0,0,0Z"/>
      <path class="st10" d="M880.6,467.8h1.2v-.6h-1c0,.3-.1.5-.1.6h0Z"/>
      <path class="st10" d="M887.3,464.4h.6c0-.2-.1-.4-.3-.6h-.5c.1.2.2.4.2.6Z"/>
      <path class="st10" d="M887.6,465.2h.7c0-.2-.1-.4-.3-.6h-.6c.1.2.2.4.2.6h0Z"/>
      <path class="st10" d="M888.7,466h-.8c0-.2,0-.3-.2-.6h.8c.2.2.2.4.2.6h0Z"/>
      <path class="st10" d="M887.9,466.8c0-.5,0-.4,0-.6h1c0,.1.1.4.2.5h-1.1s0,0,0,0Z"/>
      <path class="st10" d="M889.2,467.8h-1.2v-.6h1c0,.3.1.5.1.6h0Z"/>
      <path class="st10" d="M883.5,464.4h-.6c0-.2,0-.4.1-.6h.4s0,.6,0,.6h0Z"/>
      <path class="st10" d="M883.3,465.2h-.6c0-.2,0-.4.2-.6h.5v.6q0,0,0,0Z"/>
      <path class="st10" d="M883.1,465.9h-.7v-.5h.7v.5h0Z"/>
      <path class="st10" d="M883,466.2v.6c-.1,0-.8,0-.8,0,0-.2,0-.5.1-.6h.7Z"/>
      <path class="st10" d="M882.9,467.1v.6s-.7,0-.7,0c0-.2,0-.3,0-.6h.7Z"/>
      <path class="st10" d="M886.3,464.4h.6c0-.2,0-.4-.1-.6h-.4s0,.6,0,.6h0Z"/>
      <path class="st10" d="M886.6,465.2h.6c0-.2,0-.4-.2-.6h-.5v.6q0,0,0,0Z"/>
      <path class="st10" d="M886.7,466h.7v-.5h-.7v.5h0Z"/>
      <path class="st10" d="M886.8,466.2v.6c.1,0,.8,0,.8,0,0-.2,0-.5-.1-.6h-.7Z"/>
      <path class="st10" d="M887,467.1v.6s.7,0,.7,0c0-.2,0-.3,0-.6h-.7Z"/>
      <path class="st10" d="M884.3,464.4h-.5c0-.3,0-.5.1-.6h.4v.6s0,0,0,0Z"/>
      <path class="st10" d="M884.3,465.2h-.7c0-.2,0-.4.1-.6h.6s0,.6,0,.6h0Z"/>
      <path class="st10" d="M884.1,465.9h-.7c0-.2,0-.4,0-.6h.6v.6h0Z"/>
      <path class="st10" d="M884.1,466.8h-.8v-.6h.8v.6h0Z"/>
      <path class="st10" d="M884.1,467.7v-.7h-.8c0,.2,0,.4,0,.6h.8Z"/>
      <path class="st10" d="M885.5,464.5h.5c0-.3,0-.5-.1-.6h-.4v.6s0,0,0,0Z"/>
      <path class="st10" d="M885.6,465.2h.7c0-.2,0-.4-.1-.6h-.6s0,.6,0,.6h0Z"/>
      <path class="st10" d="M885.7,466h.7c0-.2,0-.4,0-.6h-.6v.6h0Z"/>
      <path class="st10" d="M885.7,466.8h.8v-.6h-.8v.6h0Z"/>
      <path class="st10" d="M885.8,467.7v-.7h.8c0,.2,0,.4,0,.6h-.8Z"/>
      <rect class="st10" x="884.7" y="463.8" width=".6" height=".6"/>
      <rect class="st10" x="884.6" y="464.6" width=".7" height=".6"/>
      <rect class="st10" x="884.6" y="465.3" width=".7" height=".6"/>
      <rect class="st10" x="884.5" y="466.1" width=".8" height=".6"/>
      <rect class="st10" x="884.5" y="467" width=".9" height=".6"/>
      <path class="st10" d="M886.6,456.8h1.1c.7,0,1.2,0,1.5,0,.2,0,.5.2.6.3s.2.5.2.9,0,.6-.2.7c-.1.1-.3.2-.7.2.3,0,.5.1.6.2s.2.2.2.3c0,0,0,.3,0,.7v1.2h-1.4v-1.5c0-.2,0-.4,0-.5s-.2,0-.4,0v2.1h-1.5v-4.6h0ZM888.1,457.5v1c.2,0,.3,0,.4,0,0,0,0-.2,0-.4v-.2c0-.1,0-.2,0-.3,0,0-.2,0-.4,0h0Z"/>
      <path class="st10" d="M898.5,456.8v4.5h-1.2v-3.1l-.5,3.1h-.9l-.5-3v3h-1.2v-4.5h1.8c0,.3.1.6.2,1l.2,1.2.3-2.1h1.8,0Z"/>
      <path d="M881.6,456.9l.8,4.5h-1.5v-.8h-.6v.8h-1.6l.8-4.5h2.1ZM880.8,459.8c0-.5-.2-1.1-.2-1.9-.2.9-.2,1.5-.3,1.9h.5Z"/>
      <path d="M872,456.9h1.3c.4,0,.6,0,.8,0s.3.1.4.2.2.2.2.4c0,.1,0,.3,0,.6v.4c0,.3,0,.5,0,.6,0,.1-.2.2-.4.3s-.4.1-.7.1h-.4v1.8h-1.3v-4.5h0ZM873.3,457.7v1.2h0c.1,0,.2,0,.2,0,0,0,0-.2,0-.3v-.4c0-.2,0-.3,0-.3,0,0-.2,0-.3,0h0Z"/>
      <g id="z">
        <path id="aa" class="st27" d="M899,506.5c0,7.9-6.4,14.3-14.3,14.3s-14.3-6.4-14.3-14.4,6.4-14.4,14.3-14.4,14.3,6.4,14.3,14.4h0Z"/>
        <path id="ab" class="st10" d="M895.8,506.5c0,6.2-5,11.2-11.2,11.2s-11.2-5-11.2-11.2,5-11.2,11.2-11.2,11.2,5,11.2,11.2Z"/>
        <path id="ac" class="st27" d="M878.1,508.2v4.4h-2.5v-11.9h2.8c1.1,0,1.9.1,2.4.4.5.3.8.8.8,1.7v3.3c0,.8-.2,1.3-.7,1.7-.4.3-1.4.5-2.8.5h0ZM879,505.8v-2.9c0-.4-.3-.6-.9-.6v4.1c.6,0,.9-.2.9-.6h0ZM884.5,508.2v4.4h-2.5v-11.9h2.8c1.1,0,1.9.1,2.4.4.5.3.8.8.8,1.7v3.3c0,.8-.2,1.3-.7,1.7-.4.3-1.4.5-2.8.5h0ZM885.4,505.8v-2.9c0-.4-.3-.6-.9-.6v4.1c.6,0,.9-.2.9-.6h0ZM888.4,507.8h2.4v2.7c0,.3.2.4.5.4s.5-.1.5-.4v-1.4c0-.4-.3-.9-.9-1.5-1.1-1.1-1.8-1.8-2.1-2.2-.3-.4-.4-.8-.4-1.2v-1.3c0-1.5,1-2.3,3-2.3s2.7.7,2.7,2.1v2.1h-2.4v-2.2c0-.2-.1-.4-.4-.4s-.5.2-.5.7v.8c0,.4.3,1,.9,1.5,1.1,1,1.8,1.8,2.1,2.2.3.4.4.9.4,1.4v1.5c0,1.6-1,2.4-3,2.4s-2.9-.7-2.9-2.2v-2.7h0Z"/>
      </g>
      <g class="st13">
        <text class="st8" transform="translate(654.8 239.5)"><tspan x="0" y="0">64</tspan></text>
      </g>
      <g id="ad">
        <circle class="st30" cx="509.8" cy="234.8" r="7.8"/>
      </g>
      <g id="ae">
        <circle class="st30" cx="529.3" cy="234.8" r="7.8"/>
        <circle class="st30" cx="548.8" cy="234.8" r="7.8"/>
        <circle class="st30" cx="568.3" cy="234.8" r="7.8"/>
        <circle class="st30" cx="587.9" cy="234.8" r="7.8"/>
        <circle class="st30" cx="515.1" cy="201.9" r="7.8" transform="translate(233.3 678.1) rotate(-80.8)"/>
        <circle class="st30" cx="534.7" cy="204" r="7.8"/>
        <circle class="st30" cx="555.1" cy="204" r="7.8"/>
        <circle class="st30" cx="575.8" cy="204.1" r="7.8"/>
        <circle class="st30" cx="526.9" cy="170.8" r="7.8"/>
        <circle class="st30" cx="597.1" cy="204.4" r="7.8"/>
        <circle class="st30" cx="546.6" cy="175" r="7.8"/>
        <circle class="st30" cx="568.8" cy="175.8" r="7.8"/>
        <circle class="st30" cx="544.6" cy="142.7" r="7.8"/>
        <circle class="st30" cx="591.9" cy="177" r="7.8"/>
        <circle class="st30" cx="564.4" cy="149.3" r="7.8"/>
        <circle class="st30" cx="589" cy="151.8" r="7.8"/>
        <circle class="st30" cx="616.5" cy="179.3" r="7.8"/>
        <circle class="st30" cx="567.7" cy="118.7" r="7.8"/>
        <circle class="st30" cx="587.2" cy="127.9" r="7.8"/>
        <circle class="st30" cx="615.2" cy="155.7" r="7.8"/>
        <circle class="st30" cx="595" cy="99.8" r="7.8"/>
        <circle class="st30" cx="614.5" cy="133.4" r="7.8"/>
        <circle class="st30" cx="614.1" cy="111.9" r="7.8"/>
        <circle class="st30" cx="643.6" cy="162.8" r="7.8"/>
        <circle class="st30" cx="625.6" cy="86.7" r="7.8"/>
        <circle class="st30" cx="643.6" cy="142.2" r="7.8"/>
        <circle class="st30" cx="643.7" cy="122" r="7.8"/>
        <circle class="st30" cx="643.7" cy="102" r="7.8"/>
        <circle class="st30" cx="658.2" cy="80.1" r="7.8"/>
        <circle class="st30" cx="674.8" cy="157" r="7.8"/>
        <circle class="st30" cx="674.8" cy="137.6" r="7.8"/>
        <circle class="st30" cx="674.8" cy="118.1" r="7.8"/>
        <circle class="st30" cx="674.8" cy="98.7" r="7.8"/>
        <circle class="st30" cx="691.5" cy="80.1" r="7.8"/>
        <circle class="st30" cx="705.9" cy="102" r="7.8"/>
        <circle class="st30" cx="706" cy="122" r="7.8"/>
        <circle class="st30" cx="706" cy="142.2" r="7.8"/>
        <circle class="st30" cx="724" cy="86.7" r="7.8"/>
        <circle class="st30" cx="706" cy="162.8" r="7.8"/>
        <circle class="st30" cx="735.6" cy="111.9" r="7.8"/>
        <circle class="st30" cx="735.2" cy="133.4" r="7.8"/>
        <circle class="st30" cx="754.6" cy="99.8" r="7.8"/>
        <circle class="st30" cx="734.5" cy="155.7" r="7.8"/>
        <circle class="st30" cx="762.5" cy="127.9" r="7.8"/>
        <circle class="st30" cx="782" cy="118.7" r="7.8"/>
        <circle class="st30" cx="733.2" cy="179.3" r="7.8"/>
        <circle class="st30" cx="760.7" cy="151.8" r="7.8"/>
        <circle class="st30" cx="785.3" cy="149.3" r="7.8"/>
        <circle class="st30" cx="757.8" cy="177" r="7.8"/>
        <circle class="st30" cx="805" cy="142.7" r="7.8"/>
        <circle class="st30" cx="780.9" cy="175.8" r="7.8"/>
        <circle class="st30" cx="803.1" cy="175" r="7.8"/>
        <circle class="st30" cx="752.6" cy="204.4" r="7.8"/>
        <circle class="st30" cx="822.8" cy="170.8" r="7.8"/>
        <circle class="st30" cx="773.9" cy="204.1" r="7.8"/>
        <circle class="st30" cx="794.6" cy="204" r="7.8"/>
        <circle class="st30" cx="814.9" cy="204" r="7.8"/>
        <circle class="st30" cx="834.5" cy="201.9" r="7.8"/>
        <circle class="st30" cx="761.8" cy="234.8" r="7.8"/>
        <circle class="st30" cx="781.3" cy="234.8" r="7.8"/>
        <circle class="st30" cx="800.8" cy="234.8" r="7.8"/>
        <circle class="st30" cx="820.3" cy="234.8" r="7.8"/>
        <circle class="st30" cx="839.8" cy="234.8" r="7.8"/>
      </g>
      <g class="st13">
        <text class="st8" transform="translate(259.9 718.3) rotate(0)"><tspan x="0" y="0">237</tspan></text>
      </g>
      <g id="af">
        <circle class="st27" cx="121.2" cy="718.4" r="5"/>
        <circle class="st27" cx="133.8" cy="718.4" r="5"/>
        <circle class="st27" cx="146.3" cy="718.3" r="5"/>
        <circle class="st27" cx="158.8" cy="718.3" r="5"/>
        <circle class="st27" cx="171.3" cy="718.3" r="5"/>
        <circle class="st27" cx="183.8" cy="718.3" r="5"/>
        <circle class="st27" cx="196.3" cy="718.3" r="5"/>
        <circle class="st27" cx="208.8" cy="718.3" r="5"/>
        <circle class="st27" cx="122.1" cy="705.4" r="5"/>
        <circle class="st27" cx="134.7" cy="705" r="5"/>
        <circle class="st27" cx="147.3" cy="705" r="5"/>
        <circle class="st27" cx="159.9" cy="705" r="5"/>
      </g>
      <g id="ag">
        <circle class="st15" cx="172.6" cy="705" r="5"/>
        <circle class="st15" cx="185.3" cy="704.9" r="5"/>
        <circle class="st15" cx="124" cy="692.5" r="5"/>
        <circle class="st15" cx="198" cy="704.9" r="5"/>
        <circle class="st15" cx="136.9" cy="691.9" r="5"/>
        <circle class="st15" cx="149.6" cy="691.8" r="5"/>
        <circle class="st15" cx="210.8" cy="704.8" r="5"/>
        <circle class="st15" cx="162.5" cy="691.8" r="5"/>
        <circle class="st15" cx="126.9" cy="679.8" r="5"/>
        <circle class="st15" cx="175.4" cy="691.8" r="5"/>
      </g>
      <g id="ah">
        <circle class="st29" cx="140.1" cy="678.9" r="5"/>
        <circle class="st29" cx="188.4" cy="691.8" r="5"/>
        <circle class="st29" cx="153.2" cy="678.9" r="5"/>
        <circle class="st29" cx="130.7" cy="667.4" r="5"/>
        <circle class="st29" cx="201.6" cy="691.8" r="5"/>
        <circle class="st29" cx="166.4" cy="679" r="5"/>
        <circle class="st29" cx="144.4" cy="666.3" r="5"/>
        <circle class="st29" cx="179.7" cy="679.1" r="5"/>
        <circle class="st29" cx="215" cy="691.9" r="5"/>
        <circle class="st29" cx="157.9" cy="666.4" r="5"/>
        <circle class="st29" cx="135.4" cy="655.3" r="5"/>
        <circle class="st29" cx="193.2" cy="679.2" r="5"/>
        <circle class="st29" cx="171.5" cy="666.6" r="5"/>
        <circle class="st29" cx="149.8" cy="654.1" r="5"/>
        <circle class="st29" cx="207" cy="679.4" r="5"/>
        <circle class="st29" cx="141.1" cy="643.6" r="5"/>
        <circle class="st29" cx="185.4" cy="666.9" r="5"/>
        <circle class="st29" cx="163.7" cy="654.4" r="5"/>
        <circle class="st29" cx="156.2" cy="642.3" r="5"/>
        <circle class="st29" cx="177.9" cy="654.8" r="5"/>
        <circle class="st29" cx="199.6" cy="667.3" r="5"/>
        <circle class="st29" cx="221.2" cy="679.8" r="5"/>
        <circle class="st29" cx="147.7" cy="632.4" r="5"/>
        <circle class="st29" cx="170.7" cy="643" r="5"/>
        <circle class="st29" cx="192.4" cy="655.5" r="5"/>
        <circle class="st29" cx="163.6" cy="631.2" r="5"/>
        <circle class="st29" cx="214.2" cy="668" r="5"/>
        <circle class="st29" cx="155.1" cy="621.7" r="5"/>
        <circle class="st29" cx="185.5" cy="643.8" r="5"/>
        <circle class="st29" cx="207.4" cy="656.3" r="5"/>
        <circle class="st29" cx="178.7" cy="632.2" r="5"/>
        <circle class="st29" cx="172" cy="620.8" r="5"/>
        <circle class="st29" cx="200.7" cy="644.9" r="5"/>
        <circle class="st29" cx="163.3" cy="611.7" r="5"/>
        <circle class="st29" cx="229.5" cy="669" r="5"/>
        <circle class="st29" cx="194.1" cy="633.5" r="5"/>
        <circle class="st29" cx="223" cy="657.6" r="5"/>
        <circle class="st29" cx="187.6" cy="622.3" r="5"/>
        <circle class="st29" cx="172.3" cy="602.2" r="5"/>
        <circle class="st29" cx="181.1" cy="611.1" r="5"/>
        <circle class="st29" cx="216.5" cy="646.4" r="5"/>
        <circle class="st29" cx="210.1" cy="635.3" r="5"/>
        <circle class="st29" cx="203.8" cy="624.2" r="5"/>
        <circle class="st29" cx="197.4" cy="613.2" r="5"/>
        <circle class="st29" cx="182" cy="593.5" r="5"/>
        <circle class="st29" cx="191.1" cy="602.2" r="5"/>
        <circle class="st29" cx="239.4" cy="659.6" r="5"/>
        <circle class="st29" cx="233.1" cy="648.7" r="5"/>
        <circle class="st29" cx="226.8" cy="637.7" r="5"/>
        <circle class="st29" cx="220.6" cy="626.8" r="5"/>
        <circle class="st29" cx="192.3" cy="585.6" r="5"/>
        <circle class="st29" cx="214.3" cy="616" r="5"/>
        <circle class="st29" cx="208.1" cy="605.1" r="5"/>
        <circle class="st29" cx="201.8" cy="594.2" r="5"/>
        <circle class="st29" cx="203.1" cy="578.5" r="5"/>
        <circle class="st29" cx="213.1" cy="587.2" r="5"/>
        <circle class="st29" cx="219.4" cy="598" r="5"/>
        <circle class="st29" cx="225.7" cy="608.8" r="5"/>
        <circle class="st29" cx="231.9" cy="619.6" r="5"/>
        <circle class="st29" cx="238.2" cy="630.4" r="5"/>
        <circle class="st29" cx="244.4" cy="641.3" r="5"/>
        <circle class="st29" cx="250.7" cy="652.1" r="5"/>
        <circle class="st29" cx="214.5" cy="572.3" r="5"/>
        <circle class="st29" cx="225.1" cy="581.1" r="5"/>
        <circle class="st29" cx="231.4" cy="592" r="5"/>
        <circle class="st29" cx="237.7" cy="602.8" r="5"/>
        <circle class="st29" cx="244" cy="613.7" r="5"/>
        <circle class="st29" cx="226.4" cy="566.9" r="5"/>
        <circle class="st29" cx="250.4" cy="624.6" r="5"/>
        <circle class="st29" cx="256.7" cy="635.6" r="5"/>
        <circle class="st29" cx="237.4" cy="576.1" r="5"/>
        <circle class="st29" cx="263.1" cy="646.5" r="5"/>
        <circle class="st29" cx="243.8" cy="587.1" r="5"/>
        <circle class="st29" cx="238.6" cy="562.5" r="5"/>
        <circle class="st29" cx="250.2" cy="598.1" r="5"/>
        <circle class="st29" cx="256.7" cy="609.2" r="5"/>
        <circle class="st29" cx="250.2" cy="572.1" r="5"/>
        <circle class="st29" cx="263.2" cy="620.4" r="5"/>
        <circle class="st29" cx="256.7" cy="583.4" r="5"/>
        <circle class="st29" cx="251.1" cy="559" r="5"/>
        <circle class="st29" cx="269.7" cy="631.7" r="5"/>
        <circle class="st29" cx="263.2" cy="594.7" r="5"/>
        <circle class="st29" cx="263.2" cy="569.3" r="5"/>
        <circle class="st29" cx="269.8" cy="606.2" r="5"/>
        <circle class="st29" cx="276.3" cy="643.2" r="5"/>
        <circle class="st29" cx="263.9" cy="556.5" r="5"/>
        <circle class="st29" cx="269.8" cy="580.9" r="5"/>
        <circle class="st29" cx="276.4" cy="617.9" r="5"/>
        <circle class="st29" cx="276.4" cy="592.7" r="5"/>
        <circle class="st29" cx="276.5" cy="567.6" r="5"/>
        <circle class="st29" cx="276.8" cy="555" r="5"/>
        <circle class="st29" cx="283.1" cy="629.7" r="5"/>
        <circle class="st29" cx="283.1" cy="604.7" r="5"/>
        <circle class="st29" cx="283.1" cy="579.7" r="5"/>
        <circle class="st29" cx="289.8" cy="592" r="5"/>
        <circle class="st29" cx="289.8" cy="554.5" r="5"/>
        <circle class="st29" cx="289.8" cy="567" r="5"/>
        <circle class="st29" cx="289.9" cy="617" r="5"/>
        <circle class="st29" cx="289.9" cy="642" r="5"/>
        <circle class="st29" cx="296.5" cy="579.7" r="5"/>
        <circle class="st29" cx="296.6" cy="604.7" r="5"/>
        <circle class="st29" cx="296.6" cy="629.7" r="5"/>
        <circle class="st29" cx="302.8" cy="555" r="5"/>
        <circle class="st29" cx="303.1" cy="567.6" r="5"/>
        <circle class="st29" cx="303.2" cy="592.7" r="5"/>
        <circle class="st29" cx="303.3" cy="617.8" r="5"/>
        <circle class="st29" cx="309.8" cy="580.9" r="5"/>
        <circle class="st29" cx="315.7" cy="556.5" r="5"/>
        <circle class="st29" cx="303.4" cy="643.1" r="5"/>
        <circle class="st29" cx="309.9" cy="606.2" r="5"/>
        <circle class="st29" cx="316.4" cy="569.3" r="5"/>
        <circle class="st29" cx="316.5" cy="594.7" r="5"/>
        <circle class="st29" cx="310" cy="631.7" r="5"/>
        <circle class="st29" cx="328.5" cy="559" r="5"/>
        <circle class="st29" cx="323" cy="583.3" r="5"/>
        <circle class="st29" cx="316.5" cy="620.4" r="5"/>
        <circle class="st29" cx="329.5" cy="572.1" r="5"/>
        <circle class="st29" cx="323" cy="609.2" r="5"/>
        <circle class="st29" cx="329.4" cy="598.1" r="5"/>
        <circle class="st29" cx="341" cy="562.4" r="5"/>
        <circle class="st29" cx="335.8" cy="587" r="5"/>
        <circle class="st29" cx="316.6" cy="646.5" r="5"/>
        <circle class="st29" cx="342.2" cy="576" r="5"/>
        <circle class="st29" cx="323" cy="635.5" r="5"/>
        <circle class="st29" cx="329.4" cy="624.6" r="5"/>
        <circle class="st29" cx="353.2" cy="566.8" r="5"/>
        <circle class="st29" cx="335.7" cy="613.7" r="5"/>
        <circle class="st29" cx="342" cy="602.8" r="5"/>
        <circle class="st29" cx="348.3" cy="591.9" r="5"/>
        <circle class="st29" cx="354.6" cy="581" r="5"/>
        <circle class="st29" cx="365.1" cy="572.2" r="5"/>
        <circle class="st29" cx="329" cy="652" r="5"/>
        <circle class="st29" cx="335.3" cy="641.2" r="5"/>
        <circle class="st29" cx="341.5" cy="630.4" r="5"/>
        <circle class="st29" cx="347.8" cy="619.5" r="5"/>
        <circle class="st29" cx="354" cy="608.7" r="5"/>
        <circle class="st29" cx="360.3" cy="597.9" r="5"/>
        <circle class="st29" cx="366.5" cy="587" r="5"/>
        <circle class="st29" cx="376.5" cy="578.4" r="5"/>
        <circle class="st29" cx="377.9" cy="594.1" r="5"/>
        <circle class="st29" cx="371.6" cy="605" r="5"/>
        <circle class="st29" cx="365.4" cy="615.9" r="5"/>
        <circle class="st29" cx="387.4" cy="585.5" r="5"/>
        <circle class="st29" cx="359.1" cy="626.8" r="5"/>
        <circle class="st29" cx="352.9" cy="637.7" r="5"/>
        <circle class="st29" cx="346.6" cy="648.6" r="5"/>
        <circle class="st29" cx="340.4" cy="659.6" r="5"/>
        <circle class="st29" cx="388.6" cy="602.1" r="5"/>
        <circle class="st29" cx="397.7" cy="593.4" r="5"/>
        <circle class="st29" cx="382.2" cy="613.1" r="5"/>
        <circle class="st29" cx="375.9" cy="624.1" r="5"/>
        <circle class="st29" cx="369.6" cy="635.2" r="5"/>
        <circle class="st29" cx="363.2" cy="646.3" r="5"/>
        <circle class="st29" cx="398.5" cy="610.9" r="5"/>
        <circle class="st29" cx="407.4" cy="602.1" r="5"/>
        <circle class="st29" cx="392.1" cy="622.1" r="5"/>
        <circle class="st29" cx="356.8" cy="657.5" r="5"/>
        <circle class="st29" cx="385.6" cy="633.4" r="5"/>
        <circle class="st29" cx="350.3" cy="668.9" r="5"/>
        <circle class="st29" cx="416.4" cy="611.5" r="5"/>
        <circle class="st29" cx="379" cy="644.7" r="5"/>
        <circle class="st29" cx="407.7" cy="620.6" r="5"/>
        <circle class="st29" cx="401" cy="632.1" r="5"/>
        <circle class="st29" cx="372.4" cy="656.2" r="5"/>
        <circle class="st29" cx="394.3" cy="643.6" r="5"/>
        <circle class="st29" cx="424.6" cy="621.5" r="5"/>
        <circle class="st29" cx="365.6" cy="667.8" r="5"/>
        <circle class="st29" cx="416.1" cy="631" r="5"/>
        <circle class="st29" cx="387.3" cy="655.3" r="5"/>
        <circle class="st29" cx="409" cy="642.8" r="5"/>
        <circle class="st29" cx="432" cy="632.2" r="5"/>
        <circle class="st29" cx="358.5" cy="679.7" r="5"/>
        <circle class="st29" cx="380.2" cy="667.2" r="5"/>
        <circle class="st29" cx="401.8" cy="654.7" r="5"/>
        <circle class="st29" cx="423.5" cy="642.2" r="5"/>
        <circle class="st29" cx="416" cy="654.2" r="5"/>
        <circle class="st29" cx="394.4" cy="666.8" r="5"/>
        <circle class="st29" cx="438.6" cy="643.4" r="5"/>
        <circle class="st29" cx="372.8" cy="679.3" r="5"/>
        <circle class="st29" cx="429.9" cy="653.9" r="5"/>
        <circle class="st29" cx="408.2" cy="666.5" r="5"/>
        <circle class="st29" cx="386.6" cy="679.1" r="5"/>
        <circle class="st29" cx="444.3" cy="655.1" r="5"/>
        <circle class="st29" cx="421.9" cy="666.2" r="5"/>
        <circle class="st29" cx="364.8" cy="691.8" r="5"/>
        <circle class="st29" cx="400.1" cy="678.9" r="5"/>
        <circle class="st29" cx="435.3" cy="666.1" r="5"/>
        <circle class="st29" cx="413.4" cy="678.8" r="5"/>
        <circle class="st29" cx="378.2" cy="691.7" r="5"/>
        <circle class="st29" cx="449.1" cy="667.2" r="5"/>
        <circle class="st29" cx="426.6" cy="678.7" r="5"/>
        <circle class="st29" cx="391.4" cy="691.7" r="5"/>
        <circle class="st29" cx="439.7" cy="678.7" r="5"/>
        <circle class="st29" cx="404.4" cy="691.7" r="5"/>
        <circle class="st29" cx="452.9" cy="679.6" r="5"/>
      </g>
      <g id="ai">
        <circle class="st24" cx="417.3" cy="691.6" r="5"/>
        <circle class="st24" cx="369" cy="704.7" r="5"/>
        <circle class="st24" cx="430.2" cy="691.6" r="5"/>
        <circle class="st24" cx="442.9" cy="691.6" r="5"/>
        <circle class="st24" cx="381.8" cy="704.8" r="5"/>
        <circle class="st24" cx="455.8" cy="692.3" r="5"/>
        <circle class="st24" cx="394.6" cy="704.8" r="5"/>
        <circle class="st24" cx="407.2" cy="704.8" r="5"/>
        <circle class="st24" cx="419.9" cy="704.8" r="5"/>
        <circle class="st24" cx="432.5" cy="704.8" r="5"/>
        <circle class="st24" cx="445.1" cy="704.8" r="5"/>
        <circle class="st24" cx="457.7" cy="705.2" r="5"/>
        <circle class="st24" cx="371" cy="718.2" r="5"/>
        <circle class="st24" cx="383.5" cy="718.2" r="5"/>
        <circle class="st24" cx="396" cy="718.2" r="5"/>
        <circle class="st24" cx="408.6" cy="718.2" r="5"/>
        <circle class="st24" cx="421.1" cy="718.2" r="5"/>
        <circle class="st24" cx="433.6" cy="718.1" r="5"/>
        <circle class="st24" cx="446.1" cy="718.1" r="5"/>
        <circle class="st24" cx="458.6" cy="718.1" r="5"/>
      </g>
      <g class="st13">
        <text class="st8" transform="translate(944.4 716.6)"><tspan x="0" y="0">400</tspan></text>
      </g>
      <g id="aj">
        <circle class="st25" cx="809" cy="718" r="3.6"/>
        <circle class="st25" cx="818.1" cy="718" r="3.6"/>
        <circle class="st25" cx="827.2" cy="718" r="3.6"/>
        <circle class="st25" cx="836.3" cy="718" r="3.6"/>
        <circle class="st25" cx="845.4" cy="718" r="3.6"/>
        <circle class="st25" cx="854.5" cy="718" r="3.6"/>
        <circle class="st25" cx="863.6" cy="718" r="3.6"/>
        <circle class="st25" cx="872.7" cy="718" r="3.6"/>
        <circle class="st25" cx="881.8" cy="718" r="3.6"/>
        <circle class="st25" cx="890.9" cy="718" r="3.6"/>
        <circle class="st25" cx="900" cy="718" r="3.6"/>
        <circle class="st25" cx="809.6" cy="707.2" r="3.6"/>
        <circle class="st25" cx="818.7" cy="707.1" r="3.6"/>
        <circle class="st25" cx="827.9" cy="707" r="3.6"/>
        <circle class="st25" cx="837" cy="707.2" r="3.6"/>
        <circle class="st25" cx="846.1" cy="707.1" r="3.6"/>
        <circle class="st25" cx="855.3" cy="707" r="3.6"/>
        <circle class="st25" cx="864.4" cy="707.2" r="3.6"/>
      </g>
      <g id="ak">
        <circle cx="873.6" cy="707.1" r="3.6"/>
        <circle cx="810.8" cy="696.5" r="3.6"/>
        <circle cx="882.8" cy="706.9" r="3.6"/>
        <circle cx="820.1" cy="696.3" r="3.6"/>
        <circle cx="892" cy="707.2" r="3.6"/>
        <circle cx="829.3" cy="696.2" r="3.6"/>
        <circle cx="838.5" cy="696.5" r="3.6"/>
        <circle cx="901.2" cy="707" r="3.6"/>
        <circle cx="847.7" cy="696.3" r="3.6"/>
        <circle cx="857" cy="696.1" r="3.6"/>
      </g>
      <g id="al">
        <circle class="st31" cx="812.8" cy="685.9" r="3.6"/>
        <circle class="st31" cx="866.3" cy="696.5" r="3.6"/>
        <circle class="st31" cx="822.1" cy="685.7" r="3.6"/>
        <circle class="st31" cx="875.7" cy="696.3" r="3.6"/>
        <circle class="st31" cx="831.5" cy="685.4" r="3.6"/>
        <circle class="st31" cx="840.8" cy="686" r="3.6"/>
        <circle class="st31" cx="885.1" cy="696" r="3.6"/>
        <circle class="st31" cx="850.2" cy="685.7" r="3.6"/>
        <circle class="st31" cx="815.3" cy="675.4" r="3.6"/>
        <circle class="st31" cx="894.4" cy="696.6" r="3.6"/>
        <circle class="st31" cx="824.9" cy="675.2" r="3.6"/>
        <circle class="st31" cx="859.8" cy="685.4" r="3.6"/>
      </g>
      <g id="am">
        <circle class="st26" cx="869.1" cy="686.1" r="3.6"/>
        <circle class="st26" cx="834.5" cy="674.9" r="3.6"/>
        <circle class="st26" cx="904" cy="696.3" r="3.6"/>
        <circle class="st26" cx="843.8" cy="675.6" r="3.6"/>
        <circle class="st26" cx="818.6" cy="665.1" r="3.6"/>
        <circle class="st26" cx="878.8" cy="685.8" r="3.6"/>
        <circle class="st26" cx="853.6" cy="675.3" r="3.6"/>
        <circle class="st26" cx="828.4" cy="664.9" r="3.6"/>
        <circle class="st26" cx="888.6" cy="685.5" r="3.6"/>
        <circle class="st26" cx="863.4" cy="675" r="3.6"/>
        <circle class="st26" cx="838.2" cy="664.6" r="3.6"/>
      </g>
      <g id="an">
        <circle class="st33" cx="822.5" cy="655.1" r="3.6"/>
        <circle class="st33" cx="847.7" cy="665.5" r="3.6"/>
        <circle class="st33" cx="872.9" cy="676" r="3.6"/>
        <circle class="st33" cx="898.1" cy="686.4" r="3.6"/>
        <circle class="st33" cx="832.5" cy="654.8" r="3.6"/>
        <circle class="st33" cx="857.7" cy="665.3" r="3.6"/>
        <circle class="st33" cx="883" cy="675.7" r="3.6"/>
        <circle class="st33" cx="842.7" cy="654.6" r="3.6"/>
        <circle class="st33" cx="908.2" cy="686.2" r="3.6"/>
        <circle class="st33" cx="827" cy="645.3" r="3.6"/>
        <circle class="st33" cx="868" cy="665" r="3.6"/>
        <circle class="st33" cx="852.3" cy="655.8" r="3.6"/>
        <circle class="st33" cx="893.3" cy="675.5" r="3.6"/>
        <circle class="st33" cx="837.3" cy="645.1" r="3.6"/>
        <circle class="st33" cx="877.6" cy="666.2" r="3.6"/>
        <circle class="st33" cx="862.7" cy="655.6" r="3.6"/>
        <circle class="st33" cx="832.1" cy="635.8" r="3.6"/>
        <circle class="st33" cx="847.9" cy="644.9" r="3.6"/>
        <circle class="st33" cx="903" cy="676.7" r="3.6"/>
        <circle class="st33" cx="888.2" cy="666.1" r="3.6"/>
        <circle class="st33" cx="857.6" cy="646.4" r="3.6"/>
        <circle class="st33" cx="873.4" cy="655.4" r="3.6"/>
        <circle class="st33" cx="842.8" cy="635.7" r="3.6"/>
        <circle class="st33" cx="837.8" cy="626.7" r="3.6"/>
        <circle class="st33" cx="883.2" cy="657" r="3.6"/>
        <circle class="st33" cx="868.5" cy="646.3" r="3.6"/>
        <circle class="st33" cx="853.7" cy="635.7" r="3.6"/>
        <circle class="st33" cx="913.8" cy="676.7" r="3.6"/>
        <circle class="st33" cx="899.1" cy="666" r="3.6"/>
        <circle class="st33" cx="848.9" cy="626.7" r="3.6"/>
        <circle class="st33" cx="863.6" cy="637.4" r="3.6"/>
        <circle class="st33" cx="879.6" cy="646.4" r="3.6"/>
        <circle class="st33" cx="894.3" cy="657" r="3.6"/>
        <circle class="st33" cx="909" cy="667.7" r="3.6"/>
        <circle class="st33" cx="844.1" cy="617.9" r="3.6"/>
        <circle class="st33" cx="860.2" cy="626.9" r="3.6"/>
        <circle class="st33" cx="874.9" cy="637.6" r="3.6"/>
        <circle class="st33" cx="889.6" cy="648.3" r="3.6"/>
        <circle class="st33" cx="855.6" cy="618.2" r="3.6"/>
        <circle class="st33" cx="870.3" cy="628.9" r="3.6"/>
        <circle class="st33" cx="851" cy="609.6" r="3.6"/>
        <circle class="st33" cx="905.9" cy="657.2" r="3.6"/>
        <circle class="st33" cx="886.6" cy="637.9" r="3.6"/>
        <circle class="st33" cx="920.6" cy="668" r="3.6"/>
        <circle class="st33" cx="867.3" cy="618.5" r="3.6"/>
        <circle class="st33" cx="901.4" cy="648.7" r="3.6"/>
        <circle class="st33" cx="882.1" cy="629.4" r="3.6"/>
        <circle class="st33" cx="862.8" cy="610.1" r="3.6"/>
        <circle class="st33" cx="916.1" cy="659.5" r="3.6"/>
        <circle class="st33" cx="896.8" cy="640.3" r="3.6"/>
        <circle class="st33" cx="877.6" cy="621" r="3.6"/>
        <circle class="st33" cx="858.3" cy="601.7" r="3.6"/>
        <circle class="st33" cx="875" cy="610.7" r="3.6"/>
        <circle class="st33" cx="894.3" cy="630" r="3.6"/>
        <circle class="st33" cx="870.6" cy="602.5" r="3.6"/>
        <circle class="st33" cx="913.7" cy="649.3" r="3.6"/>
        <circle class="st33" cx="889.9" cy="621.8" r="3.6"/>
        <circle class="st33" cx="866.1" cy="594.3" r="3.6"/>
        <circle class="st33" cx="909.2" cy="641.1" r="3.6"/>
        <circle class="st33" cx="885.4" cy="613.6" r="3.6"/>
        <circle class="st33" cx="904.8" cy="632.9" r="3.6"/>
        <circle class="st33" cx="928.6" cy="660.4" r="3.6"/>
        <circle class="st33" cx="883.3" cy="603.5" r="3.6"/>
        <circle class="st33" cx="878.8" cy="595.4" r="3.6"/>
        <circle class="st33" cx="924.2" cy="652.3" r="3.6"/>
        <circle class="st33" cx="874.4" cy="587.4" r="3.6"/>
        <circle class="st33" cx="902.7" cy="622.9" r="3.6"/>
        <circle class="st33" cx="898.3" cy="614.8" r="3.6"/>
        <circle class="st33" cx="893.8" cy="606.8" r="3.6"/>
        <circle class="st33" cx="922.3" cy="642.3" r="3.6"/>
        <circle class="st33" cx="917.8" cy="634.3" r="3.6"/>
        <circle class="st33" cx="892" cy="596.9" r="3.6"/>
        <circle class="st33" cx="913.4" cy="626.3" r="3.6"/>
        <circle class="st33" cx="887.5" cy="589" r="3.6"/>
        <circle class="st33" cx="883.1" cy="581" r="3.6"/>
        <circle class="st33" cx="911.7" cy="616.5" r="3.6"/>
        <circle class="st33" cx="907.2" cy="608.6" r="3.6"/>
        <circle class="st33" cx="902.7" cy="600.7" r="3.6"/>
        <circle class="st33" cx="937.5" cy="654" r="3.6"/>
        <circle class="st33" cx="933" cy="646.1" r="3.6"/>
        <circle class="st33" cx="901.2" cy="591" r="3.6"/>
        <circle class="st33" cx="896.7" cy="583.1" r="3.6"/>
        <circle class="st33" cx="892.2" cy="575.2" r="3.6"/>
        <circle class="st33" cx="922.5" cy="620.6" r="3.6"/>
        <circle class="st33" cx="927.1" cy="628.5" r="3.6"/>
        <circle class="st33" cx="931.6" cy="636.4" r="3.6"/>
        <circle class="st33" cx="912" cy="595.3" r="3.6"/>
        <circle class="st33" cx="916.6" cy="603.1" r="3.6"/>
        <circle class="st33" cx="921.2" cy="611" r="3.6"/>
        <circle class="st33" cx="901.6" cy="570" r="3.6"/>
        <circle class="st33" cx="906.2" cy="577.8" r="3.6"/>
        <circle class="st33" cx="910.8" cy="585.7" r="3.6"/>
        <circle class="st33" cx="942.6" cy="641" r="3.6"/>
        <circle class="st33" cx="932.2" cy="615.8" r="3.6"/>
        <circle class="st33" cx="947.3" cy="648.8" r="3.6"/>
        <circle class="st33" cx="921.8" cy="590.5" r="3.6"/>
        <circle class="st33" cx="911.3" cy="565.3" r="3.6"/>
        <circle class="st33" cx="936.9" cy="623.6" r="3.6"/>
        <circle class="st33" cx="926.4" cy="598.4" r="3.6"/>
        <circle class="st33" cx="916" cy="573.2" r="3.6"/>
        <circle class="st33" cx="941.6" cy="631.5" r="3.6"/>
        <circle class="st33" cx="931.2" cy="606.3" r="3.6"/>
        <circle class="st33" cx="920.7" cy="581.1" r="3.6"/>
        <circle class="st33" cx="921.3" cy="561.3" r="3.6"/>
        <circle class="st33" cx="931.8" cy="586.6" r="3.6"/>
        <circle class="st33" cx="926.1" cy="569.3" r="3.6"/>
        <circle class="st33" cx="942.2" cy="611.8" r="3.6"/>
        <circle class="st33" cx="936.6" cy="594.5" r="3.6"/>
        <circle class="st33" cx="931" cy="577.2" r="3.6"/>
        <circle class="st33" cx="941.5" cy="602.5" r="3.6"/>
        <circle class="st33" cx="947.1" cy="619.8" r="3.6"/>
        <circle class="st33" cx="952.7" cy="637.1" r="3.6"/>
        <circle class="st33" cx="931.6" cy="558" r="3.6"/>
        <circle class="st33" cx="952" cy="627.8" r="3.6"/>
        <circle class="st33" cx="957.7" cy="645.1" r="3.6"/>
        <circle class="st33" cx="936.5" cy="566" r="3.6"/>
        <circle class="st33" cx="942.1" cy="583.4" r="3.6"/>
        <circle class="st33" cx="941.5" cy="574.1" r="3.6"/>
        <circle class="st33" cx="947.1" cy="591.5" r="3.6"/>
        <circle class="st33" cx="952.6" cy="608.8" r="3.6"/>
        <circle class="st33" cx="942" cy="555.3" r="3.6"/>
        <circle class="st33" cx="952.1" cy="599.6" r="3.6"/>
        <circle class="st33" cx="957.7" cy="617" r="3.6"/>
        <circle class="st33" cx="947.1" cy="563.5" r="3.6"/>
        <circle class="st33" cx="952.6" cy="580.9" r="3.6"/>
        <circle class="st33" cx="963.2" cy="634.4" r="3.6"/>
        <circle class="st33" cx="952.2" cy="571.8" r="3.6"/>
        <circle class="st33" cx="962.9" cy="625.3" r="3.6"/>
        <circle class="st33" cx="957.7" cy="589.3" r="3.6"/>
        <circle class="st33" cx="952.6" cy="553.3" r="3.6"/>
        <circle class="st33" cx="963.3" cy="606.8" r="3.6"/>
        <circle class="st33" cx="968.4" cy="642.8" r="3.6"/>
        <circle class="st33" cx="957.8" cy="561.7" r="3.6"/>
        <circle class="st33" cx="963" cy="597.7" r="3.6"/>
        <circle class="st33" cx="963.3" cy="579.3" r="3.6"/>
        <circle class="st33" cx="963" cy="570.2" r="3.6"/>
        <circle class="st33" cx="968.5" cy="615.3" r="3.6"/>
        <circle class="st33" cx="963.3" cy="551.9" r="3.6"/>
        <circle class="st33" cx="968.5" cy="587.9" r="3.6"/>
        <circle class="st33" cx="968.6" cy="560.6" r="3.6"/>
        <circle class="st33" cx="974" cy="633.1" r="3.6"/>
        <circle class="st33" cx="973.9" cy="624" r="3.6"/>
        <circle class="st33" cx="974" cy="605.8" r="3.6"/>
        <circle class="st33" cx="973.9" cy="596.7" r="3.6"/>
        <circle class="st33" cx="974" cy="578.5" r="3.6"/>
        <circle class="st33" cx="974" cy="569.4" r="3.6"/>
        <circle class="st33" cx="974" cy="551.2" r="3.6"/>
        <circle class="st33" cx="979.4" cy="560.2" r="3.6"/>
        <circle class="st33" cx="979.4" cy="587.5" r="3.6"/>
        <circle class="st33" cx="979.4" cy="614.8" r="3.6"/>
        <circle class="st33" cx="979.4" cy="642" r="3.6"/>
        <circle class="st33" cx="984.8" cy="551.2" r="3.6"/>
        <circle class="st33" cx="984.9" cy="569.4" r="3.6"/>
        <circle class="st33" cx="984.8" cy="578.5" r="3.6"/>
        <circle class="st33" cx="984.9" cy="596.7" r="3.6"/>
        <circle class="st33" cx="984.8" cy="605.8" r="3.6"/>
        <circle class="st33" cx="985" cy="624" r="3.6"/>
        <circle class="st33" cx="984.8" cy="633.1" r="3.6"/>
        <circle class="st33" cx="990.3" cy="560.6" r="3.6"/>
        <circle class="st33" cx="990.3" cy="587.9" r="3.6"/>
        <circle class="st33" cx="995.6" cy="551.9" r="3.6"/>
        <circle class="st33" cx="990.3" cy="615.3" r="3.6"/>
        <circle class="st33" cx="995.8" cy="570.2" r="3.6"/>
        <circle class="st33" cx="995.6" cy="579.3" r="3.6"/>
        <circle class="st33" cx="995.9" cy="597.7" r="3.6"/>
        <circle class="st33" cx="1001.1" cy="561.7" r="3.6"/>
        <circle class="st33" cx="990.4" cy="642.8" r="3.6"/>
        <circle class="st33" cx="995.6" cy="606.8" r="3.6"/>
        <circle class="st33" cx="1006.3" cy="553.3" r="3.6"/>
        <circle class="st33" cx="1001.1" cy="589.3" r="3.6"/>
        <circle class="st33" cx="996" cy="625.3" r="3.6"/>
        <circle class="st33" cx="1006.7" cy="571.8" r="3.6"/>
        <circle class="st33" cx="995.6" cy="634.4" r="3.6"/>
        <circle class="st33" cx="1006.3" cy="580.9" r="3.6"/>
        <circle class="st33" cx="1011.8" cy="563.5" r="3.6"/>
        <circle class="st33" cx="1001.2" cy="617" r="3.6"/>
        <circle class="st33" cx="1006.7" cy="599.6" r="3.6"/>
        <circle class="st33" cx="1016.8" cy="555.3" r="3.6"/>
        <circle class="st33" cx="1006.2" cy="608.8" r="3.6"/>
        <circle class="st33" cx="1011.8" cy="591.5" r="3.6"/>
        <circle class="st33" cx="1017.4" cy="574.1" r="3.6"/>
        <circle class="st33" cx="1016.8" cy="583.4" r="3.6"/>
        <circle class="st33" cx="1022.4" cy="566" r="3.6"/>
        <circle class="st33" cx="1001.2" cy="645.1" r="3.6"/>
        <circle class="st33" cx="1006.8" cy="627.8" r="3.6"/>
        <circle class="st33" cx="1027.3" cy="558" r="3.6"/>
        <circle class="st33" cx="1006.1" cy="637.1" r="3.6"/>
        <circle class="st33" cx="1011.8" cy="619.8" r="3.6"/>
        <circle class="st33" cx="1017.4" cy="602.5" r="3.6"/>
        <circle class="st33" cx="1027.9" cy="577.2" r="3.6"/>
        <circle class="st33" cx="1022.2" cy="594.5" r="3.6"/>
        <circle class="st33" cx="1016.6" cy="611.8" r="3.6"/>
        <circle class="st33" cx="1032.7" cy="569.3" r="3.6"/>
        <circle class="st33" cx="1027.1" cy="586.6" r="3.6"/>
        <circle class="st33" cx="1037.5" cy="561.3" r="3.6"/>
        <circle class="st33" cx="1038.1" cy="581.1" r="3.6"/>
        <circle class="st33" cx="1027.7" cy="606.3" r="3.6"/>
        <circle class="st33" cx="1017.3" cy="631.5" r="3.6"/>
        <circle class="st33" cx="1042.8" cy="573.2" r="3.6"/>
        <circle class="st33" cx="1032.4" cy="598.4" r="3.6"/>
        <circle class="st33" cx="1022" cy="623.6" r="3.6"/>
        <circle class="st33" cx="1047.5" cy="565.3" r="3.6"/>
        <circle class="st33" cx="1037.1" cy="590.5" r="3.6"/>
        <circle class="st33" cx="1011.6" cy="648.8" r="3.6"/>
        <circle class="st33" cx="1026.7" cy="615.8" r="3.6"/>
        <circle class="st33" cx="1016.2" cy="641" r="3.6"/>
        <circle class="st33" cx="1048.1" cy="585.7" r="3.6"/>
        <circle class="st33" cx="1052.7" cy="577.9" r="3.6"/>
        <circle class="st33" cx="1057.3" cy="570" r="3.6"/>
        <circle class="st33" cx="1037.7" cy="611" r="3.6"/>
        <circle class="st33" cx="1042.2" cy="603.1" r="3.6"/>
        <circle class="st33" cx="1046.8" cy="595.3" r="3.6"/>
        <circle class="st33" cx="1027.2" cy="636.4" r="3.6"/>
        <circle class="st33" cx="1031.8" cy="628.5" r="3.6"/>
        <circle class="st33" cx="1036.3" cy="620.6" r="3.6"/>
        <circle class="st33" cx="1066.7" cy="575.2" r="3.6"/>
        <circle class="st33" cx="1062.2" cy="583.1" r="3.6"/>
        <circle class="st33" cx="1057.7" cy="591" r="3.6"/>
        <circle class="st33" cx="1025.8" cy="646.1" r="3.6"/>
        <path class="st33" d="M1021.3,650.3c2,0,3.6,1.6,3.6,3.6s-1.6,3.6-3.6,3.6-3.6-1.6-3.6-3.6,1.6-3.6,3.6-3.6Z"/>
        <circle class="st33" cx="1056.2" cy="600.7" r="3.6"/>
        <circle class="st33" cx="1051.7" cy="608.6" r="3.6"/>
        <circle class="st33" cx="1047.2" cy="616.5" r="3.6"/>
        <circle class="st33" cx="1075.8" cy="581" r="3.6"/>
        <circle class="st33" cx="1071.3" cy="589" r="3.6"/>
        <circle class="st33" cx="1045.5" cy="626.3" r="3.6"/>
        <circle class="st33" cx="1066.9" cy="596.9" r="3.6"/>
        <circle class="st33" cx="1041" cy="634.3" r="3.6"/>
        <circle class="st33" cx="1036.6" cy="642.3" r="3.6"/>
        <circle class="st33" cx="1065" cy="606.8" r="3.6"/>
        <circle class="st33" cx="1060.6" cy="614.8" r="3.6"/>
        <circle class="st33" cx="1056.2" cy="622.9" r="3.6"/>
        <circle class="st33" cx="1084.5" cy="587.4" r="3.6"/>
        <circle class="st33" cx="1034.7" cy="652.3" r="3.6"/>
        <circle class="st33" cx="1080" cy="595.4" r="3.6"/>
        <circle class="st33" cx="1075.6" cy="603.5" r="3.6"/>
        <circle class="st33" cx="1030.3" cy="660.4" r="3.6"/>
        <circle class="st33" cx="1054.1" cy="633" r="3.6"/>
        <circle class="st33" cx="1073.4" cy="613.6" r="3.6"/>
        <circle class="st33" cx="1049.6" cy="641.1" r="3.6"/>
        <circle class="st33" cx="1092.8" cy="594.3" r="3.6"/>
        <circle class="st33" cx="1069" cy="621.8" r="3.6"/>
        <circle class="st33" cx="1045.2" cy="649.3" r="3.6"/>
        <circle class="st33" cx="1088.3" cy="602.5" r="3.6"/>
        <circle class="st33" cx="1064.5" cy="630" r="3.6"/>
        <circle class="st33" cx="1083.8" cy="610.7" r="3.6"/>
        <circle class="st33" cx="1100.6" cy="601.7" r="3.6"/>
        <circle class="st33" cx="1081.3" cy="621" r="3.6"/>
        <circle class="st33" cx="1062" cy="640.3" r="3.6"/>
        <circle class="st33" cx="1042.7" cy="659.5" r="3.6"/>
        <circle class="st33" cx="1096.1" cy="610.1" r="3.6"/>
        <circle class="st33" cx="1076.8" cy="629.4" r="3.6"/>
        <circle class="st33" cx="1057.5" cy="648.7" r="3.6"/>
        <circle class="st33" cx="1091.5" cy="618.5" r="3.6"/>
        <circle class="st33" cx="1038.2" cy="668" r="3.6"/>
        <circle class="st33" cx="1072.2" cy="637.9" r="3.6"/>
        <circle class="st33" cx="1053" cy="657.2" r="3.6"/>
        <circle class="st33" cx="1107.9" cy="609.6" r="3.6"/>
        <circle class="st33" cx="1088.6" cy="628.9" r="3.6"/>
        <circle class="st33" cx="1103.3" cy="618.2" r="3.6"/>
        <circle class="st33" cx="1069.2" cy="648.3" r="3.6"/>
        <circle class="st33" cx="1083.9" cy="637.6" r="3.6"/>
        <circle class="st33" cx="1098.7" cy="626.9" r="3.6"/>
        <circle class="st33" cx="1114.7" cy="617.9" r="3.6"/>
        <circle class="st33" cx="1049.8" cy="667.7" r="3.6"/>
        <circle class="st33" cx="1064.6" cy="657" r="3.6"/>
        <circle class="st33" cx="1079.3" cy="646.4" r="3.6"/>
        <circle class="st33" cx="1095.2" cy="637.4" r="3.6"/>
        <circle class="st33" cx="1110" cy="626.7" r="3.6"/>
        <circle class="st33" cx="1059.8" cy="666" r="3.6"/>
        <circle class="st33" cx="1045.1" cy="676.7" r="3.6"/>
        <circle class="st33" cx="1105.2" cy="635.7" r="3.6"/>
        <circle class="st33" cx="1090.4" cy="646.3" r="3.6"/>
        <circle class="st33" cx="1075.7" cy="657" r="3.6"/>
        <circle class="st33" cx="1121" cy="626.7" r="3.6"/>
        <circle class="st33" cx="1116.1" cy="635.7" r="3.6"/>
        <circle class="st33" cx="1085.5" cy="655.4" r="3.6"/>
        <circle class="st33" cx="1101.3" cy="646.4" r="3.6"/>
        <circle class="st33" cx="1070.7" cy="666.1" r="3.6"/>
        <circle class="st33" cx="1055.9" cy="676.8" r="3.6"/>
        <circle class="st33" cx="1111" cy="644.9" r="3.6"/>
        <circle class="st33" cx="1126.7" cy="635.8" r="3.6"/>
        <circle class="st33" cx="1096.2" cy="655.6" r="3.6"/>
        <circle class="st33" cx="1081.3" cy="666.2" r="3.6"/>
        <circle class="st33" cx="1121.5" cy="645.1" r="3.6"/>
        <circle class="st33" cx="1065.6" cy="675.5" r="3.6"/>
        <circle class="st33" cx="1106.6" cy="655.8" r="3.6"/>
        <circle class="st33" cx="1090.9" cy="665" r="3.6"/>
        <circle class="st33" cx="1131.9" cy="645.3" r="3.6"/>
        <circle class="st33" cx="1050.7" cy="686.2" r="3.6"/>
        <circle class="st33" cx="1116.2" cy="654.6" r="3.6"/>
        <circle class="st33" cx="1075.9" cy="675.7" r="3.6"/>
        <circle class="st33" cx="1101.1" cy="665.3" r="3.6"/>
        <circle class="st33" cx="1126.3" cy="654.8" r="3.6"/>
        <circle class="st33" cx="1060.8" cy="686.4" r="3.6"/>
        <circle class="st33" cx="1086" cy="676" r="3.6"/>
      </g>
      <g id="ao">
        <circle class="st23" cx="1111.2" cy="665.5" r="3.6"/>
        <circle class="st23" cx="1136.4" cy="655.1" r="3.6"/>
        <circle class="st23" cx="1120.6" cy="664.6" r="3.6"/>
        <circle class="st23" cx="1095.4" cy="675" r="3.6"/>
        <circle class="st23" cx="1070.3" cy="685.5" r="3.6"/>
        <circle class="st23" cx="1130.5" cy="664.9" r="3.6"/>
        <circle class="st23" cx="1105.3" cy="675.3" r="3.6"/>
        <circle class="st23" cx="1080.1" cy="685.8" r="3.6"/>
        <circle class="st23" cx="1140.3" cy="665.1" r="3.6"/>
        <circle class="st23" cx="1115" cy="675.6" r="3.6"/>
        <circle class="st23" cx="1054.9" cy="696.4" r="3.6"/>
        <circle class="st23" cx="1124.4" cy="674.9" r="3.6"/>
        <circle class="st23" cx="1089.8" cy="686.1" r="3.6"/>
        <circle class="st23" cx="1099.1" cy="685.4" r="3.6"/>
        <circle class="st23" cx="1134" cy="675.2" r="3.6"/>
        <circle class="st23" cx="1064.5" cy="696.6" r="3.6"/>
        <circle class="st23" cx="1143.5" cy="675.4" r="3.6"/>
        <circle class="st23" cx="1108.6" cy="685.7" r="3.6"/>
        <circle class="st23" cx="1073.8" cy="696" r="3.6"/>
        <circle class="st23" cx="1118.1" cy="686" r="3.6"/>
        <circle class="st23" cx="1127.3" cy="685.4" r="3.6"/>
        <circle class="st23" cx="1083.2" cy="696.3" r="3.6"/>
        <circle class="st23" cx="1136.7" cy="685.7" r="3.6"/>
        <circle class="st23" cx="1092.6" cy="696.5" r="3.6"/>
        <circle class="st23" cx="1146.1" cy="685.9" r="3.6"/>
        <circle class="st23" cx="1101.8" cy="696.1" r="3.6"/>
        <circle class="st23" cx="1111.1" cy="696.3" r="3.6"/>
        <circle class="st23" cx="1057.7" cy="707.1" r="3.6"/>
        <circle class="st23" cx="1120.4" cy="696.5" r="3.6"/>
        <circle class="st23" cx="1129.6" cy="696.2" r="3.6"/>
        <circle class="st23" cx="1066.9" cy="707.2" r="3.6"/>
        <circle class="st23" cx="1138.8" cy="696.3" r="3.6"/>
        <circle class="st23" cx="1076.1" cy="706.9" r="3.6"/>
        <circle class="st23" cx="1148" cy="696.5" r="3.6"/>
        <circle class="st23" cx="1085.2" cy="707.1" r="3.6"/>
        <circle class="st23" cx="1094.4" cy="707.2" r="3.6"/>
        <circle class="st23" cx="1103.6" cy="707" r="3.6"/>
        <circle class="st23" cx="1112.7" cy="707.1" r="3.6"/>
        <circle class="st23" cx="1121.9" cy="707.2" r="3.6"/>
        <circle class="st23" cx="1131" cy="707" r="3.6"/>
        <circle class="st23" cx="1140.1" cy="707.1" r="3.6"/>
        <circle class="st23" cx="1149.3" cy="707.2" r="3.6"/>
        <circle class="st23" cx="1058.9" cy="718" r="3.6"/>
      </g>
      <g id="ap">
        <circle class="st36" cx="1068" cy="718" r="3.6"/>
        <circle class="st36" cx="1077.1" cy="718" r="3.6"/>
        <circle class="st36" cx="1086.2" cy="718" r="3.6"/>
        <circle class="st36" cx="1095.3" cy="718" r="3.6"/>
        <circle class="st36" cx="1104.4" cy="718" r="3.6"/>
        <circle class="st36" cx="1113.5" cy="718" r="3.6"/>
        <circle class="st36" cx="1122.6" cy="718" r="3.6"/>
        <circle class="st36" cx="1131.7" cy="718" r="3.6"/>
        <circle class="st36" cx="1140.8" cy="718" r="3.6"/>
        <circle class="st36" cx="1149.8" cy="718" r="3.6"/>
      </g>
      <image class="st13" width="1436" height="1150" transform="translate(952.7 453.9) scale(0)" xlink:href="legislatura08-1.png"/>
      <g class="st13">
        <g class="st13">
          <g class="st13">
            <text class="st9" transform="translate(908.6 484.4)"><tspan x="0" y="0">12</tspan></text>
          </g>
        </g>
      </g>
      <g class="st13">
        <g class="st13">
          <g class="st13">
            <text class="st9" transform="translate(998.6 484.5)"><tspan x="0" y="0">18</tspan></text>
          </g>
        </g>
      </g>
      <rect id="aq" class="st3" x="958.8" y="491.7" width="29.9" height="29.3" rx="2" ry="2"/>
      <g id="ar">
        <ellipse id="as" class="st10" cx="973.8" cy="506.1" rx="14.2" ry="14.2"/>
        <path id="at" class="st4" d="M982.5,515.2l-.2.5v.2c-.1,0-.2.1-.2.1h0c0,0-.1.1-.1.1h-1.2s0,0,0,0h0c0,0,0-.1,0-.1h0c0,0,0-.2,0-.2l.7-1.5h0v-.2h0s0,0,0,0h0s0,0,0,0v.2c-.1,0-1,1.3-1,1.3l-.2.3h-.1c0,0-.1.1-.1.1h-.1s-.2,0-.2,0h-.2s-.2,0-.2,0h0s0,0,0,0h0c0,0,0-.1,0-.1h0c0-.1,0-.2,0-.2l.5-2.1h0c0,0,0-.1,0-.1h0s0,0,0,0l-.5.9-.7,1.3v.2c-.1,0-.2,0-.2,0h0s-.1,0-.1,0h-.9c0,0,0-.2,0-.2h0c0-.1,0-.2,0-.2v-.2c0,0,3.1-6,3.1-6h0c0-.1,0-.2,0-.2h0c0,0,.1-.1.1-.1h0s.2,0,.2,0h1.4s0,0,0,0h0v.3l-.5,1.9h0v.2h0c0,.1,0,.1,0,.1h.1s.1-.2.1-.2l.9-1.2.6-.9h0c0-.1,0-.2,0-.2h0c0,0,.2,0,.2,0h.7s.6,0,.6,0h.2s0,0,0,0h0c0,0,0,.2,0,.2h0c0,.1-.1.4-.1.4l-2.8,5.7h0ZM971.9,510.8l.2-.3h0c0-.1,0-.2,0-.2h.2s.1,0,.1,0h.1s0,.1,0,.1h0c0,.1,0,.2,0,.2v.2c0,0-.2.3-.2.3l-.6,1.2h-.1c0,.1-.1.2-.1.2h-.2c0,0,0,0,0,0h-.2c0,0,0-.2,0-.2h0c0-.1,0-.3,0-.3l.6-1.2h0ZM969.5,512.1h-.2c0,0-.4.1-.4.1h-.6s0,0,0,0h0s0-.1,0-.1h0c0,0,0-.1,0-.1h0c0,0,0-.1,0-.1h0c0,0,0-.1,0-.1h0c0-.1,0-.2,0-.2h0c0,0,0-.2,0-.2h0c0,0,0-.1,0-.1h0c0,0,0-.3,0-.3h0v-.2h0c0,0,0-.1,0-.1h0v-.2h0c0,0,0-.1,0-.1h-.1c0,0,0-.1,0-.1h-.2s0,0,0,0h0s0,0,0,0h0s0,0,0,0h0s0,0,0,0h0s0,.1,0,.1h0c0,0,0,.2,0,.2h0c0,.1,0,.3,0,.3h0c0,.1,0,.2,0,.2h0s0,0,0,0h-.1s0-.1,0-.1h0c0-.1,0-.4,0-.4v-.3s0-.3,0-.3v-.2h0v-.2h0c0,0,0,0,0,0h-.1s0,0,0,0h0s0,.1,0,.1h0c0,0,0,.2,0,.2h0c0,.1,0,.2,0,.2h0c0,.1-.2.5-.2.5v.2c0,0-.1.2-.1.2v.2s0,.3,0,.3v.4s0,.5,0,.5v.4s0,.2,0,.2h0c0,0,0,.1,0,.1h0s0,0,0,0h0s0-.2,0-.2v-.2c0,0-.2-.5-.2-.5v-.6c-.1,0-.2-.5-.2-.5v-.4s0-.5,0-.5v-.5s0-.4,0-.4v-.4c0,0,0-.2,0-.2v-.2s0-.1,0-.1h0c0,0,0,0,0,0h-.1s0,.1,0,.1h0c0,.1,0,.2,0,.2h0c0,.1,0,.2,0,.2h0c0,.1,0,.3,0,.3v.2c0,0-.1.2-.1.2v.2c0,0,0,.2,0,.2v.2s0,.2,0,.2h0c0,.1,0,.2,0,.2h0s0,0,0,0h0s0,0,0,0h0s0,0,0,0h0s0-.1,0-.1h0c0,0,0-.3,0-.3v-.3c0,0-.2-.2-.2-.2v-.2s0-.2,0-.2v-.2s0-.5,0-.5v-.4s0-.4,0-.4h0c0-.1,0-.2,0-.2h0c0,0,0-.1,0-.1h-.2c0,0,0,.1,0,.1h0c0,0,0,.1,0,.1h0c0,0,0,.1,0,.1h0c0,.1,0,.2,0,.2h0s0,0,0,0h0s0,0,0,0h-.1s0,0,0,0h0c0,0,0-.2,0-.2v-.2s0-.2,0-.2h0c0-.1,0-.2,0-.2h0v-1.7s0-.5,0-.5l.3-1.1.2-.5.2-.5.3-.5.4-.7.4-.5.3-.3.3-.3.3-.2.4-.3.6-.3.7-.2h.5c0-.1.5-.2.5-.2h1.2c0,0,.6.2.6.2l.7.3.7.3.5.4.4.4.4.5.3.6.2.6.2.5v.4c.1,0,.2.4.2.4v.2s0,.2,0,.2h0c0,0,0,0,0,0h0s0-.1,0-.1l.2-.3.4-.7.4-.7.2-.4v-.3c0,0,0-.5,0-.5v-.4s0-.3,0-.3h0c0-.1,0-.3,0-.3h0c0,0,0,0,0,0h-.2s-.1,0-.1,0h-.1c0,.1-.2.3-.2.3h0c0,.1-.1.2-.1.2h-.1s0,0,0,0h0c0,0,0-.1,0-.1h0c0,0,0-.2,0-.2h0c0-.1,0-.2,0-.2h0v-.2h0c0,0,0-.1,0-.1h0s-.1,0-.1,0h-.2s-.2.1-.2.1h-.2c0,.1-.2.2-.2.2h-.1c0,0,0,0,0,0h0s0-.1,0-.1v-.5s.1-.2.1-.2h0c0-.1,0-.2,0-.2h0c0-.1,0-.1,0-.1h-.1s-.3,0-.3,0h-.4s-.1,0-.1,0h0s0-.1,0-.1h0v-.2h0c0-.1,0-.3,0-.3l.2-.2.2-.2.3-.2.3-.2h.5c0-.1.5-.3.5-.3h.3c0-.1.3-.3.3-.3l.2-.2.2-.3v-.3c.1,0,.2-.3.2-.3v-.4c.1,0,.3-.4.3-.4v-.3c.1,0,.2-.3.2-.3l.2-.2.3-.3.2-.2h.2c0-.1.2-.2.2-.2h.2s.4,0,.4,0h.5s.4,0,.4,0h.8s.4.1.4.1h.3c0,.1.2.2.2.2h0c0,.1,0,.2,0,.2h0c0,0-.1.1-.1.1h-.2s-.3.1-.3.1h-.3c0,.1-.2.2-.2.2h-.1c0,.1,0,.2,0,.2h0c0,.1,0,.3,0,.3h0c0,.1,0,.2,0,.2h.1s.2.1.2.1h.4s0,0,0,0h0c0,0,0,.2,0,.2h0c0,0-.2.2-.2.2l-1,.4-.5.2h-.1c0,0-.2.2-.2.2h-.1c0,.1,0,.3,0,.3v.2s0,.1,0,.1h0c0,.1.1.3.1.3h0c0,0,.2.1.2.1h1.1s.8,0,.8,0h.1s.1.2.1.2h.2c0,0,.1.2.1.2h.1c0,.1,0,.2,0,.2h0c0,.1,0,.2,0,.2h0s-.3,0-.3,0h0s-.1,0-.1,0h0c0,0,0,.2,0,.2h.1c0,0,.3.2.3.2h.2c0,0,.2.1.2.1h.3c0,0,.1,0,.1,0h.1s0,.1,0,.1h0c0,0,0,.2,0,.2h-.1c0,0-.1.1-.1.1h-.1s-.2,0-.2,0h-.3s-.2,0-.2,0h0s0,0,0,0h0v.2h0c0,0,0,.1,0,.1h0s0,0,0,0h0c0,0,0,.1,0,.1h0c0,.1,0,.2,0,.2h0s0,0,0,0h0s0,0,0,0h0s0,0,0,0h0s0,0,0,0h0s0,0,0,0h0s0-.1,0-.1h0c0,0-.1-.2-.1-.2h0s-.1,0-.1,0h-.2v.4s.1.1.1.1v.2c.1,0,.3.2.3.2l.2.2.4.4.3.4.2.2v.3c.1,0,.2.2.2.2v.4c.1,0,.2.4.2.4v.4s0,.3,0,.3l-.2.5-.2.6-.4.6-.3.5-.4.5-.3.4h-.2c0,.1-.3.2-.3.2h-1.7s0,0,0,0h0s0,.1,0,.1h0c0,.1,0,.2,0,.2h0c0,0,0,.2,0,.2h0c0,0,0,0,0,0h0s0,0,0,0h0s0-.1,0-.1h0c0-.1-.2-.3-.2-.3h0s0,0,0,0h0s0,0,0,0h0s0,0,0,0h-.2s-.3,0-.3,0h-2.5s-.1.1-.1.1v.2c-.1,0-.2.4-.2.4l-.2.5h0c0,.1,0,.2,0,.2h0s0,0,0,0h0s0-.1,0-.1v-.3c.1,0,.5-.6.5-.6h1s1.6,0,1.6,0h.3c0,.1.1.2.1.2v.2c.1,0,.2.3.2.3v.6c0,0-.9,1.6-.9,1.6l-.5,1v.2c-.1,0-.4.2-.4.2l-.2.2h-.2c0,0-.2.2-.2.2h-.2s-1.4,0-1.4,0h0c0,0,0,.2,0,.2h0c0,0-.6,1.4-.6,1.4l-.2.4h0c0,.1-.1.2-.1.2h-.1c0,0-.1,0-.1,0h-1s-.2,0-.2,0h0c0,0,0-.1,0-.1h0c0-.1,1.5-3.1,1.5-3.1v-.3c.1,0,.2-.2.2-.2h0c0,0,0-.2,0-.2h0ZM976.3,510.5l-1.9,3.9h0v.2h0c0,0,0,.1,0,.1h.3s.3-.2.3-.2l.2-.3.8-1.3.6-1.2.2-.6v-.3c0,0,.1-.2.1-.2h0c0-.1,0-.3,0-.3h0c0,0-.4,0-.4,0h-.2c0,0,0,.2,0,.2h0ZM974.3,516.1h-2s0,0,0,0h0c0,0,0-.2,0-.2h0c0-.1,0-.2,0-.2h0c0-.1,3.2-6.4,3.2-6.4h0c0-.1,0-.1,0-.1h0s.1,0,.1,0h1.9c0,0,.2.2.2.2h.2c0,.1.1.2.1.2v.2c.1,0,.3.3.3.3v.2c0,0,0,.3,0,.3v.5s-.2.5-.2.5v.5c-.1,0-.4.6-.4.6l-.5.9-.4.6-.6.8-.4.5-.5.4-.3.2h-.3c0,.1-.2.2-.2.2h-.2Z"/>
      </g>
      <g class="st13">
        <g class="st13">
          <g class="st13">
            <text class="st9" transform="translate(999.6 520.5)"><tspan x="0" y="0">10</tspan></text>
          </g>
        </g>
      </g>
      <g class="st13">
        <g class="st13">
          <g class="st13">
            <text class="st9" transform="translate(1096.9 484)"><tspan x="0" y="0">10</tspan></text>
          </g>
        </g>
      </g>
      <path id="au" class="st10" d="M1066.7,479h-1.3v-.2c0,0,0-.1,0-.2,0,0,0,0-.2,0s-.2,0-.2,0c0,0,0,0,0,.1s0,.1,0,.2c0,0,.2,0,.4.1.6.2,1,.3,1.2.4.2.1.2.3.2.5s0,.3-.1.4-.3.1-.5.2c-.3,0-.6,0-.9,0s-.7,0-1,0-.4-.1-.5-.2c0-.1-.1-.2-.1-.4v-.2h1.3v.3c0,0,0,.1,0,.2,0,0,0,0,.2,0s.2,0,.2,0c0,0,0,0,0-.1,0-.1,0-.2-.1-.3,0,0-.3-.1-.7-.2-.3-.1-.6-.2-.7-.2s-.2-.1-.3-.2c0,0-.1-.2-.1-.3s0-.3.2-.4c.1,0,.3-.1.5-.2.2,0,.5,0,.9,0s.7,0,.9,0c.3,0,.4.1.5.2,0,0,.1.2.1.4h0c0,0,0,0,0,0Z"/>
      <path id="av" class="st14" d="M1051.5,455.4h26.8c.5.2,1.3,0,1,1.3v26.3c0,.8,0,1.6-1.4,1.4h-26.2c-1.7.2-1.4-.6-1.3-1.4v-26.2c-.1-1.1.4-1.3,1.1-1.4h0Z"/>
      <path id="aw" class="st22" d="M1061,458l-.5.2-.9-.8-.6.3-.5.2-1,.6-.5.3-.5.4.3,1.2-.4.3-.8.9-.3.4-1.2-.3-.4.5-.3.5-.6,1-.3.5-.2.5.9.9-.2.5-.3,1.2v.5c-.1,0-1.4.4-1.4.4v.6c0,0-.1.6-.1.6v1.8s0,.6,0,.6l1.3.4v.5c0,0,.4,1.1.4,1.1l.2.5-.9,1,.3.6.2.5.6,1,.2.2.2.2.4.5,1.3-.3.3.4.8.9.3.3-.3,1.3.5.4.5.3,1,.6.5.3.6.2,1-1,.5.2,1.2.3h.5c0,.1.4,1.5.4,1.5h.6c0,0,.6.1.6.1h1.8s.6-.1.6-.1l.3-1.4h.5c0-.1,1.2-.4,1.2-.4h.4c0-.1,1,.8,1,.8l.5-.2.6-.3,1.1-.6h.1c0,0,.1-.2.1-.2l.3-.2.2-.2.2-.2-.4-1.3.4-.4.8-.9.3-.4,1.3.4.3-.5.2-.2.2-.3.6-1v-.3c.1,0,.2-.1.2-.1h0c0-.1.2-.7.2-.7l-1-1,.2-.5.3-1.2v-.2s0-.1,0-.1h0c0-.1,1.3-.5,1.3-.5v-.6c0,0,.1-.6.1-.6v-1.5s0-.3,0-.3v-.6c0,0-1.4-.4-1.4-.4v-.5c0,0-.4-1.2-.4-1.2l-.2-.5.9-1-.2-.5-.3-.6-.6-1-.3-.5-.3-.5-1.2.5-.4-.5-.8-.9-.4-.3.3-1.2-.5-.4-.5-.3-1-.6-.6-.3-.5-.2-.9.9-.4-.2-1.2-.3h-.5c0-.1-.4-1.3-.4-1.3h-.6c0,0-.6-.1-.6-.1h-1.8s-.6.1-.6.1l-.4,1.2h-.5c0,0-1.2.4-1.2.4h0Z"/>
      <path id="ax" class="st6" d="M1073.8,470c0,4.9-4,8.9-8.9,8.9s-8.9-4-8.9-8.9,4-8.9,8.9-8.9,8.9,4,8.9,8.9Z"/>
      <path id="ay" class="st20" d="M1069.9,476.7l-.9-4.6,2-1.9-2.7-1.9-.7-4.4-1.1,3.2-4.9-3.7,4.2,6.9-2.2,6.9,4.1-3.9,2.2,3.4h0Z"/>
      <path id="az" class="st21" d="M1061.7,477.2h1.4s2.1-7,2.1-7l-4.4-7h-1.4l4.3,7.2-2,6.8h0Z"/>
      <path id="ba" class="st21" d="M1066.3,466.4l.9-2.6h-1.3s-.7,1.8-.7,1.8l1,.8h0Z"/>
      <path id="bb" class="st21" d="M1067.7,474.1l1.9,3h-1.4s-1.3-2.1-1.3-2.1l.9-.9h0Z"/>
      <path id="bc" class="st2" d="M1074.2,470c0,5.1-4.2,9.3-9.3,9.3s-9.3-4.2-9.3-9.3,4.2-9.3,9.3-9.3,9.3,4.2,9.3,9.3Z"/>
      <path id="bd" class="st10" d="M1058.4,477.9l.6-.8.4.4-1.7,2-.5-.4c-.2-.2-.3-.3-.4-.4,0-.1,0-.3.1-.4l.5-.6c.1-.1.2-.2.3-.2.1,0,.3.1.5.3h0ZM1057.9,478.1l-.4.5c0,0,0,.1,0,.2l.6-.7c0,0-.2,0-.2,0h0ZM1058,476.8l-1.3,1.1c-.3.2-.5.2-.8-.2-.3-.3-.3-.6,0-.8l1.3-1.1c.1-.1.2-.1.4-.1.1,0,.3.1.4.3.3.3.3.6,0,.8h0ZM1057.5,476.2l-1.4,1.2s0,0,0,.1c0,0,0,0,.1,0l1.4-1.2s0,0,0-.1c0,0,0,0-.1,0h0ZM1056.7,474.2l.3.5c0,0-.2.2-.5.4h-.1c-.2.2-.3.2-.3.2,0,0,0,.1,0,.2l1.1-.7.3.5-2.3,1.4-.4-.6c0-.1-.1-.3-.1-.4s0-.3.2-.3l.3-.2c.2-.1.4,0,.6,0,0-.2,0-.4.2-.5h.2c.4-.4.6-.5.6-.6h0ZM1055.5,475.7l-.4.2c0,0,0,.1,0,.2l.6-.4c0-.1-.1-.1-.2,0h0ZM1053.8,474.4l-.2-.5,2.1-.7c0,0,0,0,0-.1,0,0,0,0-.1,0l-2.1.7-.2-.5,2.1-.7c.2,0,.3,0,.4,0,.1,0,.2.2.3.4,0,.2,0,.3,0,.5s-.1.3-.3.3l-2.1.7h0ZM1055.7,470.6v.6c0,0-1.2.6-1.2.6l1.4-.2v.5c0,0-2.6.4-2.6.4v-.7c0,0,1.1-.5,1.1-.5l-1.2.2v-.5c0,0,2.6-.4,2.6-.4h0ZM1055.7,468.5v.3s-.2,0-.2,0c0,.1.2.3.1.4s0,.3-.1.4c0,.1-.2.1-.4.1h-1.7c-.3-.2-.5-.4-.5-.8,0-.4.2-.6.5-.6h.5s0,.6,0,.6h-.5s0,0,0,0,0,0,0,0h1.8c0,.1,0,.1,0,0s0,0,0,0h-.5s0,0,0,0h-.4s0-.7,0-.7h1.3c0,.1,0,.1,0,.1ZM1055.3,468.3l-1.7-.4c-.3,0-.4-.3-.3-.8s.3-.6.7-.5l1.7.4c.2,0,.2.1.3.3s0,.3,0,.5c0,.4-.3.6-.6.5h0ZM1055.5,467.6l-1.8-.4c0,0,0,0,0,0s0,.1,0,.1l1.8.4c0,0,0,0,0,0,0,0,0-.1,0-.1h0ZM1056.1,467l-2.5-1,.3-.6c0-.1.2-.3.3-.4.1,0,.2,0,.4,0h.3c.2.2.2.4.2.6.2-.2.3-.3.5-.2l.5.2c.2,0,.3.2.3.3,0,.1,0,.3,0,.4l-.3.7h0ZM1054.8,465.6l-.4-.2c0,0-.2,0-.2.1l.7.3c0-.1,0-.2,0-.2h0ZM1055.9,466.1l-.6-.3c0,0-.2,0-.2.1l.9.4c0-.1,0-.2,0-.2h0ZM1057,465.2l-.3.5-2.3-1.3.3-.5,2.3,1.3ZM1057.7,464.1l-.7.9-2.2-1.5.7-.9.3.2-.3.5.6.4.3-.4.3.2-.3.4.8.5.3-.5.3.2h0ZM1058.7,463l-.4.4c0,0-.3-.1-.5-.4h-.1c-.2-.3-.2-.4-.2-.4,0,0-.1,0-.2,0l.9.9-.4.4-1.9-1.8.5-.5c.1-.1.2-.2.4-.2.1,0,.3,0,.4.1l.2.2c.2.1.2.3,0,.5.2-.1.4-.1.6,0l.2.2c.3.3.5.4.6.4h0ZM1057,462.3l-.3-.3c0,0-.1,0-.2,0l.5.5c0,0,0-.2,0-.2h0ZM1060,462l-.5.4-1.2-.9.8,1.1-.4.3-1.6-2.1.5-.4,1,.8-.7-1,.4-.3,1.6,2.1h0ZM1059.9,461.6l-.8-1.5c-.2-.3,0-.6.4-.8.4-.2.7-.1.8.1l.8,1.5c0,.1,0,.3,0,.4s-.2.2-.4.3c-.4.2-.7.2-.8-.1h0ZM1060.6,461.3l-.8-1.6s0,0-.1,0c0,0,0,0,0,.1l.8,1.6s0,0,.1,0c0,0,0,0,0-.1h0ZM1062,461.1l-.7-2.6.7-.2c.2,0,.3,0,.4,0,.1,0,.2.2.3.3l.4,1.6c0,.2,0,.3,0,.4,0,.1-.2.2-.4.2l-.7.2h0ZM1062.6,460.4l-.4-1.6c0,0,0-.1-.2,0l.5,1.9c.1,0,.2,0,.1-.2h0ZM1064.6,460.6h-1.1c0,.1-.3-2.5-.3-2.5h1.1c0-.1,0,.2,0,.2h-.6c0,0,0,.8,0,.8h.5s0,.3,0,.3h-.5s0,1,0,1h.6c0,0,0,.3,0,.3h0ZM1066.4,460.7h-1.1c0-.1.3-2.8.3-2.8h.6c0,0-.2,2.4-.2,2.4h.5s0,.4,0,.4ZM1066.6,460.3l.4-1.7c0-.3.3-.5.8-.3.4.1.6.3.5.7l-.4,1.7c0,.1-.1.2-.3.3-.1,0-.3,0-.5,0-.4-.1-.6-.3-.5-.6h0ZM1067.4,460.5l.4-1.8s0,0,0-.1c0,0,0,0-.1,0l-.4,1.8s0,0,0,.1c0,0,0,0,.1,0h0ZM1068.4,460.1l.5.2-.2.6c0,0,0,.1,0,.1,0,0,.1,0,.1,0v-.3c.2,0,.1-.2,0-.4-.1-.3-.2-.5-.2-.6s0-.2,0-.3v-.3c.2-.3.5-.4.9-.2.4.2.5.4.4.7l-.2.4-.5-.2.2-.5s0,0,0-.1c0,0-.1,0-.2.1v.2c-.1,0,0,.2,0,.4.1.3.2.5.2.6,0,.1,0,.2,0,.3v.3c-.3.3-.5.4-1,.2-.4-.2-.5-.4-.4-.7l.2-.6h0ZM1072.2,460.9l-.3-.2-1.3,1.9-.5-.3,1.3-1.9-.3-.2.2-.3,1,.7-.2.3h0ZM1072,463.8l-.4-.4c0-.1.1-.3.4-.5h.1c.2-.3.2-.3.2-.3,0,0,0-.1,0-.2l-.9.9-.4-.4,1.9-1.9.5.5c.1.1.2.2.2.4,0,.1,0,.3-.1.4l-.2.2c-.1.1-.3.2-.6,0,.1.2.1.4,0,.6l-.2.2c-.3.3-.4.5-.4.6h0ZM1072.7,462.1l.3-.3c0,0,0-.1,0-.2l-.5.5c0,0,.2,0,.2,0h0ZM1073,465.1l-.3-.5.5-.5-.2-.2-.6.3-.3-.5,2.4-1.2.4.6-1.9,1.9h0ZM1073.4,463.9l.6-.5-.7.4h0ZM1073,465.2l2.4-1.2.3.6c0,.1,0,.3,0,.4,0,.1,0,.2-.2.3l-.3.2c-.2,0-.3,0-.5-.1,0,.2,0,.4-.2.5l-.5.2c-.2,0-.3,0-.4,0s-.2-.2-.3-.3l-.3-.7h0ZM1074.9,465.1l.4-.2c0,0,0-.1,0-.2l-.7.3c0,.1.1.1.2,0h0ZM1073.8,465.7l.6-.3c0,0,0-.1,0-.2l-.9.4c0,.1.1.1.2,0h0ZM1074.1,468l-.2-.5.7-.3v-.2c0,0-.8.1-.8.1l-.2-.5,2.7-.3.2.7-2.4,1.2h0ZM1074.9,467l.7-.3h-.8c0,.1,0,.3,0,.3h0ZM1075.2,468v.5c0,0-.6,0-.6,0,0,0,0,0,0,0,0,0,0,0,0,0l2.2-.3v.6c0,0-2.1.3-2.1.3-.3,0-.5-.2-.6-.6,0-.2,0-.3,0-.4s.2-.2.3-.2h.7c0,0,0,0,0,0ZM1074.2,471.1v-.6s.7,0,.7,0v-.3h-.7c0-.1,0-.7,0-.7l2.6.5v.7s-2.7.3-2.7.3h0ZM1075.3,470.4h.8s-.8-.2-.8-.2v.2h0ZM1074.2,471.2l2.6.5-.2.7c0,.2,0,.3-.2.4-.1.1-.2.1-.4.1l-1.6-.3c-.2,0-.3-.1-.3-.2,0-.1,0-.3,0-.5l.2-.7h0ZM1074.5,472l1.7.3c0,0,.2,0,.2-.1l-1.9-.4c0,.1,0,.2,0,.2h0ZM1074.3,472.8l1.6.6c.3.1.4.4.2.8-.2.4-.4.6-.7.4l-1.6-.6c-.1,0-.2-.1-.3-.3,0-.1,0-.3,0-.5.2-.4.4-.6.7-.5h0ZM1074,473.5l1.7.6s0,0,.1,0,0-.1,0-.1l-1.7-.6s0,0-.1,0,0,.1,0,.1h0ZM1072.6,475.2l.3-.5c0,0,.3,0,.6.2h.1c.2.2.3.2.3.2,0,0,.2,0,.2,0l-1.1-.6.3-.5,2.3,1.3-.4.6c0,.1-.2.2-.3.3-.1,0-.3,0-.4,0l-.3-.2c-.2-.1-.2-.3-.2-.5-.2.2-.4.2-.6.1h-.2c-.4-.4-.6-.4-.7-.4h0ZM1074.5,475.5l.4.2c0,0,.2,0,.2,0l-.6-.4c0,.1,0,.2,0,.2h0ZM1071.9,476.2l.7-.9,2.1,1.6-.7.9-.3-.2.3-.4-.6-.5-.3.4-.2-.2.3-.4-.7-.6-.3.4-.3-.2h0ZM1072.5,477l-.4.4-.4-.4s0,0-.1,0c0,0,0,0,0,.1l.2.2c0,0,.2.1.4.1.3,0,.6,0,.7,0,0,0,.2,0,.2.1l.2.2c.2.2.2.5-.1.8-.3.3-.6.3-.8,0l-.3-.3.4-.4.3.4s0,0,.1,0c0,0,0-.1,0-.2h-.1c0-.2-.2-.2-.4-.2-.3,0-.6,0-.7,0-.1,0-.2,0-.3-.2l-.2-.2c-.2-.3-.2-.5.1-.9.3-.3.6-.3.8-.1l.4.4h0Z"/>
      <path id="be" class="st10" d="M1069.8,478.1l.2.5-.8.3.6,1.8-1.3.5-.6-1.8-.8.3-.2-.5,2.9-1h0Z"/>
      <path id="bf" class="st10" d="M1060.5,478.3l1.4.4c.4.1.7.2.8.3.2,0,.3.2.4.2,0,0,.1.2.2.2s0,.2,0,.3v.2c-.1.1-.2.2-.3.3s-.2,0-.4,0c-.2,0-.4,0-.7-.2h-.4c0-.1-.3.8-.3.8l-1.4-.4.7-2.3h0ZM1061.8,479.1l-.2.6s0,0,0,0c.1,0,.2,0,.3,0,0,0,0,0,.1-.1v-.2c0,0,0-.1,0-.2,0,0-.2,0-.3-.1h0Z"/>
      <path id="bg" class="st18" d="M409.7,60.3c20.9,6.9,35.9,26.5,35.9,49.5s-15,42.5-35.9,49.5V60.3h0Z"/>
      <path id="bh" class="st17" d="M376.4,60.2v99.1c-21-6.9-36.2-26.5-36.2-49.6s14.8-42.2,35.3-49.3l.8-.2h0Z"/>
      <polygon id="bi" class="st7" points="409.6 159.4 376.3 159.4 376.3 59.8 409.6 59.8 409.6 159.4"/>
      <polygon id="bj" class="st7" points="430.3 130.8 430.3 89 419.4 89 419.4 130.8 430.3 130.8"/>
      <path id="bk" class="st7" d="M348.8,89v41.8h10.9v-16.6h6.9c6-1.2,6.6-6.3,6.6-6.3v-12.2c-.4-5.8-6.5-6.8-6.5-6.8h-17.9,0ZM360.1,95.6v9.5c3.4,0,3.5-2,3.5-2v-4.4c.1-3.4-3.5-3-3.5-3h0Z"/>
      <path id="bl" class="st0" d="M348.8,89v41.8h10.9v-16.6h6.9c6-1.2,6.6-6.3,6.6-6.3v-12.2c-.4-5.8-6.5-6.8-6.5-6.8h-17.9M360.1,95.6v9.5c3.4,0,3.5-2,3.5-2v-4.4c.1-3.4-3.5-3-3.5-3h0Z"/>
      <path id="bm" class="st19" d="M380.9,73.1v41.8h10.9v-17.7c4.8-.2,3.9,3.3,3.9,3.3v14.4h11v-16.4c.7-3.3-3.3-5.5-3.3-5.5,3.3-1.8,3.1-5.8,3.1-5.8v-7.3c0-7-7.7-6.8-7.7-6.8h-17.9ZM392.1,79.9v9.5c3.4,0,3.5-2,3.5-2v-4.4c.1-3.4-3.5-3-3.5-3h0Z"/>
      <path id="bn" class="st0" d="M380.9,73.1v41.8h10.9v-17.7c4.8-.2,3.9,3.3,3.9,3.3v14.4h11v-16.4c.7-3.3-3.3-5.5-3.3-5.5,3.3-1.8,3.1-5.8,3.1-5.8v-7.3c0-7-7.7-6.8-7.7-6.8h-17.9M392.1,79.9v9.5c3.4,0,3.5-2,3.5-2v-4.4c.1-3.4-3.5-3-3.5-3h0Z"/>
      <path id="bo" class="st18" d="M49.6,460.2c6,2,10.3,7.6,10.3,14.2s-4.3,12.2-10.3,14.2v-28.5h0Z"/>
      <path id="bp" class="st17" d="M40,460.2v28.5c-6-2-10.4-7.6-10.4-14.3s4.2-12.2,10.2-14.2h.2Z"/>
      <polygon id="bq" class="st7" points="49.6 488.7 40 488.7 40 460 49.6 460 49.6 488.7"/>
      <polygon id="br" class="st7" points="55.5 480.5 55.6 468.5 52.4 468.5 52.4 480.5 55.5 480.5"/>
      <path id="bs" class="st7" d="M32.1,468.5v12h3.1v-4.8h2c1.7-.3,1.9-1.8,1.9-1.8v-3.5c-.1-1.7-1.9-2-1.9-2h-5.2ZM35.3,470.4v2.7c1,0,1-.6,1-.6v-1.3c0-1-1-.9-1-.9h0Z"/>
      <path id="bt" class="st0" d="M32.1,468.5v12h3.1v-4.8h2c1.7-.3,1.9-1.8,1.9-1.8v-3.5c-.1-1.7-1.9-2-1.9-2h-5.1M35.3,470.4v2.7c1,0,1-.6,1-.6v-1.3c0-1-1-.9-1-.9h0Z"/>
      <path id="bu" class="st19" d="M41.3,463.9v12h3.1v-5.1c1.4,0,1.1,1,1.1,1v4.1h3.2v-4.7c.2-1-1-1.6-1-1.6,1-.5.9-1.7.9-1.7v-2.1c0-2-2.2-2-2.2-2h-5.1ZM44.6,465.8v2.7c1,0,1-.6,1-.6v-1.3c0-1-1-.9-1-.9h0Z"/>
      <path id="bv" class="st0" d="M41.3,463.9v12h3.1v-5.1c1.4,0,1.1,1,1.1,1v4.1h3.2v-4.7c.2-1-1-1.6-1-1.6,1-.5.9-1.7.9-1.7v-2.1c0-2-2.2-2-2.2-2h-5.1M44.6,465.8v2.7c1,0,1-.6,1-.6v-1.3c0-1-1-.9-1-.9h0Z"/>
      <path id="bw" class="st18" d="M786.7,455.7c6,2,10.3,7.6,10.3,14.2s-4.3,12.2-10.3,14.2v-28.5h0Z"/>
      <path id="bx" class="st17" d="M777.1,455.7v28.5c-6-2-10.4-7.6-10.4-14.3s4.2-12.2,10.2-14.2h.2Z"/>
      <polygon id="by" class="st7" points="786.6 484.3 777 484.3 777 455.6 786.6 455.6 786.6 484.3"/>
      <polygon id="bz" class="st7" points="792.6 476 792.6 464 789.5 464 789.5 476 792.6 476"/>
      <path id="ca" class="st7" d="M769.1,464v12h3.1v-4.8h2c1.7-.3,1.9-1.8,1.9-1.8v-3.5c-.1-1.7-1.9-2-1.9-2h-5.1ZM772.4,465.9v2.7c1,0,1-.6,1-.6v-1.3c0-1-1-.9-1-.9h0Z"/>
      <path id="cb" class="st0" d="M769.1,464v12h3.1v-4.8h2c1.7-.3,1.9-1.8,1.9-1.8v-3.5c-.1-1.7-1.9-2-1.9-2h-5.1M772.4,465.9v2.7c1,0,1-.6,1-.6v-1.3c0-1-1-.9-1-.9h0Z"/>
      <path id="cc" class="st19" d="M778.4,459.4v12h3.1v-5.1c1.4,0,1.1,1,1.1,1v4.1h3.2v-4.7c.2-1-1-1.6-1-1.6,1-.5.9-1.7.9-1.7v-2.1c0-2-2.2-2-2.2-2h-5.1ZM781.6,461.4v2.7c1,0,1-.6,1-.6v-1.3c0-1-1-.9-1-.9h0Z"/>
      <path id="cd" class="st0" d="M778.4,459.4v12h3.1v-5.1c1.4,0,1.1,1,1.1,1v4.1h3.2v-4.7c.2-1-1-1.6-1-1.6,1-.5.9-1.7.9-1.7v-2.1c0-2-2.2-2-2.2-2h-5.1M781.6,461.4v2.7c1,0,1-.6,1-.6v-1.3c0-1-1-.9-1-.9h0Z"/>
    </g>
  </g>
</svg>