<?xml version="1.0" encoding="UTF-8"?>
<svg id="Capa_1" xmlns="http://www.w3.org/2000/svg" version="1.1" viewBox="0 0 1312.8 787.6">
  <!-- Generator: Adobe Illustrator 30.2.1, SVG Export Plug-In . SVG Version: 2.1.1 Build 1)  -->
  <defs>
    <style>
      .st0 {
        fill: none;
      }

      .st1 {
        fill: #d600fc;
      }

      .st2 {
        font-size: 31px;
      }

      .st2, .st3, .st4, .st5, .st6, .st7, .st8 {
        fill: #fff;
      }

      .st2, .st4, .st9, .st5, .st8 {
        isolation: isolate;
      }

      .st2, .st4, .st5, .st8 {
        font-family: Helvetica-Bold, Helvetica;
        font-weight: 700;
      }

      .st10 {
        fill: #06338e;
      }

      .st3, .st11, .st12, .st13, .st14, .st15, .st7 {
        fill-rule: evenodd;
      }

      .st4 {
        font-size: 36px;
      }

      .st11 {
        fill: #00923f;
      }

      .st16 {
        fill: #f0f;
      }

      .st12 {
        fill: #d23026;
      }

      .st17 {
        fill: #ed1c24;
      }

      .st18 {
        fill: #4da663;
      }

      .st5 {
        font-size: 24px;
      }

      .st13 {
        fill: #131516;
      }

      .st15, .st19 {
        fill: #d11f2b;
      }

      .st20 {
        fill: #009150;
      }

      .st7 {
        stroke: #fff;
        stroke-linejoin: round;
        stroke-width: 2px;
      }

      .st21 {
        fill: #282828;
      }

      .st22 {
        fill: #ed1d27;
      }

      .st23 {
        fill: red;
      }

      .st24 {
        fill: #05338d;
      }

      .st8 {
        font-size: 37px;
      }
    </style>
  </defs>
  <g id="Capa_2">
    <g id="Capa_21">
      <g id="c">
        <rect class="st21" x="-4.4" y="-3.4" width="1323.8" height="795.8"/>
      </g>
    </g>
  </g>
  <g id="b">
    <g id="c1">
      <g class="st9">
        <g class="st9">
          <g class="st9">
            <g class="st9">
              <text class="st2" transform="translate(349.8 53.6) scale(1.2 1)"><tspan x="0" y="0">Senadores XLIV y XLV Legislatura</tspan></text>
            </g>
          </g>
        </g>
      </g>
      <g class="st9">
        <g class="st9">
          <g class="st9">
            <g class="st9">
              <text class="st2" transform="translate(47 466.4) scale(1.2 1)"><tspan x="0" y="0">Diputados XLIV Legislatura</tspan></text>
            </g>
          </g>
        </g>
      </g>
      <g class="st9">
        <g class="st9">
          <g class="st9">
            <g class="st9">
              <text class="st2" transform="translate(804.6 461) scale(1.2 1)"><tspan x="0" y="0">Diputados X</tspan></text>
            </g>
            <g class="st9">
              <text class="st2" transform="translate(1014 461) scale(1.2 1)"><tspan x="0" y="0">LV</tspan></text>
            </g>
            <g class="st9">
              <text class="st2" transform="translate(1033.3 461) scale(1.2 1)"><tspan x="0" y="0" xml:space="preserve"> Legislatura</tspan></text>
            </g>
          </g>
        </g>
      </g>
      <g class="st9">
        <g class="st9">
          <g class="st9">
            <g class="st9">
              <text class="st5" transform="translate(115.8 514.7)"><tspan x="0" y="0">153</tspan></text>
            </g>
          </g>
        </g>
      </g>
      <g id="aj">
        <g id="ak">
          <path id="al" class="st24" d="M80.1,523.8h21.3c1.5,0,2.7,1.2,2.7,2.7v21.3c0,1.5-1.2,2.7-2.7,2.7h-21.3c-1.5,0-2.7-1.2-2.7-2.7v-21.3c0-1.5,1.2-2.7,2.7-2.7h0Z"/>
          <g id="am">
            <g id="an">
              <circle id="ao" class="st6" cx="90.8" cy="537.2" r="12.9" transform="translate(-447.5 621.1) rotate(-89.3)"/>
              <circle id="ap" class="st24" cx="90.8" cy="537.2" r="11.4"/>
              <circle id="aq" class="st6" cx="90.8" cy="537.2" r="10"/>
            </g>
            <path id="ar" class="st10" d="M85.6,536.9c.3,0,.4-.3.4-.7v-2.4c0-.4,0-.6-.4-.6h-.9v3.7h.9ZM82.9,543.1v-11.8h4.1c.7,0,1,.9,1,1.8v3.7c0,1-.3,2.1-1.3,2.1h-1.9v4.3h-1.9ZM89.8,539.8h1l-.5-2.5-.5,2.5h0ZM89.3,541.5l-.3,1.6h-1.9l2.1-11.8h2.4l2,11.8h-1.9l-.3-1.6h-2.1ZM93.8,543.1v-11.8h1.7l1.2,4.1v-4.1h1.9v11.8h-1.8l-1.1-3.6v3.6h-1.9Z"/>
          </g>
        </g>
      </g>
      <g class="st9">
        <g class="st9">
          <g class="st9">
            <g class="st9">
              <text class="st5" transform="translate(116.7 550.7)"><tspan x="0" y="0">6</tspan></text>
            </g>
          </g>
        </g>
      </g>
      <g class="st9">
        <g class="st9">
          <g class="st9">
            <g class="st9">
              <text class="st5" transform="translate(116.8 586)"><tspan x="0" y="0">2</tspan></text>
            </g>
          </g>
        </g>
      </g>
      <g class="st9">
        <g class="st9">
          <g class="st9">
            <g class="st9">
              <text class="st5" transform="translate(869.1 515.6)"><tspan x="0" y="0">172</tspan></text>
            </g>
          </g>
        </g>
      </g>
      <g id="bj">
        <g id="bk">
          <path id="bl" class="st24" d="M833.4,524.7h21.3c1.5,0,2.7,1.2,2.7,2.7v21.3c0,1.5-1.2,2.7-2.7,2.7h-21.3c-1.5,0-2.7-1.2-2.7-2.7v-21.3c0-1.5,1.2-2.7,2.7-2.7h0Z"/>
          <g id="bm">
            <g id="bn">
              <circle id="bo" class="st6" cx="844.1" cy="538.1" r="12.9"/>
              <circle id="bp" class="st24" cx="844.1" cy="538.1" r="11.4"/>
              <circle id="bq" class="st6" cx="844.1" cy="538.1" r="10"/>
            </g>
            <path id="br" class="st10" d="M839,537.8c.3,0,.4-.3.4-.7v-2.4c0-.4,0-.6-.4-.6h-.9v3.7h.9ZM836.2,544v-11.8h4.1c.7,0,1,.9,1,1.8v3.7c0,1-.3,2.1-1.3,2.1h-1.9v4.3h-1.9ZM843.1,540.7h1l-.5-2.5-.5,2.5h0ZM842.6,542.4l-.3,1.6h-1.9l2.1-11.8h2.4l2,11.8h-1.9l-.3-1.6h-2.1ZM847.1,544v-11.8h1.7l1.2,4.1v-4.1h1.9v11.8h-1.8l-1.1-3.6v3.6h-1.9Z"/>
          </g>
        </g>
      </g>
      <g class="st9">
        <g class="st9">
          <g class="st9">
            <g class="st9">
              <text class="st5" transform="translate(870 551.6)"><tspan x="0" y="0">5</tspan></text>
            </g>
          </g>
        </g>
      </g>
      <g class="st9">
        <g class="st9">
          <g class="st9">
            <g class="st9">
              <text class="st5" transform="translate(870.1 586.9)"><tspan x="0" y="0">1</tspan></text>
            </g>
          </g>
        </g>
      </g>
      <g class="st9">
        <g class="st9">
          <g class="st9">
            <text class="st4" transform="translate(699.6 270.1)"><tspan x="0" y="0">60</tspan></text>
          </g>
        </g>
      </g>
      <g id="bs">
        <circle class="st20" cx="557.3" cy="262.4" r="10" transform="translate(66.5 634.6) rotate(-62.4)"/>
        <circle class="st20" cx="582.7" cy="262.6" r="10"/>
        <circle class="st20" cx="607.8" cy="262.6" r="10"/>
        <circle class="st20" cx="633" cy="262.6" r="10"/>
        <circle class="st20" cx="561.9" cy="236" r="10"/>
        <circle class="st20" cx="587.3" cy="237.6" r="10"/>
        <circle class="st20" cx="613.4" cy="238" r="10"/>
        <circle class="st20" cx="570.5" cy="210.5" r="10"/>
        <circle class="st20" cx="641.2" cy="236.2" r="10"/>
        <circle class="st20" cx="596.5" cy="213.9" r="10"/>
        <circle class="st20" cx="624.3" cy="215.3" r="10"/>
        <circle class="st20" cx="583.2" cy="186.7" r="10"/>
        <circle class="st20" cx="609.8" cy="192.3" r="10"/>
        <circle class="st20" cx="599.7" cy="165.4" r="10"/>
        <circle class="st20" cx="657.3" cy="213.7" r="10"/>
        <circle class="st20" cx="640" cy="195.6" r="10"/>
        <circle class="st20" cx="626.9" cy="173.6" r="10"/>
        <circle class="st20" cx="619.5" cy="147.1" r="10"/>
        <circle class="st20" cx="659.7" cy="179.9" r="10"/>
        <circle class="st20" cx="647.2" cy="158.2" r="10"/>
        <circle class="st20" cx="642" cy="132.3" r="10"/>
        <circle class="st20" cx="679.5" cy="197.3" r="10"/>
        <circle class="st20" cx="669.9" cy="146.9" r="10"/>
        <circle class="st20" cx="682.4" cy="168.9" r="10"/>
        <circle class="st20" cx="666.7" cy="121.5" r="10"/>
        <circle class="st20" cx="694.3" cy="139.9" r="10"/>
        <circle class="st20" cx="692.8" cy="114.8" r="10"/>
        <circle class="st20" cx="705.8" cy="188.7" r="10"/>
        <circle class="st20" cx="707" cy="163.3" r="10"/>
        <circle class="st20" cx="719.6" cy="137.6" r="10"/>
        <circle class="st20" cx="719.6" cy="112.6" r="10"/>
        <circle class="st20" cx="732.2" cy="163.3" r="10"/>
        <circle class="st20" cx="733.4" cy="188.7" r="10"/>
        <circle class="st20" cx="746.5" cy="114.8" r="10"/>
        <circle class="st20" cx="744.9" cy="139.9" r="10"/>
        <circle class="st20" cx="772.6" cy="121.5" r="10"/>
        <circle class="st20" cx="756.8" cy="168.9" r="10"/>
        <circle class="st20" cx="769.3" cy="146.9" r="10"/>
        <circle class="st20" cx="759.7" cy="197.3" r="10"/>
        <circle class="st20" cx="797.2" cy="132.3" r="10"/>
        <circle class="st20" cx="792.1" cy="158.2" r="10"/>
        <circle class="st20" cx="779.5" cy="179.9" r="10"/>
        <circle class="st20" cx="819.8" cy="147.1" r="10"/>
        <circle class="st20" cx="812.3" cy="173.6" r="10"/>
        <circle class="st20" cx="799.2" cy="195.6" r="10"/>
        <circle class="st20" cx="782" cy="213.7" r="10"/>
        <circle class="st20" cx="839.5" cy="165.4" r="10"/>
        <circle class="st20" cx="829.4" cy="192.3" r="10"/>
        <circle class="st20" cx="856" cy="186.7" r="10"/>
        <circle class="st20" cx="814.9" cy="215.3" r="10"/>
        <circle class="st20" cx="842.8" cy="213.9" r="10"/>
        <circle class="st20" cx="798" cy="236.2" r="10"/>
        <circle class="st20" cx="868.7" cy="210.5" r="10"/>
        <circle class="st20" cx="825.8" cy="238" r="10"/>
        <circle class="st20" cx="851.9" cy="237.6" r="10"/>
        <circle class="st20" cx="877.3" cy="236" r="10"/>
        <circle class="st20" cx="806.2" cy="262.6" r="10"/>
        <circle class="st20" cx="831.4" cy="262.6" r="10"/>
        <circle class="st20" cx="856.5" cy="262.6" r="10"/>
        <circle class="st20" cx="881.6" cy="262.6" r="10"/>
      </g>
      <circle id="bt" class="st19" cx="194.2" cy="500.7" r="14.4"/>
      <circle id="bu" class="st6" cx="194.2" cy="500.7" r="11.6"/>
      <path id="bv" class="st14" d="M186.2,506.5h-.1c0,.1.4.6.4.6l-.5.4-.5-.6h-.1c0,.1.5.8.5.8h.1l1.3-1h0c0-.1-.1-.1-.1-.1l-.6.4-.4-.5h0ZM185.5,505.5h-.1c0,.1.4.7.4.7l-.5.3-.4-.6h-.1c0,.1.5.8.5.8h.1l1.4-.9h0c0-.1-.5-.9-.5-.9h-.1c0,.1.4.8.4.8l-.6.3-.4-.6h0ZM184.2,505l.2.4h.1l1.5-.7h0c0-.1-.2-.5-.2-.5-.1-.4-.5-.5-.8-.3l-.6.3c-.3.1-.4.5-.3.8h.1ZM184.4,504.9c-.1-.2,0-.4.2-.5l.6-.3c.2-.1.4,0,.5.2v.3c.1,0-1.2.6-1.2.6v-.3h-.2,0ZM184.5,502.9h-.1c0,.1.2.8.2.8l-.6.2-.2-.7h-.1c0,.1.2.9.2.9h.1l1.6-.5h0c0-.1-.2-1-.2-1h-.1c0,.1.2.9.2.9l-.6.2-.2-.7h-.2ZM184.4,501.7c-.1-.2-.3-.3-.6-.3s-.5.3-.4.7v.5h.2l1.6-.2s.1,0,0-.1h-.7c0,.1,0-.2,0-.2h0l.6-.5h0q0-.1-.1-.1h0l-.6.4h0v-.2ZM183.6,502.1c0-.3,0-.4.3-.5.2,0,.4.1.4.4v.3h-.7c0,.1,0-.2,0-.2h0ZM184.9,499.9l-1.6.6s-.1,0-.1.1,0,.1.1.1l1.6.5h.1c0-.1-.4-.1-.4-.1v-.8h.4v-.2s0-.1-.1-.1h0ZM183.5,500.6l.9-.3v.6l-.9-.3h0ZM184.6,498.8h0c.2.1.3.3.3.5s-.2.4-.4.4h-.7c-.2,0-.4-.3-.4-.5s.2-.4.4-.4,0,0,0,0h0c-.3-.1-.5.1-.6.4,0,.4.2.6.5.7h.7c.4.1.6-.1.6-.5s-.1-.6-.4-.6h-.1,0ZM183.6,498.1h-.1c0,.1,1.6.4,1.6.4h.1c0-.1-1.6-.4-1.6-.4h0ZM184.4,496.8c-.4-.1-.6,0-.7.4-.1.4,0,.6.4.8l.7.2c.4.1.6,0,.7-.4s0-.6-.4-.8l-.7-.2h0ZM184.1,497.8c-.2,0-.3-.2-.3-.5s.3-.3.5-.3l.7.2c.2,0,.3.2.3.5s-.3.3-.5.3l-.7-.2h0ZM184.6,495.2h-.1c0,.1,1.2.6,1.2.6h-1.5c0,.1-.1.1-.1.2h0c0,.1,1.5.8,1.5.8h.1c0-.1-1.2-.7-1.2-.7h1.6c0-.1,0-.2.1-.2h0c0-.1-1.5-.8-1.5-.8h-.1ZM185.5,493.7l-.3.4h0c0,.1,1.3,1.1,1.3,1.1h.1l.3-.4c.2-.3.2-.6-.1-.9l-.5-.4c-.3-.2-.6-.2-.9.1h0ZM185.6,493.8c.2-.2.4-.2.6,0l.5.4c.2.1.2.4,0,.6l-.2.3-1.2-.9.2-.3h0ZM187.4,492.9h0q0-.1-.1-.1h0l-.5.5-.4-.4.5-.5h0q0-.1-.1-.1l-.6.6h0c0,.1,1.2,1.2,1.2,1.2h.1l.6-.6h0q0-.1-.1-.1h0l-.6.6-.5-.5.5-.5h0ZM189,492.6h.1c0-.1-.3-.6-.3-.6l.3-.2c.3-.2.4-.5.2-.8s-.5-.4-.8-.2l-.4.2h0c0,.1.9,1.5.9,1.5h0ZM188.7,491c.2-.1.4,0,.6.1s0,.4-.1.6l-.3.2-.4-.7.3-.2h-.1ZM191.1,491.5l-1.1-1.3h-.2c0,0,0,0,0,.1l.2,1.7h0s0,.1.1,0h0v-.5l.6-.3.3.3h.1c.1,0,0,0,0-.1h0ZM189.9,490.4l.7.7-.6.2v-1h-.1,0ZM191.9,490.6c.2-.1.3-.4.2-.6,0-.3-.4-.5-.8-.4h-.4v.2h0l.4,1.6h.1c.1,0,0,0,0-.1l-.2-.6h.3c0-.1.5.5.5.5h.1c0-.1-.4-.6-.4-.6h.2ZM191.4,489.8c.2,0,.4,0,.5.2,0,.2,0,.4-.3.5h-.3l-.2-.6h.3ZM192.2,489.5h.5l.2,1.5s0,.1.1,0h0c0-.1-.2-1.6-.2-1.6h.4c0-.1,0-.2-.1-.2h-1v.2h.1ZM193.8,489.3s0-.1-.1-.1h0s-.1,0-.1.1h0v1.7s.1.1.2.1.1,0,.1-.1v-1.7h0ZM194.9,489.2h-.6v1.6h0c0,.1.5.1.5.1.4,0,.6-.2.7-.5v-.6c0-.4-.2-.6-.6-.6h0ZM194.8,489.4c.3,0,.4.2.4.4v.6c0,.2-.2.4-.5.4h-.4v-1.5h.5ZM197,490.1c0-.4-.1-.6-.5-.7-.4,0-.6.1-.7.5v.7c-.2.4,0,.6.3.7s.6-.1.7-.5v-.7h.2ZM196,489.9c0-.2.2-.4.5-.3s.4.2.3.5v.7c-.2.2-.4.4-.6.3s-.4-.2-.3-.5v-.7h.1ZM198.3,490.6h.1c0-.3,0-.5-.4-.6-.3-.1-.6,0-.7.2,0,.2,0,.4.2.6l.2.2c.1.1.2.2.2.4s-.2.3-.5.2c-.2,0-.3-.2-.3-.4h0c0-.1-.1-.1-.1-.1h0c0,.3,0,.5.4.7.3.1.6,0,.8-.3.1-.3,0-.5-.2-.6l-.2-.2c-.1,0-.1-.2-.1-.3s.2-.2.4-.1c.2,0,.3.2.2.4h0c0,.1,0-.1,0-.1ZM199.9,490.8l-.4-.2h-.1l-.9,1.4h0c0,.1.4.3.4.3.3.2.6.1.9-.2l.3-.5c.2-.3.1-.6-.2-.8h0ZM199.8,491c.2.1.3.4.1.6l-.3.6c-.1.2-.3.3-.6.1l-.3-.2.8-1.2.3.2h0ZM200.9,492.8h.1c0-.1-.5-.5-.5-.5l.4-.5.6.5h.1c0-.1-.7-.7-.7-.7h-.1l-1.1,1.3h0c0,.1.7.7.7.7h.1c0-.1-.6-.6-.6-.6l.4-.5.5.4h.1ZM202,492.6h0c0-.1-.1-.1-.1-.1l-1.2,1.1h0c0,.1.6.7.6.7h.1c0-.1-.5-.6-.5-.6l1.1-1.1h0ZM201.8,494.9h0q0,.1.1.1l.5-.3.2.3c.2.3.5.4.8.2.3-.2.4-.5.2-.8l-.2-.4h-.1l-1.4.9h-.1ZM203.4,494.5c.1.2,0,.4-.1.6s-.4,0-.6-.1l-.2-.3.7-.4.2.3h0ZM204.4,496.2h-.1l-1.1.5c-.2,0-.4,0-.5-.2s0-.4.2-.5l1.1-.5h0q0-.1-.1-.1h0l-1.1.5c-.3.1-.4.5-.3.8.1.3.4.5.8.3l1.1-.5h0c0-.1,0-.3,0-.3ZM203.9,497.8h.1c0-.1-.2-.8-.2-.8l.6-.2.2.7h.1c0-.1-.2-.9-.2-.9h-.1l-1.6.5h0c0,.1.3,1,.3,1h.1c0-.1-.2-.9-.2-.9l.6-.2.2.7h0ZM203.3,498.3h0v.6c.1.3.4.5.7.5s.4-.2.4-.4h0c0,.2.3.2.4.2.3,0,.4-.3.4-.6v-.5h-.2l-1.6.3h0ZM204.9,498.6c0,.2,0,.4-.2.4s-.3,0-.4-.3v-.4h.6c0-.1,0,.3,0,.3h0ZM204.1,498.8c0,.2,0,.4-.3.4s-.4,0-.4-.3v-.4h.6c0-.1,0,.3,0,.3h0ZM205.1,499.7s.1,0,.1-.1,0-.1-.1-.1h-1.7s-.1.1-.1.2h0v.9h.1v-.7h1.5l.2-.2ZM204.6,501.8c.4,0,.6-.2.6-.6s-.2-.6-.6-.6h-.7c-.4,0-.6.2-.6.5s.2.6.6.6h.7ZM204.7,500.8c.2,0,.4.2.4.4s-.2.4-.4.4h-.7c-.2,0-.4-.2-.4-.5s.2-.4.4-.4h.7ZM204.8,503.4h.1c0-.1-1.6-.6-1.6-.6h-.1c0,.1,1.3.5,1.3.5h-.8v.2h0c0,.1.6.7.6.7l-1.3-.4h-.1c0,.1,1.6.6,1.6.6h.1c0-.1-.7-.8-.7-.8l1-.2h-.1ZM203,505.3h0c0,.1.1.1.1.1h0l.3-.6.6.3-.3.7h0c0,.1.1.1.1.1l.4-.8h0c0-.1-1.5-.8-1.5-.8h-.1l-.4.8h0c0,.1.1.1.1.1h0l.3-.7.6.3-.3.6h0ZM203.6,506.2h0c0-.1-.9-.1-.9-.1l-.4-.9h-.1c0,.1.4.8.4.8h-.9.9l.4.8h.1c0-.1-.4-.8-.4-.8h.8v.2ZM202.8,507.2h.1c0-.1-1.3-1.1-1.3-1.1h-.1c0,.1,1.3,1.1,1.3,1.1h0ZM201.1,507.5h0c-.1-.2-.2-.4,0-.6s.4-.2.6,0l.6.5c.2.1.2.4,0,.5-.2.2-.4.2-.5,0h-.1c.2.3.6.3.8.1.2-.3.2-.6,0-.9l-.5-.5c-.3-.2-.6-.2-.9,0-.2.2-.2.6,0,.8h.1-.1ZM199.7,508.1l1.5.9h.2v-.2l-.7-1.6h-.1c0,.1.2.5.2.5l-.5.5-.3-.2h-.1c0,.1-.2.1-.2.1ZM201.1,508.7l-.8-.5.4-.4.4.9h0ZM199.6,510.1h.1c0-.1-.7-1.2-.7-1.2l1.4.7h.1c0-.1-.9-1.5-.9-1.5h-.1c0,.1.7,1.2.7,1.2l-1.4-.7h-.1c0,.1.9,1.5.9,1.5h0ZM197.9,510.4c.1.3.5.4.8.3s.5-.5.3-.8l-.3-.7c-.1-.3-.5-.4-.8-.3s-.5.5-.3.8l.3.7ZM198.8,510c0,.2,0,.4-.2.5s-.4,0-.5-.2l-.3-.7c0-.2,0-.4.2-.5s.4,0,.5.2l.3.7h0Z"/>
      <path class="st15" d="M194.6,491.9c.7,0,1.5.1,2.2.2,1.7.3,2,1.1,2.8,1.7.6.8,1.1,1,1.7,2.3.4,1.1.4,2.1.6,3.2,0,.9.3,1.9.3,2.8-.2.8.3,1.6-.2,2.5-.4.8-.5,1.1-1.3,1.4-2.5.3-5.1-.3-7.6-.8-1.3-.2-2.6-.5-3.8-.8-1.1-.5-2.7-.9-3.5-1.5-.8-.9-.7-2.8,0-3.4.4-.3.6-.5,1.4-.9.6-.2.6-.8,1.1-1,0-.1.1,0,0-.2.7.1,1.5.4,2.2.3.7,0,1.5,0,2.2-.5h0c-1.3.3-2.6.4-3.9.1-.5-.1-.5-.5-.8-.6-.6-.6-.6-1.8,0-2.2.6-.8,1.2-1.2,2.7-1.8,1.3-.5,2.6-.7,3.8-.7h.1ZM186.6,499.6c2.4,0,4.9.3,7.4.8,2.4.4,4.9,1,7.4,2.3.1,0,0,.1-.1.2-2.5-1.2-4.9-1.9-7.5-2.4-1.2-.3-2.5-.2-3.7-.5-1.2,0-2.5-.2-3.7-.1,0,0-.1,0-.1-.1.1,0,.3,0,.4-.1h0ZM187.9,502.6c2.2.2,4.3.5,6.6,1,1.1.3,2.1.4,3.3.8,1,.3,2.3.8,2.9,1.4h-.1c-2.1-1.2-4.5-1.7-6.7-2.2-2.2-.4-4.5-.9-6.8-.8,0,0-.1.1,0,.2.3.3.9.4,1.3.7-.7,0-1.6-.4-1.6-.9.4-.2.8-.1,1.2-.2h0Z"/>
      <path id="bw" class="st7" d="M187.3,500.5h0v1.3h.7-.6v-1.2h0ZM189.2,500.5h0v1.3h0v-1.3h0ZM190.3,501.9h.4c.3,0,.4-.1.5-.4,0-.2,0-.3-.2-.4h0c.1,0,.2-.2.3-.3,0-.2-.2-.4-.4-.4h-.4v1.3h0l-.2.2ZM190.9,500.7c.2,0,.3.1.3.3s-.1.2-.3.2h-.3v-.5h.3ZM190.9,501.4c.2,0,.3.1.3.3s-.1.2-.3.2h-.3v-.5h.3ZM193.1,501.7h0c-.2-.1-.4-.1-.6-.1v-.5c.3,0,.5,0,.7.1h0c-.2,0-.5,0-.7-.1h0l-.2,1.3h0c.2,0,.5,0,.7.1h0c-.2-.1-.4-.1-.6-.2v-.5h.7ZM195,502.1c.2,0,.3-.1.4-.3,0-.3-.1-.5-.4-.5h-.5c0,.4-.2.9-.2,1.3h0q0,.1.1.1h0c0-.2,0-.3.1-.5h.3c0,.2,0,.4.1.6h.1c0-.2,0-.4-.1-.6h0ZM194.9,501.4c.2,0,.3.2.3.4s-.2.3-.4.2h-.3v-.6h.4ZM196.4,501.7h0c.1.1.2.1.3.2-.1.4-.2.8-.3,1.2h0q0,.1.1.1h0c.1-.4.2-.8.3-1.2.1,0,.2,0,.3.1h0c-.3-.1-.5-.3-.8-.3h0ZM198.7,503.9v-1.4h0c0-.1-.1-.1-.1-.1-.3.4-.5.7-.8,1.1h0c0,.1.1-.1.2-.1.2,0,.4.1.5.2v.3h.2ZM198.6,502.6v.8c-.1,0-.3-.1-.4-.2.1-.2.3-.4.4-.6h0ZM200.6,503.2c-.1,0-.2-.1-.4-.2h-.1l-.4,1.2h0c.1.1.2.2.4.3.3.1.5,0,.6-.2,0-.1.1-.3.2-.5.1-.3,0-.5-.3-.7h0ZM200.6,503.4c.2,0,.3.3.2.4,0,.2-.1.3-.2.5,0,.2-.2.2-.4.1,0,0-.2,0-.3-.1l.4-1.1s.2,0,.3.1h0Z"/>
      <g class="st9">
        <g class="st9">
          <g class="st9">
            <g class="st9">
              <text class="st5" transform="translate(218.5 515)"><tspan x="0" y="0">1</tspan></text>
            </g>
          </g>
        </g>
      </g>
      <g class="st9">
        <g class="st9">
          <g class="st9">
            <text class="st4" transform="translate(254.1 744.2)"><tspan x="0" y="0">162</tspan></text>
          </g>
        </g>
      </g>
      <g id="bx">
        <circle class="st17" cx="116" cy="742.5" r="5.4"/>
      </g>
      <circle class="st17" cx="129.4" cy="742.5" r="5.4"/>
      <circle class="st22" cx="142.9" cy="742.5" r="5.4"/>
      <circle class="st20" cx="156.4" cy="742.5" r="5.4"/>
      <circle class="st20" cx="169.9" cy="742.5" r="5.4"/>
      <circle class="st20" cx="183.4" cy="742.5" r="5.4"/>
      <circle class="st20" cx="196.9" cy="742.5" r="5.4"/>
      <circle class="st20" cx="117.6" cy="724.8" r="5.4"/>
      <circle class="st20" cx="131.2" cy="725.1" r="5.4"/>
      <circle class="st20" cx="144.9" cy="724.7" r="5.4"/>
      <circle class="st20" cx="158.5" cy="725" r="5.4"/>
      <circle class="st20" cx="172.4" cy="724.5" r="5.4"/>
      <circle class="st20" cx="186.1" cy="724.9" r="5.4"/>
      <circle class="st20" cx="121.1" cy="709.4" r="5.4"/>
      <circle class="st20" cx="134.9" cy="710" r="5.4"/>
      <circle class="st20" cx="199.9" cy="725.4" r="5.4"/>
      <circle class="st20" cx="149.1" cy="707.2" r="5.4"/>
      <circle class="st20" cx="163.1" cy="707.9" r="5.4"/>
      <circle class="st20" cx="125.4" cy="694.5" r="5.4"/>
      <circle class="st20" cx="177.7" cy="707.1" r="5.4" transform="translate(-534.9 861.2) rotate(-88.1)"/>
      <circle class="st20" cx="139.5" cy="696.4" r="5.4"/>
      <circle class="st20" cx="191.9" cy="708" r="5.4"/>
      <circle class="st20" cx="155.5" cy="690.5" r="5.4"/>
      <circle class="st20" cx="130.5" cy="680.2" r="5.4"/>
      <circle class="st20" cx="169.9" cy="691.7" r="5.4"/>
      <circle class="st20" cx="206.3" cy="709.2" r="5.4"/>
      <circle class="st20" cx="145.9" cy="681.5" r="5.4"/>
      <circle class="st20" cx="185.7" cy="690.8" r="5.4"/>
      <circle class="st20" cx="164" cy="674.7" r="5.4"/>
      <circle class="st20" cx="137.2" cy="665.7" r="5.4"/>
      <circle class="st20" cx="200.6" cy="692.4" r="5.4"/>
      <circle class="st20" cx="178.9" cy="676.5" r="5.4" transform="translate(-503.2 832.8) rotate(-88.1)"/>
      <circle class="st20" cx="152.1" cy="667.6" r="5.4"/>
      <circle class="st20" cx="155.6" cy="639.3" r="5.4"/>
      <circle class="st20" cx="215.8" cy="694.6" r="5.4"/>
      <circle class="st20" cx="174.4" cy="660.1" r="5.4"/>
      <circle class="st20" cx="196.2" cy="675.9" r="5.4"/>
      <circle class="st20" cx="169.9" cy="644.9" r="5.4"/>
      <circle class="st20" cx="189.9" cy="662.7" r="5.4"/>
      <circle class="st20" cx="211.9" cy="678.6" r="5.4"/>
      <circle class="st20" cx="165.3" cy="629" r="5.4"/>
      <circle class="st20" cx="186.6" cy="646.9" r="5.4"/>
      <circle class="st20" cx="180.2" cy="634.4" r="5.4" transform="translate(-459.8 793.4) rotate(-88.1)"/>
      <circle class="st20" cx="209" cy="662.9" r="5.4"/>
      <circle class="st20" cx="227.9" cy="682.1" r="5.4"/>
      <circle class="st20" cx="202.7" cy="650.6" r="5.4"/>
      <circle class="st20" cx="177.5" cy="619" r="5.4" transform="translate(-447.1 775.8) rotate(-88.1)"/>
      <circle class="st20" cx="200.3" cy="635.4" r="5.4"/>
      <circle class="st20" cx="193.9" cy="623.4" r="5.4"/>
      <circle class="st20" cx="225.5" cy="667" r="5.4"/>
      <circle class="st20" cx="191.8" cy="608.5" r="5.4"/>
      <circle class="st20" cx="223.6" cy="652.1" r="5.4"/>
      <circle class="st20" cx="217" cy="640.3" r="5.4"/>
      <circle class="st20" cx="208.6" cy="614" r="5.4"/>
      <circle class="st20" cx="215.4" cy="625.7" r="5.4"/>
      <circle class="st20" cx="242.3" cy="672.3" r="5.4"/>
      <circle class="st20" cx="207.1" cy="599.6" r="5.4"/>
      <circle class="st20" cx="240.9" cy="658" r="5.4"/>
      <circle class="st20" cx="232.6" cy="632.1" r="5.4"/>
      <circle class="st20" cx="239.8" cy="643.7" r="5.4"/>
      <circle class="st20" cx="224.4" cy="606.4" r="5.4"/>
      <circle class="st20" cx="231.6" cy="618" r="5.4"/>
      <circle class="st20" cx="223.3" cy="592.3" r="5.4"/>
      <circle class="st20" cx="258.3" cy="665.6" r="5.4"/>
      <circle class="st20" cx="240.9" cy="600.6" r="5.4"/>
      <circle class="st20" cx="249.2" cy="626.2" r="5.4"/>
      <circle class="st20" cx="257.6" cy="651.8" r="5.4"/>
      <circle class="st20" cx="240.2" cy="586.8" r="5.4"/>
      <circle class="st20" cx="248.6" cy="612.4" r="5.4"/>
      <circle class="st20" cx="257" cy="638" r="5.4"/>
      <circle class="st20" cx="257.9" cy="596.6" r="5.4"/>
      <circle class="st20" cx="257.6" cy="583.1" r="5.4"/>
      <circle class="st20" cx="266.5" cy="622.5" r="5.4"/>
      <circle class="st20" cx="266.2" cy="609" r="5.4"/>
      <circle class="st20" cx="275.4" cy="662.2" r="5.4"/>
      <circle class="st20" cx="275.2" cy="648.7" r="5.4"/>
      <circle class="st20" cx="275" cy="635.2" r="5.4"/>
      <circle class="st20" cx="275.3" cy="594.7" r="5.4"/>
      <circle class="st20" cx="275.2" cy="581.2" r="5.4"/>
      <circle class="st20" cx="284.1" cy="607.9" r="5.4"/>
      <circle class="st20" cx="284.1" cy="621.3" r="5.4"/>
      <circle class="st20" cx="293" cy="581.2" r="5.4"/>
      <circle class="st20" cx="292.8" cy="594.7" r="5.4"/>
      <circle class="st20" cx="293.2" cy="635.2" r="5.4"/>
      <circle class="st20" cx="293" cy="648.7" r="5.4"/>
      <circle class="st20" cx="292.8" cy="662.2" r="5.4"/>
      <circle class="st20" cx="301.9" cy="608.8" r="5.4" transform="translate(-347.4 809.5) rotate(-80.8)"/>
      <circle class="st20" cx="301.7" cy="622.5" r="5.4" transform="translate(-59.9 32.8) rotate(-5.7)"/>
      <circle class="st20" cx="310.6" cy="583.1" r="5.4"/>
      <circle class="st20" cx="310.2" cy="596.6" r="5.4"/>
      <circle class="st20" cx="311.1" cy="638" r="5.4"/>
      <circle class="st20" cx="319.6" cy="612.4" r="5.4"/>
      <circle class="st20" cx="328" cy="586.8" r="5.4"/>
      <circle class="st20" cx="310.6" cy="651.8" r="5.4"/>
      <circle class="st20" cx="318.9" cy="626.2" r="5.4"/>
      <circle class="st20" cx="327.3" cy="600.6" r="5.4"/>
      <circle class="st20" cx="309.8" cy="665.6" r="5.4"/>
      <circle class="st20" cx="344.9" cy="592.3" r="5.4"/>
      <circle class="st20" cx="336.6" cy="618" r="5.4"/>
      <circle class="st20" cx="343.8" cy="606.4" r="5.4"/>
      <circle class="st20" cx="328.4" cy="643.7" r="5.4"/>
      <circle class="st20" cx="335.5" cy="632.1" r="5.4"/>
      <circle class="st20" cx="327.3" cy="658" r="5.4"/>
      <circle class="st20" cx="361.1" cy="599.6" r="5.4"/>
      <circle class="st20" cx="325.9" cy="672.3" r="5.4"/>
      <circle class="st20" cx="352.8" cy="625.7" r="5.4"/>
      <circle class="st20" cx="359.5" cy="614" r="5.4"/>
      <circle class="st20" cx="351.2" cy="640.3" r="5.4"/>
      <circle class="st20" cx="344.6" cy="652.1" r="5.4"/>
      <circle class="st20" cx="376.4" cy="608.5" r="5.4"/>
      <circle class="st20" cx="342.7" cy="667" r="5.4"/>
      <circle class="st20" cx="374.3" cy="623.4" r="5.4"/>
      <circle class="st20" cx="367.9" cy="635.4" r="5.4"/>
      <circle class="st20" cx="390.7" cy="619" r="5.4"/>
      <circle class="st20" cx="365.5" cy="650.6" r="5.4"/>
      <circle class="st20" cx="340.3" cy="682.1" r="5.4"/>
      <circle class="st20" cx="359.2" cy="662.9" r="5.4"/>
      <circle class="st20" cx="387.9" cy="634.4" r="5.4"/>
      <circle class="st20" cx="381.6" cy="646.9" r="5.4"/>
      <circle class="st20" cx="403.8" cy="631" r="5.4"/>
      <circle class="st20" cx="356.2" cy="678.6" r="5.4"/>
      <circle class="st20" cx="378.3" cy="662.7" r="5.4"/>
      <circle class="st20" cx="400.2" cy="646.9" r="5.4"/>
      <circle class="st20" cx="371.9" cy="675.9" r="5.4"/>
      <circle class="st20" cx="393.8" cy="660.1" r="5.4"/>
      <circle class="st20" cx="352.4" cy="694.6" r="5.4"/>
      <circle class="st20" cx="415.6" cy="644.3" r="5.4"/>
      <circle class="st20" cx="411" cy="660.6" r="5.4"/>
      <circle class="st20" cx="389.3" cy="676.5" r="5.4"/>
      <circle class="st20" cx="367.6" cy="692.4" r="5.4"/>
      <circle class="st20" cx="426" cy="658.7" r="5.4"/>
      <circle class="st20" cx="404.2" cy="674.7" r="5.4"/>
      <circle class="st20" cx="382.5" cy="690.8" r="5.4"/>
      <circle class="st20" cx="420.2" cy="675.5" r="5.4"/>
      <circle class="st20" cx="361.9" cy="709.2" r="5.4"/>
      <circle class="st20" cx="398.3" cy="691.7" r="5.4"/>
      <circle class="st20" cx="434.7" cy="674.2" r="5.4"/>
      <circle class="st20" cx="412.7" cy="690.5" r="5.4"/>
      <circle class="st20" cx="376.2" cy="708" r="5.4"/>
      <circle class="st20" cx="427.7" cy="691.4" r="5.4"/>
      <circle class="st20" cx="390.5" cy="707.1" r="5.4"/>
      <circle class="st20" cx="441.8" cy="690.5" r="5.4"/>
      <circle class="st20" cx="405.1" cy="707.9" r="5.4"/>
      <circle class="st20" cx="419.1" cy="707.2" r="5.4"/>
      <circle class="st20" cx="368.3" cy="725.4" r="5.4"/>
      <circle class="st20" cx="433.3" cy="708" r="5.4"/>
      <circle class="st20" cx="447.1" cy="707.4" r="5.4"/>
      <circle class="st20" cx="382.1" cy="724.9" r="5.4"/>
      <circle class="st20" cx="395.8" cy="724.5" r="5.4"/>
      <circle class="st20" cx="409.7" cy="725" r="5.4"/>
      <circle class="st20" cx="423.3" cy="724.7" r="5.4"/>
      <circle class="st20" cx="437" cy="725.1" r="5.4"/>
      <circle class="st20" cx="450.6" cy="724.8" r="5.4"/>
      <circle class="st24" cx="371.3" cy="742.5" r="5.4"/>
      <circle class="st24" cx="384.8" cy="742.5" r="5.4"/>
      <circle class="st24" cx="398.3" cy="742.5" r="5.4"/>
      <circle class="st24" cx="411.8" cy="742.5" r="5.4"/>
      <circle class="st24" cx="425.3" cy="742.5" r="5.4"/>
      <circle class="st24" cx="438.8" cy="742.5" r="5.4"/>
      <g id="by">
        <circle class="st20" cx="452.2" cy="742.5" r="5.4"/>
      </g>
      <circle class="st20" cx="144.5" cy="651.7" r="5.4"/>
      <circle class="st20" cx="158.6" cy="656.3" r="5.4"/>
      <g class="st9">
        <g class="st9">
          <text class="st8" transform="translate(1019.2 743.8)"><tspan x="0" y="0">178</tspan></text>
        </g>
      </g>
      <circle class="st1" cx="882.8" cy="743.1" r="5.9"/>
      <circle class="st18" cx="897.5" cy="743" r="5.9"/>
      <circle class="st18" cx="912.2" cy="743" r="5.9"/>
      <circle class="st18" cx="926.9" cy="743" r="5.9"/>
      <circle class="st18" cx="941.6" cy="743" r="5.9"/>
      <circle class="st18" cx="956.3" cy="743" r="5.9"/>
      <circle class="st18" cx="971" cy="743" r="5.9"/>
      <circle class="st18" cx="884.1" cy="726.6" r="5.9"/>
      <circle class="st18" cx="899" cy="727.4" r="5.9"/>
      <circle class="st18" cx="913.8" cy="727.9" r="5.9"/>
      <circle class="st18" cx="928.7" cy="727.8" r="5.9"/>
      <circle class="st18" cx="943.6" cy="727.7" r="5.9"/>
      <circle class="st18" cx="887.1" cy="711.2" r="5.9"/>
      <circle class="st18" cx="958.7" cy="727.6" r="5.9"/>
      <circle class="st18" cx="902.2" cy="713" r="5.9"/>
      <circle class="st18" cx="917.2" cy="713" r="5.9"/>
      <circle class="st18" cx="973.9" cy="726.4" r="5.9"/>
      <circle class="st18" cx="932.5" cy="713" r="5.9"/>
      <circle class="st18" cx="891.5" cy="694.3" r="5.9"/>
      <circle class="st18" cx="948" cy="712.9" r="5.9"/>
      <circle class="st18" cx="907.2" cy="698.1" r="5.9"/>
      <circle class="st18" cx="922.3" cy="698.7" r="5.9"/>
      <circle class="st18" cx="963.8" cy="710.8" r="5.9"/>
      <circle class="st18" cx="897.6" cy="678.8" r="5.9"/>
      <circle class="st18" cx="938.3" cy="698.7" r="5.9"/>
      <circle class="st18" cx="913.8" cy="684.8" r="5.9"/>
      <circle class="st18" cx="980" cy="710.7" r="5.9"/>
      <circle class="st18" cx="954.6" cy="697.8" r="5.9"/>
      <circle class="st18" cx="929.2" cy="685" r="5.9"/>
      <circle class="st18" cx="905" cy="664" r="5.9"/>
      <circle class="st18" cx="946" cy="684.3" r="5.9"/>
      <circle class="st18" cx="971.4" cy="696" r="5.9"/>
      <circle class="st18" cx="921.5" cy="671.2" r="5.9"/>
      <circle class="st18" cx="936.7" cy="671.2" r="5.9"/>
      <circle class="st18" cx="913.8" cy="650" r="5.9"/>
      <circle class="st18" cx="962.3" cy="684.8" r="5.9"/>
      <circle class="st18" cx="989.1" cy="696.5" r="5.9"/>
      <circle class="st18" cx="927.7" cy="657.7" r="5.9"/>
      <circle class="st18" cx="954.4" cy="671" r="5.9"/>
      <circle class="st18" cx="924" cy="636.9" r="5.9"/>
      <circle class="st18" cx="943.7" cy="658.4" r="5.9"/>
      <circle class="st18" cx="981.4" cy="684.7" r="5.9"/>
      <circle class="st18" cx="971.9" cy="672.3" r="5.9"/>
      <circle class="st18" cx="937.7" cy="645.2" r="5.9"/>
      <circle class="st18" cx="935.3" cy="624.8" r="5.9"/>
      <circle class="st18" cx="962.5" cy="659" r="5.9"/>
      <circle class="st18" cx="953.1" cy="646.8" r="5.9"/>
      <circle class="st18" cx="1000.8" cy="684.4" r="5.9"/>
      <circle class="st18" cx="946.1" cy="633.9" r="5.9"/>
      <circle class="st18" cx="947.8" cy="613.9" r="5.9"/>
      <circle class="st18" cx="991.5" cy="673.3" r="5.9"/>
      <circle class="st18" cx="982.3" cy="661.4" r="5.9"/>
      <circle class="st18" cx="974" cy="648.5" r="5.9"/>
      <circle class="st18" cx="965.7" cy="636.6" r="5.9"/>
      <circle class="st18" cx="957.5" cy="625" r="5.9"/>
      <circle class="st18" cx="961.2" cy="604.2" r="5.9"/>
      <circle class="st18" cx="979.3" cy="628.9" r="5.9"/>
      <ellipse class="st18" cx="987.5" cy="640.6" rx="6.7" ry="6.8"/>
      <circle class="st18" cx="997" cy="653.4" r="5.9"/>
      <circle class="st18" cx="1005.4" cy="664.1" r="5.9"/>
      <circle class="st18" cx="1014.7" cy="674.8" r="5.9"/>
      <circle class="st18" cx="975.5" cy="595.9" r="5.9"/>
      <circle class="st18" cx="982.9" cy="608.6" r="5.9"/>
      <circle class="st18" cx="991.9" cy="620.9" r="5.9"/>
      <circle class="st18" cx="990.6" cy="588.9" r="5.9"/>
      <circle class="st18" cx="1000.4" cy="633.6" r="5.9"/>
      <circle class="st18" cx="998.1" cy="601.8" r="5.9"/>
      <circle class="st18" cx="1009" cy="645.5" r="5.9"/>
      <circle class="st18" cx="1018.6" cy="658.3" r="5.9"/>
      <circle class="st18" cx="1030.3" cy="668.2" r="5.9"/>
      <circle class="st18" cx="1006.2" cy="583.5" r="5.9"/>
      <circle class="st18" cx="1006.2" cy="615.4" r="5.9"/>
      <circle class="st18" cx="1014" cy="596.5" r="5.9"/>
      <circle class="st18" cx="1012.9" cy="627.5" r="5.9"/>
      <circle class="st18" cx="1021.7" cy="640.8" r="5.9"/>
      <circle class="st18" cx="1022.3" cy="579.5" r="5.9"/>
      <circle class="st18" cx="1020" cy="610.8" r="5.9"/>
      <circle class="st18" cx="1031.7" cy="653.2" r="5.9"/>
      <circle class="st18" cx="1030.3" cy="593" r="5.9"/>
      <circle class="st18" cx="1028" cy="623.5" r="5.9"/>
      <circle class="st18" cx="1046.8" cy="664.9" r="5.9"/>
      <circle class="st18" cx="1038.7" cy="577.2" r="5.9"/>
      <circle class="st18" cx="1036" cy="637.4" r="5.9"/>
      <circle class="st18" cx="1050.1" cy="606" r="5.9"/>
      <circle class="st18" cx="1046.9" cy="591.3" r="5.9"/>
      <circle class="st18" cx="1042.2" cy="621.4" r="5.9"/>
      <circle class="st18" cx="1055.2" cy="576.3" r="5.9"/>
      <circle class="st18" cx="1044.2" cy="650.8" r="5.9"/>
      <circle class="st18" cx="1063.6" cy="591.3" r="5.9"/>
      <circle class="st18" cx="1065.4" cy="606" r="5.9"/>
      <circle class="st18" cx="1051.5" cy="635.4" r="5.9"/>
      <circle class="st18" cx="1071.8" cy="577.2" r="5.9"/>
      <circle class="st18" cx="1063.8" cy="664.9" r="5.9"/>
      <circle class="st18" cx="1071.6" cy="621.5" r="5.9"/>
      <circle class="st18" cx="1080.2" cy="593" r="5.9"/>
      <circle class="st18" cx="1073.9" cy="651.2" r="5.9"/>
      <circle class="st18" cx="1080.5" cy="607.8" r="5.9"/>
      <circle class="st18" cx="1088.2" cy="579.5" r="5.9"/>
      <circle class="st18" cx="1081.8" cy="637.8" r="5.9"/>
      <circle class="st18" cx="1088.6" cy="624.5" r="5.9"/>
      <circle class="st18" cx="1096.5" cy="596.5" r="5.9"/>
      <circle class="st18" cx="1095.3" cy="611.4" r="5.9"/>
      <circle class="st18" cx="1104.3" cy="583.5" r="5.9"/>
      <circle class="st18" cx="1080.2" cy="668.2" r="5.9"/>
      <circle class="st18" cx="1089.9" cy="655.3" r="5.9"/>
      <circle class="st18" cx="1098.5" cy="643.5" r="5.9"/>
      <circle class="st18" cx="1112.4" cy="601.7" r="5.9"/>
      <circle class="st18" cx="1106.1" cy="631.6" r="5.9"/>
      <circle class="st18" cx="1119.9" cy="588.9" r="5.9"/>
      <circle class="st18" cx="1111.6" cy="616.8" r="5.9"/>
      <circle class="st18" cx="1127.6" cy="608.6" r="5.9"/>
      <circle class="st18" cx="1135" cy="595.9" r="5.9"/>
      <circle class="st18" cx="1095.8" cy="674.8" r="5.9"/>
      <circle class="st18" cx="1104.1" cy="663.1" r="5.9"/>
      <circle class="st18" cx="1111.4" cy="649.4" r="5.9"/>
      <circle class="st18" cx="1119.8" cy="636.7" r="5.9"/>
      <circle class="st18" cx="1126.1" cy="623.9" r="5.9"/>
      <circle class="st18" cx="1149.3" cy="604.2" r="5.9"/>
      <circle class="st18" cx="1142" cy="617" r="5.9"/>
      <circle class="st18" cx="1139.8" cy="632.6" r="5.9"/>
      <circle class="st18" cx="1131.5" cy="645.5" r="5.9"/>
      <circle class="st18" cx="1124.2" cy="658.4" r="5.9"/>
      <circle class="st18" cx="1116.9" cy="671.3" r="5.9"/>
      <circle class="st18" cx="1162.7" cy="613.9" r="5.9"/>
      <circle class="st18" cx="1155.4" cy="626.9" r="5.9"/>
      <circle class="st18" cx="1109.7" cy="684.4" r="5.9"/>
      <circle class="st18" cx="1151.4" cy="642.8" r="5.9"/>
      <circle class="st18" cx="1144" cy="656" r="5.9"/>
      <circle class="st18" cx="1175.2" cy="624.8" r="5.9"/>
      <circle class="st18" cx="1167.8" cy="638.2" r="5.9"/>
      <circle class="st18" cx="1136.6" cy="669.3" r="5.9"/>
      <circle class="st18" cx="1129.1" cy="682.7" r="5.9"/>
      <circle class="st18" cx="1162.8" cy="654.4" r="5.9"/>
      <circle class="st18" cx="1186.5" cy="636.9" r="5.9"/>
      <circle class="st18" cx="1155.1" cy="668" r="5.9"/>
      <circle class="st18" cx="1178.8" cy="650.7" r="5.9"/>
      <circle class="st18" cx="1121.4" cy="696.5" r="5.9"/>
      <circle class="st18" cx="1147.2" cy="681.8" r="5.9"/>
      <circle class="st18" cx="1196.7" cy="650" r="5.9"/>
      <circle class="st18" cx="1172.8" cy="667.2" r="5.9"/>
      <circle class="st18" cx="1188.5" cy="664.2" r="5.9"/>
      <circle class="st18" cx="1139.1" cy="696" r="5.9"/>
      <circle class="st18" cx="1164.5" cy="681.3" r="5.9"/>
      <circle class="st18" cx="1205.5" cy="664" r="5.9"/>
      <circle class="st18" cx="1181.3" cy="681" r="5.9"/>
      <circle class="st18" cx="1155.9" cy="695.8" r="5.9"/>
      <circle class="st18" cx="1130.5" cy="710.7" r="5.9"/>
      <circle class="st18" cx="1196.7" cy="678.8" r="5.9"/>
      <circle class="st18" cx="1172.2" cy="695.7" r="5.9"/>
      <circle class="st18" cx="1212.9" cy="678.8" r="5.9"/>
      <circle class="st18" cx="1146.8" cy="710.8" r="5.9"/>
      <circle class="st18" cx="1188.2" cy="695.7" r="5.9"/>
      <circle class="st18" cx="1203.3" cy="694.1" r="5.9"/>
      <circle class="st18" cx="1162.5" cy="710.9" r="5.9"/>
      <circle class="st18" cx="1218.9" cy="694.3" r="5.9"/>
      <circle class="st18" cx="1178" cy="711" r="5.9"/>
      <circle class="st18" cx="1136.6" cy="726.4" r="5.9"/>
      <circle class="st18" cx="1193.3" cy="711" r="5.9"/>
      <circle class="st18" cx="1208.3" cy="710" r="5.9"/>
      <circle class="st18" cx="1151.8" cy="726.6" r="5.9"/>
      <circle class="st18" cx="1223.4" cy="710.2" r="5.9"/>
      <circle class="st18" cx="1166.9" cy="726.7" r="5.9"/>
      <circle class="st18" cx="1181.8" cy="726.8" r="5.9"/>
      <circle class="st18" cx="1196.7" cy="726.9" r="5.9"/>
      <circle class="st18" cx="1211.5" cy="726.4" r="5.9"/>
      <circle class="st18" cx="1226.3" cy="726.5" r="5.9"/>
      <circle class="st24" cx="1139.5" cy="743" r="5.9"/>
      <circle class="st24" cx="1154.2" cy="743" r="5.9"/>
      <circle class="st24" cx="1168.9" cy="743" r="5.9"/>
      <circle class="st24" cx="1183.6" cy="743" r="5.9"/>
      <circle class="st24" cx="1198.3" cy="743" r="5.9"/>
      <circle class="st18" cx="1213" cy="743" r="5.9"/>
      <circle class="st18" cx="1227.7" cy="743" r="5.9"/>
      <circle class="st18" cx="1059.9" cy="650.1" r="5.9"/>
      <circle class="st18" cx="1066.2" cy="636" r="5.9" transform="translate(267.6 1586.6) rotate(-80.8)"/>
      <circle class="st18" cx="1056.5" cy="619.8" r="5.9"/>
      <circle class="st18" cx="1035.4" cy="606.5" r="5.9"/>
      <circle class="st18" cx="969.4" cy="616.2" r="5.9"/>
      <g id="bz">
        <path id="ca" class="st16" d="M859.7,574.7c0,7.9-6.4,14.3-14.3,14.3s-14.3-6.4-14.3-14.3,6.4-14.3,14.3-14.3,14.3,6.4,14.3,14.3Z"/>
        <path id="cb" class="st6" d="M856.5,574.7c0,6.2-5,11.2-11.2,11.2s-11.2-5-11.2-11.2,5-11.2,11.2-11.2,11.2,5,11.2,11.2Z"/>
        <path id="cc" class="st16" d="M838.8,576.4v4.4h-2.5v-11.9h2.8c1.1,0,1.9,0,2.4.4.5.3.8.8.8,1.7v3.3c0,.8-.2,1.3-.7,1.7-.4.3-1.4.5-2.8.5h0ZM839.7,574v-2.9c0-.4-.3-.6-.9-.6v4.1c.6,0,.9-.2.9-.6h0ZM845.3,576.4v4.4h-2.5v-11.9h2.8c1.1,0,1.9,0,2.4.4.5.3.8.8.8,1.7v3.3c0,.8-.2,1.3-.7,1.7-.4.3-1.4.5-2.8.5h0ZM846.1,574v-2.9c0-.4-.3-.6-.9-.6v4.1c.6,0,.9-.2.9-.6h0ZM849.1,576h2.4v2.7c0,.3.2.4.5.4s.5,0,.5-.4v-1.4c0-.4-.3-.9-.9-1.5-1.1-1.1-1.8-1.8-2.1-2.2s-.4-.8-.4-1.2v-1.3c0-1.5,1-2.3,3-2.3s2.7.7,2.7,2.1v2.1h-2.4v-2.2c0-.2,0-.4-.4-.4s-.5.2-.5.7v.8c0,.4.3,1,.9,1.5,1.1,1,1.8,1.8,2.1,2.2s.4.9.4,1.4v1.5c0,1.6-1,2.4-3,2.4s-2.9-.7-2.9-2.2v-2.7h.1Z"/>
      </g>
    </g>
    <g>
      <path id="bg" class="st12" d="M459.6,89.3c20.3,6.8,34.9,25.7,34.9,48.1s-14.6,41.4-34.9,48.1v-96.2h0Z"/>
      <path id="bh" class="st11" d="M427.2,89.3v96.3c-20.4-6.7-35.2-25.7-35.2-48.2s14.4-41,34.4-47.9l.8-.2h0Z"/>
      <polygon id="bi" class="st3" points="459.5 185.6 427.2 185.6 427.2 88.8 459.5 88.8 459.5 185.6"/>
      <polygon id="bj1" class="st3" points="479.6 157.9 479.7 117.2 469.1 117.2 469.1 157.9 479.6 157.9"/>
      <path id="bk1" class="st3" d="M400.4,117.2v40.6h10.6v-16.2h6.7c5.8-1.1,6.4-6.1,6.4-6.1v-11.8c-.4-5.7-6.3-6.6-6.3-6.6h-17.4ZM411.4,123.6v9.2c3.3,0,3.4-2,3.4-2v-4.3c.1-3.3-3.4-3-3.4-3h0Z"/>
      <path id="bl1" class="st0" d="M400.4,117.2v40.6h10.6v-16.2h6.7c5.8-1.1,6.4-6.1,6.4-6.1v-11.8c-.4-5.7-6.3-6.6-6.3-6.6h-17.4M411.4,123.6v9.2c3.3,0,3.4-2,3.4-2v-4.3c.1-3.3-3.4-3-3.4-3h0Z"/>
      <path id="bm1" class="st13" d="M431.6,101.8v40.6h10.6v-17.2c4.7-.2,3.8,3.2,3.8,3.2v14h10.7v-16c.7-3.2-3.2-5.3-3.2-5.3,3.2-1.8,3-5.7,3-5.7v-7.1c0-6.8-7.5-6.6-7.5-6.6h-17.4ZM442.6,108.3v9.2c3.3,0,3.4-2,3.4-2v-4.3c.1-3.3-3.4-3-3.4-3h0Z"/>
      <path id="bn1" class="st0" d="M431.6,101.8v40.6h10.6v-17.2c4.7-.2,3.8,3.2,3.8,3.2v14h10.7v-16c.7-3.2-3.2-5.3-3.2-5.3,3.2-1.8,3-5.7,3-5.7v-7.1c0-6.8-7.5-6.6-7.5-6.6h-17.4M442.6,108.3v9.2c3.3,0,3.4-2,3.4-2v-4.3c.1-3.3-3.4-3-3.4-3h0Z"/>
    </g>
    <g>
      <path id="bg1" class="st12" d="M96.6,487.5c5.8,1.9,10,7.4,10,13.7s-4.2,11.8-10,13.7v-27.5h0Z"/>
      <path id="bh1" class="st11" d="M87.4,487.5v27.5c-5.8-1.9-10-7.4-10-13.8s4.1-11.7,9.8-13.7h.2Z"/>
      <polygon id="bi1" class="st3" points="96.6 515 87.3 515 87.3 487.3 96.6 487.3 96.6 515"/>
      <polygon id="bj2" class="st3" points="102.3 507.1 102.4 495.5 99.3 495.5 99.3 507.1 102.3 507.1"/>
      <path id="bk2" class="st3" d="M79.7,495.5v11.6h3v-4.6h1.9c1.7-.3,1.8-1.7,1.8-1.7v-3.4c0-1.6-1.8-1.9-1.8-1.9h-5,0ZM82.8,497.3v2.6c.9,0,1-.6,1-.6v-1.2c0-.9-1-.8-1-.8h0Z"/>
      <path id="bl2" class="st0" d="M79.7,495.5v11.6h3v-4.6h1.9c1.7-.3,1.8-1.7,1.8-1.7v-3.4c0-1.6-1.8-1.9-1.8-1.9h-5M82.8,497.3v2.6c.9,0,1-.6,1-.6v-1.2c0-.9-1-.8-1-.8h0Z"/>
      <path id="bm2" class="st13" d="M88.6,491v11.6h3v-4.9c1.3,0,1.1.9,1.1.9v4h3.1v-4.6c.2-.9-.9-1.5-.9-1.5.9-.5.9-1.6.9-1.6v-2c0-1.9-2.1-1.9-2.1-1.9h-5.1ZM91.7,492.9v2.6c.9,0,1-.6,1-.6v-1.2c0-.9-1-.8-1-.8h0Z"/>
      <path id="bn2" class="st0" d="M88.6,491v11.6h3v-4.9c1.3,0,1.1.9,1.1.9v4h3.1v-4.6c.2-.9-.9-1.5-.9-1.5.9-.5.9-1.6.9-1.6v-2c0-1.9-2.1-1.9-2.1-1.9h-5M91.7,492.9v2.6c.9,0,1-.6,1-.6v-1.2c0-.9-1-.8-1-.8h0Z"/>
    </g>
    <g>
      <path id="bg2" class="st12" d="M850,488.1c5.9,2,10.1,7.5,10.1,13.9s-4.2,12-10.1,13.9v-27.9h0Z"/>
      <path id="bh2" class="st11" d="M840.6,488.1v27.9c-5.9-1.9-10.2-7.4-10.2-14s4.2-11.9,10-13.9h.2Z"/>
      <polygon id="bi2" class="st3" points="849.9 516 840.6 516 840.6 488 849.9 488 849.9 516"/>
      <polygon id="bj3" class="st3" points="855.8 508 855.8 496.2 852.7 496.2 852.7 508 855.8 508"/>
      <path id="bk3" class="st3" d="M832.8,496.2v11.8h3.1v-4.7h1.9c1.7-.3,1.9-1.8,1.9-1.8v-3.4c0-1.6-1.8-1.9-1.8-1.9h-5.1ZM836,498.1v2.7c1,0,1-.6,1-.6v-1.3c0-1-1-.9-1-.9h0Z"/>
      <path id="bl3" class="st0" d="M832.8,496.2v11.8h3.1v-4.7h1.9c1.7-.3,1.9-1.8,1.9-1.8v-3.4c0-1.6-1.8-1.9-1.8-1.9h-5M836,498.1v2.7c1,0,1-.6,1-.6v-1.3c0-1-1-.9-1-.9h0Z"/>
      <path id="bm3" class="st13" d="M841.9,491.7v11.8h3.1v-5c1.3,0,1.1.9,1.1.9v4.1h3.1v-4.6c.2-.9-.9-1.5-.9-1.5.9-.5.9-1.6.9-1.6v-2.1c0-2-2.2-1.9-2.2-1.9h-5.1ZM845,493.6v2.7c1,0,1-.6,1-.6v-1.3c0-1-1-.9-1-.9h0Z"/>
      <path id="bn3" class="st0" d="M841.9,491.7v11.8h3.1v-5c1.3,0,1.1.9,1.1.9v4.1h3.1v-4.6c.2-.9-.9-1.5-.9-1.5.9-.5.9-1.6.9-1.6v-2.1c0-2-2.2-1.9-2.2-1.9h-5M845,493.6v2.7c1,0,1-.6,1-.6v-1.3c0-1-1-.9-1-.9h0Z"/>
    </g>
  </g>
  <g id="layer1">
    <path id="path2383" class="st23" d="M106.1,577.9c0,8.5-6.9,15.4-15.4,15.4s-15.4-6.9-15.4-15.4,6.9-15.4,15.4-15.4,15.4,6.9,15.4,15.4Z"/>
    <path id="path3155" class="st6" d="M102.7,577.9c0,6.6-5.4,12-12,12s-12-5.4-12-12,5.4-12,12-12,12,5.4,12,12Z"/>
    <path id="text3157" class="st23" d="M85.8,580v5.8h-3.4v-15.9h3.7c1.5,0,2.5.2,3.2.6.7.4,1.1,1.1,1.1,2.3v4.4c0,1-.3,1.8-.9,2.2-.6.4-1.8.6-3.7.6h0ZM87,576.9v-3.8c0-.6-.4-.8-1.2-.8v5.5c.8,0,1.2-.3,1.2-.8h0ZM94.4,580v5.8h-3.4v-15.9h3.7c1.5,0,2.5.2,3.2.6.7.4,1.1,1.1,1.1,2.3v4.4c0,1-.3,1.8-.9,2.2-.6.4-1.8.6-3.7.6h0ZM95.6,576.9v-3.8c0-.6-.4-.8-1.2-.8v5.5c.8,0,1.2-.3,1.2-.8h0Z"/>
  </g>
</svg>
