<?xml version="1.0" encoding="UTF-8"?>
<svg id="Capa_1" xmlns="http://www.w3.org/2000/svg" version="1.1" viewBox="0 0 1245.3 793.5">
  <!-- Generator: Adobe Illustrator 30.2.1, SVG Export Plug-In . SVG Version: 2.1.1 Build 1)  -->
  <defs>
    <style>
      .st0 {
        fill: none;
      }

      .st1 {
        font-size: 31px;
      }

      .st1, .st2, .st3, .st4, .st5, .st6 {
        fill: #fff;
      }

      .st1, .st7, .st3, .st4, .st5 {
        isolation: isolate;
      }

      .st1, .st3, .st4, .st5 {
        font-family: Helvetica-Bold, Helvetica;
        font-weight: 700;
      }

      .st8 {
        fill: #06338e;
      }

      .st2, .st9, .st10, .st11 {
        fill-rule: evenodd;
      }

      .st9 {
        fill: #00923f;
      }

      .st10 {
        fill: #d23026;
      }

      .st12 {
        fill: #ed1c24;
      }

      .st13 {
        fill: #4da663;
      }

      .st3 {
        font-size: 24px;
      }

      .st11 {
        fill: #131516;
      }

      .st4 {
        font-size: 48.6px;
      }

      .st5 {
        font-size: 50.5px;
      }

      .st14 {
        fill: #282828;
      }

      .st15 {
        fill: red;
      }

      .st16 {
        fill: #05338d;
      }
    </style>
  </defs>
  <g id="Capa_2">
    <g id="Capa_21">
      <g id="c">
        <rect class="st14" x="-39.4" y="-.4" width="1323.8" height="795.8"/>
      </g>
    </g>
  </g>
  <g id="b">
    <g id="c1">
      <g class="st7">
        <g class="st7">
          <g class="st7">
            <text class="st1" transform="translate(302.8 26.6) scale(1.2 1)"><tspan x="0" y="0">Senadores X</tspan></text>
          </g>
          <g class="st7">
            <text class="st1" transform="translate(520.3 26.6) scale(1.2 1)"><tspan x="0" y="0">L</tspan></text>
          </g>
          <g class="st7">
            <text class="st1" transform="translate(541.6 26.6) scale(1.2 1)"><tspan x="0" y="0" xml:space="preserve"> y XLI Legislatura</tspan></text>
          </g>
        </g>
      </g>
      <g class="st7">
        <g class="st7">
          <g class="st7">
            <text class="st1" transform="translate(0 439.4) scale(1.2 1)"><tspan x="0" y="0">Diputados X</tspan></text>
          </g>
          <g class="st7">
            <text class="st1" transform="translate(209.4 439.4) scale(1.2 1)"><tspan x="0" y="0">L</tspan></text>
          </g>
          <g class="st7">
            <text class="st1" transform="translate(230.7 439.4) scale(1.2 1)"><tspan x="0" y="0" xml:space="preserve">  Legislatura</tspan></text>
          </g>
        </g>
      </g>
      <g class="st7">
        <g class="st7">
          <g class="st7">
            <text class="st1" transform="translate(757.6 434) scale(1.2 1)"><tspan x="0" y="0" xml:space="preserve">Diputados XLI  Legislatura</tspan></text>
          </g>
        </g>
      </g>
      <g class="st7">
        <g class="st7">
          <g class="st7">
            <text class="st4" transform="translate(969.5 770.1)"><tspan x="0" y="0">147</tspan></text>
          </g>
        </g>
      </g>
      <circle class="st16" cx="796.1" cy="726" r="7.7"/>
      <circle class="st16" cx="815.9" cy="725.8" r="7.7"/>
      <circle class="st16" cx="835.5" cy="727.2" r="7.7"/>
      <circle class="st16" cx="855.6" cy="727" r="7.7"/>
      <circle class="st13" cx="801.9" cy="705.1" r="7.7"/>
      <circle class="st12" cx="876" cy="726.9" r="7.7"/>
      <circle class="st13" cx="822.4" cy="705.9" r="7.7"/>
      <circle class="st13" cx="841.3" cy="708" r="7.7"/>
      <circle class="st13" cx="896.7" cy="726.8" r="7.7"/>
      <circle class="st13" cx="809.8" cy="684.9" r="7.7"/>
      <circle class="st13" cx="863.2" cy="707" r="7.7"/>
      <circle class="st13" cx="831.1" cy="686.8" r="7.7"/>
      <circle class="st13" cx="917.9" cy="726.7" r="7.7"/>
      <circle class="st13" cx="884.6" cy="707.1" r="7.7"/>
      <circle class="st13" cx="850.3" cy="688.7" r="7.7"/>
      <circle class="st13" cx="819.5" cy="665.4" r="7.7"/>
      <circle class="st13" cx="873.3" cy="688.1" r="7.7"/>
      <circle class="st13" cx="906.7" cy="707.4" r="7.7"/>
      <circle class="st13" cx="840.8" cy="667.7" r="7.7"/>
      <circle class="st13" cx="860.4" cy="670.5" r="7.7"/>
      <circle class="st13" cx="831.1" cy="647" r="7.7"/>
      <circle class="st13" cx="896.1" cy="688.8" r="7.7"/>
      <circle class="st13" cx="929.9" cy="708" r="7.7"/>
      <circle class="st13" cx="851.6" cy="649.9" r="7.7"/>
      <circle class="st13" cx="885.7" cy="670.6" r="7.7"/>
      <circle class="st13" cx="844.5" cy="629.8" r="7.7"/>
      <circle class="st13" cx="872.6" cy="655.8" r="7.7"/>
      <circle class="st13" cx="919.9" cy="690" r="7.7"/>
      <circle class="st13" cx="910" cy="672.3" r="7.7"/>
      <circle class="st13" cx="865.1" cy="634.5" r="7.7"/>
      <circle class="st13" cx="859.3" cy="614" r="7.7"/>
      <circle class="st13" cx="900.2" cy="654.9" r="7.7"/>
      <circle class="st13" cx="886.5" cy="640.6" r="7.7"/>
      <circle class="st13" cx="945.3" cy="692.1" r="7.7"/>
      <circle class="st13" cx="879.3" cy="620.7" r="7.7"/>
      <circle class="st13" cx="875.7" cy="599.6" r="7.7"/>
      <circle class="st13" cx="935.8" cy="675" r="7.7"/>
      <circle class="st13" cx="926.2" cy="658" r="7.7"/>
      <circle class="st13" cx="916.7" cy="641.1" r="7.7"/>
      <circle class="st13" cx="902.1" cy="628.2" r="7.7"/>
      <circle class="st13" cx="894.9" cy="608.7" r="7.7"/>
      <circle class="st13" cx="893.3" cy="586.9" r="7.7"/>
      <circle class="st13" cx="917" cy="615.8" r="7.7"/>
      <circle class="st13" cx="934.7" cy="629.5" r="7.7"/>
      <circle class="st13" cx="944.3" cy="646.2" r="7.7"/>
      <circle class="st13" cx="954" cy="662.9" r="7.7"/>
      <circle class="st13" cx="963.6" cy="679.6" r="7.7"/>
      <circle class="st13" cx="912.1" cy="575.9" r="7.7"/>
      <circle class="st13" cx="910.8" cy="596.6" r="7.7"/>
      <circle class="st13" cx="933.2" cy="605.5" r="7.7"/>
      <circle class="st13" cx="931.9" cy="566.8" r="7.7"/>
      <circle class="st13" cx="954" cy="620.3" r="7.7"/>
      <circle class="st13" cx="927.8" cy="586.7" r="7.7"/>
      <circle class="st13" cx="963.9" cy="637.1" r="7.7"/>
      <circle class="st13" cx="973.9" cy="654" r="7.7"/>
      <circle class="st13" cx="984" cy="671" r="7.7"/>
      <circle class="st13" cx="952.4" cy="559.7" r="7.7"/>
      <circle class="st13" cx="950.2" cy="598.4" r="7.7"/>
      <circle class="st13" cx="964.6" cy="575.8" r="7.7"/>
      <circle class="st13" cx="974.4" cy="613.6" r="7.7"/>
      <circle class="st13" cx="984.6" cy="630.9" r="7.7"/>
      <circle class="st13" cx="973.5" cy="554.5" r="7.7"/>
      <circle class="st13" cx="968" cy="593.6" r="7.7"/>
      <circle class="st13" cx="995" cy="648.5" r="7.7"/>
      <circle class="st13" cx="983" cy="571.2" r="7.7"/>
      <circle class="st13" cx="995.4" cy="609.5" r="7.7"/>
      <circle class="st13" cx="1005.7" cy="666.6" r="7.7"/>
      <circle class="st13" cx="995.1" cy="551.4" r="7.7"/>
      <circle class="st13" cx="1006" cy="627.8" r="7.7"/>
      <circle class="st13" cx="1008.1" cy="589.2" r="7.7"/>
      <circle class="st13" cx="1003.8" cy="569.9" r="7.7"/>
      <circle class="st13" cx="1016.8" cy="608.2" r="7.7"/>
      <circle class="st13" cx="1016.8" cy="550.3" r="7.7"/>
      <circle class="st13" cx="1016.8" cy="646.7" r="7.7"/>
      <circle class="st13" cx="1025.5" cy="568.7" r="7.7" transform="translate(27.5 1184.4) rotate(-60.7)"/>
      <circle class="st13" cx="1026.9" cy="588.6" r="7.7" transform="translate(29.3 1225.7) rotate(-62.4)"/>
      <circle class="st13" cx="1027.2" cy="627.3" r="7.7" transform="translate(-4.9 1246.6) rotate(-62.4)"/>
      <circle class="st13" cx="1038.5" cy="551.4" r="7.7"/>
      <circle class="st13" cx="1027.4" cy="666" r="7.7" transform="translate(-39 1267.6) rotate(-62.4)"/>
      <circle class="st13" cx="1038.2" cy="609.5" r="7.7"/>
      <circle class="st13" cx="1049.5" cy="572.2" r="7.7"/>
      <circle class="st13" cx="1038.6" cy="648.5" r="7.7"/>
      <circle class="st13" cx="1048.6" cy="591.6" r="7.7"/>
      <circle class="st13" cx="1060.1" cy="554.5" r="7.7"/>
      <circle class="st13" cx="1049" cy="630.9" r="7.7"/>
      <circle class="st13" cx="1059.2" cy="613.6" r="7.7"/>
      <circle class="st13" cx="1071" cy="576.8" r="7.7"/>
      <circle class="st13" cx="1069.3" cy="596.4" r="7.7"/>
      <circle class="st13" cx="1081.2" cy="559.7" r="7.7"/>
      <circle class="st13" cx="1049.6" cy="671" r="7.7"/>
      <circle class="st13" cx="1059.7" cy="654" r="7.7"/>
      <circle class="st13" cx="1069.7" cy="637.1" r="7.7"/>
      <circle class="st13" cx="1091.8" cy="583.6" r="7.7"/>
      <circle class="st13" cx="1079.6" cy="620.3" r="7.7"/>
      <circle class="st13" cx="1101.7" cy="566.8" r="7.7"/>
      <circle class="st13" cx="1089.4" cy="603.5" r="7.7"/>
      <circle class="st13" cx="1111.8" cy="592.6" r="7.7"/>
      <circle class="st13" cx="1120.8" cy="575.2" r="7.7" transform="translate(246.1 1481.9) rotate(-73.2)"/>
      <circle class="st13" cx="1070" cy="679.6" r="7.7"/>
      <circle class="st13" cx="1079.6" cy="662.9" r="7.7"/>
      <circle class="st13" cx="1089.3" cy="646.2" r="7.7"/>
      <circle class="st13" cx="1098.9" cy="629.5" r="7.7"/>
      <circle class="st13" cx="1108.6" cy="612.8" r="7.7"/>
      <circle class="st13" cx="1140.2" cy="586.9" r="7.7"/>
      <circle class="st13" cx="1130.7" cy="603.7" r="7.7"/>
      <circle class="st13" cx="1126.5" cy="624.2" r="7.7"/>
      <circle class="st13" cx="1116.9" cy="641.1" r="7.7"/>
      <circle class="st13" cx="1107.4" cy="658" r="7.7"/>
      <circle class="st13" cx="1097.8" cy="675" r="7.7"/>
      <circle class="st13" cx="1157.9" cy="599.6" r="7.7"/>
      <circle class="st13" cx="1148.3" cy="616.7" r="7.7"/>
      <circle class="st13" cx="1088.3" cy="692.1" r="7.7"/>
      <circle class="st13" cx="1143.1" cy="637.6" r="7.7"/>
      <circle class="st13" cx="1133.3" cy="654.9" r="7.7"/>
      <circle class="st13" cx="1174.2" cy="614" r="7.7"/>
      <circle class="st13" cx="1164.5" cy="631.5" r="7.7"/>
      <circle class="st13" cx="1123.5" cy="672.3" r="7.7"/>
      <circle class="st13" cx="1113.7" cy="690" r="7.7"/>
      <circle class="st13" cx="1158" cy="652.8" r="7.7"/>
      <circle class="st13" cx="1189.1" cy="629.8" r="7.7"/>
      <circle class="st13" cx="1147.9" cy="670.6" r="7.7"/>
      <circle class="st13" cx="1179" cy="647.9" r="7.7"/>
      <circle class="st13" cx="1103.7" cy="708" r="7.7"/>
      <circle class="st13" cx="1137.5" cy="688.8" r="7.7"/>
      <circle class="st13" cx="1202.4" cy="647" r="7.7"/>
      <circle class="st13" cx="1171.2" cy="669.5" r="7.7"/>
      <circle class="st13" cx="1191.7" cy="665.7" r="7.7"/>
      <circle class="st13" cx="1126.8" cy="707.4" r="7.7" transform="translate(219.1 1680.1) rotate(-79.1)"/>
      <circle class="st13" cx="1160.3" cy="688.1" r="7.7"/>
      <circle class="st13" cx="1214" cy="665.4" r="7.7"/>
      <circle class="st13" cx="1182.3" cy="687.7" r="7.7"/>
      <circle class="st13" cx="1148.9" cy="707.1" r="7.7"/>
      <circle class="st13" cx="1115.7" cy="726.7" r="7.7"/>
      <circle class="st13" cx="1202.5" cy="684.8" r="7.7"/>
      <circle class="st13" cx="1170.4" cy="707" r="7.7"/>
      <circle class="st13" cx="1223.8" cy="684.9" r="7.7"/>
      <circle class="st13" cx="1136.9" cy="726.8" r="7.7"/>
      <circle class="st13" cx="1191.3" cy="707" r="7.7"/>
      <circle class="st13" cx="1211.2" cy="704.9" r="7.7"/>
      <circle class="st13" cx="1157.6" cy="726.9" r="7.7"/>
      <circle class="st13" cx="1231.7" cy="705.1" r="7.7"/>
      <circle class="st13" cx="1178" cy="727" r="7.7"/>
      <circle class="st13" cx="1198.1" cy="727.2" r="7.7"/>
      <circle class="st13" cx="1217.7" cy="725.8" r="7.7"/>
      <circle class="st13" cx="1237.6" cy="726.1" r="7.7"/>
      <circle class="st13" cx="946.2" cy="580.4" r="7.7"/>
      <circle class="st13" cx="988.2" cy="589" r="7.7"/>
      <g class="st7">
        <g class="st7">
          <g class="st7">
            <text class="st5" transform="translate(641.5 301)"><tspan x="0" y="0">58</tspan></text>
          </g>
        </g>
      </g>
      <g id="d">
        <circle class="st13" cx="449.3" cy="294" r="14"/>
        <circle class="st13" cx="484.4" cy="294" r="14"/>
        <circle class="st13" cx="519.5" cy="294.1" r="14"/>
        <circle class="st13" cx="554.7" cy="294.1" r="14"/>
        <circle class="st13" cx="454.8" cy="256.3" r="14"/>
        <circle class="st13" cx="491" cy="256.2" r="14"/>
        <circle class="st13" cx="527.7" cy="256.1" r="14"/>
        <circle class="st13" cx="466.5" cy="220" r="14"/>
        <circle class="st13" cx="565.5" cy="256" r="14"/>
        <circle class="st13" cx="504.9" cy="220.4" r="14" transform="translate(206.5 683.5) rotate(-80.8)"/>
        <circle class="st13" cx="484.2" cy="186.2" r="14"/>
        <circle class="st13" cx="544.9" cy="221.3" r="14"/>
        <circle class="st13" cx="525.8" cy="188.1" r="14"/>
        <circle class="st13" cx="507.2" cy="155.8" r="14"/>
        <circle class="st13" cx="587.8" cy="223.4" r="14"/>
        <circle class="st13" cx="570.1" cy="191.7" r="14"/>
        <circle class="st13" cx="552.5" cy="160.6" r="14"/>
        <circle class="st13" cx="535" cy="129.6" r="14"/>
        <circle class="st13" cx="566.8" cy="108.5" r="14"/>
        <circle class="st13" cx="584.3" cy="138.9" r="14"/>
        <circle class="st13" cx="601.8" cy="169.2" r="14"/>
        <circle class="st13" cx="619.3" cy="199.6" r="14"/>
        <circle class="st13" cx="601.6" cy="93" r="14"/>
        <circle class="st13" cx="619.7" cy="123.9" r="14"/>
        <circle class="st13" cx="638" cy="155.1" r="14"/>
        <circle class="st13" cx="638.5" cy="83.5" r="14"/>
        <circle class="st13" cx="656.8" cy="187" r="14"/>
        <circle class="st13" cx="657.3" cy="116.3" r="14"/>
        <circle class="st13" cx="676.5" cy="150.4" r="14"/>
        <circle class="st13" cx="676.5" cy="80.3" r="14"/>
        <circle class="st13" cx="695.8" cy="116.3" r="14"/>
        <circle class="st13" cx="696.3" cy="187" r="14"/>
        <circle class="st13" cx="714.6" cy="83.5" r="14"/>
        <circle class="st13" cx="715.1" cy="155.1" r="14"/>
        <circle class="st13" cx="733.4" cy="123.9" r="14"/>
        <circle class="st13" cx="751.5" cy="93" r="14"/>
        <circle class="st13" cx="733.8" cy="199.6" r="14"/>
        <circle class="st13" cx="751.3" cy="169.2" r="14"/>
        <circle class="st13" cx="768.8" cy="138.9" r="14"/>
        <circle class="st13" cx="786.3" cy="108.5" r="14"/>
        <circle class="st13" cx="818.1" cy="129.6" r="14"/>
        <circle class="st13" cx="800.6" cy="160.6" r="14"/>
        <circle class="st13" cx="783" cy="191.7" r="14"/>
        <circle class="st13" cx="765.3" cy="223.4" r="14"/>
        <circle class="st13" cx="845.9" cy="155.8" r="14"/>
        <circle class="st13" cx="827.4" cy="188.1" r="14"/>
        <circle class="st13" cx="808.2" cy="221.3" r="14"/>
        <circle class="st13" cx="868.9" cy="186.2" r="14"/>
        <circle class="st13" cx="848.2" cy="220.4" r="14"/>
        <circle class="st13" cx="787.6" cy="256" r="14"/>
        <circle class="st13" cx="886.6" cy="220" r="14"/>
        <circle class="st13" cx="825.4" cy="256.1" r="14"/>
        <circle class="st13" cx="862.1" cy="256.2" r="14"/>
        <circle class="st13" cx="898.3" cy="256.3" r="14"/>
        <circle class="st13" cx="798.4" cy="294.1" r="14"/>
        <circle class="st13" cx="833.6" cy="294.1" r="14"/>
        <circle class="st13" cx="868.7" cy="294" r="14"/>
        <circle class="st13" cx="903.8" cy="294" r="14"/>
      </g>
      <g class="st7">
        <g class="st7">
          <g class="st7">
            <text class="st4" transform="translate(200.2 769.1)"><tspan x="0" y="0">147</tspan></text>
          </g>
        </g>
      </g>
      <circle class="st16" cx="26.8" cy="725" r="7.7"/>
      <circle class="st16" cx="46.6" cy="724.8" r="7.7"/>
      <circle class="st16" cx="66.2" cy="726.1" r="7.7" transform="translate(-661.7 768.1) rotate(-88.1)"/>
      <circle class="st16" cx="86.3" cy="726" r="7.7"/>
      <circle class="st13" cx="32.6" cy="704.1" r="7.7"/>
      <circle class="st12" cx="106.7" cy="725.8" r="7.7"/>
      <circle class="st13" cx="53.1" cy="704.9" r="7.7"/>
      <circle class="st13" cx="72" cy="706.9" r="7.7"/>
      <circle class="st12" cx="127.8" cy="725.7" r="7.7" transform="translate(-110.2 28.3) rotate(-8.9)"/>
      <circle class="st13" cx="40.5" cy="683.8" r="7.7"/>
      <circle class="st13" cx="93.9" cy="706" r="7.7"/>
      <circle class="st13" cx="62.2" cy="685.8" r="7.7" transform="translate(-16.7 1.7) rotate(-1.4)"/>
      <circle class="st13" cx="148.7" cy="725.6" r="7.7"/>
      <circle class="st13" cx="115.4" cy="706.1" r="7.7"/>
      <circle class="st13" cx="81" cy="687.6" r="7.7"/>
      <circle class="st13" cx="50.3" cy="664.4" r="7.7"/>
      <circle class="st13" cx="104" cy="687" r="7.7"/>
      <circle class="st13" cx="137.5" cy="706.3" r="7.7"/>
      <circle class="st13" cx="71.6" cy="666.7" r="7.7" transform="translate(-597.1 716.1) rotate(-88.1)"/>
      <circle class="st13" cx="91.2" cy="669.5" r="7.7"/>
      <circle class="st13" cx="61.9" cy="646" r="7.7" transform="translate(-585.8 686.4) rotate(-88.1)"/>
      <circle class="st13" cx="126.8" cy="687.7" r="7.7"/>
      <circle class="st13" cx="160.6" cy="707" r="7.7"/>
      <circle class="st13" cx="82.3" cy="648.8" r="7.7"/>
      <circle class="st13" cx="116.4" cy="669.6" r="7.7"/>
      <circle class="st13" cx="75.2" cy="628.8" r="7.7"/>
      <circle class="st13" cx="103.3" cy="654.7" r="7.7"/>
      <circle class="st13" cx="150.6" cy="688.9" r="7.7"/>
      <circle class="st13" cx="140.8" cy="671.3" r="7.7"/>
      <circle class="st13" cx="95.8" cy="633.4" r="7.7"/>
      <circle class="st13" cx="90.1" cy="612.9" r="7.7"/>
      <circle class="st13" cx="131.3" cy="653.7" r="7.7" transform="translate(-36.3 8.3) rotate(-3.2)"/>
      <circle class="st13" cx="117.2" cy="639.6" r="7.7"/>
      <circle class="st13" cx="176" cy="691.1" r="7.7"/>
      <circle class="st13" cx="110" cy="619.6" r="7.7"/>
      <circle class="st13" cx="106.4" cy="598.6" r="7.7"/>
      <circle class="st13" cx="166.5" cy="674" r="7.7"/>
      <circle class="st13" cx="156.9" cy="657" r="7.7"/>
      <circle class="st13" cx="147.4" cy="640" r="7.7"/>
      <circle class="st13" cx="133.1" cy="627.1" r="7.7" transform="translate(-34.8 8.4) rotate(-3.2)"/>
      <circle class="st13" cx="125.6" cy="607.6" r="7.7" transform="translate(-59.3 15.3) rotate(-5.7)"/>
      <circle class="st13" cx="124.4" cy="585.8" r="7.7" transform="translate(-88.7 26.1) rotate(-8.9)"/>
      <circle class="st13" cx="147.8" cy="614.7" r="7.7"/>
      <circle class="st13" cx="165.4" cy="628.5" r="7.7"/>
      <circle class="st13" cx="175.1" cy="645.2" r="7.7"/>
      <circle class="st13" cx="184.7" cy="661.9" r="7.7"/>
      <circle class="st13" cx="194.3" cy="678.5" r="7.7"/>
      <circle class="st13" cx="142.8" cy="574.9" r="7.7"/>
      <circle class="st13" cx="141.6" cy="595.6" r="7.7"/>
      <circle class="st13" cx="163.9" cy="604.5" r="7.7"/>
      <circle class="st13" cx="162.6" cy="565.8" r="7.7"/>
      <circle class="st13" cx="184.7" cy="619.2" r="7.7"/>
      <circle class="st13" cx="158.6" cy="585.6" r="7.7"/>
      <circle class="st13" cx="194.6" cy="636.1" r="7.7"/>
      <circle class="st13" cx="204.6" cy="652.9" r="7.7"/>
      <circle class="st13" cx="214.7" cy="669.9" r="7.7"/>
      <circle class="st13" cx="183.1" cy="558.6" r="7.7"/>
      <circle class="st13" cx="181" cy="597.3" r="7.7"/>
      <circle class="st13" cx="195.4" cy="574.8" r="7.7"/>
      <circle class="st13" cx="205.1" cy="612.5" r="7.7"/>
      <circle class="st13" cx="215.3" cy="629.9" r="7.7"/>
      <circle class="st13" cx="204.3" cy="553.4" r="7.7"/>
      <circle class="st13" cx="198.7" cy="592.5" r="7.7"/>
      <circle class="st13" cx="225.8" cy="647.5" r="7.7"/>
      <circle class="st13" cx="213.8" cy="570.2" r="7.7"/>
      <circle class="st13" cx="226.1" cy="608.5" r="7.7"/>
      <circle class="st13" cx="236.4" cy="665.5" r="7.7"/>
      <circle class="st13" cx="225.8" cy="550.3" r="7.7"/>
      <circle class="st13" cx="236.7" cy="626.8" r="7.7"/>
      <circle class="st13" cx="238.9" cy="588.1" r="7.7"/>
      <circle class="st13" cx="234.6" cy="568.8" r="7.7"/>
      <circle class="st13" cx="247.5" cy="607.1" r="7.7"/>
      <circle class="st13" cx="247.5" cy="549.3" r="7.7"/>
      <circle class="st13" cx="247.5" cy="645.7" r="7.7"/>
      <circle class="st13" cx="256.5" cy="568.2" r="7.7"/>
      <circle class="st13" cx="258.2" cy="588.3" r="7.7"/>
      <circle class="st13" cx="258.3" cy="627" r="7.7"/>
      <circle class="st13" cx="269.2" cy="550.3" r="7.7"/>
      <circle class="st13" cx="258.6" cy="665.7" r="7.7"/>
      <circle class="st13" cx="268.9" cy="608.5" r="7.7"/>
      <circle class="st13" cx="280.3" cy="571.2" r="7.7"/>
      <circle class="st13" cx="269.3" cy="647.5" r="7.7"/>
      <circle class="st13" cx="279.3" cy="590.5" r="7.7"/>
      <circle class="st13" cx="290.8" cy="553.4" r="7.7"/>
      <circle class="st13" cx="279.7" cy="629.9" r="7.7"/>
      <circle class="st13" cx="289.9" cy="612.5" r="7.7"/>
      <circle class="st13" cx="301.7" cy="575.8" r="7.7"/>
      <circle class="st13" cx="300.1" cy="595.3" r="7.7"/>
      <circle class="st13" cx="311.9" cy="558.6" r="7.7"/>
      <circle class="st13" cx="280.3" cy="669.9" r="7.7"/>
      <circle class="st13" cx="290.4" cy="652.9" r="7.7"/>
      <circle class="st13" cx="300.4" cy="636.1" r="7.7"/>
      <circle class="st13" cx="322.5" cy="582.6" r="7.7"/>
      <circle class="st13" cx="310.3" cy="619.2" r="7.7"/>
      <circle class="st13" cx="332.4" cy="565.8" r="7.7"/>
      <circle class="st13" cx="320.1" cy="602.4" r="7.7"/>
      <circle class="st13" cx="342.5" cy="591.6" r="7.7"/>
      <circle class="st13" cx="352.2" cy="574.3" r="7.7"/>
      <circle class="st13" cx="300.7" cy="678.5" r="7.7"/>
      <circle class="st13" cx="310.4" cy="661.8" r="7.7"/>
      <circle class="st13" cx="320" cy="645.1" r="7.7"/>
      <circle class="st13" cx="329.6" cy="628.5" r="7.7"/>
      <circle class="st13" cx="339.3" cy="611.7" r="7.7"/>
      <circle class="st13" cx="371" cy="585.8" r="7.7"/>
      <circle class="st13" cx="361.4" cy="602.6" r="7.7"/>
      <circle class="st13" cx="357.2" cy="623.2" r="7.7"/>
      <circle class="st13" cx="347.6" cy="640" r="7.7"/>
      <circle class="st13" cx="338.1" cy="657" r="7.7"/>
      <circle class="st13" cx="328.5" cy="674" r="7.7"/>
      <circle class="st13" cx="388.6" cy="598.6" r="7.7"/>
      <circle class="st13" cx="379" cy="615.6" r="7.7"/>
      <circle class="st13" cx="319" cy="691.1" r="7.7"/>
      <circle class="st13" cx="373.8" cy="636.6" r="7.7"/>
      <circle class="st13" cx="364.1" cy="653.8" r="7.7"/>
      <circle class="st13" cx="405" cy="612.9" r="7.7"/>
      <circle class="st13" cx="395.2" cy="630.4" r="7.7"/>
      <circle class="st13" cx="354.3" cy="671.3" r="7.7"/>
      <circle class="st13" cx="344.4" cy="688.9" r="7.7"/>
      <circle class="st13" cx="388.7" cy="651.7" r="7.7"/>
      <circle class="st13" cx="419.9" cy="628.8" r="7.7"/>
      <circle class="st13" cx="378.6" cy="669.6" r="7.7"/>
      <circle class="st13" cx="409.8" cy="646.8" r="7.7"/>
      <circle class="st13" cx="334.4" cy="707" r="7.7"/>
      <circle class="st13" cx="368.2" cy="687.7" r="7.7"/>
      <circle class="st13" cx="433.2" cy="646" r="7.7"/>
      <circle class="st13" cx="401.9" cy="668.5" r="7.7"/>
      <circle class="st13" cx="422.5" cy="664.7" r="7.7"/>
      <circle class="st13" cx="357.5" cy="706.4" r="7.7"/>
      <circle class="st13" cx="391" cy="687" r="7.7"/>
      <circle class="st13" cx="444.8" cy="664.4" r="7.7"/>
      <circle class="st13" cx="413" cy="686.6" r="7.7"/>
      <circle class="st13" cx="379.7" cy="706.1" r="7.7"/>
      <circle class="st13" cx="346.4" cy="725.6" r="7.7"/>
      <circle class="st13" cx="433.2" cy="683.8" r="7.7"/>
      <circle class="st13" cx="401.1" cy="706" r="7.7"/>
      <circle class="st13" cx="454.5" cy="683.8" r="7.7"/>
      <circle class="st13" cx="367.6" cy="725.7" r="7.7"/>
      <circle class="st13" cx="422" cy="705.9" r="7.7"/>
      <circle class="st13" cx="441.9" cy="703.9" r="7.7"/>
      <circle class="st13" cx="388.3" cy="725.8" r="7.7"/>
      <circle class="st13" cx="462.4" cy="704.1" r="7.7"/>
      <circle class="st13" cx="408.7" cy="726" r="7.7"/>
      <circle class="st13" cx="428.8" cy="726.1" r="7.7"/>
      <circle class="st13" cx="448.4" cy="724.8" r="7.7"/>
      <circle class="st13" cx="468.3" cy="725" r="7.7"/>
      <circle class="st13" cx="176.9" cy="579.4" r="7.7"/>
      <circle class="st13" cx="218.9" cy="587.9" r="7.7"/>
      <g class="st7">
        <g class="st7">
          <g class="st7">
            <text class="st3" transform="translate(68.8 487.7)"><tspan x="0" y="0">141</tspan></text>
          </g>
        </g>
      </g>
      <g id="ak">
        <g id="al">
          <path id="am" class="st16" d="M33.1,496.8h21.3c1.5,0,2.7,1.2,2.7,2.7v21.3c0,1.5-1.2,2.7-2.7,2.7h-21.3c-1.5,0-2.7-1.2-2.7-2.7v-21.3c0-1.5,1.2-2.7,2.7-2.7h0Z"/>
          <g id="an">
            <g id="ao">
              <circle id="ap" class="st6" cx="43.8" cy="510.2" r="12.9" transform="translate(-466.9 547.5) rotate(-89.3)"/>
              <circle id="aq" class="st16" cx="43.8" cy="510.2" r="11.4"/>
              <circle id="ar" class="st6" cx="43.8" cy="510.2" r="10"/>
            </g>
            <path id="as" class="st8" d="M38.6,509.9c.3,0,.4-.3.4-.7v-2.4c0-.4,0-.6-.4-.6h-.9v3.7h.9ZM35.9,516.1v-11.8h4.1c.7,0,1,.9,1,1.8v3.7c0,1-.3,2.1-1.3,2.1h-1.9v4.3h-1.9ZM42.8,512.8h1l-.5-2.5-.5,2.5h0ZM42.3,514.5l-.3,1.6h-1.9l2.1-11.8h2.4l2,11.8h-1.9l-.3-1.6h-2.1ZM46.8,516.1v-11.8h1.7l1.2,4.1v-4.1h1.9v11.8h-1.8l-1.1-3.6v3.6h-1.9Z"/>
          </g>
        </g>
      </g>
      <g class="st7">
        <g class="st7">
          <g class="st7">
            <text class="st3" transform="translate(69.7 523.7)"><tspan x="0" y="0">4</tspan></text>
          </g>
        </g>
      </g>
      <g class="st7">
        <g class="st7">
          <g class="st7">
            <text class="st3" transform="translate(69.8 559)"><tspan x="0" y="0">2</tspan></text>
          </g>
        </g>
      </g>
      <g class="st7">
        <g class="st7">
          <g class="st7">
            <text class="st3" transform="translate(822.1 488.6)"><tspan x="0" y="0">142</tspan></text>
          </g>
        </g>
      </g>
      <g id="bj">
        <g id="bk">
          <path id="bl" class="st16" d="M786.4,497.7h21.3c1.5,0,2.7,1.2,2.7,2.7v21.3c0,1.5-1.2,2.7-2.7,2.7h-21.3c-1.5,0-2.7-1.2-2.7-2.7v-21.3c0-1.5,1.2-2.7,2.7-2.7h0Z"/>
          <g id="bm">
            <g id="bn">
              <circle id="bo" class="st6" cx="797.1" cy="511.1" r="12.9"/>
              <circle id="bp" class="st16" cx="797.1" cy="511.1" r="11.4"/>
              <circle id="bq" class="st6" cx="797.1" cy="511.1" r="10"/>
            </g>
            <path id="br" class="st8" d="M792,510.8c.3,0,.4-.3.4-.7v-2.4c0-.4,0-.6-.4-.6h-.9v3.7h.9ZM789.2,517v-11.8h4.1c.7,0,1,.9,1,1.8v3.7c0,1-.3,2.1-1.3,2.1h-1.9v4.3h-1.9ZM796.1,513.7h1l-.5-2.5-.5,2.5h0ZM795.6,515.4l-.3,1.6h-1.9l2.1-11.8h2.4l2,11.8h-1.9l-.3-1.6h-2.1ZM800.1,517v-11.8h1.7l1.2,4.1v-4.1h1.9v11.8h-1.8l-1.1-3.6v3.6h-1.9Z"/>
          </g>
        </g>
      </g>
      <g class="st7">
        <g class="st7">
          <g class="st7">
            <text class="st3" transform="translate(823 524.6)"><tspan x="0" y="0">4</tspan></text>
          </g>
        </g>
      </g>
      <g class="st7">
        <g class="st7">
          <g class="st7">
            <text class="st3" transform="translate(823.1 559.9)"><tspan x="0" y="0">1</tspan></text>
          </g>
        </g>
      </g>
      <g>
        <path id="bg" class="st10" d="M803.2,461.1c6,2,10.3,7.6,10.3,14.2s-4.3,12.2-10.3,14.2v-28.3h0Z"/>
        <path id="bh" class="st9" d="M793.7,461.1v28.4c-6-2-10.4-7.6-10.4-14.2s4.2-12.1,10.1-14.1h.3Z"/>
        <polygon id="bi" class="st2" points="803.2 489.5 793.7 489.5 793.7 460.9 803.2 460.9 803.2 489.5"/>
        <polygon id="bj1" class="st2" points="809.1 481.3 809.1 469.3 806 469.3 806 481.3 809.1 481.3"/>
        <path id="bk1" class="st2" d="M785.8,469.3v12h3.1v-4.8h2c1.7-.3,1.9-1.8,1.9-1.8v-3.5c0-1.7-1.9-1.9-1.9-1.9h-5.1ZM789,471.2v2.7c1,0,1-.6,1-.6v-1.3c0-1-1-.9-1-.9h0Z"/>
        <path id="bl1" class="st0" d="M785.8,469.3v12h3.1v-4.8h2c1.7-.3,1.9-1.8,1.9-1.8v-3.5c0-1.7-1.9-1.9-1.9-1.9h-5.1M789,471.2v2.7c1,0,1-.6,1-.6v-1.3c0-1-1-.9-1-.9h0Z"/>
        <path id="bm1" class="st11" d="M795,464.8v12h3.1v-5.1c1.4,0,1.1.9,1.1.9v4.1h3.2v-4.7c.2-.9-.9-1.6-.9-1.6.9-.5.9-1.7.9-1.7v-2.1c0-2-2.2-1.9-2.2-1.9h-5.2ZM798.2,466.7v2.7c1,0,1-.6,1-.6v-1.3c0-1-1-.9-1-.9h0Z"/>
        <path id="bn1" class="st0" d="M795,464.8v12h3.1v-5.1c1.4,0,1.1.9,1.1.9v4.1h3.2v-4.7c.2-.9-.9-1.6-.9-1.6.9-.5.9-1.7.9-1.7v-2.1c0-2-2.2-1.9-2.2-1.9h-5.1M798.2,466.7v2.7c1,0,1-.6,1-.6v-1.3c0-1-1-.9-1-.9h0Z"/>
      </g>
      <g>
        <path id="bg1" class="st10" d="M50,460.1c6,2,10.3,7.6,10.3,14.2s-4.3,12.2-10.3,14.2v-28.3h0Z"/>
        <path id="bh1" class="st9" d="M40.5,460.1v28.4c-6-2-10.4-7.6-10.4-14.2s4.2-12.1,10.1-14.1h.3Z"/>
        <polygon id="bi1" class="st2" points="50 488.5 40.4 488.5 40.4 459.9 50 459.9 50 488.5"/>
        <polygon id="bj2" class="st2" points="55.9 480.3 55.9 468.3 52.8 468.3 52.8 480.3 55.9 480.3"/>
        <path id="bk2" class="st2" d="M32.6,468.3v12h3.1v-4.8h2c1.7-.3,1.9-1.8,1.9-1.8v-3.5c0-1.7-1.9-1.9-1.9-1.9h-5.1ZM35.8,470.2v2.7c1,0,1-.6,1-.6v-1.3c0-1-1-.9-1-.9h0Z"/>
        <path id="bl2" class="st0" d="M32.6,468.3v12h3.1v-4.8h2c1.7-.3,1.9-1.8,1.9-1.8v-3.5c0-1.7-1.9-1.9-1.9-1.9h-5.1M35.8,470.2v2.7c1,0,1-.6,1-.6v-1.3c0-1-1-.9-1-.9h0Z"/>
        <path id="bm2" class="st11" d="M41.8,463.8v12h3.1v-5.1c1.4,0,1.1.9,1.1.9v4.1h3.2v-4.7c.2-.9-.9-1.6-.9-1.6.9-.5.9-1.7.9-1.7v-2.1c0-2-2.2-1.9-2.2-1.9h-5.2ZM45,465.7v2.7c1,0,1-.6,1-.6v-1.3c0-1-1-.9-1-.9h0Z"/>
        <path id="bn2" class="st0" d="M41.8,463.8v12h3.1v-5.1c1.4,0,1.1.9,1.1.9v4.1h3.2v-4.7c.2-.9-.9-1.6-.9-1.6.9-.5.9-1.7.9-1.7v-2.1c0-2-2.2-1.9-2.2-1.9h-5.1M45,465.7v2.7c1,0,1-.6,1-.6v-1.3c0-1-1-.9-1-.9h0Z"/>
      </g>
    </g>
    <g>
      <path id="bg2" class="st10" d="M415.1,61.9c20.9,6.9,35.9,26.5,35.9,49.5s-15,42.5-35.9,49.5V61.9h0Z"/>
      <path id="bh2" class="st9" d="M381.9,61.9v99.1c-21-6.9-36.2-26.5-36.2-49.6s14.8-42.2,35.3-49.3l.8-.2h.1Z"/>
      <polygon id="bi2" class="st2" points="415.1 161 381.8 161 381.8 61.4 415.1 61.4 415.1 161"/>
      <polygon id="bj3" class="st2" points="435.8 132.5 435.8 90.7 424.9 90.7 424.9 132.5 435.8 132.5"/>
      <path id="bk3" class="st2" d="M354.3,90.7v41.8h10.9v-16.6h6.9c6-1.2,6.6-6.3,6.6-6.3v-12.2c-.4-5.8-6.5-6.8-6.5-6.8h-17.9ZM365.6,97.2v9.5c3.4,0,3.5-2,3.5-2v-4.4c.1-3.4-3.5-3-3.5-3h0Z"/>
      <path id="bl3" class="st0" d="M354.3,90.7v41.8h10.9v-16.6h6.9c6-1.2,6.6-6.3,6.6-6.3v-12.2c-.4-5.8-6.5-6.8-6.5-6.8h-17.9M365.6,97.2v9.5c3.4,0,3.5-2,3.5-2v-4.4c.1-3.4-3.5-3-3.5-3h0Z"/>
      <path id="bm3" class="st11" d="M386.4,74.8v41.8h10.9v-17.7c4.8-.2,3.9,3.3,3.9,3.3v14.4h11v-16.4c.7-3.3-3.3-5.5-3.3-5.5,3.3-1.8,3.1-5.8,3.1-5.8v-7.3c0-7-7.7-6.8-7.7-6.8h-17.9ZM397.6,81.5v9.5c3.4,0,3.5-2,3.5-2v-4.4c.1-3.4-3.5-3-3.5-3h0Z"/>
      <path id="bn3" class="st0" d="M386.4,74.8v41.8h10.9v-17.7c4.8-.2,3.9,3.3,3.9,3.3v14.4h11v-16.4c.7-3.3-3.3-5.5-3.3-5.5,3.3-1.8,3.1-5.8,3.1-5.8v-7.3c0-7-7.7-6.8-7.7-6.8h-17.9M397.6,81.5v9.5c3.4,0,3.5-2,3.5-2v-4.4c.1-3.4-3.5-3-3.5-3h0Z"/>
    </g>
  </g>
  <g id="layer1">
    <path id="path2383" class="st15" d="M61.3,548c0,8.9-7.2,16-16,16s-16-7.2-16-16,7.2-16,16-16,16,7.2,16,16Z"/>
    <path id="path3155" class="st6" d="M57.8,548c0,6.9-5.6,12.5-12.5,12.5s-12.5-5.6-12.5-12.5,5.6-12.5,12.5-12.5,12.5,5.6,12.5,12.5Z"/>
    <path id="text3157" class="st15" d="M40.2,550.2v6.1h-3.5v-16.5h3.8c1.5,0,2.6.2,3.4.6.7.4,1.1,1.2,1.1,2.3v4.6c0,1.1-.3,1.8-.9,2.3-.6.4-1.9.7-3.8.6h0ZM41.4,546.9v-4c0-.6-.4-.9-1.2-.9v5.7c.8,0,1.2-.3,1.2-.9h0ZM49.1,550.2v6.1h-3.5v-16.5h3.8c1.5,0,2.6.2,3.4.6.7.4,1.1,1.2,1.1,2.3v4.6c0,1.1-.3,1.8-.9,2.3-.6.4-1.9.7-3.8.6h0ZM50.3,546.9v-4c0-.6-.4-.9-1.2-.9v5.7c.8,0,1.2-.3,1.2-.9h0Z"/>
  </g>
  <g id="layer11" data-name="layer1">
    <path id="path23831" data-name="path2383" class="st15" d="M814.4,550.7c0,8.9-7.2,16-16,16s-16-7.2-16-16,7.2-16,16-16,16,7.2,16,16Z"/>
    <path id="path31551" data-name="path3155" class="st6" d="M810.8,550.7c0,6.9-5.6,12.5-12.5,12.5s-12.5-5.6-12.5-12.5,5.6-12.5,12.5-12.5,12.5,5.6,12.5,12.5Z"/>
    <path id="text31571" data-name="text3157" class="st15" d="M793.3,552.9v6.1h-3.5v-16.5h3.8c1.5,0,2.6.2,3.4.6.7.4,1.1,1.2,1.1,2.3v4.6c0,1.1-.3,1.8-.9,2.3-.6.4-1.9.7-3.8.6h0ZM794.5,549.7v-4c0-.6-.4-.9-1.2-.9v5.7c.8,0,1.2-.3,1.2-.9h0ZM802.2,552.9v6.1h-3.5v-16.5h3.8c1.5,0,2.6.2,3.4.6.7.4,1.1,1.2,1.1,2.3v4.6c0,1.1-.3,1.8-.9,2.3-.6.4-1.9.7-3.8.6h0ZM803.4,549.7v-4c0-.6-.4-.9-1.2-.9v5.7c.8,0,1.2-.3,1.2-.9h0Z"/>
  </g>
</svg>