<?xml version="1.0" encoding="UTF-8"?>
<svg xmlns="http://www.w3.org/2000/svg" version="1.1" viewBox="0 0 1211.3 735.1">
  <!-- Generator: Adobe Illustrator 30.2.1, SVG Export Plug-In . SVG Version: 2.1.1 Build 1)  -->
  <defs>
    <style>
      .st0, .st1 {
        fill: none;
      }

      .st2 {
        fill: olive;
      }

      .st3 {
        fill: #06338e;
      }

      .st4, .st5, .st6, .st7, .st8, .st9, .st10 {
        fill: #fff;
      }

      .st4, .st11, .st12, .st13 {
        fill-rule: evenodd;
      }

      .st5 {
        font-size: 36px;
      }

      .st5, .st14, .st6, .st8, .st9, .st10 {
        isolation: isolate;
      }

      .st5, .st6, .st8, .st9, .st10 {
        font-family: Helvetica-Bold, Helvetica;
        font-weight: 700;
      }

      .st11 {
        fill: #00923f;
      }

      .st15 {
        fill: #f0f;
      }

      .st12 {
        fill: #d23026;
      }

      .st16 {
        fill: #3fa252;
      }

      .st6 {
        font-size: 24px;
      }

      .st13 {
        fill: #131516;
      }

      .st17 {
        fill: #009150;
      }

      .st18 {
        fill: #282828;
      }

      .st8 {
        letter-spacing: 0em;
      }

      .st8, .st9, .st10 {
        font-size: 31px;
      }

      .st9 {
        letter-spacing: 0em;
      }

      .st1 {
        stroke: #000;
        stroke-linecap: square;
        stroke-width: .2px;
      }

      .st19 {
        fill: #05338d;
      }

      .st20 {
        fill: #f2c631;
      }
    </style>
  </defs>
  <g id="Capa_4">
    <g id="Capa_2">
      <g id="c">
        <rect class="st18" x="-57.4" y="-19.4" width="1323.8" height="795.8"/>
      </g>
    </g>
  </g>
  <g id="b">
    <g id="c1" data-name="c">
      <g class="st14">
        <g class="st14">
          <g class="st14">
            <text class="st10" transform="translate(302.8 26.6) scale(1.2 1)"><tspan x="0" y="0">Senadores X</tspan></text>
            <text class="st9" transform="translate(520.3 26.6) scale(1.2 1)"><tspan x="0" y="0">L</tspan></text>
            <text class="st10" transform="translate(539.6 26.6) scale(1.2 1)"><tspan x="0" y="0">VI y X</tspan></text>
            <text class="st8" transform="translate(637.3 26.6) scale(1.2 1)"><tspan x="0" y="0">L</tspan></text>
            <text class="st10" transform="translate(656.6 26.6) scale(1.2 1)"><tspan x="0" y="0">VII Legislatura</tspan></text>
          </g>
        </g>
      </g>
      <g class="st14">
        <g class="st14">
          <g class="st14">
            <text class="st10" transform="translate(0 439.4) scale(1.2 1)"><tspan x="0" y="0">Diputados X</tspan></text>
            <text class="st9" transform="translate(209.4 439.4) scale(1.2 1)"><tspan x="0" y="0">L</tspan></text>
            <text class="st10" transform="translate(228.7 439.4) scale(1.2 1)"><tspan x="0" y="0">VI Legislatura</tspan></text>
          </g>
        </g>
      </g>
      <g class="st14">
        <g class="st14">
          <g class="st14">
            <text class="st6" transform="translate(68.8 487.7)"><tspan x="0" y="0">175</tspan></text>
          </g>
        </g>
      </g>
      <g id="aj">
        <g id="ak">
          <path id="al" class="st19" d="M33.1,496.8h21.3c1.5,0,2.7,1.2,2.7,2.7v21.3c0,1.5-1.2,2.7-2.7,2.7h-21.3c-1.5,0-2.7-1.2-2.7-2.7v-21.3c0-1.5,1.2-2.7,2.7-2.7h0Z"/>
          <g id="am">
            <g id="an">
              <circle id="ao" class="st7" cx="43.8" cy="510.2" r="12.9"/>
              <circle id="ap" class="st19" cx="43.8" cy="510.2" r="11.4"/>
              <circle id="aq" class="st7" cx="43.8" cy="510.2" r="10"/>
            </g>
            <path id="ar" class="st3" d="M38.6,509.9c.3,0,.4-.3.4-.7v-2.4c0-.4-.1-.6-.4-.6h-.9v3.7h.9ZM35.9,516.1v-11.8h4.1c.7,0,1,.9,1,1.8v3.7c0,1-.3,2.1-1.3,2.1h-1.9v4.3h-1.8s0,0,0,0ZM42.8,512.8h1l-.5-2.5-.5,2.5h0ZM42.3,514.5l-.3,1.6h-1.9l2.1-11.8h2.4l2,11.8h-1.9l-.3-1.6h-2.1ZM46.8,516.1v-11.8h1.7l1.2,4.1v-4.1h1.9v11.8h-1.8l-1.1-3.6v3.6s-1.9,0-1.9,0Z"/>
          </g>
        </g>
      </g>
      <g class="st14">
        <g class="st14">
          <g class="st14">
            <text class="st6" transform="translate(69.7 523.7)"><tspan x="0" y="0">20</tspan></text>
          </g>
        </g>
      </g>
      <g class="st14">
        <g class="st14">
          <g class="st14">
            <text class="st6" transform="translate(69.8 559)"><tspan x="0" y="0">10</tspan></text>
          </g>
        </g>
      </g>
      <g class="st14">
        <g class="st14">
          <text class="st5" transform="translate(652.6 243.1)"><tspan x="0" y="0">60</tspan></text>
        </g>
      </g>
      <g id="as">
        <circle class="st17" cx="510.6" cy="235.6" r="10" transform="translate(125.6 645.5) rotate(-71.6)"/>
        <circle class="st17" cx="535.7" cy="235.6" r="10"/>
        <circle class="st17" cx="560.8" cy="235.6" r="10"/>
        <circle class="st17" cx="586" cy="235.6" r="10"/>
        <circle class="st17" cx="514.9" cy="209" r="10"/>
        <circle class="st17" cx="540.3" cy="210.6" r="10"/>
        <circle class="st17" cx="566.4" cy="211" r="10"/>
        <circle class="st17" cx="523.5" cy="183.5" r="10"/>
        <circle class="st17" cx="594.2" cy="209.2" r="10"/>
        <circle class="st17" cx="549.5" cy="186.9" r="10"/>
        <circle class="st17" cx="577.3" cy="188.3" r="10"/>
        <circle class="st17" cx="536.2" cy="159.7" r="10"/>
        <circle class="st17" cx="562.8" cy="165.3" r="10"/>
        <circle class="st17" cx="552.7" cy="138.4" r="10"/>
        <circle class="st17" cx="610.3" cy="186.7" r="10"/>
        <circle class="st17" cx="593" cy="168.6" r="10"/>
        <circle class="st17" cx="579.9" cy="146.6" r="10"/>
        <circle class="st17" cx="572.5" cy="120.1" r="10"/>
        <circle class="st17" cx="612.7" cy="152.9" r="10"/>
        <circle class="st17" cx="600.2" cy="131.2" r="10"/>
        <circle class="st17" cx="595" cy="105.3" r="10"/>
        <circle class="st17" cx="632.5" cy="170.3" r="10"/>
        <circle class="st17" cx="622.9" cy="119.9" r="10"/>
        <circle class="st17" cx="635.4" cy="141.9" r="10"/>
        <circle class="st17" cx="619.7" cy="94.5" r="10"/>
        <circle class="st17" cx="647.3" cy="112.9" r="10"/>
        <circle class="st17" cx="645.8" cy="87.8" r="10"/>
        <circle class="st17" cx="658.8" cy="161.7" r="10"/>
        <circle class="st17" cx="660" cy="136.3" r="10"/>
        <circle class="st17" cx="672.6" cy="110.6" r="10"/>
        <circle class="st17" cx="672.6" cy="85.6" r="10"/>
        <circle class="st17" cx="685.2" cy="136.3" r="10"/>
        <circle class="st17" cx="686.4" cy="161.7" r="10"/>
        <circle class="st17" cx="699.5" cy="87.8" r="10"/>
        <circle class="st17" cx="697.9" cy="112.9" r="10"/>
        <circle class="st17" cx="725.6" cy="94.5" r="10"/>
        <circle class="st17" cx="709.8" cy="141.9" r="10"/>
        <circle class="st17" cx="722.3" cy="119.9" r="10"/>
        <circle class="st17" cx="712.7" cy="170.3" r="10"/>
        <circle class="st17" cx="750.2" cy="105.3" r="10"/>
        <circle class="st17" cx="745.1" cy="131.2" r="10"/>
        <circle class="st17" cx="732.5" cy="152.9" r="10"/>
        <circle class="st17" cx="772.8" cy="120.1" r="10"/>
        <circle class="st17" cx="765.3" cy="146.6" r="10"/>
        <circle class="st17" cx="752.2" cy="168.6" r="10"/>
        <circle class="st17" cx="735" cy="186.7" r="10"/>
        <circle class="st17" cx="792.5" cy="138.4" r="10"/>
        <circle class="st17" cx="782.4" cy="165.3" r="10"/>
        <circle class="st17" cx="809" cy="159.7" r="10"/>
        <circle class="st17" cx="767.9" cy="188.3" r="10"/>
        <circle class="st17" cx="795.8" cy="186.9" r="10"/>
        <circle class="st17" cx="751" cy="209.2" r="10"/>
        <circle class="st17" cx="821.7" cy="183.5" r="10"/>
        <circle class="st17" cx="778.8" cy="211" r="10"/>
        <circle class="st17" cx="804.9" cy="210.6" r="10"/>
        <circle class="st17" cx="830.3" cy="209" r="10"/>
        <circle class="st17" cx="759.2" cy="235.6" r="10"/>
        <circle class="st17" cx="784.4" cy="235.6" r="10"/>
        <circle class="st17" cx="809.5" cy="235.6" r="10"/>
        <circle class="st17" cx="834.6" cy="235.6" r="10"/>
      </g>
      <g class="st14">
        <g class="st14">
          <g class="st14">
            <text class="st6" transform="translate(171.5 488)"><tspan x="0" y="0">5</tspan></text>
          </g>
        </g>
      </g>
      <g class="st14">
        <text class="st5" transform="translate(236.9 717.8)"><tspan x="0" y="0">210</tspan></text>
      </g>
      <g id="at">
        <circle class="st15" cx="97.8" cy="717" r="4.7"/>
        <circle class="st15" cx="109.5" cy="717" r="4.7"/>
        <circle class="st15" cx="121.2" cy="717" r="4.7"/>
        <circle class="st15" cx="132.9" cy="717" r="4.7"/>
        <circle class="st15" cx="144.5" cy="717" r="4.7"/>
        <circle class="st15" cx="156.2" cy="717" r="4.7"/>
        <circle class="st15" cx="167.9" cy="717" r="4.7"/>
        <circle class="st15" cx="179.6" cy="717" r="4.7"/>
        <circle class="st15" cx="99.1" cy="701.7" r="4.7"/>
        <circle class="st15" cx="110.8" cy="701.5" r="4.7"/>
      </g>
      <g id="au">
        <circle class="st2" cx="122.6" cy="701.6" r="4.7"/>
        <circle class="st2" cx="134.4" cy="701.9" r="4.7"/>
        <circle class="st2" cx="146.3" cy="701.5" r="4.7"/>
        <circle class="st2" cx="158.2" cy="701.1" r="4.7"/>
        <circle class="st2" cx="101.6" cy="686.7" r="4.7"/>
      </g>
      <g id="av">
        <circle class="st17" cx="170.1" cy="701.3" r="4.7"/>
        <circle class="st17" cx="113.7" cy="686.1" r="4.7"/>
        <circle class="st17" cx="182" cy="701.7" r="4.7"/>
        <circle class="st17" cx="125.6" cy="686.6" r="4.7"/>
        <circle class="st17" cx="137.6" cy="687" r="4.7"/>
        <circle class="st17" cx="149.9" cy="686.4" r="4.7"/>
        <circle class="st17" cx="105.6" cy="671.9" r="4.7"/>
        <circle class="st17" cx="118.1" cy="671.2" r="4.7"/>
        <circle class="st17" cx="162.5" cy="685.7" r="4.7"/>
        <circle class="st17" cx="130.2" cy="671.9" r="4.7"/>
        <circle class="st17" cx="174.7" cy="686.3" r="4.7"/>
        <circle class="st17" cx="142.4" cy="672.7" r="4.7"/>
        <circle class="st17" cx="110.8" cy="657.5" r="4.7"/>
        <circle class="st17" cx="187" cy="687.1" r="4.7"/>
        <circle class="st17" cx="155.5" cy="671.9" r="4.7"/>
        <circle class="st17" cx="123.9" cy="656.7" r="4.7" transform="translate(-537.7 750.8) rotate(-87.4)"/>
        <circle class="st17" cx="136.4" cy="657.8" r="4.7"/>
        <circle class="st17" cx="117.3" cy="643.7" r="4.7"/>
        <circle class="st17" cx="168.9" cy="671" r="4.7"/>
        <circle class="st17" cx="148.9" cy="659" r="4.7"/>
        <circle class="st17" cx="131.1" cy="642.9" r="4.7"/>
        <circle class="st17" cx="181.7" cy="672.1" r="4.7"/>
        <circle class="st17" cx="162.8" cy="658.2" r="4.7"/>
        <circle class="st17" cx="144" cy="644.4" r="4.7"/>
        <circle class="st17" cx="125.1" cy="630.6" r="4.7"/>
        <circle class="st17" cx="194.6" cy="673.6" r="4.7"/>
        <circle class="st17" cx="156.9" cy="646" r="4.7"/>
        <circle class="st17" cx="139.7" cy="629.9" r="4.7"/>
        <circle class="st17" cx="177.4" cy="657.4" r="4.7"/>
        <circle class="st17" cx="134" cy="618.1" r="4.7"/>
        <circle class="st17" cx="152.9" cy="631.8" r="4.7"/>
        <circle class="st17" cx="171.8" cy="645.6" r="4.7"/>
        <circle class="st17" cx="190.8" cy="659.3" r="4.7"/>
        <circle class="st17" cx="166.2" cy="634.1" r="4.7"/>
        <circle class="st17" cx="149.5" cy="617.8" r="4.7"/>
        <circle class="st17" cx="144" cy="606.6" r="4.7"/>
        <circle class="st17" cx="204.4" cy="661.6" r="4.7"/>
        <circle class="st17" cx="187.8" cy="645.2" r="4.7"/>
        <circle class="st17" cx="163.1" cy="620.3" r="4.7"/>
        <circle class="st17" cx="182.4" cy="634.1" r="4.7"/>
        <circle class="st17" cx="160.4" cy="606.7" r="4.7"/>
        <circle class="st17" cx="176.9" cy="623.3" r="4.7"/>
        <circle class="st17" cx="155" cy="596" r="4.7"/>
        <circle class="st17" cx="201.8" cy="648" r="4.7"/>
        <circle class="st17" cx="174.5" cy="610" r="4.7"/>
        <circle class="st17" cx="199.8" cy="634.6" r="4.7"/>
        <circle class="st17" cx="172.4" cy="596.8" r="4.7"/>
        <circle class="st17" cx="194.3" cy="624.2" r="4.7"/>
        <circle class="st17" cx="166.9" cy="586.4" r="4.7"/>
        <circle class="st17" cx="188.7" cy="613.8" r="4.7"/>
        <circle class="st17" cx="216.1" cy="651.5" r="4.7"/>
        <circle class="st17" cx="186.9" cy="600.9" r="4.7"/>
        <circle class="st17" cx="214.5" cy="638.6" r="4.7"/>
        <circle class="st17" cx="185.4" cy="588" r="4.7"/>
        <circle class="st17" cx="179.6" cy="577.9" r="4.7"/>
        <circle class="st17" cx="201.5" cy="605.7" r="4.7"/>
        <circle class="st17" cx="207.3" cy="615.8" r="4.7"/>
        <circle class="st17" cx="213.2" cy="625.9" r="4.7"/>
        <circle class="st17" cx="200.2" cy="593.1" r="4.7"/>
        <circle class="st17" cx="193" cy="570.6" r="4.7"/>
        <circle class="st17" cx="199.1" cy="580.7" r="4.7"/>
        <circle class="st17" cx="229.4" cy="643.7" r="4.7"/>
        <circle class="st17" cx="228.5" cy="631.4" r="4.7"/>
        <circle class="st17" cx="215.1" cy="599" r="4.7"/>
        <circle class="st17" cx="221.4" cy="609.1" r="4.7"/>
        <circle class="st17" cx="214.2" cy="586.8" r="4.7"/>
        <circle class="st17" cx="207.1" cy="564.6" r="4.7"/>
        <circle class="st17" cx="227.7" cy="619.1" r="4.7"/>
        <circle class="st17" cx="213.4" cy="574.7" r="4.7"/>
        <circle class="st17" cx="229.5" cy="594" r="4.7"/>
        <circle class="st17" cx="221.6" cy="559.8" r="4.7"/>
        <circle class="st17" cx="243.9" cy="638.4" r="4.7"/>
        <circle class="st17" cx="228.9" cy="582" r="4.7"/>
        <circle class="st17" cx="236.1" cy="604.2" r="4.7"/>
        <circle class="st17" cx="228.3" cy="570.1" r="4.7"/>
        <circle class="st17" cx="243.4" cy="626.5" r="4.7"/>
        <circle class="st17" cx="243.1" cy="614.6" r="4.7"/>
        <circle class="st17" cx="236.5" cy="556.4" r="4.7"/>
        <circle class="st17" cx="244.2" cy="590.6" r="4.7"/>
        <circle class="st17" cx="243.9" cy="578.8" r="4.7"/>
        <circle class="st17" cx="243.6" cy="567" r="4.7"/>
        <circle class="st17" cx="251.4" cy="601.3" r="4.7"/>
        <circle class="st17" cx="251.6" cy="554.3" r="4.7" transform="translate(-319.1 766) rotate(-85.9)"/>
        <circle class="st17" cx="259.2" cy="635.6" r="4.7" transform="translate(-393.2 849.1) rotate(-85.9)"/>
        <circle class="st17" cx="259" cy="624" r="4.7" transform="translate(-381.7 838.1) rotate(-85.9)"/>
        <circle class="st17" cx="258.9" cy="612.3" r="4.7" transform="translate(-370.2 827.1) rotate(-85.9)"/>
        <circle class="st17" cx="259.3" cy="588.8" r="4.7" transform="translate(-346.4 805.8) rotate(-85.9)"/>
        <circle class="st17" cx="259.2" cy="577.2" r="4.7" transform="translate(-334.9 794.8) rotate(-85.9)"/>
        <circle class="st17" cx="259.1" cy="565.5" r="4.7" transform="translate(-323.3 783.9) rotate(-85.9)"/>
        <circle class="st17" cx="266.9" cy="600.3" r="4.7"/>
        <circle class="st17" cx="266.9" cy="553.6" r="4.7"/>
        <circle class="st17" cx="274.7" cy="565.5" r="4.7"/>
        <circle class="st17" cx="274.6" cy="577.2" r="4.7"/>
        <circle class="st17" cx="274.5" cy="588.8" r="4.7"/>
        <circle class="st17" cx="274.9" cy="612.3" r="4.7"/>
        <circle class="st17" cx="274.8" cy="624" r="4.7"/>
        <circle class="st17" cx="274.6" cy="635.6" r="4.7"/>
        <circle class="st17" cx="282.2" cy="554.3" r="4.7"/>
        <circle class="st17" cx="282.4" cy="601.3" r="4.7"/>
        <circle class="st17" cx="290.2" cy="567" r="4.7"/>
        <circle class="st17" cx="289.9" cy="578.8" r="4.7"/>
        <circle class="st17" cx="289.6" cy="590.6" r="4.7"/>
        <circle class="st17" cx="297.3" cy="556.4" r="4.7"/>
        <circle class="st17" cx="290.8" cy="614.6" r="4.7"/>
        <circle class="st17" cx="290.4" cy="626.5" r="4.7"/>
        <circle class="st17" cx="305.5" cy="570.1" r="4.7"/>
        <circle class="st17" cx="297.7" cy="604.2" r="4.7"/>
        <circle class="st17" cx="304.9" cy="582" r="4.7"/>
        <circle class="st17" cx="289.9" cy="638.4" r="4.7"/>
        <circle class="st17" cx="312.2" cy="559.8" r="4.7"/>
        <circle class="st17" cx="304.3" cy="594" r="4.7"/>
        <circle class="st17" cx="320.4" cy="574.7" r="4.7"/>
        <circle class="st17" cx="306.1" cy="619.1" r="4.7"/>
        <circle class="st17" cx="326.7" cy="564.6" r="4.7"/>
        <circle class="st17" cx="319.6" cy="586.8" r="4.7"/>
        <circle class="st17" cx="312.4" cy="609.1" r="4.7"/>
        <circle class="st17" cx="318.6" cy="599" r="4.7"/>
        <circle class="st17" cx="305.3" cy="631.4" r="4.7"/>
        <circle class="st17" cx="304.4" cy="643.7" r="4.7"/>
        <circle class="st17" cx="334.7" cy="580.7" r="4.7"/>
        <circle class="st17" cx="340.8" cy="570.6" r="4.7"/>
        <circle class="st17" cx="333.6" cy="593.1" r="4.7"/>
        <circle class="st17" cx="320.6" cy="625.9" r="4.7"/>
        <circle class="st17" cx="326.5" cy="615.8" r="4.7"/>
        <circle class="st17" cx="332.3" cy="605.7" r="4.7"/>
        <circle class="st17" cx="354.2" cy="577.9" r="4.7"/>
        <circle class="st17" cx="348.5" cy="588" r="4.7"/>
        <circle class="st17" cx="319.3" cy="638.6" r="4.7"/>
        <circle class="st17" cx="346.9" cy="600.9" r="4.7" transform="translate(-301.8 847) rotate(-80.8)"/>
        <circle class="st17" cx="317.7" cy="651.5" r="4.7"/>
        <circle class="st17" cx="345.1" cy="613.8" r="4.7" transform="translate(-316.1 856.1) rotate(-80.8)"/>
        <circle class="st17" cx="366.9" cy="586.4" r="4.7"/>
        <circle class="st17" cx="339.5" cy="624.2" r="4.7" transform="translate(-331 859.3) rotate(-80.8)"/>
        <circle class="st17" cx="361.4" cy="596.8" r="4.7"/>
        <circle class="st17" cx="334" cy="634.6" r="4.7"/>
        <circle class="st17" cx="359.3" cy="610" r="4.7"/>
        <circle class="st17" cx="332" cy="648" r="4.7"/>
        <circle class="st17" cx="378.8" cy="596" r="4.7"/>
        <circle class="st17" cx="356.9" cy="623.3" r="4.7"/>
        <circle class="st17" cx="373.4" cy="606.7" r="4.7"/>
        <circle class="st17" cx="351.4" cy="634.1" r="4.7"/>
        <circle class="st17" cx="370.7" cy="620.3" r="4.7"/>
        <circle class="st17" cx="346.1" cy="645.2" r="4.7" transform="translate(-346.3 883.4) rotate(-80.8)"/>
        <circle class="st17" cx="329.4" cy="661.6" r="4.7"/>
        <circle class="st17" cx="389.8" cy="606.6" r="4.7"/>
        <circle class="st17" cx="384.3" cy="617.8" r="4.7"/>
        <circle class="st17" cx="367.6" cy="634.1" r="4.7"/>
        <circle class="st17" cx="343.1" cy="659.3" r="4.7" transform="translate(-362.7 892.3) rotate(-80.8)"/>
        <circle class="st17" cx="362" cy="645.6" r="4.7"/>
        <circle class="st17" cx="380.9" cy="631.8" r="4.7"/>
        <circle class="st17" cx="399.8" cy="618.1" r="4.7"/>
        <circle class="st17" cx="356.4" cy="657.4" r="4.7"/>
        <circle class="st17" cx="394.1" cy="629.9" r="4.7"/>
        <circle class="st17" cx="376.9" cy="646" r="4.7"/>
        <circle class="st17" cx="339.3" cy="673.6" r="4.7" transform="translate(-380 900.5) rotate(-80.8)"/>
        <circle class="st17" cx="408.7" cy="630.6" r="4.7"/>
        <circle class="st17" cx="389.8" cy="644.4" r="4.7"/>
        <circle class="st17" cx="371" cy="658.2" r="4.7"/>
        <circle class="st17" cx="352.1" cy="672.1" r="4.7"/>
        <circle class="st17" cx="402.6" cy="642.9" r="4.7"/>
        <circle class="st17" cx="384.9" cy="659" r="4.7"/>
        <circle class="st17" cx="364.9" cy="671" r="4.7"/>
        <circle class="st17" cx="416.5" cy="643.7" r="4.7"/>
        <circle class="st17" cx="397.4" cy="657.8" r="4.7"/>
        <circle class="st17" cx="409.9" cy="656.7" r="4.7"/>
        <circle class="st17" cx="378.3" cy="671.9" r="4.7"/>
        <circle class="st17" cx="346.8" cy="687.1" r="4.7" transform="translate(-387 919.3) rotate(-80.8)"/>
        <circle class="st17" cx="423" cy="657.5" r="4.7"/>
        <circle class="st17" cx="391.4" cy="672.7" r="4.7"/>
        <circle class="st17" cx="359.1" cy="686.3" r="4.7"/>
        <circle class="st17" cx="403.5" cy="671.9" r="4.7"/>
        <circle class="st17" cx="371.3" cy="685.7" r="4.7"/>
        <circle class="st17" cx="415.7" cy="671.2" r="4.7"/>
        <circle class="st17" cx="428.2" cy="671.9" r="4.7"/>
        <circle class="st17" cx="383.9" cy="686.4" r="4.7"/>
      </g>
      <g id="aw">
        <circle class="st19" cx="396.2" cy="687" r="4.7"/>
        <circle class="st19" cx="408.2" cy="686.6" r="4.7"/>
        <circle class="st19" cx="351.8" cy="701.7" r="4.7"/>
        <circle class="st19" cx="420.1" cy="686.1" r="4.7"/>
        <circle class="st19" cx="363.7" cy="701.3" r="4.7"/>
        <circle class="st19" cx="432.2" cy="686.7" r="4.7"/>
        <circle class="st19" cx="375.6" cy="701.1" r="4.7"/>
        <circle class="st19" cx="387.5" cy="701.5" r="4.7"/>
        <circle class="st19" cx="399.4" cy="701.9" r="4.7"/>
        <circle class="st19" cx="411.2" cy="701.6" r="4.7"/>
        <circle class="st19" cx="423" cy="701.5" r="4.7"/>
        <circle class="st19" cx="434.8" cy="701.7" r="4.7"/>
        <circle class="st19" cx="354.2" cy="717" r="4.7"/>
        <circle class="st19" cx="365.9" cy="717" r="4.7"/>
        <circle class="st19" cx="377.6" cy="717" r="4.7"/>
        <circle class="st19" cx="389.3" cy="717" r="4.7"/>
        <circle class="st19" cx="400.9" cy="717" r="4.7"/>
        <circle class="st19" cx="412.6" cy="717" r="4.7"/>
        <circle class="st19" cx="424.3" cy="717" r="4.7"/>
        <circle class="st19" cx="436" cy="717" r="4.7"/>
      </g>
      <path class="st20" d="M133.8,459.2h13.7c0,0,.1,0,.1,0v28.9c-.1.5-.1.8-.1.8h-13.7c-.6,0-1-.5-1-1v-27.8c0-.5.4-1,1-1h0Z"/>
      <path class="st16" d="M147.6,459.2h14.1c.5,0,.8.4.8.8v28.1c0,.5-.4.8-.8.8h-14.2,0s0-29.7,0-29.7c0-.5-.3,0,.1,0h0Z"/>
      <path d="M149.1,465h-1.6s-1,0-1,0v1.1c-2.9,1.5-4.6,3.7-5.7,6.2l-1,.4v1.3c-.6.8-.9,1.7-.7,2.6h-.8s0,11.6,0,11.6h4.9c0,0,0-8.5,0-8.5,1.6-1.3,3-1.4,4.4-1.5,1.8.1,3.2.8,4.5,1.5l-.2,8.5h5.2s0-11.6,0-11.6h-.4c0-.1,0-2.4,0-2.4l-1.1-1c-1.5-3.4-3.5-6-6.4-7.1v-1.1h0Z"/>
      <rect class="st1" x="132.8" y="459.2" width="29.9" height="29.8" rx="1" ry="1"/>
      <path class="st7" d="M142.8,487.1h-3.9s0-9.9,0-9.9h1.4c0-.4,0-.9.2-1.4h.9s0-.5,0-.5c0-.3.3-.3.5-.4v-2.7h.5s0,2.8,0,2.8h10.4v-3.1s.4,0,.4,0v2.9c.1,0,.2,0,.4.3v.6h.4c.3,0,.6.2.7.7v.8s1.5,0,1.5,0v9.6h-4.4s.1-7.1.1-7.1c-1.3-.8-2.7-1.5-4.6-1.6-1.6,0-3.2.4-4.6,1.6v7.4s0,0,0,0Z"/>
      <path class="st7" d="M139.8,476.7c-.1,0-.2,0-.3,0,0,0-.1-.1-.2-.2,0,0,0-.1,0-.2s0-.1,0-.2c0-.1.1-.3.1-.4,0,0,0,0,0-.1,0,0,0,0,0-.1,0,0,0,0,0,0s0,0,0,0c0,0,0,0,0,0,0,0,0,0,0,0,0,0,0,0,0,0,0,0,0,0,0,0,0,0,0,0,0,0h0c0,0,0-.1,0-.1s0,0,0,0c0,0,0,0,.1,0,0,0,0,0,0,0s0,0,0,0c0,0,0,0,.1,0,0,0,0,0,.1,0,0,0,0,0,.1,0s0,0,0,0c0,0,0,0,0,0,0,0,0,0,0,0,0,0,0,0,.1,0s0,0,.1,0c0,0,.1.1.1.2,0,0,0,0,0,0,0,0,0,0,0,0,0,0,0,0,0,0,0,0,0,0,0,0h0s0,0,0,0c0,0,0,0,0,0h0s0,0,0,0c0,0,0,0,0,0,0,0,0,0,0,0,0,0,0,0,0,0,0,0,0,0,0,0,0,0,0,0,0,0,0,0-.1.1-.2.2,0,0-.1,0-.1.1s0,0-.1.1c0,0,0,.1,0,.2,0,.2,0,.3,0,.5,0,0,0,.1,0,.2,0,0,0,0-.1.1s-.1,0-.2,0h0Z"/>
      <path class="st7" d="M156.1,476.6s-.1,0-.2,0-.1,0-.2,0c-.1,0-.2,0-.3-.1-.1,0-.2-.2-.3-.3,0-.1-.1-.2-.1-.3,0-.1,0-.2,0-.3,0,0-.1-.1-.2-.2,0,0-.2-.1-.3-.2,0,0,0,0-.1,0,0,0,0,0,0-.1,0,0,0,0,0,0,0,0,0,0,0,0h-.1c0,0,0,0,0,0,0,0,0,0,0,0h0c0-.1,0-.1,0-.2,0,0,0,0,0,0,0,0,0,0,0,0,0,0,.1,0,.1,0,0,0,0,0,0,0h0s0,0,0,0c0,0,0,0,0,0,0,0,0,0,0,0h0s0,0,0,0c0,0,0,0,.1,0s.1,0,.1,0c0,0,.2,0,.3,0,0,0,.1,0,.2,0s0,0,.1.1c0,0,0,0,0,0,0,0,0,0,0,0,0,0,0,0,0,0s0,0,0,0c0,0,0,0,0,0h0c0,.2,0,.2,0,.3s0,.1,0,.2c0,0,0,0,0,.1s0,0,0,.1c0,0,0,0,0,0,0,0,0,0,0,0,0,0,0,0,0,0,0,0,.1.1.1.2,0,0,0,.2,0,.2,0,0,0,.2-.2.2h0Z"/>
      <path class="st7" d="M155.9,475h.4c0,0,.1,0,.1-.1v-.2s0,0-.1,0h-.3c0,0-.1,0-.1.1v.3h0Z"/>
      <path class="st7" d="M155.1,474.1s.1,0,.1,0h0c0-.2,0-.2,0-.2v-.3c0,0-.2,0-.2,0v.5h0Z"/>
      <path class="st7" d="M154,474.2h.5c.1,0,.1-.1.1-.2v-.4c0,0,0-.2-.2-.2h-.4c-.1,0-.2.1-.2.3v.3c0,0,0,.1.1.1h0Z"/>
      <path class="st7" d="M154.2,473.1h.3c.1,0,.1-.1.2-.2h0c0-.2-.1-.2-.2-.3h-.3c-.1,0-.1.1-.1.2v.3s0,0,0,0h0Z"/>
      <path class="st7" d="M153.8,471.9s-.1,0-.1,0,0,0,0,.1c0,0,0,.1,0,.1s0,.1,0,.1c0,0,0,0,0,.1s0,0,0,0c0,0,.1,0,.1,0,0,0,.1,0,.2,0,0,0,0,0,.1-.1,0,0,0-.1,0-.2s0-.1,0-.2c0,0,0-.1-.1-.2,0,0-.1,0-.1,0h0Z"/>
      <path class="st7" d="M151.8,468.9l1.1,2.5c.6.5.7,0,.7-.3-.2-1-.8-1.7-1.6-2.4-.3-.1-.2,0-.2.1h0Z"/>
      <path class="st7" d="M143.9,468.9l-1.1,2.5c-.6.5-.7,0-.7-.3.2-1,.8-1.7,1.6-2.4.3-.1.2,0,.2.1h0Z"/>
      <rect class="st7" x="146.9" y="465.5" width=".6" height=".7"/>
      <rect class="st7" x="148.1" y="465.5" width=".6" height=".7"/>
      <path class="st7" d="M143.6,474.5h-.8s0-2.7,0-2.7c.8-.2.8-.3,4.9-.4,1.7.1,4.7,0,5,.5v2.6h-.4s-.5-.1-.5-.1v-.4h.2s0-1.6,0-1.6c-.1-.1-.4-.5-.5,0h-.6c-.4-.3-.8-.4-1.2,0h-.5c-.4-.5-.7-.4-1.1,0h-.4c-.9-.6-1,0-1.4,0h-.6c-.2-.2-.4-.2-.7,0h-.6c-.3-.1-.6-.2-.8,0v2s0,0,0,0Z"/>
      <path class="st7" d="M141.3,474.2c0,0,.1,0,.2-.1v-.3c0-.1,0-.2-.2-.3h-.4c0,0-.2,0-.2.2v.4c0,0,0,.1.1.1h.5c0,0,0,0,0,0Z"/>
      <path class="st7" d="M141.4,471.9s0,0-.1,0,0,0,0,.1c0,0,0,.1,0,.2,0,0,0,.1,0,.2,0,0,0,0,.1.1s0,0,.1,0c0,0,0,0,.1,0,0,0,0,0,0,0,0,0,0,0,0-.1,0,0,0-.1,0-.2,0,0,0-.2,0-.2,0,0,0,0,0-.1,0,0,0,0-.1,0s0,0-.1,0h0Z"/>
      <path class="st7" d="M140.9,473.1c0,0,0,.1.1.2h.4v-.3c0,0,0-.1-.1-.1-.1,0-.2,0-.2,0h-.1v.2h0Z"/>
      <path class="st7" d="M140.2,474.1c0,0-.1,0-.2,0h0c0-.1,0-.2,0-.2v-.2c.1,0,.2,0,.2,0v.5Z"/>
      <path class="st7" d="M145,473.1c0-.5.4-.2.4,0v1.1c0,.2-.3.4-.4,0v-1.1Z"/>
      <path class="st7" d="M146.7,472.5c0-.3.4-.3.4,0v1.6c-.1.2-.3.3-.4,0v-1.6Z"/>
      <path class="st7" d="M148.2,472.6c0-.3.4-.3.4,0v1.6c0,.3-.3.3-.4,0v-1.6Z"/>
      <path class="st7" d="M150,472.5c.1-.2.3-.2.4,0v1.6c0,.2-.3.2-.4,0v-1.6Z"/>
      <path class="st7" d="M145.4,468h-.6c0-.2.1-.4.3-.6h.5c-.1.2-.2.4-.2.6Z"/>
      <path class="st7" d="M145.1,468.8h-.7c0-.2.1-.4.3-.6h.6c-.1.2-.2.4-.2.6Z"/>
      <path class="st7" d="M144,469.5h.9c0-.2,0-.3.2-.6h-.8c-.2.2-.2.4-.2.6h0Z"/>
      <path class="st7" d="M144.8,470.4c0-.5,0-.4,0-.6h-1c0,.1-.1.4-.2.5h1.1s0,0,0,0Z"/>
      <path class="st7" d="M143.5,471.3h1.1v-.6h-1c0,.3-.1.5-.1.6Z"/>
      <path class="st7" d="M150.1,468h.6c0-.2-.1-.4-.3-.6h-.5c.1.2.2.4.2.6Z"/>
      <path class="st7" d="M150.4,468.8h.7c0-.2-.1-.4-.3-.6h-.6c.1.2.2.4.2.6Z"/>
      <path class="st7" d="M151.5,469.6h-.9c0-.2,0-.3-.2-.6h.8c.2.2.2.4.2.6h0Z"/>
      <path class="st7" d="M150.8,470.4c0-.5,0-.4,0-.6h1c0,.1.1.4.2.5h-1.1s0,0,0,0Z"/>
      <path class="st7" d="M152.1,471.4h-1.1v-.6h1c0,.3.1.5.1.6Z"/>
      <path class="st7" d="M146.4,468h-.6c0-.2,0-.4.1-.6h.4s0,.6,0,.6h0Z"/>
      <path class="st7" d="M146.1,468.8h-.6c0-.2,0-.4.2-.6h.5v.6q0,0,0,0Z"/>
      <path class="st7" d="M146,469.5h-.7v-.5h.7v.5h0Z"/>
      <path class="st7" d="M145.9,469.7v.6c-.1,0-.8,0-.8,0,0-.2,0-.5.1-.6h.7,0Z"/>
      <path class="st7" d="M145.7,470.7v.6s-.7,0-.7,0c0-.2,0-.3,0-.6h.7Z"/>
      <path class="st7" d="M149.2,468h.6c0-.2,0-.4-.1-.6h-.4s0,.6,0,.6h0Z"/>
      <path class="st7" d="M149.4,468.8h.6c0-.2,0-.4-.2-.6h-.5v.6q0,0,0,0Z"/>
      <path class="st7" d="M149.6,469.5h.7v-.5h-.7v.5h0Z"/>
      <path class="st7" d="M149.7,469.8v.6c.1,0,.8,0,.8,0,0-.2,0-.5-.1-.6h-.7,0Z"/>
      <path class="st7" d="M149.8,470.7v.6s.7,0,.7,0c0-.2,0-.3,0-.6h-.7Z"/>
      <path class="st7" d="M147.2,468h-.6c0-.3,0-.5.1-.6h.4v.6s0,0,0,0Z"/>
      <path class="st7" d="M147.1,468.7h-.6c0-.2,0-.4.1-.6h.6s0,.6,0,.6h0Z"/>
      <path class="st7" d="M147,469.5h-.7c0-.2,0-.4,0-.6h.6v.6h0Z"/>
      <path class="st7" d="M147,470.3h-.8v-.6h.8v.6h0Z"/>
      <path class="st7" d="M146.9,471.2v-.7h-.8c0,.2,0,.4,0,.6h.8Z"/>
      <path class="st7" d="M148.4,468h.6c0-.3,0-.5-.1-.6h-.4v.6s0,0,0,0Z"/>
      <path class="st7" d="M148.4,468.8h.6c0-.2,0-.4-.1-.6h-.6s0,.6,0,.6h0Z"/>
      <path class="st7" d="M148.5,469.5h.7c0-.2,0-.4,0-.6h-.6v.6h0Z"/>
      <path class="st7" d="M148.6,470.4h.8v-.6h-.8v.6h0Z"/>
      <path class="st7" d="M148.6,471.3v-.7h.8c0,.2,0,.4,0,.6h-.8Z"/>
      <rect class="st7" x="147.5" y="467.4" width=".6" height=".6"/>
      <rect class="st7" x="147.5" y="468.2" width=".7" height=".6"/>
      <rect class="st7" x="147.4" y="468.9" width=".7" height=".6"/>
      <rect class="st7" x="147.4" y="469.7" width=".8" height=".6"/>
      <rect class="st7" x="147.3" y="470.6" width=".9" height=".6"/>
      <path class="st7" d="M149.4,460.3h1.1c.7,0,1.2,0,1.4,0,.2,0,.5.2.6.3.2.2.2.5.2.9s0,.6-.2.7c-.1.1-.3.2-.7.2.3,0,.5.1.6.2s.2.2.2.3c0,0,0,.3,0,.7v1.2h-1.4v-1.5c0-.2,0-.4,0-.5s-.2,0-.4,0v2.1h-1.5v-4.6h0ZM150.9,461.1v1c.2,0,.3,0,.4,0,0,0,.1-.2.1-.4v-.2c0-.1,0-.2-.1-.3,0,0-.2,0-.4,0h0Z"/>
      <path class="st7" d="M161.3,460.3v4.5h-1.2v-3.1l-.5,3.1h-.9l-.5-3v3h-1.2v-4.5h1.8c0,.3.1.6.2,1l.2,1.2.3-2.1h1.8Z"/>
      <path d="M144.4,460.5l.8,4.5h-1.5v-.8h-.6v.8h-1.6l.8-4.5h2.1ZM143.6,463.4c0-.5-.1-1.1-.2-1.9-.1.9-.2,1.5-.3,1.9h.5Z"/>
      <path d="M134.9,460.5h1.3c.4,0,.6,0,.8,0s.3.1.4.2.2.2.2.4c0,.1,0,.3,0,.6v.4c0,.3,0,.5-.1.6,0,.1-.2.2-.4.3s-.4.1-.7.1h-.4v1.8h-1.3v-4.5h0ZM136.2,461.2v1.2h.1c.1,0,.2,0,.2,0,0,0,0-.2,0-.3v-.4c0-.2,0-.3,0-.3,0,0-.2,0-.3,0h0Z"/>
      <g id="ax">
        <path id="ay" class="st15" d="M59.3,544.6c0,7.9-6.4,14.3-14.3,14.3s-14.4-6.4-14.4-14.3,6.4-14.3,14.4-14.3,14.3,6.4,14.3,14.3Z"/>
        <path id="az" class="st7" d="M56.2,544.6c0,6.2-5,11.2-11.2,11.2s-11.2-5-11.2-11.2,5-11.2,11.2-11.2,11.2,5,11.2,11.2Z"/>
        <path id="ba" class="st15" d="M38.5,546.3v4.4h-2.5v-11.9h2.8c1.1,0,1.9.1,2.4.4.5.3.8.8.8,1.7v3.3c0,.8-.2,1.3-.7,1.7-.4.3-1.4.5-2.8.5h0ZM39.3,544v-2.9c0-.4-.3-.6-.9-.6v4.1c.6,0,.9-.2.9-.6h0ZM44.9,546.3v4.4h-2.5v-11.9h2.8c1.1,0,1.9.1,2.4.4.5.3.8.8.8,1.7v3.3c0,.8-.2,1.3-.7,1.7-.4.3-1.4.5-2.8.5h0ZM45.8,544v-2.9c0-.4-.3-.6-.9-.6v4.1c.6,0,.9-.2.9-.6h0ZM48.8,545.9h2.4v2.7c0,.3.2.4.5.4s.5-.1.5-.4v-1.4c0-.4-.3-.9-.9-1.5-1.1-1.1-1.8-1.8-2.1-2.2-.3-.4-.4-.8-.4-1.2v-1.3c0-1.5,1-2.3,3-2.3s2.7.7,2.7,2.1v2.1h-2.4v-2.2c0-.2-.1-.4-.4-.4s-.5.2-.5.7v.8c0,.4.3,1,.9,1.5,1.1,1,1.8,1.8,2.1,2.2.3.4.4.9.4,1.4v1.5c0,1.6-1,2.4-3,2.4s-2.9-.7-2.9-2.2v-2.7h0Z"/>
      </g>
      <g class="st14">
        <g class="st14">
          <g class="st14">
            <text class="st10" transform="translate(737.2 435.8) scale(1.2 1)"><tspan x="0" y="0">Diputados X</tspan></text>
            <text class="st8" transform="translate(946.6 435.8) scale(1.2 1)"><tspan x="0" y="0">L</tspan></text>
            <text class="st10" transform="translate(965.9 435.8) scale(1.2 1)"><tspan x="0" y="0">VII Legislatura</tspan></text>
          </g>
        </g>
      </g>
      <g class="st14">
        <g class="st14">
          <g class="st14">
            <text class="st6" transform="translate(805.9 484.2)"><tspan x="0" y="0">175</tspan></text>
          </g>
        </g>
      </g>
      <g id="br">
        <g id="bs">
          <path id="bt" class="st19" d="M770.2,493.2h21.3c1.5,0,2.7,1.2,2.7,2.7v21.3c0,1.5-1.2,2.7-2.7,2.7h-21.3c-1.5,0-2.7-1.2-2.7-2.7v-21.3c0-1.5,1.2-2.7,2.7-2.7h0Z"/>
          <g id="bu">
            <g id="bv">
              <circle id="bw" class="st7" cx="780.9" cy="506.6" r="12.9"/>
              <circle id="bx" class="st19" cx="780.9" cy="506.6" r="11.4"/>
              <circle id="by" class="st7" cx="780.9" cy="506.6" r="10"/>
            </g>
            <path id="bz" class="st3" d="M775.8,506.4c.3,0,.4-.3.4-.7v-2.4c0-.4-.1-.6-.4-.6h-.9v3.7h.9ZM773,512.5v-11.8h4.1c.7,0,1,.9,1,1.8v3.7c0,1-.3,2.1-1.3,2.1h-1.9v4.3h-1.8s0,0,0,0ZM780,509.2h1l-.5-2.5-.5,2.5h0ZM779.5,511l-.3,1.6h-1.9l2.1-11.8h2.4l2,11.8h-1.9l-.3-1.6h-2.1,0ZM784,512.5v-11.8h1.7l1.2,4.1v-4.1h1.9v11.8h-1.8l-1.1-3.6v3.6h-1.9Z"/>
          </g>
        </g>
      </g>
      <g class="st14">
        <g class="st14">
          <g class="st14">
            <text class="st6" transform="translate(806.8 520.1)"><tspan x="0" y="0">20</tspan></text>
          </g>
        </g>
      </g>
      <g class="st14">
        <g class="st14">
          <g class="st14">
            <text class="st6" transform="translate(806.9 555.4)"><tspan x="0" y="0">10</tspan></text>
          </g>
        </g>
      </g>
      <g class="st14">
        <g class="st14">
          <g class="st14">
            <text class="st6" transform="translate(908.6 484.4)"><tspan x="0" y="0">5</tspan></text>
          </g>
        </g>
      </g>
      <g class="st14">
        <text class="st5" transform="translate(974 714.2)"><tspan x="0" y="0">210</tspan></text>
      </g>
      <g id="ca">
        <circle class="st15" cx="835" cy="713.4" r="4.7"/>
        <circle class="st15" cx="846.7" cy="713.4" r="4.7"/>
        <circle class="st15" cx="858.3" cy="713.4" r="4.7"/>
        <circle class="st15" cx="870" cy="713.4" r="4.7"/>
        <circle class="st15" cx="881.7" cy="713.4" r="4.7"/>
        <circle class="st15" cx="893.4" cy="713.4" r="4.7"/>
        <circle class="st15" cx="905.1" cy="713.4" r="4.7"/>
        <circle class="st15" cx="916.8" cy="713.4" r="4.7"/>
        <circle class="st15" cx="836.2" cy="698.2" r="4.7"/>
        <circle class="st15" cx="848" cy="697.9" r="4.7"/>
      </g>
      <g id="cb">
        <circle class="st2" cx="859.8" cy="698.1" r="4.7"/>
        <circle class="st2" cx="871.5" cy="698.3" r="4.7"/>
        <circle class="st2" cx="883.4" cy="698" r="4.7"/>
        <circle class="st2" cx="895.4" cy="697.5" r="4.7"/>
        <circle class="st2" cx="838.8" cy="683.1" r="4.7"/>
      </g>
      <g id="cc">
        <circle class="st17" cx="907.2" cy="697.8" r="4.7"/>
        <circle class="st17" cx="850.9" cy="682.6" r="4.7"/>
        <circle class="st17" cx="919.1" cy="698.1" r="4.7"/>
        <circle class="st17" cx="862.8" cy="683" r="4.7"/>
        <circle class="st17" cx="874.8" cy="683.5" r="4.7"/>
        <circle class="st17" cx="887.1" cy="682.8" r="4.7"/>
        <circle class="st17" cx="842.7" cy="668.3" r="4.7"/>
        <circle class="st17" cx="855.3" cy="667.6" r="4.7"/>
        <circle class="st17" cx="899.6" cy="682.1" r="4.7"/>
        <circle class="st17" cx="867.4" cy="668.3" r="4.7"/>
        <circle class="st17" cx="911.9" cy="682.7" r="4.7"/>
        <circle class="st17" cx="879.6" cy="669.1" r="4.7"/>
        <circle class="st17" cx="848" cy="654" r="4.7"/>
        <circle class="st17" cx="924.2" cy="683.5" r="4.7"/>
        <circle class="st17" cx="892.6" cy="668.3" r="4.7"/>
        <circle class="st17" cx="861.1" cy="653.2" r="4.7"/>
        <circle class="st17" cx="873.5" cy="654.2" r="4.7"/>
        <circle class="st17" cx="854.5" cy="640.2" r="4.7"/>
        <circle class="st17" cx="906.1" cy="667.4" r="4.7"/>
        <circle class="st17" cx="886.1" cy="655.4" r="4.7"/>
        <circle class="st17" cx="868.3" cy="639.4" r="4.7"/>
        <circle class="st17" cx="918.8" cy="668.6" r="4.7"/>
        <circle class="st17" cx="900" cy="654.6" r="4.7"/>
        <circle class="st17" cx="881.1" cy="640.8" r="4.7"/>
        <circle class="st17" cx="862.2" cy="627" r="4.7"/>
        <circle class="st17" cx="931.7" cy="670" r="4.7"/>
        <circle class="st17" cx="894" cy="642.5" r="4.7"/>
        <circle class="st17" cx="876.9" cy="626.3" r="4.7"/>
        <circle class="st17" cx="914.6" cy="653.8" r="4.7"/>
        <circle class="st17" cx="871.2" cy="614.6" r="4.7"/>
        <circle class="st17" cx="890.1" cy="628.3" r="4.7"/>
        <circle class="st17" cx="909" cy="642" r="4.7"/>
        <circle class="st17" cx="927.9" cy="655.7" r="4.7"/>
        <circle class="st17" cx="903.4" cy="630.5" r="4.7"/>
        <circle class="st17" cx="886.7" cy="614.2" r="4.7"/>
        <circle class="st17" cx="881.2" cy="603" r="4.7"/>
        <circle class="st17" cx="941.5" cy="658" r="4.7"/>
        <circle class="st17" cx="924.9" cy="641.6" r="4.7"/>
        <circle class="st17" cx="900.3" cy="616.8" r="4.7"/>
        <circle class="st17" cx="919.5" cy="630.6" r="4.7"/>
        <circle class="st17" cx="897.6" cy="603.2" r="4.7"/>
        <circle class="st17" cx="914" cy="619.7" r="4.7"/>
        <circle class="st17" cx="892.1" cy="592.4" r="4.7"/>
        <circle class="st17" cx="939" cy="644.4" r="4.7"/>
        <circle class="st17" cx="911.7" cy="606.4" r="4.7"/>
        <circle class="st17" cx="936.9" cy="631" r="4.7"/>
        <circle class="st17" cx="909.6" cy="593.2" r="4.7"/>
        <circle class="st17" cx="931.4" cy="620.6" r="4.7"/>
        <circle class="st17" cx="904" cy="582.8" r="4.7"/>
        <circle class="st17" cx="925.9" cy="610.2" r="4.7"/>
        <circle class="st17" cx="953.3" cy="648" r="4.7"/>
        <circle class="st17" cx="924.1" cy="597.3" r="4.7"/>
        <circle class="st17" cx="951.6" cy="635" r="4.7"/>
        <circle class="st17" cx="922.5" cy="584.5" r="4.7"/>
        <circle class="st17" cx="916.8" cy="574.3" r="4.7"/>
        <circle class="st17" cx="938.7" cy="602.1" r="4.7"/>
        <circle class="st17" cx="944.5" cy="612.2" r="4.7"/>
        <circle class="st17" cx="950.3" cy="622.3" r="4.7"/>
        <circle class="st17" cx="937.4" cy="589.5" r="4.7"/>
        <circle class="st17" cx="930.2" cy="567" r="4.7"/>
        <circle class="st17" cx="936.2" cy="577.1" r="4.7"/>
        <circle class="st17" cx="966.6" cy="640.2" r="4.7"/>
        <circle class="st17" cx="965.6" cy="627.8" r="4.7"/>
        <circle class="st17" cx="952.3" cy="595.4" r="4.7"/>
        <circle class="st17" cx="958.5" cy="605.5" r="4.7"/>
        <circle class="st17" cx="951.4" cy="583.2" r="4.7"/>
        <circle class="st17" cx="944.2" cy="561" r="4.7"/>
        <circle class="st17" cx="964.9" cy="615.6" r="4.7"/>
        <circle class="st17" cx="950.6" cy="571.1" r="4.7"/>
        <circle class="st17" cx="966.6" cy="590.4" r="4.7"/>
        <circle class="st17" cx="958.8" cy="556.2" r="4.7"/>
        <circle class="st17" cx="981.1" cy="634.8" r="4.7"/>
        <circle class="st17" cx="966" cy="578.5" r="4.7"/>
        <circle class="st17" cx="973.3" cy="600.7" r="4.7"/>
        <circle class="st17" cx="965.5" cy="566.5" r="4.7"/>
        <circle class="st17" cx="980.6" cy="622.9" r="4.7"/>
        <circle class="st17" cx="980.2" cy="611" r="4.7"/>
        <circle class="st17" cx="973.7" cy="552.8" r="4.7"/>
        <circle class="st17" cx="981.4" cy="587" r="4.7"/>
        <circle class="st17" cx="981.1" cy="575.2" r="4.7"/>
        <circle class="st17" cx="980.8" cy="563.5" r="4.7"/>
        <circle class="st17" cx="988.5" cy="597.7" r="4.7"/>
        <circle class="st17" cx="988.8" cy="550.8" r="4.7"/>
        <circle class="st17" cx="996.3" cy="632.1" r="4.7"/>
        <circle class="st17" cx="996.2" cy="620.4" r="4.7"/>
        <circle class="st17" cx="996" cy="608.7" r="4.7"/>
        <circle class="st17" cx="996.5" cy="585.3" r="4.7"/>
        <circle class="st17" cx="996.4" cy="573.6" r="4.7"/>
        <circle class="st17" cx="996.3" cy="561.9" r="4.7"/>
        <circle class="st17" cx="1004.1" cy="596.7" r="4.7"/>
        <circle class="st17" cx="1004.1" cy="550.1" r="4.7"/>
        <circle class="st17" cx="1011.8" cy="561.9" r="4.7"/>
        <circle class="st17" cx="1011.8" cy="573.6" r="4.7"/>
        <circle class="st17" cx="1011.7" cy="585.3" r="4.7"/>
        <circle class="st17" cx="1012.1" cy="608.7" r="4.7"/>
        <circle class="st17" cx="1011.9" cy="620.4" r="4.7"/>
        <circle class="st17" cx="1011.8" cy="632.1" r="4.7"/>
        <circle class="st17" cx="1019.3" cy="550.8" r="4.7"/>
        <circle class="st17" cx="1019.6" cy="597.7" r="4.7"/>
        <circle class="st17" cx="1027.3" cy="563.5" r="4.7" transform="translate(306.6 1487.3) rotate(-80.8)"/>
        <circle class="st17" cx="1027.1" cy="575.2" r="4.7" transform="translate(294.8 1496.9) rotate(-80.8)"/>
        <circle class="st17" cx="1026.7" cy="587" r="4.7" transform="translate(282.8 1506.4) rotate(-80.8)"/>
        <circle class="st17" cx="1034.5" cy="552.8" r="4.7"/>
        <circle class="st17" cx="1027.9" cy="611" r="4.7" transform="translate(260.2 1527.8) rotate(-80.8)"/>
        <circle class="st17" cx="1027.5" cy="622.9" r="4.7" transform="translate(248.1 1537.3) rotate(-80.8)"/>
        <circle class="st17" cx="1042.6" cy="566.5" r="4.7"/>
        <circle class="st17" cx="1034.8" cy="600.7" r="4.7"/>
        <circle class="st17" cx="1042.1" cy="578.5" r="4.7"/>
        <circle class="st17" cx="1027" cy="634.8" r="4.7" transform="translate(235.9 1546.9) rotate(-80.8)"/>
        <circle class="st17" cx="1049.4" cy="556.2" r="4.7"/>
        <circle class="st17" cx="1041.5" cy="590.4" r="4.7"/>
        <circle class="st17" cx="1057.5" cy="571.1" r="4.7"/>
        <circle class="st17" cx="1043.3" cy="615.6" r="4.7"/>
        <circle class="st17" cx="1063.9" cy="561" r="4.7"/>
        <circle class="st17" cx="1056.7" cy="583.2" r="4.7"/>
        <circle class="st17" cx="1049.6" cy="605.5" r="4.7"/>
        <circle class="st17" cx="1055.8" cy="595.4" r="4.7"/>
        <circle class="st17" cx="1042.5" cy="627.8" r="4.7"/>
        <circle class="st17" cx="1041.5" cy="640.2" r="4.7"/>
        <circle class="st17" cx="1071.9" cy="577.1" r="4.7"/>
        <circle class="st17" cx="1077.9" cy="567" r="4.7"/>
        <circle class="st17" cx="1070.8" cy="589.5" r="4.7"/>
        <circle class="st17" cx="1057.8" cy="622.3" r="4.7"/>
        <circle class="st17" cx="1063.6" cy="612.2" r="4.7"/>
        <circle class="st17" cx="1069.4" cy="602.1" r="4.7"/>
        <circle class="st17" cx="1091.4" cy="574.3" r="4.7"/>
        <circle class="st17" cx="1085.6" cy="584.5" r="4.7"/>
        <circle class="st17" cx="1056.5" cy="635" r="4.7"/>
        <circle class="st17" cx="1084.1" cy="597.3" r="4.7" transform="translate(320.8 1571.7) rotate(-80.8)"/>
        <circle class="st17" cx="1054.8" cy="648" r="4.7"/>
        <circle class="st17" cx="1082.3" cy="610.2" r="4.7" transform="translate(306.5 1580.8) rotate(-80.8)"/>
        <circle class="st17" cx="1104.1" cy="582.8" r="4.7"/>
        <circle class="st17" cx="1076.7" cy="620.6" r="4.7" transform="translate(291.6 1584) rotate(-80.8)"/>
        <circle class="st17" cx="1098.5" cy="593.2" r="4.7"/>
        <circle class="st17" cx="1071.2" cy="631" r="4.7"/>
        <circle class="st17" cx="1096.5" cy="606.4" r="4.7"/>
        <circle class="st17" cx="1069.2" cy="644.4" r="4.7"/>
        <circle class="st17" cx="1116" cy="592.4" r="4.7"/>
        <circle class="st17" cx="1094.1" cy="619.7" r="4.7"/>
        <circle class="st17" cx="1110.5" cy="603.2" r="4.7"/>
        <circle class="st17" cx="1088.6" cy="630.6" r="4.7"/>
        <circle class="st17" cx="1107.8" cy="616.8" r="4.7"/>
        <circle class="st17" cx="1083.2" cy="641.7" r="4.7" transform="translate(276.3 1608.1) rotate(-80.8)"/>
        <circle class="st17" cx="1066.6" cy="658" r="4.7"/>
        <circle class="st17" cx="1127" cy="603" r="4.7"/>
        <circle class="st17" cx="1121.5" cy="614.2" r="4.7"/>
        <circle class="st17" cx="1104.7" cy="630.5" r="4.7"/>
        <circle class="st17" cx="1080.2" cy="655.7" r="4.7" transform="translate(259.9 1616.9) rotate(-80.8)"/>
        <circle class="st17" cx="1099.1" cy="642" r="4.7"/>
        <circle class="st17" cx="1118.1" cy="628.3" r="4.7"/>
        <circle class="st17" cx="1137" cy="614.6" r="4.7"/>
        <circle class="st17" cx="1093.6" cy="653.8" r="4.7"/>
        <circle class="st17" cx="1131.2" cy="626.3" r="4.7"/>
        <circle class="st17" cx="1114.1" cy="642.5" r="4.7"/>
        <circle class="st17" cx="1076.4" cy="670" r="4.7" transform="translate(242.6 1625.2) rotate(-80.8)"/>
        <circle class="st17" cx="1145.9" cy="627" r="4.7"/>
        <circle class="st17" cx="1127" cy="640.8" r="4.7"/>
        <circle class="st17" cx="1108.2" cy="654.6" r="4.7"/>
        <circle class="st17" cx="1089.3" cy="668.6" r="4.7"/>
        <circle class="st17" cx="1139.8" cy="639.4" r="4.7"/>
        <circle class="st17" cx="1122.1" cy="655.4" r="4.7"/>
        <circle class="st17" cx="1102" cy="667.4" r="4.7"/>
        <circle class="st17" cx="1153.6" cy="640.2" r="4.7"/>
        <circle class="st17" cx="1134.6" cy="654.2" r="4.7"/>
        <circle class="st17" cx="1147" cy="653.2" r="4.7"/>
        <circle class="st17" cx="1115.5" cy="668.3" r="4.7"/>
        <circle class="st17" cx="1084" cy="683.5" r="4.7" transform="translate(235.6 1644) rotate(-80.8)"/>
        <circle class="st17" cx="1160.1" cy="654" r="4.7"/>
        <circle class="st17" cx="1128.5" cy="669.1" r="4.7"/>
        <circle class="st17" cx="1096.3" cy="682.7" r="4.7"/>
        <circle class="st17" cx="1140.7" cy="668.3" r="4.7"/>
        <circle class="st17" cx="1108.5" cy="682.1" r="4.7"/>
        <circle class="st17" cx="1152.9" cy="667.6" r="4.7"/>
        <circle class="st17" cx="1165.4" cy="668.3" r="4.7"/>
        <circle class="st17" cx="1121" cy="682.8" r="4.7"/>
      </g>
      <g id="cd">
        <circle class="st19" cx="1133.4" cy="683.5" r="4.7"/>
        <circle class="st19" cx="1145.3" cy="683" r="4.7"/>
        <circle class="st19" cx="1089" cy="698.1" r="4.7"/>
        <circle class="st19" cx="1157.2" cy="682.6" r="4.7"/>
        <circle class="st19" cx="1100.9" cy="697.8" r="4.7"/>
        <circle class="st19" cx="1169.3" cy="683.1" r="4.7"/>
        <circle class="st19" cx="1112.7" cy="697.5" r="4.7"/>
        <circle class="st19" cx="1124.7" cy="698" r="4.7"/>
        <circle class="st19" cx="1136.6" cy="698.3" r="4.7"/>
        <circle class="st19" cx="1148.3" cy="698.1" r="4.7"/>
        <circle class="st19" cx="1160.1" cy="697.9" r="4.7"/>
        <circle class="st19" cx="1171.9" cy="698.2" r="4.7"/>
        <circle class="st19" cx="1091.4" cy="713.4" r="4.7"/>
        <circle class="st19" cx="1103.1" cy="713.4" r="4.7"/>
        <circle class="st19" cx="1114.7" cy="713.4" r="4.7"/>
        <circle class="st19" cx="1126.4" cy="713.4" r="4.7"/>
        <circle class="st19" cx="1138.1" cy="713.4" r="4.7"/>
        <circle class="st19" cx="1149.8" cy="713.4" r="4.7"/>
        <circle class="st19" cx="1161.4" cy="713.4" r="4.7"/>
        <circle class="st19" cx="1173.1" cy="713.4" r="4.7"/>
      </g>
      <path class="st20" d="M870.9,455.7h13.7c0,0,0,0,0,0v28.9c-.1.5-.1.8-.1.8h-13.7c-.6,0-1-.5-1-1v-27.8c0-.5.5-1,1-1h0Z"/>
      <path class="st16" d="M884.8,455.7h14.1c.5,0,.8.4.8.8v28.1c0,.5-.4.8-.8.8h-14.2,0s0-29.7,0-29.7c0-.5-.3,0,.1,0h0Z"/>
      <path d="M886.2,461.5h-1.6s-1,0-1,0v1.1c-2.9,1.5-4.6,3.7-5.7,6.2l-1,.4v1.3c-.6.8-.9,1.7-.7,2.6h-.8s0,11.6,0,11.6h4.9c0,0,0-8.5,0-8.5,1.6-1.3,3-1.4,4.4-1.5,1.8.1,3.2.8,4.5,1.5l-.2,8.5h5.2s0-11.6,0-11.6h-.3c0-.1,0-2.4,0-2.4l-1.1-1c-1.5-3.4-3.5-6-6.4-7.1v-1.1h0Z"/>
      <rect class="st1" x="869.9" y="455.7" width="29.8" height="29.8" rx="1" ry="1"/>
      <path class="st7" d="M879.9,483.5h-3.9s0-9.9,0-9.9h1.4c0-.4,0-.9.2-1.4h.9s0-.5,0-.5c0-.3.3-.3.5-.4v-2.7h.5s0,2.8,0,2.8h10.5v-3.1s.4,0,.4,0v2.9c.1,0,.2,0,.4.3v.6h.4c.3,0,.6.2.7.7v.8s1.5,0,1.5,0v9.6h-4.4s.1-7.1.1-7.1c-1.3-.8-2.7-1.5-4.6-1.6-1.6,0-3.2.4-4.6,1.6v7.4s0,0,0,0Z"/>
      <path class="st7" d="M876.9,473.1c0,0-.2,0-.3,0,0,0-.1-.1-.2-.2,0,0,0-.1,0-.2s0-.1,0-.2c0-.1,0-.3.1-.4,0,0,0,0,0-.1,0,0,0,0,0-.1,0,0,0,0,0,0s0,0,0,0c0,0,0,0,0,0,0,0,0,0,0,0,0,0,0,0,0,0,0,0,0,0,0,0,0,0,0,0,0,0h0c0,0,0-.1,0-.1s0,0,0,0c0,0,0,0,0,0,0,0,0,0,0,0s0,0,0,0c0,0,0,0,.1,0,0,0,0,0,.1,0,0,0,0,0,0,0s0,0,0,0c0,0,0,0,0,0,0,0,0,0,0,0,0,0,0,0,.1,0s0,0,.1,0c0,0,.1.1.1.2,0,0,0,0,0,0,0,0,0,0,0,0h0s0,0,0,0h0s0,0,0,0c0,0,0,0,0,0h0s0,0,0,0c0,0,0,0,0,0,0,0,0,0,0,0,0,0,0,0,0,0,0,0,0,0,0,0,0,0,0,0,0,0,0,0-.2.1-.2.2,0,0,0,0-.1.1s0,0-.1.1c0,0,0,.1,0,.2,0,.2,0,.3,0,.5,0,0,0,.1,0,.2,0,0,0,0-.1.1s-.1,0-.2,0h0Z"/>
      <path class="st7" d="M893.2,473s-.1,0-.2,0-.1,0-.2,0c0,0-.2,0-.3-.1-.1,0-.2-.2-.3-.3,0-.1-.1-.2-.1-.3,0-.1,0-.2,0-.3,0,0-.1-.1-.2-.2,0,0-.2-.1-.3-.2,0,0,0,0-.1,0,0,0,0,0,0-.1,0,0,0,0,0,0,0,0,0,0,0,0h-.1c0,0,0,0,0,0,0,0,0,0,0,0h0c0-.1,0-.1,0-.2,0,0,0,0,0,0,0,0,0,0,0,0,0,0,0,0,.2,0,0,0,0,0,0,0h0s0,0,0,0c0,0,0,0,0,0,0,0,0,0,0,0h0s0,0,0,0c0,0,0,0,.1,0s0,0,.1,0c0,0,.2,0,.3,0,0,0,.1,0,.2,0s0,0,0,.1c0,0,0,0,0,0,0,0,0,0,0,0,0,0,0,0,0,0s0,0,0,0c0,0,0,0,0,0h0c0,.2,0,.2,0,.3s0,.1,0,.2c0,0,0,0,0,.1s0,0,0,.1h0c0,.1,0,.1,0,.2,0,0,0,0,0,0,0,0,.1.1.1.2,0,0,0,.2,0,.2,0,0,0,.2-.2.2h0Z"/>
      <path class="st7" d="M893.1,471.4h.4c0,0,.1,0,0-.1v-.2s0,0-.1,0h-.3s0,0-.1.1v.3h0Z"/>
      <path class="st7" d="M892.3,470.5s0,0,.1,0h0c0-.2,0-.2,0-.2v-.3c0,0-.2,0-.2,0v.5h0Z"/>
      <path class="st7" d="M891.2,470.6h.5c.1,0,.2-.1.1-.2v-.4c0,0,0-.2-.2-.2h-.4c-.1,0-.2.1-.2.3v.3c0,0,0,.1.1.1h0Z"/>
      <path class="st7" d="M891.3,469.5h.3c.2,0,.1-.1.2-.2h0c0-.2-.1-.2-.2-.3h-.3c0,0-.1.1-.1.2v.3s0,0,0,0h0Z"/>
      <path class="st7" d="M891,468.3s0,0-.1,0,0,0,0,.1c0,0,0,.1,0,.1s0,.1,0,.1c0,0,0,0,0,.1s0,0,0,0c0,0,0,0,.2,0,0,0,.1,0,.2,0,0,0,0,0,0-.1,0,0,0-.1,0-.2s0-.1,0-.2c0,0,0-.1-.1-.2,0,0,0,0-.2,0h0Z"/>
      <path class="st7" d="M889,465.3l1.1,2.5c.6.5.7,0,.7-.3-.2-1-.8-1.7-1.6-2.4-.3-.1-.2,0-.2.1h0Z"/>
      <path class="st7" d="M881,465.3l-1.1,2.5c-.6.5-.7,0-.7-.3.2-1,.8-1.7,1.6-2.4.3-.1.2,0,.2.1h0Z"/>
      <rect class="st7" x="884.1" y="461.9" width=".6" height=".7"/>
      <rect class="st7" x="885.2" y="461.9" width=".6" height=".7"/>
      <path class="st7" d="M880.8,470.9h-.8s0-2.7,0-2.7c.8-.2.8-.3,4.8-.4,1.7.1,4.7,0,5,.5v2.6h-.4s-.5-.1-.5-.1v-.4h.2s0-1.6,0-1.6c-.1-.1-.3-.5-.5,0h-.6c-.4-.3-.8-.4-1.2,0h-.5c-.4-.5-.7-.4-1.1,0h-.5c-.8-.6-1,0-1.4,0h-.6c-.2-.2-.4-.2-.7,0h-.6c-.3-.1-.5-.2-.8,0v2s0,0,0,0Z"/>
      <path class="st7" d="M878.4,470.6c0,0,.1,0,.2-.1v-.3c0-.1,0-.2-.2-.3h-.4c0,0-.2,0-.2.2v.4c0,0,0,.1.1.1h.5c0,0,0,0,0,0Z"/>
      <path class="st7" d="M878.5,468.3s0,0-.1,0c0,0,0,0,0,.1,0,0,0,.1,0,.2,0,0,0,.1,0,.2,0,0,0,0,.1.1,0,0,0,0,0,0,0,0,0,0,0,0,0,0,0,0,0,0,0,0,0,0,0-.1,0,0,0-.1,0-.2,0,0,0-.2,0-.2,0,0,0,0,0-.1,0,0,0,0,0,0s0,0-.1,0h0Z"/>
      <path class="st7" d="M878,469.5c0,0,0,.1.1.2h.4v-.3c0,0,0-.1-.1-.1-.1,0-.2,0-.2,0h-.2v.2h0Z"/>
      <path class="st7" d="M877.4,470.5c0,0-.2,0-.2,0h0c0-.1,0-.2,0-.2v-.2c.1,0,.2,0,.2,0v.5Z"/>
      <path class="st7" d="M882.1,469.5c0-.5.4-.2.4,0v1.1c0,.2-.3.4-.4,0v-1.1Z"/>
      <path class="st7" d="M883.8,468.9c0-.3.4-.3.4,0v1.6c0,.2-.3.3-.4,0v-1.6Z"/>
      <path class="st7" d="M885.4,469c0-.3.4-.3.4,0v1.6c0,.3-.3.3-.4,0v-1.6Z"/>
      <path class="st7" d="M887.1,468.9c.1-.2.3-.2.4,0v1.6c0,.2-.3.2-.4,0v-1.6Z"/>
      <path class="st7" d="M882.6,464.4h-.6c0-.2.1-.4.3-.6h.5c-.1.2-.2.4-.2.6Z"/>
      <path class="st7" d="M882.3,465.2h-.7c0-.2.1-.4.3-.6h.6c-.1.2-.2.4-.2.6h0Z"/>
      <path class="st7" d="M881.2,466h.8c0-.2,0-.3.2-.6h-.8c-.2.2-.2.4-.2.6h0Z"/>
      <path class="st7" d="M881.9,466.8c0-.5,0-.4,0-.6h-1c0,.1-.1.4-.2.5h1.1s0,0,0,0Z"/>
      <path class="st7" d="M880.6,467.8h1.2v-.6h-1c0,.3-.1.5-.1.6h0Z"/>
      <path class="st7" d="M887.3,464.4h.6c0-.2-.1-.4-.3-.6h-.5c.1.2.2.4.2.6Z"/>
      <path class="st7" d="M887.6,465.2h.7c0-.2-.1-.4-.3-.6h-.6c.1.2.2.4.2.6h0Z"/>
      <path class="st7" d="M888.7,466h-.8c0-.2,0-.3-.2-.6h.8c.2.2.2.4.2.6h0Z"/>
      <path class="st7" d="M887.9,466.8c0-.5,0-.4,0-.6h1c0,.1.1.4.2.5h-1.1s0,0,0,0Z"/>
      <path class="st7" d="M889.2,467.8h-1.2v-.6h1c0,.3.1.5.1.6h0Z"/>
      <path class="st7" d="M883.5,464.4h-.6c0-.2,0-.4.1-.6h.4s0,.6,0,.6h0Z"/>
      <path class="st7" d="M883.3,465.2h-.6c0-.2,0-.4.2-.6h.5v.6q0,0,0,0Z"/>
      <path class="st7" d="M883.1,465.9h-.7v-.5h.7v.5h0Z"/>
      <path class="st7" d="M883,466.2v.6c-.1,0-.8,0-.8,0,0-.2,0-.5.1-.6h.7Z"/>
      <path class="st7" d="M882.9,467.1v.6s-.7,0-.7,0c0-.2,0-.3,0-.6h.7Z"/>
      <path class="st7" d="M886.3,464.4h.6c0-.2,0-.4-.1-.6h-.4s0,.6,0,.6h0Z"/>
      <path class="st7" d="M886.6,465.2h.6c0-.2,0-.4-.2-.6h-.5v.6q0,0,0,0Z"/>
      <path class="st7" d="M886.7,466h.7v-.5h-.7v.5h0Z"/>
      <path class="st7" d="M886.8,466.2v.6c.1,0,.8,0,.8,0,0-.2,0-.5-.1-.6h-.7Z"/>
      <path class="st7" d="M887,467.1v.6s.7,0,.7,0c0-.2,0-.3,0-.6h-.7Z"/>
      <path class="st7" d="M884.3,464.4h-.5c0-.3,0-.5.1-.6h.4v.6s0,0,0,0Z"/>
      <path class="st7" d="M884.3,465.2h-.7c0-.2,0-.4.1-.6h.6s0,.6,0,.6h0Z"/>
      <path class="st7" d="M884.1,465.9h-.7c0-.2,0-.4,0-.6h.6v.6h0Z"/>
      <path class="st7" d="M884.1,466.8h-.8v-.6h.8v.6h0Z"/>
      <path class="st7" d="M884.1,467.7v-.7h-.8c0,.2,0,.4,0,.6h.8Z"/>
      <path class="st7" d="M885.5,464.5h.5c0-.3,0-.5-.1-.6h-.4v.6s0,0,0,0Z"/>
      <path class="st7" d="M885.6,465.2h.7c0-.2,0-.4-.1-.6h-.6s0,.6,0,.6h0Z"/>
      <path class="st7" d="M885.7,466h.7c0-.2,0-.4,0-.6h-.6v.6h0Z"/>
      <path class="st7" d="M885.7,466.8h.8v-.6h-.8v.6h0Z"/>
      <path class="st7" d="M885.8,467.7v-.7h.8c0,.2,0,.4,0,.6h-.8Z"/>
      <rect class="st7" x="884.7" y="463.8" width=".6" height=".6"/>
      <rect class="st7" x="884.6" y="464.6" width=".7" height=".6"/>
      <rect class="st7" x="884.6" y="465.3" width=".7" height=".6"/>
      <rect class="st7" x="884.5" y="466.1" width=".8" height=".6"/>
      <rect class="st7" x="884.5" y="467" width=".9" height=".6"/>
      <path class="st7" d="M886.6,456.8h1.1c.7,0,1.2,0,1.5,0,.2,0,.5.2.6.3s.2.5.2.9,0,.6-.2.7c-.1.1-.3.2-.7.2.3,0,.5.1.6.2s.2.2.2.3c0,0,0,.3,0,.7v1.2h-1.4v-1.5c0-.2,0-.4,0-.5s-.2,0-.4,0v2.1h-1.5v-4.6h0ZM888.1,457.5v1c.2,0,.3,0,.4,0,0,0,0-.2,0-.4v-.2c0-.1,0-.2,0-.3,0,0-.2,0-.4,0h0Z"/>
      <path class="st7" d="M898.5,456.8v4.5h-1.2v-3.1l-.5,3.1h-.9l-.5-3v3h-1.2v-4.5h1.8c0,.3.1.6.2,1l.2,1.2.3-2.1h1.8,0Z"/>
      <path d="M881.6,456.9l.8,4.5h-1.5v-.8h-.6v.8h-1.6l.8-4.5h2.1ZM880.8,459.8c0-.5-.2-1.1-.2-1.9-.2.9-.2,1.5-.3,1.9h.5Z"/>
      <path d="M872,456.9h1.3c.4,0,.6,0,.8,0s.3.1.4.2.2.2.2.4c0,.1,0,.3,0,.6v.4c0,.3,0,.5,0,.6,0,.1-.2.2-.4.3s-.4.1-.7.1h-.4v1.8h-1.3v-4.5h0ZM873.3,457.7v1.2h0c.1,0,.2,0,.2,0,0,0,0-.2,0-.3v-.4c0-.2,0-.3,0-.3,0,0-.2,0-.3,0h0Z"/>
      <g id="ce">
        <path id="cf" class="st15" d="M796.5,541c0,7.9-6.4,14.3-14.3,14.3s-14.3-6.4-14.3-14.3,6.4-14.3,14.3-14.3,14.3,6.4,14.3,14.3Z"/>
        <path id="cg" class="st7" d="M793.3,541c0,6.2-5,11.2-11.2,11.2s-11.2-5-11.2-11.2,5-11.2,11.2-11.2,11.2,5,11.2,11.2Z"/>
        <path id="ch" class="st15" d="M775.6,542.7v4.4h-2.5v-11.9h2.8c1.1,0,1.9.1,2.4.4.5.3.8.8.8,1.7v3.3c0,.8-.2,1.3-.7,1.7-.4.3-1.4.5-2.8.5h0ZM776.5,540.4v-2.9c0-.4-.3-.6-.9-.6v4.1c.6,0,.9-.2.9-.6h0ZM782.1,542.7v4.4h-2.5v-11.9h2.8c1.1,0,1.9.1,2.4.4.5.3.8.8.8,1.7v3.3c0,.8-.2,1.3-.7,1.7-.4.3-1.4.5-2.8.5h0ZM783,540.4v-2.9c0-.4-.3-.6-.9-.6v4.1c.6,0,.9-.2.9-.6h0ZM786,542.3h2.4v2.7c0,.3.2.4.5.4s.5-.1.5-.4v-1.4c0-.4-.3-.9-.9-1.5-1.1-1.1-1.8-1.8-2.1-2.2-.3-.4-.4-.8-.4-1.2v-1.3c0-1.5,1-2.3,3-2.3s2.7.7,2.7,2.1v2.1h-2.4v-2.2c0-.2-.1-.4-.4-.4s-.5.2-.5.7v.8c0,.4.3,1,.9,1.5,1.1,1,1.8,1.8,2.1,2.2.3.4.4.9.4,1.4v1.5c0,1.6-1,2.4-3,2.4s-2.9-.7-2.9-2.2v-2.7h0Z"/>
      </g>
    </g>
    <g>
      <path id="bg" class="st12" d="M412,62.8c20.1,6.7,34.6,25.6,34.6,47.7s-14.5,41-34.6,47.7V62.8h0Z"/>
      <path id="bh" class="st11" d="M379.9,62.8v95.6c-20.3-6.6-34.9-25.5-34.9-47.8s14.3-40.7,34.1-47.6l.8-.2h0Z"/>
      <polygon id="bi" class="st4" points="411.9 158.4 379.8 158.4 379.8 62.3 411.9 62.3 411.9 158.4"/>
      <polygon id="bj" class="st4" points="431.9 130.9 432 90.5 421.4 90.5 421.4 130.9 431.9 130.9"/>
      <path id="bk" class="st4" d="M353.3,90.5v40.3h10.5v-16h6.6c5.8-1.1,6.4-6,6.4-6v-11.7c-.4-5.6-6.3-6.5-6.3-6.5h-17.2,0ZM364.2,96.8v9.2c3.3,0,3.4-1.9,3.4-1.9v-4.3c.1-3.3-3.4-2.9-3.4-2.9h0Z"/>
      <path id="bl" class="st0" d="M353.3,90.5v40.3h10.5v-16h6.6c5.8-1.1,6.4-6,6.4-6v-11.7c-.4-5.6-6.3-6.5-6.3-6.5h-17.2M364.2,96.8v9.2c3.3,0,3.4-1.9,3.4-1.9v-4.3c.1-3.3-3.4-2.9-3.4-2.9h0Z"/>
      <path id="bm" class="st13" d="M384.3,75.2v40.3h10.5v-17.1c4.6-.2,3.7,3.2,3.7,3.2v13.9h10.7v-15.9c.7-3.2-3.2-5.3-3.2-5.3,3.2-1.8,3-5.6,3-5.6v-7c0-6.8-7.5-6.5-7.5-6.5h-17.2ZM395.1,81.7v9.2c3.3,0,3.4-1.9,3.4-1.9v-4.3c.1-3.3-3.4-2.9-3.4-2.9h0Z"/>
      <path id="bn" class="st0" d="M384.3,75.2v40.3h10.5v-17.1c4.6-.2,3.7,3.2,3.7,3.2v13.9h10.7v-15.9c.7-3.2-3.2-5.3-3.2-5.3,3.2-1.8,3-5.6,3-5.6v-7c0-6.8-7.5-6.5-7.5-6.5h-17.2M395.1,81.7v9.2c3.3,0,3.4-1.9,3.4-1.9v-4.3c.1-3.3-3.4-2.9-3.4-2.9h0Z"/>
    </g>
    <g>
      <path id="bg1" data-name="bg" class="st12" d="M49.7,460.5c5.9,2,10.1,7.5,10.1,13.9s-4.2,12-10.1,13.9v-27.9h0Z"/>
      <path id="bh1" data-name="bh" class="st11" d="M40.3,460.5v27.9c-5.9-1.9-10.2-7.5-10.2-14s4.2-11.9,10-13.9h.2c0,0,0,0,0,0Z"/>
      <polygon id="bi1" data-name="bi" class="st4" points="49.7 488.4 40.3 488.4 40.3 460.3 49.7 460.3 49.7 488.4"/>
      <polygon id="bj1" data-name="bj" class="st4" points="55.5 480.4 55.5 468.6 52.5 468.6 52.5 480.4 55.5 480.4"/>
      <path id="bk1" data-name="bk" class="st4" d="M32.5,468.6v11.8h3.1v-4.7h1.9c1.7-.3,1.9-1.8,1.9-1.8v-3.4c-.1-1.6-1.8-1.9-1.8-1.9h-5,0ZM35.7,470.4v2.7c1,0,1-.6,1-.6v-1.3c0-1-1-.9-1-.9h0Z"/>
      <path id="bl1" data-name="bl" class="st0" d="M32.5,468.6v11.8h3.1v-4.7h1.9c1.7-.3,1.9-1.8,1.9-1.8v-3.4c-.1-1.6-1.8-1.9-1.8-1.9h-5M35.7,470.4v2.7c1,0,1-.6,1-.6v-1.3c0-1-1-.9-1-.9h0Z"/>
      <path id="bm1" data-name="bm" class="st13" d="M41.6,464.1v11.8h3.1v-5c1.4,0,1.1.9,1.1.9v4.1h3.1v-4.6c.2-.9-.9-1.5-.9-1.5.9-.5.9-1.6.9-1.6v-2.1c0-2-2.2-1.9-2.2-1.9h-5ZM44.8,466v2.7c1,0,1-.6,1-.6v-1.3c0-1-1-.9-1-.9h0Z"/>
      <path id="bn1" data-name="bn" class="st0" d="M41.6,464.1v11.8h3.1v-5c1.4,0,1.1.9,1.1.9v4.1h3.1v-4.6c.2-.9-.9-1.5-.9-1.5.9-.5.9-1.6.9-1.6v-2.1c0-2-2.2-1.9-2.2-1.9h-5M44.8,466v2.7c1,0,1-.6,1-.6v-1.3c0-1-1-.9-1-.9h0Z"/>
    </g>
    <g>
      <path id="bg2" data-name="bg" class="st12" d="M786.9,456.7c5.9,2,10.1,7.5,10.1,13.9s-4.2,12-10.1,13.9v-27.9h0Z"/>
      <path id="bh2" data-name="bh" class="st11" d="M777.6,456.7v27.9c-5.9-1.9-10.2-7.5-10.2-14s4.2-11.9,10-13.9h.2c0,0,0,0,0,0Z"/>
      <polygon id="bi2" data-name="bi" class="st4" points="786.9 484.6 777.5 484.6 777.5 456.6 786.9 456.6 786.9 484.6"/>
      <polygon id="bj2" data-name="bj" class="st4" points="792.8 476.6 792.8 464.8 789.7 464.8 789.7 476.6 792.8 476.6"/>
      <path id="bk2" data-name="bk" class="st4" d="M769.8,464.8v11.8h3.1v-4.7h1.9c1.7-.3,1.9-1.8,1.9-1.8v-3.4c-.1-1.6-1.8-1.9-1.8-1.9h-5,0ZM773,466.6v2.7c1,0,1-.6,1-.6v-1.3c0-1-1-.9-1-.9h0Z"/>
      <path id="bl2" data-name="bl" class="st0" d="M769.8,464.8v11.8h3.1v-4.7h1.9c1.7-.3,1.9-1.8,1.9-1.8v-3.4c-.1-1.6-1.8-1.9-1.8-1.9h-5M773,466.6v2.7c1,0,1-.6,1-.6v-1.3c0-1-1-.9-1-.9h0Z"/>
      <path id="bm2" data-name="bm" class="st13" d="M778.8,460.3v11.8h3.1v-5c1.4,0,1.1.9,1.1.9v4.1h3.1v-4.6c.2-.9-.9-1.5-.9-1.5.9-.5.9-1.6.9-1.6v-2.1c0-2-2.2-1.9-2.2-1.9h-5ZM782,462.2v2.7c1,0,1-.6,1-.6v-1.3c0-1-1-.9-1-.9h0Z"/>
      <path id="bn2" data-name="bn" class="st0" d="M778.8,460.3v11.8h3.1v-5c1.4,0,1.1.9,1.1.9v4.1h3.1v-4.6c.2-.9-.9-1.5-.9-1.5.9-.5.9-1.6.9-1.6v-2.1c0-2-2.2-1.9-2.2-1.9h-5M782,462.2v2.7c1,0,1-.6,1-.6v-1.3c0-1-1-.9-1-.9h0Z"/>
    </g>
  </g>
</svg>