<?xml version="1.0" encoding="UTF-8"?>
<svg xmlns="http://www.w3.org/2000/svg" version="1.1" viewBox="0 0 1203.9 737.2">
  <!-- Generator: Adobe Illustrator 30.2.1, SVG Export Plug-In . SVG Version: 2.1.1 Build 1)  -->
  <defs>
    <style>
      .st0, .st1 {
        fill: none;
      }

      .st2 {
        fill: olive;
      }

      .st3 {
        fill: #06338e;
      }

      .st4, .st5, .st6, .st7, .st8, .st9 {
        fill: #fff;
      }

      .st4, .st10, .st11, .st12 {
        fill-rule: evenodd;
      }

      .st5 {
        font-size: 36px;
      }

      .st5, .st13, .st6, .st8, .st9 {
        isolation: isolate;
      }

      .st5, .st6, .st8, .st9 {
        font-family: Helvetica-Bold, Helvetica;
        font-weight: 700;
      }

      .st14 {
        fill: #0957a4;
      }

      .st10 {
        fill: #00923f;
      }

      .st15 {
        fill: #f0f;
      }

      .st11 {
        fill: #d23026;
      }

      .st16 {
        fill: #3fa252;
      }

      .st17 {
        fill: #4da663;
      }

      .st6 {
        font-size: 24px;
      }

      .st12 {
        fill: #131516;
      }

      .st18 {
        fill: #009150;
      }

      .st19 {
        fill: #282828;
      }

      .st8 {
        letter-spacing: 0em;
      }

      .st8, .st9 {
        font-size: 31px;
      }

      .st1 {
        stroke: #000;
        stroke-linecap: square;
        stroke-width: .2px;
      }

      .st20 {
        fill: #05338d;
      }

      .st21 {
        fill: #f2c631;
      }
    </style>
  </defs>
  <g id="Capa_2">
    <g id="Capa_21" data-name="Capa_2">
      <g id="c">
        <rect class="st19" x="-61.1" y="-34.3" width="1323.8" height="795.8"/>
      </g>
    </g>
  </g>
  <g id="b">
    <g id="c1" data-name="c">
      <g class="st13">
        <g class="st13">
          <g class="st13">
            <text class="st9" transform="translate(302 20.7) scale(1.2 1)"><tspan x="0" y="0">Senadores X</tspan></text>
            <text class="st8" transform="translate(519.5 20.7) scale(1.2 1)"><tspan x="0" y="0">L</tspan></text>
            <text class="st9" transform="translate(538.8 20.7) scale(1.2 1)"><tspan x="0" y="0">VIII y XLIX Legislatura</tspan></text>
          </g>
        </g>
      </g>
      <g class="st13">
        <g class="st13">
          <g class="st13">
            <text class="st9" transform="translate(-.7 433.5) scale(1.2 1)"><tspan x="0" y="0">Diputados X</tspan></text>
            <text class="st8" transform="translate(208.7 433.5) scale(1.2 1)"><tspan x="0" y="0">L</tspan></text>
            <text class="st9" transform="translate(228 433.5) scale(1.2 1)"><tspan x="0" y="0">VIII Legislatura</tspan></text>
          </g>
        </g>
      </g>
      <g class="st13">
        <g class="st13">
          <g class="st13">
            <text class="st6" transform="translate(68 481.9)"><tspan x="0" y="0">178</tspan></text>
          </g>
        </g>
      </g>
      <g id="aj">
        <g id="ak">
          <path id="al" class="st20" d="M32.4,490.9h21.3c1.5,0,2.7,1.2,2.7,2.7v21.3c0,1.5-1.2,2.7-2.7,2.7h-21.3c-1.5,0-2.7-1.2-2.7-2.7v-21.3c0-1.5,1.2-2.7,2.7-2.7h0Z"/>
          <g id="am">
            <g id="an">
              <circle id="ao" class="st7" cx="43" cy="504.3" r="12.9"/>
              <circle id="ap" class="st20" cx="43" cy="504.3" r="11.4"/>
              <circle id="aq" class="st7" cx="43" cy="504.3" r="10"/>
            </g>
            <path id="ar" class="st3" d="M37.9,504.1c.3,0,.4-.3.4-.7v-2.4c0-.4-.1-.6-.4-.6h-.9v3.7h.9ZM35.2,510.2v-11.8h4.1c.7,0,1,.9,1,1.8v3.7c0,1-.3,2.1-1.3,2.1h-1.9v4.3h-1.8s0,0,0,0ZM42.1,506.9h1l-.5-2.5-.5,2.5h0ZM41.6,508.6l-.3,1.6h-1.9l2.1-11.8h2.4l2,11.8h-1.9l-.3-1.6h-2.1ZM46.1,510.2v-11.8h1.7l1.2,4.1v-4.1h1.9v11.8h-1.8l-1.1-3.6v3.6s-1.9,0-1.9,0Z"/>
          </g>
        </g>
      </g>
      <g class="st13">
        <g class="st13">
          <g class="st13">
            <text class="st6" transform="translate(68.9 517.8)"><tspan x="0" y="0">20</tspan></text>
          </g>
        </g>
      </g>
      <g class="st13">
        <g class="st13">
          <g class="st13">
            <text class="st6" transform="translate(69 553.1)"><tspan x="0" y="0">10</tspan></text>
          </g>
        </g>
      </g>
      <g class="st13">
        <g class="st13">
          <text class="st5" transform="translate(651.9 237.2)"><tspan x="0" y="0">60</tspan></text>
        </g>
      </g>
      <g id="as">
        <circle class="st18" cx="509.9" cy="229.7" r="10" transform="translate(130.7 640.8) rotate(-71.6)"/>
        <circle class="st18" cx="535" cy="229.7" r="10"/>
        <circle class="st18" cx="560.1" cy="229.7" r="10"/>
        <circle class="st18" cx="585.3" cy="229.7" r="10"/>
        <circle class="st18" cx="514.2" cy="203.1" r="10"/>
        <circle class="st18" cx="539.6" cy="204.7" r="10"/>
        <circle class="st18" cx="565.7" cy="205.1" r="10"/>
        <circle class="st18" cx="522.8" cy="177.6" r="10"/>
        <circle class="st18" cx="593.5" cy="203.3" r="10"/>
        <circle class="st18" cx="548.7" cy="181.1" r="10"/>
        <circle class="st18" cx="576.6" cy="182.4" r="10"/>
        <circle class="st18" cx="535.5" cy="153.9" r="10"/>
        <circle class="st18" cx="562.1" cy="159.4" r="10"/>
        <circle class="st18" cx="552" cy="132.5" r="10"/>
        <circle class="st18" cx="609.5" cy="180.8" r="10"/>
        <circle class="st18" cx="592.3" cy="162.7" r="10"/>
        <circle class="st18" cx="579.2" cy="140.7" r="10"/>
        <circle class="st18" cx="571.8" cy="114.2" r="10"/>
        <circle class="st18" cx="612" cy="147" r="10"/>
        <circle class="st18" cx="599.4" cy="125.3" r="10"/>
        <circle class="st18" cx="594.3" cy="99.4" r="10"/>
        <circle class="st18" cx="631.8" cy="164.4" r="10"/>
        <circle class="st18" cx="622.2" cy="114" r="10"/>
        <circle class="st18" cx="634.7" cy="136" r="10"/>
        <circle class="st18" cx="618.9" cy="88.6" r="10"/>
        <circle class="st18" cx="646.6" cy="107.1" r="10"/>
        <circle class="st18" cx="645" cy="81.9" r="10"/>
        <circle class="st18" cx="658.1" cy="155.8" r="10"/>
        <circle class="st18" cx="659.3" cy="130.4" r="10"/>
        <circle class="st18" cx="671.9" cy="104.7" r="10"/>
        <circle class="st18" cx="671.9" cy="79.7" r="10"/>
        <circle class="st18" cx="684.5" cy="130.4" r="10"/>
        <circle class="st18" cx="685.7" cy="155.8" r="10"/>
        <circle class="st18" cx="698.7" cy="81.9" r="10"/>
        <circle class="st18" cx="697.2" cy="107.1" r="10"/>
        <circle class="st18" cx="724.8" cy="88.6" r="10"/>
        <circle class="st18" cx="709.1" cy="136" r="10"/>
        <circle class="st18" cx="721.6" cy="114" r="10"/>
        <circle class="st18" cx="712" cy="164.4" r="10"/>
        <circle class="st18" cx="749.5" cy="99.4" r="10"/>
        <circle class="st18" cx="744.3" cy="125.3" r="10"/>
        <circle class="st18" cx="731.8" cy="147" r="10"/>
        <circle class="st18" cx="772" cy="114.2" r="10"/>
        <circle class="st18" cx="764.6" cy="140.7" r="10"/>
        <circle class="st18" cx="751.5" cy="162.7" r="10"/>
        <circle class="st18" cx="734.2" cy="180.8" r="10"/>
        <circle class="st18" cx="791.8" cy="132.5" r="10"/>
        <circle class="st18" cx="781.7" cy="159.4" r="10"/>
        <circle class="st18" cx="808.3" cy="153.9" r="10"/>
        <circle class="st18" cx="767.2" cy="182.4" r="10"/>
        <circle class="st18" cx="795" cy="181.1" r="10"/>
        <circle class="st18" cx="750.3" cy="203.3" r="10"/>
        <circle class="st18" cx="821" cy="177.6" r="10"/>
        <circle class="st18" cx="778.1" cy="205.1" r="10"/>
        <circle class="st18" cx="804.2" cy="204.7" r="10"/>
        <circle class="st18" cx="829.6" cy="203.1" r="10"/>
        <circle class="st18" cx="758.5" cy="229.7" r="10"/>
        <circle class="st18" cx="783.7" cy="229.7" r="10"/>
        <circle class="st18" cx="808.8" cy="229.7" r="10"/>
        <circle class="st18" cx="833.9" cy="229.7" r="10"/>
      </g>
      <g class="st13">
        <g class="st13">
          <g class="st13">
            <text class="st6" transform="translate(170.7 482.1)"><tspan x="0" y="0">5</tspan></text>
          </g>
        </g>
      </g>
      <path class="st21" d="M133,453.4h13.7c0,0,.1,0,.1,0v28.9c-.1.5-.1.8-.1.8h-13.7c-.6,0-1-.5-1-1v-27.8c0-.5.4-1,1-1h0Z"/>
      <path class="st16" d="M146.9,453.4h14.1c.5,0,.8.4.8.8v28.1c0,.5-.4.8-.8.8h-14.2,0s0-29.7,0-29.7c0-.5-.3,0,.1,0h0Z"/>
      <path d="M148.3,459.2h-1.6s-1,0-1,0v1.1c-2.9,1.5-4.6,3.7-5.7,6.2l-1,.4v1.3c-.6.8-.9,1.7-.7,2.6h-.8s0,11.6,0,11.6h4.9c0,0,0-8.5,0-8.5,1.6-1.3,3-1.4,4.4-1.5,1.8.1,3.2.8,4.5,1.5l-.2,8.5h5.2s0-11.6,0-11.6h-.4c0-.1,0-2.4,0-2.4l-1.1-1c-1.5-3.4-3.5-6-6.4-7.1v-1.1h0Z"/>
      <rect class="st1" x="132" y="453.4" width="29.9" height="29.8" rx="1" ry="1"/>
      <path class="st7" d="M142,481.2h-3.9s0-9.9,0-9.9h1.4c0-.4,0-.9.2-1.4h.9s0-.5,0-.5c0-.3.3-.3.5-.4v-2.7h.5s0,2.8,0,2.8h10.4v-3.1s.4,0,.4,0v2.9c.1,0,.2,0,.4.3v.6h.4c.3,0,.6.2.7.7v.8s1.5,0,1.5,0v9.6h-4.4s.1-7.1.1-7.1c-1.3-.8-2.7-1.5-4.6-1.6-1.6,0-3.2.4-4.6,1.6v7.4s0,0,0,0Z"/>
      <path class="st7" d="M139,470.8c-.1,0-.2,0-.3,0,0,0-.1-.1-.2-.2,0,0,0-.1,0-.2s0-.1,0-.2c0-.1.1-.3.1-.4,0,0,0,0,0-.1,0,0,0,0,0-.1,0,0,0,0,0,0s0,0,0,0c0,0,0,0,0,0,0,0,0,0,0,0,0,0,0,0,0,0,0,0,0,0,0,0,0,0,0,0,0,0h0c0,0,0-.1,0-.1s0,0,0,0c0,0,0,0,.1,0,0,0,0,0,0,0s0,0,0,0c0,0,0,0,.1,0,0,0,0,0,.1,0,0,0,0,0,.1,0s0,0,0,0c0,0,0,0,0,0,0,0,0,0,0,0,0,0,0,0,.1,0s0,0,.1,0c0,0,.1.1.1.2,0,0,0,0,0,0,0,0,0,0,0,0,0,0,0,0,0,0,0,0,0,0,0,0h0s0,0,0,0c0,0,0,0,0,0h0s0,0,0,0c0,0,0,0,0,0,0,0,0,0,0,0,0,0,0,0,0,0,0,0,0,0,0,0,0,0,0,0,0,0,0,0-.1.1-.2.2,0,0-.1,0-.1.1s0,0-.1.1c0,0,0,.1,0,.2,0,.2,0,.3,0,.5,0,0,0,.1,0,.2,0,0,0,0-.1.1s-.1,0-.2,0h0Z"/>
      <path class="st7" d="M155.3,470.7s-.1,0-.2,0-.1,0-.2,0c-.1,0-.2,0-.3-.1-.1,0-.2-.2-.3-.3,0-.1-.1-.2-.1-.3,0-.1,0-.2,0-.3,0,0-.1-.1-.2-.2,0,0-.2-.1-.3-.2,0,0,0,0-.1,0,0,0,0,0,0-.1,0,0,0,0,0,0,0,0,0,0,0,0h-.1c0,0,0,0,0,0,0,0,0,0,0,0h0c0-.1,0-.1,0-.2,0,0,0,0,0,0,0,0,0,0,0,0,0,0,.1,0,.1,0,0,0,0,0,0,0h0s0,0,0,0c0,0,0,0,0,0,0,0,0,0,0,0h0s0,0,0,0c0,0,0,0,.1,0s.1,0,.1,0c0,0,.2,0,.3,0,0,0,.1,0,.2,0s0,0,.1.1c0,0,0,0,0,0,0,0,0,0,0,0,0,0,0,0,0,0s0,0,0,0c0,0,0,0,0,0h0c0,.2,0,.2,0,.3s0,.1,0,.2c0,0,0,0,0,.1s0,0,0,.1c0,0,0,0,0,0,0,0,0,0,0,0,0,0,0,0,0,0,0,0,.1.1.1.2,0,0,0,.2,0,.2,0,0,0,.2-.2.2h0Z"/>
      <path class="st7" d="M155.2,469.1h.4c0,0,.1,0,.1-.1v-.2s0,0-.1,0h-.3c0,0-.1,0-.1.1v.3h0Z"/>
      <path class="st7" d="M154.4,468.2s.1,0,.1,0h0c0-.2,0-.2,0-.2v-.3c0,0-.2,0-.2,0v.5h0Z"/>
      <path class="st7" d="M153.3,468.3h.5c.1,0,.1-.1.1-.2v-.4c0,0,0-.2-.2-.2h-.4c-.1,0-.2.1-.2.3v.3c0,0,0,.1.1.1h0Z"/>
      <path class="st7" d="M153.4,467.2h.3c.1,0,.1-.1.2-.2h0c0-.2-.1-.2-.2-.3h-.3c-.1,0-.1.1-.1.2v.3s0,0,0,0h0Z"/>
      <path class="st7" d="M153.1,466s-.1,0-.1,0,0,0,0,.1c0,0,0,.1,0,.1s0,.1,0,.1c0,0,0,0,0,.1s0,0,0,0c0,0,.1,0,.1,0,0,0,.1,0,.2,0,0,0,0,0,.1-.1,0,0,0-.1,0-.2s0-.1,0-.2c0,0,0-.1-.1-.2,0,0-.1,0-.1,0h0Z"/>
      <path class="st7" d="M151.1,463l1.1,2.5c.6.5.7,0,.7-.3-.2-1-.8-1.7-1.6-2.4-.3-.1-.2,0-.2.1h0Z"/>
      <path class="st7" d="M143.2,463l-1.1,2.5c-.6.5-.7,0-.7-.3.2-1,.8-1.7,1.6-2.4.3-.1.2,0,.2.1h0Z"/>
      <rect class="st7" x="146.2" y="459.6" width=".6" height=".7"/>
      <rect class="st7" x="147.3" y="459.6" width=".6" height=".7"/>
      <path class="st7" d="M142.9,468.6h-.8s0-2.7,0-2.7c.8-.2.8-.3,4.9-.4,1.7.1,4.7,0,5,.5v2.6h-.4s-.5-.1-.5-.1v-.4h.2s0-1.6,0-1.6c-.1-.1-.4-.5-.5,0h-.6c-.4-.3-.8-.4-1.2,0h-.5c-.4-.5-.7-.4-1.1,0h-.4c-.9-.6-1,0-1.4,0h-.6c-.2-.2-.4-.2-.7,0h-.6c-.3-.1-.6-.2-.8,0v2s0,0,0,0Z"/>
      <path class="st7" d="M140.5,468.3c0,0,.1,0,.2-.1v-.3c0-.1,0-.2-.2-.3h-.4c0,0-.2,0-.2.2v.4c0,0,0,.1.1.1h.5c0,0,0,0,0,0Z"/>
      <path class="st7" d="M140.6,466s0,0-.1,0,0,0,0,.1c0,0,0,.1,0,.2,0,0,0,.1,0,.2,0,0,0,0,.1.1s0,0,.1,0c0,0,0,0,.1,0,0,0,0,0,0,0,0,0,0,0,0-.1,0,0,0-.1,0-.2,0,0,0-.2,0-.2,0,0,0,0,0-.1,0,0,0,0-.1,0s0,0-.1,0h0Z"/>
      <path class="st7" d="M140.1,467.2c0,0,0,.1.1.2h.4v-.3c0,0,0-.1-.1-.1-.1,0-.2,0-.2,0h-.1v.2h0Z"/>
      <path class="st7" d="M139.5,468.2c0,0-.1,0-.2,0h0c0-.1,0-.2,0-.2v-.2c.1,0,.2,0,.2,0v.5Z"/>
      <path class="st7" d="M144.2,467.2c0-.5.4-.2.4,0v1.1c0,.2-.3.4-.4,0v-1.1Z"/>
      <path class="st7" d="M145.9,466.6c0-.3.4-.3.4,0v1.6c-.1.2-.3.3-.4,0v-1.6Z"/>
      <path class="st7" d="M147.5,466.7c0-.3.4-.3.4,0v1.6c0,.3-.3.3-.4,0v-1.6Z"/>
      <path class="st7" d="M149.2,466.6c.1-.2.3-.2.4,0v1.6c0,.2-.3.2-.4,0v-1.6Z"/>
      <path class="st7" d="M144.7,462.1h-.6c0-.2.1-.4.3-.6h.5c-.1.2-.2.4-.2.6Z"/>
      <path class="st7" d="M144.4,462.9h-.7c0-.2.1-.4.3-.6h.6c-.1.2-.2.4-.2.6Z"/>
      <path class="st7" d="M143.3,463.7h.9c0-.2,0-.3.2-.6h-.8c-.2.2-.2.4-.2.6h0Z"/>
      <path class="st7" d="M144,464.5c0-.5,0-.4,0-.6h-1c0,.1-.1.4-.2.5h1.1s0,0,0,0Z"/>
      <path class="st7" d="M142.7,465.4h1.1v-.6h-1c0,.3-.1.5-.1.6Z"/>
      <path class="st7" d="M149.4,462.1h.6c0-.2-.1-.4-.3-.6h-.5c.1.2.2.4.2.6Z"/>
      <path class="st7" d="M149.7,462.9h.7c0-.2-.1-.4-.3-.6h-.6c.1.2.2.4.2.6Z"/>
      <path class="st7" d="M150.8,463.7h-.9c0-.2,0-.3-.2-.6h.8c.2.2.2.4.2.6h0Z"/>
      <path class="st7" d="M150,464.5c0-.5,0-.4,0-.6h1c0,.1.1.4.2.5h-1.1s0,0,0,0Z"/>
      <path class="st7" d="M151.3,465.5h-1.1v-.6h1c0,.3.1.5.1.6Z"/>
      <path class="st7" d="M145.6,462.1h-.6c0-.2,0-.4.1-.6h.4s0,.6,0,.6h0Z"/>
      <path class="st7" d="M145.4,462.9h-.6c0-.2,0-.4.2-.6h.5v.6q0,0,0,0Z"/>
      <path class="st7" d="M145.2,463.6h-.7v-.5h.7v.5h0Z"/>
      <path class="st7" d="M145.1,463.9v.6c-.1,0-.8,0-.8,0,0-.2,0-.5.1-.6h.7,0Z"/>
      <path class="st7" d="M145,464.8v.6s-.7,0-.7,0c0-.2,0-.3,0-.6h.7Z"/>
      <path class="st7" d="M148.4,462.1h.6c0-.2,0-.4-.1-.6h-.4s0,.6,0,.6h0Z"/>
      <path class="st7" d="M148.7,462.9h.6c0-.2,0-.4-.2-.6h-.5v.6q0,0,0,0Z"/>
      <path class="st7" d="M148.8,463.7h.7v-.5h-.7v.5h0Z"/>
      <path class="st7" d="M148.9,463.9v.6c.1,0,.8,0,.8,0,0-.2,0-.5-.1-.6h-.7,0Z"/>
      <path class="st7" d="M149.1,464.8v.6s.7,0,.7,0c0-.2,0-.3,0-.6h-.7Z"/>
      <path class="st7" d="M146.4,462.1h-.6c0-.3,0-.5.1-.6h.4v.6s0,0,0,0Z"/>
      <path class="st7" d="M146.4,462.9h-.6c0-.2,0-.4.1-.6h.6s0,.6,0,.6h0Z"/>
      <path class="st7" d="M146.2,463.6h-.7c0-.2,0-.4,0-.6h.6v.6h0Z"/>
      <path class="st7" d="M146.2,464.4h-.8v-.6h.8v.6h0Z"/>
      <path class="st7" d="M146.2,465.3v-.7h-.8c0,.2,0,.4,0,.6h.8Z"/>
      <path class="st7" d="M147.6,462.1h.6c0-.3,0-.5-.1-.6h-.4v.6s0,0,0,0Z"/>
      <path class="st7" d="M147.7,462.9h.6c0-.2,0-.4-.1-.6h-.6s0,.6,0,.6h0Z"/>
      <path class="st7" d="M147.8,463.7h.7c0-.2,0-.4,0-.6h-.6v.6h0Z"/>
      <path class="st7" d="M147.8,464.5h.8v-.6h-.8v.6h0Z"/>
      <path class="st7" d="M147.9,465.4v-.7h.8c0,.2,0,.4,0,.6h-.8Z"/>
      <rect class="st7" x="146.8" y="461.5" width=".6" height=".6"/>
      <rect class="st7" x="146.7" y="462.3" width=".7" height=".6"/>
      <rect class="st7" x="146.7" y="463" width=".7" height=".6"/>
      <rect class="st7" x="146.6" y="463.8" width=".8" height=".6"/>
      <rect class="st7" x="146.6" y="464.7" width=".9" height=".6"/>
      <path class="st7" d="M148.7,454.4h1.1c.7,0,1.2,0,1.4,0,.2,0,.5.2.6.3.2.2.2.5.2.9s0,.6-.2.7c-.1.1-.3.2-.7.2.3,0,.5.1.6.2s.2.2.2.3c0,0,0,.3,0,.7v1.2h-1.4v-1.5c0-.2,0-.4,0-.5s-.2,0-.4,0v2.1h-1.5v-4.6h0ZM150.2,455.2v1c.2,0,.3,0,.4,0,0,0,.1-.2.1-.4v-.2c0-.1,0-.2-.1-.3,0,0-.2,0-.4,0h0Z"/>
      <path class="st7" d="M160.6,454.5v4.5h-1.2v-3.1l-.5,3.1h-.9l-.5-3v3h-1.2v-4.5h1.8c0,.3.1.6.2,1l.2,1.2.3-2.1h1.8Z"/>
      <path d="M143.7,454.6l.8,4.5h-1.5v-.8h-.6v.8h-1.6l.8-4.5h2.1ZM142.9,457.5c0-.5-.1-1.1-.2-1.9-.1.9-.2,1.5-.3,1.9h.5Z"/>
      <path d="M134.1,454.6h1.3c.4,0,.6,0,.8,0s.3.1.4.2.2.2.2.4c0,.1,0,.3,0,.6v.4c0,.3,0,.5-.1.6,0,.1-.2.2-.4.3s-.4.1-.7.1h-.4v1.8h-1.3v-4.5h0ZM135.4,455.4v1.2h.1c.1,0,.2,0,.2,0,0,0,0-.2,0-.3v-.4c0-.2,0-.3,0-.3,0,0-.2,0-.3,0h0Z"/>
      <g id="at">
        <path id="au" class="st15" d="M58.6,538.7c0,7.9-6.4,14.3-14.3,14.3s-14.4-6.4-14.4-14.3,6.4-14.3,14.4-14.3,14.3,6.4,14.3,14.3Z"/>
        <path id="av" class="st7" d="M55.5,538.7c0,6.2-5,11.2-11.2,11.2s-11.2-5-11.2-11.2,5-11.2,11.2-11.2,11.2,5,11.2,11.2Z"/>
        <path id="aw" class="st15" d="M37.7,540.4v4.4h-2.5v-11.9h2.8c1.1,0,1.9.1,2.4.4.5.3.8.8.8,1.7v3.3c0,.8-.2,1.3-.7,1.7-.4.3-1.4.5-2.8.5h0ZM38.6,538.1v-2.9c0-.4-.3-.6-.9-.6v4.1c.6,0,.9-.2.9-.6h0ZM44.2,540.4v4.4h-2.5v-11.9h2.8c1.1,0,1.9.1,2.4.4.5.3.8.8.8,1.7v3.3c0,.8-.2,1.3-.7,1.7-.4.3-1.4.5-2.8.5h0ZM45.1,538.1v-2.9c0-.4-.3-.6-.9-.6v4.1c.6,0,.9-.2.9-.6h0ZM48.1,540h2.4v2.7c0,.3.2.4.5.4s.5-.1.5-.4v-1.4c0-.4-.3-.9-.9-1.5-1.1-1.1-1.8-1.8-2.1-2.2-.3-.4-.4-.8-.4-1.2v-1.3c0-1.5,1-2.3,3-2.3s2.7.7,2.7,2.1v2.1h-2.4v-2.2c0-.2-.1-.4-.4-.4s-.5.2-.5.7v.8c0,.4.3,1,.9,1.5,1.1,1,1.8,1.8,2.1,2.2.3.4.4.9.4,1.4v1.5c0,1.6-1,2.4-3,2.4s-2.9-.7-2.9-2.2v-2.7h0Z"/>
      </g>
      <g class="st13">
        <g class="st13">
          <g class="st13">
            <text class="st9" transform="translate(736.4 429.9) scale(1.2 1)"><tspan x="0" y="0">Diputados XLIX Legislatura</tspan></text>
          </g>
        </g>
      </g>
      <g class="st13">
        <g class="st13">
          <g class="st13">
            <text class="st6" transform="translate(805.2 478.3)"><tspan x="0" y="0">190</tspan></text>
          </g>
        </g>
      </g>
      <g id="bn">
        <g id="bo">
          <path id="bp" class="st20" d="M769.5,487.4h21.3c1.5,0,2.7,1.2,2.7,2.7v21.3c0,1.5-1.2,2.7-2.7,2.7h-21.3c-1.5,0-2.7-1.2-2.7-2.7v-21.3c0-1.5,1.2-2.7,2.7-2.7h0Z"/>
          <g id="bq">
            <g id="br">
              <circle id="bs" class="st7" cx="780.2" cy="500.8" r="12.9"/>
              <circle id="bt" class="st20" cx="780.2" cy="500.8" r="11.4"/>
              <circle id="bu" class="st7" cx="780.2" cy="500.8" r="10"/>
            </g>
            <path id="bv" class="st3" d="M775.1,500.5c.3,0,.4-.3.4-.7v-2.4c0-.4-.1-.6-.4-.6h-.9v3.7h.9ZM772.3,506.6v-11.8h4.1c.7,0,1,.9,1,1.8v3.7c0,1-.3,2.1-1.3,2.1h-1.9v4.3h-1.8s0,0,0,0ZM779.3,503.3h1l-.5-2.5-.5,2.5h0ZM778.7,505.1l-.3,1.6h-1.9l2.1-11.8h2.4l2,11.8h-1.9l-.3-1.6h-2.1,0ZM783.2,506.6v-11.8h1.7l1.2,4.1v-4.1h1.9v11.8h-1.8l-1.1-3.6v3.6h-1.9Z"/>
          </g>
        </g>
      </g>
      <g class="st13">
        <g class="st13">
          <g class="st13">
            <text class="st6" transform="translate(806.1 514.3)"><tspan x="0" y="0">25</tspan></text>
          </g>
        </g>
      </g>
      <g class="st13">
        <g class="st13">
          <g class="st13">
            <text class="st6" transform="translate(806.2 549.5)"><tspan x="0" y="0">10</tspan></text>
          </g>
        </g>
      </g>
      <g class="st13">
        <g class="st13">
          <g class="st13">
            <text class="st6" transform="translate(907.9 478.5)"><tspan x="0" y="0">7</tspan></text>
          </g>
        </g>
      </g>
      <path class="st21" d="M870.2,449.8h13.7c0,0,0,0,0,0v28.9c-.1.5-.1.8-.1.8h-13.7c-.6,0-1-.5-1-1v-27.8c0-.5.5-1,1-1h0Z"/>
      <path class="st16" d="M884.1,449.8h14.1c.5,0,.8.4.8.8v28.1c0,.5-.4.8-.8.8h-14.2,0s0-29.7,0-29.7c0-.5-.3,0,.1,0h0Z"/>
      <path d="M885.5,455.6h-1.6s-1,0-1,0v1.1c-2.9,1.5-4.6,3.7-5.7,6.2l-1,.4v1.3c-.6.8-.9,1.7-.7,2.6h-.8s0,11.6,0,11.6h4.9c0,0,0-8.5,0-8.5,1.6-1.3,3-1.4,4.4-1.5,1.8.1,3.2.8,4.5,1.5l-.2,8.5h5.2s0-11.6,0-11.6h-.3c0-.1,0-2.4,0-2.4l-1.1-1c-1.5-3.4-3.5-6-6.4-7.1v-1.1h0Z"/>
      <rect class="st1" x="869.2" y="449.8" width="29.8" height="29.8" rx="1" ry="1"/>
      <path class="st7" d="M879.2,477.7h-3.9s0-9.9,0-9.9h1.4c0-.4,0-.9.2-1.4h.9s0-.5,0-.5c0-.3.3-.3.5-.4v-2.7h.5s0,2.8,0,2.8h10.5v-3.1s.4,0,.4,0v2.9c.1,0,.2,0,.4.3v.6h.4c.3,0,.6.2.7.7v.8s1.5,0,1.5,0v9.6h-4.4s.1-7.1.1-7.1c-1.3-.8-2.7-1.5-4.6-1.6-1.6,0-3.2.4-4.6,1.6v7.4s0,0,0,0Z"/>
      <path class="st7" d="M876.2,467.2c0,0-.2,0-.3,0,0,0-.1-.1-.2-.2,0,0,0-.1,0-.2s0-.1,0-.2c0-.1,0-.3.1-.4,0,0,0,0,0-.1,0,0,0,0,0-.1,0,0,0,0,0,0s0,0,0,0c0,0,0,0,0,0,0,0,0,0,0,0,0,0,0,0,0,0,0,0,0,0,0,0,0,0,0,0,0,0h0c0,0,0-.1,0-.1s0,0,0,0c0,0,0,0,0,0,0,0,0,0,0,0s0,0,0,0c0,0,0,0,.1,0,0,0,0,0,.1,0,0,0,0,0,0,0s0,0,0,0c0,0,0,0,0,0,0,0,0,0,0,0,0,0,0,0,.1,0s0,0,.1,0c0,0,.1.1.1.2,0,0,0,0,0,0,0,0,0,0,0,0h0s0,0,0,0h0s0,0,0,0c0,0,0,0,0,0h0s0,0,0,0c0,0,0,0,0,0,0,0,0,0,0,0,0,0,0,0,0,0,0,0,0,0,0,0,0,0,0,0,0,0,0,0-.2.1-.2.2,0,0,0,0-.1.1s0,0-.1.1c0,0,0,.1,0,.2,0,.2,0,.3,0,.5,0,0,0,.1,0,.2,0,0,0,0-.1.1s-.1,0-.2,0h0Z"/>
      <path class="st7" d="M892.5,467.2s-.1,0-.2,0-.1,0-.2,0c0,0-.2,0-.3-.1-.1,0-.2-.2-.3-.3,0-.1-.1-.2-.1-.3,0-.1,0-.2,0-.3,0,0-.1-.1-.2-.2,0,0-.2-.1-.3-.2,0,0,0,0-.1,0,0,0,0,0,0-.1,0,0,0,0,0,0,0,0,0,0,0,0h-.1c0,0,0,0,0,0,0,0,0,0,0,0h0c0-.1,0-.1,0-.2,0,0,0,0,0,0,0,0,0,0,0,0,0,0,0,0,.2,0,0,0,0,0,0,0h0s0,0,0,0c0,0,0,0,0,0,0,0,0,0,0,0h0s0,0,0,0c0,0,0,0,.1,0s0,0,.1,0c0,0,.2,0,.3,0,0,0,.1,0,.2,0s0,0,0,.1c0,0,0,0,0,0,0,0,0,0,0,0,0,0,0,0,0,0s0,0,0,0c0,0,0,0,0,0h0c0,.2,0,.2,0,.3s0,.1,0,.2c0,0,0,0,0,.1s0,0,0,.1h0c0,.1,0,.1,0,.2,0,0,0,0,0,0,0,0,.1.1.1.2,0,0,0,.2,0,.2,0,0,0,.2-.2.2h0Z"/>
      <path class="st7" d="M892.3,465.5h.4c0,0,.1,0,0-.1v-.2s0,0-.1,0h-.3s0,0-.1.1v.3h0Z"/>
      <path class="st7" d="M891.5,464.6s0,0,.1,0h0c0-.2,0-.2,0-.2v-.3c0,0-.2,0-.2,0v.5h0Z"/>
      <path class="st7" d="M890.4,464.7h.5c.1,0,.2-.1.1-.2v-.4c0,0,0-.2-.2-.2h-.4c-.1,0-.2.1-.2.3v.3c0,0,0,.1.1.1h0Z"/>
      <path class="st7" d="M890.6,463.6h.3c.2,0,.1-.1.2-.2h0c0-.2-.1-.2-.2-.3h-.3c0,0-.1.1-.1.2v.3s0,0,0,0h0Z"/>
      <path class="st7" d="M890.2,462.4s0,0-.1,0,0,0,0,.1c0,0,0,.1,0,.1s0,.1,0,.1c0,0,0,0,0,.1s0,0,0,0c0,0,0,0,.2,0,0,0,.1,0,.2,0,0,0,0,0,0-.1,0,0,0-.1,0-.2s0-.1,0-.2c0,0,0-.1-.1-.2,0,0,0,0-.2,0h0Z"/>
      <path class="st7" d="M888.2,459.4l1.1,2.5c.6.5.7,0,.7-.3-.2-1-.8-1.7-1.6-2.4-.3-.1-.2,0-.2.1h0Z"/>
      <path class="st7" d="M880.3,459.4l-1.1,2.5c-.6.5-.7,0-.7-.3.2-1,.8-1.7,1.6-2.4.3-.1.2,0,.2.1h0Z"/>
      <rect class="st7" x="883.3" y="456" width=".6" height=".7"/>
      <rect class="st7" x="884.5" y="456" width=".6" height=".7"/>
      <path class="st7" d="M880,465.1h-.8s0-2.7,0-2.7c.8-.2.8-.3,4.8-.4,1.7.1,4.7,0,5,.5v2.6h-.4s-.5-.1-.5-.1v-.4h.2s0-1.6,0-1.6c-.1-.1-.3-.5-.5,0h-.6c-.4-.3-.8-.4-1.2,0h-.5c-.4-.5-.7-.4-1.1,0h-.5c-.8-.6-1,0-1.4,0h-.6c-.2-.2-.4-.2-.7,0h-.6c-.3-.1-.5-.2-.8,0v2s0,0,0,0Z"/>
      <path class="st7" d="M877.7,464.7c0,0,.1,0,.2-.1v-.3c0-.1,0-.2-.2-.3h-.4c0,0-.2,0-.2.2v.4c0,0,0,.1.1.1h.5c0,0,0,0,0,0Z"/>
      <path class="st7" d="M877.8,462.4s0,0-.1,0c0,0,0,0,0,.1,0,0,0,.1,0,.2,0,0,0,.1,0,.2,0,0,0,0,.1.1,0,0,0,0,0,0,0,0,0,0,0,0,0,0,0,0,0,0,0,0,0,0,0-.1,0,0,0-.1,0-.2,0,0,0-.2,0-.2,0,0,0,0,0-.1,0,0,0,0,0,0s0,0-.1,0h0Z"/>
      <path class="st7" d="M877.3,463.6c0,0,0,.1.1.2h.4v-.3c0,0,0-.1-.1-.1-.1,0-.2,0-.2,0h-.2v.2h0Z"/>
      <path class="st7" d="M876.6,464.6c0,0-.2,0-.2,0h0c0-.1,0-.2,0-.2v-.2c.1,0,.2,0,.2,0v.5Z"/>
      <path class="st7" d="M881.4,463.6c0-.5.4-.2.4,0v1.1c0,.2-.3.4-.4,0v-1.1Z"/>
      <path class="st7" d="M883.1,463.1c0-.3.4-.3.4,0v1.6c0,.2-.3.3-.4,0v-1.6Z"/>
      <path class="st7" d="M884.6,463.1c0-.3.4-.3.4,0v1.6c0,.3-.3.3-.4,0v-1.6Z"/>
      <path class="st7" d="M886.4,463c.1-.2.3-.2.4,0v1.6c0,.2-.3.2-.4,0v-1.6Z"/>
      <path class="st7" d="M881.9,458.5h-.6c0-.2.1-.4.3-.6h.5c-.1.2-.2.4-.2.6Z"/>
      <path class="st7" d="M881.5,459.3h-.7c0-.2.1-.4.3-.6h.6c-.1.2-.2.4-.2.6h0Z"/>
      <path class="st7" d="M880.4,460.1h.8c0-.2,0-.3.2-.6h-.8c-.2.2-.2.4-.2.6h0Z"/>
      <path class="st7" d="M881.2,460.9c0-.5,0-.4,0-.6h-1c0,.1-.1.4-.2.5h1.1s0,0,0,0Z"/>
      <path class="st7" d="M879.9,461.9h1.2v-.6h-1c0,.3-.1.5-.1.6h0Z"/>
      <path class="st7" d="M886.5,458.5h.6c0-.2-.1-.4-.3-.6h-.5c.1.2.2.4.2.6Z"/>
      <path class="st7" d="M886.8,459.3h.7c0-.2-.1-.4-.3-.6h-.6c.1.2.2.4.2.6h0Z"/>
      <path class="st7" d="M887.9,460.1h-.8c0-.2,0-.3-.2-.6h.8c.2.2.2.4.2.6h0Z"/>
      <path class="st7" d="M887.2,461c0-.5,0-.4,0-.6h1c0,.1.1.4.2.5h-1.1s0,0,0,0Z"/>
      <path class="st7" d="M888.5,461.9h-1.2v-.6h1c0,.3.1.5.1.6h0Z"/>
      <path class="st7" d="M882.8,458.5h-.6c0-.2,0-.4.1-.6h.4s0,.6,0,.6h0Z"/>
      <path class="st7" d="M882.6,459.3h-.6c0-.2,0-.4.2-.6h.5v.6q0,0,0,0Z"/>
      <path class="st7" d="M882.4,460.1h-.7v-.5h.7v.5h0Z"/>
      <path class="st7" d="M882.3,460.3v.6c-.1,0-.8,0-.8,0,0-.2,0-.5.1-.6h.7Z"/>
      <path class="st7" d="M882.1,461.2v.6s-.7,0-.7,0c0-.2,0-.3,0-.6h.7Z"/>
      <path class="st7" d="M885.6,458.5h.6c0-.2,0-.4-.1-.6h-.4s0,.6,0,.6h0Z"/>
      <path class="st7" d="M885.8,459.4h.6c0-.2,0-.4-.2-.6h-.5v.6q0,0,0,0Z"/>
      <path class="st7" d="M886,460.1h.7v-.5h-.7v.5h0Z"/>
      <path class="st7" d="M886.1,460.3v.6c.1,0,.8,0,.8,0,0-.2,0-.5-.1-.6h-.7Z"/>
      <path class="st7" d="M886.3,461.2v.6s.7,0,.7,0c0-.2,0-.3,0-.6h-.7Z"/>
      <path class="st7" d="M883.6,458.6h-.5c0-.3,0-.5.1-.6h.4v.6s0,0,0,0Z"/>
      <path class="st7" d="M883.5,459.3h-.7c0-.2,0-.4.1-.6h.6s0,.6,0,.6h0Z"/>
      <path class="st7" d="M883.4,460.1h-.7c0-.2,0-.4,0-.6h.6v.6h0Z"/>
      <path class="st7" d="M883.4,460.9h-.8v-.6h.8v.6h0Z"/>
      <path class="st7" d="M883.4,461.8v-.7h-.8c0,.2,0,.4,0,.6h.8Z"/>
      <path class="st7" d="M884.8,458.6h.5c0-.3,0-.5-.1-.6h-.4v.6s0,0,0,0Z"/>
      <path class="st7" d="M884.8,459.3h.7c0-.2,0-.4-.1-.6h-.6s0,.6,0,.6h0Z"/>
      <path class="st7" d="M885,460.1h.7c0-.2,0-.4,0-.6h-.6v.6h0Z"/>
      <path class="st7" d="M885,460.9h.8v-.6h-.8v.6h0Z"/>
      <path class="st7" d="M885,461.8v-.7h.8c0,.2,0,.4,0,.6h-.8Z"/>
      <rect class="st7" x="883.9" y="458" width=".6" height=".6"/>
      <rect class="st7" x="883.9" y="458.7" width=".7" height=".6"/>
      <rect class="st7" x="883.9" y="459.4" width=".7" height=".6"/>
      <rect class="st7" x="883.8" y="460.2" width=".8" height=".6"/>
      <rect class="st7" x="883.7" y="461.1" width=".9" height=".6"/>
      <path class="st7" d="M885.8,450.9h1.1c.7,0,1.2,0,1.5,0,.2,0,.5.2.6.3s.2.5.2.9,0,.6-.2.7c-.1.1-.3.2-.7.2.3,0,.5.1.6.2s.2.2.2.3c0,0,0,.3,0,.7v1.2h-1.4v-1.5c0-.2,0-.4,0-.5s-.2,0-.4,0v2.1h-1.5v-4.6h0ZM887.4,451.7v1c.2,0,.3,0,.4,0,0,0,0-.2,0-.4v-.2c0-.1,0-.2,0-.3,0,0-.2,0-.4,0h0Z"/>
      <path class="st7" d="M897.8,450.9v4.5h-1.2v-3.1l-.5,3.1h-.9l-.5-3v3h-1.2v-4.5h1.8c0,.3.1.6.2,1l.2,1.2.3-2.1h1.8,0Z"/>
      <path d="M880.8,451l.8,4.5h-1.5v-.8h-.6v.8h-1.6l.8-4.5h2.1ZM880,453.9c0-.5-.2-1.1-.2-1.9-.2.9-.2,1.5-.3,1.9h.5Z"/>
      <path d="M871.3,451h1.3c.4,0,.6,0,.8,0s.3.1.4.2.2.2.2.4c0,.1,0,.3,0,.6v.4c0,.3,0,.5,0,.6,0,.1-.2.2-.4.3s-.4.1-.7.1h-.4v1.8h-1.3v-4.5h0ZM872.6,451.8v1.2h0c.1,0,.2,0,.2,0,0,0,0-.2,0-.3v-.4c0-.2,0-.3,0-.3,0,0-.2,0-.3,0h0Z"/>
      <g id="bw">
        <path id="bx" class="st15" d="M795.8,535.2c0,7.9-6.4,14.3-14.3,14.3s-14.3-6.4-14.3-14.3,6.4-14.3,14.3-14.3,14.3,6.4,14.3,14.3Z"/>
        <path id="by" class="st7" d="M792.6,535.2c0,6.2-5,11.2-11.2,11.2s-11.2-5-11.2-11.2,5-11.2,11.2-11.2,11.2,5,11.2,11.2Z"/>
        <path id="bz" class="st15" d="M774.9,536.8v4.4h-2.5v-11.9h2.8c1.1,0,1.9.1,2.4.4.5.3.8.8.8,1.7v3.3c0,.8-.2,1.3-.7,1.7-.4.3-1.4.5-2.8.5h0ZM775.8,534.5v-2.9c0-.4-.3-.6-.9-.6v4.1c.6,0,.9-.2.9-.6h0ZM781.3,536.8v4.4h-2.5v-11.9h2.8c1.1,0,1.9.1,2.4.4.5.3.8.8.8,1.7v3.3c0,.8-.2,1.3-.7,1.7-.4.3-1.4.5-2.8.5h0ZM782.2,534.5v-2.9c0-.4-.3-.6-.9-.6v4.1c.6,0,.9-.2.9-.6h0ZM785.2,536.5h2.4v2.7c0,.3.2.4.5.4s.5-.1.5-.4v-1.4c0-.4-.3-.9-.9-1.5-1.1-1.1-1.8-1.8-2.1-2.2-.3-.4-.4-.8-.4-1.2v-1.3c0-1.5,1-2.3,3-2.3s2.7.7,2.7,2.1v2.1h-2.4v-2.2c0-.2-.1-.4-.4-.4s-.5.2-.5.7v.8c0,.4.3,1,.9,1.5,1.1,1,1.8,1.8,2.1,2.2.3.4.4.9.4,1.4v1.5c0,1.6-1,2.4-3,2.4s-2.9-.7-2.9-2.2v-2.7h0Z"/>
      </g>
      <g class="st13">
        <text class="st5" transform="translate(241.4 713)"><tspan x="0" y="0">213</tspan></text>
      </g>
      <g id="ca">
        <circle class="st15" cx="102.7" cy="713" r="5"/>
        <circle class="st15" cx="115.2" cy="713" r="5"/>
        <circle class="st15" cx="127.8" cy="713" r="5"/>
        <circle class="st15" cx="140.3" cy="713" r="5"/>
        <circle class="st15" cx="152.8" cy="713" r="5"/>
        <circle class="st15" cx="165.3" cy="713" r="5"/>
        <circle class="st15" cx="177.8" cy="713" r="5"/>
        <circle class="st15" cx="190.3" cy="713" r="5"/>
        <circle class="st15" cx="103.8" cy="698.2" r="5"/>
        <circle class="st15" cx="116.4" cy="698" r="5"/>
      </g>
      <g id="cb">
        <circle class="st2" cx="129" cy="698.3" r="5"/>
        <circle class="st2" cx="141.7" cy="698.2" r="5"/>
        <circle class="st2" cx="154.4" cy="698" r="5"/>
        <circle class="st2" cx="167" cy="698.4" r="5"/>
        <circle class="st2" cx="106.2" cy="683.5" r="5"/>
      </g>
      <g id="cc">
        <circle class="st17" cx="179.8" cy="698.2" r="5"/>
        <circle class="st17" cx="119.1" cy="683.2" r="5"/>
        <circle class="st17" cx="131.8" cy="683.9" r="5"/>
        <circle class="st17" cx="192.7" cy="697.9" r="5"/>
        <circle class="st17" cx="144.8" cy="683.6" r="5"/>
        <circle class="st17" cx="109.9" cy="669.1" r="5"/>
        <circle class="st17" cx="157.9" cy="683.3" r="5"/>
        <circle class="st17" cx="123.1" cy="668.8" r="5"/>
        <circle class="st17" cx="170.7" cy="684.2" r="5"/>
        <circle class="st17" cx="136" cy="669.8" r="5"/>
        <circle class="st17" cx="184.1" cy="683.9" r="5"/>
        <circle class="st17" cx="149.5" cy="669.5" r="5"/>
        <circle class="st17" cx="114.8" cy="655.1" r="5"/>
        <circle class="st17" cx="128.5" cy="654.8" r="5"/>
        <circle class="st17" cx="163.2" cy="669.1" r="5"/>
        <circle class="st17" cx="197.9" cy="683.5" r="5"/>
        <circle class="st17" cx="141.6" cy="656.2" r="5"/>
        <circle class="st17" cx="176.3" cy="670.6" r="5"/>
        <circle class="st17" cx="121" cy="641.6" r="5"/>
        <circle class="st17" cx="155.7" cy="656" r="5"/>
        <circle class="st17" cx="135.3" cy="641.3" r="5"/>
        <circle class="st17" cx="190.6" cy="670.4" r="5"/>
        <circle class="st17" cx="148.6" cy="643.3" r="5"/>
        <circle class="st17" cx="170.3" cy="655.8" r="5"/>
        <circle class="st17" cx="128.3" cy="628.6" r="5"/>
        <circle class="st17" cx="183.8" cy="657.9" r="5"/>
        <circle class="st17" cx="163.5" cy="643.3" r="5"/>
        <circle class="st17" cx="143.3" cy="628.6" r="5"/>
        <circle class="st17" cx="205.6" cy="670.3" r="5"/>
        <circle class="st17" cx="136.7" cy="616.4" r="5"/>
        <circle class="st17" cx="156.9" cy="631.1" r="5"/>
        <circle class="st17" cx="179" cy="643.4" r="5"/>
        <circle class="st17" cx="199.2" cy="658.2" r="5"/>
        <circle class="st17" cx="152.4" cy="616.7" r="5"/>
        <circle class="st17" cx="172.7" cy="631.5" r="5"/>
        <circle class="st17" cx="146.1" cy="604.9" r="5"/>
        <circle class="st17" cx="192.9" cy="646.4" r="5"/>
        <circle class="st17" cx="166.4" cy="619.8" r="5"/>
        <circle class="st17" cx="162.7" cy="605.8" r="5"/>
        <circle class="st17" cx="189.2" cy="632.3" r="5"/>
        <circle class="st17" cx="215.8" cy="658.8" r="5"/>
        <circle class="st17" cx="156.6" cy="594.4" r="5"/>
        <circle class="st17" cx="183.1" cy="620.9" r="5"/>
        <circle class="st17" cx="209.7" cy="647.4" r="5"/>
        <circle class="st17" cx="177" cy="609.6" r="5"/>
        <circle class="st17" cx="203.6" cy="636.2" r="5"/>
        <circle class="st17" cx="174" cy="595.8" r="5"/>
        <circle class="st17" cx="167.9" cy="584.7" r="5"/>
        <circle class="st17" cx="200.8" cy="622.5" r="5"/>
        <circle class="st17" cx="194.7" cy="611.5" r="5"/>
        <circle class="st17" cx="188.5" cy="600.5" r="5"/>
        <circle class="st17" cx="186.2" cy="587" r="5"/>
        <circle class="st17" cx="180" cy="576.1" r="5"/>
        <circle class="st17" cx="227.8" cy="649.4" r="5"/>
        <circle class="st17" cx="221.7" cy="638.5" r="5"/>
        <circle class="st17" cx="215.5" cy="627.6" r="5"/>
        <circle class="st17" cx="201" cy="592.7" r="5"/>
        <circle class="st17" cx="207.2" cy="603.5" r="5"/>
        <circle class="st17" cx="213.5" cy="614.3" r="5"/>
        <circle class="st17" cx="192.8" cy="568.7" r="5"/>
        <circle class="st17" cx="199.1" cy="579.5" r="5"/>
        <circle class="st17" cx="228.5" cy="620.8" r="5"/>
        <circle class="st17" cx="214.2" cy="586.1" r="5"/>
        <circle class="st17" cx="235" cy="631.6" r="5"/>
        <circle class="st17" cx="220.6" cy="597" r="5"/>
        <circle class="st17" cx="206.3" cy="562.3" r="5"/>
        <circle class="st17" cx="212.8" cy="573.2" r="5"/>
        <circle class="st17" cx="227.1" cy="607.8" r="5"/>
        <circle class="st17" cx="241.5" cy="642.5" r="5"/>
        <circle class="st17" cx="220.2" cy="557.2" r="5"/>
        <circle class="st17" cx="227.9" cy="581" r="5"/>
        <circle class="st17" cx="227" cy="568.2" r="5"/>
        <circle class="st17" cx="234.7" cy="592" r="5"/>
        <circle class="st17" cx="242.4" cy="615.8" r="5"/>
        <circle class="st17" cx="241.5" cy="603.1" r="5"/>
        <circle class="st17" cx="249.2" cy="626.9" r="5"/>
        <circle class="st17" cx="234.6" cy="553.3" r="5"/>
        <circle class="st17" cx="242.2" cy="577.2" r="5"/>
        <circle class="st17" cx="241.5" cy="564.6" r="5"/>
        <circle class="st17" cx="256.2" cy="638.2" r="5"/>
        <circle class="st17" cx="249.2" cy="588.6" r="5"/>
        <circle class="st17" cx="256.7" cy="612.8" r="5"/>
        <circle class="st17" cx="249.2" cy="550.7" r="5"/>
        <circle class="st17" cx="256.3" cy="600.2" r="5"/>
        <circle class="st17" cx="256.7" cy="575" r="5"/>
        <circle class="st17" cx="256.4" cy="562.5" r="5"/>
        <circle class="st17" cx="263.9" cy="624.5" r="5"/>
        <circle class="st17" cx="264" cy="587" r="5"/>
        <circle class="st17" cx="264" cy="549.4" r="5"/>
        <circle class="st17" cx="271.4" cy="561.7" r="5"/>
        <circle class="st17" cx="271.4" cy="574.2" r="5"/>
        <circle class="st17" cx="271.4" cy="611.7" r="5"/>
        <circle class="st17" cx="271.4" cy="636.7" r="5"/>
        <circle class="st17" cx="271.4" cy="599.2" r="5"/>
        <circle class="st17" cx="278.8" cy="549.4" r="5"/>
        <circle class="st17" cx="278.9" cy="587" r="5"/>
        <circle class="st17" cx="278.9" cy="624.5" r="5"/>
        <circle class="st17" cx="286.4" cy="562.5" r="5"/>
        <circle class="st17" cx="286.1" cy="575" r="5"/>
        <circle class="st17" cx="286.5" cy="600.2" r="5"/>
        <circle class="st17" cx="293.6" cy="550.7" r="5"/>
        <circle class="st17" cx="286.1" cy="612.8" r="5"/>
        <circle class="st17" cx="293.7" cy="588.6" r="5"/>
        <circle class="st17" cx="286.7" cy="638.2" r="5"/>
        <circle class="st17" cx="301.3" cy="564.6" r="5"/>
        <circle class="st17" cx="300.7" cy="577.2" r="5"/>
        <circle class="st17" cx="308.3" cy="553.3" r="5"/>
        <circle class="st17" cx="293.7" cy="626.9" r="5"/>
        <circle class="st17" cx="301.3" cy="603.1" r="5"/>
        <circle class="st17" cx="300.5" cy="615.8" r="5"/>
        <circle class="st17" cx="308.2" cy="592" r="5"/>
        <circle class="st17" cx="315.9" cy="568.2" r="5"/>
        <circle class="st17" cx="314.9" cy="581" r="5"/>
        <circle class="st17" cx="322.6" cy="557.2" r="5"/>
        <circle class="st17" cx="301.4" cy="642.5" r="5"/>
        <circle class="st17" cx="315.7" cy="607.8" r="5"/>
        <circle class="st17" cx="330.1" cy="573.2" r="5"/>
        <circle class="st17" cx="336.6" cy="562.3" r="5"/>
        <circle class="st17" cx="322.2" cy="597" r="5"/>
        <circle class="st17" cx="307.9" cy="631.6" r="5"/>
        <circle class="st17" cx="328.7" cy="586.1" r="5"/>
        <circle class="st17" cx="314.3" cy="620.8" r="5"/>
        <circle class="st17" cx="343.7" cy="579.5" r="5"/>
        <circle class="st17" cx="350" cy="568.7" r="5"/>
        <circle class="st17" cx="329.3" cy="614.3" r="5"/>
        <circle class="st17" cx="335.6" cy="603.5" r="5"/>
        <circle class="st17" cx="341.8" cy="592.7" r="5"/>
        <circle class="st17" cx="327.3" cy="627.6" r="5"/>
        <circle class="st17" cx="321.1" cy="638.5" r="5"/>
        <circle class="st17" cx="315" cy="649.4" r="5"/>
        <circle class="st17" cx="362.8" cy="576.1" r="5"/>
        <circle class="st17" cx="356.7" cy="587" r="5"/>
        <circle class="st17" cx="354.3" cy="600.5" r="5"/>
        <circle class="st17" cx="348.1" cy="611.5" r="5"/>
        <circle class="st17" cx="342" cy="622.5" r="5"/>
        <circle class="st17" cx="374.9" cy="584.7" r="5"/>
        <circle class="st17" cx="368.8" cy="595.8" r="5"/>
        <circle class="st17" cx="339.3" cy="636.2" r="5"/>
        <circle class="st17" cx="365.9" cy="609.6" r="5"/>
        <circle class="st17" cx="333.1" cy="647.4" r="5"/>
        <circle class="st17" cx="359.7" cy="620.9" r="5"/>
        <circle class="st17" cx="386.3" cy="594.4" r="5"/>
        <circle class="st17" cx="327.1" cy="658.8" r="5"/>
        <circle class="st17" cx="353.6" cy="632.3" r="5"/>
        <circle class="st17" cx="380.1" cy="605.8" r="5"/>
        <circle class="st17" cx="376.4" cy="619.8" r="5"/>
        <circle class="st17" cx="349.9" cy="646.4" r="5"/>
        <circle class="st17" cx="396.7" cy="604.9" r="5"/>
        <circle class="st17" cx="370.2" cy="631.5" r="5"/>
        <circle class="st17" cx="390.4" cy="616.7" r="5"/>
        <circle class="st17" cx="343.6" cy="658.2" r="5"/>
        <circle class="st17" cx="363.8" cy="643.4" r="5"/>
        <circle class="st17" cx="385.9" cy="631.1" r="5"/>
        <circle class="st17" cx="406.2" cy="616.4" r="5"/>
        <circle class="st17" cx="337.2" cy="670.3" r="5"/>
        <circle class="st17" cx="399.6" cy="628.6" r="5"/>
        <circle class="st17" cx="379.3" cy="643.3" r="5"/>
        <circle class="st17" cx="359" cy="657.9" r="5"/>
        <circle class="st17" cx="414.6" cy="628.6" r="5"/>
        <circle class="st17" cx="372.5" cy="655.8" r="5"/>
        <circle class="st17" cx="394.2" cy="643.3" r="5"/>
        <circle class="st17" cx="352.2" cy="670.4" r="5"/>
        <circle class="st17" cx="407.6" cy="641.3" r="5"/>
        <circle class="st17" cx="387.1" cy="656" r="5"/>
        <circle class="st17" cx="421.9" cy="641.6" r="5"/>
        <circle class="st17" cx="366.5" cy="670.6" r="5"/>
        <circle class="st17" cx="401.2" cy="656.2" r="5"/>
        <circle class="st17" cx="345" cy="683.5" r="5"/>
        <circle class="st17" cx="379.6" cy="669.1" r="5"/>
        <circle class="st17" cx="414.3" cy="654.8" r="5"/>
        <circle class="st17" cx="428" cy="655.1" r="5"/>
        <circle class="st17" cx="393.4" cy="669.5" r="5"/>
        <circle class="st17" cx="358.7" cy="683.9" r="5"/>
        <circle class="st17" cx="406.8" cy="669.8" r="5"/>
        <circle class="st17" cx="372.1" cy="684.2" r="5"/>
        <circle class="st17" cx="419.7" cy="668.8" r="5"/>
        <circle class="st17" cx="385" cy="683.3" r="5"/>
        <circle class="st17" cx="432.9" cy="669.1" r="5"/>
      </g>
      <g id="cd">
        <circle class="st14" cx="398.1" cy="683.6" r="5"/>
        <circle class="st14" cx="350.1" cy="697.9" r="5"/>
        <circle class="st14" cx="411.1" cy="683.9" r="5"/>
        <circle class="st14" cx="423.7" cy="683.2" r="5"/>
        <circle class="st14" cx="363" cy="698.2" r="5"/>
        <circle class="st14" cx="436.6" cy="683.5" r="5"/>
        <circle class="st14" cx="375.8" cy="698.4" r="5"/>
        <circle class="st14" cx="388.5" cy="698" r="5"/>
        <circle class="st14" cx="401.2" cy="698.2" r="5"/>
        <circle class="st14" cx="413.8" cy="698.3" r="5"/>
        <circle class="st14" cx="426.4" cy="698" r="5"/>
        <circle class="st14" cx="439" cy="698.2" r="5"/>
        <circle class="st14" cx="352.5" cy="713" r="5"/>
        <circle class="st14" cx="365" cy="713" r="5"/>
        <circle class="st14" cx="377.5" cy="713" r="5"/>
        <circle class="st14" cx="390.1" cy="713" r="5"/>
        <circle class="st14" cx="402.6" cy="713" r="5"/>
        <circle class="st14" cx="415.1" cy="713" r="5"/>
        <circle class="st14" cx="427.6" cy="713" r="5"/>
        <circle class="st14" cx="440.1" cy="713" r="5"/>
      </g>
      <g class="st13">
        <text class="st5" transform="translate(952.5 714)"><tspan x="0" y="0">232</tspan></text>
      </g>
      <g id="ce">
        <circle class="st15" cx="813.5" cy="713.2" r="4.7"/>
        <circle class="st15" cx="825.1" cy="713.2" r="4.7"/>
        <circle class="st15" cx="836.8" cy="713.2" r="4.7"/>
        <circle class="st15" cx="848.5" cy="713.2" r="4.7"/>
        <circle class="st15" cx="860.2" cy="713.2" r="4.7"/>
        <circle class="st15" cx="871.9" cy="713.2" r="4.7"/>
        <circle class="st15" cx="883.5" cy="713.2" r="4.7"/>
        <circle class="st15" cx="895.2" cy="713.2" r="4.7"/>
        <circle class="st15" cx="814.5" cy="699.2" r="4.7"/>
        <circle class="st15" cx="826.3" cy="699.4" r="4.7"/>
      </g>
      <g id="cf">
        <circle class="st2" cx="838" cy="699.3" r="4.7"/>
        <circle class="st2" cx="849.8" cy="699.6" r="4.7"/>
        <circle class="st2" cx="861.7" cy="698.9" r="4.7"/>
        <circle class="st2" cx="873.5" cy="699.3" r="4.7"/>
        <circle class="st2" cx="816.8" cy="685.3" r="4.7"/>
        <circle class="st2" cx="885.4" cy="699" r="4.7"/>
        <circle class="st2" cx="828.6" cy="685.8" r="4.7"/>
      </g>
      <g id="cg">
        <circle class="st18" cx="897.2" cy="699.5" r="4.7"/>
        <circle class="st18" cx="840.6" cy="685.6" r="4.7"/>
        <circle class="st18" cx="852.4" cy="686.2" r="4.7"/>
        <circle class="st18" cx="864.9" cy="684.9" r="4.7"/>
        <circle class="st18" cx="820.1" cy="671.7" r="4.7"/>
        <circle class="st18" cx="832.1" cy="672.5" r="4.7"/>
        <circle class="st18" cx="876.8" cy="685.7" r="4.7"/>
        <circle class="st18" cx="844.4" cy="672.2" r="4.7"/>
        <circle class="st18" cx="889.3" cy="685.3" r="4.7"/>
        <circle class="st18" cx="856.5" cy="673.1" r="4.7"/>
        <circle class="st18" cx="824.6" cy="658.4" r="4.7"/>
        <circle class="st18" cx="901.4" cy="686.3" r="4.7"/>
        <circle class="st18" cx="836.7" cy="659.5" r="4.7"/>
        <circle class="st18" cx="869.7" cy="671.4" r="4.7"/>
        <circle class="st18" cx="849.5" cy="659.2" r="4.7"/>
        <circle class="st18" cx="881.9" cy="672.6" r="4.7"/>
        <circle class="st18" cx="830.2" cy="645.5" r="4.7"/>
        <circle class="st18" cx="861.8" cy="660.6" r="4.7"/>
        <circle class="st18" cx="842.5" cy="646.9" r="4.7"/>
        <circle class="st18" cx="895.1" cy="672.3" r="4.7"/>
        <circle class="st18" cx="876" cy="658.5" r="4.7"/>
        <circle class="st18" cx="855.9" cy="646.8" r="4.7"/>
        <circle class="st18" cx="836.8" cy="633.1" r="4.7"/>
        <circle class="st18" cx="907.6" cy="673.9" r="4.7"/>
        <circle class="st18" cx="868.3" cy="648.6" r="4.7"/>
        <circle class="st18" cx="888.6" cy="660.3" r="4.7"/>
        <circle class="st18" cx="849.3" cy="635" r="4.7"/>
        <circle class="st18" cx="863.3" cy="635" r="4.7"/>
        <circle class="st18" cx="844.4" cy="621.3" r="4.7"/>
        <circle class="st18" cx="883.8" cy="646.5" r="4.7"/>
        <circle class="st18" cx="902.7" cy="660.2" r="4.7"/>
        <circle class="st18" cx="857.2" cy="623.6" r="4.7"/>
        <circle class="st18" cx="876.1" cy="637.3" r="4.7"/>
        <circle class="st18" cx="896.7" cy="648.9" r="4.7"/>
        <circle class="st18" cx="853" cy="610.2" r="4.7"/>
        <circle class="st18" cx="915.6" cy="662.6" r="4.7"/>
        <circle class="st18" cx="871.9" cy="624" r="4.7"/>
        <circle class="st18" cx="866" cy="613" r="4.7"/>
        <circle class="st18" cx="893" cy="635.5" r="4.7"/>
        <circle class="st18" cx="884.9" cy="627" r="4.7"/>
        <circle class="st18" cx="912" cy="649.4" r="4.7"/>
        <circle class="st18" cx="862.5" cy="599.8" r="4.7"/>
        <circle class="st18" cx="881.5" cy="613.9" r="4.7"/>
        <circle class="st18" cx="906.3" cy="638.6" r="4.7"/>
        <circle class="st18" cx="875.8" cy="603.2" r="4.7"/>
        <circle class="st18" cx="894.8" cy="617.5" r="4.7"/>
        <circle class="st18" cx="925.3" cy="652.8" r="4.7"/>
        <circle class="st18" cx="872.8" cy="590.3" r="4.7"/>
        <circle class="st18" cx="903.3" cy="625.6" r="4.7"/>
        <circle class="st18" cx="892" cy="604.7" r="4.7"/>
        <circle class="st18" cx="886.3" cy="594.3" r="4.7"/>
        <circle class="st18" cx="922.7" cy="639.9" r="4.7"/>
        <circle class="st18" cx="917" cy="629.6" r="4.7"/>
        <circle class="st18" cx="883.9" cy="581.6" r="4.7"/>
        <circle class="st18" cx="905.6" cy="609.1" r="4.7"/>
        <circle class="st18" cx="914.8" cy="616.9" r="4.7"/>
        <circle class="st18" cx="903.3" cy="596.6" r="4.7"/>
        <circle class="st18" cx="897.6" cy="586.4" r="4.7"/>
        <circle class="st18" cx="936.5" cy="644.6" r="4.7"/>
        <circle class="st18" cx="895.6" cy="573.9" r="4.7"/>
        <circle class="st18" cx="917.1" cy="601.9" r="4.7"/>
        <circle class="st18" cx="928.8" cy="622.1" r="4.7"/>
        <circle class="st18" cx="934.6" cy="632.2" r="4.7"/>
        <circle class="st18" cx="909.5" cy="579.5" r="4.7"/>
        <circle class="st18" cx="915.4" cy="589.6" r="4.7"/>
        <circle class="st18" cx="927.2" cy="609.7" r="4.7"/>
        <circle class="st18" cx="907.9" cy="567.2" r="4.7"/>
        <circle class="st18" cx="929.4" cy="595.8" r="4.7"/>
        <circle class="st18" cx="948.8" cy="638.3" r="4.7"/>
        <circle class="st18" cx="922" cy="573.6" r="4.7"/>
        <circle class="st18" cx="928.1" cy="583.7" r="4.7"/>
        <circle class="st18" cx="941.5" cy="616.1" r="4.7"/>
        <circle class="st18" cx="920.8" cy="561.5" r="4.7"/>
        <circle class="st18" cx="947.6" cy="626.2" r="4.7"/>
        <circle class="st18" cx="940.4" cy="604" r="4.7"/>
        <circle class="st18" cx="935" cy="568.9" r="4.7"/>
        <circle class="st18" cx="942.2" cy="591.1" r="4.7"/>
        <circle class="st18" cx="934.1" cy="556.9" r="4.7"/>
        <circle class="st18" cx="941.2" cy="579.1" r="4.7"/>
        <circle class="st18" cx="954.8" cy="611.7" r="4.7"/>
        <circle class="st18" cx="961.9" cy="634" r="4.7"/>
        <circle class="st18" cx="954.1" cy="599.9" r="4.7"/>
        <circle class="st18" cx="948.3" cy="565.3" r="4.7"/>
        <circle class="st18" cx="961.3" cy="622.2" r="4.7"/>
        <circle class="st18" cx="947.7" cy="553.5" r="4.7"/>
        <circle class="st18" cx="955.4" cy="587.6" r="4.7"/>
        <circle class="st18" cx="954.8" cy="575.8" r="4.7"/>
        <circle class="st18" cx="961.9" cy="562.9" r="4.7"/>
        <circle class="st18" cx="968.6" cy="609.1" r="4.7"/>
        <circle class="st18" cx="961.5" cy="551.2" r="4.7"/>
        <circle class="st18" cx="968.2" cy="597.4" r="4.7"/>
        <circle class="st18" cx="968.9" cy="585.5" r="4.7"/>
        <circle class="st18" cx="968.6" cy="573.8" r="4.7"/>
        <circle class="st18" cx="975.6" cy="631.8" r="4.7"/>
        <circle class="st18" cx="975.4" cy="620.1" r="4.7"/>
        <circle class="st18" cx="975.6" cy="561.7" r="4.7"/>
        <circle class="st18" cx="975.5" cy="550" r="4.7"/>
        <circle class="st18" cx="982.5" cy="596.5" r="4.7"/>
        <circle class="st18" cx="982.5" cy="584.8" r="4.7"/>
        <circle class="st18" cx="982.5" cy="573.2" r="4.7"/>
        <circle class="st18" cx="982.5" cy="608.2" r="4.7"/>
        <circle class="st18" cx="989.6" cy="550" r="4.7"/>
        <circle class="st18" cx="989.4" cy="561.7" r="4.7"/>
        <circle class="st18" cx="989.7" cy="620.1" r="4.7"/>
        <circle class="st18" cx="989.5" cy="631.8" r="4.7"/>
        <circle class="st18" cx="996.5" cy="573.8" r="4.7"/>
        <circle class="st18" cx="996.2" cy="585.5" r="4.7"/>
        <circle class="st18" cx="996.9" cy="597.4" r="4.7"/>
        <circle class="st18" cx="1003.6" cy="551.2" r="4.7"/>
        <circle class="st18" cx="996.5" cy="609.1" r="4.7"/>
        <circle class="st18" cx="1003.2" cy="562.9" r="4.7"/>
        <circle class="st18" cx="1010.3" cy="575.8" r="4.7"/>
        <circle class="st18" cx="1009.7" cy="587.6" r="4.7"/>
        <circle class="st18" cx="1017.4" cy="553.5" r="4.7"/>
        <circle class="st18" cx="1003.8" cy="622.2" r="4.7"/>
        <circle class="st18" cx="1016.8" cy="565.3" r="4.7"/>
        <circle class="st18" cx="1011" cy="599.9" r="4.7"/>
        <circle class="st18" cx="1003.1" cy="634" r="4.7"/>
        <circle class="st18" cx="1010.3" cy="611.7" r="4.7"/>
        <circle class="st18" cx="1023.8" cy="579.1" r="4.7" transform="translate(288.2 1497) rotate(-80.8)"/>
        <circle class="st18" cx="1031" cy="556.9" r="4.7"/>
        <circle class="st18" cx="1022.9" cy="591.1" r="4.7" transform="translate(275.6 1506.1) rotate(-80.8)"/>
        <circle class="st18" cx="1030.1" cy="568.9" r="4.7"/>
        <circle class="st18" cx="1024.7" cy="604" r="4.7" transform="translate(264.4 1518.7) rotate(-80.8)"/>
        <circle class="st18" cx="1017.5" cy="626.2" r="4.7"/>
        <circle class="st18" cx="1044.3" cy="561.5" r="4.7"/>
        <circle class="st18" cx="1023.6" cy="616.1" r="4.7" transform="translate(251.5 1527.8) rotate(-80.8)"/>
        <circle class="st18" cx="1037" cy="583.7" r="4.7"/>
        <circle class="st18" cx="1043.1" cy="573.6" r="4.7"/>
        <circle class="st18" cx="1016.3" cy="638.3" r="4.7"/>
        <circle class="st18" cx="1035.7" cy="595.8" r="4.7"/>
        <circle class="st18" cx="1057.1" cy="567.2" r="4.7"/>
        <circle class="st18" cx="1037.9" cy="609.7" r="4.7"/>
        <circle class="st18" cx="1049.7" cy="589.6" r="4.7"/>
        <circle class="st18" cx="1055.5" cy="579.5" r="4.7"/>
        <circle class="st18" cx="1030.4" cy="632.2" r="4.7"/>
        <circle class="st18" cx="1036.3" cy="622.1" r="4.7"/>
        <circle class="st18" cx="1047.9" cy="601.9" r="4.7"/>
        <circle class="st18" cx="1069.5" cy="573.9" r="4.7"/>
        <circle class="st18" cx="1028.6" cy="644.6" r="4.7"/>
        <circle class="st18" cx="1067.5" cy="586.4" r="4.7"/>
        <circle class="st18" cx="1061.8" cy="596.6" r="4.7" transform="translate(302.8 1549.1) rotate(-80.8)"/>
        <circle class="st18" cx="1050.3" cy="616.9" r="4.7"/>
        <circle class="st18" cx="1059.5" cy="609.2" r="4.7" transform="translate(288.5 1557.4) rotate(-80.8)"/>
        <circle class="st18" cx="1081.2" cy="581.6" r="4.7"/>
        <circle class="st18" cx="1048.1" cy="629.6" r="4.7"/>
        <circle class="st18" cx="1042.4" cy="639.9" r="4.7"/>
        <circle class="st18" cx="1078.8" cy="594.3" r="4.7"/>
        <circle class="st18" cx="1073.1" cy="604.7" r="4.7"/>
        <circle class="st18" cx="1061.8" cy="625.6" r="4.7" transform="translate(274.1 1573.4) rotate(-80.8)"/>
        <circle class="st18" cx="1092.3" cy="590.3" r="4.7"/>
        <circle class="st18" cx="1039.7" cy="652.8" r="4.7"/>
        <circle class="st18" cx="1070.3" cy="617.5" r="4.7"/>
        <circle class="st18" cx="1089.3" cy="603.2" r="4.7"/>
        <circle class="st18" cx="1058.9" cy="638.7" r="4.7" transform="translate(258.8 1581.5) rotate(-80.8)"/>
        <circle class="st18" cx="1083.6" cy="613.9" r="4.7"/>
        <circle class="st18" cx="1102.6" cy="599.8" r="4.7"/>
        <circle class="st18" cx="1053.1" cy="649.4" r="4.7"/>
        <circle class="st18" cx="1080.1" cy="627" r="4.7"/>
        <circle class="st18" cx="1072.1" cy="635.5" r="4.7"/>
        <circle class="st18" cx="1099" cy="613" r="4.7"/>
        <circle class="st18" cx="1093.2" cy="624" r="4.7"/>
        <circle class="st18" cx="1049.5" cy="662.6" r="4.7"/>
        <circle class="st18" cx="1112" cy="610.2" r="4.7"/>
        <circle class="st18" cx="1068.4" cy="648.9" r="4.7"/>
        <circle class="st18" cx="1089" cy="637.3" r="4.7"/>
        <circle class="st18" cx="1107.9" cy="623.6" r="4.7"/>
        <circle class="st18" cx="1062.4" cy="660.2" r="4.7" transform="translate(240.5 1603.2) rotate(-80.8)"/>
        <circle class="st18" cx="1081.3" cy="646.5" r="4.7"/>
        <circle class="st18" cx="1120.6" cy="621.3" r="4.7"/>
        <circle class="st18" cx="1101.7" cy="635" r="4.7"/>
        <circle class="st18" cx="1115.7" cy="635" r="4.7"/>
        <circle class="st18" cx="1076.5" cy="660.3" r="4.7"/>
        <circle class="st18" cx="1096.7" cy="648.6" r="4.7"/>
        <circle class="st18" cx="1057.5" cy="673.9" r="4.7" transform="translate(222.9 1609.9) rotate(-80.8)"/>
        <circle class="st18" cx="1128.3" cy="633.1" r="4.7"/>
        <circle class="st18" cx="1109.2" cy="646.8" r="4.7"/>
        <circle class="st18" cx="1089.1" cy="658.5" r="4.7"/>
        <circle class="st18" cx="1070" cy="672.3" r="4.7"/>
        <circle class="st18" cx="1122.6" cy="646.9" r="4.7"/>
        <circle class="st18" cx="1103.3" cy="660.6" r="4.7"/>
        <circle class="st18" cx="1134.9" cy="645.5" r="4.7"/>
        <circle class="st18" cx="1083.2" cy="672.6" r="4.7"/>
        <circle class="st18" cx="1115.5" cy="659.2" r="4.7"/>
        <circle class="st18" cx="1095.4" cy="671.4" r="4.7"/>
        <circle class="st18" cx="1128.4" cy="659.5" r="4.7"/>
        <circle class="st18" cx="1063.7" cy="686.3" r="4.7"/>
        <circle class="st18" cx="1140.5" cy="658.4" r="4.7"/>
        <circle class="st18" cx="1108.6" cy="673.1" r="4.7"/>
        <circle class="st18" cx="1075.8" cy="685.3" r="4.7"/>
      </g>
      <g id="ch">
        <circle class="st20" cx="1120.6" cy="672.2" r="4.7"/>
        <circle class="st20" cx="1088.2" cy="685.7" r="4.7"/>
        <circle class="st20" cx="1133" cy="672.5" r="4.7"/>
        <circle class="st20" cx="1144.9" cy="671.7" r="4.7"/>
        <circle class="st20" cx="1100.2" cy="684.9" r="4.7"/>
        <circle class="st20" cx="1112.6" cy="686.2" r="4.7"/>
        <circle class="st20" cx="1124.5" cy="685.6" r="4.7"/>
        <circle class="st20" cx="1067.8" cy="699.5" r="4.7"/>
        <circle class="st20" cx="1136.5" cy="685.8" r="4.7"/>
        <circle class="st20" cx="1079.7" cy="699" r="4.7"/>
        <circle class="st20" cx="1148.3" cy="685.3" r="4.7"/>
        <circle class="st20" cx="1091.6" cy="699.3" r="4.7"/>
        <circle class="st20" cx="1103.4" cy="698.9" r="4.7"/>
        <circle class="st20" cx="1115.3" cy="699.6" r="4.7"/>
        <circle class="st20" cx="1127" cy="699.3" r="4.7"/>
        <circle class="st20" cx="1138.8" cy="699.4" r="4.7"/>
        <circle class="st20" cx="1150.5" cy="699.2" r="4.7"/>
        <circle class="st20" cx="1069.8" cy="713.2" r="4.7"/>
        <circle class="st20" cx="1081.5" cy="713.2" r="4.7"/>
        <circle class="st20" cx="1093.2" cy="713.2" r="4.7"/>
        <circle class="st20" cx="1104.9" cy="713.2" r="4.7"/>
        <circle class="st20" cx="1116.6" cy="713.2" r="4.7"/>
        <circle class="st20" cx="1128.3" cy="713.2" r="4.7"/>
        <circle class="st20" cx="1139.9" cy="713.2" r="4.7"/>
        <circle class="st20" cx="1151.6" cy="713.2" r="4.7"/>
      </g>
      <g>
        <path id="bg" class="st11" d="M786.3,450.9c5.9,2,10.2,7.5,10.2,14s-4.3,12.1-10.2,14v-28.1h0Z"/>
        <path id="bh" class="st10" d="M776.9,450.8v28.1c-6-1.9-10.2-7.5-10.2-14.1s4.2-12,10-14h.2c0,0,0,0,0,0Z"/>
        <polygon id="bi" class="st4" points="786.3 478.9 776.8 478.9 776.8 450.7 786.3 450.7 786.3 478.9"/>
        <polygon id="bj" class="st4" points="792.1 470.9 792.1 459 789.1 459 789.1 470.9 792.1 470.9"/>
        <path id="bk" class="st4" d="M769,459v11.8h3.1v-4.7h1.9c1.7-.3,1.9-1.8,1.9-1.8v-3.4c-.1-1.7-1.8-1.9-1.8-1.9h-5.1,0ZM772.2,460.9v2.7c1,0,1-.6,1-.6v-1.3c0-1-1-.9-1-.9h0Z"/>
        <path id="bl" class="st0" d="M769,459v11.8h3.1v-4.7h1.9c1.7-.3,1.9-1.8,1.9-1.8v-3.4c-.1-1.7-1.8-1.9-1.8-1.9h-5.1M772.2,460.9v2.7c1,0,1-.6,1-.6v-1.3c0-1-1-.9-1-.9h0Z"/>
        <path id="bm" class="st12" d="M778.1,454.5v11.8h3.1v-5c1.4,0,1.1.9,1.1.9v4.1h3.1v-4.7c.2-.9-.9-1.6-.9-1.6.9-.5.9-1.7.9-1.7v-2.1c0-2-2.2-1.9-2.2-1.9h-5.1ZM781.3,456.4v2.7c1,0,1-.6,1-.6v-1.3c0-1-1-.9-1-.9h0Z"/>
        <path id="bn1" data-name="bn" class="st0" d="M778.1,454.5v11.8h3.1v-5c1.4,0,1.1.9,1.1.9v4.1h3.1v-4.7c.2-.9-.9-1.6-.9-1.6.9-.5.9-1.7.9-1.7v-2.1c0-2-2.2-1.9-2.2-1.9h-5.1M781.3,456.4v2.7c1,0,1-.6,1-.6v-1.3c0-1-1-.9-1-.9h0Z"/>
      </g>
    </g>
    <g>
      <path id="bg1" data-name="bg" class="st11" d="M411.3,56.5c20.1,6.7,34.6,25.6,34.6,47.7s-14.5,41-34.6,47.7V56.5h0Z"/>
      <path id="bh1" data-name="bh" class="st10" d="M379.2,56.5v95.6c-20.3-6.6-34.9-25.5-34.9-47.8s14.3-40.7,34.1-47.6l.8-.2h0Z"/>
      <polygon id="bi1" data-name="bi" class="st4" points="411.3 152.1 379.1 152.1 379.1 56.1 411.3 56.1 411.3 152.1"/>
      <polygon id="bj1" data-name="bj" class="st4" points="431.2 124.6 431.3 84.3 420.8 84.3 420.8 124.6 431.2 124.6"/>
      <path id="bk1" data-name="bk" class="st4" d="M352.6,84.3v40.3h10.5v-16h6.6c5.8-1.1,6.4-6,6.4-6v-11.7c-.4-5.6-6.3-6.5-6.3-6.5h-17.2,0ZM363.5,90.6v9.2c3.3,0,3.4-1.9,3.4-1.9v-4.3c.1-3.3-3.4-2.9-3.4-2.9h0Z"/>
      <path id="bl1" data-name="bl" class="st0" d="M352.6,84.3v40.3h10.5v-16h6.6c5.8-1.1,6.4-6,6.4-6v-11.7c-.4-5.6-6.3-6.5-6.3-6.5h-17.2M363.5,90.6v9.2c3.3,0,3.4-1.9,3.4-1.9v-4.3c.1-3.3-3.4-2.9-3.4-2.9h0Z"/>
      <path id="bm1" data-name="bm" class="st12" d="M383.6,68.9v40.3h10.5v-17.1c4.6-.2,3.7,3.2,3.7,3.2v13.9h10.7v-15.9c.7-3.2-3.2-5.3-3.2-5.3,3.2-1.8,3-5.6,3-5.6v-7c0-6.8-7.5-6.5-7.5-6.5h-17.2ZM394.4,75.4v9.2c3.3,0,3.4-1.9,3.4-1.9v-4.3c.1-3.3-3.4-2.9-3.4-2.9h0Z"/>
      <path id="bn2" data-name="bn" class="st0" d="M383.6,68.9v40.3h10.5v-17.1c4.6-.2,3.7,3.2,3.7,3.2v13.9h10.7v-15.9c.7-3.2-3.2-5.3-3.2-5.3,3.2-1.8,3-5.6,3-5.6v-7c0-6.8-7.5-6.5-7.5-6.5h-17.2M394.4,75.4v9.2c3.3,0,3.4-1.9,3.4-1.9v-4.3c.1-3.3-3.4-2.9-3.4-2.9h0Z"/>
    </g>
    <g>
      <path id="bg2" data-name="bg" class="st11" d="M48.9,454.4c5.7,2,9.8,7.5,9.8,14s-4.1,12-9.8,14v-28h0Z"/>
      <path id="bh2" data-name="bh" class="st10" d="M39.8,454.4v28c-5.7-1.9-9.8-7.5-9.8-14s4-11.9,9.6-13.9h.2c0,0,0,0,0,0Z"/>
      <polygon id="bi2" data-name="bi" class="st4" points="48.8 482.4 39.8 482.4 39.8 454.3 48.8 454.3 48.8 482.4"/>
      <polygon id="bj2" data-name="bj" class="st4" points="54.5 474.3 54.5 462.5 51.5 462.5 51.5 474.3 54.5 474.3"/>
      <path id="bk2" data-name="bk" class="st4" d="M32.3,462.5v11.8h3v-4.7h1.9c1.6-.3,1.8-1.8,1.8-1.8v-3.4c-.1-1.6-1.8-1.9-1.8-1.9h-4.9,0ZM35.4,464.4v2.7c.9,0,1-.6,1-.6v-1.3c0-1-1-.9-1-.9h0Z"/>
      <path id="bl2" data-name="bl" class="st0" d="M32.3,462.5v11.8h3v-4.7h1.9c1.6-.3,1.8-1.8,1.8-1.8v-3.4c-.1-1.6-1.8-1.9-1.8-1.9h-4.9M35.4,464.4v2.7c.9,0,1-.6,1-.6v-1.3c0-1-1-.9-1-.9h0Z"/>
      <path id="bm2" data-name="bm" class="st12" d="M41,458v11.8h3v-5c1.3,0,1.1.9,1.1.9v4.1h3v-4.6c.2-.9-.9-1.5-.9-1.5.9-.5.9-1.6.9-1.6v-2.1c0-2-2.1-1.9-2.1-1.9h-4.9ZM44.1,459.9v2.7c.9,0,1-.6,1-.6v-1.3c0-1-1-.9-1-.9h0Z"/>
      <path id="bn3" data-name="bn" class="st0" d="M41,458v11.8h3v-5c1.3,0,1.1.9,1.1.9v4.1h3v-4.6c.2-.9-.9-1.5-.9-1.5.9-.5.9-1.6.9-1.6v-2.1c0-2-2.1-1.9-2.1-1.9h-4.9M44.1,459.9v2.7c.9,0,1-.6,1-.6v-1.3c0-1-1-.9-1-.9h0Z"/>
    </g>
  </g>
</svg>