<?xml version="1.0" encoding="UTF-8"?><svg id="b" xmlns="http://www.w3.org/2000/svg" viewBox="0 0 1269.31 730.5"><g id="c"><g id="d"><g isolation="isolate"><text transform="translate(302.78 26.61) scale(1.16 1)" fill="#fff" font-family="Helvetica-Bold, Helvetica" font-size="30.95" font-weight="700" isolation="isolate"><tspan x="0" y="0">Senadores XXXVI y XXXVII Legislatura</tspan></text></g><g isolation="isolate"><text transform="translate(0 439.39) scale(1.16 1)" fill="#fff" font-family="Helvetica-Bold, Helvetica" font-size="30.95" font-weight="700" isolation="isolate"><tspan x="0" y="0" xml:space="preserve">Diputados XXXVI  Legislatura</tspan></text></g><g isolation="isolate"><text transform="translate(189.95 704.63)" fill="#fff" font-family="Helvetica-Bold, Helvetica" font-size="48.59" font-weight="700" isolation="isolate"><tspan x="0" y="0">173</tspan></text></g><g id="e"><circle cx="10.86" cy="703.68" r="7.71" transform="translate(-14.12 .36) rotate(-1.15)" fill="#4da663"/><circle cx="30.09" cy="703.68" r="7.71" fill="#4da663"/><circle cx="49.39" cy="703.68" r="7.71" fill="#4da663"/><circle cx="68.69" cy="703.68" r="7.71" fill="#4da663"/><circle cx="87.99" cy="703.68" r="7.71" fill="#4da663"/><circle cx="107.31" cy="703.68" r="7.71" fill="#4da663"/><circle cx="126.63" cy="703.68" r="7.71" fill="#4da663"/><circle cx="12.58" cy="682" r="7.71" fill="#4da663"/><circle cx="32.07" cy="681.85" r="7.71" fill="#4da663"/><circle cx="51.47" cy="682.48" r="7.71" fill="#4da663"/><circle cx="71.03" cy="682.38" r="7.71" fill="#4da663"/><circle cx="90.66" cy="682.24" r="7.71" fill="#4da663"/><circle cx="16.5" cy="660.58" r="7.71" transform="translate(-13.25 .46) rotate(-1.15)" fill="#4da663"/><circle cx="110.42" cy="682.07" r="7.71" fill="#4da663"/><circle cx="36.32" cy="660.35" r="7.71" fill="#4da663"/><circle cx="55.92" cy="661.66" r="7.71" fill="#4da663"/><circle cx="130.37" cy="681.85" r="7.71" fill="#4da663"/><circle cx="76.05" cy="661.54" r="7.71" fill="#4da663"/><circle cx="22.33" cy="639.64" r="7.71" fill="#4da663"/><circle cx="96.4" cy="661.42" r="7.71" transform="translate(-36.43 6.34) rotate(-3.17)" fill="#4da663"/><circle cx="42.84" cy="639.43" r="7.71" fill="#4da663"/><circle cx="62.71" cy="641.48" r="7.71" fill="#4da663"/><circle cx="117.11" cy="661.28" r="7.71" fill="#4da663"/><circle cx="30.2" cy="619.37" r="7.71" fill="#4da663"/><circle cx="83.66" cy="641.52" r="7.71" fill="#4da663"/><circle cx="51.52" cy="619.32" r="7.71" fill="#4da663"/><circle cx="138.38" cy="661.19" r="7.71" fill="#4da663"/><circle cx="105.08" cy="641.63" r="7.71" transform="translate(-35.32 6.79) rotate(-3.17)" fill="#4da663"/><circle cx="71.74" cy="622.19" r="7.71" fill="#4da663"/><circle cx="39.98" cy="599.94" r="7.71" fill="#4da663"/><circle cx="93.76" cy="622.61" r="7.71" fill="#4da663"/><circle cx="127.17" cy="641.91" r="7.71" fill="#4da663"/><circle cx="62.28" cy="600.22" r="7.71" fill="#4da663"/><circle cx="82.88" cy="604.05" r="7.71" fill="#4da663"/><circle cx="51.58" cy="581.54" r="7.71" fill="#4da663"/><circle cx="116.51" cy="623.3" r="7.71" fill="#4da663"/><circle cx="150.34" cy="642.53" r="7.71" fill="#4da663"/><circle cx="74.99" cy="582.38" r="7.71" fill="#4da663"/><circle cx="106.16" cy="605.15" r="7.71" transform="translate(-33.3 6.8) rotate(-3.17)" fill="#4da663"/><circle cx="64.88" cy="564.33" r="7.71" fill="#4da663"/><circle cx="96.01" cy="587.29" r="7.71" fill="#4da663"/><circle cx="140.33" cy="624.49" r="7.71" fill="#4da663"/><circle cx="130.48" cy="606.82" r="7.71" fill="#4da663"/><circle cx="89.52" cy="565.96" r="7.71" fill="#4da663"/><circle cx="79.77" cy="548.47" r="7.71" fill="#4da663"/><circle cx="120.68" cy="589.39" r="7.71" fill="#4da663"/><circle cx="110.95" cy="572.12" r="7.71" fill="#4da663"/><circle cx="165.75" cy="626.63" r="7.71" fill="#4da663"/><circle cx="105.7" cy="551.18" r="7.71" transform="translate(-30.32 6.69) rotate(-3.17)" fill="#4da663"/><circle cx="96.13" cy="534.12" r="7.71" transform="translate(-29.39 6.13) rotate(-3.17)" fill="#4da663"/><circle cx="156.22" cy="609.52" r="7.71" fill="#4da663"/><circle cx="146.66" cy="592.53" r="7.71" fill="#4da663"/><circle cx="137.09" cy="575.6" r="7.71" fill="#4da663"/><circle cx="127.5" cy="558.73" r="7.71" fill="#4da663"/><circle cx="123.34" cy="538.2" r="7.71" fill="#4da663"/><circle cx="113.77" cy="521.41" r="7.71" fill="#4da663"/><circle cx="145.46" cy="547.3" r="7.71" fill="#4da663"/><circle cx="155.11" cy="564.01" r="7.71" fill="#4da663"/><circle cx="164.75" cy="580.74" r="7.71" transform="translate(-434.88 650.31) rotate(-80.78)" fill="#4da663"/><circle cx="174.4" cy="597.43" r="7.71" transform="translate(-443.26 673.85) rotate(-80.78)" fill="#4da663"/><circle cx="184.04" cy="614.11" r="7.71" fill="#4da663"/><circle cx="132.56" cy="510.45" r="7.71" fill="#4da663"/><circle cx="142.26" cy="527.15" r="7.71" fill="#4da663"/><circle cx="164.61" cy="538.01" r="7.71" transform="translate(-392.83 614.29) rotate(-80.78)" fill="#4da663"/><circle cx="152.32" cy="501.34" r="7.71" fill="#4da663"/><circle cx="174.45" cy="554.79" r="7.71" fill="#4da663"/><circle cx="162.24" cy="518.17" r="7.71" transform="translate(-375.23 595.3) rotate(-80.78)" fill="#4da663"/><circle cx="184.35" cy="571.62" r="7.71" fill="#4da663"/><circle cx="194.32" cy="588.5" r="7.71" fill="#4da663"/><circle cx="204.43" cy="605.47" r="7.71" fill="#4da663"/><circle cx="172.85" cy="494.16" r="7.71" fill="#4da663"/><circle cx="184.69" cy="530.88" r="7.71" fill="#4da663"/><circle cx="183.07" cy="511.31" r="7.71" fill="#4da663"/><circle cx="194.81" cy="548.09" r="7.71" fill="#4da663"/><circle cx="205.05" cy="565.45" r="7.71" fill="#4da663"/><circle cx="193.97" cy="488.99" r="7.71" fill="#4da663"/><circle cx="205.43" cy="526.09" r="7.71" fill="#4da663"/><circle cx="215.47" cy="583.06" r="7.71" fill="#4da663"/><circle cx="204.49" cy="506.71" r="7.71" fill="#4da663"/><circle cx="215.85" cy="544.03" r="7.71" fill="#4da663"/><circle cx="226.15" cy="601.07" r="7.71" transform="translate(-389.44 784.04) rotate(-85.93)" fill="#4da663"/><circle cx="215.5" cy="485.87" r="7.71" fill="#4da663"/><circle cx="226.43" cy="562.35" r="7.71" transform="translate(-350.56 748.35) rotate(-85.93)" fill="#4da663"/><circle cx="226.58" cy="523.69" r="7.71" transform="translate(-311.86 712.58) rotate(-85.93)" fill="#4da663"/><circle cx="226.27" cy="504.39" r="7.71" transform="translate(-292.89 694.34) rotate(-85.93)" fill="#4da663"/><circle cx="237.23" cy="542.67" r="7.71" fill="#4da663"/><circle cx="237.23" cy="484.82" r="7.71" fill="#4da663"/><circle cx="237.23" cy="581.23" r="7.71" fill="#4da663"/><circle cx="248.19" cy="504.39" r="7.71" fill="#4da663"/><circle cx="247.88" cy="523.69" r="7.71" fill="#4da663"/><circle cx="248.03" cy="562.35" r="7.71" fill="#4da663"/><circle cx="258.96" cy="485.87" r="7.71" fill="#4da663"/><circle cx="248.31" cy="601.07" r="7.71" fill="#4da663"/><circle cx="258.61" cy="544.03" r="7.71" fill="#4da663"/><circle cx="269.97" cy="506.71" r="7.71" fill="#4da663"/><circle cx="258.99" cy="583.06" r="7.71" fill="#4da663"/><circle cx="269.03" cy="526.09" r="7.71" fill="#4da663"/><circle cx="280.49" cy="488.99" r="7.71" fill="#4da663"/><circle cx="269.41" cy="565.45" r="7.71" fill="#4da663"/><circle cx="279.65" cy="548.09" r="7.71" fill="#4da663"/><circle cx="291.39" cy="511.31" r="7.71" fill="#4da663"/><circle cx="289.78" cy="530.88" r="7.71" fill="#4da663"/><circle cx="301.61" cy="494.16" r="7.71" fill="#4da663"/><circle cx="270.03" cy="605.47" r="7.71" fill="#4da663"/><circle cx="280.14" cy="588.5" r="7.71" fill="#4da663"/><circle cx="290.11" cy="571.62" r="7.71" fill="#4da663"/><circle cx="312.22" cy="518.14" r="7.71" fill="#4da663"/><circle cx="300.01" cy="554.79" r="7.71" fill="#4da663"/><circle cx="322.14" cy="501.34" r="7.71" fill="#4da663"/><circle cx="309.86" cy="537.98" r="7.71" fill="#4da663"/><circle cx="332.2" cy="527.15" r="7.71" fill="#4da663"/><circle cx="341.91" cy="510.51" r="7.71" transform="translate(-245.79 689.77) rotate(-73.15)" fill="#4da663"/><circle cx="290.42" cy="614.11" r="7.71" fill="#4da663"/><circle cx="300.07" cy="597.4" r="7.71" fill="#4da663"/><circle cx="309.71" cy="580.7" r="7.71" fill="#4da663"/><circle cx="319.35" cy="564.01" r="7.71" fill="#4da663"/><circle cx="329" cy="547.3" r="7.71" fill="#4da663"/><circle cx="360.69" cy="521.41" r="7.71" fill="#4da663"/><circle cx="351.12" cy="538.2" r="7.71" fill="#4da663"/><circle cx="346.96" cy="558.73" r="7.71" fill="#4da663"/><circle cx="337.37" cy="575.6" r="7.71" fill="#4da663"/><circle cx="327.8" cy="592.53" r="7.71" fill="#4da663"/><circle cx="318.24" cy="609.52" r="7.71" fill="#4da663"/><circle cx="378.33" cy="534.12" r="7.71" fill="#4da663"/><circle cx="368.76" cy="551.18" r="7.71" fill="#4da663"/><circle cx="308.71" cy="626.63" r="7.71" fill="#4da663"/><circle cx="363.51" cy="572.12" r="7.71" fill="#4da663"/><circle cx="353.78" cy="589.39" r="7.71" fill="#4da663"/><circle cx="394.69" cy="548.47" r="7.71" fill="#4da663"/><circle cx="384.94" cy="565.96" r="7.71" fill="#4da663"/><circle cx="343.98" cy="606.82" r="7.71" fill="#4da663"/><circle cx="334.13" cy="624.49" r="7.71" fill="#4da663"/><circle cx="378.45" cy="587.29" r="7.71" fill="#4da663"/><circle cx="409.58" cy="564.33" r="7.71" fill="#4da663"/><circle cx="368.3" cy="605.15" r="7.71" fill="#4da663"/><circle cx="399.47" cy="582.38" r="7.71" fill="#4da663"/><circle cx="324.13" cy="642.53" r="7.71" fill="#4da663"/><circle cx="357.95" cy="623.3" r="7.71" fill="#4da663"/><circle cx="422.88" cy="581.54" r="7.71" fill="#4da663"/><circle cx="391.58" cy="604.05" r="7.71" fill="#4da663"/><circle cx="412.18" cy="600.22" r="7.71" fill="#4da663"/><circle cx="347.28" cy="641.91" r="7.71" transform="translate(-348.72 861.54) rotate(-79.1)" fill="#4da663"/><circle cx="380.71" cy="622.61" r="7.71" fill="#4da663"/><circle cx="434.48" cy="599.94" r="7.71" fill="#4da663"/><circle cx="402.72" cy="622.19" r="7.71" fill="#4da663"/><circle cx="369.38" cy="641.63" r="7.71" fill="#4da663"/><circle cx="336.08" cy="661.19" r="7.71" fill="#4da663"/><circle cx="422.94" cy="619.32" r="7.71" fill="#4da663"/><circle cx="390.8" cy="641.52" r="7.71" fill="#4da663"/><circle cx="444.26" cy="619.37" r="7.71" fill="#4da663"/><circle cx="357.36" cy="661.28" r="7.71" fill="#4da663"/><circle cx="411.75" cy="641.48" r="7.71" fill="#4da663"/><circle cx="431.62" cy="639.43" r="7.71" fill="#4da663"/><circle cx="378.06" cy="661.42" r="7.71" fill="#4da663"/><circle cx="452.13" cy="639.64" r="7.71" fill="#4da663"/><circle cx="398.41" cy="661.54" r="7.71" fill="#4da663"/><circle cx="344.1" cy="681.88" r="7.71" transform="translate(-384.11 912.28) rotate(-80.78)" fill="#4da663"/><circle cx="418.54" cy="661.66" r="7.71" fill="#4da663"/><circle cx="438.14" cy="660.35" r="7.71" fill="#4da663"/><circle cx="364.04" cy="682.07" r="7.71" fill="#4da663"/><circle cx="458.02" cy="660.58" r="7.71" fill="#4da663"/><circle cx="383.8" cy="682.24" r="7.71" fill="#4da663"/><circle cx="403.44" cy="682.38" r="7.71" fill="#4da663"/><circle cx="422.99" cy="682.48" r="7.71" fill="#4da663"/><circle cx="442.39" cy="681.85" r="7.71" fill="#4da663"/><circle cx="461.88" cy="682" r="7.71" fill="#4da663"/><circle cx="347.83" cy="703.68" r="7.71" fill="#4da663"/><circle cx="367.15" cy="703.68" r="7.71" fill="#4da663"/><circle cx="386.47" cy="703.68" r="7.71" fill="#4da663"/><circle cx="405.77" cy="703.68" r="7.71" fill="#4da663"/><circle cx="425.07" cy="703.68" r="7.71" fill="#4da663"/><circle cx="444.37" cy="703.68" r="7.71" fill="#4da663"/><circle cx="463.66" cy="703.68" r="7.71" fill="#4da663"/></g><g isolation="isolate"><text transform="translate(756.6 433.96) scale(1.16 1)" fill="#fff" font-family="Helvetica-Bold, Helvetica" font-size="30.95" font-weight="700" isolation="isolate"><tspan x="0" y="0" xml:space="preserve">Diputados XXXVII  Legislatura</tspan></text></g><g isolation="isolate"><text transform="translate(970.51 707.13)" fill="#fff" font-family="Helvetica-Bold, Helvetica" font-size="48.59" font-weight="700" isolation="isolate"><tspan x="0" y="0">173</tspan></text></g><g id="f"><circle cx="791.42" cy="706.1" r="7.71" fill="#4da663"/><circle cx="810.65" cy="706.17" r="7.71" fill="#4da663"/><circle cx="829.95" cy="706.17" r="7.71" fill="#4da663"/><circle cx="849.25" cy="706.17" r="7.71" fill="#4da663"/><circle cx="868.55" cy="706.17" r="7.71" fill="#4da663"/><circle cx="887.87" cy="706.17" r="7.71" fill="#4da663"/><circle cx="907.2" cy="706.17" r="7.71" fill="#4da663"/><circle cx="793.15" cy="684.49" r="7.71" fill="#4da663"/><circle cx="812.64" cy="684.35" r="7.71" fill="#4da663"/><circle cx="832.03" cy="684.98" r="7.71" fill="#4da663"/><circle cx="851.59" cy="684.87" r="7.71" fill="#4da663"/><circle cx="871.23" cy="684.74" r="7.71" fill="#4da663"/><circle cx="797.07" cy="663.01" r="7.71" fill="#4da663"/><circle cx="890.99" cy="684.56" r="7.71" fill="#4da663"/><circle cx="816.89" cy="662.84" r="7.71" fill="#4da663"/><circle cx="836.49" cy="664.15" r="7.71" fill="#4da663"/><circle cx="910.94" cy="684.35" r="7.71" fill="#4da663"/><circle cx="856.61" cy="664.03" r="7.71" fill="#4da663"/><circle cx="802.89" cy="642.14" r="7.71" fill="#4da663"/><circle cx="876.96" cy="663.91" r="7.71" fill="#4da663"/><circle cx="823.41" cy="641.92" r="7.71" fill="#4da663"/><circle cx="843.27" cy="643.98" r="7.71" fill="#4da663"/><circle cx="897.67" cy="663.78" r="7.71" fill="#4da663"/><circle cx="810.76" cy="621.87" r="7.71" fill="#4da663"/><circle cx="864.22" cy="644.02" r="7.71" fill="#4da663"/><circle cx="832.09" cy="621.81" r="7.71" fill="#4da663"/><circle cx="918.94" cy="663.68" r="7.71" fill="#4da663"/><circle cx="885.64" cy="644.12" r="7.71" fill="#4da663"/><circle cx="852.3" cy="624.69" r="7.71" fill="#4da663"/><circle cx="820.55" cy="602.43" r="7.71" fill="#4da663"/><circle cx="874.32" cy="625.11" r="7.71" fill="#4da663"/><circle cx="907.74" cy="644.41" r="7.71" fill="#4da663"/><circle cx="842.84" cy="602.71" r="7.71" fill="#4da663"/><circle cx="863.44" cy="606.55" r="7.71" fill="#4da663"/><circle cx="832.14" cy="584.03" r="7.71" fill="#4da663"/><circle cx="897.07" cy="625.79" r="7.71" fill="#4da663"/><circle cx="930.9" cy="645.03" r="7.71" fill="#4da663"/><circle cx="855.56" cy="584.87" r="7.71" fill="#4da663"/><circle cx="886.72" cy="607.64" r="7.71" fill="#4da663"/><circle cx="845.45" cy="566.83" r="7.71" fill="#4da663"/><circle cx="876.57" cy="589.78" r="7.71" fill="#4da663"/><circle cx="920.9" cy="626.98" r="7.71" fill="#4da663"/><circle cx="911.04" cy="609.31" r="7.71" fill="#4da663"/><circle cx="870.08" cy="568.46" r="7.71" fill="#4da663"/><circle cx="860.33" cy="550.97" r="7.71" fill="#4da663"/><circle cx="901.25" cy="591.89" r="7.71" fill="#4da663"/><circle cx="891.51" cy="574.61" r="7.71" fill="#4da663"/><circle cx="946.31" cy="629.13" r="7.71" fill="#4da663"/><circle cx="886.26" cy="553.68" r="7.71" fill="#4da663"/><circle cx="876.69" cy="536.62" r="7.71" fill="#4da663"/><circle cx="936.78" cy="612.01" r="7.71" fill="#4da663"/><circle cx="927.23" cy="595.02" r="7.71" fill="#4da663"/><circle cx="917.66" cy="578.1" r="7.71" fill="#4da663"/><circle cx="908.06" cy="561.22" r="7.71" fill="#4da663"/><circle cx="903.9" cy="540.69" r="7.71" fill="#4da663"/><circle cx="894.33" cy="523.9" r="7.71" fill="#4da663"/><circle cx="926.03" cy="549.79" r="7.71" fill="#4da663"/><circle cx="935.68" cy="566.5" r="7.71" fill="#4da663"/><circle cx="945.35" cy="583.23" r="7.71" fill="#4da663"/><circle cx="954.98" cy="599.93" r="7.71" fill="#4da663"/><circle cx="964.6" cy="616.6" r="7.71" fill="#4da663"/><circle cx="913.12" cy="512.94" r="7.71" fill="#4da663"/><circle cx="922.83" cy="529.64" r="7.71" fill="#4da663"/><circle cx="945.2" cy="540.52" r="7.71" fill="#4da663"/><circle cx="932.88" cy="503.83" r="7.71" fill="#4da663"/><circle cx="955.02" cy="557.28" r="7.71" fill="#4da663"/><circle cx="942.85" cy="520.68" r="7.71" fill="#4da663"/><circle cx="964.91" cy="574.11" r="7.71" fill="#4da663"/><circle cx="974.89" cy="591" r="7.71" fill="#4da663"/><circle cx="985" cy="607.96" r="7.71" fill="#4da663"/><circle cx="953.41" cy="496.65" r="7.71" fill="#4da663"/><circle cx="965.25" cy="533.38" r="7.71" fill="#4da663"/><circle cx="963.63" cy="513.81" r="7.71" fill="#4da663"/><circle cx="975.37" cy="550.59" r="7.71" fill="#4da663"/><circle cx="985.62" cy="567.95" r="7.71" fill="#4da663"/><circle cx="974.53" cy="491.48" r="7.71" fill="#4da663"/><circle cx="985.99" cy="528.59" r="7.71" fill="#4da663"/><circle cx="996.04" cy="585.56" r="7.71" transform="translate(258.49 1474.94) rotate(-80.78)" fill="#4da663"/><circle cx="985.05" cy="509.21" r="7.71" fill="#4da663"/><circle cx="996.41" cy="546.53" r="7.71" transform="translate(297.33 1442.53) rotate(-80.78)" fill="#4da663"/><circle cx="1006.71" cy="603.56" r="7.71" fill="#4da663"/><circle cx="996.06" cy="488.37" r="7.71" transform="translate(354.44 1393.34) rotate(-80.78)" fill="#4da663"/><circle cx="1007" cy="564.84" r="7.71" fill="#4da663"/><circle cx="1007.14" cy="526.19" r="7.71" fill="#4da663"/><circle cx="1006.83" cy="506.88" r="7.71" fill="#4da663"/><circle cx="1017.79" cy="545.16" r="7.71" fill="#4da663"/><circle cx="1017.79" cy="487.31" r="7.71" fill="#4da663"/><circle cx="1017.79" cy="583.72" r="7.71" fill="#4da663"/><circle cx="1028.75" cy="506.88" r="7.71" fill="#4da663"/><circle cx="1028.44" cy="526.19" r="7.71" fill="#4da663"/><circle cx="1028.59" cy="564.84" r="7.71" fill="#4da663"/><circle cx="1039.52" cy="488.37" r="7.71" fill="#4da663"/><circle cx="1028.87" cy="603.56" r="7.71" fill="#4da663"/><circle cx="1039.17" cy="546.53" r="7.71" fill="#4da663"/><circle cx="1050.54" cy="509.21" r="7.71" fill="#4da663"/><circle cx="1039.55" cy="585.56" r="7.71" fill="#4da663"/><circle cx="1049.59" cy="528.59" r="7.71" fill="#4da663"/><circle cx="1061.05" cy="491.48" r="7.71" fill="#4da663"/><circle cx="1049.97" cy="567.95" r="7.71" fill="#4da663"/><circle cx="1060.22" cy="550.59" r="7.71" fill="#4da663"/><circle cx="1071.96" cy="513.81" r="7.71" fill="#4da663"/><circle cx="1070.34" cy="533.38" r="7.71" fill="#4da663"/><circle cx="1082.18" cy="496.65" r="7.71" fill="#4da663"/><circle cx="1050.59" cy="607.96" r="7.71" fill="#4da663"/><circle cx="1060.7" cy="591" r="7.71" fill="#4da663"/><circle cx="1070.68" cy="574.11" r="7.71" fill="#4da663"/><circle cx="1092.78" cy="520.64" r="7.71" fill="#4da663"/><circle cx="1080.57" cy="557.28" r="7.71" fill="#4da663"/><circle cx="1102.7" cy="503.83" r="7.71" fill="#4da663"/><circle cx="1090.42" cy="540.48" r="7.71" fill="#4da663"/><circle cx="1112.76" cy="529.64" r="7.71" fill="#4da663"/><circle cx="1122.54" cy="513.03" r="7.71" transform="translate(306.15 1438.66) rotate(-73.15)" fill="#4da663"/><circle cx="1070.99" cy="616.6" r="7.71" fill="#4da663"/><circle cx="1080.64" cy="599.89" r="7.71" fill="#4da663"/><circle cx="1090.27" cy="583.2" r="7.71" fill="#4da663"/><circle cx="1099.91" cy="566.5" r="7.71" fill="#4da663"/><circle cx="1109.56" cy="549.79" r="7.71" fill="#4da663"/><circle cx="1141.25" cy="523.9" r="7.71" fill="#4da663"/><circle cx="1131.68" cy="540.69" r="7.71" fill="#4da663"/><circle cx="1127.53" cy="561.22" r="7.71" fill="#4da663"/><circle cx="1117.93" cy="578.1" r="7.71" fill="#4da663"/><circle cx="1108.36" cy="595.02" r="7.71" fill="#4da663"/><circle cx="1098.8" cy="612.01" r="7.71" fill="#4da663"/><circle cx="1158.89" cy="536.62" r="7.71" fill="#4da663"/><circle cx="1149.32" cy="553.68" r="7.71" fill="#4da663"/><circle cx="1089.27" cy="629.13" r="7.71" fill="#4da663"/><circle cx="1144.07" cy="574.61" r="7.71" fill="#4da663"/><circle cx="1134.34" cy="591.89" r="7.71" fill="#4da663"/><circle cx="1175.25" cy="550.97" r="7.71" fill="#4da663"/><circle cx="1165.51" cy="568.46" r="7.71" fill="#4da663"/><circle cx="1124.54" cy="609.31" r="7.71" fill="#4da663"/><circle cx="1114.69" cy="626.98" r="7.71" fill="#4da663"/><circle cx="1159.01" cy="589.78" r="7.71" fill="#4da663"/><circle cx="1190.14" cy="566.83" r="7.71" fill="#4da663"/><circle cx="1148.86" cy="607.64" r="7.71" fill="#4da663"/><circle cx="1180.03" cy="584.87" r="7.71" fill="#4da663"/><circle cx="1104.69" cy="645.03" r="7.71" fill="#4da663"/><circle cx="1138.51" cy="625.79" r="7.71" fill="#4da663"/><circle cx="1203.45" cy="584.03" r="7.71" fill="#4da663"/><circle cx="1172.15" cy="606.55" r="7.71" fill="#4da663"/><circle cx="1192.74" cy="602.71" r="7.71" fill="#4da663"/><circle cx="1127.84" cy="644.4" r="7.71" transform="translate(281.8 1630.04) rotate(-79.1)" fill="#4da663"/><circle cx="1161.27" cy="625.11" r="7.71" fill="#4da663"/><circle cx="1215.04" cy="602.43" r="7.71" fill="#4da663"/><circle cx="1183.28" cy="624.69" r="7.71" fill="#4da663"/><circle cx="1149.94" cy="644.12" r="7.71" fill="#4da663"/><circle cx="1116.65" cy="663.68" r="7.71" fill="#4da663"/><circle cx="1203.5" cy="621.81" r="7.71" fill="#4da663"/><circle cx="1171.36" cy="644.02" r="7.71" fill="#4da663"/><circle cx="1224.83" cy="621.87" r="7.71" fill="#4da663"/><circle cx="1137.92" cy="663.78" r="7.71" fill="#4da663"/><circle cx="1192.31" cy="643.98" r="7.71" fill="#4da663"/><circle cx="1212.18" cy="641.92" r="7.71" fill="#4da663"/><circle cx="1158.62" cy="663.91" r="7.71" fill="#4da663"/><circle cx="1232.7" cy="642.14" r="7.71" fill="#4da663"/><circle cx="1178.98" cy="664.03" r="7.71" fill="#4da663"/><circle cx="1124.7" cy="684.39" r="7.71" transform="translate(268.95 1684.9) rotate(-80.78)" fill="#4da663"/><circle cx="1199.1" cy="664.15" r="7.71" fill="#4da663"/><circle cx="1218.7" cy="662.84" r="7.71" fill="#4da663"/><circle cx="1144.6" cy="684.56" r="7.71" fill="#4da663"/><circle cx="1238.58" cy="663.07" r="7.71" fill="#4da663"/><circle cx="1164.36" cy="684.74" r="7.71" fill="#4da663"/><circle cx="1184" cy="684.87" r="7.71" fill="#4da663"/><circle cx="1203.56" cy="684.98" r="7.71" fill="#4da663"/><circle cx="1222.95" cy="684.35" r="7.71" fill="#4da663"/><circle cx="1242.44" cy="684.49" r="7.71" fill="#4da663"/><circle cx="1128.39" cy="706.17" r="7.71" fill="#4da663"/><circle cx="1147.72" cy="706.17" r="7.71" fill="#4da663"/><circle cx="1167.03" cy="706.17" r="7.71" fill="#4da663"/><circle cx="1186.33" cy="706.17" r="7.71" fill="#4da663"/><circle cx="1205.63" cy="706.17" r="7.71" fill="#4da663"/><circle cx="1224.94" cy="706.17" r="7.71" fill="#4da663"/><circle cx="1244.22" cy="706.17" r="7.71" fill="#4da663"/></g><g isolation="isolate"><text transform="translate(641.49 301.03)" fill="#fff" font-family="Helvetica-Bold, Helvetica" font-size="50.45" font-weight="700" isolation="isolate"><tspan x="0" y="0">58</tspan></text></g><g id="g"><circle cx="449.26" cy="294.03" r="14.01" fill="#4da663"/><circle cx="484.37" cy="294.05" r="14.01" fill="#4da663"/><circle cx="519.51" cy="294.06" r="14.01" fill="#4da663"/><circle cx="554.73" cy="294.08" r="14.01" fill="#4da663"/><circle cx="454.78" cy="256.29" r="14.01" fill="#4da663"/><circle cx="490.97" cy="256.18" r="14.01" fill="#4da663"/><circle cx="527.7" cy="256.08" r="14.01" fill="#4da663"/><circle cx="466.53" cy="220" r="14.01" fill="#4da663"/><circle cx="565.49" cy="256.06" r="14.01" fill="#4da663"/><circle cx="504.94" cy="220.39" r="14.01" fill="#4da663"/><circle cx="484.17" cy="186.18" r="14.01" fill="#4da663"/><circle cx="544.92" cy="221.27" r="14.01" fill="#4da663"/><circle cx="525.75" cy="188.09" r="14.01" fill="#4da663"/><circle cx="507.21" cy="155.79" r="14.01" fill="#4da663"/><circle cx="587.8" cy="223.43" r="14.01" fill="#4da663"/><circle cx="570.13" cy="191.72" r="14.01" fill="#4da663"/><circle cx="552.54" cy="160.55" r="14.01" fill="#4da663"/><circle cx="535" cy="129.65" r="14.01" fill="#4da663"/><circle cx="566.75" cy="108.52" r="14.01" fill="#4da663"/><circle cx="584.27" cy="138.87" r="14.01" fill="#4da663"/><circle cx="601.8" cy="169.23" r="14.01" fill="#4da663"/><circle cx="619.32" cy="199.58" r="14.01" fill="#4da663"/><circle cx="601.62" cy="93.01" r="14.01" transform="translate(413.42 671.96) rotate(-80.78)" fill="#4da663"/><circle cx="619.68" cy="123.93" r="14.01" fill="#4da663"/><circle cx="638" cy="155.16" r="14.01" fill="#4da663"/><circle cx="638.55" cy="83.5" r="14.01" fill="#4da663"/><circle cx="656.79" cy="187.01" r="14.01" fill="#4da663"/><circle cx="657.34" cy="116.31" r="14.01" fill="#4da663"/><circle cx="676.55" cy="150.38" r="14.01" fill="#4da663"/><circle cx="676.55" cy="80.31" r="14.01" fill="#4da663"/><circle cx="695.77" cy="116.31" r="14.01" fill="#4da663"/><circle cx="696.31" cy="187.01" r="14.01" fill="#4da663"/><circle cx="714.56" cy="83.5" r="14.01" fill="#4da663"/><circle cx="715.1" cy="155.16" r="14.01" fill="#4da663"/><circle cx="733.42" cy="123.93" r="14.01" fill="#4da663"/><circle cx="751.51" cy="92.99" r="14.01" fill="#4da663"/><circle cx="733.79" cy="199.58" r="14.01" fill="#4da663"/><circle cx="751.3" cy="169.23" r="14.01" fill="#4da663"/><circle cx="768.83" cy="138.87" r="14.01" fill="#4da663"/><circle cx="786.35" cy="108.52" r="14.01" fill="#4da663"/><circle cx="818.11" cy="129.65" r="14.01" fill="#4da663"/><circle cx="800.56" cy="160.55" r="14.01" fill="#4da663"/><circle cx="782.97" cy="191.72" r="14.01" fill="#4da663"/><circle cx="765.3" cy="223.43" r="14.01" fill="#4da663"/><circle cx="845.9" cy="155.79" r="14.01" fill="#4da663"/><circle cx="827.36" cy="188.09" r="14.01" fill="#4da663"/><circle cx="808.19" cy="221.27" r="14.01" fill="#4da663"/><circle cx="868.94" cy="186.18" r="14.01" fill="#4da663"/><circle cx="848.17" cy="220.39" r="14.01" fill="#4da663"/><circle cx="787.61" cy="256.06" r="14.01" fill="#4da663"/><circle cx="886.58" cy="220" r="14.01" fill="#4da663"/><circle cx="825.41" cy="256.08" r="14.01" fill="#4da663"/><circle cx="862.14" cy="256.18" r="14.01" fill="#4da663"/><circle cx="898.32" cy="256.29" r="14.01" fill="#4da663"/><circle cx="798.38" cy="294.08" r="14.01" fill="#4da663"/><circle cx="833.59" cy="294.06" r="14.01" fill="#4da663"/><circle cx="868.74" cy="294.05" r="14.01" fill="#4da663"/><circle cx="903.84" cy="294.03" r="14.01" fill="#4da663"/></g><g id="h"><g id="i"><g id="j"><path id="k" d="M446.99,109.77c0,28.15-22.82,50.98-50.98,50.98s-50.98-22.82-50.98-50.98,22.82-50.98,50.98-50.98,50.98,22.82,50.98,50.98h0Z"/></g><g id="l"><path id="m" d="M396.01,61.81c-26.49,0-47.96,21.47-47.96,47.96s21.47,47.96,47.96,47.96c5.17,0,10.14-.82,14.81-2.33v-91.25c-4.66-1.51-9.64-2.33-14.81-2.33h0Z" fill="#f9f9f9"/><path id="n" d="M410.82,64.14v91.25c19.24-6.24,33.15-24.31,33.15-45.63s-13.91-39.39-33.15-45.63h0Z" fill="#83000a"/><path id="o" d="M379.26,64.82c-18.23,6.8-31.21,24.36-31.21,44.95s12.98,38.16,31.21,44.95c0,0,0-89.9,0-89.9Z" fill="#2cae4b"/></g><g id="p"><g id="q"><path id="r" d="M387.93,89.33v40.89h5.62v-10.04c.11,0,.23,0,.34,0,5.81,0,10.51-6.91,10.51-15.42s-4.71-15.42-10.51-15.42h-5.96v-.02ZM393.55,93.91c3.77.44,6.73,5.13,6.73,10.85s-2.96,10.4-6.73,10.85v-21.7h0Z"/></g><path id="s" d="M403.26,130.17h-5.02l-8.59-10.25,5.23-.88,8.39,11.14h-.01Z" stroke="#000"/><g id="t"><path id="u" d="M416.81,89.19v41.17h5.62v-29.59l3.2,8.08v.1l.02-.05.02.05v-.1l3.2-8.08v29.59h5.62v-41.17h-5.62v.03l-3.22,8.71-3.22-8.71v-.03h-5.62Z" fill="#fff"/></g><g id="v"><path id="w" d="M359.02,89.33v40.89h5.62v-10.05c.12,0,.25,0,.37,0,5.81,0,10.51-6.91,10.51-15.42s-4.71-15.42-10.51-15.42h-.27s-.07,0-.1.01h-5.62v-.02ZM364.64,93.9c3.78.42,6.76,5.11,6.76,10.85s-2.98,10.44-6.76,10.85v-21.71h0Z" fill="#fff"/></g></g></g></g></g></g></svg>