<?xml version="1.0" encoding="UTF-8"?>
<svg id="Capa_1" xmlns="http://www.w3.org/2000/svg" version="1.1" viewBox="0 0 1230.4 733.8">
  <!-- Generator: Adobe Illustrator 30.2.1, SVG Export Plug-In . SVG Version: 2.1.1 Build 1)  -->
  <defs>
    <style>
      .st0 {
        fill: none;
      }

      .st1 {
        fill: #d600fc;
      }

      .st2 {
        font-size: 31px;
      }

      .st2, .st3, .st4, .st5, .st6, .st7, .st8 {
        fill: #fff;
      }

      .st2, .st4, .st9, .st5, .st8 {
        isolation: isolate;
      }

      .st2, .st4, .st5, .st8 {
        font-family: Helvetica-Bold, Helvetica;
        font-weight: 700;
      }

      .st10 {
        fill: olive;
      }

      .st11 {
        fill: #06338e;
      }

      .st3, .st12, .st13, .st14, .st15, .st16, .st7 {
        fill-rule: evenodd;
      }

      .st4 {
        font-size: 36px;
      }

      .st12 {
        fill: #00923f;
      }

      .st17 {
        fill: #f0f;
      }

      .st13 {
        fill: #d23026;
      }

      .st18 {
        fill: #4da663;
      }

      .st5 {
        font-size: 24px;
      }

      .st14 {
        fill: #131516;
      }

      .st16, .st19 {
        fill: #d11f2b;
      }

      .st20 {
        fill: #009150;
      }

      .st7 {
        stroke: #fff;
        stroke-linejoin: round;
        stroke-width: 2px;
      }

      .st21 {
        fill: #282828;
      }

      .st22 {
        fill: #05338d;
      }

      .st8 {
        font-size: 37px;
      }
    </style>
  </defs>
  <g id="Capa_2">
    <g id="c">
      <rect class="st21" x="-69.4" y="-56.4" width="1323.8" height="795.8"/>
    </g>
  </g>
  <g id="b">
    <g class="st9">
      <g class="st9">
        <g class="st9">
          <text class="st2" transform="translate(302.8 26.6) scale(1.2 1)"><tspan x="0" y="0">Senadores XLVI y XLVII Legislatura</tspan></text>
        </g>
      </g>
    </g>
    <g class="st9">
      <g class="st9">
        <g class="st9">
          <text class="st2" transform="translate(0 439.4) scale(1.2 1)"><tspan x="0" y="0">Diputados XLIV Legislatura</tspan></text>
        </g>
      </g>
    </g>
    <g class="st9">
      <g class="st9">
        <g class="st9">
          <text class="st2" transform="translate(757.6 434) scale(1.2 1)"><tspan x="0" y="0" xml:space="preserve">Diputados XLV  Legislatura</tspan></text>
        </g>
      </g>
    </g>
    <g class="st9">
      <g class="st9">
        <g class="st9">
          <text class="st5" transform="translate(68.8 487.7)"><tspan x="0" y="0">175</tspan></text>
        </g>
      </g>
    </g>
    <g id="aj">
      <g id="ak">
        <path id="al" class="st22" d="M33.1,496.8h21.3c1.5,0,2.7,1.2,2.7,2.7v21.3c0,1.5-1.2,2.7-2.7,2.7h-21.3c-1.5,0-2.7-1.2-2.7-2.7v-21.3c0-1.5,1.2-2.7,2.7-2.7h0Z"/>
        <g id="am">
          <g id="an">
            <circle id="ao" class="st6" cx="43.8" cy="510.2" r="12.9" transform="translate(-466.9 547.5) rotate(-89.3)"/>
            <circle id="ap" class="st22" cx="43.8" cy="510.2" r="11.4"/>
            <circle id="aq" class="st6" cx="43.8" cy="510.2" r="10"/>
          </g>
          <path id="ar" class="st11" d="M38.6,509.9c.3,0,.4-.3.4-.7v-2.4c0-.4,0-.6-.4-.6h-.9v3.7h.9ZM35.9,516.1v-11.8h4.1c.7,0,1,.9,1,1.8v3.7c0,1-.3,2.1-1.3,2.1h-1.9v4.3h-1.9ZM42.8,512.8h1l-.5-2.5-.5,2.5h0ZM42.3,514.5l-.3,1.6h-1.9l2.1-11.8h2.4l2,11.8h-1.9l-.3-1.6h-2.1ZM46.8,516.1v-11.8h1.7l1.2,4.1v-4.1h1.9v11.8h-1.8l-1.1-3.6v3.6h-1.9Z"/>
        </g>
      </g>
    </g>
    <g class="st9">
      <g class="st9">
        <g class="st9">
          <text class="st5" transform="translate(69.7 523.7)"><tspan x="0" y="0">20</tspan></text>
        </g>
      </g>
    </g>
    <g class="st9">
      <g class="st9">
        <g class="st9">
          <text class="st5" transform="translate(69.8 559)"><tspan x="0" y="0">10</tspan></text>
        </g>
      </g>
    </g>
    <g class="st9">
      <g class="st9">
        <g class="st9">
          <text class="st5" transform="translate(822.1 488.6)"><tspan x="0" y="0">172</tspan></text>
        </g>
      </g>
    </g>
    <g id="bi">
      <g id="bj">
        <path id="bk" class="st22" d="M786.4,497.7h21.3c1.5,0,2.7,1.2,2.7,2.7v21.3c0,1.5-1.2,2.7-2.7,2.7h-21.3c-1.5,0-2.7-1.2-2.7-2.7v-21.3c0-1.5,1.2-2.7,2.7-2.7h0Z"/>
        <g id="bl">
          <g id="bm">
            <circle id="bn" class="st6" cx="797.1" cy="511.1" r="12.9"/>
            <circle id="bo" class="st22" cx="797.1" cy="511.1" r="11.4"/>
            <circle id="bp" class="st6" cx="797.1" cy="511.1" r="10"/>
          </g>
          <path id="bq" class="st11" d="M792,510.8c.3,0,.4-.3.4-.7v-2.4c0-.4,0-.6-.4-.6h-.9v3.7h.9ZM789.2,517v-11.8h4.1c.7,0,1,.9,1,1.8v3.7c0,1-.3,2.1-1.3,2.1h-1.9v4.3h-1.9ZM796.1,513.7h1l-.5-2.5-.5,2.5h0ZM795.6,515.4l-.3,1.6h-1.9l2.1-11.8h2.4l2,11.8h-1.9l-.3-1.6h-2.1ZM800.1,517v-11.8h1.7l1.2,4.1v-4.1h1.9v11.8h-1.8l-1.1-3.6v3.6h-1.9Z"/>
        </g>
      </g>
    </g>
    <g class="st9">
      <g class="st9">
        <g class="st9">
          <text class="st5" transform="translate(823 524.6)"><tspan x="0" y="0">5</tspan></text>
        </g>
      </g>
    </g>
    <g class="st9">
      <g class="st9">
        <g class="st9">
          <text class="st5" transform="translate(823.1 559.9)"><tspan x="0" y="0">1</tspan></text>
        </g>
      </g>
    </g>
    <g class="st9">
      <g class="st9">
        <text class="st4" transform="translate(652.6 243.1)"><tspan x="0" y="0">60</tspan></text>
      </g>
    </g>
    <g id="br">
      <circle class="st20" cx="510.5" cy="235.5" r="10" transform="translate(125.7 645.5) rotate(-71.6)"/>
      <circle class="st20" cx="535.7" cy="235.6" r="10"/>
      <circle class="st20" cx="560.8" cy="235.6" r="10"/>
      <circle class="st20" cx="586" cy="235.6" r="10"/>
      <circle class="st20" cx="514.9" cy="209" r="10"/>
      <circle class="st20" cx="540.3" cy="210.6" r="10"/>
      <circle class="st20" cx="566.4" cy="211" r="10"/>
      <circle class="st20" cx="523.5" cy="183.5" r="10"/>
      <circle class="st20" cx="594.2" cy="209.2" r="10"/>
      <circle class="st20" cx="549.5" cy="186.9" r="10"/>
      <circle class="st20" cx="577.3" cy="188.3" r="10"/>
      <circle class="st20" cx="536.2" cy="159.7" r="10"/>
      <circle class="st20" cx="562.8" cy="165.3" r="10"/>
      <circle class="st20" cx="552.7" cy="138.4" r="10"/>
      <circle class="st20" cx="610.3" cy="186.7" r="10"/>
      <circle class="st20" cx="593" cy="168.6" r="10"/>
      <circle class="st20" cx="579.9" cy="146.6" r="10"/>
      <circle class="st20" cx="572.5" cy="120.1" r="10"/>
      <circle class="st20" cx="612.7" cy="152.9" r="10"/>
      <circle class="st20" cx="600.2" cy="131.2" r="10"/>
      <circle class="st20" cx="595" cy="105.3" r="10"/>
      <circle class="st20" cx="632.5" cy="170.3" r="10"/>
      <circle class="st20" cx="622.9" cy="119.9" r="10"/>
      <circle class="st20" cx="635.4" cy="141.9" r="10"/>
      <circle class="st20" cx="619.7" cy="94.5" r="10"/>
      <circle class="st20" cx="647.3" cy="112.9" r="10"/>
      <circle class="st20" cx="645.8" cy="87.8" r="10"/>
      <circle class="st20" cx="658.8" cy="161.7" r="10"/>
      <circle class="st20" cx="660" cy="136.3" r="10"/>
      <circle class="st20" cx="672.6" cy="110.6" r="10"/>
      <circle class="st20" cx="672.6" cy="85.6" r="10"/>
      <circle class="st20" cx="685.2" cy="136.3" r="10"/>
      <circle class="st20" cx="686.4" cy="161.7" r="10"/>
      <circle class="st20" cx="699.5" cy="87.8" r="10"/>
      <circle class="st20" cx="697.9" cy="112.9" r="10"/>
      <circle class="st20" cx="725.6" cy="94.5" r="10"/>
      <circle class="st20" cx="709.8" cy="141.9" r="10"/>
      <circle class="st20" cx="722.3" cy="119.9" r="10"/>
      <circle class="st20" cx="712.7" cy="170.3" r="10"/>
      <circle class="st20" cx="750.2" cy="105.3" r="10"/>
      <circle class="st20" cx="745.1" cy="131.2" r="10"/>
      <circle class="st20" cx="732.5" cy="152.9" r="10"/>
      <circle class="st20" cx="772.8" cy="120.1" r="10"/>
      <circle class="st20" cx="765.3" cy="146.6" r="10"/>
      <circle class="st20" cx="752.2" cy="168.6" r="10"/>
      <circle class="st20" cx="735" cy="186.7" r="10"/>
      <circle class="st20" cx="792.5" cy="138.4" r="10"/>
      <circle class="st20" cx="782.4" cy="165.3" r="10"/>
      <circle class="st20" cx="809" cy="159.7" r="10"/>
      <circle class="st20" cx="767.9" cy="188.3" r="10"/>
      <circle class="st20" cx="795.8" cy="186.9" r="10"/>
      <circle class="st20" cx="751" cy="209.2" r="10"/>
      <circle class="st20" cx="821.7" cy="183.5" r="10"/>
      <circle class="st20" cx="778.8" cy="211" r="10"/>
      <circle class="st20" cx="804.9" cy="210.6" r="10"/>
      <circle class="st20" cx="830.3" cy="209" r="10"/>
      <circle class="st20" cx="759.2" cy="235.6" r="10"/>
      <circle class="st20" cx="784.4" cy="235.6" r="10"/>
      <circle class="st20" cx="809.5" cy="235.6" r="10"/>
      <circle class="st20" cx="834.6" cy="235.6" r="10"/>
    </g>
    <circle id="bu" class="st19" cx="147.2" cy="473.7" r="14.4"/>
    <circle id="bv" class="st6" cx="147.2" cy="473.7" r="11.6"/>
    <path id="bw" class="st15" d="M139.2,479.5h-.1c0,.1.4.6.4.6l-.5.4-.5-.6h-.1c0,.1.5.8.5.8h.1l1.3-1h0c0-.1-.1-.1-.1-.1l-.6.4-.4-.5h0ZM138.5,478.5h-.1c0,.1.4.7.4.7l-.5.3-.4-.6h-.1c0,.1.5.8.5.8h.1l1.4-.9h0c0-.1-.5-.9-.5-.9h-.1c0,.1.4.8.4.8l-.6.3-.4-.6h0ZM137.2,478l.2.4h.1l1.5-.7h0c0-.1-.2-.5-.2-.5-.1-.4-.5-.5-.8-.3l-.6.3c-.3.1-.4.5-.3.8h.1ZM137.4,477.9c-.1-.2,0-.4.2-.5l.6-.3c.2-.1.4,0,.5.2v.3c.1,0-1.2.6-1.2.6v-.3h-.2,0ZM137.5,475.9h-.1c0,.1.2.8.2.8l-.6.2-.2-.7h-.1c0,.1.2.9.2.9h.1l1.6-.5h0c0-.1-.2-1-.2-1h-.1c0,.1.2.9.2.9l-.6.2-.2-.7h-.2ZM137.4,474.7c-.1-.2-.3-.3-.6-.3s-.5.3-.4.7v.5h.2l1.6-.2s.1,0,0-.1h-.7c0,.1,0-.2,0-.2h0l.6-.4h0q0-.1-.1-.1h0l-.6.4h0v-.3ZM136.6,475.1c0-.3,0-.4.3-.5.2,0,.4.1.4.4v.3h-.7c0,.1,0-.2,0-.2h0ZM137.9,472.9l-1.6.6s-.1,0-.1.1,0,.1.1.1l1.6.5h.1c0-.1-.4-.1-.4-.1v-.8h.4v-.2s0-.1-.1-.1h0ZM136.5,473.6l.9-.3v.6l-.9-.3h0ZM137.6,471.8h0c.2.1.3.3.3.5s-.2.4-.4.4h-.7c-.2,0-.4-.3-.4-.5s.2-.4.4-.4,0,0,0,0h0c-.3-.1-.5.1-.6.4,0,.4.2.6.5.7h.7c.4.1.6-.1.6-.5s-.1-.6-.4-.6h-.1,0ZM136.6,471.1h-.1c0,.1,1.6.4,1.6.4h.1c0-.1-1.6-.4-1.6-.4h0ZM137.4,469.8c-.4-.1-.6,0-.7.4-.1.4,0,.6.4.8l.7.2c.4.1.6,0,.7-.4s0-.6-.4-.8l-.7-.2h0ZM137.1,470.8c-.2,0-.3-.2-.3-.5s.3-.3.5-.3l.7.2c.2,0,.3.2.3.5s-.3.3-.5.3l-.7-.2h0ZM137.6,468.2h-.1c0,.1,1.2.6,1.2.6h-1.5c0,.1-.1.1-.1.2h0c0,.1,1.5.8,1.5.8h.1c0-.1-1.2-.7-1.2-.7h1.6c0-.1,0-.2.1-.2h0c0-.1-1.5-.8-1.5-.8h-.1ZM138.5,466.7l-.3.4h0c0,.1,1.3,1.1,1.3,1.1h.1l.3-.4c.2-.3.2-.6-.1-.9l-.5-.4c-.3-.2-.6-.2-.9.1h0ZM138.6,466.8c.2-.2.4-.2.6,0l.5.4c.2.1.2.4,0,.6l-.2.3-1.2-.9.2-.3h0ZM140.4,465.9h0q0-.1-.1-.1h0l-.5.5-.4-.4.5-.5h0q0-.1-.1-.1l-.6.6h0c0,.1,1.2,1.2,1.2,1.2h.1l.6-.6h0q0-.1-.1-.1h0l-.6.6-.5-.5.5-.5h0ZM142,465.6h.1c0-.1-.3-.6-.3-.6l.3-.2c.3-.2.4-.5.2-.8s-.5-.4-.8-.2l-.4.2h0c0,.1.9,1.5.9,1.5h0ZM141.7,464c.2-.1.4,0,.6.1s0,.4-.1.6l-.3.2-.4-.7.3-.2h-.1ZM144.1,464.5l-1.1-1.3h-.2c0,0,0,0,0,.1l.2,1.7h0s0,.1.1,0h0v-.5l.6-.3.3.3h.1c.1,0,0,0,0-.1h0ZM142.9,463.4l.7.7-.6.2v-1h-.1,0ZM144.9,463.6c.2-.1.3-.4.2-.6,0-.3-.4-.5-.8-.4h-.4v.2h0l.4,1.6h.1c.1,0,0,0,0-.1l-.2-.6h.3c0-.1.5.5.5.5h.1c0-.1-.4-.6-.4-.6h.2ZM144.4,462.8c.2,0,.4,0,.5.2,0,.2,0,.4-.3.5h-.3l-.2-.6h.3ZM145.2,462.5h.5l.2,1.5s0,.1.1,0h0c0-.1-.2-1.6-.2-1.6h.4c0-.1,0-.2-.1-.2h-1v.2h.1ZM146.8,462.3s0-.1-.1-.1h0s-.1,0-.1.1h0v1.7s.1.1.2.1.1,0,.1-.1v-1.7h0ZM147.9,462.2h-.6v1.7h0c0,.1.5.1.5.1.4,0,.6-.2.7-.5v-.6c0-.4-.2-.6-.6-.6h0ZM147.8,462.4c.3,0,.4.2.4.4v.6c0,.2-.2.4-.5.4h-.4v-1.5h.5ZM150,463.1c0-.4-.1-.6-.5-.7-.4,0-.6.1-.7.5v.7c-.2.4,0,.6.3.7s.6-.1.7-.5v-.7h.2ZM149,462.9c0-.2.2-.4.5-.3s.4.2.3.5v.7c-.2.2-.4.4-.6.3s-.4-.2-.3-.5v-.7h.1ZM151.3,463.6h.1c0-.3,0-.5-.4-.6-.3-.1-.6,0-.7.2,0,.2,0,.4.2.6l.2.2c.1.1.2.2.2.4s-.2.3-.5.2c-.2,0-.3-.2-.3-.4h0c0-.1-.1-.1-.1-.1h0c0,.3,0,.5.4.7.3.1.6,0,.8-.3.1-.3,0-.5-.2-.6l-.2-.2c-.1,0-.1-.2-.1-.3s.2-.2.4-.1c.2,0,.3.2.2.4h0c0,.1,0-.1,0-.1ZM152.9,463.8l-.4-.2h-.1l-.9,1.4h0c0,.1.4.3.4.3.3.2.6.1.9-.2l.3-.5c.2-.3.1-.6-.2-.8h0ZM152.8,464c.2.1.3.4.1.6l-.3.6c-.1.2-.3.3-.6.1l-.3-.2.8-1.2.3.2h0ZM153.9,465.8h.1c0-.1-.5-.5-.5-.5l.4-.5.6.5h.1c0-.1-.7-.7-.7-.7h-.1l-1.1,1.3h0c0,.1.7.7.7.7h.1c0-.1-.6-.6-.6-.6l.4-.5.5.4h.1ZM155,465.6h0c0-.1-.1-.1-.1-.1l-1.2,1.1h0c0,.1.6.7.6.7h.1c0-.1-.5-.6-.5-.6l1.1-1.1h0ZM154.8,467.9h0q0,.1.1.1l.5-.3.2.3c.2.3.5.4.8.2.3-.2.4-.5.2-.8l-.2-.4h-.1l-1.4.9h-.1ZM156.4,467.5c.1.2,0,.4-.1.6s-.4,0-.6-.1l-.2-.3.7-.4.2.3h0ZM157.4,469.2h-.1l-1.1.5c-.2,0-.4,0-.5-.2s0-.4.2-.5l1.1-.5h0q0-.1-.1-.1h0l-1.1.5c-.3.1-.4.5-.3.8.1.3.4.5.8.3l1.1-.5h0c0-.1,0-.3,0-.3ZM156.9,470.8h.1c0-.1-.2-.8-.2-.8l.6-.2.2.7h.1c0-.1-.2-.9-.2-.9h-.1l-1.6.5h0c0,.1.3,1,.3,1h.1c0-.1-.2-.9-.2-.9l.6-.2.2.7h0ZM156.3,471.3h0v.6c0,.3.3.5.6.5s.4-.2.4-.4h0c0,.2.3.2.4.2.3,0,.4-.3.4-.6v-.5h-.2l-1.6.3h0ZM157.9,471.6c0,.2,0,.4-.2.4s-.3,0-.4-.3v-.4h.6c0-.1,0,.3,0,.3h0ZM157.1,471.8c0,.2,0,.4-.3.4s-.4,0-.4-.3v-.4h.6c0-.1,0,.3,0,.3t0,0h0ZM158.1,472.7s.1,0,.1-.1,0-.1-.1-.1h-1.7s-.1.1-.1.2h0v.9h0v-.7h1.5l.3-.2ZM157.6,474.8c.4,0,.6-.2.6-.6s-.2-.6-.6-.6h-.7c-.4,0-.6.2-.6.5s.2.6.6.6h.7ZM157.7,473.8c.2,0,.4.2.4.4s-.2.4-.4.4h-.7c-.2,0-.4-.2-.4-.5s.2-.4.4-.4h.7ZM157.8,476.4h.1c0-.1-1.6-.6-1.6-.6h-.1c0,.1,1.3.5,1.3.5h-.8v.2h0c0,.1.6.7.6.7l-1.3-.4h-.1c0,.1,1.6.6,1.6.6h.1c0-.1-.7-.8-.7-.8l1-.2h-.1ZM156,478.3h0c0,.1.1.1.1.1h0l.3-.6.6.3-.3.7h0c0,.1.1.1.1.1l.4-.8h0c0-.1-1.5-.8-1.5-.8h-.1l-.4.8h0c0,.1.1.1.1.1h0l.3-.7.6.3-.3.6h0ZM156.6,479.2h0c0-.1-.9-.1-.9-.1l-.4-.9h-.1c0,.1.4.8.4.8h-.9.9l.4.8h.1c0-.1-.4-.8-.4-.8h.8v.2ZM155.8,480.2h.1c0-.1-1.3-1.1-1.3-1.1h-.1c0,.1,1.3,1.1,1.3,1.1h0ZM154.1,480.5h0c-.1-.2-.2-.4,0-.6s.4-.2.6,0l.6.5c.2.1.2.4,0,.5-.2.2-.4.2-.5,0h-.1c.2.3.6.3.8.1.2-.3.2-.6,0-.9l-.5-.5c-.3-.2-.6-.2-.9,0-.2.2-.2.6,0,.8h.1-.1ZM152.7,481.1l1.5.9h.2v-.2l-.7-1.6h-.1c0,.1.2.5.2.5l-.5.5-.3-.2h-.1c0,.1-.2.1-.2.1ZM154.1,481.7l-.8-.5.4-.4.4.9h0ZM152.6,483.1h.1c0-.1-.7-1.2-.7-1.2l1.4.7h.1c0-.1-.9-1.5-.9-1.5h-.1c0,.1.7,1.2.7,1.2l-1.4-.7h-.1c0,.1.9,1.5.9,1.5h0ZM150.9,483.4c.1.3.5.4.8.3s.5-.5.3-.8l-.3-.7c-.1-.3-.5-.4-.8-.3s-.5.5-.3.8l.3.7ZM151.8,483c0,.2,0,.4-.2.5s-.4,0-.5-.2l-.3-.7c0-.2,0-.4.2-.5s.4,0,.5.2l.3.7h0Z"/>
    <path class="st16" d="M147.6,464.9c.7,0,1.5.1,2.2.2,1.7.3,2,1.1,2.8,1.7.6.8,1.1,1,1.7,2.3.4,1.1.4,2.1.6,3.2,0,.9.3,1.9.3,2.8-.2.8.3,1.6-.2,2.5-.4.8-.5,1.1-1.3,1.4-2.5.3-5.1-.3-7.6-.8-1.3-.2-2.6-.5-3.8-.8-1.1-.5-2.7-.9-3.5-1.5-.8-.9-.7-2.8,0-3.4.4-.3.6-.5,1.4-.9.6-.2.6-.8,1.1-1,0-.1.1,0,0-.2.7.1,1.5.4,2.2.3.7,0,1.5,0,2.2-.5h0c-1.3.3-2.6.4-3.9.1-.5-.1-.5-.5-.8-.6-.6-.6-.6-1.8,0-2.2.6-.8,1.2-1.2,2.7-1.8,1.3-.5,2.6-.7,3.8-.7h.1ZM139.6,472.6c2.4,0,4.9.3,7.4.8,2.4.4,4.9,1,7.4,2.3.1,0,0,.1-.1.2-2.5-1.2-4.9-1.9-7.5-2.4-1.2-.3-2.5-.2-3.7-.5-1.2,0-2.5-.2-3.7-.1,0,0-.1,0-.1-.1.1,0,.3,0,.4-.1h0ZM140.9,475.6c2.2.2,4.3.5,6.6,1,1.1.3,2.1.4,3.3.8,1,.3,2.3.8,2.9,1.4h-.1c-2.1-1.2-4.5-1.7-6.7-2.2-2.2-.4-4.5-.9-6.8-.8,0,0-.1.1,0,.2.3.3.9.4,1.3.7-.7,0-1.6-.4-1.6-.9.4-.2.8-.1,1.2-.2h0Z"/>
    <path id="bx" class="st7" d="M140.3,473.5h0v1.3h.7-.6v-1.2h0ZM142.2,473.5h0v1.3h0v-1.3h0ZM143.3,474.9h.4c.3,0,.4-.1.5-.4,0-.2,0-.3-.2-.4h0c.1,0,.2-.2.3-.3,0-.2-.2-.4-.4-.4h-.4v1.3h0l-.2.2ZM143.9,473.7c.2,0,.3.1.3.3s-.1.2-.3.2h-.3v-.5h.3ZM143.9,474.4c.2,0,.3.1.3.3s-.1.2-.3.2h-.3v-.5h.3ZM146.1,474.7h0c-.2-.1-.4-.1-.6-.1v-.5c.3,0,.5,0,.7.1h0c-.2,0-.5,0-.7-.1h0l-.2,1.3h0c.2,0,.5,0,.7.1h0c-.2-.1-.4-.1-.6-.2v-.5h.7ZM148,475.1c.2,0,.3-.1.4-.3,0-.3-.1-.5-.4-.5h-.5c0,.4-.2.9-.2,1.3h0q0,.1.1.1h0c0-.2,0-.3.1-.5h.3c0,.2,0,.4.1.6h.1c0-.2,0-.4-.1-.6h0ZM147.9,474.4c.2,0,.3.2.3.4s-.2.3-.4.2h-.3v-.6h.4ZM149.4,474.7h0c.1.1.2.1.3.2-.1.4-.2.8-.3,1.2h0q0,.1.1.1h0c.1-.4.2-.8.3-1.2.1,0,.2,0,.3.1h0c-.3-.1-.5-.3-.8-.3h0ZM151.7,476.9v-1.4h0c0-.1-.1-.1-.1-.1-.3.4-.5.7-.8,1.1h0c0,.1.1-.1.2-.1.2,0,.4.1.5.2v.3h.2ZM151.6,475.6v.8c-.1,0-.3-.1-.4-.2.1-.2.3-.4.4-.6h0ZM153.6,476.2c-.1,0-.2-.1-.4-.2h-.1l-.4,1.2h0c.1.1.2.2.4.3.3.1.5,0,.6-.2,0-.1.1-.3.2-.5.1-.3,0-.5-.3-.7h0ZM153.6,476.4c.2,0,.3.3.2.4,0,.2-.1.3-.2.5,0,.2-.2.2-.4.1,0,0-.2,0-.3-.1l.4-1.1s.2,0,.3.1h0Z"/>
    <g class="st9">
      <g class="st9">
        <g class="st9">
          <text class="st5" transform="translate(171.5 488)"><tspan x="0" y="0">5</tspan></text>
        </g>
      </g>
    </g>
    <g>
      <g class="st9">
        <text class="st8" transform="translate(972.2 716.8)"><tspan x="0" y="0">178</tspan></text>
      </g>
      <circle class="st1" cx="835.2" cy="716.7" r="5.9"/>
      <circle class="st18" cx="850.5" cy="716" r="5.9"/>
      <circle class="st18" cx="865.2" cy="716" r="5.9"/>
      <circle class="st18" cx="879.9" cy="716" r="5.9"/>
      <circle class="st18" cx="894.6" cy="716" r="5.9"/>
      <circle class="st18" cx="909.3" cy="716" r="5.9"/>
      <circle class="st18" cx="924" cy="716" r="5.9"/>
      <circle class="st18" cx="836.9" cy="699.8" r="5.9"/>
      <circle class="st18" cx="852" cy="700.4" r="5.9"/>
      <circle class="st18" cx="866.8" cy="700.9" r="5.9"/>
      <circle class="st18" cx="881.7" cy="700.8" r="5.9"/>
      <circle class="st18" cx="896.6" cy="700.7" r="5.9"/>
      <circle class="st18" cx="839.6" cy="684.9" r="5.9"/>
      <circle class="st18" cx="911.7" cy="700.6" r="5.9"/>
      <circle class="st18" cx="855.2" cy="686" r="5.9"/>
      <circle class="st18" cx="870.2" cy="686" r="5.9"/>
      <circle class="st18" cx="927.2" cy="698.9" r="5.9"/>
      <circle class="st18" cx="885.5" cy="685.9" r="5.9"/>
      <circle class="st18" cx="844.4" cy="667.7" r="5.9"/>
      <circle class="st18" cx="901.4" cy="685.4" r="5.9"/>
      <circle class="st18" cx="860.2" cy="671.1" r="5.9"/>
      <circle class="st18" cx="875.3" cy="671.7" r="5.9"/>
      <circle class="st18" cx="916.8" cy="683.7" r="5.9"/>
      <circle class="st18" cx="850.6" cy="651.8" r="5.9"/>
      <circle class="st18" cx="891.3" cy="671.7" r="5.9"/>
      <circle class="st18" cx="866.8" cy="657.8" r="5.9"/>
      <circle class="st18" cx="933" cy="683.7" r="5.9"/>
      <circle class="st18" cx="907.9" cy="670.3" r="5.9"/>
      <circle class="st18" cx="882.2" cy="658" r="5.9"/>
      <circle class="st18" cx="858" cy="637" r="5.9"/>
      <circle class="st18" cx="899" cy="657.3" r="5.9"/>
      <circle class="st18" cx="924.7" cy="668.5" r="5.9"/>
      <circle class="st18" cx="874.4" cy="644.2" r="5.9"/>
      <circle class="st18" cx="889.7" cy="644.2" r="5.9"/>
      <circle class="st18" cx="866.8" cy="623" r="5.9"/>
      <circle class="st18" cx="915.3" cy="657.8" r="5.9"/>
      <circle class="st18" cx="942.1" cy="669.5" r="5.9"/>
      <circle class="st18" cx="880.7" cy="630.7" r="5.9"/>
      <circle class="st18" cx="907.7" cy="643.5" r="5.9"/>
      <circle class="st18" cx="877" cy="609.9" r="5.9"/>
      <circle class="st18" cx="896.7" cy="631.4" r="5.9"/>
      <circle class="st18" cx="934.4" cy="657.7" r="5.9"/>
      <circle class="st18" cx="925.2" cy="644.8" r="5.9"/>
      <circle class="st18" cx="890.7" cy="618.1" r="5.9"/>
      <circle class="st18" cx="888.3" cy="597.8" r="5.9"/>
      <circle class="st18" cx="915.5" cy="632" r="5.9"/>
      <circle class="st18" cx="906.1" cy="619.8" r="5.9"/>
      <circle class="st18" cx="953.8" cy="657.4" r="5.9"/>
      <circle class="st18" cx="899.4" cy="606.4" r="5.9"/>
      <circle class="st18" cx="901.1" cy="586.4" r="5.9"/>
      <circle class="st18" cx="944.5" cy="646.3" r="5.9"/>
      <circle class="st18" cx="935.3" cy="634.4" r="5.9"/>
      <circle class="st18" cx="927" cy="621.5" r="5.9"/>
      <circle class="st18" cx="919" cy="609.1" r="5.9"/>
      <circle class="st18" cx="910.8" cy="597.5" r="5.9"/>
      <circle class="st18" cx="914.2" cy="577.2" r="5.9"/>
      <circle class="st18" cx="932.4" cy="601.9" r="5.9"/>
      <ellipse class="st18" cx="940.5" cy="613.6" rx="6.7" ry="6.8"/>
      <circle class="st18" cx="949.7" cy="626.2" r="5.9"/>
      <circle class="st18" cx="958" cy="636.8" r="5.9"/>
      <circle class="st18" cx="967.7" cy="647.8" r="5.9"/>
      <circle class="st18" cx="928.5" cy="568.9" r="5.9"/>
      <circle class="st18" cx="935.9" cy="581.6" r="5.9"/>
      <circle class="st18" cx="944.6" cy="593.6" r="5.9"/>
      <circle class="st18" cx="943.6" cy="561.9" r="5.9"/>
      <circle class="st18" cx="953.4" cy="606.6" r="5.9"/>
      <circle class="st18" cx="951.1" cy="574.8" r="5.9"/>
      <circle class="st18" cx="962" cy="618.5" r="5.9"/>
      <circle class="st18" cx="971.6" cy="631.3" r="5.9"/>
      <circle class="st18" cx="983.3" cy="641.2" r="5.9"/>
      <circle class="st18" cx="959.2" cy="556.5" r="5.9"/>
      <circle class="st18" cx="959.2" cy="588.4" r="5.9"/>
      <circle class="st18" cx="967" cy="569.5" r="5.9"/>
      <circle class="st18" cx="965.9" cy="600.5" r="5.9"/>
      <circle class="st18" cx="974.7" cy="613.8" r="5.9"/>
      <circle class="st18" cx="975.3" cy="552.5" r="5.9"/>
      <circle class="st18" cx="973" cy="583.8" r="5.9"/>
      <circle class="st18" cx="984.7" cy="626.2" r="5.9"/>
      <circle class="st18" cx="983.3" cy="566" r="5.9"/>
      <circle class="st18" cx="981" cy="596.4" r="5.9"/>
      <circle class="st18" cx="1000.3" cy="638.3" r="5.9"/>
      <circle class="st18" cx="991.7" cy="550.1" r="5.9"/>
      <circle class="st18" cx="989.4" cy="610.8" r="5.9"/>
      <circle class="st18" cx="1003.6" cy="579.4" r="5.9"/>
      <circle class="st18" cx="999.9" cy="564.3" r="5.9"/>
      <circle class="st18" cx="995.2" cy="594.4" r="5.9"/>
      <circle class="st18" cx="1008.2" cy="549.3" r="5.9"/>
      <circle class="st18" cx="997.2" cy="623.8" r="5.9"/>
      <circle class="st18" cx="1016.6" cy="564.3" r="5.9"/>
      <circle class="st18" cx="1018.4" cy="579" r="5.9"/>
      <circle class="st18" cx="1004.5" cy="608.4" r="5.9"/>
      <circle class="st18" cx="1024.8" cy="550.1" r="5.9"/>
      <circle class="st18" cx="1017.3" cy="638.3" r="5.9"/>
      <circle class="st18" cx="1025.1" cy="594.9" r="5.9"/>
      <circle class="st18" cx="1033.2" cy="566" r="5.9"/>
      <circle class="st18" cx="1027.4" cy="624.7" r="5.9"/>
      <circle class="st18" cx="1033.5" cy="580.8" r="5.9"/>
      <circle class="st18" cx="1041.2" cy="552.5" r="5.9"/>
      <circle class="st18" cx="1034.8" cy="610.8" r="5.9"/>
      <circle class="st18" cx="1041.6" cy="597.5" r="5.9"/>
      <circle class="st18" cx="1049.5" cy="569.5" r="5.9"/>
      <circle class="st18" cx="1048.3" cy="584.4" r="5.9"/>
      <circle class="st18" cx="1057.3" cy="556.5" r="5.9"/>
      <circle class="st18" cx="1033.2" cy="641.2" r="5.9"/>
      <circle class="st18" cx="1042.9" cy="628.3" r="5.9"/>
      <circle class="st18" cx="1051.5" cy="616.5" r="5.9"/>
      <circle class="st18" cx="1065.4" cy="574.7" r="5.9"/>
      <circle class="st18" cx="1059.1" cy="604.6" r="5.9"/>
      <circle class="st18" cx="1072.9" cy="561.9" r="5.9"/>
      <circle class="st18" cx="1064.6" cy="589.8" r="5.9"/>
      <circle class="st18" cx="1080.6" cy="581.6" r="5.9"/>
      <circle class="st18" cx="1087.2" cy="568.2" r="5.9"/>
      <circle class="st18" cx="1048.8" cy="647.8" r="5.9"/>
      <circle class="st18" cx="1057.1" cy="636.1" r="5.9"/>
      <circle class="st18" cx="1064.5" cy="622.4" r="5.9"/>
      <circle class="st18" cx="1072.8" cy="609.7" r="5.9"/>
      <circle class="st18" cx="1079.1" cy="596.9" r="5.9"/>
      <circle class="st18" cx="1102.3" cy="577.2" r="5.9"/>
      <circle class="st18" cx="1095" cy="590" r="5.9"/>
      <circle class="st18" cx="1092.8" cy="605.6" r="5.9"/>
      <circle class="st18" cx="1084.5" cy="618.5" r="5.9"/>
      <circle class="st18" cx="1077.2" cy="631.4" r="5.9"/>
      <circle class="st18" cx="1069.9" cy="644.3" r="5.9"/>
      <circle class="st18" cx="1115.7" cy="586.9" r="5.9"/>
      <circle class="st18" cx="1108.4" cy="599.9" r="5.9"/>
      <circle class="st18" cx="1062.7" cy="657.4" r="5.9"/>
      <circle class="st18" cx="1104.4" cy="615.8" r="5.9"/>
      <circle class="st18" cx="1097" cy="629" r="5.9"/>
      <circle class="st18" cx="1128.2" cy="597.8" r="5.9"/>
      <circle class="st18" cx="1120.8" cy="611.1" r="5.9"/>
      <circle class="st18" cx="1089.6" cy="642.3" r="5.9"/>
      <circle class="st18" cx="1082.1" cy="655.7" r="5.9"/>
      <circle class="st18" cx="1115.8" cy="627.4" r="5.9"/>
      <circle class="st18" cx="1139.5" cy="609.9" r="5.9"/>
      <circle class="st18" cx="1108.1" cy="641" r="5.9"/>
      <circle class="st18" cx="1131.8" cy="623.7" r="5.9"/>
      <circle class="st18" cx="1074.4" cy="669.5" r="5.9"/>
      <circle class="st18" cx="1100.2" cy="654.8" r="5.9"/>
      <circle class="st18" cx="1149.6" cy="623" r="5.9"/>
      <circle class="st18" cx="1125.8" cy="640.2" r="5.9"/>
      <circle class="st18" cx="1141.5" cy="637.2" r="5.9"/>
      <circle class="st18" cx="1092" cy="669" r="5.9"/>
      <circle class="st18" cx="1117.5" cy="654.3" r="5.9"/>
      <circle class="st18" cx="1158.5" cy="637" r="5.9"/>
      <circle class="st18" cx="1134.3" cy="654" r="5.9"/>
      <circle class="st18" cx="1108.9" cy="668.8" r="5.9"/>
      <circle class="st18" cx="1083.5" cy="683.7" r="5.9"/>
      <circle class="st18" cx="1149.7" cy="651.8" r="5.9"/>
      <circle class="st18" cx="1125.2" cy="668.7" r="5.9"/>
      <circle class="st18" cx="1165.9" cy="651.8" r="5.9"/>
      <circle class="st18" cx="1099.7" cy="683.7" r="5.9"/>
      <circle class="st18" cx="1141.2" cy="668.7" r="5.9"/>
      <circle class="st18" cx="1156.3" cy="667.1" r="5.9"/>
      <circle class="st18" cx="1115.5" cy="683.9" r="5.9"/>
      <circle class="st18" cx="1171.9" cy="667.3" r="5.9"/>
      <circle class="st18" cx="1131" cy="683.9" r="5.9"/>
      <circle class="st18" cx="1089.3" cy="699.1" r="5.9"/>
      <circle class="st18" cx="1146.3" cy="684" r="5.9"/>
      <circle class="st18" cx="1161.3" cy="683" r="5.9"/>
      <circle class="st18" cx="1104.8" cy="699.6" r="5.9"/>
      <circle class="st18" cx="1176.4" cy="683.2" r="5.9"/>
      <circle class="st18" cx="1119.9" cy="699.7" r="5.9"/>
      <circle class="st18" cx="1134.8" cy="699.8" r="5.9"/>
      <circle class="st18" cx="1149.7" cy="699.9" r="5.9"/>
      <circle class="st18" cx="1164.5" cy="699.4" r="5.9"/>
      <circle class="st18" cx="1179.4" cy="699.5" r="5.9"/>
      <circle class="st22" cx="1092.5" cy="716" r="5.9"/>
      <circle class="st22" cx="1107.2" cy="716" r="5.9"/>
      <circle class="st22" cx="1121.9" cy="716" r="5.9"/>
      <circle class="st22" cx="1136.6" cy="716" r="5.9"/>
      <circle class="st22" cx="1151.3" cy="716" r="5.9"/>
      <circle class="st18" cx="1166" cy="716" r="5.9"/>
      <circle class="st18" cx="1180.7" cy="716" r="5.9"/>
      <circle class="st18" cx="1012.6" cy="623.5" r="5.9"/>
      <circle class="st18" cx="1019.2" cy="609" r="5.9" transform="translate(254.8 1517.5) rotate(-80.8)"/>
      <circle class="st18" cx="1009.5" cy="592.8" r="5.9"/>
      <circle class="st18" cx="988.4" cy="579.5" r="5.9"/>
      <circle class="st18" cx="922.4" cy="589.2" r="5.9"/>
    </g>
    <g id="layer1">
      <path id="path2383" class="st17" d="M812.7,547.7c0,7.9-6.4,14.3-14.3,14.3s-14.3-6.4-14.3-14.3,6.4-14.3,14.3-14.3,14.3,6.4,14.3,14.3Z"/>
      <path id="path3155" class="st6" d="M809.5,547.7c0,6.2-5,11.2-11.2,11.2s-11.2-5-11.2-11.2,5-11.2,11.2-11.2,11.2,5,11.2,11.2Z"/>
      <path id="text3157" class="st17" d="M791.8,549.4v4.4h-2.5v-11.9h2.7c1.1,0,1.9,0,2.4.4.5.3.8.8.8,1.7v3.3c0,.8-.2,1.3-.6,1.7-.4.3-1.4.5-2.8.5h0ZM792.7,547v-2.9c0-.4-.3-.6-.9-.6v4.1c.6,0,.9-.2.9-.6h0ZM798.3,549.4v4.4h-2.5v-11.9h2.7c1.1,0,1.9,0,2.4.4.5.3.8.8.8,1.7v3.3c0,.8-.2,1.3-.6,1.7-.4.3-1.4.5-2.8.5h0ZM799.1,547v-2.9c0-.4-.3-.6-.9-.6v4.1c.6,0,.9-.2.9-.6h0ZM802.1,549h2.4v2.7c0,.3.2.4.5.4s.5,0,.5-.4v-1.4c0-.4-.3-.9-.9-1.5-1.1-1.1-1.8-1.8-2.1-2.2s-.4-.8-.4-1.2v-1.3c0-1.5,1-2.3,3-2.3s2.7.7,2.7,2.1v2.1h-2.4v-2.2c0-.2,0-.4-.4-.4s-.5.2-.5.7v.8c0,.4.3,1,.9,1.5,1.1,1,1.8,1.8,2.1,2.2s.4.9.4,1.4v1.5c0,1.6-1,2.4-3,2.4s-2.9-.7-2.9-2.2v-2.7h.1Z"/>
    </g>
    <g class="st9">
      <text class="st4" transform="translate(236.9 717.8)"><tspan x="0" y="0">210</tspan></text>
    </g>
    <g id="_x30_---wikipedia-es-Partido-Popular-Socialista--M-xico--Partido-Popular-Socialista--1">
      <circle class="st17" cx="97.8" cy="717" r="4.7"/>
      <circle class="st17" cx="109.5" cy="717" r="4.7"/>
      <circle class="st17" cx="121.2" cy="717" r="4.7"/>
      <circle class="st17" cx="132.9" cy="717" r="4.7"/>
      <circle class="st17" cx="144.5" cy="717" r="4.7"/>
      <circle class="st17" cx="156.2" cy="717" r="4.7"/>
      <circle class="st17" cx="167.9" cy="717" r="4.7"/>
      <circle class="st17" cx="179.6" cy="717" r="4.7"/>
      <circle class="st17" cx="99.1" cy="701.7" r="4.7"/>
      <circle class="st17" cx="110.9" cy="701.4" r="4.7"/>
    </g>
    <g id="_x31_---wikipedia-es-Partido-Aut-ntico-de-la-Revoluci-n-Mexicana-Partido-Aut-ntico-de-la-Revoluci-n-Mexicana--1">
      <circle class="st10" cx="122.6" cy="701.6" r="4.7"/>
      <circle class="st10" cx="134.4" cy="701.9" r="4.7"/>
      <circle class="st10" cx="146.3" cy="701.5" r="4.7"/>
      <circle class="st10" cx="158.2" cy="701.1" r="4.7"/>
      <circle class="st10" cx="101.6" cy="686.7" r="4.7"/>
    </g>
    <g id="_x32_---wikipedia-es-Partido-Revolucionario-Institucional-Partido-Revolucionario-Institucional--1">
      <circle class="st20" cx="170.1" cy="701.3" r="4.7"/>
      <circle class="st20" cx="113.7" cy="686.1" r="4.7"/>
      <circle class="st20" cx="182" cy="701.7" r="4.7"/>
      <circle class="st20" cx="125.6" cy="686.6" r="4.7" transform="translate(-67 15.7) rotate(-5.7)"/>
      <circle class="st20" cx="137.6" cy="687" r="4.7"/>
      <circle class="st20" cx="149.9" cy="686.4" r="4.7"/>
      <circle class="st20" cx="105.6" cy="671.9" r="4.7"/>
      <circle class="st20" cx="118.1" cy="671.2" r="4.7"/>
      <circle class="st20" cx="162.5" cy="685.6" r="4.7"/>
      <circle class="st20" cx="130.3" cy="671.9" r="4.7"/>
      <circle class="st20" cx="174.7" cy="686.3" r="4.7"/>
      <circle class="st20" cx="142.5" cy="672.7" r="4.7"/>
      <circle class="st20" cx="110.8" cy="657.5" r="4.7"/>
      <circle class="st20" cx="187" cy="687.1" r="4.7"/>
      <circle class="st20" cx="155.5" cy="671.9" r="4.7"/>
      <circle class="st20" cx="123.9" cy="656.7" r="4.7" transform="translate(-64.1 15.4) rotate(-5.7)"/>
      <circle class="st20" cx="136.4" cy="657.8" r="4.7"/>
      <circle class="st20" cx="117.4" cy="643.7" r="4.7"/>
      <circle class="st20" cx="168.9" cy="671" r="4.7"/>
      <circle class="st20" cx="148.9" cy="658.9" r="4.7"/>
      <circle class="st20" cx="131.2" cy="642.9" r="4.7"/>
      <circle class="st20" cx="181.7" cy="672.1" r="4.7"/>
      <circle class="st20" cx="162.8" cy="658.2" r="4.7"/>
      <circle class="st20" cx="144" cy="644.4" r="4.7"/>
      <circle class="st20" cx="125.1" cy="630.6" r="4.7" transform="translate(-61.5 15.4) rotate(-5.7)"/>
      <circle class="st20" cx="194.6" cy="673.6" r="4.7"/>
      <circle class="st20" cx="156.9" cy="646" r="4.7"/>
      <circle class="st20" cx="139.7" cy="629.9" r="4.7"/>
      <circle class="st20" cx="177.4" cy="657.4" r="4.7"/>
      <circle class="st20" cx="134" cy="618.1" r="4.7"/>
      <circle class="st20" cx="152.9" cy="631.8" r="4.7"/>
      <circle class="st20" cx="171.8" cy="645.6" r="4.7"/>
      <circle class="st20" cx="190.8" cy="659.3" r="4.7"/>
      <circle class="st20" cx="166.2" cy="634.1" r="4.7"/>
      <circle class="st20" cx="149.5" cy="617.8" r="4.7"/>
      <circle class="st20" cx="144" cy="606.6" r="4.7"/>
      <circle class="st20" cx="204.4" cy="661.6" r="4.7"/>
      <circle class="st20" cx="187.8" cy="645.2" r="4.7"/>
      <circle class="st20" cx="163.1" cy="620.3" r="4.7"/>
      <circle class="st20" cx="182.4" cy="634.1" r="4.7"/>
      <circle class="st20" cx="160.5" cy="606.7" r="4.7"/>
      <circle class="st20" cx="176.9" cy="623.3" r="4.7"/>
      <circle class="st20" cx="155" cy="595.9" r="4.7"/>
      <circle class="st20" cx="201.8" cy="648" r="4.7"/>
      <circle class="st20" cx="174.5" cy="610" r="4.7"/>
      <circle class="st20" cx="199.8" cy="634.6" r="4.7"/>
      <circle class="st20" cx="172.4" cy="596.8" r="4.7"/>
      <circle class="st20" cx="194.3" cy="624.1" r="4.7"/>
      <circle class="st20" cx="166.9" cy="586.4" r="4.7"/>
      <circle class="st20" cx="188.7" cy="613.8" r="4.7"/>
      <circle class="st20" cx="216.1" cy="651.5" r="4.7"/>
      <circle class="st20" cx="186.9" cy="600.9" r="4.7"/>
      <circle class="st20" cx="214.5" cy="638.6" r="4.7"/>
      <circle class="st20" cx="185.4" cy="588" r="4.7"/>
      <circle class="st20" cx="179.6" cy="577.9" r="4.7"/>
      <circle class="st20" cx="201.5" cy="605.6" r="4.7"/>
      <circle class="st20" cx="207.3" cy="615.7" r="4.7"/>
      <circle class="st20" cx="213.2" cy="625.9" r="4.7"/>
      <circle class="st20" cx="200.2" cy="593.1" r="4.7"/>
      <circle class="st20" cx="193" cy="570.6" r="4.7"/>
      <circle class="st20" cx="199.1" cy="580.7" r="4.7"/>
      <circle class="st20" cx="229.4" cy="643.7" r="4.7"/>
      <circle class="st20" cx="228.5" cy="631.4" r="4.7"/>
      <circle class="st20" cx="215.2" cy="599" r="4.7"/>
      <circle class="st20" cx="221.4" cy="609.1" r="4.7"/>
      <circle class="st20" cx="214.2" cy="586.8" r="4.7"/>
      <circle class="st20" cx="207.1" cy="564.6" r="4.7"/>
      <circle class="st20" cx="227.7" cy="619.1" r="4.7"/>
      <circle class="st20" cx="213.4" cy="574.6" r="4.7"/>
      <circle class="st20" cx="229.5" cy="594" r="4.7"/>
      <circle class="st20" cx="221.6" cy="559.8" r="4.7"/>
      <circle class="st20" cx="244" cy="638.4" r="4.7"/>
      <circle class="st20" cx="228.9" cy="582" r="4.7"/>
      <circle class="st20" cx="236.1" cy="604.2" r="4.7"/>
      <circle class="st20" cx="228.3" cy="570.1" r="4.7"/>
      <circle class="st20" cx="243.5" cy="626.4" r="4.7"/>
      <circle class="st20" cx="243.1" cy="614.6" r="4.7"/>
      <circle class="st20" cx="236.5" cy="556.4" r="4.7"/>
      <circle class="st20" cx="244.2" cy="590.6" r="4.7"/>
      <circle class="st20" cx="243.9" cy="578.8" r="4.7"/>
      <circle class="st20" cx="243.6" cy="567" r="4.7"/>
      <circle class="st20" cx="251.4" cy="601.3" r="4.7"/>
      <circle class="st20" cx="251.6" cy="554.3" r="4.7"/>
      <circle class="st20" cx="259.2" cy="635.6" r="4.7"/>
      <circle class="st20" cx="259" cy="623.9" r="4.7"/>
      <circle class="st20" cx="258.9" cy="612.3" r="4.7"/>
      <circle class="st20" cx="259.3" cy="588.8" r="4.7"/>
      <circle class="st20" cx="259.2" cy="577.2" r="4.7"/>
      <circle class="st20" cx="259.1" cy="565.5" r="4.7"/>
      <circle class="st20" cx="266.9" cy="600.3" r="4.7"/>
      <circle class="st20" cx="266.9" cy="553.6" r="4.7"/>
      <circle class="st20" cx="274.7" cy="565.5" r="4.7"/>
      <circle class="st20" cx="274.6" cy="577.2" r="4.7"/>
      <circle class="st20" cx="274.5" cy="588.8" r="4.7"/>
      <circle class="st20" cx="274.9" cy="612.3" r="4.7"/>
      <circle class="st20" cx="274.8" cy="623.9" r="4.7"/>
      <circle class="st20" cx="274.6" cy="635.6" r="4.7"/>
      <circle class="st20" cx="282.2" cy="554.3" r="4.7"/>
      <circle class="st20" cx="282.4" cy="601.3" r="4.7"/>
      <circle class="st20" cx="290.2" cy="567" r="4.7"/>
      <circle class="st20" cx="289.9" cy="578.8" r="4.7"/>
      <circle class="st20" cx="289.6" cy="590.6" r="4.7"/>
      <circle class="st20" cx="297.3" cy="556.4" r="4.7"/>
      <circle class="st20" cx="290.8" cy="614.6" r="4.7"/>
      <circle class="st20" cx="290.4" cy="626.4" r="4.7"/>
      <circle class="st20" cx="305.5" cy="570.1" r="4.7"/>
      <circle class="st20" cx="297.7" cy="604.2" r="4.7"/>
      <circle class="st20" cx="304.9" cy="582" r="4.7"/>
      <circle class="st20" cx="289.9" cy="638.4" r="4.7"/>
      <circle class="st20" cx="312.2" cy="559.8" r="4.7"/>
      <circle class="st20" cx="304.3" cy="594" r="4.7"/>
      <circle class="st20" cx="320.4" cy="574.6" r="4.7"/>
      <circle class="st20" cx="306.1" cy="619.1" r="4.7"/>
      <circle class="st20" cx="326.7" cy="564.6" r="4.7"/>
      <circle class="st20" cx="319.6" cy="586.8" r="4.7"/>
      <circle class="st20" cx="312.4" cy="609.1" r="4.7"/>
      <circle class="st20" cx="318.7" cy="599" r="4.7"/>
      <circle class="st20" cx="305.3" cy="631.4" r="4.7"/>
      <circle class="st20" cx="304.4" cy="643.7" r="4.7"/>
      <circle class="st20" cx="334.7" cy="580.7" r="4.7"/>
      <circle class="st20" cx="340.8" cy="570.6" r="4.7"/>
      <circle class="st20" cx="333.6" cy="593.1" r="4.7"/>
      <circle class="st20" cx="320.6" cy="625.9" r="4.7"/>
      <circle class="st20" cx="326.5" cy="615.7" r="4.7"/>
      <circle class="st20" cx="332.3" cy="605.6" r="4.7"/>
      <circle class="st20" cx="354.2" cy="577.9" r="4.7"/>
      <circle class="st20" cx="348.5" cy="588" r="4.7"/>
      <circle class="st20" cx="319.3" cy="638.6" r="4.7"/>
      <circle class="st20" cx="346.8" cy="600.6" r="4.7"/>
      <circle class="st20" cx="317.7" cy="651.5" r="4.7"/>
      <circle class="st20" cx="345.1" cy="613.6" r="4.7"/>
      <circle class="st20" cx="366.9" cy="586.4" r="4.7"/>
      <circle class="st20" cx="339.5" cy="623.9" r="4.7"/>
      <circle class="st20" cx="361.4" cy="596.8" r="4.7"/>
      <circle class="st20" cx="334" cy="634.6" r="4.7"/>
      <circle class="st20" cx="359.3" cy="610" r="4.7"/>
      <circle class="st20" cx="332" cy="648" r="4.7"/>
      <circle class="st20" cx="378.8" cy="595.9" r="4.7"/>
      <circle class="st20" cx="356.9" cy="623.3" r="4.7"/>
      <circle class="st20" cx="373.4" cy="606.7" r="4.7"/>
      <circle class="st20" cx="351.4" cy="634.1" r="4.7"/>
      <circle class="st20" cx="370.7" cy="620.3" r="4.7"/>
      <circle class="st20" cx="345.9" cy="645" r="4.7"/>
      <circle class="st20" cx="329.4" cy="661.6" r="4.7"/>
      <circle class="st20" cx="389.8" cy="606.6" r="4.7"/>
      <circle class="st20" cx="384.3" cy="617.8" r="4.7"/>
      <circle class="st20" cx="367.6" cy="634.1" r="4.7"/>
      <circle class="st20" cx="343" cy="659.1" r="4.7"/>
      <circle class="st20" cx="362" cy="645.6" r="4.7"/>
      <circle class="st20" cx="380.9" cy="631.8" r="4.7"/>
      <circle class="st20" cx="399.8" cy="618.1" r="4.7"/>
      <circle class="st20" cx="356.4" cy="657.4" r="4.7"/>
      <circle class="st20" cx="394.1" cy="629.9" r="4.7"/>
      <circle class="st20" cx="376.9" cy="646" r="4.7"/>
      <circle class="st20" cx="339.2" cy="673.4" r="4.7"/>
      <circle class="st20" cx="408.7" cy="630.6" r="4.7"/>
      <circle class="st20" cx="389.8" cy="644.4" r="4.7"/>
      <circle class="st20" cx="371" cy="658.2" r="4.7"/>
      <circle class="st20" cx="352.1" cy="672.1" r="4.7"/>
      <circle class="st20" cx="402.7" cy="642.9" r="4.7"/>
      <circle class="st20" cx="384.9" cy="658.9" r="4.7"/>
      <circle class="st20" cx="364.9" cy="671" r="4.7"/>
      <circle class="st20" cx="416.5" cy="643.7" r="4.7"/>
      <circle class="st20" cx="397.4" cy="657.8" r="4.7"/>
      <circle class="st20" cx="409.9" cy="656.7" r="4.7"/>
      <circle class="st20" cx="378.3" cy="671.9" r="4.7"/>
      <circle class="st20" cx="346.7" cy="686.8" r="4.7"/>
      <circle class="st20" cx="423" cy="657.5" r="4.7"/>
      <circle class="st20" cx="391.4" cy="672.7" r="4.7"/>
      <circle class="st20" cx="359.1" cy="686.3" r="4.7"/>
      <circle class="st20" cx="403.6" cy="671.9" r="4.7"/>
      <circle class="st20" cx="371.3" cy="685.6" r="4.7"/>
      <circle class="st20" cx="415.7" cy="671.2" r="4.7"/>
      <circle class="st20" cx="428.2" cy="671.9" r="4.7"/>
      <circle class="st20" cx="383.9" cy="686.4" r="4.7"/>
    </g>
    <g id="_x33_---wikipedia-es-Partido-Acci-n-Nacional-Partido-Acci-n-Nacional--1">
      <circle class="st22" cx="396.2" cy="687" r="4.7"/>
      <circle class="st22" cx="408.2" cy="686.6" r="4.7"/>
      <circle class="st22" cx="351.8" cy="701.7" r="4.7"/>
      <circle class="st22" cx="420.1" cy="686.1" r="4.7"/>
      <circle class="st22" cx="363.7" cy="701.3" r="4.7"/>
      <circle class="st22" cx="432.2" cy="686.7" r="4.7"/>
      <circle class="st22" cx="375.6" cy="701.1" r="4.7"/>
      <circle class="st22" cx="387.5" cy="701.5" r="4.7"/>
      <circle class="st22" cx="399.4" cy="701.9" r="4.7"/>
      <circle class="st22" cx="411.2" cy="701.6" r="4.7"/>
      <circle class="st22" cx="423" cy="701.4" r="4.7"/>
      <circle class="st22" cx="434.8" cy="701.7" r="4.7"/>
      <circle class="st22" cx="354.2" cy="717" r="4.7"/>
      <circle class="st22" cx="365.9" cy="717" r="4.7"/>
      <circle class="st22" cx="377.6" cy="717" r="4.7"/>
      <circle class="st22" cx="389.3" cy="717" r="4.7"/>
      <circle class="st22" cx="400.9" cy="717" r="4.7"/>
      <circle class="st22" cx="412.6" cy="717" r="4.7"/>
      <circle class="st22" cx="424.3" cy="717" r="4.7"/>
      <circle class="st22" cx="436" cy="717" r="4.7"/>
    </g>
    <g>
      <path id="bg" class="st13" d="M49.8,460.2c6,2,10.3,7.6,10.3,14.2s-4.3,12.2-10.3,14.2v-28.3h0Z"/>
      <path id="bh" class="st12" d="M40.3,460.2v28.4c-6-2-10.4-7.6-10.4-14.2s4.2-12.1,10.1-14.1h.2c0,0,0,0,0,0Z"/>
      <polygon id="bi1" data-name="bi" class="st3" points="49.8 488.6 40.3 488.6 40.3 460.1 49.8 460.1 49.8 488.6"/>
      <polygon id="bj1" data-name="bj" class="st3" points="55.8 480.4 55.8 468.5 52.6 468.5 52.6 480.4 55.8 480.4"/>
      <path id="bk1" data-name="bk" class="st3" d="M32.4,468.5v12h3.1v-4.8h2c1.7-.3,1.9-1.8,1.9-1.8v-3.5c-.1-1.7-1.9-1.9-1.9-1.9h-5.1,0ZM35.6,470.3v2.7c1,0,1-.6,1-.6v-1.3c0-1-1-.9-1-.9h0Z"/>
      <path id="bl1" data-name="bl" class="st0" d="M32.4,468.5v12h3.1v-4.8h2c1.7-.3,1.9-1.8,1.9-1.8v-3.5c-.1-1.7-1.9-1.9-1.9-1.9h-5.1M35.6,470.3v2.7c1,0,1-.6,1-.6v-1.3c0-1-1-.9-1-.9h0Z"/>
      <path id="bm1" data-name="bm" class="st14" d="M41.6,463.9v12h3.1v-5.1c1.4,0,1.1.9,1.1.9v4.1h3.2v-4.7c.2-.9-.9-1.6-.9-1.6.9-.5.9-1.7.9-1.7v-2.1c0-2-2.2-1.9-2.2-1.9h-5.1ZM44.8,465.8v2.7c1,0,1-.6,1-.6v-1.3c0-1-1-.9-1-.9h0Z"/>
      <path id="bn1" data-name="bn" class="st0" d="M41.6,463.9v12h3.1v-5.1c1.4,0,1.1.9,1.1.9v4.1h3.2v-4.7c.2-.9-.9-1.6-.9-1.6.9-.5.9-1.7.9-1.7v-2.1c0-2-2.2-1.9-2.2-1.9h-5.1M44.8,465.8v2.7c1,0,1-.6,1-.6v-1.3c0-1-1-.9-1-.9h0Z"/>
    </g>
    <g>
      <path id="bg1" data-name="bg" class="st13" d="M803.4,461c6,2,10.3,7.6,10.3,14.2s-4.3,12.2-10.3,14.2v-28.3h0Z"/>
      <path id="bh1" data-name="bh" class="st12" d="M793.9,461v28.4c-6-2-10.4-7.6-10.4-14.2s4.2-12.1,10.1-14.1h.2c0,0,0,0,0,0Z"/>
      <polygon id="bi2" data-name="bi" class="st3" points="803.4 489.4 793.9 489.4 793.9 460.9 803.4 460.9 803.4 489.4"/>
      <polygon id="bj2" data-name="bj" class="st3" points="809.3 481.2 809.3 469.3 806.2 469.3 806.2 481.2 809.3 481.2"/>
      <path id="bk2" data-name="bk" class="st3" d="M786,469.3v12h3.1v-4.8h2c1.7-.3,1.9-1.8,1.9-1.8v-3.5c-.1-1.7-1.9-1.9-1.9-1.9h-5.1,0ZM789.2,471.1v2.7c1,0,1-.6,1-.6v-1.3c0-1-1-.9-1-.9h0Z"/>
      <path id="bl2" data-name="bl" class="st0" d="M786,469.3v12h3.1v-4.8h2c1.7-.3,1.9-1.8,1.9-1.8v-3.5c-.1-1.7-1.9-1.9-1.9-1.9h-5.1M789.2,471.1v2.7c1,0,1-.6,1-.6v-1.3c0-1-1-.9-1-.9h0Z"/>
      <path id="bm2" data-name="bm" class="st14" d="M795.2,464.7v12h3.1v-5.1c1.4,0,1.1.9,1.1.9v4.1h3.2v-4.7c.2-.9-.9-1.6-.9-1.6.9-.5.9-1.7.9-1.7v-2.1c0-2-2.2-1.9-2.2-1.9h-5.1ZM798.4,466.6v2.7c1,0,1-.6,1-.6v-1.3c0-1-1-.9-1-.9h0Z"/>
      <path id="bn2" data-name="bn" class="st0" d="M795.2,464.7v12h3.1v-5.1c1.4,0,1.1.9,1.1.9v4.1h3.2v-4.7c.2-.9-.9-1.6-.9-1.6.9-.5.9-1.7.9-1.7v-2.1c0-2-2.2-1.9-2.2-1.9h-5.1M798.4,466.6v2.7c1,0,1-.6,1-.6v-1.3c0-1-1-.9-1-.9h0Z"/>
    </g>
  </g>
  <g>
    <path id="bg2" data-name="bg" class="st13" d="M413.3,62.2c20.1,6.7,34.6,25.6,34.6,47.7s-14.5,41-34.6,47.7V62.2h0Z"/>
    <path id="bh2" data-name="bh" class="st12" d="M381.2,62.2v95.6c-20.3-6.6-34.9-25.5-34.9-47.8s14.3-40.7,34.1-47.6l.8-.2h0Z"/>
    <polygon id="bi3" data-name="bi" class="st3" points="413.2 157.8 381.1 157.8 381.1 61.7 413.2 61.7 413.2 157.8"/>
    <polygon id="bj3" data-name="bj" class="st3" points="433.2 130.3 433.2 90 422.7 90 422.7 130.3 433.2 130.3"/>
    <path id="bk3" data-name="bk" class="st3" d="M354.5,90v40.3h10.5v-16h6.6c5.8-1.1,6.4-6,6.4-6v-11.7c-.4-5.6-6.3-6.5-6.3-6.5h-17.2,0ZM365.5,96.3v9.2c3.3,0,3.4-1.9,3.4-1.9v-4.3c.1-3.3-3.4-2.9-3.4-2.9h0Z"/>
    <path id="bl3" data-name="bl" class="st0" d="M354.5,90v40.3h10.5v-16h6.6c5.8-1.1,6.4-6,6.4-6v-11.7c-.4-5.6-6.3-6.5-6.3-6.5h-17.2M365.5,96.3v9.2c3.3,0,3.4-1.9,3.4-1.9v-4.3c.1-3.3-3.4-2.9-3.4-2.9h0Z"/>
    <path id="bm3" data-name="bm" class="st14" d="M385.6,74.6v40.3h10.5v-17.1c4.6-.2,3.7,3.2,3.7,3.2v13.9h10.7v-15.9c.7-3.2-3.2-5.3-3.2-5.3,3.2-1.8,3-5.6,3-5.6v-7c0-6.8-7.5-6.5-7.5-6.5h-17.2ZM396.4,81.1v9.2c3.3,0,3.4-1.9,3.4-1.9v-4.3c.1-3.3-3.4-2.9-3.4-2.9h0Z"/>
    <path id="bn3" data-name="bn" class="st0" d="M385.6,74.6v40.3h10.5v-17.1c4.6-.2,3.7,3.2,3.7,3.2v13.9h10.7v-15.9c.7-3.2-3.2-5.3-3.2-5.3,3.2-1.8,3-5.6,3-5.6v-7c0-6.8-7.5-6.5-7.5-6.5h-17.2M396.4,81.1v9.2c3.3,0,3.4-1.9,3.4-1.9v-4.3c.1-3.3-3.4-2.9-3.4-2.9h0Z"/>
  </g>
</svg>