<?xml version="1.0" encoding="UTF-8"?><svg id="b" xmlns="http://www.w3.org/2000/svg" viewBox="0 0 1323.82 786.63"><g id="c"><rect width="1323.82" height="786.63" fill="#282828"/></g><g id="d"><text transform="translate(331.54 64.88) scale(1.16 1)" fill="#fff" font-family="Helvetica-Bold, Helvetica" font-size="30.95" font-weight="700" isolation="isolate"><tspan x="0" y="0">Senadores XXXVI y XXXVII Legislatura</tspan></text><text transform="translate(28.76 477.66) scale(1.16 1)" fill="#fff" font-family="Helvetica-Bold, Helvetica" font-size="30.95" font-weight="700" isolation="isolate"><tspan x="0" y="0" xml:space="preserve">Diputados XXXVI  Legislatura</tspan></text><text transform="translate(218.71 742.9)" fill="#fff" font-family="Helvetica-Bold, Helvetica" font-size="48.59" font-weight="700" isolation="isolate"><tspan x="0" y="0">173</tspan></text><g id="e"><circle cx="39.56" cy="741.95" r="7.71" transform="translate(-14.82 .94) rotate(-1.15)" fill="#4da663"/><circle cx="58.85" cy="741.95" r="7.71" fill="#4da663"/><circle cx="78.15" cy="741.95" r="7.71" fill="#4da663"/><circle cx="97.45" cy="741.95" r="7.71" fill="#4da663"/><circle cx="116.75" cy="741.95" r="7.71" fill="#4da663"/><circle cx="136.07" cy="741.95" r="7.71" fill="#4da663"/><circle cx="155.39" cy="741.95" r="7.71" fill="#4da663"/><circle cx="41.34" cy="720.27" r="7.71" fill="#4da663"/><circle cx="60.83" cy="720.12" r="7.71" fill="#4da663"/><circle cx="80.23" cy="720.75" r="7.71" fill="#4da663"/><circle cx="99.79" cy="720.65" r="7.71" fill="#4da663"/><circle cx="119.42" cy="720.51" r="7.71" fill="#4da663"/><circle cx="45.2" cy="698.85" r="7.71" transform="translate(-13.96 1.04) rotate(-1.15)" fill="#4da663"/><circle cx="139.18" cy="720.34" r="7.71" fill="#4da663"/><circle cx="65.08" cy="698.62" r="7.71" fill="#4da663"/><circle cx="84.68" cy="699.93" r="7.71" fill="#4da663"/><circle cx="159.13" cy="720.12" r="7.71" fill="#4da663"/><circle cx="104.81" cy="699.81" r="7.71" fill="#4da663"/><circle cx="51.09" cy="677.91" r="7.71" fill="#4da663"/><circle cx="125.16" cy="699.69" r="7.71" fill="#4da663"/><circle cx="71.6" cy="677.7" r="7.71" fill="#4da663"/><circle cx="91.47" cy="679.75" r="7.71" fill="#4da663"/><circle cx="145.87" cy="699.55" r="7.71" fill="#4da663"/><circle cx="58.96" cy="657.64" r="7.71" fill="#4da663"/><circle cx="112.42" cy="679.79" r="7.71" fill="#4da663"/><circle cx="80.28" cy="657.59" r="7.71" fill="#4da663"/><circle cx="167.14" cy="699.46" r="7.71" fill="#4da663"/><circle cx="133.84" cy="679.9" r="7.71" fill="#4da663"/><circle cx="100.5" cy="660.46" r="7.71" fill="#4da663"/><circle cx="68.74" cy="638.21" r="7.71" fill="#4da663"/><circle cx="122.52" cy="660.88" r="7.71" fill="#4da663"/><circle cx="155.93" cy="680.18" r="7.71" fill="#4da663"/><circle cx="91.04" cy="638.49" r="7.71" fill="#4da663"/><circle cx="111.64" cy="642.32" r="7.71" fill="#4da663"/><circle cx="80.34" cy="619.81" r="7.71" fill="#4da663"/><circle cx="145.27" cy="661.57" r="7.71" fill="#4da663"/><circle cx="179.1" cy="680.8" r="7.71" fill="#4da663"/><circle cx="103.75" cy="620.65" r="7.71" fill="#4da663"/><circle cx="134.92" cy="643.42" r="7.71" fill="#4da663"/><circle cx="93.64" cy="602.6" r="7.71" fill="#4da663"/><circle cx="124.77" cy="625.56" r="7.71" fill="#4da663"/><circle cx="169.09" cy="662.76" r="7.71" fill="#4da663"/><circle cx="159.24" cy="645.09" r="7.71" fill="#4da663"/><circle cx="118.28" cy="604.23" r="7.71" fill="#4da663"/><circle cx="108.53" cy="586.74" r="7.71" fill="#4da663"/><circle cx="149.44" cy="627.66" r="7.71" fill="#4da663"/><circle cx="139.71" cy="610.39" r="7.71" fill="#4da663"/><circle cx="194.51" cy="664.9" r="7.71" fill="#4da663"/><circle cx="134.46" cy="589.45" r="7.71" fill="#4da663"/><circle cx="124.89" cy="572.39" r="7.71" fill="#4da663"/><circle cx="184.98" cy="647.79" r="7.71" fill="#4da663"/><circle cx="175.42" cy="630.8" r="7.71" fill="#4da663"/><circle cx="165.85" cy="613.87" r="7.71" fill="#4da663"/><circle cx="156.26" cy="597" r="7.71" fill="#4da663"/><circle cx="152.1" cy="576.47" r="7.71" fill="#4da663"/><circle cx="142.53" cy="559.68" r="7.71" fill="#4da663"/><circle cx="174.22" cy="585.57" r="7.71" fill="#4da663"/><circle cx="183.87" cy="602.28" r="7.71" fill="#4da663"/><circle cx="193.51" cy="618.97" r="7.71" transform="translate(-448.47 710.84) rotate(-80.78)" fill="#4da663"/><circle cx="203.15" cy="635.67" r="7.71" transform="translate(-456.85 734.37) rotate(-80.78)" fill="#4da663"/><circle cx="212.8" cy="652.38" r="7.71" fill="#4da663"/><circle cx="161.32" cy="548.72" r="7.71" fill="#4da663"/><circle cx="171.02" cy="565.42" r="7.71" fill="#4da663"/><circle cx="193.36" cy="576.25" r="7.71" transform="translate(-406.42 674.81) rotate(-80.78)" fill="#4da663"/><circle cx="181.08" cy="539.61" r="7.71" fill="#4da663"/><circle cx="203.21" cy="593.06" r="7.71" fill="#4da663"/><circle cx="191" cy="556.41" r="7.71" transform="translate(-388.82 655.82) rotate(-80.78)" fill="#4da663"/><circle cx="213.11" cy="609.89" r="7.71" fill="#4da663"/><circle cx="223.08" cy="626.77" r="7.71" fill="#4da663"/><circle cx="233.19" cy="643.74" r="7.71" fill="#4da663"/><circle cx="201.61" cy="532.43" r="7.71" fill="#4da663"/><circle cx="213.45" cy="569.15" r="7.71" fill="#4da663"/><circle cx="211.83" cy="549.58" r="7.71" fill="#4da663"/><circle cx="223.57" cy="586.36" r="7.71" fill="#4da663"/><circle cx="233.81" cy="603.72" r="7.71" fill="#4da663"/><circle cx="222.73" cy="527.26" r="7.71" fill="#4da663"/><circle cx="234.19" cy="564.36" r="7.71" fill="#4da663"/><circle cx="244.23" cy="621.33" r="7.71" fill="#4da663"/><circle cx="233.25" cy="544.98" r="7.71" fill="#4da663"/><circle cx="244.61" cy="582.3" r="7.71" fill="#4da663"/><circle cx="254.91" cy="639.34" r="7.71" fill="#4da663"/><circle cx="244.26" cy="524.14" r="7.71" fill="#4da663"/><circle cx="255.19" cy="600.62" r="7.71" fill="#4da663"/><circle cx="255.34" cy="561.96" r="7.71" fill="#4da663"/><circle cx="255.03" cy="542.66" r="7.71" fill="#4da663"/><circle cx="265.99" cy="580.94" r="7.71" fill="#4da663"/><circle cx="265.99" cy="523.09" r="7.71" fill="#4da663"/><circle cx="265.99" cy="619.5" r="7.71" fill="#4da663"/><circle cx="276.95" cy="542.66" r="7.71" fill="#4da663"/><circle cx="276.64" cy="561.96" r="7.71" fill="#4da663"/><circle cx="276.79" cy="600.62" r="7.71" fill="#4da663"/><circle cx="287.72" cy="524.14" r="7.71" fill="#4da663"/><circle cx="277.07" cy="639.34" r="7.71" fill="#4da663"/><circle cx="287.37" cy="582.3" r="7.71" fill="#4da663"/><circle cx="298.73" cy="544.98" r="7.71" fill="#4da663"/><circle cx="287.75" cy="621.33" r="7.71" fill="#4da663"/><circle cx="297.79" cy="564.36" r="7.71" fill="#4da663"/><circle cx="309.25" cy="527.26" r="7.71" fill="#4da663"/><circle cx="298.17" cy="603.72" r="7.71" fill="#4da663"/><circle cx="308.41" cy="586.36" r="7.71" fill="#4da663"/><circle cx="320.15" cy="549.58" r="7.71" fill="#4da663"/><circle cx="318.54" cy="569.15" r="7.71" fill="#4da663"/><circle cx="330.37" cy="532.43" r="7.71" fill="#4da663"/><circle cx="298.79" cy="643.74" r="7.71" fill="#4da663"/><circle cx="308.9" cy="626.77" r="7.71" fill="#4da663"/><circle cx="318.87" cy="609.89" r="7.71" fill="#4da663"/><circle cx="340.98" cy="556.41" r="7.71" fill="#4da663"/><circle cx="328.77" cy="593.06" r="7.71" fill="#4da663"/><circle cx="350.9" cy="539.61" r="7.71" fill="#4da663"/><circle cx="338.62" cy="576.25" r="7.71" fill="#4da663"/><circle cx="360.96" cy="565.42" r="7.71" fill="#4da663"/><circle cx="370.66" cy="548.72" r="7.71" transform="translate(-261.93 744.47) rotate(-73.15)" fill="#4da663"/><circle cx="319.18" cy="652.38" r="7.71" fill="#4da663"/><circle cx="328.83" cy="635.67" r="7.71" fill="#4da663"/><circle cx="338.47" cy="618.97" r="7.71" fill="#4da663"/><circle cx="348.11" cy="602.28" r="7.71" fill="#4da663"/><circle cx="357.76" cy="585.57" r="7.71" fill="#4da663"/><circle cx="389.45" cy="559.68" r="7.71" fill="#4da663"/><circle cx="379.88" cy="576.47" r="7.71" fill="#4da663"/><circle cx="375.72" cy="597" r="7.71" fill="#4da663"/><circle cx="366.13" cy="613.87" r="7.71" fill="#4da663"/><circle cx="356.56" cy="630.8" r="7.71" fill="#4da663"/><circle cx="347" cy="647.79" r="7.71" fill="#4da663"/><circle cx="407.09" cy="572.39" r="7.71" fill="#4da663"/><circle cx="397.52" cy="589.45" r="7.71" fill="#4da663"/><circle cx="337.47" cy="664.9" r="7.71" fill="#4da663"/><circle cx="392.27" cy="610.39" r="7.71" fill="#4da663"/><circle cx="382.54" cy="627.66" r="7.71" fill="#4da663"/><circle cx="423.45" cy="586.74" r="7.71" fill="#4da663"/><circle cx="413.7" cy="604.23" r="7.71" fill="#4da663"/><circle cx="372.74" cy="645.09" r="7.71" fill="#4da663"/><circle cx="362.89" cy="662.76" r="7.71" fill="#4da663"/><circle cx="407.21" cy="625.56" r="7.71" fill="#4da663"/><circle cx="438.34" cy="602.6" r="7.71" fill="#4da663"/><circle cx="397.06" cy="643.42" r="7.71" fill="#4da663"/><circle cx="428.23" cy="620.65" r="7.71" fill="#4da663"/><circle cx="352.89" cy="680.8" r="7.71" fill="#4da663"/><circle cx="386.71" cy="661.57" r="7.71" fill="#4da663"/><circle cx="451.64" cy="619.81" r="7.71" fill="#4da663"/><circle cx="420.34" cy="642.32" r="7.71" fill="#4da663"/><circle cx="440.94" cy="638.49" r="7.71" fill="#4da663"/><circle cx="376.05" cy="680.18" r="7.71" transform="translate(-362.98 920.82) rotate(-79.1)" fill="#4da663"/><circle cx="409.47" cy="660.88" r="7.71" fill="#4da663"/><circle cx="463.24" cy="638.21" r="7.71" fill="#4da663"/><circle cx="431.48" cy="660.46" r="7.71" fill="#4da663"/><circle cx="398.14" cy="679.9" r="7.71" fill="#4da663"/><circle cx="364.84" cy="699.46" r="7.71" fill="#4da663"/><circle cx="451.7" cy="657.59" r="7.71" fill="#4da663"/><circle cx="419.56" cy="679.79" r="7.71" fill="#4da663"/><circle cx="473.02" cy="657.64" r="7.71" fill="#4da663"/><circle cx="386.12" cy="699.55" r="7.71" fill="#4da663"/><circle cx="440.51" cy="679.75" r="7.71" fill="#4da663"/><circle cx="460.38" cy="677.7" r="7.71" fill="#4da663"/><circle cx="406.82" cy="699.69" r="7.71" fill="#4da663"/><circle cx="480.89" cy="677.91" r="7.71" fill="#4da663"/><circle cx="427.17" cy="699.81" r="7.71" fill="#4da663"/><circle cx="372.85" cy="720.12" r="7.71" transform="translate(-397.7 972.8) rotate(-80.78)" fill="#4da663"/><circle cx="447.3" cy="699.93" r="7.71" fill="#4da663"/><circle cx="466.9" cy="698.62" r="7.71" fill="#4da663"/><circle cx="392.8" cy="720.34" r="7.71" fill="#4da663"/><circle cx="486.78" cy="698.85" r="7.71" fill="#4da663"/><circle cx="412.56" cy="720.51" r="7.71" fill="#4da663"/><circle cx="432.2" cy="720.65" r="7.71" fill="#4da663"/><circle cx="451.75" cy="720.75" r="7.71" fill="#4da663"/><circle cx="471.15" cy="720.12" r="7.71" fill="#4da663"/><circle cx="490.64" cy="720.27" r="7.71" fill="#4da663"/><circle cx="376.59" cy="741.95" r="7.71" fill="#4da663"/><circle cx="395.91" cy="741.95" r="7.71" fill="#4da663"/><circle cx="415.23" cy="741.95" r="7.71" fill="#4da663"/><circle cx="434.53" cy="741.95" r="7.71" fill="#4da663"/><circle cx="453.83" cy="741.95" r="7.71" fill="#4da663"/><circle cx="473.13" cy="741.95" r="7.71" fill="#4da663"/><circle cx="492.42" cy="741.95" r="7.71" fill="#4da663"/></g><text transform="translate(785.36 472.23) scale(1.16 1)" fill="#fff" font-family="Helvetica-Bold, Helvetica" font-size="30.95" font-weight="700" isolation="isolate"><tspan x="0" y="0" xml:space="preserve">Diputados XXXVI  Legislatura</tspan></text><text transform="translate(999.27 745.4)" fill="#fff" font-family="Helvetica-Bold, Helvetica" font-size="48.59" font-weight="700" isolation="isolate"><tspan x="0" y="0">173</tspan></text><g id="f"><circle cx="820.12" cy="744.44" r="7.71" transform="translate(-14.72 16.54) rotate(-1.15)" fill="#4da663"/><circle cx="839.41" cy="744.44" r="7.71" fill="#4da663"/><circle cx="858.71" cy="744.44" r="7.71" fill="#4da663"/><circle cx="878.01" cy="744.44" r="7.71" fill="#4da663"/><circle cx="897.31" cy="744.44" r="7.71" fill="#4da663"/><circle cx="916.63" cy="744.44" r="7.71" fill="#4da663"/><circle cx="935.96" cy="744.44" r="7.71" fill="#4da663"/><circle cx="821.91" cy="722.76" r="7.71" fill="#4da663"/><circle cx="841.4" cy="722.62" r="7.71" fill="#4da663"/><circle cx="860.79" cy="723.25" r="7.71" fill="#4da663"/><circle cx="880.35" cy="723.14" r="7.71" fill="#4da663"/><circle cx="899.99" cy="723.01" r="7.71" fill="#4da663"/><circle cx="825.77" cy="701.34" r="7.71" transform="translate(-13.85 16.65) rotate(-1.15)" fill="#4da663"/><circle cx="919.75" cy="722.83" r="7.71" fill="#4da663"/><circle cx="845.65" cy="701.11" r="7.71" fill="#4da663"/><circle cx="865.25" cy="702.42" r="7.71" fill="#4da663"/><circle cx="939.7" cy="722.62" r="7.71" fill="#4da663"/><circle cx="885.37" cy="702.3" r="7.71" fill="#4da663"/><circle cx="831.65" cy="680.41" r="7.71" fill="#4da663"/><circle cx="905.72" cy="702.18" r="7.71" fill="#4da663"/><circle cx="852.17" cy="680.19" r="7.71" fill="#4da663"/><circle cx="872.03" cy="682.25" r="7.71" fill="#4da663"/><circle cx="926.43" cy="702.05" r="7.71" fill="#4da663"/><circle cx="839.52" cy="660.14" r="7.71" fill="#4da663"/><circle cx="892.98" cy="682.29" r="7.71" fill="#4da663"/><circle cx="860.85" cy="660.08" r="7.71" fill="#4da663"/><circle cx="947.7" cy="701.95" r="7.71" fill="#4da663"/><circle cx="914.4" cy="682.39" r="7.71" fill="#4da663"/><circle cx="881.06" cy="662.96" r="7.71" fill="#4da663"/><circle cx="849.31" cy="640.7" r="7.71" fill="#4da663"/><circle cx="903.08" cy="663.38" r="7.71" fill="#4da663"/><circle cx="936.5" cy="682.68" r="7.71" fill="#4da663"/><circle cx="871.6" cy="640.98" r="7.71" fill="#4da663"/><circle cx="892.2" cy="644.82" r="7.71" fill="#4da663"/><circle cx="860.9" cy="622.3" r="7.71" fill="#4da663"/><circle cx="925.83" cy="664.06" r="7.71" fill="#4da663"/><circle cx="959.66" cy="683.3" r="7.71" fill="#4da663"/><circle cx="884.32" cy="623.14" r="7.71" fill="#4da663"/><circle cx="915.48" cy="645.91" r="7.71" fill="#4da663"/><circle cx="874.21" cy="605.1" r="7.71" fill="#4da663"/><circle cx="905.33" cy="628.05" r="7.71" fill="#4da663"/><circle cx="949.66" cy="665.25" r="7.71" fill="#4da663"/><circle cx="939.8" cy="647.58" r="7.71" fill="#4da663"/><circle cx="898.84" cy="606.73" r="7.71" fill="#4da663"/><circle cx="889.09" cy="589.24" r="7.71" fill="#4da663"/><circle cx="930.01" cy="630.16" r="7.71" fill="#4da663"/><circle cx="920.27" cy="612.88" r="7.71" fill="#4da663"/><circle cx="975.07" cy="667.4" r="7.71" fill="#4da663"/><circle cx="915.02" cy="591.95" r="7.71" fill="#4da663"/><circle cx="905.45" cy="574.89" r="7.71" fill="#4da663"/><circle cx="965.54" cy="650.28" r="7.71" fill="#4da663"/><circle cx="955.99" cy="633.29" r="7.71" fill="#4da663"/><circle cx="946.42" cy="616.37" r="7.71" fill="#4da663"/><circle cx="936.82" cy="599.49" r="7.71" fill="#4da663"/><circle cx="932.66" cy="578.96" r="7.71" fill="#4da663"/><circle cx="923.09" cy="562.17" r="7.71" fill="#4da663"/><circle cx="954.79" cy="588.06" r="7.71" fill="#4da663"/><circle cx="964.44" cy="604.77" r="7.71" fill="#4da663"/><circle cx="974.07" cy="621.47" r="7.71" transform="translate(204.6 1483.41) rotate(-80.78)" fill="#4da663"/><circle cx="983.71" cy="638.16" r="7.71" transform="translate(196.21 1506.95) rotate(-80.78)" fill="#4da663"/><circle cx="993.36" cy="654.87" r="7.71" fill="#4da663"/><circle cx="941.88" cy="551.21" r="7.71" fill="#4da663"/><circle cx="951.59" cy="567.91" r="7.71" fill="#4da663"/><circle cx="973.92" cy="578.75" r="7.71" transform="translate(246.64 1447.39) rotate(-80.78)" fill="#4da663"/><circle cx="961.64" cy="542.1" r="7.71" fill="#4da663"/><circle cx="983.78" cy="595.55" r="7.71" fill="#4da663"/><circle cx="971.56" cy="558.91" r="7.71" transform="translate(264.25 1428.4) rotate(-80.78)" fill="#4da663"/><circle cx="993.67" cy="612.38" r="7.71" fill="#4da663"/><circle cx="1003.65" cy="629.27" r="7.71" fill="#4da663"/><circle cx="1013.76" cy="646.23" r="7.71" fill="#4da663"/><circle cx="982.17" cy="534.92" r="7.71" fill="#4da663"/><circle cx="994.01" cy="571.65" r="7.71" fill="#4da663"/><circle cx="992.39" cy="552.08" r="7.71" fill="#4da663"/><circle cx="1004.13" cy="588.86" r="7.71" fill="#4da663"/><circle cx="1014.38" cy="606.22" r="7.71" fill="#4da663"/><circle cx="1003.29" cy="529.75" r="7.71" fill="#4da663"/><circle cx="1014.75" cy="566.86" r="7.71" fill="#4da663"/><circle cx="1024.8" cy="623.83" r="7.71" fill="#4da663"/><circle cx="1013.81" cy="547.48" r="7.71" fill="#4da663"/><circle cx="1025.17" cy="584.8" r="7.71" fill="#4da663"/><circle cx="1035.47" cy="641.83" r="7.71" fill="#4da663"/><circle cx="1024.82" cy="526.64" r="7.71" fill="#4da663"/><circle cx="1035.76" cy="603.11" r="7.71" fill="#4da663"/><circle cx="1035.9" cy="564.46" r="7.71" fill="#4da663"/><circle cx="1035.59" cy="545.15" r="7.71" fill="#4da663"/><circle cx="1046.55" cy="583.43" r="7.71" fill="#4da663"/><circle cx="1046.55" cy="525.58" r="7.71" fill="#4da663"/><circle cx="1046.55" cy="621.99" r="7.71" fill="#4da663"/><circle cx="1057.51" cy="545.15" r="7.71" fill="#4da663"/><circle cx="1057.2" cy="564.46" r="7.71" fill="#4da663"/><circle cx="1057.35" cy="603.11" r="7.71" fill="#4da663"/><circle cx="1068.28" cy="526.64" r="7.71" fill="#4da663"/><circle cx="1057.63" cy="641.83" r="7.71" fill="#4da663"/><circle cx="1067.93" cy="584.8" r="7.71" fill="#4da663"/><circle cx="1079.3" cy="547.48" r="7.71" fill="#4da663"/><circle cx="1068.31" cy="623.83" r="7.71" fill="#4da663"/><circle cx="1078.35" cy="566.86" r="7.71" fill="#4da663"/><circle cx="1089.81" cy="529.75" r="7.71" fill="#4da663"/><circle cx="1078.73" cy="606.22" r="7.71" fill="#4da663"/><circle cx="1088.98" cy="588.86" r="7.71" fill="#4da663"/><circle cx="1100.72" cy="552.08" r="7.71" fill="#4da663"/><circle cx="1099.1" cy="571.65" r="7.71" fill="#4da663"/><circle cx="1110.94" cy="534.92" r="7.71" fill="#4da663"/><circle cx="1079.35" cy="646.23" r="7.71" fill="#4da663"/><circle cx="1089.46" cy="629.27" r="7.71" fill="#4da663"/><circle cx="1099.44" cy="612.38" r="7.71" fill="#4da663"/><circle cx="1121.54" cy="558.91" r="7.71" fill="#4da663"/><circle cx="1109.33" cy="595.55" r="7.71" fill="#4da663"/><circle cx="1131.46" cy="542.1" r="7.71" fill="#4da663"/><circle cx="1119.18" cy="578.75" r="7.71" fill="#4da663"/><circle cx="1141.52" cy="567.91" r="7.71" fill="#4da663"/><circle cx="1151.22" cy="551.21" r="7.71" transform="translate(290.05 1493.31) rotate(-73.15)" fill="#4da663"/><circle cx="1099.75" cy="654.87" r="7.71" fill="#4da663"/><circle cx="1109.4" cy="638.16" r="7.71" fill="#4da663"/><circle cx="1119.03" cy="621.47" r="7.71" fill="#4da663"/><circle cx="1128.67" cy="604.77" r="7.71" fill="#4da663"/><circle cx="1138.32" cy="588.06" r="7.71" fill="#4da663"/><circle cx="1170.01" cy="562.17" r="7.71" fill="#4da663"/><circle cx="1160.44" cy="578.96" r="7.71" fill="#4da663"/><circle cx="1156.29" cy="599.49" r="7.71" fill="#4da663"/><circle cx="1146.69" cy="616.37" r="7.71" fill="#4da663"/><circle cx="1137.12" cy="633.29" r="7.71" fill="#4da663"/><circle cx="1127.56" cy="650.28" r="7.71" fill="#4da663"/><circle cx="1187.65" cy="574.89" r="7.71" fill="#4da663"/><circle cx="1178.08" cy="591.95" r="7.71" fill="#4da663"/><circle cx="1118.03" cy="667.4" r="7.71" fill="#4da663"/><circle cx="1172.83" cy="612.88" r="7.71" fill="#4da663"/><circle cx="1163.1" cy="630.16" r="7.71" fill="#4da663"/><circle cx="1204.01" cy="589.24" r="7.71" fill="#4da663"/><circle cx="1194.27" cy="606.73" r="7.71" fill="#4da663"/><circle cx="1153.3" cy="647.58" r="7.71" fill="#4da663"/><circle cx="1143.45" cy="665.25" r="7.71" fill="#4da663"/><circle cx="1187.77" cy="628.05" r="7.71" fill="#4da663"/><circle cx="1218.9" cy="605.1" r="7.71" fill="#4da663"/><circle cx="1177.62" cy="645.91" r="7.71" fill="#4da663"/><circle cx="1208.79" cy="623.14" r="7.71" fill="#4da663"/><circle cx="1133.45" cy="683.3" r="7.71" fill="#4da663"/><circle cx="1167.27" cy="664.06" r="7.71" fill="#4da663"/><circle cx="1232.21" cy="622.3" r="7.71" fill="#4da663"/><circle cx="1200.91" cy="644.82" r="7.71" fill="#4da663"/><circle cx="1221.5" cy="640.98" r="7.71" fill="#4da663"/><circle cx="1156.61" cy="682.68" r="7.71" transform="translate(267.53 1689.32) rotate(-79.1)" fill="#4da663"/><circle cx="1190.03" cy="663.38" r="7.71" fill="#4da663"/><circle cx="1243.8" cy="640.7" r="7.71" fill="#4da663"/><circle cx="1212.04" cy="662.96" r="7.71" fill="#4da663"/><circle cx="1178.7" cy="682.39" r="7.71" fill="#4da663"/><circle cx="1145.41" cy="701.95" r="7.71" fill="#4da663"/><circle cx="1232.26" cy="660.08" r="7.71" fill="#4da663"/><circle cx="1200.12" cy="682.29" r="7.71" fill="#4da663"/><circle cx="1253.59" cy="660.14" r="7.71" fill="#4da663"/><circle cx="1166.68" cy="702.05" r="7.71" fill="#4da663"/><circle cx="1221.07" cy="682.25" r="7.71" fill="#4da663"/><circle cx="1240.94" cy="680.19" r="7.71" fill="#4da663"/><circle cx="1187.38" cy="702.18" r="7.71" fill="#4da663"/><circle cx="1261.46" cy="680.41" r="7.71" fill="#4da663"/><circle cx="1207.74" cy="702.3" r="7.71" fill="#4da663"/><circle cx="1153.41" cy="722.62" r="7.71" transform="translate(255.37 1745.38) rotate(-80.78)" fill="#4da663"/><circle cx="1227.86" cy="702.42" r="7.71" fill="#4da663"/><circle cx="1247.46" cy="701.11" r="7.71" fill="#4da663"/><circle cx="1173.36" cy="722.83" r="7.71" fill="#4da663"/><circle cx="1267.34" cy="701.34" r="7.71" fill="#4da663"/><circle cx="1193.12" cy="723.01" r="7.71" fill="#4da663"/><circle cx="1212.76" cy="723.14" r="7.71" fill="#4da663"/><circle cx="1232.32" cy="723.25" r="7.71" fill="#4da663"/><circle cx="1251.71" cy="722.62" r="7.71" fill="#4da663"/><circle cx="1271.2" cy="722.76" r="7.71" fill="#4da663"/><circle cx="1157.15" cy="744.44" r="7.71" fill="#4da663"/><circle cx="1176.48" cy="744.44" r="7.71" fill="#4da663"/><circle cx="1195.79" cy="744.44" r="7.71" fill="#4da663"/><circle cx="1215.09" cy="744.44" r="7.71" fill="#4da663"/><circle cx="1234.39" cy="744.44" r="7.71" fill="#4da663"/><circle cx="1253.7" cy="744.44" r="7.71" fill="#4da663"/><circle cx="1272.98" cy="744.44" r="7.71" fill="#4da663"/></g><text transform="translate(670.25 339.3)" fill="#fff" font-family="Helvetica-Bold, Helvetica" font-size="50.45" font-weight="700" isolation="isolate"><tspan x="0" y="0">58</tspan></text><g id="g"><circle cx="478.02" cy="332.3" r="14.01" fill="#4da663"/><circle cx="513.13" cy="332.32" r="14.01" fill="#4da663"/><circle cx="548.27" cy="332.33" r="14.01" fill="#4da663"/><circle cx="583.49" cy="332.35" r="14.01" fill="#4da663"/><circle cx="483.54" cy="294.56" r="14.01" fill="#4da663"/><circle cx="519.73" cy="294.45" r="14.01" fill="#4da663"/><circle cx="556.46" cy="294.35" r="14.01" fill="#4da663"/><circle cx="495.29" cy="258.27" r="14.01" fill="#4da663"/><circle cx="594.25" cy="294.33" r="14.01" fill="#4da663"/><circle cx="533.7" cy="258.66" r="14.01" fill="#4da663"/><circle cx="512.93" cy="224.45" r="14.01" fill="#4da663"/><circle cx="573.68" cy="259.54" r="14.01" fill="#4da663"/><circle cx="554.51" cy="226.36" r="14.01" fill="#4da663"/><circle cx="535.97" cy="194.06" r="14.01" fill="#4da663"/><circle cx="616.56" cy="261.7" r="14.01" fill="#4da663"/><circle cx="598.89" cy="229.99" r="14.01" fill="#4da663"/><circle cx="581.3" cy="198.82" r="14.01" fill="#4da663"/><circle cx="563.76" cy="167.92" r="14.01" fill="#4da663"/><circle cx="595.51" cy="146.79" r="14.01" fill="#4da663"/><circle cx="613.03" cy="177.14" r="14.01" fill="#4da663"/><circle cx="630.56" cy="207.5" r="14.01" fill="#4da663"/><circle cx="648.08" cy="237.85" r="14.01" fill="#4da663"/><circle cx="630.35" cy="131.26" r="14.01" transform="translate(399.82 732.45) rotate(-80.78)" fill="#4da663"/><circle cx="648.44" cy="162.2" r="14.01" fill="#4da663"/><circle cx="666.76" cy="193.43" r="14.01" fill="#4da663"/><circle cx="667.31" cy="121.77" r="14.01" fill="#4da663"/><circle cx="685.55" cy="225.28" r="14.01" fill="#4da663"/><circle cx="686.1" cy="154.58" r="14.01" fill="#4da663"/><circle cx="705.31" cy="188.65" r="14.01" fill="#4da663"/><circle cx="705.31" cy="118.58" r="14.01" fill="#4da663"/><circle cx="724.53" cy="154.58" r="14.01" fill="#4da663"/><circle cx="725.07" cy="225.28" r="14.01" fill="#4da663"/><circle cx="743.32" cy="121.77" r="14.01" fill="#4da663"/><circle cx="743.86" cy="193.43" r="14.01" fill="#4da663"/><circle cx="762.18" cy="162.2" r="14.01" fill="#4da663"/><circle cx="780.27" cy="131.26" r="14.01" fill="#4da663"/><circle cx="762.55" cy="237.85" r="14.01" fill="#4da663"/><circle cx="780.06" cy="207.5" r="14.01" fill="#4da663"/><circle cx="797.59" cy="177.14" r="14.01" fill="#4da663"/><circle cx="815.11" cy="146.79" r="14.01" fill="#4da663"/><circle cx="846.87" cy="167.92" r="14.01" fill="#4da663"/><circle cx="829.32" cy="198.82" r="14.01" fill="#4da663"/><circle cx="811.73" cy="229.99" r="14.01" fill="#4da663"/><circle cx="794.06" cy="261.7" r="14.01" fill="#4da663"/><circle cx="874.66" cy="194.06" r="14.01" fill="#4da663"/><circle cx="856.12" cy="226.36" r="14.01" fill="#4da663"/><circle cx="836.95" cy="259.54" r="14.01" fill="#4da663"/><circle cx="897.7" cy="224.45" r="14.01" fill="#4da663"/><circle cx="876.93" cy="258.66" r="14.01" fill="#4da663"/><circle cx="816.37" cy="294.33" r="14.01" fill="#4da663"/><circle cx="915.34" cy="258.27" r="14.01" fill="#4da663"/><circle cx="854.17" cy="294.35" r="14.01" fill="#4da663"/><circle cx="890.9" cy="294.45" r="14.01" fill="#4da663"/><circle cx="927.08" cy="294.56" r="14.01" fill="#4da663"/><circle cx="827.14" cy="332.35" r="14.01" fill="#4da663"/><circle cx="862.35" cy="332.33" r="14.01" fill="#4da663"/><circle cx="897.5" cy="332.32" r="14.01" fill="#4da663"/><circle cx="932.6" cy="332.3" r="14.01" fill="#4da663"/></g><g id="h"><g id="i"><g id="j"><path id="k" d="M475.75,148.04c0,28.15-22.82,50.98-50.98,50.98s-50.98-22.82-50.98-50.98,22.82-50.98,50.98-50.98,50.98,22.82,50.98,50.98h0Z"/></g><g id="l"><path id="m" d="M424.77,100.08c-26.49,0-47.96,21.47-47.96,47.96s21.47,47.96,47.96,47.96c5.17,0,10.14-.82,14.81-2.33v-91.25c-4.66-1.51-9.64-2.33-14.81-2.33Z" fill="#f9f9f9"/><path id="n" d="M439.58,102.41v91.25c19.24-6.24,33.15-24.31,33.15-45.63s-13.91-39.39-33.15-45.63h0Z" fill="#83000a"/><path id="o" d="M408.02,103.09c-18.23,6.8-31.21,24.36-31.21,44.95s12.98,38.16,31.21,44.95v-89.9Z" fill="#2cae4b"/></g><g id="p"><g id="q"><path id="r" d="M416.69,127.6v40.89h5.62v-10.04c.11,0,.23.01.34.01,5.81,0,10.51-6.91,10.51-15.42s-4.71-15.42-10.51-15.42c-.09,0-.18,0-.27,0-.02,0-.05,0-.07,0h0s-5.62-.01-5.62-.01h0ZM422.31,132.18c3.77.44,6.73,5.13,6.73,10.85s-2.96,10.4-6.73,10.85v-21.7Z"/></g><path id="s" d="M432.02,168.44h-5.02l-8.59-10.25,5.23-.88,8.39,11.14Z" stroke="#000"/><g id="t"><path id="u" d="M445.57,127.46v41.17h5.62v-29.59l3.2,8.08v.1l.02-.05.02.05v-.1l3.2-8.08v29.59h5.62v-41.17h-5.62v.03l-3.22,8.71-3.22-8.71v-.03h-5.62,0Z" fill="#fff"/></g><g id="v"><path id="w" d="M387.78,127.6v40.89h5.62v-10.05c.12,0,.25.01.37.01,5.81,0,10.51-6.91,10.51-15.42s-4.71-15.42-10.51-15.42c-.09,0-.18,0-.27,0-.03,0-.07,0-.1.01h0s-5.62-.01-5.62-.01ZM393.4,132.17c3.78.42,6.76,5.11,6.76,10.85s-2.98,10.44-6.76,10.85v-21.71Z" fill="#fff"/></g></g></g></g></g></svg>