<?xml version="1.0" encoding="UTF-8"?>
<svg xmlns="http://www.w3.org/2000/svg" version="1.1" viewBox="0 0 1230.4 733.8">
  <!-- Generator: Adobe Illustrator 30.2.1, SVG Export Plug-In . SVG Version: 2.1.1 Build 1)  -->
  <defs>
    <style>
      .st0 {
        fill: none;
      }

      .st1 {
        font-size: 31px;
      }

      .st1, .st2, .st3, .st4, .st5, .st6 {
        fill: #fff;
      }

      .st1, .st3, .st7, .st4 {
        isolation: isolate;
      }

      .st1, .st3, .st4 {
        font-family: Helvetica-Bold, Helvetica;
        font-weight: 700;
      }

      .st8 {
        fill: #06338e;
      }

      .st2, .st9, .st10, .st11, .st12, .st13, .st6 {
        fill-rule: evenodd;
      }

      .st3 {
        font-size: 36px;
      }

      .st9 {
        fill: #00923f;
      }

      .st14 {
        fill: #f0f;
      }

      .st10 {
        fill: #d23026;
      }

      .st4 {
        font-size: 24px;
      }

      .st11 {
        fill: #131516;
      }

      .st13, .st15 {
        fill: #d11f2b;
      }

      .st16 {
        fill: #009150;
      }

      .st6 {
        stroke: #fff;
        stroke-linejoin: round;
        stroke-width: 2px;
      }

      .st17 {
        fill: #282828;
      }

      .st18 {
        fill: red;
      }

      .st19 {
        fill: #05338d;
      }
    </style>
  </defs>
  <g id="Capa_1">
    <g id="Capa_2">
      <g id="c">
        <rect class="st17" x="-69.4" y="-56.4" width="1323.8" height="795.8"/>
      </g>
    </g>
    <g id="b">
      <g class="st7">
        <g class="st7">
          <g class="st7">
            <g class="st7">
              <text class="st1" transform="translate(302.8 26.6) scale(1.2 1)"><tspan x="0" y="0">Senadores XLII y XLVIII Legislatura</tspan></text>
            </g>
          </g>
        </g>
      </g>
      <g class="st7">
        <g class="st7">
          <g class="st7">
            <g class="st7">
              <text class="st1" transform="translate(0 439.4) scale(1.2 1)"><tspan x="0" y="0">Diputados XLII Legislatura</tspan></text>
            </g>
          </g>
        </g>
      </g>
      <g class="st7">
        <g class="st7">
          <g class="st7">
            <g class="st7">
              <text class="st1" transform="translate(758 435.5) scale(1.2 1)"><tspan x="0" y="0" xml:space="preserve">Diputados XLIII  Legislatura</tspan></text>
            </g>
          </g>
        </g>
      </g>
      <g class="st7">
        <g class="st7">
          <g class="st7">
            <g class="st7">
              <text class="st4" transform="translate(68.8 487.7)"><tspan x="0" y="0">155</tspan></text>
            </g>
          </g>
        </g>
      </g>
      <g id="aj">
        <g id="ak">
          <path id="al" class="st19" d="M33.1,496.8h21.3c1.5,0,2.7,1.2,2.7,2.7v21.3c0,1.5-1.2,2.7-2.7,2.7h-21.3c-1.5,0-2.7-1.2-2.7-2.7v-21.3c0-1.5,1.2-2.7,2.7-2.7h0Z"/>
          <g id="am">
            <g id="an">
              <circle id="ao" class="st5" cx="43.8" cy="509.9" r="12.9" transform="translate(-467.1 541) rotate(-88.6)"/>
              <circle id="ap" class="st19" cx="43.8" cy="510.2" r="11.4"/>
              <circle id="aq" class="st5" cx="43.8" cy="510.2" r="10"/>
            </g>
            <path id="ar" class="st8" d="M38.6,509.9c.3,0,.4-.3.4-.7v-2.4c0-.4,0-.6-.4-.6h-.9v3.7h.9ZM35.9,516.1v-11.8h4.1c.7,0,1,.9,1,1.8v3.7c0,1-.3,2.1-1.3,2.1h-1.9v4.3h-1.9,0ZM42.8,512.8h1l-.5-2.5-.5,2.5h0ZM42.3,514.5l-.3,1.6h-1.9l2.1-11.8h2.4l2,11.8h-1.9l-.3-1.6h-2.1ZM46.8,516.1v-11.8h1.7l1.2,4.1v-4.1h1.9v11.8h-1.8l-1.1-3.6v3.6h-1.9Z"/>
          </g>
        </g>
      </g>
      <g class="st7">
        <g class="st7">
          <g class="st7">
            <g class="st7">
              <text class="st4" transform="translate(69.7 523.7)"><tspan x="0" y="0">4</tspan></text>
            </g>
          </g>
        </g>
      </g>
      <g class="st7">
        <g class="st7">
          <g class="st7">
            <g class="st7">
              <text class="st4" transform="translate(69.8 559)"><tspan x="0" y="0">2</tspan></text>
            </g>
          </g>
        </g>
      </g>
      <g class="st7">
        <g class="st7">
          <g class="st7">
            <g class="st7">
              <text class="st4" transform="translate(822.1 488.6)"><tspan x="0" y="0">155</tspan></text>
            </g>
          </g>
        </g>
      </g>
      <g id="bi">
        <g id="bj">
          <path id="bk" class="st19" d="M786.4,497.7h21.3c1.5,0,2.7,1.2,2.7,2.7v21.3c0,1.5-1.2,2.7-2.7,2.7h-21.3c-1.5,0-2.7-1.2-2.7-2.7v-21.3c0-1.5,1.2-2.7,2.7-2.7h0Z"/>
          <g id="bl">
            <g id="bm">
              <circle id="bn" class="st5" cx="797.1" cy="511.1" r="12.9"/>
              <circle id="bo" class="st19" cx="797.1" cy="511.1" r="11.4"/>
              <circle id="bp" class="st5" cx="797.1" cy="511.1" r="10"/>
            </g>
            <path id="bq" class="st8" d="M792,510.8c.3,0,.4-.3.4-.7v-2.4c0-.4,0-.6-.4-.6h-.9v3.7h.9ZM789.2,517v-11.8h4.1c.7,0,1,.9,1,1.8v3.7c0,1-.3,2.1-1.3,2.1h-1.9v4.3h-1.9,0ZM796.1,513.7h1l-.5-2.5-.5,2.5h0ZM795.6,515.4l-.3,1.6h-1.9l2.1-11.8h2.4l2,11.8h-1.9l-.3-1.6h-2.1ZM800.1,517v-11.8h1.7l1.2,4.1v-4.1h1.9v11.8h-1.8l-1.1-3.6v3.6h-1.9Z"/>
          </g>
        </g>
      </g>
      <g class="st7">
        <g class="st7">
          <g class="st7">
            <g class="st7">
              <text class="st4" transform="translate(823 524.6)"><tspan x="0" y="0">5</tspan></text>
            </g>
          </g>
        </g>
      </g>
      <g class="st7">
        <g class="st7">
          <g class="st7">
            <g class="st7">
              <text class="st4" transform="translate(823.1 559.9)"><tspan x="0" y="0">2</tspan></text>
            </g>
          </g>
        </g>
      </g>
      <g class="st7">
        <g class="st7">
          <g class="st7">
            <text class="st3" transform="translate(652.6 243.1)"><tspan x="0" y="0">60</tspan></text>
          </g>
        </g>
      </g>
      <g id="br">
        <circle class="st16" cx="510.3" cy="235.4" r="10"/>
        <circle class="st16" cx="535.7" cy="235.6" r="10"/>
        <circle class="st16" cx="560.8" cy="235.6" r="10"/>
        <circle class="st16" cx="586" cy="235.6" r="10"/>
        <circle class="st16" cx="514.9" cy="209" r="10"/>
        <circle class="st16" cx="540.3" cy="210.6" r="10"/>
        <circle class="st16" cx="566.4" cy="211" r="10"/>
        <circle class="st16" cx="523.5" cy="183.5" r="10"/>
        <circle class="st16" cx="594.2" cy="209.2" r="10"/>
        <circle class="st16" cx="549.5" cy="186.9" r="10"/>
        <circle class="st16" cx="577.3" cy="188.3" r="10"/>
        <circle class="st16" cx="536.2" cy="159.7" r="10"/>
        <circle class="st16" cx="562.8" cy="165.3" r="10"/>
        <circle class="st16" cx="552.7" cy="138.4" r="10"/>
        <circle class="st16" cx="610.3" cy="186.7" r="10"/>
        <circle class="st16" cx="593" cy="168.6" r="10"/>
        <circle class="st16" cx="579.9" cy="146.6" r="10"/>
        <circle class="st16" cx="572.5" cy="120.1" r="10"/>
        <circle class="st16" cx="612.7" cy="152.9" r="10"/>
        <circle class="st16" cx="600.2" cy="131.2" r="10"/>
        <circle class="st16" cx="595" cy="105.3" r="10"/>
        <circle class="st16" cx="632.5" cy="170.3" r="10"/>
        <circle class="st16" cx="622.9" cy="119.9" r="10"/>
        <circle class="st16" cx="635.4" cy="141.9" r="10"/>
        <circle class="st16" cx="619.7" cy="94.5" r="10"/>
        <circle class="st16" cx="647.3" cy="112.9" r="10"/>
        <circle class="st16" cx="645.8" cy="87.8" r="10"/>
        <circle class="st16" cx="658.8" cy="161.7" r="10"/>
        <circle class="st16" cx="660" cy="136.3" r="10"/>
        <circle class="st16" cx="672.6" cy="110.6" r="10"/>
        <circle class="st16" cx="672.6" cy="85.6" r="10"/>
        <circle class="st16" cx="685.2" cy="136.3" r="10"/>
        <circle class="st16" cx="686.4" cy="161.7" r="10"/>
        <circle class="st16" cx="699.5" cy="87.8" r="10"/>
        <circle class="st16" cx="697.9" cy="112.9" r="10"/>
        <circle class="st16" cx="725.6" cy="94.5" r="10"/>
        <circle class="st16" cx="709.8" cy="141.9" r="10"/>
        <circle class="st16" cx="722.3" cy="119.9" r="10"/>
        <circle class="st16" cx="712.7" cy="170.3" r="10"/>
        <circle class="st16" cx="750.2" cy="105.3" r="10"/>
        <circle class="st16" cx="745.1" cy="131.2" r="10"/>
        <circle class="st16" cx="732.5" cy="152.9" r="10"/>
        <circle class="st16" cx="772.8" cy="120.1" r="10"/>
        <circle class="st16" cx="765.3" cy="146.6" r="10"/>
        <circle class="st16" cx="752.2" cy="168.6" r="10"/>
        <circle class="st16" cx="735" cy="186.7" r="10"/>
        <circle class="st16" cx="792.5" cy="138.4" r="10"/>
        <circle class="st16" cx="782.4" cy="165.3" r="10"/>
        <circle class="st16" cx="809" cy="159.7" r="10"/>
        <circle class="st16" cx="767.9" cy="188.3" r="10"/>
        <circle class="st16" cx="795.8" cy="186.9" r="10"/>
        <circle class="st16" cx="751" cy="209.2" r="10"/>
        <circle class="st16" cx="821.7" cy="183.5" r="10"/>
        <circle class="st16" cx="778.8" cy="211" r="10"/>
        <circle class="st16" cx="804.9" cy="210.6" r="10"/>
        <circle class="st16" cx="830.3" cy="209" r="10"/>
        <circle class="st16" cx="759.2" cy="235.6" r="10"/>
        <circle class="st16" cx="784.4" cy="235.6" r="10"/>
        <circle class="st16" cx="809.5" cy="235.6" r="10"/>
        <circle class="st16" cx="834.6" cy="235.6" r="10"/>
      </g>
      <circle id="bu" class="st15" cx="147.2" cy="473.7" r="14.4"/>
      <circle id="bv" class="st5" cx="147.2" cy="473.7" r="11.6"/>
      <path id="bw" class="st12" d="M139.2,479.5h-.1c0,.1.4.6.4.6l-.5.4-.5-.6h-.1c0,.1.5.8.5.8h.1l1.3-1h0c0-.1-.1-.1-.1-.1l-.6.4-.4-.5h0ZM138.5,478.5h-.1c0,.1.4.7.4.7l-.5.3-.4-.6h-.1c0,.1.5.8.5.8h.1l1.4-.9h0c0-.1-.5-.9-.5-.9h-.1c0,.1.4.8.4.8l-.6.3-.4-.6h0ZM137.2,478l.2.4h.1l1.5-.7h0c0-.1-.2-.5-.2-.5-.1-.4-.5-.5-.8-.3l-.6.3c-.3.1-.4.5-.3.8h.1ZM137.4,477.9c-.1-.2,0-.4.2-.5l.6-.3c.2-.1.4,0,.5.2v.3c.1,0-1.2.6-1.2.6v-.3h-.2,0ZM137.5,475.9h-.1c0,.1.2.8.2.8l-.6.2-.2-.7h-.1c0,.1.2.9.2.9h.1l1.6-.5h0c0-.1-.2-1-.2-1h-.1c0,.1.2.9.2.9l-.6.2-.2-.7h-.2,0ZM137.4,474.7c-.1-.2-.3-.3-.6-.3s-.5.3-.4.7v.5h.2l1.6-.2s.1,0,0-.1h-.7c0,.1,0-.2,0-.2h0l.6-.4h0c0,0,0-.1-.1-.1h0l-.6.4h0v-.3ZM136.6,475.1c0-.3,0-.4.3-.5.2,0,.4.1.4.4v.3h-.7c0,.1,0-.2,0-.2h0ZM137.9,472.9l-1.6.6s-.1,0-.1.1,0,.1.1.1l1.6.5h.1c0-.1-.4-.1-.4-.1v-.8h.4v-.2s0-.1-.1-.1h0ZM136.5,473.6l.9-.3v.6l-.9-.3h0ZM137.6,471.8h0c.2.1.3.3.3.5s-.2.4-.4.4h-.7c-.2,0-.4-.3-.4-.5s.2-.4.4-.4,0,0,0,0h0c-.3-.1-.5.1-.6.4,0,.4.2.6.5.7h.7c.4.1.6-.1.6-.5s-.1-.6-.4-.6h-.1,0ZM136.6,471.1h-.1c0,.1,1.6.4,1.6.4h.1c0-.1-1.6-.4-1.6-.4h0ZM137.4,469.8c-.4-.1-.6,0-.7.4-.1.4,0,.6.4.8l.7.2c.4.1.6,0,.7-.4s0-.6-.4-.8l-.7-.2h0ZM137.1,470.8c-.2,0-.3-.2-.3-.5s.3-.3.5-.3l.7.2c.2,0,.3.2.3.5s-.3.3-.5.3l-.7-.2h0ZM137.6,468.2h-.1c0,.1,1.2.6,1.2.6h-1.5c0,.1-.1.1-.1.2h0c0,.1,1.5.8,1.5.8h.1c0-.1-1.2-.7-1.2-.7h1.6c0-.1,0-.2.1-.2h0c0-.1-1.5-.8-1.5-.8h-.1ZM138.5,466.7l-.3.4h0c0,.1,1.3,1.1,1.3,1.1h.1l.3-.4c.2-.3.2-.6-.1-.9l-.5-.4c-.3-.2-.6-.2-.9.1h0ZM138.6,466.8c.2-.2.4-.2.6,0l.5.4c.2.1.2.4,0,.6l-.2.3-1.2-.9.2-.3h0ZM140.4,465.9h0c0,0,0-.1-.1-.1h0l-.5.5-.4-.4.5-.5h0c0,0,0-.1-.1-.1l-.6.6h0c0,.1,1.2,1.2,1.2,1.2h.1l.6-.6h0c0,0,0-.1-.1-.1h0l-.6.6-.5-.5.5-.5h0ZM142,465.6h.1c0-.1-.3-.6-.3-.6l.3-.2c.3-.2.4-.5.2-.8s-.5-.4-.8-.2l-.4.2h0c0,.1.9,1.5.9,1.5h0ZM141.7,464c.2-.1.4,0,.6.1s0,.4-.1.6l-.3.2-.4-.7.3-.2h-.1ZM144.1,464.5l-1.1-1.3h-.2c0,.1.2,1.8.2,1.8h0s0,.1.1,0h0v-.5l.6-.3.3.3h.1c.1,0,0,0,0-.1h0ZM142.9,463.4l.7.7-.6.2v-1h-.1,0ZM144.9,463.6c.2-.1.3-.4.2-.6,0-.3-.4-.5-.8-.4h-.4v.2h0l.4,1.6h.1c.1,0,0,0,0-.1l-.2-.6h.3c0-.1.5.5.5.5h.1c0-.1-.4-.6-.4-.6h.2,0ZM144.4,462.8c.2,0,.4,0,.5.2,0,.2,0,.4-.3.5h-.3l-.2-.6h.3ZM145.2,462.5h.5l.2,1.5s0,.1.1,0h0c0-.1-.2-1.6-.2-1.6h.4c0-.1,0-.2-.1-.2h-1v.2h.1ZM146.8,462.3s0-.1-.1-.1h0s-.1,0-.1.1h0v1.7s.1.1.2.1.1,0,.1-.1v-1.7h0ZM147.9,462.2h-.6v1.7h0c0,.1.5.1.5.1.4,0,.6-.2.7-.5v-.6c0-.4-.2-.6-.6-.6h0ZM147.8,462.4c.3,0,.4.2.4.4v.6c0,.2-.2.4-.5.4h-.4v-1.5h.5ZM150,463.1c0-.4-.1-.6-.5-.7-.4,0-.6.1-.7.5v.7c-.2.4,0,.6.3.7s.6-.1.7-.5v-.7h.2ZM149,462.9c0-.2.2-.4.5-.3s.4.2.3.5v.7c-.2.2-.4.4-.6.3s-.4-.2-.3-.5v-.7h.1ZM151.3,463.6h.1c0-.3,0-.5-.4-.6-.3-.1-.6,0-.7.2,0,.2,0,.4.2.6l.2.2c.1.1.2.2.2.4s-.2.3-.5.2c-.2,0-.3-.2-.3-.4h0c0-.1-.1-.1-.1-.1h0c0,.3,0,.5.4.7.3.1.6,0,.8-.3.1-.3,0-.5-.2-.6l-.2-.2c-.1,0-.1-.2-.1-.3s.2-.2.4-.1c.2,0,.3.2.2.4h0c0,.1,0-.1,0-.1h0ZM152.9,463.8l-.4-.2h-.1l-.9,1.4h0c0,.1.4.3.4.3.3.2.6.1.9-.2l.3-.5c.2-.3.1-.6-.2-.8h0ZM152.8,464c.2.1.3.4.1.6l-.3.6c-.1.2-.3.3-.6.1l-.3-.2.8-1.2.3.2h0ZM153.9,465.8h.1c0-.1-.5-.5-.5-.5l.4-.5.6.5h.1c0-.1-.7-.7-.7-.7h-.1l-1.1,1.3h0c0,.1.7.7.7.7h.1c0-.1-.6-.6-.6-.6l.4-.5.5.4h.1ZM155,465.6h0c0-.1-.1-.1-.1-.1l-1.2,1.1h0c0,.1.6.7.6.7h.1c0-.1-.5-.6-.5-.6l1.1-1.1h0ZM154.8,467.9h0c0,0,0,.1.1.1l.5-.3.2.3c.2.3.5.4.8.2.3-.2.4-.5.2-.8l-.2-.4h-.1l-1.4.9h-.1ZM156.4,467.5c.1.2,0,.4-.1.6s-.4,0-.6-.1l-.2-.3.7-.4.2.3h0ZM157.4,469.2h-.1l-1.1.5c-.2,0-.4,0-.5-.2s0-.4.2-.5l1.1-.5h0c0,0,0-.1-.1-.1h0l-1.1.5c-.3.1-.4.5-.3.8.1.3.4.5.8.3l1.1-.5h0v-.3h0ZM156.9,470.8h.1c0-.1-.2-.8-.2-.8l.6-.2.2.7h.1c0-.1-.2-.9-.2-.9h-.1l-1.6.5h0c0,.1.3,1,.3,1h.1c0-.1-.2-.9-.2-.9l.6-.2.2.7h0ZM156.3,471.3h0v.6c0,.3.3.5.6.5s.4-.2.4-.4h0c0,.2.3.2.4.2.3,0,.4-.3.4-.6v-.5h-.2l-1.6.3h0ZM157.9,471.6c0,.2,0,.4-.2.4s-.3,0-.4-.3v-.4h.6c0-.1,0,.3,0,.3h0ZM157.1,471.8c0,.2,0,.4-.3.4s-.4,0-.4-.3v-.4h.6c0-.1,0,.3,0,.3t0,0h0ZM158.1,472.7s.1,0,.1-.1,0-.1-.1-.1h-1.7s-.1.1-.1.2h0v.9h0v-.7h1.5l.3-.2h0ZM157.6,474.8c.4,0,.6-.2.6-.6s-.2-.6-.6-.6h-.7c-.4,0-.6.2-.6.5s.2.6.6.6h.7ZM157.7,473.8c.2,0,.4.2.4.4s-.2.4-.4.4h-.7c-.2,0-.4-.2-.4-.5s.2-.4.4-.4h.7ZM157.8,476.4h.1c0-.1-1.6-.6-1.6-.6h-.1c0,.1,1.3.5,1.3.5h-.8v.2h0c0,.1.6.7.6.7l-1.3-.4h-.1c0,.1,1.6.6,1.6.6h.1c0-.1-.7-.8-.7-.8l1-.2h-.1ZM156,478.3h0c0,.1.1.1.1.1h0l.3-.6.6.3-.3.7h0c0,.1.1.1.1.1l.4-.8h0c0-.1-1.5-.8-1.5-.8h-.1l-.4.8h0c0,.1.1.1.1.1h0l.3-.7.6.3-.3.6h0ZM156.6,479.2h0c0-.1-.9-.1-.9-.1l-.4-.9h-.1c0,.1.4.8.4.8h-.9.9l.4.8h.1c0-.1-.4-.8-.4-.8h.8v.2h0ZM155.8,480.2h.1c0-.1-1.3-1.1-1.3-1.1h-.1c0,.1,1.3,1.1,1.3,1.1h0ZM154.1,480.5h0c-.1-.2-.2-.4,0-.6s.4-.2.6,0l.6.5c.2.1.2.4,0,.5-.2.2-.4.2-.5,0h-.1c.2.3.6.3.8.1.2-.3.2-.6,0-.9l-.5-.5c-.3-.2-.6-.2-.9,0-.2.2-.2.6,0,.8h.1-.1ZM152.7,481.1l1.5.9h.2v-.2l-.7-1.6h-.1c0,.1.2.5.2.5l-.5.5-.3-.2h-.1c0,.1-.2.1-.2.1h0ZM154.1,481.7l-.8-.5.4-.4.4.9h0ZM152.6,483.1h.1c0-.1-.7-1.2-.7-1.2l1.4.7h.1c0-.1-.9-1.5-.9-1.5h-.1c0,.1.7,1.2.7,1.2l-1.4-.7h-.1c0,.1.9,1.5.9,1.5h0ZM150.9,483.4c.1.3.5.4.8.3s.5-.5.3-.8l-.3-.7c-.1-.3-.5-.4-.8-.3s-.5.5-.3.8l.3.7ZM151.8,483c0,.2,0,.4-.2.5s-.4,0-.5-.2l-.3-.7c0-.2,0-.4.2-.5s.4,0,.5.2l.3.7h0Z"/>
      <path class="st13" d="M147.6,464.9c.7,0,1.5.1,2.2.2,1.7.3,2,1.1,2.8,1.7.6.8,1.1,1,1.7,2.3.4,1.1.4,2.1.6,3.2,0,.9.3,1.9.3,2.8-.2.8.3,1.6-.2,2.5-.4.8-.5,1.1-1.3,1.4-2.5.3-5.1-.3-7.6-.8-1.3-.2-2.6-.5-3.8-.8-1.1-.5-2.7-.9-3.5-1.5-.8-.9-.7-2.8,0-3.4.4-.3.6-.5,1.4-.9.6-.2.6-.8,1.1-1,0-.1.1,0,0-.2.7.1,1.5.4,2.2.3.7,0,1.5,0,2.2-.5h0c-1.3.3-2.6.4-3.9.1-.5-.1-.5-.5-.8-.6-.6-.6-.6-1.8,0-2.2.6-.8,1.2-1.2,2.7-1.8,1.3-.5,2.6-.7,3.8-.7h.1ZM139.6,472.6c2.4,0,4.9.3,7.4.8,2.4.4,4.9,1,7.4,2.3.1,0,0,.1-.1.2-2.5-1.2-4.9-1.9-7.5-2.4-1.2-.3-2.5-.2-3.7-.5-1.2,0-2.5-.2-3.7-.1,0,0-.1,0-.1-.1.1,0,.3,0,.4-.1h0ZM140.9,475.6c2.2.2,4.3.5,6.6,1,1.1.3,2.1.4,3.3.8,1,.3,2.3.8,2.9,1.4h-.1c-2.1-1.2-4.5-1.7-6.7-2.2-2.2-.4-4.5-.9-6.8-.8,0,0-.1.1,0,.2.3.3.9.4,1.3.7-.7,0-1.6-.4-1.6-.9.4-.2.8-.1,1.2-.2h0Z"/>
      <path id="bx" class="st6" d="M140.3,473.5h0v1.3h.7-.6v-1.2h0ZM142.2,473.5h0v1.3h0v-1.3h0ZM143.3,474.9h.4c.3,0,.4-.1.5-.4,0-.2,0-.3-.2-.4h0c.1,0,.2-.2.3-.3,0-.2-.2-.4-.4-.4h-.4v1.3h0l-.2.2h0ZM143.9,473.7c.2,0,.3.1.3.3s-.1.2-.3.2h-.3v-.5h.3ZM143.9,474.4c.2,0,.3.1.3.3s-.1.2-.3.2h-.3v-.5h.3ZM146.1,474.7h0c-.2-.1-.4-.1-.6-.1v-.5c.3,0,.5,0,.7.1h0c-.2,0-.5,0-.7-.1h0l-.2,1.3h0c.2,0,.5,0,.7.1h0c-.2-.1-.4-.1-.6-.2v-.5h.7ZM148,475.1c.2,0,.3-.1.4-.3,0-.3-.1-.5-.4-.5h-.5c0,.4-.2.9-.2,1.3h0c0,0,0,.1.1.1h0c0-.2,0-.3.1-.5h.3c0,.2,0,.4.1.6h.1c0-.2,0-.4-.1-.6h0ZM147.9,474.4c.2,0,.3.2.3.4s-.2.3-.4.2h-.3v-.6h.4ZM149.4,474.7h0c.1.1.2.1.3.2-.1.4-.2.8-.3,1.2h0c0,0,0,.1.1.1h0c.1-.4.2-.8.3-1.2.1,0,.2,0,.3.1h0c-.3-.1-.5-.3-.8-.3h0ZM151.7,476.9v-1.4h0c0-.1-.1-.1-.1-.1-.3.4-.5.7-.8,1.1h0c0,.1.1-.1.2-.1.2,0,.4.1.5.2v.3h.2ZM151.6,475.6v.8c-.1,0-.3-.1-.4-.2.1-.2.3-.4.4-.6h0ZM153.6,476.2c-.1,0-.2-.1-.4-.2h-.1l-.4,1.2h0c.1.1.2.2.4.3.3.1.5,0,.6-.2,0-.1.1-.3.2-.5.1-.3,0-.5-.3-.7h0ZM153.6,476.4c.2,0,.3.3.2.4,0,.2-.1.3-.2.5,0,.2-.2.2-.4.1,0,0-.2,0-.3-.1l.4-1.1s.2,0,.3.1h0Z"/>
      <g class="st7">
        <g class="st7">
          <g class="st7">
            <g class="st7">
              <text class="st4" transform="translate(171.5 488)"><tspan x="0" y="0">1</tspan></text>
            </g>
          </g>
        </g>
      </g>
      <g id="layer1">
        <path id="path2383" class="st14" d="M812.7,547.7c0,7.9-6.4,14.3-14.3,14.3s-14.3-6.4-14.3-14.3,6.4-14.3,14.3-14.3,14.3,6.4,14.3,14.3Z"/>
        <path id="path3155" class="st5" d="M809.5,547.7c0,6.2-5,11.2-11.2,11.2s-11.2-5-11.2-11.2,5-11.2,11.2-11.2,11.2,5,11.2,11.2Z"/>
        <path id="text3157" class="st14" d="M791.8,549.4v4.4h-2.5v-11.9h2.7c1.1,0,1.9,0,2.4.4.5.3.8.8.8,1.7v3.3c0,.8-.2,1.3-.6,1.7-.4.3-1.4.5-2.8.5h0ZM792.7,547v-2.9c0-.4-.3-.6-.9-.6v4.1c.6,0,.9-.2.9-.6h0ZM798.3,549.4v4.4h-2.5v-11.9h2.7c1.1,0,1.9,0,2.4.4.5.3.8.8.8,1.7v3.3c0,.8-.2,1.3-.6,1.7-.4.3-1.4.5-2.8.5h0ZM799.1,547v-2.9c0-.4-.3-.6-.9-.6v4.1c.6,0,.9-.2.9-.6h0ZM802.1,549h2.4v2.7c0,.3.2.4.5.4s.5,0,.5-.4v-1.4c0-.4-.3-.9-.9-1.5-1.1-1.1-1.8-1.8-2.1-2.2s-.4-.8-.4-1.2v-1.3c0-1.5,1-2.3,3-2.3s2.7.7,2.7,2.1v2.1h-2.4v-2.2c0-.2,0-.4-.4-.4s-.5.2-.5.7v.8c0,.4.3,1,.9,1.5,1.1,1,1.8,1.8,2.1,2.2s.4.9.4,1.4v1.5c0,1.6-1,2.4-3,2.4s-2.9-.7-2.9-2.2v-2.7h.1Z"/>
      </g>
      <g>
        <path id="bg" class="st10" d="M49.8,460.2c6,2,10.3,7.6,10.3,14.2s-4.3,12.2-10.3,14.2v-28.3h0Z"/>
        <path id="bh" class="st9" d="M40.3,460.2v28.4c-6-2-10.4-7.6-10.4-14.2s4.2-12.1,10.1-14.1h.3Z"/>
        <polygon id="bi1" class="st2" points="49.8 488.6 40.3 488.6 40.3 460.1 49.8 460.1 49.8 488.6"/>
        <polygon id="bj1" class="st2" points="55.8 480.4 55.8 468.5 52.6 468.5 52.6 480.4 55.8 480.4"/>
        <path id="bk1" class="st2" d="M32.4,468.5v12h3.1v-4.8h2c1.7-.3,1.9-1.8,1.9-1.8v-3.5c0-1.7-1.9-1.9-1.9-1.9h-5.1ZM35.6,470.3v2.7c1,0,1-.6,1-.6v-1.3c0-1-1-.9-1-.9h0Z"/>
        <path id="bl1" class="st0" d="M32.4,468.5v12h3.1v-4.8h2c1.7-.3,1.9-1.8,1.9-1.8v-3.5c0-1.7-1.9-1.9-1.9-1.9h-5.1M35.6,470.3v2.7c1,0,1-.6,1-.6v-1.3c0-1-1-.9-1-.9h0Z"/>
        <path id="bm1" class="st11" d="M41.6,463.9v12h3.1v-5.1c1.4,0,1.1.9,1.1.9v4.1h3.2v-4.7c.2-.9-.9-1.6-.9-1.6.9-.5.9-1.7.9-1.7v-2.1c0-2-2.2-1.9-2.2-1.9h-5.2ZM44.8,465.8v2.7c1,0,1-.6,1-.6v-1.3c0-1-1-.9-1-.9h0Z"/>
        <path id="bn1" class="st0" d="M41.6,463.9v12h3.1v-5.1c1.4,0,1.1.9,1.1.9v4.1h3.2v-4.7c.2-.9-.9-1.6-.9-1.6.9-.5.9-1.7.9-1.7v-2.1c0-2-2.2-1.9-2.2-1.9h-5.1M44.8,465.8v2.7c1,0,1-.6,1-.6v-1.3c0-1-1-.9-1-.9h0Z"/>
      </g>
      <g>
        <path id="bg1" class="st10" d="M803.4,461c6,2,10.3,7.6,10.3,14.2s-4.3,12.2-10.3,14.2v-28.3h0Z"/>
        <path id="bh1" class="st9" d="M793.9,461v28.4c-6-2-10.4-7.6-10.4-14.2s4.2-12.1,10.1-14.1h.3Z"/>
        <polygon id="bi2" class="st2" points="803.4 489.4 793.9 489.4 793.9 460.9 803.4 460.9 803.4 489.4"/>
        <polygon id="bj2" class="st2" points="809.3 481.2 809.3 469.3 806.2 469.3 806.2 481.2 809.3 481.2"/>
        <path id="bk2" class="st2" d="M786,469.3v12h3.1v-4.8h2c1.7-.3,1.9-1.8,1.9-1.8v-3.5c0-1.7-1.9-1.9-1.9-1.9h-5.1ZM789.2,471.1v2.7c1,0,1-.6,1-.6v-1.3c0-1-1-.9-1-.9h0Z"/>
        <path id="bl2" class="st0" d="M786,469.3v12h3.1v-4.8h2c1.7-.3,1.9-1.8,1.9-1.8v-3.5c0-1.7-1.9-1.9-1.9-1.9h-5.1M789.2,471.1v2.7c1,0,1-.6,1-.6v-1.3c0-1-1-.9-1-.9h0Z"/>
        <path id="bm2" class="st11" d="M795.2,464.7v12h3.1v-5.1c1.4,0,1.1.9,1.1.9v4.1h3.2v-4.7c.2-.9-.9-1.6-.9-1.6.9-.5.9-1.7.9-1.7v-2.1c0-2-2.2-1.9-2.2-1.9h-5.2ZM798.4,466.6v2.7c1,0,1-.6,1-.6v-1.3c0-1-1-.9-1-.9h0Z"/>
        <path id="bn2" class="st0" d="M795.2,464.7v12h3.1v-5.1c1.4,0,1.1.9,1.1.9v4.1h3.2v-4.7c.2-.9-.9-1.6-.9-1.6.9-.5.9-1.7.9-1.7v-2.1c0-2-2.2-1.9-2.2-1.9h-5.1M798.4,466.6v2.7c1,0,1-.6,1-.6v-1.3c0-1-1-.9-1-.9h0Z"/>
      </g>
    </g>
    <g>
      <path id="bg2" class="st10" d="M413.3,62.2c20.1,6.7,34.6,25.6,34.6,47.7s-14.5,41-34.6,47.7V62.2h0Z"/>
      <path id="bh2" class="st9" d="M381.2,62.2v95.6c-20.3-6.6-34.9-25.5-34.9-47.8s14.3-40.7,34.1-47.6l.8-.2h0Z"/>
      <polygon id="bi3" class="st2" points="413.2 157.8 381.1 157.8 381.1 61.7 413.2 61.7 413.2 157.8"/>
      <polygon id="bj3" class="st2" points="433.2 130.3 433.2 90 422.7 90 422.7 130.3 433.2 130.3"/>
      <path id="bk3" class="st2" d="M354.5,90v40.3h10.5v-16h6.6c5.8-1.1,6.4-6,6.4-6v-11.7c-.4-5.6-6.3-6.5-6.3-6.5h-17.2ZM365.5,96.3v9.2c3.3,0,3.4-1.9,3.4-1.9v-4.3c.1-3.3-3.4-2.9-3.4-2.9h0Z"/>
      <path id="bl3" class="st0" d="M354.5,90v40.3h10.5v-16h6.6c5.8-1.1,6.4-6,6.4-6v-11.7c-.4-5.6-6.3-6.5-6.3-6.5h-17.2M365.5,96.3v9.2c3.3,0,3.4-1.9,3.4-1.9v-4.3c.1-3.3-3.4-2.9-3.4-2.9h0Z"/>
      <path id="bm3" class="st11" d="M385.6,74.6v40.3h10.5v-17.1c4.6-.2,3.7,3.2,3.7,3.2v13.9h10.7v-15.9c.7-3.2-3.2-5.3-3.2-5.3,3.2-1.8,3-5.6,3-5.6v-7c0-6.8-7.5-6.5-7.5-6.5,0,0-17.2,0-17.2,0ZM396.4,81.1v9.2c3.3,0,3.4-1.9,3.4-1.9v-4.3c.1-3.3-3.4-2.9-3.4-2.9h0Z"/>
      <path id="bn3" class="st0" d="M385.6,74.6v40.3h10.5v-17.1c4.6-.2,3.7,3.2,3.7,3.2v13.9h10.7v-15.9c.7-3.2-3.2-5.3-3.2-5.3,3.2-1.8,3-5.6,3-5.6v-7c0-6.8-7.5-6.5-7.5-6.5h-17.2M396.4,81.1v9.2c3.3,0,3.4-1.9,3.4-1.9v-4.3c.1-3.3-3.4-2.9-3.4-2.9h0Z"/>
    </g>
    <g id="layer11" data-name="layer1">
      <path id="path23831" data-name="path2383" class="st18" d="M61.2,550.8c0,8.5-6.9,15.4-15.4,15.4s-15.4-6.9-15.4-15.4,6.9-15.4,15.4-15.4,15.4,6.9,15.4,15.4Z"/>
      <path id="path31551" data-name="path3155" class="st5" d="M57.8,550.8c0,6.6-5.4,12-12,12s-12-5.4-12-12,5.4-12,12-12,12,5.4,12,12Z"/>
      <path id="text31571" data-name="text3157" class="st18" d="M40.9,552.9v5.8h-3.4v-15.9h3.7c1.5,0,2.5.2,3.2.6.7.4,1.1,1.1,1.1,2.3v4.4c0,1-.3,1.8-.9,2.2-.6.4-1.8.6-3.7.6h0ZM42.1,549.8v-3.8c0-.6-.4-.8-1.2-.8v5.5c.8,0,1.2-.3,1.2-.8h0ZM49.5,552.9v5.8h-3.4v-15.9h3.7c1.5,0,2.5.2,3.2.6.7.4,1.1,1.1,1.1,2.3v4.4c0,1-.3,1.8-.9,2.2-.6.4-1.8.6-3.7.6h0ZM50.6,549.8v-3.8c0-.6-.4-.8-1.2-.8v5.5c.8,0,1.2-.3,1.2-.8h0Z"/>
    </g>
  </g>
  <g id="Capa_21" data-name="Capa_2">
    <g>
      <text class="st3" transform="translate(235 718.7)"><tspan x="0" y="0">162</tspan></text>
      <g id="_x30_-Partido-Popular-Socialista">
        <circle class="st18" cx="96.9" cy="717" r="5.4"/>
      </g>
      <g id="_x31_-Partido-Revolucionario-Institucional">
        <circle class="st18" cx="110.3" cy="717" r="5.4"/>
        <circle class="st5" cx="123.8" cy="717" r="5.4"/>
        <circle class="st16" cx="137.3" cy="717" r="5.4"/>
        <circle class="st16" cx="150.8" cy="717" r="5.4"/>
        <circle class="st16" cx="164.3" cy="717" r="5.4"/>
        <circle class="st16" cx="177.8" cy="717" r="5.4"/>
        <circle class="st16" cx="98.5" cy="699.3" r="5.4"/>
        <circle class="st16" cx="112.1" cy="699.6" r="5.4"/>
        <circle class="st16" cx="125.8" cy="699.2" r="5.4"/>
        <circle class="st16" cx="139.4" cy="699.5" r="5.4"/>
        <circle class="st16" cx="153.3" cy="699" r="5.4"/>
        <circle class="st16" cx="167" cy="699.4" r="5.4"/>
        <circle class="st16" cx="102" cy="681.9" r="5.4"/>
        <circle class="st16" cx="115.8" cy="682.5" r="5.4"/>
        <circle class="st16" cx="180.8" cy="699.9" r="5.4"/>
        <circle class="st16" cx="130" cy="681.8" r="5.4"/>
        <circle class="st16" cx="144" cy="682.5" r="5.4"/>
        <circle class="st16" cx="107.3" cy="665" r="5.4"/>
        <circle class="st16" cx="158.6" cy="681.6" r="5.4"/>
        <circle class="st16" cx="121.4" cy="665.9" r="5.4"/>
        <circle class="st16" cx="172.8" cy="682.5" r="5.4"/>
        <circle class="st16" cx="136.4" cy="665" r="5.4"/>
        <circle class="st16" cx="114.4" cy="648.7" r="5.4"/>
        <circle class="st16" cx="150.8" cy="666.2" r="5.4"/>
        <circle class="st16" cx="187.2" cy="683.7" r="5.4"/>
        <circle class="st16" cx="128.8" cy="650.1" r="5.4"/>
        <circle class="st16" cx="165.6" cy="666.3" r="5.4"/>
        <circle class="st16" cx="144.9" cy="649.2" r="5.4"/>
        <circle class="st16" cx="123.1" cy="633.2" r="5.4"/>
        <circle class="st16" cx="181.5" cy="666.9" r="5.4"/>
        <circle class="st16" cx="159.8" cy="651" r="5.4"/>
        <circle class="st16" cx="138" cy="635.2" r="5.4"/>
        <circle class="st16" cx="133.5" cy="618.8" r="5.4"/>
        <circle class="st16" cx="196.7" cy="669.1" r="5.4"/>
        <circle class="st16" cx="155.3" cy="634.6" r="5.4"/>
        <circle class="st16" cx="175.1" cy="652.4" r="5.4"/>
        <circle class="st16" cx="148.8" cy="621.4" r="5.4"/>
        <circle class="st16" cx="170.8" cy="637.3" r="5.4"/>
        <circle class="st16" cx="192.8" cy="653.1" r="5.4"/>
        <circle class="st16" cx="145.3" cy="605.5" r="5.4"/>
        <circle class="st16" cx="167.5" cy="621.4" r="5.4"/>
        <circle class="st16" cx="161.1" cy="608.9" r="5.4"/>
        <circle class="st16" cx="195.9" cy="632.4" r="5.4"/>
        <circle class="st16" cx="208.8" cy="656.7" r="5.4"/>
        <circle class="st16" cx="183.6" cy="625.1" r="5.4"/>
        <circle class="st16" cx="158.4" cy="593.6" r="5.4"/>
        <circle class="st16" cx="181.2" cy="609.9" r="5.4"/>
        <circle class="st16" cx="174.8" cy="598" r="5.4"/>
        <circle class="st16" cx="206.4" cy="641.5" r="5.4"/>
        <circle class="st16" cx="172.7" cy="583.1" r="5.4"/>
        <circle class="st16" cx="208.5" cy="623.6" r="5.4"/>
        <circle class="st16" cx="197.9" cy="614.9" r="5.4"/>
        <circle class="st16" cx="189.5" cy="588.6" r="5.4"/>
        <circle class="st16" cx="196.3" cy="600.2" r="5.4"/>
        <circle class="st16" cx="223.2" cy="646.9" r="5.4"/>
        <circle class="st16" cx="188" cy="574.1" r="5.4"/>
        <circle class="st16" cx="221.8" cy="632.5" r="5.4"/>
        <circle class="st16" cx="216.5" cy="604.7" r="5.4"/>
        <circle class="st16" cx="222.7" cy="617.3" r="5.4"/>
        <circle class="st16" cx="205.3" cy="580.9" r="5.4"/>
        <circle class="st16" cx="212.5" cy="592.5" r="5.4"/>
        <circle class="st16" cx="204.2" cy="566.8" r="5.4"/>
        <circle class="st16" cx="239.2" cy="640.1" r="5.4"/>
        <circle class="st16" cx="221.8" cy="575.1" r="5.4"/>
        <circle class="st16" cx="232.1" cy="600.7" r="5.4"/>
        <circle class="st16" cx="238.5" cy="626.3" r="5.4"/>
        <circle class="st16" cx="221.1" cy="561.3" r="5.4"/>
        <circle class="st16" cx="227.5" cy="586.9" r="5.4"/>
        <circle class="st16" cx="237.9" cy="612.6" r="5.4"/>
        <circle class="st16" cx="238.8" cy="571.2" r="5.4"/>
        <circle class="st16" cx="238.5" cy="557.6" r="5.4"/>
        <circle class="st16" cx="250.4" cy="597.1" r="5.4"/>
        <circle class="st16" cx="243.1" cy="583.5" r="5.4"/>
        <circle class="st16" cx="256.3" cy="636.7" r="5.4"/>
        <circle class="st16" cx="256.1" cy="623.2" r="5.4"/>
        <circle class="st16" cx="255.9" cy="609.7" r="5.4"/>
        <circle class="st16" cx="256.2" cy="569.2" r="5.4"/>
        <circle class="st16" cx="256.1" cy="555.7" r="5.4"/>
        <circle class="st16" cx="271.7" cy="582" r="5.4"/>
        <circle class="st16" cx="266" cy="595.9" r="5.4"/>
        <circle class="st16" cx="273.9" cy="555.7" r="5.4"/>
        <circle class="st16" cx="273.7" cy="569.2" r="5.4"/>
        <circle class="st16" cx="274.1" cy="609.7" r="5.4"/>
        <circle class="st16" cx="273.9" cy="623.2" r="5.4"/>
        <circle class="st16" cx="273.7" cy="636.7" r="5.4"/>
        <circle class="st16" cx="285.9" cy="583.5" r="5.4"/>
        <circle class="st16" cx="282.6" cy="597.1" r="5.4"/>
        <circle class="st16" cx="291.5" cy="557.6" r="5.4"/>
        <circle class="st16" cx="291.1" cy="571.2" r="5.4"/>
        <circle class="st16" cx="292.1" cy="612.6" r="5.4"/>
        <circle class="st16" cx="302.5" cy="586.9" r="5.4"/>
        <circle class="st16" cx="308.9" cy="561.3" r="5.4"/>
        <circle class="st16" cx="291.5" cy="626.3" r="5.4"/>
        <circle class="st16" cx="299.8" cy="600.7" r="5.4"/>
        <circle class="st16" cx="308.2" cy="575.1" r="5.4"/>
        <circle class="st16" cx="290.7" cy="640.1" r="5.4"/>
        <circle class="st16" cx="325.8" cy="566.8" r="5.4"/>
        <circle class="st16" cx="318.5" cy="592.5" r="5.4"/>
        <circle class="st16" cx="324.7" cy="580.9" r="5.4"/>
        <circle class="st16" cx="309.3" cy="618.3" r="5.4"/>
        <circle class="st16" cx="316.4" cy="606.7" r="5.4"/>
        <circle class="st16" cx="308.2" cy="632.5" r="5.4"/>
        <circle class="st16" cx="342" cy="574.1" r="5.4"/>
        <circle class="st16" cx="306.8" cy="646.9" r="5.4"/>
        <circle class="st16" cx="333.7" cy="600.2" r="5.4"/>
        <circle class="st16" cx="340.4" cy="588.6" r="5.4" transform="translate(-310.6 784.7) rotate(-76.7)"/>
        <circle class="st16" cx="332.1" cy="614.9" r="5.4"/>
        <circle class="st16" cx="325.5" cy="626.6" r="5.4"/>
        <circle class="st16" cx="357.3" cy="583.1" r="5.4"/>
        <circle class="st16" cx="323.6" cy="641.5" r="5.4"/>
        <circle class="st16" cx="355.2" cy="598" r="5.4"/>
        <circle class="st16" cx="348.8" cy="609.9" r="5.4"/>
        <circle class="st16" cx="371.6" cy="593.6" r="5.4"/>
        <circle class="st16" cx="346.4" cy="625.1" r="5.4"/>
        <circle class="st16" cx="321.2" cy="656.7" r="5.4"/>
        <circle class="st16" cx="340.1" cy="637.4" r="5.4"/>
        <circle class="st16" cx="368.8" cy="608.9" r="5.4"/>
        <circle class="st16" cx="362.5" cy="621.4" r="5.4"/>
        <circle class="st16" cx="384.7" cy="605.5" r="5.4"/>
        <circle class="st16" cx="337.2" cy="653.1" r="5.4"/>
        <circle class="st16" cx="359.2" cy="637.3" r="5.4"/>
        <circle class="st16" cx="381.1" cy="621.4" r="5.4"/>
        <circle class="st16" cx="352.8" cy="650.4" r="5.4"/>
        <circle class="st16" cx="374.7" cy="634.6" r="5.4"/>
        <circle class="st16" cx="333.3" cy="669.1" r="5.4"/>
        <circle class="st16" cx="396.5" cy="618.8" r="5.4"/>
        <circle class="st16" cx="392" cy="635.2" r="5.4"/>
        <circle class="st16" cx="370.2" cy="651" r="5.4"/>
        <circle class="st16" cx="348.5" cy="666.9" r="5.4"/>
        <circle class="st16" cx="406.9" cy="633.2" r="5.4"/>
        <circle class="st16" cx="385.1" cy="649.2" r="5.4"/>
        <circle class="st16" cx="363.4" cy="665.3" r="5.4"/>
        <circle class="st16" cx="401.1" cy="650.1" r="5.4"/>
        <circle class="st16" cx="342.8" cy="683.7" r="5.4"/>
        <circle class="st16" cx="379.2" cy="666.2" r="5.4"/>
        <circle class="st16" cx="415.6" cy="648.7" r="5.4"/>
        <circle class="st16" cx="393.6" cy="665" r="5.4"/>
        <circle class="st16" cx="357.2" cy="682.5" r="5.4"/>
        <circle class="st16" cx="408.6" cy="665.9" r="5.4"/>
        <circle class="st16" cx="371.4" cy="681.6" r="5.4"/>
        <circle class="st16" cx="422.7" cy="665" r="5.4"/>
        <circle class="st16" cx="386" cy="682.5" r="5.4"/>
        <circle class="st16" cx="400" cy="681.8" r="5.4"/>
        <circle class="st16" cx="349.2" cy="699.9" r="5.4"/>
        <circle class="st16" cx="414.2" cy="682.5" r="5.4"/>
        <circle class="st16" cx="428" cy="681.9" r="5.4"/>
        <circle class="st16" cx="363" cy="699.4" r="5.4"/>
        <circle class="st16" cx="376.7" cy="699" r="5.4"/>
        <circle class="st16" cx="390.6" cy="699.5" r="5.4"/>
        <circle class="st16" cx="404.2" cy="699.2" r="5.4"/>
        <circle class="st16" cx="417.9" cy="699.6" r="5.4"/>
        <circle class="st16" cx="431.5" cy="699.3" r="5.4"/>
        <circle class="st16" cx="184.4" cy="641.5" r="5.4"/>
        <circle class="st16" cx="256.3" cy="581.8" r="5.4"/>
      </g>
      <g id="_x32_-Partido-Acci-n-Nacional">
        <circle class="st19" cx="352.2" cy="717" r="5.4"/>
        <circle class="st19" cx="365.7" cy="717" r="5.4"/>
        <circle class="st19" cx="379.2" cy="717" r="5.4"/>
        <circle class="st19" cx="392.7" cy="717" r="5.4"/>
        <circle class="st16" cx="406.2" cy="717" r="5.4"/>
        <circle class="st16" cx="419.7" cy="717" r="5.4"/>
      </g>
      <g id="_x33_-Partido-Nacionalista-Mexicano">
        <circle class="st16" cx="433.1" cy="717" r="5.4"/>
      </g>
    </g>
    <g>
      <text class="st3" transform="translate(974.6 718)"><tspan x="0" y="0">162</tspan></text>
      <g id="_x30_-Partido-Popular-Socialista1" data-name="_x30_-Partido-Popular-Socialista">
        <circle class="st18" cx="836.5" cy="716.3" r="5.4"/>
      </g>
      <g id="_x31_-Partido-Revolucionario-Institucional1" data-name="_x31_-Partido-Revolucionario-Institucional">
        <circle class="st18" cx="850" cy="716.3" r="5.4"/>
        <circle class="st16" cx="863.5" cy="716.3" r="5.4"/>
        <circle class="st16" cx="876.9" cy="716.3" r="5.4"/>
        <circle class="st16" cx="890.4" cy="716.3" r="5.4"/>
        <circle class="st16" cx="903.9" cy="716.3" r="5.4"/>
        <circle class="st16" cx="917.4" cy="716.3" r="5.4"/>
        <circle class="st16" cx="838.2" cy="698.6" r="5.4"/>
        <circle class="st16" cx="851.7" cy="698.9" r="5.4"/>
        <circle class="st16" cx="865.5" cy="698.5" r="5.4"/>
        <circle class="st16" cx="879.1" cy="698.8" r="5.4"/>
        <circle class="st16" cx="892.9" cy="698.3" r="5.4"/>
        <circle class="st16" cx="906.7" cy="698.6" r="5.4"/>
        <circle class="st16" cx="841.7" cy="681.2" r="5.4"/>
        <circle class="st16" cx="855.4" cy="681.7" r="5.4"/>
        <circle class="st16" cx="920.5" cy="699.1" r="5.4"/>
        <circle class="st16" cx="869.7" cy="681" r="5.4"/>
        <circle class="st16" cx="883.6" cy="681.7" r="5.4"/>
        <circle class="st16" cx="847" cy="664.2" r="5.4"/>
        <circle class="st16" cx="898.3" cy="680.9" r="5.4"/>
        <circle class="st16" cx="861.1" cy="665.2" r="5.4"/>
        <circle class="st16" cx="912.5" cy="681.8" r="5.4"/>
        <circle class="st16" cx="876.1" cy="664.3" r="5.4"/>
        <circle class="st16" cx="854" cy="648" r="5.4"/>
        <circle class="st16" cx="890.4" cy="665.5" r="5.4"/>
        <circle class="st16" cx="926.9" cy="683" r="5.4"/>
        <circle class="st16" cx="868.5" cy="649.3" r="5.4"/>
        <circle class="st16" cx="905.3" cy="665.5" r="5.4"/>
        <circle class="st16" cx="884.6" cy="648.5" r="5.4"/>
        <circle class="st16" cx="862.8" cy="632.5" r="5.4"/>
        <circle class="st16" cx="921.2" cy="666.2" r="5.4"/>
        <circle class="st16" cx="899.4" cy="650.3" r="5.4"/>
        <circle class="st16" cx="877.7" cy="634.4" r="5.4"/>
        <circle class="st16" cx="873.1" cy="618.1" r="5.4"/>
        <circle class="st16" cx="936.3" cy="668.4" r="5.4"/>
        <circle class="st16" cx="895" cy="633.9" r="5.4"/>
        <circle class="st16" cx="914.8" cy="651.7" r="5.4"/>
        <circle class="st16" cx="888.5" cy="620.7" r="5.4"/>
        <circle class="st16" cx="910.5" cy="636.5" r="5.4"/>
        <circle class="st16" cx="932.5" cy="652.4" r="5.4"/>
        <circle class="st16" cx="884.9" cy="604.8" r="5.4"/>
        <circle class="st16" cx="907.1" cy="620.7" r="5.4"/>
        <circle class="st16" cx="900.8" cy="608.2" r="5.4"/>
        <circle class="st16" cx="935.5" cy="631.7" r="5.4"/>
        <circle class="st16" cx="948.5" cy="655.9" r="5.4"/>
        <circle class="st16" cx="923.2" cy="624.4" r="5.4"/>
        <circle class="st16" cx="898" cy="592.8" r="5.4"/>
        <circle class="st16" cx="920.9" cy="609.2" r="5.4"/>
        <circle class="st16" cx="914.4" cy="597.2" r="5.4"/>
        <circle class="st16" cx="946" cy="640.8" r="5.4"/>
        <circle class="st16" cx="912.3" cy="582.3" r="5.4"/>
        <circle class="st16" cx="948.2" cy="622.9" r="5.4"/>
        <circle class="st16" cx="937.6" cy="614.1" r="5.4"/>
        <circle class="st16" cx="929.2" cy="587.8" r="5.4"/>
        <circle class="st16" cx="935.9" cy="599.5" r="5.4"/>
        <circle class="st16" cx="962.9" cy="646.1" r="5.4"/>
        <circle class="st16" cx="927.7" cy="573.4" r="5.4"/>
        <circle class="st16" cx="961.4" cy="631.8" r="5.4"/>
        <circle class="st16" cx="956.2" cy="603.9" r="5.4"/>
        <circle class="st16" cx="962.3" cy="616.5" r="5.4"/>
        <circle class="st16" cx="944.9" cy="580.2" r="5.4"/>
        <circle class="st16" cx="952.1" cy="591.8" r="5.4"/>
        <circle class="st16" cx="943.9" cy="566.1" r="5.4"/>
        <circle class="st16" cx="978.9" cy="639.4" r="5.4"/>
        <circle class="st16" cx="961.5" cy="574.3" r="5.4"/>
        <circle class="st16" cx="971.8" cy="600" r="5.4"/>
        <circle class="st16" cx="978.2" cy="625.6" r="5.4"/>
        <circle class="st16" cx="960.8" cy="560.6" r="5.4"/>
        <circle class="st16" cx="967.2" cy="586.2" r="5.4"/>
        <circle class="st16" cx="977.6" cy="611.8" r="5.4"/>
        <circle class="st16" cx="978.5" cy="570.4" r="5.4"/>
        <circle class="st16" cx="978.1" cy="556.8" r="5.4"/>
        <circle class="st16" cx="990.1" cy="596.3" r="5.4"/>
        <circle class="st16" cx="982.8" cy="582.8" r="5.4"/>
        <circle class="st16" cx="996" cy="635.9" r="5.4"/>
        <circle class="st16" cx="995.7" cy="622.4" r="5.4"/>
        <circle class="st16" cx="995.6" cy="608.9" r="5.4"/>
        <circle class="st16" cx="995.9" cy="568.4" r="5.4"/>
        <circle class="st16" cx="995.8" cy="555" r="5.4"/>
        <circle class="st16" cx="1011.4" cy="581.2" r="5.4"/>
        <circle class="st16" cx="1005.7" cy="595.1" r="5.4"/>
        <circle class="st16" cx="1013.5" cy="555" r="5.4"/>
        <circle class="st16" cx="1013.4" cy="568.4" r="5.4"/>
        <circle class="st16" cx="1013.8" cy="608.9" r="5.4"/>
        <circle class="st16" cx="1013.6" cy="622.4" r="5.4"/>
        <circle class="st16" cx="1013.4" cy="635.9" r="5.4"/>
        <circle class="st16" cx="1025.5" cy="582.8" r="5.4"/>
        <circle class="st16" cx="1022.2" cy="596.3" r="5.4"/>
        <circle class="st16" cx="1031.2" cy="556.8" r="5.4"/>
        <circle class="st16" cx="1030.8" cy="570.4" r="5.4"/>
        <circle class="st16" cx="1031.7" cy="611.8" r="5.4"/>
        <circle class="st16" cx="1042.2" cy="586.2" r="5.4"/>
        <circle class="st16" cx="1048.6" cy="560.6" r="5.4"/>
        <circle class="st16" cx="1031.1" cy="625.6" r="5.4"/>
        <circle class="st16" cx="1039.5" cy="600" r="5.4"/>
        <circle class="st16" cx="1047.9" cy="574.3" r="5.4"/>
        <circle class="st16" cx="1030.4" cy="639.4" r="5.4"/>
        <circle class="st16" cx="1065.4" cy="566.1" r="5.4"/>
        <circle class="st16" cx="1058.2" cy="591.8" r="5.4"/>
        <circle class="st16" cx="1064.4" cy="580.2" r="5.4"/>
        <circle class="st16" cx="1049" cy="617.5" r="5.4"/>
        <circle class="st16" cx="1056.1" cy="605.9" r="5.4"/>
        <circle class="st16" cx="1047.9" cy="631.8" r="5.4"/>
        <circle class="st16" cx="1081.6" cy="573.4" r="5.4"/>
        <circle class="st16" cx="1046.4" cy="646.1" r="5.4"/>
        <circle class="st16" cx="1073.4" cy="599.5" r="5.4"/>
        <circle class="st16" cx="1080.1" cy="587.8" r="5.4" transform="translate(259.8 1504) rotate(-76.7)"/>
        <circle class="st16" cx="1071.7" cy="614.1" r="5.4"/>
        <circle class="st16" cx="1065.1" cy="625.9" r="5.4"/>
        <circle class="st16" cx="1097" cy="582.3" r="5.4"/>
        <circle class="st16" cx="1063.3" cy="640.8" r="5.4"/>
        <circle class="st16" cx="1094.9" cy="597.2" r="5.4"/>
        <circle class="st16" cx="1088.5" cy="609.2" r="5.4"/>
        <circle class="st16" cx="1111.3" cy="592.8" r="5.4"/>
        <circle class="st16" cx="1086.1" cy="624.4" r="5.4"/>
        <circle class="st16" cx="1060.8" cy="655.9" r="5.4"/>
        <circle class="st16" cx="1079.8" cy="636.7" r="5.4"/>
        <circle class="st16" cx="1108.5" cy="608.2" r="5.4"/>
        <circle class="st16" cx="1102.2" cy="620.7" r="5.4"/>
        <circle class="st16" cx="1124.4" cy="604.8" r="5.4"/>
        <circle class="st16" cx="1076.8" cy="652.4" r="5.4"/>
        <circle class="st16" cx="1098.9" cy="636.5" r="5.4"/>
        <circle class="st16" cx="1120.8" cy="620.7" r="5.4"/>
        <circle class="st16" cx="1092.5" cy="649.7" r="5.4"/>
        <circle class="st16" cx="1114.4" cy="633.9" r="5.4"/>
        <circle class="st16" cx="1073" cy="668.4" r="5.4"/>
        <circle class="st16" cx="1136.2" cy="618.1" r="5.4"/>
        <circle class="st16" cx="1131.6" cy="634.4" r="5.4"/>
        <circle class="st16" cx="1109.9" cy="650.3" r="5.4"/>
        <circle class="st16" cx="1088.1" cy="666.2" r="5.4"/>
        <circle class="st16" cx="1146.5" cy="632.5" r="5.4"/>
        <circle class="st16" cx="1124.8" cy="648.5" r="5.4"/>
        <circle class="st16" cx="1103" cy="664.5" r="5.4"/>
        <circle class="st16" cx="1140.8" cy="649.3" r="5.4"/>
        <circle class="st16" cx="1082.5" cy="683" r="5.4"/>
        <circle class="st16" cx="1118.9" cy="665.5" r="5.4"/>
        <circle class="st16" cx="1155.3" cy="648" r="5.4"/>
        <circle class="st16" cx="1133.2" cy="664.3" r="5.4"/>
        <circle class="st16" cx="1096.8" cy="681.8" r="5.4"/>
        <circle class="st16" cx="1148.3" cy="665.2" r="5.4"/>
        <circle class="st16" cx="1111" cy="680.9" r="5.4"/>
        <circle class="st16" cx="1162.3" cy="664.2" r="5.4"/>
        <circle class="st16" cx="1125.7" cy="681.7" r="5.4"/>
        <circle class="st16" cx="1139.6" cy="681" r="5.4"/>
        <circle class="st16" cx="1088.8" cy="699.1" r="5.4"/>
        <circle class="st16" cx="1153.9" cy="681.7" r="5.4"/>
        <circle class="st16" cx="1167.6" cy="681.2" r="5.4"/>
        <circle class="st16" cx="1102.6" cy="698.6" r="5.4"/>
        <circle class="st16" cx="1116.4" cy="698.3" r="5.4"/>
        <circle class="st16" cx="1130.2" cy="698.8" r="5.4"/>
        <circle class="st16" cx="1143.9" cy="698.5" r="5.4"/>
        <circle class="st16" cx="1157.6" cy="698.9" r="5.4"/>
        <circle class="st16" cx="1171.1" cy="698.6" r="5.4"/>
        <circle class="st16" cx="924" cy="640.7" r="5.4"/>
        <circle class="st16" cx="995.9" cy="581.1" r="5.4"/>
      </g>
      <g id="_x32_-Partido-Acci-n-Nacional1" data-name="_x32_-Partido-Acci-n-Nacional">
        <circle class="st19" cx="1091.9" cy="716.3" r="5.4"/>
        <circle class="st19" cx="1105.4" cy="716.3" r="5.4"/>
        <circle class="st19" cx="1118.9" cy="716.3" r="5.4"/>
        <circle class="st19" cx="1132.4" cy="716.3" r="5.4"/>
        <circle class="st16" cx="1145.8" cy="716.3" r="5.4"/>
        <circle class="st16" cx="1159.3" cy="716.3" r="5.4"/>
      </g>
      <g id="_x33_-Partido-Nacionalista-Mexicano1" data-name="_x33_-Partido-Nacionalista-Mexicano">
        <circle class="st16" cx="1172.8" cy="716.3" r="5.4"/>
      </g>
    </g>
  </g>
</svg>