<?xml version="1.0" encoding="UTF-8"?>
<svg xmlns="http://www.w3.org/2000/svg" version="1.1" viewBox="0 0 1320.8 779">
  <!-- Generator: Adobe Illustrator 30.2.1, SVG Export Plug-In . SVG Version: 2.1.1 Build 1)  -->
  <defs>
    <style>
      .st0 {
        fill: none;
      }

      .st1 {
        font-size: 31px;
      }

      .st1, .st2, .st3, .st4, .st5, .st6 {
        fill: #fff;
      }

      .st1, .st3, .st7, .st4 {
        isolation: isolate;
      }

      .st1, .st3, .st4 {
        font-family: Helvetica-Bold, Helvetica;
        font-weight: 700;
      }

      .st8 {
        fill: #06338e;
      }

      .st2, .st9, .st10, .st11, .st12, .st13, .st6 {
        fill-rule: evenodd;
      }

      .st3 {
        font-size: 36px;
      }

      .st9 {
        fill: #00923f;
      }

      .st10 {
        fill: #d23026;
      }

      .st4 {
        font-size: 24px;
      }

      .st11 {
        fill: #131516;
      }

      .st13, .st14 {
        fill: #d11f2b;
      }

      .st15 {
        fill: #009150;
      }

      .st6 {
        stroke: #fff;
        stroke-linejoin: round;
        stroke-width: 2px;
      }

      .st16 {
        fill: #282828;
      }

      .st17 {
        fill: red;
      }

      .st18 {
        fill: #05338d;
      }
    </style>
  </defs>
  <g id="Capa_1">
    <g id="Capa_2">
      <g id="c">
        <rect class="st16" x="-5.4" y="-11.2" width="1329.7" height="795.8"/>
      </g>
    </g>
    <g id="b">
      <g class="st7">
        <g class="st7">
          <g class="st7">
            <g class="st7">
              <text class="st1" transform="translate(366.8 71.8) scale(1.2 1)"><tspan x="0" y="0">Senadores XLII y XLIII Legislatura</tspan></text>
            </g>
          </g>
        </g>
      </g>
      <g class="st7">
        <g class="st7">
          <g class="st7">
            <g class="st7">
              <text class="st1" transform="translate(64 484.6) scale(1.2 1)"><tspan x="0" y="0">Diputados XLII Legislatura</tspan></text>
            </g>
          </g>
        </g>
      </g>
      <g class="st7">
        <g class="st7">
          <g class="st7">
            <g class="st7">
              <text class="st1" transform="translate(821.9 480.7) scale(1.2 1)"><tspan x="0" y="0" xml:space="preserve">Diputados XLIII  Legislatura</tspan></text>
            </g>
          </g>
        </g>
      </g>
      <g class="st7">
        <g class="st7">
          <g class="st7">
            <g class="st7">
              <text class="st4" transform="translate(132.8 532.9)"><tspan x="0" y="0">155</tspan></text>
            </g>
          </g>
        </g>
      </g>
      <g id="aj">
        <g id="ak">
          <path id="al" class="st18" d="M97.1,542h21.3c1.5,0,2.7,1.2,2.7,2.7v21.3c0,1.5-1.2,2.7-2.7,2.7h-21.3c-1.5,0-2.7-1.2-2.7-2.7v-21.3c0-1.5,1.2-2.7,2.7-2.7h0Z"/>
          <g id="am">
            <g id="an">
              <circle id="ao" class="st5" cx="107.8" cy="555.2" r="12.9" transform="translate(-449.9 649) rotate(-88.6)"/>
              <circle id="ap" class="st18" cx="107.8" cy="555.4" r="11.4"/>
              <circle id="aq" class="st5" cx="107.8" cy="555.4" r="10"/>
            </g>
            <path id="ar" class="st8" d="M102.6,555.1c.3,0,.4-.3.4-.7v-2.4c0-.4,0-.6-.4-.6h-.9v3.7h.9ZM99.9,561.3v-11.8h4.1c.7,0,1,.9,1,1.8v3.7c0,1-.3,2.1-1.3,2.1h-1.9v4.3h-1.9,0ZM106.8,558h1l-.5-2.5-.5,2.5h0ZM106.3,559.7l-.3,1.6h-1.9l2.1-11.8h2.4l2,11.8h-1.9l-.3-1.6h-2.1ZM110.8,561.3v-11.8h1.7l1.2,4.1v-4.1h1.9v11.8h-1.8l-1.1-3.6v3.6h-1.9Z"/>
          </g>
        </g>
      </g>
      <g class="st7">
        <g class="st7">
          <g class="st7">
            <g class="st7">
              <text class="st4" transform="translate(133.7 568.9)"><tspan x="0" y="0">4</tspan></text>
            </g>
          </g>
        </g>
      </g>
      <g class="st7">
        <g class="st7">
          <g class="st7">
            <g class="st7">
              <text class="st4" transform="translate(133.8 604.2)"><tspan x="0" y="0">2</tspan></text>
            </g>
          </g>
        </g>
      </g>
      <g class="st7">
        <g class="st7">
          <g class="st7">
            <g class="st7">
              <text class="st4" transform="translate(886.1 533.8)"><tspan x="0" y="0">155</tspan></text>
            </g>
          </g>
        </g>
      </g>
      <g id="bi">
        <g id="bj">
          <path id="bk" class="st18" d="M850.4,542.9h21.3c1.5,0,2.7,1.2,2.7,2.7v21.3c0,1.5-1.2,2.7-2.7,2.7h-21.3c-1.5,0-2.7-1.2-2.7-2.7v-21.3c0-1.5,1.2-2.7,2.7-2.7h0Z"/>
          <g id="bl">
            <g id="bm">
              <circle id="bn" class="st5" cx="861.1" cy="556.3" r="12.9"/>
              <circle id="bo" class="st18" cx="861.1" cy="556.3" r="11.4"/>
              <circle id="bp" class="st5" cx="861.1" cy="556.3" r="10"/>
            </g>
            <path id="bq" class="st8" d="M856,556c.3,0,.4-.3.4-.7v-2.4c0-.4,0-.6-.4-.6h-.9v3.7h.9ZM853.2,562.2v-11.8h4.1c.7,0,1,.9,1,1.8v3.7c0,1-.3,2.1-1.3,2.1h-1.9v4.3h-1.9,0ZM860.1,558.9h1l-.5-2.5-.5,2.5h0ZM859.6,560.6l-.3,1.6h-1.9l2.1-11.8h2.4l2,11.8h-1.9l-.3-1.6h-2.1ZM864.1,562.2v-11.8h1.7l1.2,4.1v-4.1h1.9v11.8h-1.8l-1.1-3.6v3.6h-1.9Z"/>
          </g>
        </g>
      </g>
      <g class="st7">
        <g class="st7">
          <g class="st7">
            <g class="st7">
              <text class="st4" transform="translate(887 569.8)"><tspan x="0" y="0">5</tspan></text>
            </g>
          </g>
        </g>
      </g>
      <g class="st7">
        <g class="st7">
          <g class="st7">
            <g class="st7">
              <text class="st4" transform="translate(887.1 605.1)"><tspan x="0" y="0">2</tspan></text>
            </g>
          </g>
        </g>
      </g>
      <g class="st7">
        <g class="st7">
          <g class="st7">
            <text class="st3" transform="translate(716.6 288.3)"><tspan x="0" y="0">60</tspan></text>
          </g>
        </g>
      </g>
      <g id="br">
        <circle class="st15" cx="574.3" cy="280.7" r="10"/>
        <circle class="st15" cx="599.7" cy="280.8" r="10"/>
        <circle class="st15" cx="624.8" cy="280.8" r="10"/>
        <circle class="st15" cx="650" cy="280.8" r="10"/>
        <circle class="st15" cx="578.9" cy="254.2" r="10"/>
        <circle class="st15" cx="604.3" cy="255.8" r="10"/>
        <circle class="st15" cx="630.4" cy="256.2" r="10"/>
        <circle class="st15" cx="587.5" cy="228.7" r="10"/>
        <circle class="st15" cx="658.2" cy="254.4" r="10"/>
        <circle class="st15" cx="613.5" cy="232.1" r="10"/>
        <circle class="st15" cx="641.3" cy="233.5" r="10"/>
        <circle class="st15" cx="600.2" cy="204.9" r="10"/>
        <circle class="st15" cx="626.8" cy="210.5" r="10"/>
        <circle class="st15" cx="616.7" cy="183.6" r="10"/>
        <circle class="st15" cx="674.3" cy="231.9" r="10"/>
        <circle class="st15" cx="657" cy="213.8" r="10"/>
        <circle class="st15" cx="643.9" cy="191.8" r="10"/>
        <circle class="st15" cx="636.5" cy="165.3" r="10"/>
        <circle class="st15" cx="676.7" cy="198.1" r="10"/>
        <circle class="st15" cx="664.2" cy="176.4" r="10"/>
        <circle class="st15" cx="659" cy="150.5" r="10"/>
        <circle class="st15" cx="696.5" cy="215.5" r="10"/>
        <circle class="st15" cx="686.9" cy="165.1" r="10"/>
        <circle class="st15" cx="699.4" cy="187.1" r="10"/>
        <circle class="st15" cx="683.7" cy="139.7" r="10"/>
        <circle class="st15" cx="711.3" cy="158.1" r="10"/>
        <circle class="st15" cx="709.8" cy="133" r="10"/>
        <circle class="st15" cx="722.8" cy="206.9" r="10"/>
        <circle class="st15" cx="724" cy="181.5" r="10"/>
        <circle class="st15" cx="736.6" cy="155.8" r="10"/>
        <circle class="st15" cx="736.6" cy="130.8" r="10"/>
        <circle class="st15" cx="749.2" cy="181.5" r="10"/>
        <circle class="st15" cx="750.4" cy="206.9" r="10"/>
        <circle class="st15" cx="763.5" cy="133" r="10"/>
        <circle class="st15" cx="761.9" cy="158.1" r="10"/>
        <circle class="st15" cx="789.6" cy="139.7" r="10"/>
        <circle class="st15" cx="773.8" cy="187.1" r="10"/>
        <circle class="st15" cx="786.3" cy="165.1" r="10"/>
        <circle class="st15" cx="776.7" cy="215.5" r="10"/>
        <circle class="st15" cx="814.2" cy="150.5" r="10"/>
        <circle class="st15" cx="809.1" cy="176.4" r="10"/>
        <circle class="st15" cx="796.5" cy="198.1" r="10"/>
        <circle class="st15" cx="836.8" cy="165.3" r="10"/>
        <circle class="st15" cx="829.3" cy="191.8" r="10"/>
        <circle class="st15" cx="816.2" cy="213.8" r="10"/>
        <circle class="st15" cx="799" cy="231.9" r="10"/>
        <circle class="st15" cx="856.5" cy="183.6" r="10"/>
        <circle class="st15" cx="846.4" cy="210.5" r="10"/>
        <circle class="st15" cx="873" cy="204.9" r="10"/>
        <circle class="st15" cx="831.9" cy="233.5" r="10"/>
        <circle class="st15" cx="859.8" cy="232.1" r="10"/>
        <circle class="st15" cx="815" cy="254.4" r="10"/>
        <circle class="st15" cx="885.7" cy="228.7" r="10"/>
        <circle class="st15" cx="842.8" cy="256.2" r="10"/>
        <circle class="st15" cx="868.9" cy="255.8" r="10"/>
        <circle class="st15" cx="894.3" cy="254.2" r="10"/>
        <circle class="st15" cx="823.2" cy="280.8" r="10"/>
        <circle class="st15" cx="848.4" cy="280.8" r="10"/>
        <circle class="st15" cx="873.5" cy="280.8" r="10"/>
        <circle class="st15" cx="898.6" cy="280.8" r="10"/>
      </g>
      <circle id="bu" class="st14" cx="211.2" cy="518.9" r="14.4"/>
      <circle id="bv" class="st5" cx="211.2" cy="518.9" r="11.6"/>
      <path id="bw" class="st12" d="M203.2,524.7h-.1c0,.1.4.6.4.6l-.5.4-.5-.6h-.1c0,.1.5.8.5.8h.1l1.3-1h0c0-.1-.1-.1-.1-.1l-.6.4-.4-.5h0ZM202.5,523.7h-.1c0,.1.4.7.4.7l-.5.3-.4-.6h-.1c0,.1.5.8.5.8h.1l1.4-.9h0c0-.1-.5-.9-.5-.9h-.1c0,.1.4.8.4.8l-.6.3-.4-.6h0ZM201.2,523.2l.2.4h.1l1.5-.7h0c0-.1-.2-.5-.2-.5-.1-.4-.5-.5-.8-.3l-.6.3c-.3.1-.4.5-.3.8h.1ZM201.4,523.1c-.1-.2,0-.4.2-.5l.6-.3c.2-.1.4,0,.5.2v.3c.1,0-1.2.6-1.2.6v-.3h-.2,0ZM201.5,521.1h-.1c0,.1.2.8.2.8l-.6.2-.2-.7h-.1c0,.1.2.9.2.9h.1l1.6-.5h0c0-.1-.2-1-.2-1h-.1c0,.1.2.9.2.9l-.6.2-.2-.7h-.2,0ZM201.4,519.9c-.1-.2-.3-.3-.6-.3s-.5.3-.4.7v.5h.2l1.6-.2s.1,0,0-.1h-.7c0,.1,0-.2,0-.2h0l.6-.4h0c0,0,0-.1-.1-.1h0l-.6.4h0v-.3ZM200.6,520.3c0-.3,0-.4.3-.5.2,0,.4.1.4.4v.3h-.7c0,.1,0-.2,0-.2h0ZM201.9,518.1l-1.6.6s-.1,0-.1.1,0,.1.1.1l1.6.5h.1c0-.1-.4-.1-.4-.1v-.8h.4v-.2s0-.1-.1-.1h0ZM200.5,518.8l.9-.3v.6l-.9-.3h0ZM201.6,517h0c.2.1.3.3.3.5s-.2.4-.4.4h-.7c-.2,0-.4-.3-.4-.5s.2-.4.4-.4,0,0,0,0h0c-.3-.1-.5.1-.6.4,0,.4.2.6.5.7h.7c.4.1.6-.1.6-.5s-.1-.6-.4-.6h-.1,0ZM200.6,516.3h-.1c0,.1,1.6.4,1.6.4h.1c0-.1-1.6-.4-1.6-.4h0ZM201.4,515c-.4-.1-.6,0-.7.4-.1.4,0,.6.4.8l.7.2c.4.1.6,0,.7-.4s0-.6-.4-.8l-.7-.2h0ZM201.1,516c-.2,0-.3-.2-.3-.5s.3-.3.5-.3l.7.2c.2,0,.3.2.3.5s-.3.3-.5.3l-.7-.2h0ZM201.6,513.4h-.1c0,.1,1.2.6,1.2.6h-1.5c0,.1-.1.1-.1.2h0c0,.1,1.5.8,1.5.8h.1c0-.1-1.2-.7-1.2-.7h1.6c0-.1,0-.2.1-.2h0c0-.1-1.5-.8-1.5-.8h-.1ZM202.5,511.9l-.3.4h0c0,.1,1.3,1.1,1.3,1.1h.1l.3-.4c.2-.3.2-.6-.1-.9l-.5-.4c-.3-.2-.6-.2-.9.1h0ZM202.6,512c.2-.2.4-.2.6,0l.5.4c.2.1.2.4,0,.6l-.2.3-1.2-.9.2-.3h0ZM204.4,511.1h0c0,0,0-.1-.1-.1h0l-.5.5-.4-.4.5-.5h0c0,0,0-.1-.1-.1l-.6.6h0c0,.1,1.2,1.2,1.2,1.2h.1l.6-.6h0c0,0,0-.1-.1-.1h0l-.6.6-.5-.5.5-.5h0ZM206,510.8h.1c0-.1-.3-.6-.3-.6l.3-.2c.3-.2.4-.5.2-.8s-.5-.4-.8-.2l-.4.2h0c0,.1.9,1.5.9,1.5h0ZM205.7,509.2c.2-.1.4,0,.6.1s0,.4-.1.6l-.3.2-.4-.7.3-.2h-.1ZM208.1,509.7l-1.1-1.3h-.2c0,.1.2,1.8.2,1.8h0s0,.1.1,0h0v-.5l.6-.3.3.3h.1c.1,0,0,0,0-.1h0ZM206.9,508.6l.7.7-.6.2v-1h-.1,0ZM208.9,508.8c.2-.1.3-.4.2-.6,0-.3-.4-.5-.8-.4h-.4v.2h0l.4,1.6h.1c.1,0,0,0,0-.1l-.2-.6h.3c0-.1.5.5.5.5h.1c0-.1-.4-.6-.4-.6h.2,0ZM208.4,508c.2,0,.4,0,.5.2,0,.2,0,.4-.3.5h-.3l-.2-.6h.3ZM209.2,507.7h.5l.2,1.5s0,.1.1,0h0c0-.1-.2-1.6-.2-1.6h.4c0-.1,0-.2-.1-.2h-1v.2h.1ZM210.8,507.5s0-.1-.1-.1h0s-.1,0-.1.1h0v1.7s.1.1.2.1.1,0,.1-.1v-1.7h0ZM211.9,507.4h-.6v1.7h0c0,.1.5.1.5.1.4,0,.6-.2.7-.5v-.6c0-.4-.2-.6-.6-.6h0ZM211.8,507.6c.3,0,.4.2.4.4v.6c0,.2-.2.4-.5.4h-.4v-1.5h.5ZM214,508.3c0-.4-.1-.6-.5-.7-.4,0-.6.1-.7.5v.7c-.2.4,0,.6.3.7s.6-.1.7-.5v-.7h.2ZM213,508.1c0-.2.2-.4.5-.3s.4.2.3.5v.7c-.2.2-.4.4-.6.3s-.4-.2-.3-.5v-.7h.1ZM215.3,508.8h.1c0-.3,0-.5-.4-.6-.3-.1-.6,0-.7.2,0,.2,0,.4.2.6l.2.2c.1.1.2.2.2.4s-.2.3-.5.2c-.2,0-.3-.2-.3-.4h0c0-.1-.1-.1-.1-.1h0c0,.3,0,.5.4.7.3.1.6,0,.8-.3.1-.3,0-.5-.2-.6l-.2-.2c-.1,0-.1-.2-.1-.3s.2-.2.4-.1c.2,0,.3.2.2.4h0c0,.1,0-.1,0-.1h0ZM216.9,509l-.4-.2h-.1l-.9,1.4h0c0,.1.4.3.4.3.3.2.6.1.9-.2l.3-.5c.2-.3.1-.6-.2-.8h0ZM216.8,509.2c.2.1.3.4.1.6l-.3.6c-.1.2-.3.3-.6.1l-.3-.2.8-1.2.3.2h0ZM217.9,511h.1c0-.1-.5-.5-.5-.5l.4-.5.6.5h.1c0-.1-.7-.7-.7-.7h-.1l-1.1,1.3h0c0,.1.7.7.7.7h.1c0-.1-.6-.6-.6-.6l.4-.5.5.4h.1ZM219,510.8h0c0-.1-.1-.1-.1-.1l-1.2,1.1h0c0,.1.6.7.6.7h.1c0-.1-.5-.6-.5-.6l1.1-1.1h0ZM218.8,513.1h0c0,0,0,.1.1.1l.5-.3.2.3c.2.3.5.4.8.2.3-.2.4-.5.2-.8l-.2-.4h-.1l-1.4.9h-.1ZM220.4,512.7c.1.2,0,.4-.1.6s-.4,0-.6-.1l-.2-.3.7-.4.2.3h0ZM221.4,514.4h-.1l-1.1.5c-.2,0-.4,0-.5-.2s0-.4.2-.5l1.1-.5h0c0,0,0-.1-.1-.1h0l-1.1.5c-.3.1-.4.5-.3.8.1.3.4.5.8.3l1.1-.5h0v-.3h0ZM220.9,516h.1c0-.1-.2-.8-.2-.8l.6-.2.2.7h.1c0-.1-.2-.9-.2-.9h-.1l-1.6.5h0c0,.1.3,1,.3,1h.1c0-.1-.2-.9-.2-.9l.6-.2.2.7h0ZM220.3,516.5h0v.6c0,.3.3.5.6.5s.4-.2.4-.4h0c0,.2.3.2.4.2.3,0,.4-.3.4-.6v-.5h-.2l-1.6.3h0ZM221.9,516.8c0,.2,0,.4-.2.4s-.3,0-.4-.3v-.4h.6c0-.1,0,.3,0,.3h0ZM221.1,517c0,.2,0,.4-.3.4s-.4,0-.4-.3v-.4h.6c0-.1,0,.3,0,.3t0,0h0ZM222.1,517.9s.1,0,.1-.1,0-.1-.1-.1h-1.7s-.1.1-.1.2h0v.9h0v-.7h1.5l.3-.2h0ZM221.6,520c.4,0,.6-.2.6-.6s-.2-.6-.6-.6h-.7c-.4,0-.6.2-.6.5s.2.6.6.6h.7ZM221.7,519c.2,0,.4.2.4.4s-.2.4-.4.4h-.7c-.2,0-.4-.2-.4-.5s.2-.4.4-.4h.7ZM221.8,521.6h.1c0-.1-1.6-.6-1.6-.6h-.1c0,.1,1.3.5,1.3.5h-.8v.2h0c0,.1.6.7.6.7l-1.3-.4h-.1c0,.1,1.6.6,1.6.6h.1c0-.1-.7-.8-.7-.8l1-.2h-.1ZM220,523.5h0c0,.1.1.1.1.1h0l.3-.6.6.3-.3.7h0c0,.1.1.1.1.1l.4-.8h0c0-.1-1.5-.8-1.5-.8h-.1l-.4.8h0c0,.1.1.1.1.1h0l.3-.7.6.3-.3.6h0ZM220.6,524.4h0c0-.1-.9-.1-.9-.1l-.4-.9h-.1c0,.1.4.8.4.8h-.9.9l.4.8h.1c0-.1-.4-.8-.4-.8h.8v.2h0ZM219.8,525.4h.1c0-.1-1.3-1.1-1.3-1.1h-.1c0,.1,1.3,1.1,1.3,1.1h0ZM218.1,525.7h0c-.1-.2-.2-.4,0-.6s.4-.2.6,0l.6.5c.2.1.2.4,0,.5-.2.2-.4.2-.5,0h-.1c.2.3.6.3.8.1.2-.3.2-.6,0-.9l-.5-.5c-.3-.2-.6-.2-.9,0-.2.2-.2.6,0,.8h.1-.1ZM216.7,526.3l1.5.9h.2v-.2l-.7-1.6h-.1c0,.1.2.5.2.5l-.5.5-.3-.2h-.1c0,.1-.2.1-.2.1h0ZM218.1,526.9l-.8-.5.4-.4.4.9h0ZM216.6,528.3h.1c0-.1-.7-1.2-.7-1.2l1.4.7h.1c0-.1-.9-1.5-.9-1.5h-.1c0,.1.7,1.2.7,1.2l-1.4-.7h-.1c0,.1.9,1.5.9,1.5h0ZM214.9,528.6c.1.3.5.4.8.3s.5-.5.3-.8l-.3-.7c-.1-.3-.5-.4-.8-.3s-.5.5-.3.8l.3.7ZM215.8,528.2c0,.2,0,.4-.2.5s-.4,0-.5-.2l-.3-.7c0-.2,0-.4.2-.5s.4,0,.5.2l.3.7h0Z"/>
      <path class="st13" d="M211.6,510.1c.7,0,1.5.1,2.2.2,1.7.3,2,1.1,2.8,1.7.6.8,1.1,1,1.7,2.3.4,1.1.4,2.1.6,3.2,0,.9.3,1.9.3,2.8-.2.8.3,1.6-.2,2.5-.4.8-.5,1.1-1.3,1.4-2.5.3-5.1-.3-7.6-.8-1.3-.2-2.6-.5-3.8-.8-1.1-.5-2.7-.9-3.5-1.5-.8-.9-.7-2.8,0-3.4.4-.3.6-.5,1.4-.9.6-.2.6-.8,1.1-1,0-.1.1,0,0-.2.7.1,1.5.4,2.2.3.7,0,1.5,0,2.2-.5h0c-1.3.3-2.6.4-3.9.1-.5-.1-.5-.5-.8-.6-.6-.6-.6-1.8,0-2.2.6-.8,1.2-1.2,2.7-1.8,1.3-.5,2.6-.7,3.8-.7h.1ZM203.6,517.8c2.4,0,4.9.3,7.4.8,2.4.4,4.9,1,7.4,2.3.1,0,0,.1-.1.2-2.5-1.2-4.9-1.9-7.5-2.4-1.2-.3-2.5-.2-3.7-.5-1.2,0-2.5-.2-3.7-.1,0,0-.1,0-.1-.1.1,0,.3,0,.4-.1h0ZM204.9,520.8c2.2.2,4.3.5,6.6,1,1.1.3,2.1.4,3.3.8,1,.3,2.3.8,2.9,1.4h-.1c-2.1-1.2-4.5-1.7-6.7-2.2-2.2-.4-4.5-.9-6.8-.8,0,0-.1.1,0,.2.3.3.9.4,1.3.7-.7,0-1.6-.4-1.6-.9.4-.2.8-.1,1.2-.2h0Z"/>
      <path id="bx" class="st6" d="M204.3,518.7h0v1.3h.7-.6v-1.2h0ZM206.2,518.7h0v1.3h0v-1.3h0ZM207.3,520.1h.4c.3,0,.4-.1.5-.4,0-.2,0-.3-.2-.4h0c.1,0,.2-.2.3-.3,0-.2-.2-.4-.4-.4h-.4v1.3h0l-.2.2h0ZM207.9,518.9c.2,0,.3.1.3.3s-.1.2-.3.2h-.3v-.5h.3ZM207.9,519.6c.2,0,.3.1.3.3s-.1.2-.3.2h-.3v-.5h.3ZM210.1,519.9h0c-.2-.1-.4-.1-.6-.1v-.5c.3,0,.5,0,.7.1h0c-.2,0-.5,0-.7-.1h0l-.2,1.3h0c.2,0,.5,0,.7.1h0c-.2-.1-.4-.1-.6-.2v-.5h.7ZM212,520.3c.2,0,.3-.1.4-.3,0-.3-.1-.5-.4-.5h-.5c0,.4-.2.9-.2,1.3h0c0,0,0,.1.1.1h0c0-.2,0-.3.1-.5h.3c0,.2,0,.4.1.6h.1c0-.2,0-.4-.1-.6h0ZM211.9,519.6c.2,0,.3.2.3.4s-.2.3-.4.2h-.3v-.6h.4ZM213.4,519.9h0c.1.1.2.1.3.2-.1.4-.2.8-.3,1.2h0c0,0,0,.1.1.1h0c.1-.4.2-.8.3-1.2.1,0,.2,0,.3.1h0c-.3-.1-.5-.3-.8-.3h0ZM215.7,522.1v-1.4h0c0-.1-.1-.1-.1-.1-.3.4-.5.7-.8,1.1h0c0,.1.1-.1.2-.1.2,0,.4.1.5.2v.3h.2ZM215.6,520.8v.8c-.1,0-.3-.1-.4-.2.1-.2.3-.4.4-.6h0ZM217.6,521.4c-.1,0-.2-.1-.4-.2h-.1l-.4,1.2h0c.1.1.2.2.4.3.3.1.5,0,.6-.2,0-.1.1-.3.2-.5.1-.3,0-.5-.3-.7h0ZM217.6,521.6c.2,0,.3.3.2.4,0,.2-.1.3-.2.5,0,.2-.2.2-.4.1,0,0-.2,0-.3-.1l.4-1.1s.2,0,.3.1h0Z"/>
      <g class="st7">
        <g class="st7">
          <g class="st7">
            <g class="st7">
              <text class="st4" transform="translate(235.5 533.2)"><tspan x="0" y="0">1</tspan></text>
            </g>
          </g>
        </g>
      </g>
      <g>
        <path id="bg" class="st10" d="M113.8,505.4c6,2,10.3,7.6,10.3,14.2s-4.3,12.2-10.3,14.2v-28.3h0Z"/>
        <path id="bh" class="st9" d="M104.3,505.4v28.4c-6-2-10.4-7.6-10.4-14.2s4.2-12.1,10.1-14.1h.3Z"/>
        <polygon id="bi1" class="st2" points="113.8 533.8 104.3 533.8 104.3 505.3 113.8 505.3 113.8 533.8"/>
        <polygon id="bj1" class="st2" points="119.8 525.6 119.8 513.7 116.6 513.7 116.6 525.6 119.8 525.6"/>
        <path id="bk1" class="st2" d="M96.4,513.7v12h3.1v-4.8h2c1.7-.3,1.9-1.8,1.9-1.8v-3.5c0-1.7-1.9-1.9-1.9-1.9h-5.1ZM99.6,515.5v2.7c1,0,1-.6,1-.6v-1.3c0-1-1-.9-1-.9h0Z"/>
        <path id="bl1" class="st0" d="M96.4,513.7v12h3.1v-4.8h2c1.7-.3,1.9-1.8,1.9-1.8v-3.5c0-1.7-1.9-1.9-1.9-1.9h-5.1M99.6,515.5v2.7c1,0,1-.6,1-.6v-1.3c0-1-1-.9-1-.9h0Z"/>
        <path id="bm1" class="st11" d="M105.6,509.1v12h3.1v-5.1c1.4,0,1.1.9,1.1.9v4.1h3.2v-4.7c.2-.9-.9-1.6-.9-1.6.9-.5.9-1.7.9-1.7v-2.1c0-2-2.2-1.9-2.2-1.9h-5.2ZM108.8,511v2.7c1,0,1-.6,1-.6v-1.3c0-1-1-.9-1-.9h0Z"/>
        <path id="bn1" class="st0" d="M105.6,509.1v12h3.1v-5.1c1.4,0,1.1.9,1.1.9v4.1h3.2v-4.7c.2-.9-.9-1.6-.9-1.6.9-.5.9-1.7.9-1.7v-2.1c0-2-2.2-1.9-2.2-1.9h-5.1M108.8,511v2.7c1,0,1-.6,1-.6v-1.3c0-1-1-.9-1-.9h0Z"/>
      </g>
      <g>
        <path id="bg1" class="st10" d="M867.4,506.2c6,2,10.3,7.6,10.3,14.2s-4.3,12.2-10.3,14.2v-28.3h0Z"/>
        <path id="bh1" class="st9" d="M857.9,506.2v28.4c-6-2-10.4-7.6-10.4-14.2s4.2-12.1,10.1-14.1h.3Z"/>
        <polygon id="bi2" class="st2" points="867.4 534.6 857.9 534.6 857.9 506.1 867.4 506.1 867.4 534.6"/>
        <polygon id="bj2" class="st2" points="873.3 526.4 873.3 514.5 870.2 514.5 870.2 526.4 873.3 526.4"/>
        <path id="bk2" class="st2" d="M850,514.5v12h3.1v-4.8h2c1.7-.3,1.9-1.8,1.9-1.8v-3.5c0-1.7-1.9-1.9-1.9-1.9h-5.1ZM853.2,516.3v2.7c1,0,1-.6,1-.6v-1.3c0-1-1-.9-1-.9h0Z"/>
        <path id="bl2" class="st0" d="M850,514.5v12h3.1v-4.8h2c1.7-.3,1.9-1.8,1.9-1.8v-3.5c0-1.7-1.9-1.9-1.9-1.9h-5.1M853.2,516.3v2.7c1,0,1-.6,1-.6v-1.3c0-1-1-.9-1-.9h0Z"/>
        <path id="bm2" class="st11" d="M859.2,509.9v12h3.1v-5.1c1.4,0,1.1.9,1.1.9v4.1h3.2v-4.7c.2-.9-.9-1.6-.9-1.6.9-.5.9-1.7.9-1.7v-2.1c0-2-2.2-1.9-2.2-1.9h-5.2ZM862.4,511.8v2.7c1,0,1-.6,1-.6v-1.3c0-1-1-.9-1-.9h0Z"/>
        <path id="bn2" class="st0" d="M859.2,509.9v12h3.1v-5.1c1.4,0,1.1.9,1.1.9v4.1h3.2v-4.7c.2-.9-.9-1.6-.9-1.6.9-.5.9-1.7.9-1.7v-2.1c0-2-2.2-1.9-2.2-1.9h-5.1M862.4,511.8v2.7c1,0,1-.6,1-.6v-1.3c0-1-1-.9-1-.9h0Z"/>
      </g>
    </g>
    <g>
      <path id="bg2" class="st10" d="M477.3,107.4c20.1,6.7,34.6,25.6,34.6,47.7s-14.5,41-34.6,47.7v-95.4h0Z"/>
      <path id="bh2" class="st9" d="M445.2,107.4v95.6c-20.3-6.6-34.9-25.5-34.9-47.8s14.3-40.7,34.1-47.6l.8-.2h0Z"/>
      <polygon id="bi3" class="st2" points="477.2 203 445.1 203 445.1 106.9 477.2 106.9 477.2 203"/>
      <polygon id="bj3" class="st2" points="497.2 175.5 497.2 135.2 486.7 135.2 486.7 175.5 497.2 175.5"/>
      <path id="bk3" class="st2" d="M418.5,135.2v40.3h10.5v-16h6.6c5.8-1.1,6.4-6,6.4-6v-11.7c-.4-5.6-6.3-6.5-6.3-6.5h-17.2ZM429.5,141.5v9.2c3.3,0,3.4-1.9,3.4-1.9v-4.3c.1-3.3-3.4-2.9-3.4-2.9h0Z"/>
      <path id="bl3" class="st0" d="M418.5,135.2v40.3h10.5v-16h6.6c5.8-1.1,6.4-6,6.4-6v-11.7c-.4-5.6-6.3-6.5-6.3-6.5h-17.2M429.5,141.5v9.2c3.3,0,3.4-1.9,3.4-1.9v-4.3c.1-3.3-3.4-2.9-3.4-2.9h0Z"/>
      <path id="bm3" class="st11" d="M449.6,119.8v40.3h10.5v-17.1c4.6-.2,3.7,3.2,3.7,3.2v13.9h10.7v-15.9c.7-3.2-3.2-5.3-3.2-5.3,3.2-1.8,3-5.6,3-5.6v-7c0-6.8-7.5-6.5-7.5-6.5,0,0-17.2,0-17.2,0ZM460.4,126.3v9.2c3.3,0,3.4-1.9,3.4-1.9v-4.3c.1-3.3-3.4-2.9-3.4-2.9h0Z"/>
      <path id="bn3" class="st0" d="M449.6,119.8v40.3h10.5v-17.1c4.6-.2,3.7,3.2,3.7,3.2v13.9h10.7v-15.9c.7-3.2-3.2-5.3-3.2-5.3,3.2-1.8,3-5.6,3-5.6v-7c0-6.8-7.5-6.5-7.5-6.5h-17.2M460.4,126.3v9.2c3.3,0,3.4-1.9,3.4-1.9v-4.3c.1-3.3-3.4-2.9-3.4-2.9h0Z"/>
    </g>
    <g id="layer1">
      <path id="path2383" class="st17" d="M125.1,596c0,8.5-6.9,15.4-15.4,15.4s-15.4-6.9-15.4-15.4,6.9-15.4,15.4-15.4,15.4,6.9,15.4,15.4Z"/>
      <path id="path3155" class="st5" d="M121.8,596c0,6.6-5.4,12-12,12s-12-5.4-12-12,5.4-12,12-12,12,5.4,12,12Z"/>
      <path id="text3157" class="st17" d="M104.9,598.1v5.8h-3.4v-15.9h3.7c1.5,0,2.5.2,3.2.6.7.4,1.1,1.1,1.1,2.3v4.4c0,1-.3,1.8-.9,2.2-.6.4-1.8.6-3.7.6h0ZM106,595v-3.8c0-.6-.4-.8-1.2-.8v5.5c.8,0,1.2-.3,1.2-.8h0ZM113.4,598.1v5.8h-3.4v-15.9h3.7c1.5,0,2.5.2,3.2.6.7.4,1.1,1.1,1.1,2.3v4.4c0,1-.3,1.8-.9,2.2-.6.4-1.8.6-3.7.6h0ZM114.6,595v-3.8c0-.6-.4-.8-1.2-.8v5.5c.8,0,1.2-.3,1.2-.8h0Z"/>
    </g>
  </g>
  <g id="Capa_21" data-name="Capa_2">
    <g>
      <text class="st3" transform="translate(298.9 764)"><tspan x="0" y="0">162</tspan></text>
      <g id="_x30_-Partido-Popular-Socialista">
        <circle class="st17" cx="160.8" cy="762.2" r="5.4"/>
      </g>
      <g id="_x31_-Partido-Revolucionario-Institucional">
        <circle class="st17" cx="174.3" cy="762.2" r="5.4"/>
        <circle class="st5" cx="187.8" cy="762.2" r="5.4"/>
        <circle class="st15" cx="201.3" cy="762.2" r="5.4"/>
        <circle class="st15" cx="214.7" cy="762.2" r="5.4"/>
        <circle class="st15" cx="228.2" cy="762.2" r="5.4"/>
        <circle class="st15" cx="241.7" cy="762.2" r="5.4"/>
        <circle class="st15" cx="162.5" cy="744.5" r="5.4"/>
        <circle class="st15" cx="176.1" cy="744.8" r="5.4"/>
        <circle class="st15" cx="189.8" cy="744.4" r="5.4"/>
        <circle class="st15" cx="203.4" cy="744.7" r="5.4"/>
        <circle class="st15" cx="217.3" cy="744.2" r="5.4"/>
        <circle class="st15" cx="231" cy="744.6" r="5.4"/>
        <circle class="st15" cx="166" cy="727.1" r="5.4"/>
        <circle class="st15" cx="179.8" cy="727.7" r="5.4"/>
        <circle class="st15" cx="244.8" cy="745.1" r="5.4"/>
        <circle class="st15" cx="194" cy="727" r="5.4"/>
        <circle class="st15" cx="207.9" cy="727.7" r="5.4"/>
        <circle class="st15" cx="171.3" cy="710.2" r="5.4"/>
        <circle class="st15" cx="222.6" cy="726.8" r="5.4"/>
        <circle class="st15" cx="185.4" cy="711.1" r="5.4"/>
        <circle class="st15" cx="236.8" cy="727.7" r="5.4"/>
        <circle class="st15" cx="200.4" cy="710.2" r="5.4"/>
        <circle class="st15" cx="178.4" cy="693.9" r="5.4"/>
        <circle class="st15" cx="214.8" cy="711.4" r="5.4"/>
        <circle class="st15" cx="251.2" cy="728.9" r="5.4"/>
        <circle class="st15" cx="192.8" cy="695.3" r="5.4"/>
        <circle class="st15" cx="229.6" cy="711.5" r="5.4"/>
        <circle class="st15" cx="208.9" cy="694.4" r="5.4"/>
        <circle class="st15" cx="187.1" cy="678.5" r="5.4"/>
        <circle class="st15" cx="245.5" cy="712.2" r="5.4"/>
        <circle class="st15" cx="223.8" cy="696.2" r="5.4"/>
        <circle class="st15" cx="202" cy="680.4" r="5.4"/>
        <circle class="st15" cx="197.4" cy="664" r="5.4"/>
        <circle class="st15" cx="260.6" cy="714.3" r="5.4"/>
        <circle class="st15" cx="219.3" cy="679.8" r="5.4"/>
        <circle class="st15" cx="239.1" cy="697.6" r="5.4"/>
        <circle class="st15" cx="212.8" cy="666.6" r="5.4"/>
        <circle class="st15" cx="234.8" cy="682.5" r="5.4"/>
        <circle class="st15" cx="256.8" cy="698.3" r="5.4"/>
        <circle class="st15" cx="209.2" cy="650.7" r="5.4"/>
        <circle class="st15" cx="231.4" cy="666.7" r="5.4"/>
        <circle class="st15" cx="225.1" cy="654.2" r="5.4"/>
        <circle class="st15" cx="259.8" cy="677.6" r="5.4"/>
        <circle class="st15" cx="272.8" cy="701.9" r="5.4"/>
        <circle class="st15" cx="247.6" cy="670.3" r="5.4"/>
        <circle class="st15" cx="222.3" cy="638.8" r="5.4"/>
        <circle class="st15" cx="245.2" cy="655.1" r="5.4"/>
        <circle class="st15" cx="238.7" cy="643.2" r="5.4"/>
        <circle class="st15" cx="270.4" cy="686.7" r="5.4"/>
        <circle class="st15" cx="236.7" cy="628.3" r="5.4"/>
        <circle class="st15" cx="272.5" cy="668.8" r="5.4"/>
        <circle class="st15" cx="261.9" cy="660.1" r="5.4"/>
        <circle class="st15" cx="253.5" cy="633.8" r="5.4"/>
        <circle class="st15" cx="260.2" cy="645.4" r="5.4"/>
        <circle class="st15" cx="287.2" cy="692.1" r="5.4"/>
        <circle class="st15" cx="252" cy="619.3" r="5.4"/>
        <circle class="st15" cx="285.7" cy="677.7" r="5.4"/>
        <circle class="st15" cx="280.5" cy="649.9" r="5.4"/>
        <circle class="st15" cx="286.6" cy="662.5" r="5.4"/>
        <circle class="st15" cx="269.3" cy="626.1" r="5.4"/>
        <circle class="st15" cx="276.4" cy="637.7" r="5.4"/>
        <circle class="st15" cx="268.2" cy="612" r="5.4"/>
        <circle class="st15" cx="303.2" cy="685.3" r="5.4"/>
        <circle class="st15" cx="285.8" cy="620.3" r="5.4"/>
        <circle class="st15" cx="296.1" cy="645.9" r="5.4"/>
        <circle class="st15" cx="302.5" cy="671.5" r="5.4"/>
        <circle class="st15" cx="285.1" cy="606.5" r="5.4"/>
        <circle class="st15" cx="291.5" cy="632.1" r="5.4"/>
        <circle class="st15" cx="301.9" cy="657.8" r="5.4"/>
        <circle class="st15" cx="302.8" cy="616.4" r="5.4"/>
        <circle class="st15" cx="302.4" cy="602.8" r="5.4"/>
        <circle class="st15" cx="314.4" cy="642.3" r="5.4"/>
        <circle class="st15" cx="307.1" cy="628.7" r="5.4"/>
        <circle class="st15" cx="320.3" cy="681.9" r="5.4"/>
        <circle class="st15" cx="320" cy="668.4" r="5.4"/>
        <circle class="st15" cx="319.9" cy="654.9" r="5.4"/>
        <circle class="st15" cx="320.2" cy="614.4" r="5.4"/>
        <circle class="st15" cx="320.1" cy="600.9" r="5.4"/>
        <circle class="st15" cx="335.7" cy="627.2" r="5.4"/>
        <circle class="st15" cx="330" cy="641.1" r="5.4"/>
        <circle class="st15" cx="337.8" cy="600.9" r="5.4"/>
        <circle class="st15" cx="337.7" cy="614.4" r="5.4"/>
        <circle class="st15" cx="338.1" cy="654.9" r="5.4"/>
        <circle class="st15" cx="337.9" cy="668.4" r="5.4"/>
        <circle class="st15" cx="337.7" cy="681.9" r="5.4"/>
        <circle class="st15" cx="349.9" cy="628.7" r="5.4"/>
        <circle class="st15" cx="346.6" cy="642.3" r="5.4"/>
        <circle class="st15" cx="355.5" cy="602.8" r="5.4"/>
        <circle class="st15" cx="355.1" cy="616.4" r="5.4"/>
        <circle class="st15" cx="356" cy="657.8" r="5.4"/>
        <circle class="st15" cx="366.5" cy="632.1" r="5.4"/>
        <circle class="st15" cx="372.9" cy="606.5" r="5.4"/>
        <circle class="st15" cx="355.4" cy="671.5" r="5.4"/>
        <circle class="st15" cx="363.8" cy="645.9" r="5.4"/>
        <circle class="st15" cx="372.2" cy="620.3" r="5.4"/>
        <circle class="st15" cx="354.7" cy="685.3" r="5.4"/>
        <circle class="st15" cx="389.7" cy="612" r="5.4"/>
        <circle class="st15" cx="382.5" cy="637.7" r="5.4"/>
        <circle class="st15" cx="388.7" cy="626.1" r="5.4"/>
        <circle class="st15" cx="373.3" cy="663.5" r="5.4"/>
        <circle class="st15" cx="380.4" cy="651.9" r="5.4"/>
        <circle class="st15" cx="372.2" cy="677.7" r="5.4"/>
        <circle class="st15" cx="405.9" cy="619.3" r="5.4"/>
        <circle class="st15" cx="370.8" cy="692.1" r="5.4"/>
        <circle class="st15" cx="397.7" cy="645.4" r="5.4"/>
        <circle class="st15" cx="404.4" cy="633.8" r="5.4" transform="translate(-305.3 881.8) rotate(-76.7)"/>
        <circle class="st15" cx="396" cy="660.1" r="5.4"/>
        <circle class="st15" cx="389.5" cy="671.8" r="5.4"/>
        <circle class="st15" cx="421.3" cy="628.3" r="5.4"/>
        <circle class="st15" cx="387.6" cy="686.7" r="5.4"/>
        <circle class="st15" cx="419.2" cy="643.2" r="5.4"/>
        <circle class="st15" cx="412.8" cy="655.1" r="5.4"/>
        <circle class="st15" cx="435.6" cy="638.8" r="5.4"/>
        <circle class="st15" cx="410.4" cy="670.3" r="5.4"/>
        <circle class="st15" cx="385.1" cy="701.9" r="5.4"/>
        <circle class="st15" cx="404.1" cy="682.6" r="5.4"/>
        <circle class="st15" cx="432.8" cy="654.2" r="5.4"/>
        <circle class="st15" cx="426.5" cy="666.7" r="5.4"/>
        <circle class="st15" cx="448.7" cy="650.7" r="5.4"/>
        <circle class="st15" cx="401.1" cy="698.3" r="5.4"/>
        <circle class="st15" cx="423.2" cy="682.5" r="5.4"/>
        <circle class="st15" cx="445.1" cy="666.6" r="5.4"/>
        <circle class="st15" cx="416.8" cy="695.6" r="5.4"/>
        <circle class="st15" cx="438.7" cy="679.8" r="5.4"/>
        <circle class="st15" cx="397.3" cy="714.3" r="5.4"/>
        <circle class="st15" cx="460.5" cy="664" r="5.4"/>
        <circle class="st15" cx="455.9" cy="680.4" r="5.4"/>
        <circle class="st15" cx="434.2" cy="696.2" r="5.4"/>
        <circle class="st15" cx="412.4" cy="712.2" r="5.4"/>
        <circle class="st15" cx="470.8" cy="678.5" r="5.4"/>
        <circle class="st15" cx="449.1" cy="694.4" r="5.4"/>
        <circle class="st15" cx="427.3" cy="710.5" r="5.4"/>
        <circle class="st15" cx="465.1" cy="695.3" r="5.4"/>
        <circle class="st15" cx="406.8" cy="728.9" r="5.4"/>
        <circle class="st15" cx="443.2" cy="711.4" r="5.4"/>
        <circle class="st15" cx="479.6" cy="693.9" r="5.4"/>
        <circle class="st15" cx="457.5" cy="710.2" r="5.4"/>
        <circle class="st15" cx="421.1" cy="727.7" r="5.4"/>
        <circle class="st15" cx="472.6" cy="711.1" r="5.4"/>
        <circle class="st15" cx="435.3" cy="726.8" r="5.4"/>
        <circle class="st15" cx="486.6" cy="710.2" r="5.4"/>
        <circle class="st15" cx="450" cy="727.7" r="5.4"/>
        <circle class="st15" cx="463.9" cy="727" r="5.4"/>
        <circle class="st15" cx="413.1" cy="745.1" r="5.4"/>
        <circle class="st15" cx="478.2" cy="727.7" r="5.4"/>
        <circle class="st15" cx="492" cy="727.1" r="5.4"/>
        <circle class="st15" cx="426.9" cy="744.6" r="5.4"/>
        <circle class="st15" cx="440.7" cy="744.2" r="5.4"/>
        <circle class="st15" cx="454.5" cy="744.7" r="5.4"/>
        <circle class="st15" cx="468.2" cy="744.4" r="5.4"/>
        <circle class="st15" cx="481.9" cy="744.8" r="5.4"/>
        <circle class="st15" cx="495.5" cy="744.5" r="5.4"/>
        <circle class="st15" cx="248.3" cy="686.7" r="5.4"/>
        <circle class="st15" cx="320.2" cy="627" r="5.4"/>
      </g>
      <g id="_x32_-Partido-Acci-n-Nacional">
        <circle class="st18" cx="416.2" cy="762.2" r="5.4"/>
        <circle class="st18" cx="429.7" cy="762.2" r="5.4"/>
        <circle class="st18" cx="443.2" cy="762.2" r="5.4"/>
        <circle class="st18" cx="456.7" cy="762.2" r="5.4"/>
        <circle class="st15" cx="470.2" cy="762.2" r="5.4"/>
        <circle class="st15" cx="483.6" cy="762.2" r="5.4"/>
      </g>
      <g id="_x33_-Partido-Nacionalista-Mexicano">
        <circle class="st15" cx="497.1" cy="762.2" r="5.4"/>
      </g>
    </g>
    <g>
      <text class="st3" transform="translate(1038.6 763.2)"><tspan x="0" y="0">162</tspan></text>
      <g id="_x30_-Partido-Popular-Socialista1" data-name="_x30_-Partido-Popular-Socialista">
        <circle class="st17" cx="900.5" cy="761.5" r="5.4"/>
      </g>
      <g id="_x31_-Partido-Revolucionario-Institucional1" data-name="_x31_-Partido-Revolucionario-Institucional">
        <circle class="st17" cx="914" cy="761.5" r="5.4"/>
        <circle class="st15" cx="927.4" cy="761.5" r="5.4"/>
        <circle class="st15" cx="940.9" cy="761.5" r="5.4"/>
        <circle class="st15" cx="954.4" cy="761.5" r="5.4"/>
        <circle class="st15" cx="967.9" cy="761.5" r="5.4"/>
        <circle class="st15" cx="981.4" cy="761.5" r="5.4"/>
        <circle class="st15" cx="902.1" cy="743.8" r="5.4"/>
        <circle class="st15" cx="915.7" cy="744.1" r="5.4"/>
        <circle class="st15" cx="929.4" cy="743.7" r="5.4"/>
        <circle class="st15" cx="943.1" cy="744" r="5.4"/>
        <circle class="st15" cx="956.9" cy="743.5" r="5.4"/>
        <circle class="st15" cx="970.6" cy="743.9" r="5.4"/>
        <circle class="st15" cx="905.6" cy="726.4" r="5.4"/>
        <circle class="st15" cx="919.4" cy="727" r="5.4"/>
        <circle class="st15" cx="984.4" cy="744.4" r="5.4"/>
        <circle class="st15" cx="933.7" cy="726.3" r="5.4"/>
        <circle class="st15" cx="947.6" cy="726.9" r="5.4"/>
        <circle class="st15" cx="910.9" cy="709.5" r="5.4"/>
        <circle class="st15" cx="962.2" cy="726.1" r="5.4"/>
        <circle class="st15" cx="925" cy="710.4" r="5.4"/>
        <circle class="st15" cx="976.5" cy="727" r="5.4"/>
        <circle class="st15" cx="940.1" cy="709.5" r="5.4"/>
        <circle class="st15" cx="918" cy="693.2" r="5.4"/>
        <circle class="st15" cx="954.4" cy="710.7" r="5.4"/>
        <circle class="st15" cx="990.8" cy="728.2" r="5.4"/>
        <circle class="st15" cx="932.5" cy="694.5" r="5.4"/>
        <circle class="st15" cx="969.3" cy="710.8" r="5.4"/>
        <circle class="st15" cx="948.5" cy="693.7" r="5.4"/>
        <circle class="st15" cx="926.8" cy="677.7" r="5.4"/>
        <circle class="st15" cx="985.2" cy="711.4" r="5.4"/>
        <circle class="st15" cx="963.4" cy="695.5" r="5.4"/>
        <circle class="st15" cx="941.7" cy="679.6" r="5.4"/>
        <circle class="st15" cx="937.1" cy="663.3" r="5.4"/>
        <circle class="st15" cx="1000.3" cy="713.6" r="5.4"/>
        <circle class="st15" cx="958.9" cy="679.1" r="5.4"/>
        <circle class="st15" cx="978.8" cy="696.9" r="5.4"/>
        <circle class="st15" cx="952.5" cy="665.9" r="5.4"/>
        <circle class="st15" cx="974.4" cy="681.7" r="5.4"/>
        <circle class="st15" cx="996.5" cy="697.6" r="5.4"/>
        <circle class="st15" cx="948.9" cy="650" r="5.4"/>
        <circle class="st15" cx="971.1" cy="665.9" r="5.4"/>
        <circle class="st15" cx="964.8" cy="653.4" r="5.4"/>
        <circle class="st15" cx="999.5" cy="676.9" r="5.4"/>
        <circle class="st15" cx="1012.4" cy="701.1" r="5.4"/>
        <circle class="st15" cx="987.2" cy="669.6" r="5.4"/>
        <circle class="st15" cx="962" cy="638" r="5.4"/>
        <circle class="st15" cx="984.8" cy="654.4" r="5.4"/>
        <circle class="st15" cx="978.4" cy="642.4" r="5.4"/>
        <circle class="st15" cx="1010" cy="686" r="5.4"/>
        <circle class="st15" cx="976.3" cy="627.5" r="5.4"/>
        <circle class="st15" cx="1012.1" cy="668.1" r="5.4"/>
        <circle class="st15" cx="1001.6" cy="659.3" r="5.4"/>
        <circle class="st15" cx="993.2" cy="633" r="5.4"/>
        <circle class="st15" cx="999.9" cy="644.7" r="5.4"/>
        <circle class="st15" cx="1026.8" cy="691.3" r="5.4"/>
        <circle class="st15" cx="991.7" cy="618.6" r="5.4"/>
        <circle class="st15" cx="1025.4" cy="677" r="5.4"/>
        <circle class="st15" cx="1020.2" cy="649.1" r="5.4"/>
        <circle class="st15" cx="1026.3" cy="661.7" r="5.4"/>
        <circle class="st15" cx="1008.9" cy="625.4" r="5.4"/>
        <circle class="st15" cx="1016.1" cy="637" r="5.4"/>
        <circle class="st15" cx="1007.9" cy="611.3" r="5.4"/>
        <circle class="st15" cx="1042.9" cy="684.6" r="5.4"/>
        <circle class="st15" cx="1025.4" cy="619.6" r="5.4"/>
        <circle class="st15" cx="1035.8" cy="645.2" r="5.4"/>
        <circle class="st15" cx="1042.1" cy="670.8" r="5.4"/>
        <circle class="st15" cx="1024.7" cy="605.8" r="5.4"/>
        <circle class="st15" cx="1031.1" cy="631.4" r="5.4"/>
        <circle class="st15" cx="1041.6" cy="657" r="5.4"/>
        <circle class="st15" cx="1042.5" cy="615.6" r="5.4"/>
        <circle class="st15" cx="1042.1" cy="602.1" r="5.4"/>
        <circle class="st15" cx="1054" cy="641.6" r="5.4"/>
        <circle class="st15" cx="1046.7" cy="628" r="5.4"/>
        <circle class="st15" cx="1059.9" cy="681.2" r="5.4"/>
        <circle class="st15" cx="1059.7" cy="667.7" r="5.4"/>
        <circle class="st15" cx="1059.5" cy="654.2" r="5.4"/>
        <circle class="st15" cx="1059.9" cy="613.7" r="5.4"/>
        <circle class="st15" cx="1059.7" cy="600.2" r="5.4"/>
        <circle class="st15" cx="1075.3" cy="626.5" r="5.4"/>
        <circle class="st15" cx="1069.6" cy="640.3" r="5.4"/>
        <circle class="st15" cx="1077.5" cy="600.2" r="5.4"/>
        <circle class="st15" cx="1077.4" cy="613.7" r="5.4"/>
        <circle class="st15" cx="1077.7" cy="654.2" r="5.4"/>
        <circle class="st15" cx="1077.5" cy="667.7" r="5.4"/>
        <circle class="st15" cx="1077.3" cy="681.2" r="5.4"/>
        <circle class="st15" cx="1089.5" cy="628" r="5.4"/>
        <circle class="st15" cx="1086.2" cy="641.6" r="5.4"/>
        <circle class="st15" cx="1095.2" cy="602.1" r="5.4"/>
        <circle class="st15" cx="1094.8" cy="615.6" r="5.4"/>
        <circle class="st15" cx="1095.7" cy="657" r="5.4"/>
        <circle class="st15" cx="1106.1" cy="631.4" r="5.4"/>
        <circle class="st15" cx="1112.5" cy="605.8" r="5.4"/>
        <circle class="st15" cx="1095.1" cy="670.8" r="5.4"/>
        <circle class="st15" cx="1103.5" cy="645.2" r="5.4"/>
        <circle class="st15" cx="1111.8" cy="619.6" r="5.4"/>
        <circle class="st15" cx="1094.4" cy="684.6" r="5.4"/>
        <circle class="st15" cx="1129.4" cy="611.3" r="5.4"/>
        <circle class="st15" cx="1122.2" cy="637" r="5.4"/>
        <circle class="st15" cx="1128.3" cy="625.4" r="5.4"/>
        <circle class="st15" cx="1113" cy="662.7" r="5.4"/>
        <circle class="st15" cx="1120.1" cy="651.1" r="5.4"/>
        <circle class="st15" cx="1111.8" cy="677" r="5.4"/>
        <circle class="st15" cx="1145.6" cy="618.6" r="5.4"/>
        <circle class="st15" cx="1110.4" cy="691.3" r="5.4"/>
        <circle class="st15" cx="1137.3" cy="644.7" r="5.4"/>
        <circle class="st15" cx="1144.1" cy="633" r="5.4" transform="translate(265.1 1601.1) rotate(-76.7)"/>
        <circle class="st15" cx="1135.7" cy="659.3" r="5.4"/>
        <circle class="st15" cx="1129.1" cy="671.1" r="5.4"/>
        <circle class="st15" cx="1160.9" cy="627.5" r="5.4"/>
        <circle class="st15" cx="1127.2" cy="686" r="5.4"/>
        <circle class="st15" cx="1158.9" cy="642.4" r="5.4"/>
        <circle class="st15" cx="1152.4" cy="654.4" r="5.4"/>
        <circle class="st15" cx="1175.2" cy="638" r="5.4"/>
        <circle class="st15" cx="1150" cy="669.6" r="5.4"/>
        <circle class="st15" cx="1124.8" cy="701.1" r="5.4"/>
        <circle class="st15" cx="1143.7" cy="681.9" r="5.4"/>
        <circle class="st15" cx="1172.5" cy="653.4" r="5.4"/>
        <circle class="st15" cx="1166.2" cy="665.9" r="5.4"/>
        <circle class="st15" cx="1188.4" cy="650" r="5.4"/>
        <circle class="st15" cx="1140.8" cy="697.6" r="5.4"/>
        <circle class="st15" cx="1162.8" cy="681.7" r="5.4"/>
        <circle class="st15" cx="1184.8" cy="665.9" r="5.4"/>
        <circle class="st15" cx="1156.5" cy="694.9" r="5.4"/>
        <circle class="st15" cx="1178.3" cy="679.1" r="5.4"/>
        <circle class="st15" cx="1137" cy="713.6" r="5.4"/>
        <circle class="st15" cx="1200.2" cy="663.3" r="5.4"/>
        <circle class="st15" cx="1195.6" cy="679.6" r="5.4"/>
        <circle class="st15" cx="1173.8" cy="695.5" r="5.4"/>
        <circle class="st15" cx="1152.1" cy="711.4" r="5.4"/>
        <circle class="st15" cx="1210.5" cy="677.7" r="5.4"/>
        <circle class="st15" cx="1188.7" cy="693.7" r="5.4"/>
        <circle class="st15" cx="1167" cy="709.8" r="5.4"/>
        <circle class="st15" cx="1204.8" cy="694.5" r="5.4"/>
        <circle class="st15" cx="1146.4" cy="728.2" r="5.4"/>
        <circle class="st15" cx="1182.8" cy="710.7" r="5.4"/>
        <circle class="st15" cx="1219.2" cy="693.2" r="5.4"/>
        <circle class="st15" cx="1197.2" cy="709.5" r="5.4"/>
        <circle class="st15" cx="1160.8" cy="727" r="5.4"/>
        <circle class="st15" cx="1212.2" cy="710.4" r="5.4"/>
        <circle class="st15" cx="1175" cy="726.1" r="5.4"/>
        <circle class="st15" cx="1226.3" cy="709.5" r="5.4"/>
        <circle class="st15" cx="1189.7" cy="726.9" r="5.4"/>
        <circle class="st15" cx="1203.6" cy="726.3" r="5.4"/>
        <circle class="st15" cx="1152.8" cy="744.4" r="5.4"/>
        <circle class="st15" cx="1217.8" cy="727" r="5.4"/>
        <circle class="st15" cx="1231.6" cy="726.4" r="5.4"/>
        <circle class="st15" cx="1166.6" cy="743.9" r="5.4"/>
        <circle class="st15" cx="1180.3" cy="743.5" r="5.4"/>
        <circle class="st15" cx="1194.2" cy="744" r="5.4"/>
        <circle class="st15" cx="1207.8" cy="743.7" r="5.4"/>
        <circle class="st15" cx="1221.5" cy="744.1" r="5.4"/>
        <circle class="st15" cx="1235.1" cy="743.8" r="5.4"/>
        <circle class="st15" cx="988" cy="685.9" r="5.4"/>
        <circle class="st15" cx="1059.9" cy="626.3" r="5.4"/>
      </g>
      <g id="_x32_-Partido-Acci-n-Nacional1" data-name="_x32_-Partido-Acci-n-Nacional">
        <circle class="st18" cx="1155.9" cy="761.5" r="5.4"/>
        <circle class="st18" cx="1169.4" cy="761.5" r="5.4"/>
        <circle class="st18" cx="1182.8" cy="761.5" r="5.4"/>
        <circle class="st18" cx="1196.3" cy="761.5" r="5.4"/>
        <circle class="st15" cx="1209.8" cy="761.5" r="5.4"/>
        <circle class="st15" cx="1223.3" cy="761.5" r="5.4"/>
      </g>
      <g id="_x33_-Partido-Nacionalista-Mexicano1" data-name="_x33_-Partido-Nacionalista-Mexicano">
        <circle class="st15" cx="1236.8" cy="761.5" r="5.4"/>
      </g>
    </g>
    <g id="layer11" data-name="layer1">
      <path id="path23831" data-name="path2383" class="st17" d="M878.2,592c0,8.5-6.9,15.4-15.4,15.4s-15.4-6.9-15.4-15.4,6.9-15.4,15.4-15.4,15.4,6.9,15.4,15.4Z"/>
      <path id="path31551" data-name="path3155" class="st5" d="M874.8,592c0,6.6-5.4,12-12,12s-12-5.4-12-12,5.4-12,12-12,12,5.4,12,12Z"/>
      <path id="text31571" data-name="text3157" class="st17" d="M857.9,594.1v5.8h-3.4v-15.9h3.7c1.5,0,2.5.2,3.2.6.7.4,1.1,1.1,1.1,2.3v4.4c0,1-.3,1.8-.9,2.2-.6.4-1.8.6-3.7.6h0ZM859,591v-3.8c0-.6-.4-.8-1.2-.8v5.5c.8,0,1.2-.3,1.2-.8h0ZM866.5,594.1v5.8h-3.4v-15.9h3.7c1.5,0,2.5.2,3.2.6.7.4,1.1,1.1,1.1,2.3v4.4c0,1-.3,1.8-.9,2.2-.6.4-1.8.6-3.7.6h0ZM867.6,591v-3.8c0-.6-.4-.8-1.2-.8v5.5c.8,0,1.2-.3,1.2-.8h0Z"/>
    </g>
  </g>
</svg>