<?xml version="1.0" encoding="UTF-8"?>
<svg xmlns="http://www.w3.org/2000/svg" xmlns:xlink="http://www.w3.org/1999/xlink" version="1.1" viewBox="0 0 1221.8 734.6">
  <!-- Generator: Adobe Illustrator 30.2.1, SVG Export Plug-In . SVG Version: 2.1.1 Build 1)  -->
  <defs>
    <style>
      .st0 {
        fill: none;
      }

      .st1 {
        fill: #d600fc;
      }

      .st2 {
        fill: #06338e;
      }

      .st3, .st4, .st5, .st6, .st7, .st8, .st9, .st10 {
        fill: #fff;
      }

      .st3, .st11, .st12, .st13, .st14, .st15, .st7 {
        fill-rule: evenodd;
      }

      .st4 {
        font-size: 36px;
      }

      .st4, .st16, .st5, .st8, .st9, .st10 {
        isolation: isolate;
      }

      .st4, .st5, .st8, .st9, .st10 {
        font-family: Helvetica-Bold, Helvetica;
        font-weight: 700;
      }

      .st11 {
        fill: #00923f;
      }

      .st17 {
        fill: #f0f;
      }

      .st12 {
        fill: #d23026;
      }

      .st18 {
        fill: #ed1c24;
      }

      .st19 {
        fill: #4da663;
      }

      .st5 {
        font-size: 24px;
      }

      .st13 {
        fill: #131516;
      }

      .st15, .st20 {
        fill: #d11f2b;
      }

      .st21 {
        fill: #009150;
      }

      .st7 {
        stroke: #fff;
        stroke-linejoin: round;
        stroke-width: 2px;
      }

      .st22 {
        fill: #282828;
      }

      .st23 {
        fill: #ed1d27;
      }

      .st8 {
        letter-spacing: 0em;
      }

      .st8, .st10 {
        font-size: 31px;
      }

      .st9 {
        font-size: 37px;
      }

      .st24 {
        fill: #05338d;
      }
    </style>
  </defs>
  <g id="Capa_2">
    <g id="Capa_21" data-name="Capa_2">
      <g id="c">
        <rect class="st22" x="-51.4" y="-30.4" width="1323.8" height="795.8"/>
      </g>
    </g>
  </g>
  <g id="b">
    <g id="c1" data-name="c">
      <g class="st16">
        <g class="st16">
          <g class="st16">
            <text class="st10" transform="translate(302.8 26.6) scale(1.2 1)"><tspan x="0" y="0">Senadores XLIV y X</tspan></text>
            <text class="st8" transform="translate(640 26.6) scale(1.2 1)"><tspan x="0" y="0">L</tspan></text>
            <text class="st10" transform="translate(659.3 26.6) scale(1.2 1)"><tspan x="0" y="0">V Legislatura</tspan></text>
          </g>
        </g>
      </g>
      <g class="st16">
        <g class="st16">
          <g class="st16">
            <text class="st10" transform="translate(0 439.4) scale(1.2 1)"><tspan x="0" y="0">Diputados XLIV Legislatura</tspan></text>
          </g>
        </g>
      </g>
      <g class="st16">
        <g class="st16">
          <g class="st16">
            <text class="st10" transform="translate(757.6 434) scale(1.2 1)"><tspan x="0" y="0">Diputados X</tspan></text>
            <text class="st8" transform="translate(967 434) scale(1.2 1)"><tspan x="0" y="0">L</tspan></text>
            <text class="st10" transform="translate(986.3 434) scale(1.2 1)"><tspan x="0" y="0" xml:space="preserve">V  Legislatura</tspan></text>
          </g>
        </g>
      </g>
      <g class="st16">
        <g class="st16">
          <g class="st16">
            <text class="st5" transform="translate(68.8 487.7)"><tspan x="0" y="0">153</tspan></text>
          </g>
        </g>
      </g>
      <g id="aj">
        <g id="ak">
          <path id="al" class="st24" d="M33.1,496.8h21.3c1.5,0,2.7,1.2,2.7,2.7v21.3c0,1.5-1.2,2.7-2.7,2.7h-21.3c-1.5,0-2.7-1.2-2.7-2.7v-21.3c0-1.5,1.2-2.7,2.7-2.7h0Z"/>
          <g id="am">
            <g id="an">
              <circle id="ao" class="st6" cx="43.8" cy="510.2" r="12.9"/>
              <circle id="ap" class="st24" cx="43.8" cy="510.2" r="11.4"/>
              <circle id="aq" class="st6" cx="43.8" cy="510.2" r="10"/>
            </g>
            <path id="ar" class="st2" d="M38.6,509.9c.3,0,.4-.3.4-.7v-2.4c0-.4-.1-.6-.4-.6h-.9v3.7h.9ZM35.9,516.1v-11.8h4.1c.7,0,1,.9,1,1.8v3.7c0,1-.3,2.1-1.3,2.1h-1.9v4.3h-1.8s0,0,0,0ZM42.8,512.8h1l-.5-2.5-.5,2.5h0ZM42.3,514.5l-.3,1.6h-1.9l2.1-11.8h2.4l2,11.8h-1.9l-.3-1.6h-2.1ZM46.8,516.1v-11.8h1.7l1.2,4.1v-4.1h1.9v11.8h-1.8l-1.1-3.6v3.6s-1.9,0-1.9,0Z"/>
          </g>
        </g>
      </g>
      <g class="st16">
        <g class="st16">
          <g class="st16">
            <text class="st5" transform="translate(69.7 523.7)"><tspan x="0" y="0">6</tspan></text>
          </g>
        </g>
      </g>
      <image id="as" class="st16" width="712" height="701" transform="translate(30.7 532.5) scale(0)" xlink:href="legislatura05-1.png"/>
      <g class="st16">
        <g class="st16">
          <g class="st16">
            <text class="st5" transform="translate(69.8 559)"><tspan x="0" y="0">2</tspan></text>
          </g>
        </g>
      </g>
      <g class="st16">
        <g class="st16">
          <g class="st16">
            <text class="st5" transform="translate(822.1 488.6)"><tspan x="0" y="0">172</tspan></text>
          </g>
        </g>
      </g>
      <g id="bj">
        <g id="bk">
          <path id="bl" class="st24" d="M786.4,497.7h21.3c1.5,0,2.7,1.2,2.7,2.7v21.3c0,1.5-1.2,2.7-2.7,2.7h-21.3c-1.5,0-2.7-1.2-2.7-2.7v-21.3c0-1.5,1.2-2.7,2.7-2.7h0Z"/>
          <g id="bm">
            <g id="bn">
              <circle id="bo" class="st6" cx="797.1" cy="511.1" r="12.9"/>
              <circle id="bp" class="st24" cx="797.1" cy="511.1" r="11.4"/>
              <circle id="bq" class="st6" cx="797.1" cy="511.1" r="10"/>
            </g>
            <path id="br" class="st2" d="M792,510.8c.3,0,.4-.3.4-.7v-2.4c0-.4-.1-.6-.4-.6h-.9v3.7h.9ZM789.2,517v-11.8h4.1c.7,0,1,.9,1,1.8v3.7c0,1-.3,2.1-1.3,2.1h-1.9v4.3h-1.8s0,0,0,0h0ZM796.1,513.7h1l-.5-2.5-.5,2.5h0ZM795.6,515.4l-.3,1.6h-1.9l2.1-11.8h2.4l2,11.8h-1.9l-.3-1.6h-2.1,0ZM800.1,517v-11.8h1.7l1.2,4.1v-4.1h1.9v11.8h-1.8l-1.1-3.6v3.6h-1.9Z"/>
          </g>
        </g>
      </g>
      <g class="st16">
        <g class="st16">
          <g class="st16">
            <text class="st5" transform="translate(823 524.6)"><tspan x="0" y="0">5</tspan></text>
          </g>
        </g>
      </g>
      <g class="st16">
        <g class="st16">
          <g class="st16">
            <text class="st5" transform="translate(823.1 559.9)"><tspan x="0" y="0">1</tspan></text>
          </g>
        </g>
      </g>
      <g class="st16">
        <g class="st16">
          <text class="st4" transform="translate(652.6 243.1)"><tspan x="0" y="0">60</tspan></text>
        </g>
      </g>
      <g id="bs">
        <circle class="st21" cx="510.6" cy="235.6" r="10" transform="translate(125.6 645.5) rotate(-71.6)"/>
        <circle class="st21" cx="535.7" cy="235.6" r="10"/>
        <circle class="st21" cx="560.8" cy="235.6" r="10"/>
        <circle class="st21" cx="586" cy="235.6" r="10"/>
        <circle class="st21" cx="514.9" cy="209" r="10"/>
        <circle class="st21" cx="540.3" cy="210.6" r="10"/>
        <circle class="st21" cx="566.4" cy="211" r="10"/>
        <circle class="st21" cx="523.5" cy="183.5" r="10"/>
        <circle class="st21" cx="594.2" cy="209.2" r="10"/>
        <circle class="st21" cx="549.5" cy="186.9" r="10"/>
        <circle class="st21" cx="577.3" cy="188.3" r="10"/>
        <circle class="st21" cx="536.2" cy="159.7" r="10"/>
        <circle class="st21" cx="562.8" cy="165.3" r="10"/>
        <circle class="st21" cx="552.7" cy="138.4" r="10"/>
        <circle class="st21" cx="610.3" cy="186.7" r="10"/>
        <circle class="st21" cx="593" cy="168.6" r="10"/>
        <circle class="st21" cx="579.9" cy="146.6" r="10"/>
        <circle class="st21" cx="572.5" cy="120.1" r="10"/>
        <circle class="st21" cx="612.7" cy="152.9" r="10"/>
        <circle class="st21" cx="600.2" cy="131.2" r="10"/>
        <circle class="st21" cx="595" cy="105.3" r="10"/>
        <circle class="st21" cx="632.5" cy="170.3" r="10"/>
        <circle class="st21" cx="622.9" cy="119.9" r="10"/>
        <circle class="st21" cx="635.4" cy="141.9" r="10"/>
        <circle class="st21" cx="619.7" cy="94.5" r="10"/>
        <circle class="st21" cx="647.3" cy="112.9" r="10"/>
        <circle class="st21" cx="645.8" cy="87.8" r="10"/>
        <circle class="st21" cx="658.8" cy="161.7" r="10"/>
        <circle class="st21" cx="660" cy="136.3" r="10"/>
        <circle class="st21" cx="672.6" cy="110.6" r="10"/>
        <circle class="st21" cx="672.6" cy="85.6" r="10"/>
        <circle class="st21" cx="685.2" cy="136.3" r="10"/>
        <circle class="st21" cx="686.4" cy="161.7" r="10"/>
        <circle class="st21" cx="699.5" cy="87.8" r="10"/>
        <circle class="st21" cx="697.9" cy="112.9" r="10"/>
        <circle class="st21" cx="725.6" cy="94.5" r="10"/>
        <circle class="st21" cx="709.8" cy="141.9" r="10"/>
        <circle class="st21" cx="722.3" cy="119.9" r="10"/>
        <circle class="st21" cx="712.7" cy="170.3" r="10"/>
        <circle class="st21" cx="750.2" cy="105.3" r="10"/>
        <circle class="st21" cx="745.1" cy="131.2" r="10"/>
        <circle class="st21" cx="732.5" cy="152.9" r="10"/>
        <circle class="st21" cx="772.8" cy="120.1" r="10"/>
        <circle class="st21" cx="765.3" cy="146.6" r="10"/>
        <circle class="st21" cx="752.2" cy="168.6" r="10"/>
        <circle class="st21" cx="735" cy="186.7" r="10"/>
        <circle class="st21" cx="792.5" cy="138.4" r="10"/>
        <circle class="st21" cx="782.4" cy="165.3" r="10"/>
        <circle class="st21" cx="809" cy="159.7" r="10"/>
        <circle class="st21" cx="767.9" cy="188.3" r="10"/>
        <circle class="st21" cx="795.8" cy="186.9" r="10"/>
        <circle class="st21" cx="751" cy="209.2" r="10"/>
        <circle class="st21" cx="821.7" cy="183.5" r="10"/>
        <circle class="st21" cx="778.8" cy="211" r="10"/>
        <circle class="st21" cx="804.9" cy="210.6" r="10"/>
        <circle class="st21" cx="830.3" cy="209" r="10"/>
        <circle class="st21" cx="759.2" cy="235.6" r="10"/>
        <circle class="st21" cx="784.4" cy="235.6" r="10"/>
        <circle class="st21" cx="809.5" cy="235.6" r="10"/>
        <circle class="st21" cx="834.6" cy="235.6" r="10"/>
      </g>
      <circle id="bt" class="st20" cx="147.2" cy="473.7" r="14.4"/>
      <circle id="bu" class="st6" cx="147.2" cy="473.7" r="11.6"/>
      <path id="bv" class="st14" d="M139.2,479.5s0,0-.1,0h0s0,0,0,.1h0l.4.5-.5.4-.5-.6s0,0-.1,0h0s0,0,0,.1h0l.5.7s0,0,.1,0h0l1.3-1s0-.1,0-.1c0,0-.1,0-.1,0l-.6.4-.4-.5h0s0,0,0,0ZM138.5,478.5s0,0-.1,0h0c0,0,0,0,0,.1h0l.4.6-.5.3-.4-.6s0,0-.1,0c0,0,0,0,0,.1l.5.7s0,0,.1,0h0l1.4-.9s0,0,0-.1h0l-.5-.8s0,0-.1,0h0c0,0,0,0,0,.1h0l.4.7-.6.3-.4-.6h0s0,0,0,0ZM137.2,478l.2.4s0,0,.1,0h0l1.5-.7c0,0,0,0,0-.1h0l-.2-.4c-.1-.4-.5-.5-.8-.3l-.6.3c-.3.1-.4.5-.3.8h0s0,0,0,0ZM137.4,477.9c-.1-.2,0-.4.2-.5l.6-.3c.2-.1.4,0,.5.2v.3c.1,0-1.2.6-1.2.6v-.3h-.2ZM137.5,475.9s0,0-.1,0h0c0,0,0,0,0,.1h0l.2.7-.6.2-.2-.7s0,0-.1,0c0,0,0,0,0,.1l.2.8s0,0,.1,0h0l1.6-.5c0,0,0,0,0-.1h0l-.2-.9s0,0-.1,0h0c0,0,0,0,0,.1h0l.2.8-.6.2-.2-.7h0s0,0,0,0ZM137.4,474.7c-.1-.2-.3-.3-.6-.3-.3,0-.5.3-.4.7v.5c0,0,.1,0,.2,0h0l1.6-.2c0,0,.1,0,0-.1,0,0,0,0-.1,0h-.6c0,.1,0-.2,0-.2h0c0,0,.6-.5.6-.5,0,0,0-.1,0-.1,0,0,0,0-.1,0,0,0,0,0,0,0l-.6.4h0ZM136.6,475.1c0-.3,0-.4.3-.5.2,0,.4.1.4.4v.3c0,0-.7.1-.7.1v-.3h0ZM137.9,472.9l-1.6.6c0,0-.1,0-.1.1s0,.1.1.1l1.6.5h0c0,0,.1,0,.1,0h0s0,0,0-.1h-.4v-.8h.4c0-.1,0-.2,0-.2s0-.1-.1-.1h0ZM136.5,473.6l.9-.3v.6l-.9-.3ZM137.6,471.8s0,.1,0,.1h0c.2,0,.3.2.3.4,0,.2-.2.4-.4.4h-.7c-.2,0-.4-.3-.4-.5,0-.2.2-.4.4-.4s0,0,0,0h0s0-.1,0-.1h0c-.3,0-.5.2-.6.5,0,.4.2.6.5.7h.7c.4.1.6-.1.6-.5,0-.3-.1-.6-.4-.6,0,0-.1,0-.1,0h0ZM136.6,471.1c0,0-.1,0-.1,0h0c0,0,0,.1,0,.1h0l1.6.3c0,0,.1,0,.1,0s0-.1,0-.1l-1.6-.3h0ZM137.4,469.8c-.4-.1-.6,0-.7.4-.1.4,0,.6.4.8l.7.2c.4.1.6,0,.7-.4s0-.6-.4-.8l-.7-.2h0ZM137.1,470.8c-.2,0-.3-.2-.3-.5s.3-.3.5-.3l.7.2c.2,0,.3.2.3.5s-.3.3-.5.3l-.7-.2h0ZM137.6,468.2s-.1,0-.1,0h0s0,.1,0,.1h0l1.2.5h-1.5c0,.1-.1.1-.1.2,0,0,0,.1,0,.1h0l1.5.7s.1,0,.1,0h0s0-.1,0-.1h0l-1.2-.6h1.6c0-.1,0-.2.1-.2,0,0,0-.1,0-.1h0l-1.5-.7h0ZM138.5,466.7l-.3.4s0,.1,0,.1h0l1.3,1s.1,0,.1,0h0l.3-.4c.2-.3.2-.6-.1-.9l-.5-.4c-.3-.2-.6-.2-.9.1h0ZM138.6,466.8c.2-.2.4-.2.6,0l.5.4c.2.1.2.4,0,.6l-.2.3-1.2-.9.2-.3h0ZM140.4,465.9s0,0,0-.1h0s0,0-.1,0h0l-.5.5-.4-.4.5-.5s0-.1,0-.1c0,0,0,0-.1,0l-.6.6s0,.1,0,.1h0l1.2,1.1s.1,0,.1,0h0l.6-.6s0,0,0-.1h0s0,0-.1,0h0l-.6.6-.5-.5.5-.5h0ZM142,465.6s.1,0,.1,0c0,0,0,0,0-.1l-.3-.5.3-.2c.3-.2.4-.5.2-.8-.2-.3-.5-.4-.8-.2l-.4.2s0,0,0,.1h0l.9,1.4h0ZM141.7,464c.2-.1.4,0,.6.1s0,.4-.1.6l-.3.2-.4-.7.3-.2h0ZM144.1,464.5l-1.1-1.3s-.1,0-.2,0,0,0,0,.1l.2,1.7h0s0,.1.1,0h0s0,0,0-.1v-.4c0,0,.6-.3.6-.3l.3.3s0,0,.1,0,0,0,0-.1h0s0,0,0,0h0ZM142.9,463.4l.7.7-.6.2v-1h-.1ZM144.9,463.6c.2-.1.3-.4.2-.6,0-.3-.4-.5-.8-.4h-.4c0,.1,0,.2,0,.2h0l.4,1.6c0,0,0,0,.1,0s0,0,0-.1l-.2-.6h.3c0,0,0-.1,0-.1l.5.6s.1,0,.1,0c0,0,0,0,0-.1,0,0,0,0,0,0l-.4-.5h0,0ZM144.4,462.8c.2,0,.4,0,.5.2,0,.2,0,.4-.3.5h-.3c0,0-.2-.6-.2-.6h.3ZM145.2,462.5s0,0,.1,0h.4s.2,1.5.2,1.5c0,0,0,.1.1,0,0,0,0,0,0-.1l-.2-1.5h.4s0,0,0-.1h0c0,0,0-.1-.1-.1h-1c0,.1,0,.2,0,.2h0,0ZM146.8,462.3c0,0,0-.1-.1-.1h0c0,0-.1,0-.1.1h0v1.7c0,0,.1.1.2.1s.1,0,.1-.1v-1.7h0ZM147.9,462.2h-.5c0,0-.1,0-.1,0h0v1.6c0,0,0,.1,0,.1h.5c.4,0,.6-.2.7-.5v-.6c0-.4-.2-.6-.6-.6h0ZM147.8,462.4c.3,0,.4.2.4.4v.6c0,.2-.2.4-.5.4h-.4s0-1.5,0-1.5h.4s0,0,0,0ZM150,463.1c0-.4-.1-.6-.5-.7-.4,0-.6.1-.7.5v.7c-.2.4,0,.6.3.7s.6-.1.7-.5v-.7ZM149,462.9c0-.2.2-.4.5-.3s.4.2.3.5v.7c-.2.2-.4.4-.6.3s-.4-.2-.3-.5v-.7h.1,0ZM151.3,463.6c0,0,.1,0,.1,0h0c0-.3,0-.5-.4-.6-.3-.1-.6,0-.7.2,0,.2,0,.4.2.6l.2.2c.1.1.2.2.2.4,0,.2-.2.3-.5.2-.2,0-.3-.2-.3-.4,0,0,0-.1,0-.1h0c0,0-.1,0-.1,0h0c0,.3,0,.5.4.7.3.1.6,0,.8-.3.1-.3,0-.5-.2-.6l-.2-.2c-.1,0-.1-.2-.1-.3,0-.1.2-.2.4-.1.2,0,.3.2.2.4,0,0,0,.1,0,.1h0ZM152.9,463.8l-.4-.2s-.1,0-.1,0h0l-.9,1.4s0,.1,0,.1h0l.4.2c.3.2.6.1.9-.2l.3-.5c.2-.3.1-.6-.2-.8h0ZM152.8,464c.2.1.3.4.1.6l-.3.6c-.1.2-.3.3-.6.1l-.3-.2.8-1.2.3.2ZM153.9,465.8s0,0,.1,0h0s0,0,0-.1h0l-.5-.4.4-.5.6.5s.1,0,.1,0c0,0,0-.1,0-.1l-.7-.6s-.1,0-.1,0h0l-1.1,1.3s0,.1,0,.1h0l.7.6s0,0,.1,0h0s0-.1,0-.1h0l-.6-.5.4-.5.5.4h0ZM155,465.6s0-.1,0-.1-.1,0-.1,0l-1.2,1.1s0,.1,0,.1h0l.6.6s0,0,.1,0h0s0,0,0-.1h0l-.5-.5,1.1-1.1h0,0ZM154.8,467.9s0,.1,0,.1,0,0,.1,0l.5-.3.2.3c.2.3.5.4.8.2.3-.2.4-.5.2-.8l-.2-.4s0,0-.1,0h0l-1.4.9h0ZM156.4,467.5c.1.2,0,.4-.1.6s-.4,0-.6-.1l-.2-.3.7-.4.2.3ZM157.4,469.2s0,0-.1,0h0l-1.1.5c-.2,0-.4,0-.5-.2-.1-.2,0-.4.2-.5l1.1-.5c0,0,0,0,0-.1h0c0,0,0,0-.1,0h0l-1.1.5c-.3.1-.4.5-.3.8.1.3.4.5.8.3l1.1-.5c0,0,0,0,0-.1h0,0ZM156.9,470.8s0,0,.1,0h0c0,0,0,0,0-.1h0l-.2-.7.6-.2.2.7s0,0,.1,0c0,0,0,0,0-.1l-.2-.8s0,0-.1,0h0l-1.6.5c0,0,0,0,0,.1h0l.3.9s0,0,.1,0h0c0,0,0,0,0-.1h0l-.2-.8.6-.2.2.7h0s0,0,0,0ZM156.3,471.3c0,0,0,0,0,.1h0v.5c.1.3.4.5.7.5.2,0,.4-.2.4-.4h0c0,.2.3.2.4.2.3,0,.4-.3.4-.6v-.5c0,0-.1,0-.2,0h0l-1.6.3h0ZM157.9,471.6c0,.2,0,.4-.2.4-.2,0-.3,0-.4-.3v-.4c0,0,.6-.1.6-.1v.4h0ZM157.1,471.8c0,.2,0,.4-.3.4-.2,0-.4,0-.4-.3v-.4c0,0,.6-.1.6-.1v.4h0ZM158.1,472.7c0,0,.1,0,.1-.1s0-.1-.1-.1h-1.7c0,0-.1.1-.1.2h0v.9s0,0,.1,0h0c0,0,0,0,0,0h0v-.7s1.5,0,1.5,0h0s0,0,0,0ZM157.6,474.8c.4,0,.6-.2.6-.6,0-.4-.2-.6-.6-.6h-.7c-.4,0-.6.2-.6.5s.2.6.6.6h.7ZM157.7,473.8c.2,0,.4.2.4.4s-.2.4-.4.4h-.7c-.2,0-.4-.2-.4-.5s.2-.4.4-.4h.7ZM157.8,476.4c0,0,.1,0,.1,0,0,0,0-.1,0-.1h0l-1.6-.5s-.1,0-.1,0h0s0,.1,0,.1h0l1.3.4h-.8c0,.1,0,.2,0,.2s0,0,0,.1l.6.6-1.3-.4s-.1,0-.1,0h0c0,0,0,.1,0,.1h0l1.6.5c0,0,.1,0,.1,0h0c0,0,0-.1,0-.1l-.7-.7,1-.2h0ZM156,478.3s0,0,0,.1h0s.1,0,.1,0h0l.3-.6.6.3-.3.7s0,.1,0,.1c0,0,.1,0,.1,0l.4-.8s0-.1,0-.1h0l-1.5-.7s-.1,0-.1,0h0l-.4.8s0,.1,0,.1h0s.1,0,.1,0h0l.3-.7.6.3-.3.6h0s0,0,0,0ZM156.6,479.2s0,0,0,0c0,0,0-.1,0-.1h0s0,0,0,0h-.9s-.4-.9-.4-.9c0,0,0,0,0,0,0,0-.1,0-.1,0h0s0,0,0,.1l.4.7h-.8c0,0-.1,0-.1,0s0,0,0,0c0,0,0,0,0,0h.9c0,0,.4.8.4.8,0,0,0,0,0,0,0,0,.1,0,.1,0,0,0,0,0,0-.1l-.4-.7h.8s0,0,0,0ZM155.8,480.2s.1,0,.1,0h0s0-.1,0-.1h0l-1.3-1s-.1,0-.1,0c0,0,0,.1,0,.1l1.3,1h0s0,0,0,0ZM154.1,480.5s0-.1,0-.1h0c-.1-.1-.2-.3,0-.5.2-.2.4-.2.6,0l.6.5c.2.1.2.4,0,.5-.2.2-.4.2-.5,0,0,0-.1,0-.1,0h0s0,.1,0,.1h0c.2.2.6.2.8,0,.2-.3.2-.6,0-.9l-.5-.5c-.3-.2-.6-.2-.9,0-.2.2-.2.6,0,.8,0,0,.1,0,.1,0h0ZM152.7,481.1l1.5.9c0,0,.1,0,.2,0,0,0,0-.1,0-.2l-.7-1.6s0,0,0,0c0,0,0,0-.1,0h0s0,0,0,.1l.2.4-.5.5-.3-.2s0,0-.1,0c0,0,0,.1,0,.1h0s0,0,0,0h0s0,0,0,0ZM154.1,481.7l-.8-.5.4-.4.4.9ZM152.6,483.1s0,0,.1,0h0c0,0,0,0,0-.1h0l-.7-1.1,1.4.7s.1,0,.1,0c0,0,0,0,0-.1h0l-.9-1.4s0,0-.1,0h0c0,0,0,0,0,.1h0l.7,1.1-1.4-.7s0,0-.1,0c0,0,0,0,0,.1h0l.9,1.4h0ZM150.9,483.4c.1.3.5.4.8.3.3-.1.5-.5.3-.8l-.3-.7c-.1-.3-.5-.4-.8-.3s-.5.5-.3.8l.3.7ZM151.8,483c0,.2,0,.4-.2.5s-.4,0-.5-.2l-.3-.7c0-.2,0-.4.2-.5s.4,0,.5.2l.3.7h0Z"/>
      <path class="st15" d="M147.6,464.9c.7,0,1.5.1,2.2.2,1.7.3,2,1.1,2.8,1.7.6.8,1.1,1,1.7,2.3.4,1.1.4,2.1.6,3.2,0,.9.3,1.9.3,2.8-.2.8.3,1.6-.2,2.5-.4.8-.5,1.1-1.3,1.4-2.5.3-5.1-.3-7.6-.8-1.3-.2-2.6-.5-3.8-.8-1.1-.5-2.7-.9-3.5-1.5-.8-.9-.7-2.8,0-3.4.4-.3.6-.5,1.4-.9.6-.2.6-.8,1.1-1,0-.1.1,0,0-.2.7.1,1.5.4,2.2.3.7,0,1.5,0,2.2-.5,0,0,0,0,0-.1-1.3.4-2.6.5-3.9.2-.5-.1-.5-.5-.8-.6-.6-.6-.6-1.8,0-2.2.6-.8,1.2-1.2,2.7-1.8,1.3-.5,2.6-.7,3.8-.7h0ZM139.6,472.6c2.4,0,4.9.3,7.4.8,2.4.4,4.9,1,7.4,2.3.1,0,0,.1-.1.2-2.5-1.2-4.9-1.9-7.5-2.4-1.2-.3-2.5-.2-3.7-.5-1.2,0-2.5-.2-3.7-.1,0,0-.1,0-.1-.1.1,0,.3,0,.4-.1h0ZM140.9,475.6c2.2.2,4.3.5,6.6,1,1.1.3,2.1.4,3.3.8,1,.3,2.3.8,2.9,1.4,0,0,0,0-.1,0-2.1-1.2-4.5-1.7-6.7-2.2-2.2-.4-4.5-.9-6.8-.8,0,0-.1.1,0,.2.3.3.9.4,1.3.7-.7,0-1.6-.4-1.6-.9.4-.2.8-.1,1.2-.2h0Z"/>
      <path id="bw" class="st7" d="M140.3,473.5s0,0,0,0h0c0,0,0,0,0,0h0c0,.4,0,.9,0,1.3,0,0,0,0,0,0h0c.2,0,.4,0,.7,0,0,0,0,0,0,0h0s0,0,0,0h0c-.2,0-.4,0-.6,0,0-.4,0-.8,0-1.2h0ZM142.2,473.5s0,0,0,0h0c0,0,0,0,0,0h0v1.3s0,0,0,0,0,0,0,0c0-.4,0-.9,0-1.3h0ZM143.3,474.9s0,0,0,0h0c.1,0,.3,0,.4,0,.3,0,.4-.1.5-.4,0-.2,0-.3-.2-.4h0c.1,0,.2-.2.3-.3,0-.2-.2-.4-.4-.4-.1,0-.3,0-.4,0,0,0,0,0,0,0h0c0,.4,0,.9,0,1.3h0ZM143.9,473.7c.2,0,.3.1.3.3,0,.2-.1.2-.3.2-.1,0-.2,0-.3,0,0-.2,0-.3,0-.5.1,0,.2,0,.3,0h0ZM143.9,474.4c.2,0,.3.1.3.3,0,.2-.1.2-.3.2-.1,0-.2,0-.3,0,0-.2,0-.4,0-.5.1,0,.2,0,.3,0h0ZM146.1,474.7s0,0,0,0h0s0,0,0-.1h0c-.2,0-.4,0-.6,0v-.5c.3,0,.5,0,.7.1,0,0,0,0,0,0h0s0,0,0,0h0c-.2,0-.5,0-.7-.1,0,0,0,0,0,0h0l-.2,1.3s0,0,0,0h0c.2,0,.5,0,.7.1,0,0,0,0,0,0h0s0,0,0-.1h0c-.2,0-.4,0-.6-.1,0-.2,0-.3,0-.5.2,0,.4,0,.6,0h0ZM148,475.1c.2,0,.3-.1.4-.3,0-.3-.1-.5-.4-.5-.1,0-.2,0-.4,0,0,0,0,0-.1,0h0c0,.4-.2.9-.2,1.3,0,0,0,0,0,.1h0s0,0,.1,0h0c0-.2,0-.3.1-.5,0,0,.2,0,.3,0,0,0,0,0,0,0,0,.2,0,.4.1.6,0,0,0,0,0,0,0,0,0,0,.1,0h0c0-.2,0-.4-.1-.6h0s0,0,0,0ZM147.9,474.4c.2,0,.3.2.3.4,0,.2-.2.3-.4.2,0,0-.2,0-.3,0v-.6c.2,0,.3,0,.4,0h0ZM149.4,474.7s0,0,0,.1h0c.1,0,.2,0,.3.1-.1.4-.2.8-.3,1.2,0,0,0,0,0,.1h0s0,0,.1,0h0c.1-.4.2-.8.3-1.2.1,0,.2,0,.3.1,0,0,0,0,0,0h0s0-.1,0-.1h0c-.3,0-.5-.2-.8-.2,0,0,0,0,0,0h0ZM151.7,476.9v-1.4s0-.1,0-.1-.1,0-.1,0c-.3.4-.5.7-.8,1.1h0c0,0,0,.1,0,.1,0,0,0,0,0,0,0,0,.1-.2.2-.2.2,0,.4.1.5.2v.3s0,0,0,0c0,0,0,0,.1,0h0s0,0,0,0ZM151.6,475.6v.8c-.1,0-.3-.1-.4-.2.1-.2.3-.4.4-.6h0ZM153.6,476.2c-.1,0-.2-.1-.4-.2,0,0,0,0-.1,0h0l-.4,1.2s0,0,0,.1h0c.1,0,.2.1.4.2.3.1.5,0,.6-.2,0-.1.1-.3.2-.5.1-.3,0-.5-.3-.7h0ZM153.6,476.4c.2,0,.3.3.2.4,0,.2-.1.3-.2.5,0,.2-.2.2-.4.1,0,0-.2,0-.3-.1l.4-1.1c0,0,.2,0,.3.1h0Z"/>
      <g class="st16">
        <g class="st16">
          <g class="st16">
            <text class="st5" transform="translate(171.5 488)"><tspan x="0" y="0">1</tspan></text>
          </g>
        </g>
      </g>
      <g class="st16">
        <g class="st16">
          <text class="st4" transform="translate(207.1 717.2)"><tspan x="0" y="0">162</tspan></text>
        </g>
      </g>
      <g id="bx">
        <circle class="st18" cx="69" cy="715.5" r="5.4"/>
      </g>
      <circle class="st18" cx="82.4" cy="715.5" r="5.4"/>
      <circle class="st23" cx="95.9" cy="715.5" r="5.4"/>
      <circle class="st21" cx="109.4" cy="715.5" r="5.4"/>
      <circle class="st21" cx="122.9" cy="715.5" r="5.4"/>
      <circle class="st21" cx="136.4" cy="715.5" r="5.4"/>
      <circle class="st21" cx="149.9" cy="715.5" r="5.4"/>
      <circle class="st21" cx="70.6" cy="697.8" r="5.4"/>
      <circle class="st21" cx="84.2" cy="698.1" r="5.4"/>
      <circle class="st21" cx="97.9" cy="697.7" r="5.4"/>
      <circle class="st21" cx="111.5" cy="698" r="5.4"/>
      <circle class="st21" cx="125.4" cy="697.5" r="5.4"/>
      <circle class="st21" cx="139.1" cy="697.9" r="5.4"/>
      <circle class="st21" cx="74.1" cy="682.4" r="5.4"/>
      <circle class="st21" cx="87.9" cy="683" r="5.4"/>
      <circle class="st21" cx="152.9" cy="698.4" r="5.4"/>
      <circle class="st21" cx="102.1" cy="680.2" r="5.4"/>
      <circle class="st21" cx="116.1" cy="680.9" r="5.4"/>
      <circle class="st21" cx="78.4" cy="667.5" r="5.4"/>
      <circle class="st21" cx="130.7" cy="680.1" r="5.4"/>
      <circle class="st21" cx="92.5" cy="669.4" r="5.4"/>
      <circle class="st21" cx="144.9" cy="681" r="5.4"/>
      <circle class="st21" cx="108.5" cy="663.5" r="5.4"/>
      <circle class="st21" cx="83.5" cy="653.2" r="5.4"/>
      <circle class="st21" cx="122.9" cy="664.7" r="5.4"/>
      <circle class="st21" cx="159.3" cy="682.2" r="5.4"/>
      <circle class="st21" cx="98.9" cy="654.5" r="5.4"/>
      <circle class="st21" cx="138.7" cy="663.8" r="5.4"/>
      <circle class="st21" cx="117" cy="647.7" r="5.4"/>
      <circle class="st21" cx="90.2" cy="638.7" r="5.4"/>
      <circle class="st21" cx="153.6" cy="665.4" r="5.4"/>
      <circle class="st21" cx="131.9" cy="649.5" r="5.4"/>
      <circle class="st21" cx="105.1" cy="640.6" r="5.4"/>
      <circle class="st21" cx="108.6" cy="612.3" r="5.4"/>
      <circle class="st21" cx="168.8" cy="667.6" r="5.4"/>
      <circle class="st21" cx="127.4" cy="633.1" r="5.4"/>
      <circle class="st21" cx="149.2" cy="648.9" r="5.4"/>
      <circle class="st21" cx="122.9" cy="617.9" r="5.4"/>
      <circle class="st21" cx="142.9" cy="635.7" r="5.4"/>
      <circle class="st21" cx="164.9" cy="651.6" r="5.4"/>
      <circle class="st21" cx="118.3" cy="602" r="5.4"/>
      <circle class="st21" cx="139.6" cy="619.9" r="5.4"/>
      <circle class="st21" cx="133.2" cy="607.4" r="5.4"/>
      <circle class="st21" cx="162" cy="635.9" r="5.4"/>
      <circle class="st21" cx="180.9" cy="655.1" r="5.4"/>
      <circle class="st21" cx="155.7" cy="623.6" r="5.4"/>
      <circle class="st21" cx="130.5" cy="592" r="5.4"/>
      <circle class="st21" cx="153.3" cy="608.4" r="5.4"/>
      <circle class="st21" cx="146.9" cy="596.4" r="5.4"/>
      <circle class="st21" cx="178.5" cy="640" r="5.4"/>
      <circle class="st21" cx="144.8" cy="581.5" r="5.4"/>
      <circle class="st21" cx="176.6" cy="625.1" r="5.4"/>
      <circle class="st21" cx="170" cy="613.3" r="5.4"/>
      <circle class="st21" cx="161.6" cy="587" r="5.4"/>
      <circle class="st21" cx="168.4" cy="598.7" r="5.4"/>
      <circle class="st21" cx="195.3" cy="645.3" r="5.4"/>
      <circle class="st21" cx="160.1" cy="572.6" r="5.4"/>
      <circle class="st21" cx="193.9" cy="631" r="5.4"/>
      <circle class="st21" cx="185.6" cy="605.1" r="5.4"/>
      <circle class="st21" cx="192.8" cy="616.7" r="5.4"/>
      <circle class="st21" cx="177.4" cy="579.4" r="5.4"/>
      <circle class="st21" cx="184.6" cy="591" r="5.4"/>
      <circle class="st21" cx="176.3" cy="565.3" r="5.4"/>
      <circle class="st21" cx="211.3" cy="638.6" r="5.4"/>
      <circle class="st21" cx="193.9" cy="573.6" r="5.4"/>
      <circle class="st21" cx="202.2" cy="599.2" r="5.4"/>
      <circle class="st21" cx="210.6" cy="624.8" r="5.4"/>
      <circle class="st21" cx="193.2" cy="559.8" r="5.4"/>
      <circle class="st21" cx="201.6" cy="585.4" r="5.4"/>
      <circle class="st21" cx="210" cy="611" r="5.4"/>
      <circle class="st21" cx="210.9" cy="569.6" r="5.4"/>
      <circle class="st21" cx="210.6" cy="556.1" r="5.4"/>
      <circle class="st21" cx="219.5" cy="595.5" r="5.4"/>
      <circle class="st21" cx="219.2" cy="582" r="5.4"/>
      <circle class="st21" cx="228.4" cy="635.2" r="5.4"/>
      <circle class="st21" cx="228.2" cy="621.7" r="5.4"/>
      <circle class="st21" cx="228" cy="608.2" r="5.4"/>
      <circle class="st21" cx="228.3" cy="567.7" r="5.4"/>
      <circle class="st21" cx="228.2" cy="554.2" r="5.4"/>
      <circle class="st21" cx="237.1" cy="580.9" r="5.4"/>
      <circle class="st21" cx="237.1" cy="594.3" r="5.4"/>
      <circle class="st21" cx="246" cy="554.2" r="5.4"/>
      <circle class="st21" cx="245.8" cy="567.7" r="5.4"/>
      <circle class="st21" cx="246.2" cy="608.2" r="5.4"/>
      <circle class="st21" cx="246" cy="621.7" r="5.4"/>
      <circle class="st21" cx="245.8" cy="635.2" r="5.4"/>
      <circle class="st21" cx="255" cy="582" r="5.4" transform="translate(-360.4 740.5) rotate(-80.8)"/>
      <circle class="st21" cx="254.7" cy="595.5" r="5.4"/>
      <circle class="st21" cx="263.6" cy="556.1" r="5.4"/>
      <circle class="st21" cx="263.2" cy="569.6" r="5.4"/>
      <circle class="st21" cx="264.1" cy="611" r="5.4"/>
      <circle class="st21" cx="272.6" cy="585.4" r="5.4"/>
      <circle class="st21" cx="281" cy="559.8" r="5.4"/>
      <circle class="st21" cx="263.6" cy="624.8" r="5.4"/>
      <circle class="st21" cx="271.9" cy="599.2" r="5.4"/>
      <circle class="st21" cx="280.3" cy="573.6" r="5.4"/>
      <circle class="st21" cx="262.8" cy="638.6" r="5.4"/>
      <circle class="st21" cx="297.9" cy="565.3" r="5.4"/>
      <circle class="st21" cx="289.6" cy="591" r="5.4"/>
      <circle class="st21" cx="296.8" cy="579.4" r="5.4"/>
      <circle class="st21" cx="281.4" cy="616.7" r="5.4"/>
      <circle class="st21" cx="288.5" cy="605.1" r="5.4"/>
      <circle class="st21" cx="280.3" cy="631" r="5.4"/>
      <circle class="st21" cx="314.1" cy="572.6" r="5.4"/>
      <circle class="st21" cx="278.9" cy="645.3" r="5.4"/>
      <circle class="st21" cx="305.8" cy="598.7" r="5.4"/>
      <circle class="st21" cx="312.5" cy="587" r="5.4"/>
      <circle class="st21" cx="304.2" cy="613.3" r="5.4"/>
      <circle class="st21" cx="297.6" cy="625.1" r="5.4"/>
      <circle class="st21" cx="329.4" cy="581.5" r="5.4"/>
      <circle class="st21" cx="295.7" cy="640" r="5.4"/>
      <circle class="st21" cx="327.3" cy="596.4" r="5.4"/>
      <circle class="st21" cx="320.9" cy="608.4" r="5.4"/>
      <circle class="st21" cx="343.7" cy="592" r="5.4"/>
      <circle class="st21" cx="318.5" cy="623.6" r="5.4"/>
      <circle class="st21" cx="293.3" cy="655.1" r="5.4"/>
      <circle class="st21" cx="312.2" cy="635.9" r="5.4"/>
      <circle class="st21" cx="340.9" cy="607.4" r="5.4"/>
      <circle class="st21" cx="334.6" cy="619.9" r="5.4"/>
      <circle class="st21" cx="356.8" cy="604" r="5.4"/>
      <circle class="st21" cx="309.2" cy="651.6" r="5.4"/>
      <circle class="st21" cx="331.3" cy="635.7" r="5.4"/>
      <circle class="st21" cx="353.2" cy="619.9" r="5.4"/>
      <circle class="st21" cx="324.9" cy="648.9" r="5.4"/>
      <circle class="st21" cx="346.8" cy="633.1" r="5.4"/>
      <circle class="st21" cx="305.4" cy="667.6" r="5.4"/>
      <circle class="st21" cx="368.6" cy="617.3" r="5.4"/>
      <circle class="st21" cx="364" cy="633.6" r="5.4"/>
      <circle class="st21" cx="342.3" cy="649.5" r="5.4"/>
      <circle class="st21" cx="320.6" cy="665.4" r="5.4"/>
      <circle class="st21" cx="379" cy="631.7" r="5.4"/>
      <circle class="st21" cx="357.2" cy="647.7" r="5.4"/>
      <circle class="st21" cx="335.5" cy="663.8" r="5.4"/>
      <circle class="st21" cx="373.2" cy="648.5" r="5.4"/>
      <circle class="st21" cx="314.9" cy="682.2" r="5.4"/>
      <circle class="st21" cx="351.3" cy="664.7" r="5.4"/>
      <circle class="st21" cx="387.7" cy="647.2" r="5.4"/>
      <circle class="st21" cx="365.7" cy="663.5" r="5.4"/>
      <circle class="st21" cx="329.2" cy="681" r="5.4"/>
      <circle class="st21" cx="380.7" cy="664.4" r="5.4"/>
      <circle class="st21" cx="343.5" cy="680.1" r="5.4"/>
      <circle class="st21" cx="394.8" cy="663.5" r="5.4"/>
      <circle class="st21" cx="358.1" cy="680.9" r="5.4"/>
      <circle class="st21" cx="372.1" cy="680.2" r="5.4"/>
      <circle class="st21" cx="321.3" cy="698.4" r="5.4"/>
      <circle class="st21" cx="386.3" cy="681" r="5.4"/>
      <circle class="st21" cx="400.1" cy="680.4" r="5.4"/>
      <circle class="st21" cx="335.1" cy="697.9" r="5.4"/>
      <circle class="st21" cx="348.8" cy="697.5" r="5.4"/>
      <circle class="st21" cx="362.7" cy="698" r="5.4"/>
      <circle class="st21" cx="376.3" cy="697.7" r="5.4"/>
      <circle class="st21" cx="390" cy="698.1" r="5.4"/>
      <circle class="st21" cx="403.6" cy="697.8" r="5.4"/>
      <circle class="st24" cx="324.3" cy="715.5" r="5.4"/>
      <circle class="st24" cx="337.8" cy="715.5" r="5.4"/>
      <circle class="st24" cx="351.3" cy="715.5" r="5.4"/>
      <circle class="st24" cx="364.8" cy="715.5" r="5.4"/>
      <circle class="st24" cx="378.3" cy="715.5" r="5.4"/>
      <circle class="st24" cx="391.8" cy="715.5" r="5.4"/>
      <g id="by">
        <circle class="st21" cx="405.2" cy="715.5" r="5.4"/>
      </g>
      <circle class="st21" cx="97.5" cy="624.7" r="5.4"/>
      <circle class="st21" cx="111.6" cy="629.3" r="5.4"/>
      <g class="st16">
        <text class="st9" transform="translate(972.2 716.8)"><tspan x="0" y="0">178</tspan></text>
      </g>
      <circle class="st1" cx="835.8" cy="716.1" r="5.9"/>
      <circle class="st19" cx="850.5" cy="716" r="5.9"/>
      <circle class="st19" cx="865.2" cy="716" r="5.9"/>
      <circle class="st19" cx="879.9" cy="716" r="5.9"/>
      <circle class="st19" cx="894.6" cy="716" r="5.9"/>
      <circle class="st19" cx="909.3" cy="716" r="5.9"/>
      <circle class="st19" cx="924" cy="716" r="5.9"/>
      <circle class="st19" cx="837.1" cy="699.6" r="5.9"/>
      <circle class="st19" cx="852" cy="700.4" r="5.9"/>
      <circle class="st19" cx="866.8" cy="700.9" r="5.9"/>
      <circle class="st19" cx="881.7" cy="700.8" r="5.9"/>
      <circle class="st19" cx="896.6" cy="700.7" r="5.9"/>
      <circle class="st19" cx="840.1" cy="684.2" r="5.9"/>
      <circle class="st19" cx="911.7" cy="700.6" r="5.9"/>
      <circle class="st19" cx="855.2" cy="686" r="5.9"/>
      <circle class="st19" cx="870.2" cy="686" r="5.9"/>
      <circle class="st19" cx="926.9" cy="699.4" r="5.9"/>
      <circle class="st19" cx="885.5" cy="686" r="5.9"/>
      <circle class="st19" cx="844.5" cy="667.3" r="5.9"/>
      <circle class="st19" cx="901" cy="685.9" r="5.9"/>
      <circle class="st19" cx="860.2" cy="671.1" r="5.9"/>
      <circle class="st19" cx="875.3" cy="671.7" r="5.9"/>
      <circle class="st19" cx="916.8" cy="683.8" r="5.9"/>
      <circle class="st19" cx="850.6" cy="651.8" r="5.9"/>
      <circle class="st19" cx="891.3" cy="671.7" r="5.9"/>
      <circle class="st19" cx="866.8" cy="657.8" r="5.9"/>
      <circle class="st19" cx="933" cy="683.7" r="5.9"/>
      <circle class="st19" cx="907.6" cy="670.8" r="5.9"/>
      <circle class="st19" cx="882.2" cy="658" r="5.9"/>
      <circle class="st19" cx="858" cy="637" r="5.9"/>
      <circle class="st19" cx="899" cy="657.3" r="5.9"/>
      <circle class="st19" cx="924.4" cy="669" r="5.9"/>
      <circle class="st19" cx="874.5" cy="644.2" r="5.9"/>
      <circle class="st19" cx="889.7" cy="644.2" r="5.9"/>
      <circle class="st19" cx="866.8" cy="623" r="5.9"/>
      <circle class="st19" cx="915.3" cy="657.8" r="5.9"/>
      <circle class="st19" cx="942.1" cy="669.5" r="5.9"/>
      <circle class="st19" cx="880.7" cy="630.7" r="5.9"/>
      <circle class="st19" cx="907.4" cy="644" r="5.9"/>
      <circle class="st19" cx="877" cy="609.9" r="5.9"/>
      <circle class="st19" cx="896.7" cy="631.4" r="5.9"/>
      <circle class="st19" cx="934.4" cy="657.7" r="5.9"/>
      <circle class="st19" cx="924.9" cy="645.3" r="5.9"/>
      <circle class="st19" cx="890.7" cy="618.2" r="5.9"/>
      <circle class="st19" cx="888.3" cy="597.8" r="5.9"/>
      <circle class="st19" cx="915.5" cy="632" r="5.9"/>
      <circle class="st19" cx="906.1" cy="619.8" r="5.9"/>
      <circle class="st19" cx="953.8" cy="657.4" r="5.9"/>
      <circle class="st19" cx="899.1" cy="606.9" r="5.9"/>
      <circle class="st19" cx="900.8" cy="586.9" r="5.9"/>
      <circle class="st19" cx="944.5" cy="646.3" r="5.9"/>
      <circle class="st19" cx="935.3" cy="634.4" r="5.9"/>
      <circle class="st19" cx="927" cy="621.5" r="5.9"/>
      <circle class="st19" cx="918.7" cy="609.6" r="5.9"/>
      <circle class="st19" cx="910.5" cy="598" r="5.9"/>
      <circle class="st19" cx="914.2" cy="577.2" r="5.9"/>
      <circle class="st19" cx="932.3" cy="601.9" r="5.9"/>
      <ellipse class="st19" cx="940.5" cy="613.6" rx="6.7" ry="6.8"/>
      <circle class="st19" cx="950" cy="626.4" r="5.9"/>
      <circle class="st19" cx="958.4" cy="637.1" r="5.9"/>
      <circle class="st19" cx="967.7" cy="647.8" r="5.9"/>
      <circle class="st19" cx="928.5" cy="568.9" r="5.9"/>
      <circle class="st19" cx="935.9" cy="581.6" r="5.9"/>
      <circle class="st19" cx="944.9" cy="593.9" r="5.9"/>
      <circle class="st19" cx="943.6" cy="561.9" r="5.9"/>
      <circle class="st19" cx="953.4" cy="606.6" r="5.9"/>
      <circle class="st19" cx="951.1" cy="574.8" r="5.9"/>
      <circle class="st19" cx="962" cy="618.5" r="5.9"/>
      <circle class="st19" cx="971.6" cy="631.3" r="5.9"/>
      <circle class="st19" cx="983.3" cy="641.2" r="5.9"/>
      <circle class="st19" cx="959.2" cy="556.5" r="5.9"/>
      <circle class="st19" cx="959.2" cy="588.4" r="5.9"/>
      <circle class="st19" cx="967" cy="569.5" r="5.9"/>
      <circle class="st19" cx="965.9" cy="600.5" r="5.9"/>
      <circle class="st19" cx="974.7" cy="613.8" r="5.9"/>
      <circle class="st19" cx="975.3" cy="552.5" r="5.9"/>
      <circle class="st19" cx="973" cy="583.8" r="5.9"/>
      <circle class="st19" cx="984.7" cy="626.2" r="5.9"/>
      <circle class="st19" cx="983.3" cy="566" r="5.9"/>
      <circle class="st19" cx="981" cy="596.5" r="5.9"/>
      <circle class="st19" cx="999.8" cy="637.9" r="5.9"/>
      <circle class="st19" cx="991.7" cy="550.2" r="5.9"/>
      <circle class="st19" cx="989" cy="610.4" r="5.9"/>
      <circle class="st19" cx="1003.1" cy="579" r="5.9"/>
      <circle class="st19" cx="999.9" cy="564.3" r="5.9"/>
      <circle class="st19" cx="995.2" cy="594.4" r="5.9"/>
      <circle class="st19" cx="1008.2" cy="549.3" r="5.9"/>
      <circle class="st19" cx="997.2" cy="623.8" r="5.9"/>
      <circle class="st19" cx="1016.6" cy="564.3" r="5.9"/>
      <circle class="st19" cx="1018.4" cy="579" r="5.9"/>
      <circle class="st19" cx="1004.5" cy="608.4" r="5.9"/>
      <circle class="st19" cx="1024.8" cy="550.2" r="5.9"/>
      <circle class="st19" cx="1016.8" cy="637.9" r="5.9"/>
      <circle class="st19" cx="1024.6" cy="594.5" r="5.9"/>
      <circle class="st19" cx="1033.2" cy="566" r="5.9"/>
      <circle class="st19" cx="1026.9" cy="624.2" r="5.9"/>
      <circle class="st19" cx="1033.5" cy="580.8" r="5.9"/>
      <circle class="st19" cx="1041.2" cy="552.5" r="5.9"/>
      <circle class="st19" cx="1034.8" cy="610.8" r="5.9"/>
      <circle class="st19" cx="1041.6" cy="597.5" r="5.9"/>
      <circle class="st19" cx="1049.5" cy="569.5" r="5.9"/>
      <circle class="st19" cx="1048.3" cy="584.4" r="5.9"/>
      <circle class="st19" cx="1057.3" cy="556.5" r="5.9"/>
      <circle class="st19" cx="1033.2" cy="641.2" r="5.9"/>
      <circle class="st19" cx="1042.9" cy="628.3" r="5.9"/>
      <circle class="st19" cx="1051.5" cy="616.5" r="5.9"/>
      <circle class="st19" cx="1065.4" cy="574.7" r="5.9"/>
      <circle class="st19" cx="1059.1" cy="604.6" r="5.9"/>
      <circle class="st19" cx="1072.9" cy="561.9" r="5.9"/>
      <circle class="st19" cx="1064.6" cy="589.8" r="5.9"/>
      <circle class="st19" cx="1080.6" cy="581.6" r="5.9"/>
      <circle class="st19" cx="1088" cy="568.9" r="5.9"/>
      <circle class="st19" cx="1048.8" cy="647.8" r="5.9"/>
      <circle class="st19" cx="1057.1" cy="636.1" r="5.9"/>
      <circle class="st19" cx="1064.4" cy="622.4" r="5.9"/>
      <circle class="st19" cx="1072.8" cy="609.7" r="5.9"/>
      <circle class="st19" cx="1079.1" cy="596.9" r="5.9"/>
      <circle class="st19" cx="1102.3" cy="577.2" r="5.9"/>
      <circle class="st19" cx="1095" cy="590" r="5.9"/>
      <circle class="st19" cx="1092.8" cy="605.6" r="5.9"/>
      <circle class="st19" cx="1084.5" cy="618.5" r="5.9"/>
      <circle class="st19" cx="1077.2" cy="631.4" r="5.9"/>
      <circle class="st19" cx="1069.9" cy="644.3" r="5.9"/>
      <circle class="st19" cx="1115.7" cy="586.9" r="5.9"/>
      <circle class="st19" cx="1108.4" cy="599.9" r="5.9"/>
      <circle class="st19" cx="1062.7" cy="657.4" r="5.9"/>
      <circle class="st19" cx="1104.4" cy="615.8" r="5.9"/>
      <circle class="st19" cx="1097" cy="629" r="5.9"/>
      <circle class="st19" cx="1128.2" cy="597.8" r="5.9"/>
      <circle class="st19" cx="1120.8" cy="611.2" r="5.9"/>
      <circle class="st19" cx="1089.6" cy="642.3" r="5.9"/>
      <circle class="st19" cx="1082.1" cy="655.7" r="5.9"/>
      <circle class="st19" cx="1115.8" cy="627.4" r="5.9"/>
      <circle class="st19" cx="1139.5" cy="609.9" r="5.9"/>
      <circle class="st19" cx="1108.1" cy="641" r="5.9"/>
      <circle class="st19" cx="1131.8" cy="623.7" r="5.9"/>
      <circle class="st19" cx="1074.4" cy="669.5" r="5.9"/>
      <circle class="st19" cx="1100.2" cy="654.8" r="5.9"/>
      <circle class="st19" cx="1149.7" cy="623" r="5.9"/>
      <circle class="st19" cx="1125.8" cy="640.2" r="5.9"/>
      <circle class="st19" cx="1141.5" cy="637.2" r="5.9"/>
      <circle class="st19" cx="1092.1" cy="669" r="5.9"/>
      <circle class="st19" cx="1117.5" cy="654.3" r="5.9"/>
      <circle class="st19" cx="1158.5" cy="637" r="5.9"/>
      <circle class="st19" cx="1134.3" cy="654" r="5.9"/>
      <circle class="st19" cx="1108.9" cy="668.8" r="5.9"/>
      <circle class="st19" cx="1083.5" cy="683.7" r="5.9"/>
      <circle class="st19" cx="1149.7" cy="651.8" r="5.9"/>
      <circle class="st19" cx="1125.2" cy="668.7" r="5.9"/>
      <circle class="st19" cx="1165.9" cy="651.8" r="5.9"/>
      <circle class="st19" cx="1099.8" cy="683.8" r="5.9"/>
      <circle class="st19" cx="1141.2" cy="668.7" r="5.9"/>
      <circle class="st19" cx="1156.3" cy="667.1" r="5.9"/>
      <circle class="st19" cx="1115.5" cy="683.9" r="5.9"/>
      <circle class="st19" cx="1171.9" cy="667.3" r="5.9"/>
      <circle class="st19" cx="1131" cy="684" r="5.9"/>
      <circle class="st19" cx="1089.6" cy="699.4" r="5.9"/>
      <circle class="st19" cx="1146.3" cy="684" r="5.9"/>
      <circle class="st19" cx="1161.3" cy="683" r="5.9"/>
      <circle class="st19" cx="1104.8" cy="699.6" r="5.9"/>
      <circle class="st19" cx="1176.4" cy="683.2" r="5.9"/>
      <circle class="st19" cx="1119.9" cy="699.7" r="5.9"/>
      <circle class="st19" cx="1134.8" cy="699.8" r="5.9"/>
      <circle class="st19" cx="1149.7" cy="699.9" r="5.9"/>
      <circle class="st19" cx="1164.5" cy="699.4" r="5.9"/>
      <circle class="st19" cx="1179.3" cy="699.5" r="5.9"/>
      <circle class="st24" cx="1092.5" cy="716" r="5.9"/>
      <circle class="st24" cx="1107.2" cy="716" r="5.9"/>
      <circle class="st24" cx="1121.9" cy="716" r="5.9"/>
      <circle class="st24" cx="1136.6" cy="716" r="5.9"/>
      <circle class="st24" cx="1151.3" cy="716" r="5.9"/>
      <circle class="st19" cx="1166" cy="716" r="5.9"/>
      <circle class="st19" cx="1180.7" cy="716" r="5.9"/>
      <circle class="st19" cx="1012.9" cy="623.1" r="5.9"/>
      <circle class="st19" cx="1019.2" cy="609" r="5.9"/>
      <circle class="st19" cx="1009.5" cy="592.8" r="5.9"/>
      <circle class="st19" cx="988.4" cy="579.5" r="5.9"/>
      <circle class="st19" cx="922.4" cy="589.2" r="5.9"/>
      <g id="bz">
        <path id="ca" class="st17" d="M812.7,547.7c0,7.9-6.4,14.3-14.3,14.3s-14.3-6.4-14.3-14.3,6.4-14.3,14.3-14.3,14.3,6.4,14.3,14.3Z"/>
        <path id="cb" class="st6" d="M809.5,547.7c0,6.2-5,11.2-11.2,11.2s-11.2-5-11.2-11.2,5-11.2,11.2-11.2,11.2,5,11.2,11.2Z"/>
        <path id="cc" class="st17" d="M791.8,549.4v4.4h-2.5v-11.9h2.8c1.1,0,1.9.1,2.4.4.5.3.8.8.8,1.7v3.3c0,.8-.2,1.3-.7,1.7-.4.3-1.4.5-2.8.5h0ZM792.7,547v-2.9c0-.4-.3-.6-.9-.6v4.1c.6,0,.9-.2.9-.6h0ZM798.3,549.4v4.4h-2.5v-11.9h2.8c1.1,0,1.9.1,2.4.4.5.3.8.8.8,1.7v3.3c0,.8-.2,1.3-.7,1.7-.4.3-1.4.5-2.8.5h0ZM799.1,547v-2.9c0-.4-.3-.6-.9-.6v4.1c.6,0,.9-.2.9-.6h0ZM802.1,549h2.4v2.7c0,.3.2.4.5.4s.5-.1.5-.4v-1.4c0-.4-.3-.9-.9-1.5-1.1-1.1-1.8-1.8-2.1-2.2-.3-.4-.4-.8-.4-1.2v-1.3c0-1.5,1-2.3,3-2.3s2.7.7,2.7,2.1v2.1h-2.4v-2.2c0-.2-.1-.4-.4-.4s-.5.2-.5.7v.8c0,.4.3,1,.9,1.5,1.1,1,1.8,1.8,2.1,2.2.3.4.4.9.4,1.4v1.5c0,1.6-1,2.4-3,2.4s-2.9-.7-2.9-2.2v-2.7h0Z"/>
      </g>
    </g>
    <g>
      <path id="bg" class="st12" d="M412.6,62.3c20.3,6.8,34.9,25.7,34.9,48.1s-14.6,41.4-34.9,48.1V62.3h0Z"/>
      <path id="bh" class="st11" d="M380.2,62.3v96.3c-20.4-6.7-35.2-25.7-35.2-48.2s14.4-41,34.4-47.9l.8-.2h0Z"/>
      <polygon id="bi" class="st3" points="412.5 158.6 380.2 158.6 380.2 61.8 412.5 61.8 412.5 158.6"/>
      <polygon id="bj1" data-name="bj" class="st3" points="432.6 130.9 432.7 90.2 422.1 90.2 422.1 130.9 432.6 130.9"/>
      <path id="bk1" data-name="bk" class="st3" d="M353.4,90.2v40.6h10.6v-16.2h6.7c5.8-1.1,6.4-6.1,6.4-6.1v-11.8c-.4-5.7-6.3-6.6-6.3-6.6h-17.4,0ZM364.4,96.6v9.2c3.3,0,3.4-2,3.4-2v-4.3c.1-3.3-3.4-3-3.4-3h0Z"/>
      <path id="bl1" data-name="bl" class="st0" d="M353.4,90.2v40.6h10.6v-16.2h6.7c5.8-1.1,6.4-6.1,6.4-6.1v-11.8c-.4-5.7-6.3-6.6-6.3-6.6h-17.4M364.4,96.6v9.2c3.3,0,3.4-2,3.4-2v-4.3c.1-3.3-3.4-3-3.4-3h0Z"/>
      <path id="bm1" data-name="bm" class="st13" d="M384.6,74.8v40.6h10.6v-17.2c4.7-.2,3.8,3.2,3.8,3.2v14h10.7v-16c.7-3.2-3.2-5.3-3.2-5.3,3.2-1.8,3-5.7,3-5.7v-7.1c0-6.8-7.5-6.6-7.5-6.6h-17.4ZM395.6,81.3v9.2c3.3,0,3.4-2,3.4-2v-4.3c.1-3.3-3.4-3-3.4-3h0Z"/>
      <path id="bn1" data-name="bn" class="st0" d="M384.6,74.8v40.6h10.6v-17.2c4.7-.2,3.8,3.2,3.8,3.2v14h10.7v-16c.7-3.2-3.2-5.3-3.2-5.3,3.2-1.8,3-5.7,3-5.7v-7.1c0-6.8-7.5-6.6-7.5-6.6h-17.4M395.6,81.3v9.2c3.3,0,3.4-2,3.4-2v-4.3c.1-3.3-3.4-3-3.4-3h0Z"/>
    </g>
    <g>
      <path id="bg1" data-name="bg" class="st12" d="M49.6,460.5c5.8,1.9,10,7.4,10,13.7s-4.2,11.8-10,13.7v-27.5h0Z"/>
      <path id="bh1" data-name="bh" class="st11" d="M40.4,460.5v27.5c-5.8-1.9-10-7.4-10-13.8s4.1-11.7,9.8-13.7h.2c0,0,0,0,0,0Z"/>
      <polygon id="bi1" data-name="bi" class="st3" points="49.6 488 40.3 488 40.3 460.3 49.6 460.3 49.6 488"/>
      <polygon id="bj2" data-name="bj" class="st3" points="55.3 480.1 55.4 468.5 52.3 468.5 52.3 480.1 55.3 480.1"/>
      <path id="bk2" data-name="bk" class="st3" d="M32.7,468.5v11.6h3v-4.6h1.9c1.7-.3,1.8-1.7,1.8-1.7v-3.4c-.1-1.6-1.8-1.9-1.8-1.9h-5,0ZM35.8,470.3v2.6c.9,0,1-.6,1-.6v-1.2c0-.9-1-.8-1-.8h0Z"/>
      <path id="bl2" data-name="bl" class="st0" d="M32.7,468.5v11.6h3v-4.6h1.9c1.7-.3,1.8-1.7,1.8-1.7v-3.4c-.1-1.6-1.8-1.9-1.8-1.9h-5M35.8,470.3v2.6c.9,0,1-.6,1-.6v-1.2c0-.9-1-.8-1-.8h0Z"/>
      <path id="bm2" data-name="bm" class="st13" d="M41.6,464v11.6h3v-4.9c1.3,0,1.1.9,1.1.9v4h3.1v-4.6c.2-.9-.9-1.5-.9-1.5.9-.5.9-1.6.9-1.6v-2c0-1.9-2.1-1.9-2.1-1.9h-5ZM44.7,465.9v2.6c.9,0,1-.6,1-.6v-1.2c0-.9-1-.8-1-.8h0Z"/>
      <path id="bn2" data-name="bn" class="st0" d="M41.6,464v11.6h3v-4.9c1.3,0,1.1.9,1.1.9v4h3.1v-4.6c.2-.9-.9-1.5-.9-1.5.9-.5.9-1.6.9-1.6v-2c0-1.9-2.1-1.9-2.1-1.9h-5M44.7,465.9v2.6c.9,0,1-.6,1-.6v-1.2c0-.9-1-.8-1-.8h0Z"/>
    </g>
    <g>
      <path id="bg2" data-name="bg" class="st12" d="M803,461.1c5.9,2,10.1,7.5,10.1,13.9s-4.2,12-10.1,13.9v-27.9h0Z"/>
      <path id="bh2" data-name="bh" class="st11" d="M793.6,461.1v27.9c-5.9-1.9-10.2-7.4-10.2-14s4.2-11.9,10-13.9h.2c0,0,0,0,0,0Z"/>
      <polygon id="bi2" data-name="bi" class="st3" points="802.9 489 793.6 489 793.6 461 802.9 461 802.9 489"/>
      <polygon id="bj3" data-name="bj" class="st3" points="808.8 481 808.8 469.2 805.7 469.2 805.7 481 808.8 481"/>
      <path id="bk3" data-name="bk" class="st3" d="M785.8,469.2v11.8h3.1v-4.7h1.9c1.7-.3,1.9-1.8,1.9-1.8v-3.4c-.1-1.6-1.8-1.9-1.8-1.9h-5,0ZM789,471.1v2.7c1,0,1-.6,1-.6v-1.3c0-1-1-.9-1-.9h0Z"/>
      <path id="bl3" data-name="bl" class="st0" d="M785.8,469.2v11.8h3.1v-4.7h1.9c1.7-.3,1.9-1.8,1.9-1.8v-3.4c-.1-1.6-1.8-1.9-1.8-1.9h-5M789,471.1v2.7c1,0,1-.6,1-.6v-1.3c0-1-1-.9-1-.9h0Z"/>
      <path id="bm3" data-name="bm" class="st13" d="M794.9,464.7v11.8h3.1v-5c1.3,0,1.1.9,1.1.9v4.1h3.1v-4.6c.2-.9-.9-1.5-.9-1.5.9-.5.9-1.6.9-1.6v-2.1c0-2-2.2-1.9-2.2-1.9h-5ZM798,466.6v2.7c1,0,1-.6,1-.6v-1.3c0-1-1-.9-1-.9h0Z"/>
      <path id="bn3" data-name="bn" class="st0" d="M794.9,464.7v11.8h3.1v-5c1.3,0,1.1.9,1.1.9v4.1h3.1v-4.6c.2-.9-.9-1.5-.9-1.5.9-.5.9-1.6.9-1.6v-2.1c0-2-2.2-1.9-2.2-1.9h-5M798,466.6v2.7c1,0,1-.6,1-.6v-1.3c0-1-1-.9-1-.9h0Z"/>
    </g>
  </g>
</svg>