<?xml version="1.0" encoding="UTF-8"?>
<svg xmlns="http://www.w3.org/2000/svg" version="1.1" viewBox="0 0 1199.9 756.6">
  <!-- Generator: Adobe Illustrator 30.2.1, SVG Export Plug-In . SVG Version: 2.1.1 Build 1)  -->
  <defs>
    <style>
      .st0, .st1 {
        fill: none;
      }

      .st2 {
        letter-spacing: 0em;
      }

      .st2, .st3, .st4, .st5, .st6, .st7, .st8, .st9 {
        fill: #fff;
      }

      .st2, .st4, .st5, .st10, .st6, .st8, .st9 {
        isolation: isolate;
      }

      .st2, .st4, .st5, .st6, .st8, .st9 {
        font-family: Helvetica-Bold, Helvetica;
        font-weight: 700;
      }

      .st2, .st5, .st6 {
        font-size: 24px;
      }

      .st11 {
        fill: #06338e;
      }

      .st3, .st12, .st13, .st14, .st15, .st16, .st17, .st18, .st19, .st20, .st21, .st22, .st23, .st24 {
        fill-rule: evenodd;
      }

      .st4 {
        font-size: 36px;
      }

      .st25 {
        fill: #ff1f1f;
      }

      .st12 {
        fill: #eee500;
      }

      .st13 {
        fill: #00923f;
      }

      .st14 {
        fill: #99c85e;
      }

      .st5 {
        letter-spacing: 0em;
      }

      .st26, .st22 {
        fill: #da251d;
      }

      .st27 {
        fill: #b5261e;
      }

      .st15 {
        fill: #d23026;
      }

      .st28 {
        fill: #ff8c00;
      }

      .st16 {
        fill: #00a4ac;
      }

      .st17 {
        fill: #131516;
      }

      .st29 {
        fill: #009150;
      }

      .st30 {
        fill: #f9f9f9;
      }

      .st1 {
        stroke: #000;
        stroke-miterlimit: 100;
        stroke-width: 2px;
      }

      .st31 {
        fill: #ff8300;
      }

      .st18 {
        fill: #2ba74b;
      }

      .st19 {
        fill: #2ca74b;
      }

      .st20 {
        fill: #d82623;
      }

      .st32 {
        fill: #282828;
      }

      .st21 {
        fill: #25282f;
      }

      .st33 {
        fill: red;
      }

      .st8 {
        letter-spacing: 0em;
      }

      .st8, .st9 {
        font-size: 31px;
      }

      .st34 {
        fill: #05338d;
      }

      .st23 {
        fill: #f4de00;
      }

      .st35, .st24 {
        fill: #50b747;
      }
    </style>
  </defs>
  <g id="b">
    <g id="c">
      <rect class="st32" width="1199.9" height="756.6"/>
    </g>
    <g class="st10">
      <text class="st9" transform="translate(395.9 450.3) scale(1.2 1)"><tspan x="0" y="0">Diputados </tspan></text>
      <text class="st8" transform="translate(581.4 450.3) scale(1.2 1)"><tspan x="0" y="0">L</tspan></text>
      <text class="st9" transform="translate(600.8 450.3) scale(1.2 1)"><tspan x="0" y="0">XViI Legislatura</tspan></text>
    </g>
    <g class="st10">
      <text class="st6" transform="translate(559 122.9)"><tspan x="0" y="0">21</tspan></text>
    </g>
    <g class="st10">
      <text class="st9" transform="translate(401.1 59.6) scale(1.2 1)"><tspan x="0" y="0">Senadores </tspan></text>
      <text class="st8" transform="translate(594.6 59.6) scale(1.2 1)"><tspan x="0" y="0">L</tspan></text>
      <text class="st9" transform="translate(614.1 59.6) scale(1.2 1)"><tspan x="0" y="0">XVII Legislatura</tspan></text>
    </g>
    <path id="m" class="st34" d="M515.7,83.9h32.1c2.3,0,4.1,1.8,4.1,4.1v32.1c0,2.3-1.8,4.1-4.1,4.1h-32.1c-2.3,0-4.1-1.8-4.1-4.1v-32.1c0-2.3,1.8-4.1,4.1-4.1h0Z"/>
    <circle id="n" class="st7" cx="531.7" cy="104.1" r="19.3" transform="translate(308.2 597.6) rotate(-76.7)"/>
    <circle id="o" class="st34" cx="531.7" cy="104.1" r="17.2"/>
    <circle id="p" class="st7" cx="531.7" cy="104.1" r="15.1"/>
    <path id="q" class="st11" d="M524,103.7c.5,0,.5-.5.5-1v-3.6c0-.6-.2-.9-.5-.9h-1.4v5.5h1.4ZM519.9,112.9v-17.8h6.2c1,0,1.5,1.3,1.5,2.7v5.5c0,1.6-.5,3.2-2,3.2h-2.9v6.5h-2.8c0,0,0,0,0,0h0ZM530.3,107.9h1.6l-.8-3.8-.8,3.8h0,0ZM529.5,110.6l-.4,2.4h-2.9l3.2-17.8h3.5l3.1,17.8h-2.9l-.4-2.4h-3.2ZM536.3,112.9v-17.8h2.6l1.8,6.2v-6.2h2.8v17.8h-2.8l-1.7-5.4v5.4h-2.9,0Z"/>
    <path id="an" class="st24" d="M689.3,87.3h29.5c2,0,3.7,1.7,3.7,3.7v29.4c0,2-1.7,3.7-3.7,3.7h-29.5c-2,0-3.7-1.7-3.7-3.7v-29.4c0-2,1.7-3.7,3.7-3.7Z"/>
    <polygon id="ao" class="st3" points="689.3 122.6 687.3 113.5 689.8 113.5 690.7 119.3 691.6 113.5 694.1 113.5 692 122.6 689.3 122.6"/>
    <polygon id="ap" class="st3" points="696.9 120.1 700 120.1 700 122.6 694.6 122.6 694.6 113.5 700 113.5 700 115.9 696.9 115.9 696.9 116.9 700 116.9 700 119.2 696.9 119.2 696.9 120.1"/>
    <path id="aq" class="st3" d="M704,113.5c.4,0,.8,0,.9,0,2.5.2,2.6,3.9,1.1,4.9-.1,0-.2.1-.4.1.7.2,1.2,1.7,1.9,4h-2.7c-.3-1.3-.5-2.2-.8-2.6v-2.5c0,0,.2,0,.2,0,.4,0,.6-1.6,0-1.7,0,0-.1,0-.2,0v-2.2s0,0,0,0ZM701,122.6v-9.1h3v2.2c-.1,0-.2,0-.4,0h-.2s0,1.8,0,1.8h.6v2.5c0-.1,0-.2-.1-.3h-.5v2.9h-2.3Z"/>
    <path id="ar" class="st3" d="M711.3,113.5c2.9,0,3.4,2.1,3.4,4.4,0,2-.4,4.2-2.8,4.7-.2,0-.4,0-.5,0v-2.7c.8-.2,1-1.2,1-2s-.3-1.5-1-1.7v-2.7h0ZM707.9,113.5h3.4v2.7c-.2,0-.4,0-.7,0h-.3v3.9h.3c.3,0,.5,0,.7,0v2.7c0,0-.1,0-.2,0h-3.2v-9.1h0Z"/>
    <polygon id="as" class="st3" points="717.6 120.1 720.7 120.1 720.7 122.6 715.3 122.6 715.3 113.5 720.7 113.5 720.7 115.9 717.6 115.9 717.6 116.9 720.7 116.9 720.7 119.2 717.6 119.2 717.6 120.1"/>
    <path id="at" class="st14" d="M689.9,105c2.8-.3,5.5-.6,8.3-1l-1.3-2.7c-1.3.1-5.9,2.2-6.9,3.7h0Z"/>
    <path id="au" class="st18" d="M689.9,105.2c1.7,1.6,6.4,2.4,9.8,2l-1.5-3.1c-2.8.4-5.5.7-8.3,1.1h0Z"/>
    <path id="av" class="st0" d="M703.8,107.6l.4-1c-.3,0-.5.2-.8.2l.3.8Z"/>
    <path id="aw" class="st0" d="M704.3,106.5c-.3,0-.5.2-.8.2l.3.8.4-1Z"/>
    <path id="ax" class="st3" d="M711.2,100.5l2.5-5.2-4.2-1-1.6,3.6-1.1,2.5h0c1.4,0,2.9,0,4.3,0h0Z"/>
    <path id="ay" class="st21" d="M706,100.4c.4-1.2.8-2.5.7-4.1,0-.6-.2-.9-.3-1.1-.2-.2-.3-.4-.3-.6,0-.3-.1-.4-.2-.6-.1-.3,0-.4,0-.6,0-.4.2-.8.4-1.1.3,0,.7,0,.9-.1,1.8-.2,4,0,5.9.6.1,0,.2.1.3.2,0,.2.3.1.3-.1,0-1.7-1.2-3-2.7-3.6-.8-.3-1.8-.4-2.7-.5-.8,0-2.1,0-2.4.2-1.3-.1-2.2.4-2.8,1.7-.7,1.7-1,2.7-.9,3.6-1.6,1.9-1.1,4-.3,6.2,1.4-.1,2.9-.1,4.3,0h0Z"/>
    <path id="az" class="st14" d="M711.2,100.5c-1.5,0-2.9,0-4.3,0h0c-.3,0-.6,0-.9,0-1.5,0-2.9,0-4.3,0-.3,0-.6,0-.9,0l1.3,2.9c3.2-.5,6.3-1,9.1-1.7,2.7-.5,5.1-1.2,7.1-2.1-2.4.6-4.8.8-7,.8h0,0Z"/>
    <path id="ba" class="st0" d="M704.3,106.5c-.3,0-.5.2-.8.2l.3.8.4-1Z"/>
    <path id="bb" class="st18" d="M707.8,102.5c-1.9.3-3.8.7-5.7,1h0c.5,1.1,1,2.2,1.4,3.3,0,0,0,0,0,0,.3,0,.4-.1.7-.2,1.6-.5,3.2-1.1,4.8-1.7,3.1-1.2,6.2-2.7,9.2-5.2-3.3,1.3-6.8,2.3-10.5,2.9h0Z"/>
    <path id="bc" class="st3" d="M702,103.5h0c0,0-1.3-3-1.3-3l-2.7-6.2-4.2,1,2.9,5.9,1.3,2.7h0c0,.1,1.5,3.3,1.5,3.3l2.2,4.4h3.8l2.3-4.5,1.1-2.2c-1.6.6-3.2,1.1-4.8,1.7l-.4,1-.3-.8-1.5-3.2h0,0Z"/>
    <path id="bd" class="st3" d="M689.9,104.9c6.6-.7,13.4-1.7,20.6-3.1,2.3-.4,4.5-1.1,6-1.5-3.1,1.2-7.3,2.2-12.5,3-4.1.6-8.7,1.3-14,2-.2,0-.2-.3,0-.3h0Z"/>
    <path id="be" class="st20" d="M710.9,90.8c.2-.1.6-.7.7-1,1.3.9,1.8,1.9,1.7,2.9-.5-.8-1.3-1.5-2.4-1.9h0Z"/>
    <path id="bf" class="st23" d="M705.8,89.1c.5-.2,1.2-.2,2-.2,1.3,0,3,.3,3.5.9-.2.5-.4.8-.8,1-1.6-.5-3.1-.5-4.6-.3,0-.4,0-.9-.2-1.3h0Z"/>
    <path id="bg" class="st19" d="M706,90.6c0,0,0-.1,1.4,0,1.2,0,2.3,0,3.5.5,1.2.4,1.9,1.1,2.3,1.8-1.1-.4-2.2-.6-3.4-.7-.9,0-1.8,0-2.8,0-.1,0-.1.3-.8.1-.3-.2-.4-.6-.3-1.1,0-.2,0-.4.2-.6h0,0Z"/>
    <path id="bh" class="st23" d="M705.2,89.3c.2-.1.4-.2.5-.2.1,0,.1.1.2.3,0,.4.1.9,0,1.3-.2.6-.3,1.1,0,1.5.1,0,.1.2,0,.3,0,.3-.5,1-.2,1.5.3.7.2,1.2.1,1.4,0,.4-.5.9-1.4.9-.6,0-1.4-.2-1.7-1.3-.2-.9.2-2,.8-3.3.6-1.2,1.1-2.1,1.6-2.4h0,0Z"/>
    <path id="bi" class="st21" d="M705.1,91c.3,0,.5-.2.5-.4s-.2-.4-.5-.4-.5.2-.5.4.2.4.5.4Z"/>
    <g class="st10">
      <text class="st6" transform="translate(728.2 123.2)"><tspan x="0" y="0">14</tspan></text>
    </g>
    <g class="st10">
      <text class="st6" transform="translate(809.6 123.7)"><tspan x="0" y="0">6</tspan></text>
    </g>
    <path id="bj" class="st26" d="M766,88.4h34.8v34.8h-34.8v-34.8Z"/>
    <path id="bk" class="st22" d="M769.5,88.4h27.8c1.9,0,3.5,1.6,3.5,3.5v27.8c0,1.9-1.6,3.5-3.5,3.5h-27.8c-1.9,0-3.5-1.6-3.5-3.5v-27.8c0-1.9,1.6-3.5,3.5-3.5Z"/>
    <path id="bl" class="st12" d="M784,95h3.4l-2.7,2.1,1,3.4-2.8-2-2.8,2.1,1.1-3.4-2.7-2.1h3.3l1.1-3.4,1.1,3.4h0ZM783.3,102.7h13.7v4.2h-4.6v13h-4.5v-13h-4.5v-4.2h0ZM778,102.7c2.9.4,4.2,2.4,4.2,5.4,0,3-2,5.3-4.5,5.4h-3.5v6.4h-4.5v-17.3c2.7,0,5.4,0,8.2,0h0ZM774.3,106.2v3.9h1.5c1.6,0,2-1,2-1.8,0-.8-.3-2-2-2.1h-1.5,0Z"/>
    <path id="bm" class="st1" d="M766,88.4h34.8v34.8h-34.8v-34.8Z"/>
    <g class="st10">
      <text class="st6" transform="translate(876.9 122.9)"><tspan x="0" y="0">6</tspan></text>
    </g>
    <g id="bn">
      <g id="bo">
        <path id="bp" class="st16" d="M430.3,82.3h33.1c2.3,0,4.1,1.9,4.1,4.1v33.2c0,2.3-1.9,4.1-4.1,4.1h-33.1c-2.3,0-4.1-1.9-4.1-4.1v-33.2c0-2.3,1.9-4.1,4.1-4.1Z"/>
        <path id="bq" class="st3" d="M460.6,84.7c-4.8.1-12.1,5.7-14.4,9.4,3.1-2.3,5.8-4.3,8-5.1,2.5-1,4.8-.7,3,2.4-1.4,2.4-4.8,6.1-10.3,10.7-1.3-4.3-5-6.1-9.4-5.2-4.1.9-7,3.4-10.7,8.8,3.8-3.9,7.1-5.6,9.8-5.4,2.4.1,4.9,1.6,5.5,6.3.3,2.3,1.6,2.7,3.6,1.6,4.1-2.2,7.5-5.2,11-8.3,5.8-5.3,9-12.7,6.5-14.5-.7-.5-1.6-.7-2.6-.7h0ZM453.7,109.6c-.3,0-.5.1-.7.3-.2.2-.3.4-.3.7v1.8h.6v-1.8c0,0,0-.2.1-.2,0,0,.2-.1.3-.1s.3,0,.3.1c0,0,.1.1.1.2v1.5c0,.1.1.2.2.2h.4v-1.8c0-.3-.1-.5-.3-.7-.2-.2-.5-.3-.7-.3h0ZM455.2,109.6v1.8c0,.3.1.5.3.7.2.2.5.3.7.3s.5-.1.7-.3c.2-.2.3-.4.3-.7v-1.8h-.4c-.1,0-.2.1-.2.2v1.5c0,0,0,.2-.1.2,0,0-.2.1-.3.1s-.3,0-.3-.1c0,0-.1-.1-.1-.2v-1.8h-.6ZM458.9,109.6c-.3,0-.6.1-.8.4s-.3.6-.3,1,0,.7.2.9c.2.3.5.4.9.4s.5,0,.7-.2c.2-.1.3-.3.4-.6h-.6s0,.1-.2.2-.1,0-.2,0c-.1,0-.3,0-.4-.2s-.1-.3-.1-.5h1.6c0-.5,0-.9-.3-1.2-.2-.3-.5-.4-.9-.4h0ZM460.2,109.6l1,2.8h.7l1-2.8h-.7l-.7,1.8-.7-1.8h-.7,0ZM464,109.6c-.5,0-.9.4-.9.7h.6c0-.1.2-.2.4-.2.2,0,.4,0,.4.3s-.4.2-.7.3c-.4,0-.7.3-.7.7h0c0,.7.4.9.8.9h.2c.7,0,1-.5,1-1v-1.1c0-.4-.5-.7-.8-.7h-.3ZM458.9,110.1c.1,0,.2,0,.3.2,0,.1.1.3.1.5h-1c0-.2,0-.3.1-.4s.2-.2.4-.2h0ZM464.5,110.9v.4c0,.5-.8.6-.9.3-.1-.6.6-.4.9-.7h0ZM433.7,111.2v10h1.8v-9.3c0-.4-.3-.7-.7-.7h-1.1ZM436.5,111.2v1.6h1.8v-.9c0-.4-.3-.7-.7-.7h-1.1ZM429.8,113.1c-1.4,0-2.5,1.2-2.6,2.1h1.8c.1-.4.6-.6,1.2-.6s1.2.2,1.2.8-1.1.7-2.2.9c-1.2.2-2.2.8-2.2,2.2v.3c0,1.7,1.3,2.4,2.5,2.4h.6c2.1,0,3.1-1.6,3.1-2.9v-3.1c0-1.1-1.4-2.1-2.4-2.1h-.9,0ZM441.5,113.1c-1.4,0-2.5,1.2-2.6,2.1h1.8c.1-.4.6-.6,1.2-.6s1.2.2,1.2.8-1.1.7-2.2.9c-1.2.2-2.2.8-2.2,2.2v.3c0,1.7,1.3,2.4,2.5,2.4h.6c2.1,0,3.1-1.6,3.1-2.9v-3.1c0-1.1-1.4-2.1-2.4-2.1h-.9,0ZM448.5,113.1c-.8,0-1.6.3-2.2.8-.6.5-1,1.2-1,2v5.2h1.8v-5.2c0-.2.1-.5.3-.6.2-.2.6-.3,1-.3s.8.1,1,.3c.2.2.3.4.3.6v4.5c0,.4.3.7.7.7h1.1v-5.2c0-.8-.4-1.5-1-2-.6-.5-1.3-.8-2.2-.8h0ZM461.8,113.1c-1.4,0-2.5,1.2-2.6,2.1h1.8c.1-.4.6-.6,1.2-.6s1.2.2,1.2.8-1.1.7-2.2.9c-1.2.2-2.2.8-2.2,2.2v.3c0,1.7,1.3,2.4,2.5,2.4h.6c2.1,0,3.1-1.6,3.1-2.9v-3.1c0-1.1-1.4-2.1-2.4-2.1h-.9,0ZM452.3,113.4v1.1c0,.4.3.7.7.7h2.8l-3.5,4v1.9h6.2v-1.9h-3.5l3.5-4v-1.9h-6.2,0ZM436.5,113.5v7.7h1.8v-6.9c0-.4-.3-.7-.7-.7h-1.1ZM431.3,117.2v1.1c0,1.6-2.4,1.8-2.5.9-.4-1.9,1.7-1.3,2.5-2h0ZM443.1,117.2v1.1c0,1.6-2.4,1.8-2.5.9-.4-1.9,1.7-1.3,2.5-2h0ZM463.4,117.2v1.1c0,1.6-2.4,1.8-2.5.9-.4-1.9,1.7-1.3,2.5-2h0Z"/>
      </g>
    </g>
    <g class="st10">
      <text class="st6" transform="translate(472.7 123.7)"><tspan x="0" y="0">67</tspan></text>
    </g>
    <g class="st10">
      <text class="st4" transform="translate(570.7 354.2)"><tspan x="0" y="0">128</tspan></text>
    </g>
    <g class="st10">
      <text class="st6" transform="translate(430.9 173.2)"><tspan x="0" y="0">S</tspan></text>
      <text class="st5" transform="translate(446.9 173.2)"><tspan x="0" y="0">P</tspan></text>
      <text class="st6" transform="translate(462.5 173.2)"><tspan x="0" y="0" xml:space="preserve"> 1</tspan></text>
    </g>
    <path class="st31" d="M867.2,124.4h-28.7c-2,0-3.6-1.6-3.6-3.6v-28.7c0-2,1.6-3.6,3.6-3.6h28.7c2,0,3.6,1.6,3.6,3.6v28.7c0,2-1.6,3.6-3.6,3.6Z"/>
    <path class="st30" d="M851.3,105.2c.3-.2.6-.3,1-.5.2,0,.3-.2.5-.2.2,0,.4-.2.5-.3.2,0,.3-.2.5-.3,0,0,.2-.1.2-.2,0,0,0,0,.1,0h0c.3-.4.5-.8.5-1.2,0,0,0-.2,0-.3,0,0,0-.2,0-.3v-.3c0,0,0-.2,0-.3,0,0,0-.2,0-.3,0,0,0,0,0,0,0,0-.3.2-.4.3,0,0,0,.1,0,.2v.5c0,0,0,.1,0,.2s0,.2,0,.2h0c0,.1,0,.2,0,.2h0c0,0,0,.2,0,.2,0,0,0,0,0,0,0,0,0,.1-.1.2,0,0,0,0,0,0,0,0,0,0,0,0,0,0,0,0,0,0,0-.2-.2-.8-.2-1.2,0-.7,1-1.2,1.2-1.2.1,0,.2.3.2.3,0,0,.4-.8.1-1,0,0-.3,0-.5,0,0-.1,0-.3-.2-.4-.1-.3-.2-.5-.5-.7,0,0-.1,0-.2-.2,0,0,0,0,0,0s0,0,0,0h-.1c-.2,0-.3,0-.4.2-.2.1-.3.3-.5.4,0,0,0,0,0,0,0,0,0,0-.1.1,0,0,0,0,0,0-.2.1-.3,0-.4-.1-.2-.3-.6-.8-.8-.8-.2,0-.4.3-.3.5,0,0,0,0,0,0s0-.2,0-.2c0,0,0,.3.2.4,0,0-.2.1-.3,0,0,0,0,0,0,0,0,0,0,0,0,.2,0,0,.1.1.3.2,0,0,.3.1.6.2.5.3.7,0,.7,0,0,0,0,0,0,0,.1,0,.2-.2.4-.3.1-.1.3-.2.4-.3,0,0,.2,0,.2,0h0s0,0,0,0c.1.1.2.4.3.6,0,0,0,.2.1.3,0,0-.1,0-.1,0,0-.1-.2-.2-.3-.2-.2,0-.4.2-.8.5-.4.2-.8.2-.8.2.1.3.3.3.3.3-.4.3-.6.8-.6.8h0c-.2.4-.3.8-.5,1.4-.2,0-.3,0-.3,0-.6-.2-.8-.3-.8-.3,0,0-1.2-.5-.5-1.7,0,0,.7-.7-.6-1.3,0,0-.9-.5-2.1-.5s-4.4-.1-6.3-.4c0,0,2.3,2.2,3.1,2.9,0,0,.4.4.9.3,0,0,.8,0,1.9-.3,0,0-.6.5-1.3.6,0,0,.7,1.4,1.7,1.9,0,0,.3.2.7.1,0,0,.7,0,1.3-.4,0,0-.3.4-1.2.7,0,0,.9.8,2.3,1.1,0,0,0,.5.4.8,0-.2,0-.4.2-.6.1-.3.4-.6.7-.8h0Z"/>
    <path class="st30" d="M858.8,99.2c-1.2,0-2.1.5-2.1.5-1.3.6-.6,1.3-.6,1.3.8,1.2-.5,1.7-.5,1.7,0,0-.3.1-.8.3-.1.3-.3.5-.4.7,0,0-.1.2-.3.3,0,0,0,0,0,0h0c-.2.2-.3.3-.5.4-.2,0-.4.2-.5.3l-.5.2c-.3.1-.7.3-1,.5,0,0,0,0,0,0-.2.1-.3.2-.3.3,1.4,0,1.8.9,1.8.9,0,0,.5-1.2,2.7-.8.7-.1,1.8-.4,2.5-1.1-.9-.2-1.2-.7-1.2-.7.6.3,1.3.4,1.3.4.3,0,.7-.1.7-.1,1-.6,1.7-1.9,1.7-1.9-.7,0-1.3-.6-1.3-.6,1.1.2,1.9.3,1.9.3.5,0,.9-.3.9-.3.8-.7,3.1-2.9,3.1-2.9-1.8.2-5.1.3-6.3.4h0Z"/>
    <path class="st30" d="M845.4,107.9v1.8s0,0,0,0,0,0,0,0h-.4s0,0,0,0c0,0,0,0,0,0v-.9s0,0,0,0,0,0,0,0l-.5.7s0,0,0,0,0,0,0,0l-.5-.7s0,0,0,0,0,0,0,0v.9s0,0,0,0,0,0,0,0h-.4s0,0,0,0c0,0,0,0,0,0v-1.8s0,0,0,0,0,0,0,0h.4s0,0,0,0,0,0,0,0l.5.8s0,0,0,0,0,0,0,0l.5-.8s0,0,0,0c0,0,0,0,0,0h.4s0,0,0,0c0,0,0,0,0,0h0Z"/>
    <path class="st30" d="M845.7,108.9c0-.1,0-.3,0-.4,0-.1.1-.2.2-.3s.2-.2.3-.2.3,0,.4,0,.3,0,.4,0c.1,0,.2.1.3.2s.2.2.2.3,0,.3,0,.4,0,.3,0,.4c0,.1-.1.2-.2.3s-.2.2-.3.2-.3,0-.4,0-.3,0-.4,0c-.1,0-.2-.1-.3-.2s-.2-.2-.2-.3c0-.1,0-.3,0-.4ZM846.2,108.9c0,0,0,.1,0,.2s0,.1,0,.2,0,0,.2.1.1,0,.2,0,.1,0,.2,0,.1,0,.2-.1c0,0,0,0,0-.2,0,0,0-.1,0-.2s0-.1,0-.2c0,0,0-.1,0-.2s0,0-.2-.1c0,0-.1,0-.2,0s-.1,0-.2,0-.1,0-.2.1c0,0,0,0,0,.2,0,0,0,.1,0,.2Z"/>
    <path class="st30" d="M848.6,109.8l-.8-1.8s0,0,0,0c0,0,0,0,0,0h.4s0,0,0,0,0,0,0,0l.5,1.1s0,0,0,0,0,0,0,0l.5-1.1s0,0,0,0c0,0,0,0,0,0h.5s0,0,0,0c0,0,0,0,0,0l-.8,1.8s0,0,0,0c0,0,0,0,0,0h-.4s0,0,0,0c0,0,0,0,0,0h0Z"/>
    <path class="st30" d="M850.6,109.8h-.4s0,0,0,0c0,0,0,0,0,0v-1.8s0,0,0,0,0,0,0,0h.4s0,0,0,0c0,0,0,0,0,0v1.8s0,0,0,0,0,0,0,0Z"/>
    <path class="st30" d="M853.3,107.9v1.8s0,0,0,0,0,0,0,0h-.4s0,0,0,0c0,0,0,0,0,0v-.9s0,0,0,0,0,0,0,0l-.5.7s0,0,0,0,0,0,0,0l-.5-.7s0,0,0,0,0,0,0,0v.9s0,0,0,0,0,0,0,0h-.4s0,0,0,0c0,0,0,0,0,0v-1.8s0,0,0,0,0,0,0,0h.4s0,0,0,0,0,0,0,0l.5.8s0,0,0,0,0,0,0,0l.5-.8s0,0,0,0c0,0,0,0,0,0h.4s0,0,0,0c0,0,0,0,0,0h0Z"/>
    <path class="st30" d="M854.3,109.8h-.4s0,0,0,0c0,0,0,0,0,0v-1.8s0,0,0,0,0,0,0,0h.4s0,0,0,0c0,0,0,0,0,0v1.8s0,0,0,0,0,0,0,0Z"/>
    <path class="st30" d="M855.3,108.4h0c0,.1,0,.1,0,.2s0,0,0,0h.7s0,0,0,0c0,0,0,0,0,0v.4s0,0,0,0,0,0,0,0h-.7s0,0,0,0c0,0,0,0,0,0h0c0,0,0,.1,0,.2s0,0,0,0h.8s0,0,0,0c0,0,0,0,0,0v.4s0,0,0,0,0,0,0,0h-1.4s0,0,0,0c0,0,0,0,0,0v-1.8s0,0,0,0,0,0,0,0h1.4s0,0,0,0c0,0,0,0,0,0v.4s0,0,0,0,0,0,0,0h-.8s0,0,0,0c0,0,0,0,0,0h0Z"/>
    <path class="st30" d="M858.5,107.9v1.8s0,0,0,0,0,0,0,0h-.4s0,0,0,0c0,0,0,0,0,0l-.7-1s0,0,0,0,0,0,0,0v1s0,0,0,0,0,0,0,0h-.4s0,0,0,0c0,0,0,0,0,0v-1.8s0,0,0,0,0,0,0,0h.4s0,0,0,0,0,0,0,0l.7,1s0,0,0,0,0,0,0,0v-1s0,0,0,0,0,0,0,0h.4s0,0,0,0c0,0,0,0,0,0h0Z"/>
    <path class="st30" d="M860.3,108.4h-.4s0,0,0,0c0,0,0,0,0,0v1.3s0,0,0,0,0,0,0,0h-.4s0,0,0,0c0,0,0,0,0,0v-1.3s0,0,0,0,0,0,0,0h-.4s0,0,0,0c0,0,0,0,0,0v-.4s0,0,0,0,0,0,0,0h1.4s0,0,0,0c0,0,0,0,0,0v.4s0,0,0,0,0,0,0,0h0Z"/>
    <path class="st30" d="M860.5,108.9c0-.1,0-.3,0-.4,0-.1.1-.2.2-.3s.2-.2.3-.2.3,0,.4,0,.3,0,.4,0c.1,0,.2.1.3.2s.2.2.2.3,0,.3,0,.4,0,.3,0,.4c0,.1-.1.2-.2.3s-.2.2-.3.2-.3,0-.4,0-.3,0-.4,0c-.1,0-.2-.1-.3-.2s-.2-.2-.2-.3c0-.1,0-.3,0-.4ZM861,108.9c0,0,0,.1,0,.2s0,.1,0,.2,0,0,.2.1.1,0,.2,0,.1,0,.2,0,.1,0,.2-.1,0,0,0-.2,0-.1,0-.2,0-.1,0-.2c0,0,0-.1,0-.2s0,0-.2-.1-.1,0-.2,0-.1,0-.2,0-.1,0-.2.1,0,0,0,.2c0,0,0,.1,0,.2Z"/>
    <path class="st30" d="M844,112.5c0,.1-.1.2-.2.3,0,0-.2.2-.3.2,0,0-.2.1-.3.2s-.3,0-.4,0-.4,0-.5-.1-.3-.2-.4-.3-.2-.3-.3-.4-.1-.3-.1-.5,0-.4.1-.5.2-.3.3-.4.3-.2.4-.3.3-.1.5-.1.3,0,.4,0,.2,0,.3.2.2.1.3.2.2.2.2.3c0,0,0,0,0,0,0,0,0,0,0,0l-.5.2s0,0,0,0,0,0,0,0c0-.1-.2-.2-.2-.3,0,0-.2,0-.3,0s-.2,0-.3,0-.2,0-.2.2c0,0,0,.1-.1.2,0,0,0,.2,0,.3s0,.2,0,.3,0,.2.1.2c0,0,.1.1.2.2s.2,0,.3,0c.1,0,.2,0,.4,0,0,0,.2-.2.2-.2,0,0,0,0,0,0,0,0,0,0,0,0l.5.2s0,0,0,0c0,0,0,0,0,0h0Z"/>
    <path class="st30" d="M844.9,113.2h-.5s0,0,0,0c0,0,0,0,0,0v-2.5s0,0,0,0,0,0,0,0h.5s0,0,0,0,0,0,0,0v2.5s0,0,0,0c0,0,0,0,0,0Z"/>
    <path class="st30" d="M845.4,110.7s0,0,0,0,0,0,0,0h.5s0,0,0,0,0,0,0,0v1.5c0,0,0,.2,0,.2,0,0,0,.1.1.1s0,0,.1,0c0,0,0,0,.1,0s0,0,.1,0c0,0,0,0,.1,0,0,0,0,0,.1-.1s0-.1,0-.2v-1.5s0,0,0,0,0,0,0,0h.5s0,0,0,0,0,0,0,0v1.5c0,.2,0,.3,0,.5,0,.1-.1.3-.2.4s-.2.2-.4.2-.3,0-.5,0-.3,0-.5,0-.3-.1-.4-.2c0,0-.2-.2-.2-.4s0-.3,0-.5v-1.5h0Z"/>
    <path class="st30" d="M848.2,113.1v-2.5s0,0,0,0,0,0,0,0h1c.4,0,.7.1.9.3.1.1.2.3.3.4,0,.2,0,.3,0,.6s0,.4,0,.6c0,.2-.2.3-.3.4-.1.1-.3.2-.4.2s-.3,0-.5,0h-1s0,0,0,0c0,0,0,0,0,0h0ZM849,112.6h.3c0,0,.1,0,.2,0s.1,0,.2,0,0-.1.1-.2,0-.2,0-.3,0-.2,0-.3c0,0,0-.2-.1-.2s-.1,0-.2,0-.1,0-.2,0h-.3s0,0,0,0,0,0,0,0v1.1s0,0,0,0c0,0,0,0,0,0h0Z"/>
    <path class="st30" d="M851.5,110.7s0,0,0,0c0,0,0,0,0,0h.5s0,0,0,0c0,0,0,0,0,0l1,2.4h0c0,0,0,.1,0,.1h-.6s0,0,0,0c0,0,0,0,0,0v-.2c0,0-.1,0-.1,0,0,0,0,0,0,0h-.8s0,0,0,0c0,0,0,0,0,0v.2c0,0-.1,0-.1,0,0,0,0,0,0,0h-.6s0,0,0,0,0,0,0,0,0,0,0,0l1-2.4h0ZM851.7,112.2h.3s0,0,0,0c0,0,0,0,0,0,0,0,0-.1,0-.2,0,0,0-.2,0-.2,0,0,0,0,0,0s0,0,0,0l-.2.4s0,0,0,0,0,0,0,0h0Z"/>
    <path class="st30" d="M853.5,113.1v-2.5s0,0,0,0,0,0,0,0h1c.4,0,.7.1.9.3.1.1.2.3.3.4,0,.2,0,.3,0,.6s0,.4,0,.6c0,.2-.2.3-.3.4-.1.1-.3.2-.4.2-.2,0-.3,0-.5,0h-1s0,0,0,0c0,0,0,0,0,0h0ZM854.3,112.6h.3c0,0,.1,0,.2,0s.1,0,.2,0c0,0,0-.1.1-.2s0-.2,0-.3,0-.2,0-.3c0,0,0-.2-.1-.2s-.1,0-.2,0-.1,0-.2,0h-.3s0,0,0,0,0,0,0,0v1.1s0,0,0,0,0,0,0,0h0Z"/>
    <path class="st30" d="M856.8,110.7s0,0,0,0c0,0,0,0,0,0h.5s0,0,0,0c0,0,0,0,0,0l1,2.4h0c0,0,0,.1,0,.1h-.6s0,0,0,0c0,0,0,0,0,0v-.2c0,0-.1,0-.1,0,0,0,0,0,0,0h-.8s0,0,0,0c0,0,0,0,0,0v.2c0,0-.1,0-.1,0s0,0,0,0h-.7s0,0,0,0,0,0,0,0,0,0,0,0l1-2.4h0ZM857,112.2h.3s0,0,0,0c0,0,0,0,0,0,0,0,0-.1,0-.2,0,0,0-.2,0-.2,0,0,0,0,0,0s0,0,0,0l-.2.4s0,0,0,0c0,0,0,0,0,0h0Z"/>
    <path class="st30" d="M861.3,110.7v2.5s0,0,0,0,0,0,0,0h-.5s0,0,0,0c0,0,0,0,0,0l-.9-1.3s0,0,0,0,0,0,0,0v1.3s0,0,0,0,0,0,0,0h-.5s0,0,0,0,0,0,0,0v-2.5s0,0,0,0,0,0,0,0h.5s0,0,0,0c0,0,0,0,0,0l.9,1.3s0,0,0,0,0,0,0,0v-1.3s0,0,0,0,0,0,0,0h.5s0,0,0,0c0,0,0,0,0,0Z"/>
    <path class="st30" d="M861.6,111.9c0-.2,0-.4.1-.5s.2-.3.3-.4.3-.2.4-.3.3-.1.5-.1.4,0,.5.1.3.2.4.3.2.3.3.4.1.3.1.5,0,.4-.1.5-.2.3-.3.4-.3.2-.4.3-.3.1-.5.1-.4,0-.5-.1-.3-.2-.4-.3-.2-.3-.3-.4c0-.2-.1-.3-.1-.5ZM862.3,111.9c0,0,0,.2,0,.3s0,.2.1.2.1.1.2.2c0,0,.2,0,.2,0s.2,0,.2,0,.2,0,.2-.2c0,0,0-.1.1-.2,0,0,0-.2,0-.3s0-.2,0-.3,0-.2-.1-.2-.1-.1-.2-.2-.2,0-.2,0-.2,0-.2,0-.2,0-.2.2c0,0,0,.1-.1.2,0,0,0,.2,0,.3Z"/>
    <g id="cf">
      <path id="cg" class="st30" d="M429.5,82.1h33.8c2.3,0,4.2,1.9,4.2,4.2v33.8c0,2.3-1.9,4.2-4.2,4.2h-33.8c-2.3,0-4.2-1.9-4.2-4.2v-33.8c0-2.3,1.9-4.2,4.2-4.2h0Z"/>
    </g>
    <g id="ch">
      <path id="ci" class="st27" d="M430.1,104.4v-4.2c0-.6-.2-.9-.9-.8-.2,0-.4,0-.6.1v4.9h-1.9v-6.3c.4,0,.9-.1,1.3-.2.1.1.2.3.4.4.5-.2,1-.4,1.6-.4.5,0,1.1.1,1.5.5.9-.4,1.7-.6,2.6-.4.8.1,1.2.7,1.3,1.4,0,.2,0,.5,0,.7v4.1c0,0,0,.1,0,.2h-1.9v-4.2c0-.2,0-.3,0-.5,0-.3-.2-.4-.5-.4s-.6,0-1,0v5h-1.9Z"/>
      <path id="cj" class="st27" d="M453.6,98c.4,0,.9-.1,1.3-.2.1.1.2.3.3.4.4-.1.8-.2,1.2-.3.8-.1,1.5,0,2.1.6.4.4.7.9.7,1.5,0,.2,0,.3,0,.5v3.9h-1.9v-4c0-.4,0-.9-.5-1-.5,0-.9,0-1.4,0v4.9h-1.9v-6.4h0Z"/>
      <path id="ck" class="st27" d="M461.1,99.6c-.1-.4-.3-.7-.5-1.1,0,0,0,0,0,0,.6-.2,1.3-.5,2-.6.8-.1,1.5,0,2.1.6.4.4.6.9.6,1.4v3.1c.2,0,.4,0,.5,0,0,.3.2.7.2,1-.4.2-.7.3-1.1.4-.7.1-1-.1-1.4-.4-.4.2-.9.4-1.3.5-.8.1-1.5-.1-2-.7-.5-.6-.6-1.2-.3-1.9.3-.8.9-1.2,1.7-1.2.4,0,.8,0,1.2,0,.1,0,.3,0,.5,0,0-.3,0-.6,0-.9,0-.3-.5-.6-.9-.5-.6,0-1.1.3-1.6.4h0ZM463.5,101.8h-1c-.4,0-.6.2-.6.6,0,.4.2.7.6.7.4,0,.7,0,1-.1,0-.4,0-.8,0-1.1h0Z"/>
      <path id="cl" class="st27" d="M439.5,104.5c-1.6,0-2.8-1-3.1-2.5-.1-.7-.1-1.3.1-2,.5-1.6,1.8-2.3,3.3-2.1,1.7.2,2.6,1.5,2.7,2.7,0,.5,0,1.1,0,1.6-.4,1.5-1.5,2.3-3,2.3h0ZM440.8,101.2c0-.5,0-1-.3-1.4-.4-.7-1.4-.7-1.8,0,0,.1-.1.3-.2.4-.2.6-.2,1.1,0,1.7,0,.3.1.6.3.8.2.3.5.5.9.5.5,0,.8-.2,1-.6.2-.4.2-.9.2-1.3h0Z"/>
      <path id="cm" class="st27" d="M452.7,101.7c-1.2,0-2.4,0-3.6,0,0,.9.6,1.5,1.5,1.5.7,0,1.3-.2,1.9-.3,0,.4.1.8.1,1.1-.6.3-1.1.4-1.7.5-.5,0-.9.1-1.4,0-.9-.2-1.6-.7-2-1.6-.5-1.1-.5-2.2,0-3.4.5-1.3,1.7-1.8,3-1.7.2,0,.4,0,.6.1,1,.3,1.5.9,1.7,1.9.1.6.2,1.3-.1,1.9h0ZM451,100.4c0-.4-.1-.7-.3-.9-.3-.4-1-.4-1.3,0-.2.2-.2.5-.2.9h1.9Z"/>
      <path id="cn" class="st27" d="M445.3,104.4h-1.9v-6.4c.4,0,.9-.1,1.3-.1.1.2.2.4.4.5.7-.4,1.3-.6,2-.7,0,.6-.2,1.2-.2,1.8-.5,0-1,.1-1.6.2v4.7h0Z"/>
      <path id="co" d="M456.6,106.5c-.1.5-.3,1-.4,1.6h-.7c-.1-.5-.3-1.1-.4-1.6h0c0,.5,0,1.1,0,1.6h-.6c0-.8,0-1.6.1-2.4h.9c.1.6.3,1.1.4,1.7h0c.1-.6.3-1.1.4-1.7h.9c0,.8,0,1.6.1,2.4h-.6c0-.5,0-1.1,0-1.6h0,0Z"/>
      <path id="cp" d="M450.3,106.3v-.9h.5v2.6c-.2,0-.4,0-.5,0-1,.2-1.4-.5-1.1-1.3,0-.2.5-.6.9-.5.1,0,0,0,.2,0h0ZM450.3,107.7v-.9c-.4-.1-.6,0-.6.4v.2c0,.4.2.5.6.4h0Z"/>
      <path id="cq" d="M435.5,108.2v.7h-.5v-2.6c.1,0,.3-.1.5,0,.7-.3,1.1,0,1.2.5,0,.2,0,.5,0,.7,0,.2-.2.4-.4.5-.2.1-.5.1-.7.1h0ZM435.5,107.7c.2,0,.4,0,.5-.1.1-.2.1-.6,0-.8-.1-.2-.3,0-.5,0v1h0Z"/>
      <path id="cr" d="M442.8,106.4c.1,0,.2,0,.3,0,.5,0,.8.2.9.6,0,.4,0,.8,0,1.2h-.5v-1c0-.4-.1-.5-.5-.3v1.4h-.5v-1.8c.2,0,.3-.1.5,0h0Z"/>
      <path id="cs" d="M447.8,107.7c0,.1.1.2.2.3-.3.1-.5.2-.7,0-.1,0-.2,0-.3.1-.4.1-.8-.2-.8-.6,0-.3.3-.5.6-.5.1,0,.2,0,.4,0,0-.3,0-.4-.3-.4-.1,0-.2,0-.3,0,0-.1,0-.2-.1-.3.3-.1.6-.2.9-.1.3,0,.5.3.5.6v.8h0,0ZM447.1,107.4c-.1,0-.3,0-.4,0,0,0,0,.1,0,.2.1.1.3,0,.4,0v-.3h0Z"/>
      <path id="ct" d="M441.8,107.7c0,.1.1.2.2.3-.3.1-.5.2-.7,0,0,0-.2,0-.3.1-.2,0-.4,0-.6-.1-.2-.1-.2-.4-.2-.6,0-.3.3-.4.5-.4.1,0,.3,0,.4,0,0-.3,0-.4-.3-.3-.1,0-.2,0-.4,0,0-.1,0-.2-.1-.3.3-.1.6-.2.9-.1.3.1.5.3.5.6v.8s0,0,0,0h0ZM441.2,107.4c-.1,0-.3,0-.4,0,0,0,0,.1,0,.2.1.1.3,0,.4,0v-.3h0Z"/>
      <path id="cu" d="M429.4,108.1c-.2,0-.4,0-.5.1-.3,0-.5-.2-.6-.5s.1-.5.4-.6c.2,0,.4,0,.6,0,0-.3,0-.4-.3-.3-.1,0-.2,0-.4,0,0-.1,0-.2-.1-.3.3-.1.6-.2.9-.1.3,0,.5.3.5.6v.8c.1,0,.2.2.2.4-.2,0-.5.2-.7,0h0ZM429.3,107.7v-.3c-.1,0-.2,0-.3,0,0,0-.1.1-.1.2,0,.1,0,.2.2.2s.2,0,.3,0h0Z"/>
      <path id="cv" d="M466.1,107.2c0,.8-.6,1.1-1.2.9-.4-.1-.6-.6-.5-1.1.1-.5.5-.8,1-.7.5,0,.8.4.8.9h0ZM464.9,107.6c.1.2.4.2.5,0,.1-.2.1-.5,0-.8,0-.1-.1-.2-.3-.2s-.2,0-.3.2c-.1.3-.1.5,0,.8h0Z"/>
      <path id="cw" d="M438.6,107.4h-1c0,.3.1.4.4.4.2,0,.3,0,.5,0,0,.1,0,.2,0,.3-.3.2-.6.2-.9.2-.3,0-.4-.2-.5-.4-.1-.3-.1-.6,0-.9.2-.4.6-.6,1.1-.4.4.1.5.6.4,1h0ZM438.1,107c0-.2-.1-.3-.3-.3-.1,0-.2,0-.2.3h.5Z"/>
      <path id="cx" d="M432.9,107.4h-1c0,.3.1.4.4.4.2,0,.3,0,.5,0,0,.1,0,.2,0,.3-.3.1-.6.2-.9.2-.3,0-.5-.2-.6-.4-.1-.3-.1-.6,0-.9.1-.4.6-.6,1.1-.5.4.1.6.6.4,1h0ZM431.9,107h.5c0-.3-.1-.3-.3-.3-.2,0-.2.1-.2.3h0Z"/>
      <path id="cy" d="M452.8,107.7c0,.1,0,.2,0,.3-.3.2-.6.2-1,.1-.1,0-.3-.2-.4-.3-.2-.3-.2-.9,0-1.2.2-.3.7-.4,1.1-.2.3.2.5.6.3,1h-1c0,.3.2.4.5.4.1,0,.3,0,.5,0h0ZM451.8,107h.5c0-.2,0-.3-.2-.3s-.2,0-.3.3h0Z"/>
      <path id="cz" d="M459.1,107.7c0,.1,0,.2,0,.3-.3.2-.6.2-.9.2-.2,0-.3-.1-.4-.3-.2-.3-.2-.9,0-1.2.2-.3.7-.4,1.1-.2.3.2.5.6.3,1h-1c0,.3.1.4.4.4s.4,0,.6,0h0ZM458.7,107c0-.2,0-.3-.2-.3s-.2,0-.2.3h.5Z"/>
      <path id="da" d="M460,108.1h-.6c.2-.3.4-.6.7-.9-.2-.3-.4-.6-.6-.9h.6c.1.2.2.3.4.5.1-.2.3-.4.4-.5h.6c-.2.3-.4.6-.6.9.2.3.5.6.7.9h-.6c-.1-.2-.3-.4-.5-.6-.1.2-.3.4-.4.6h0Z"/>
      <path id="db" d="M428.1,107.7v.5h-1.4v-2.4h.5v2h.8Z"/>
      <path id="dc" d="M445.2,106.7h-.7v-.4h1.3c0,.2,0,.4-.1.5-.2.3-.4.6-.7.9h.8v.4h-1.4c0-.2,0-.4.1-.5.2-.3.4-.6.7-.9h0Z"/>
      <path id="dd" d="M433.3,107.7c.4.1,1.1,0,.5-.2-.1,0-.2,0-.3-.1-.2-.1-.3-.3-.3-.5s.2-.4.4-.5c.3,0,.5,0,.8,0,0,.1,0,.2,0,.3-.3,0-1,0-.5.2.1,0,.2,0,.3.1.2,0,.3.2.3.4s-.1.4-.3.5c-.3.1-.6.1-1,0,0-.1,0-.3,0-.4h0Z"/>
      <path id="de" d="M464.1,107.7c0,0,0,.2,0,.3-.2,0-.4.1-.5.1-.5,0-.8-.2-.9-.7h0c0-.9.4-1.3,1.2-1.2,0,0,0,0,.1,0,0,.1,0,.2,0,.3h-.4c-.5.2-.5,1.1,0,1.1.1,0,.2,0,.4,0h0Z"/>
      <path id="df" d="M439.6,106.8v1.3h-.5v-1.8c.1,0,.2,0,.3,0,0,0,.1,0,.1.1l.6-.2c0,.2,0,.3,0,.5-.1,0-.3,0-.5,0h0Z"/>
      <path id="dg" d="M461.8,106.8c0,0-.1,0-.2,0v-.3c.2,0,.5,0,.7,0,0,0,0,0,0,.1v1.6h-.5v-1.3h0Z"/>
      <path id="dh" d="M458.7,106.2h-.4c0-.2.1-.4.2-.6h.5c-.1.2-.2.4-.3.6h0Z"/>
      <path id="di" d="M462,105.6c.2,0,.3.1.3.3,0,.1-.1.3-.3.3s-.3-.1-.3-.3c0-.1.1-.3.3-.3Z"/>
    </g>
    <path id="dj" class="st21" d="M644.3,466c.2,0,.4-.2.4-.4s-.2-.4-.4-.4-.4.2-.4.4.2.4.4.4Z"/>
    <path id="e" class="st15" d="M628.7,89.2c7.6,2.6,13.1,9.7,13.1,18.1s-5.5,15.6-13.1,18.1v-36.3h0Z"/>
    <path id="f" class="st13" d="M616.5,89.2v36.3c-7.7-2.5-13.2-9.7-13.2-18.2s5.4-15.5,13-18.1h.3c0,0,0,0,0,0Z"/>
    <polygon id="g" class="st3" points="628.6 125.5 616.4 125.5 616.4 89 628.6 89 628.6 125.5"/>
    <polygon id="h" class="st3" points="636.2 115 636.2 99.7 632.2 99.7 632.2 115 636.2 115"/>
    <path id="i" class="st3" d="M606.3,99.7v15.3h4v-6.1h2.5c2.2-.4,2.4-2.3,2.4-2.3v-4.5c-.1-2.1-2.4-2.5-2.4-2.5h-6.5,0ZM610.5,102.1v3.5c1.2,0,1.3-.7,1.3-.7v-1.6c0-1.2-1.3-1.1-1.3-1.1h0Z"/>
    <path id="j" class="st0" d="M606.3,99.7v15.3h4v-6.1h2.5c2.2-.4,2.4-2.3,2.4-2.3v-4.5c-.1-2.1-2.4-2.5-2.4-2.5h-6.5M610.5,102.1v3.5c1.2,0,1.3-.7,1.3-.7v-1.6c0-1.2-1.3-1.1-1.3-1.1h0Z"/>
    <path id="k" class="st17" d="M618.1,93.9v15.3h4v-6.5c1.8,0,1.4,1.2,1.4,1.2v5.3h4v-6c.3-1.2-1.2-2-1.2-2,1.2-.7,1.1-2.1,1.1-2.1v-2.7c0-2.6-2.8-2.5-2.8-2.5h-6.6ZM622.2,96.3v3.5c1.2,0,1.3-.7,1.3-.7v-1.6c0-1.2-1.3-1.1-1.3-1.1h0Z"/>
    <path id="l" class="st0" d="M618.1,93.9v15.3h4v-6.5c1.8,0,1.4,1.2,1.4,1.2v5.3h4v-6c.3-1.2-1.2-2-1.2-2,1.2-.7,1.1-2.1,1.1-2.1v-2.7c0-2.6-2.8-2.5-2.8-2.5h-6.5M622.2,96.3v3.5c1.2,0,1.3-.7,1.3-.7v-1.6c0-1.2-1.3-1.1-1.3-1.1h0Z"/>
    <g class="st10">
      <text class="st6" transform="translate(648.2 124.5)"><tspan x="0" y="0">13</tspan></text>
    </g>
    <g class="st10">
      <text class="st6" transform="translate(464.4 492.4)"><tspan x="0" y="0">334</tspan></text>
    </g>
    <path id="dx" class="st22" d="M428.6,465.2h21.4c1.5,0,2.7,1.2,2.7,2.7v21.4c0,1.5-1.2,2.7-2.7,2.7h-21.4c-1.5,0-2.7-1.2-2.7-2.7v-21.4c0-1.5,1.2-2.7,2.7-2.7h0Z"/>
    <path id="dy" class="st12" d="M439.8,470.3h2.6l-2.1,1.6.8,2.7-2.2-1.6-2.2,1.6.8-2.6-2.1-1.6h2.6l.9-2.7.8,2.7h0ZM439.2,476.3h10.5v3.2h-3.6v10h-3.5v-10h-3.5v-3.2h0ZM435.1,476.2c2.2.3,3.2,1.8,3.2,4.2,0,2.3-1.5,4-3.4,4.2h-2.7v5h-3.4v-13.3c2.1,0,4.2,0,6.3,0h0ZM432.3,478.9v3h1.2c1.2,0,1.5-.8,1.5-1.4,0-.6-.3-1.5-1.6-1.6h-1.1Z"/>
    <path id="dz" class="st1" d="M425.9,465.4h26.4v26.6h-26.4v-26.6h0Z"/>
    <g id="ex">
      <path id="ey" class="st30" d="M428.3,465.5h21.7c1.5,0,2.7,1.2,2.7,2.7v21.7c0,1.5-1.2,2.7-2.7,2.7h-21.7c-1.5,0-2.7-1.2-2.7-2.7v-21.7c0-1.5,1.2-2.7,2.7-2.7h0Z"/>
    </g>
    <g id="ez">
      <path id="fa" class="st27" d="M428.7,479.8v-2.7c0-.4-.2-.6-.6-.5-.1,0-.3,0-.4,0v3.2h-1.2v-4.1c.3,0,.5,0,.8-.1,0,0,.2.2.2.3.3-.2.7-.3,1-.3.3,0,.7,0,1,.3.6-.3,1.1-.3,1.7-.2.5,0,.8.4.8.9,0,.1,0,.3,0,.4v2.7h0c0,.1-1.2.1-1.2.1v-2.7c0,0,0-.2,0-.3,0-.2-.1-.2-.3-.2s-.4,0-.6,0v3.2h-1.2Z"/>
      <path id="fb" class="st27" d="M443.7,475.7c.3,0,.6,0,.8,0,0,0,.2.2.2.2.3,0,.5-.2.8-.2.5,0,1,0,1.3.4.3.2.4.6.5.9,0,0,0,.2,0,.3v2.5h-1.2v-2.6c0-.3,0-.6-.3-.6-.3,0-.6,0-.9,0v3.2h-1.2v-4.1h0Z"/>
      <path id="fc" class="st27" d="M448.5,476.8c0-.2-.2-.5-.3-.7,0,0,0,0,0,0,.4-.2.8-.3,1.2-.4.5,0,1,0,1.4.4.3.2.4.5.4.9v2c.1,0,.2,0,.3,0,0,.2,0,.4.2.7-.2.1-.5.2-.7.3-.4,0-.7,0-.9-.3-.3.1-.5.3-.8.3-.5,0-.9,0-1.3-.5-.3-.4-.4-.8-.2-1.2.2-.5.6-.7,1.1-.8.3,0,.5,0,.8,0,0,0,.2,0,.3,0,0-.2,0-.4,0-.6,0-.2-.3-.3-.5-.3-.4,0-.7.2-1,.2h0ZM450.1,478.2h-.7c-.2,0-.4.2-.4.4,0,.2.2.4.4.4.2,0,.4,0,.7,0v-.7h0Z"/>
      <path id="fd" class="st27" d="M434.7,479.9c-1,0-1.8-.6-2-1.6,0-.4,0-.8,0-1.3.3-1,1.2-1.5,2.1-1.3,1.1.1,1.6.9,1.7,1.8,0,.3,0,.7,0,1-.2.9-1,1.5-1.9,1.5h0ZM435.5,477.8c0-.3,0-.6-.2-.9-.3-.5-.9-.5-1.2,0,0,0,0,.2-.1.3,0,.3-.1.7,0,1.1,0,.2,0,.3.2.5s.3.3.6.3.5-.2.6-.4c.1-.3.2-.6.2-.8h0Z"/>
      <path id="fe" class="st27" d="M443.1,478.1c-.8,0-1.5,0-2.3,0,0,.6.4,1,1,.9.4,0,.8-.1,1.2-.2,0,.2,0,.5,0,.7-.4.2-.7.3-1.1.3-.3,0-.6,0-.9,0-.6-.1-1-.5-1.2-1-.3-.7-.3-1.4,0-2.2.3-.8,1.1-1.1,1.9-1.1.1,0,.2,0,.4,0,.6.2,1,.6,1.1,1.2,0,.4.1.8,0,1.2h0ZM442.1,477.3c0-.2,0-.4-.2-.6-.2-.2-.7-.2-.8,0-.1.2-.2.3-.2.6h1.2Z"/>
      <path id="ff" class="st27" d="M438.5,479.8h-1.2v-4.1c.3,0,.5,0,.8,0,0,.1.2.2.2.3.5-.3.8-.4,1.3-.5,0,.4,0,.8-.2,1.1-.3,0-.7,0-1,.1v3h0Z"/>
      <path id="fg" d="M445.6,481.2c0,.3-.2.7-.3,1h-.4c0-.3-.2-.7-.3-1h0c0,.3,0,.7,0,1h-.4c0-.5,0-1,0-1.6h.6c0,.4.2.7.3,1.1h0c0-.4.2-.7.3-1.1h.6c0,.5,0,1,0,1.6h-.4c0-.3,0-.7,0-1h0Z"/>
      <path id="fh" d="M441.6,481.1v-.6h.3v1.7c-.1,0-.2,0-.3,0-.6.2-.9-.3-.7-.8,0-.1.3-.3.6-.3h.1s0,0,0,0ZM441.6,481.9v-.6c-.3,0-.4,0-.4.2h0c0,.4,0,.4.4.4h0Z"/>
      <path id="fi" d="M432.2,482.3v.5h-.3v-1.6c0,0,.2,0,.3,0,.4-.2.7,0,.8.3,0,.1,0,.3,0,.4,0,.1-.1.2-.3.3-.1,0-.3,0-.5,0h0ZM432.2,482c.1,0,.2,0,.3,0,0-.1,0-.4,0-.5,0,0-.2,0-.3,0v.6h0Z"/>
      <path id="fj" d="M436.8,481.1c0,0,.1,0,.2,0,.3,0,.5.1.5.4,0,.2,0,.5,0,.8h-.3v-.7c0-.2,0-.3-.3-.2v.9h-.3v-1.1c.1,0,.2,0,.3,0h0Z"/>
      <path id="fk" d="M440,481.9c0,0,0,.1.1.2-.2,0-.3.2-.5,0,0,0-.1,0-.2,0-.3,0-.5-.1-.5-.4,0-.2.2-.3.4-.3h.2c0-.2,0-.3-.2-.2,0,0-.1,0-.2,0,0,0,0-.1,0-.2.2,0,.4-.2.6,0,.2,0,.3.2.3.4v.5h0ZM439.6,481.8c0,0-.2,0-.3,0,0,0,0,0,0,.1,0,0,.2,0,.2,0v-.2h0Z"/>
      <path id="fl" d="M436.2,481.9c0,0,0,.1.1.2-.2,0-.3.2-.5,0,0,0-.1,0-.2,0-.1,0-.3,0-.4,0-.1,0-.2-.2,0-.4,0-.2.2-.2.3-.2h.3c0-.2,0-.2-.2-.2,0,0-.1,0-.2,0,0,0,0-.1,0-.2.2,0,.4-.2.6,0,.2,0,.3.2.3.4v.5h0,0ZM435.8,481.8c0,0-.2,0-.3,0,0,0,0,0,0,.1,0,0,.2,0,.3,0v-.2h0Z"/>
      <path id="fm" d="M428.2,482.2c-.1,0-.2,0-.3,0-.2,0-.3-.1-.4-.3s0-.3.3-.4c.1,0,.2,0,.4,0,0-.2,0-.2-.2-.2,0,0-.1,0-.2,0,0,0,0-.1,0-.2.2,0,.4-.2.6,0,.2,0,.3.2.3.4v.5c0,0,.1.1.1.2-.2,0-.3.1-.4,0h0ZM428.2,482v-.2c0,0-.1,0-.2,0,0,0,0,0,0,.1,0,0,0,.1.1.1s.1,0,.2,0h0Z"/>
      <path id="fn" d="M451.7,481.6c0,.5-.4.7-.8.6-.3,0-.4-.4-.3-.7,0-.3.3-.5.6-.5.3,0,.5.3.5.6h0ZM451,481.9c0,.1.3.1.3,0,0-.2,0-.3,0-.5,0,0,0-.1-.2-.1s-.2,0-.2.1c0,.2,0,.3,0,.5h0Z"/>
      <path id="fo" d="M434.1,481.7h-.6c0,.2,0,.3.3.3s.2,0,.3,0c0,0,0,.1,0,.2-.2.1-.4.1-.6.1-.2,0-.3-.1-.3-.3,0-.2,0-.4,0-.6,0-.3.4-.4.7-.3.2,0,.3.4.2.7h0ZM433.8,481.5c0-.2,0-.2-.2-.2,0,0-.1,0-.1.2h.3Z"/>
      <path id="fp" d="M430.5,481.7h-.6c0,.2,0,.3.2.3s.2,0,.3,0c0,0,0,.1,0,.2-.2,0-.4.1-.6.1-.2,0-.3-.1-.4-.3,0-.2,0-.4,0-.6,0-.3.4-.4.7-.3.2,0,.4.4.3.7h0ZM429.8,481.5h.3c0-.2,0-.2-.2-.2-.1,0-.1,0-.2.2Z"/>
      <path id="fq" d="M443.2,481.9c0,0,0,.1,0,.2-.2.1-.4.2-.6,0,0,0-.2,0-.3-.2-.2-.2-.2-.6,0-.8.1-.2.5-.3.7-.2.2.1.3.4.2.6h-.6c0,.2,0,.3.3.3,0,0,.2,0,.3,0h0ZM442.6,481.5h.3c0-.2,0-.2-.2-.2s-.1,0-.2.2Z"/>
      <path id="fr" d="M447.3,481.9c0,0,0,.1,0,.2-.2.1-.4.1-.6,0-.1,0-.2,0-.3-.2-.1-.2-.2-.6,0-.8.1-.2.5-.3.7-.2.2.1.3.4.2.6h-.6c0,.2,0,.3.2.3s.2,0,.4,0h0ZM447,481.5c0-.2,0-.2-.2-.2s-.1,0-.2.2h.3Z"/>
      <path id="fs" d="M447.8,482.2h-.4c.2-.2.3-.4.4-.6-.1-.2-.3-.4-.4-.6h.4c0,0,.2.2.2.3,0-.1.2-.2.2-.3h.4c-.1.2-.3.3-.4.5.2.2.3.4.5.6h-.4c0-.1-.2-.2-.3-.4,0,.1-.2.3-.3.4h0Z"/>
      <path id="ft" d="M427.4,481.9v.3h-.9v-1.6h.3v1.3h.5Z"/>
      <path id="fu" d="M438.4,481.3h-.5v-.2h.8c0,.1,0,.2,0,.3-.2.2-.3.4-.4.6h.5v.2h-.9c0-.1,0-.2,0-.3.2-.2.3-.4.4-.6h0Z"/>
      <path id="fv" d="M430.8,481.9c.2,0,.7,0,.3-.1,0,0-.2,0-.2,0-.1,0-.2-.2-.2-.3s0-.3.3-.3c.2,0,.3,0,.5,0,0,0,0,.1,0,.2-.2,0-.6,0-.3.2,0,0,.2,0,.2,0,.1,0,.2.1.2.3s0,.3-.2.3c-.2,0-.4,0-.6,0,0,0,0-.2,0-.2h0Z"/>
      <path id="fw" d="M450.4,482c0,0,0,.1,0,.2-.1,0-.2,0-.3,0-.3,0-.5-.1-.5-.4h0c0-.6.3-.8.8-.7,0,0,0,0,0,0,0,0,0,.1,0,.2h-.3c-.3,0-.3.7,0,.7s.2,0,.3,0h0Z"/>
      <path id="fx" d="M434.8,481.4v.8h-.3v-1.1c0,0,.1,0,.2,0,0,0,0,0,0,0,.1,0,.2,0,.4-.1,0,.1,0,.2,0,.3,0,0-.2,0-.3,0h0Z"/>
      <path id="fy" d="M449,481.4c0,0,0,0-.1,0v-.2c.2,0,.3,0,.5,0,0,0,0,0,0,0v1h-.3v-.8h0Z"/>
      <path id="fz" d="M447,481h-.3c0-.1,0-.2.1-.4h.3c0,.1-.1.2-.2.4h0Z"/>
      <path id="ga" d="M449.1,480.6c0,0,.2,0,.2.2,0,0,0,.2-.2.2s-.2,0-.2-.2c0,0,0-.2.2-.2Z"/>
    </g>
    <g>
      <path id="ea" class="st21" d="M732.2,468.2c.2,0,.4-.2.4-.4s-.2-.4-.4-.4-.4.2-.4.4.2.4.4.4Z"/>
      <g class="st10">
        <text class="st6" transform="translate(749.9 494)"><tspan x="0" y="0">7</tspan></text>
      </g>
      <path id="eb" class="st24" d="M718.9,465.2h23.3c1.6,0,2.9,1.3,2.9,2.9v23.2c0,1.6-1.3,2.9-2.9,2.9h-23.3c-1.6,0-2.9-1.3-2.9-2.9v-23.2c0-1.6,1.3-2.9,2.9-2.9Z"/>
      <polygon id="ec" class="st3" points="718.9 493.1 717.3 485.9 719.3 485.9 720 490.5 720.7 485.9 722.7 485.9 721 493.1 718.9 493.1"/>
      <polygon id="ed" class="st3" points="724.9 491.1 727.4 491.1 727.4 493.1 723.1 493.1 723.1 485.9 727.4 485.9 727.4 487.8 724.9 487.8 724.9 488.6 727.4 488.6 727.4 490.4 724.9 490.4 724.9 491.1"/>
      <path id="ee" class="st3" d="M730.5,485.9c.3,0,.6,0,.7,0,2,.1,2,3.1.8,3.9,0,0-.2,0-.3.1.6.1,1,1.4,1.5,3.2h-2.1c-.2-1-.4-1.7-.6-2.1v-1.9c0,0,.1,0,.2,0,.3,0,.5-1.2,0-1.4,0,0-.1,0-.2,0v-1.8h0,0ZM728.1,493.1v-7.2h2.4v1.8c0,0-.2,0-.3,0h-.2v1.4h.5v1.9c0,0,0-.1-.1-.2h-.4v2.3h-1.8Z"/>
      <path id="ef" class="st3" d="M736.2,485.9c2.3,0,2.7,1.6,2.7,3.5,0,1.6-.3,3.3-2.2,3.7-.2,0-.3,0-.4,0v-2.1c.7-.2.8-.9.8-1.6s-.2-1.2-.8-1.4v-2.1h0s0,0,0,0ZM733.6,485.9h2.7v2.1c-.2,0-.3,0-.6,0h-.2v3.1h.2c.2,0,.4,0,.5,0v2.1s0,0-.1,0h-2.5v-7.1h0Z"/>
      <polygon id="eg" class="st3" points="741.3 491.1 743.7 491.1 743.7 493.1 739.4 493.1 739.4 485.9 743.7 485.9 743.7 487.8 741.3 487.8 741.3 488.6 743.7 488.6 743.7 490.4 741.3 490.4 741.3 491.1"/>
      <path id="eh" class="st14" d="M719.3,479.2c2.2-.2,4.4-.5,6.5-.8l-1.1-2.1c-1,0-4.6,1.8-5.5,3h0Z"/>
      <path id="ei" class="st18" d="M719.4,479.3c1.4,1.3,5.1,1.9,7.8,1.6l-1.2-2.5c-2.2.3-4.4.6-6.5.9h0Z"/>
      <path id="ej" class="st0" d="M730.4,481.2l.3-.8c-.2,0-.4.1-.6.2l.3.6h0Z"/>
      <path id="ek" class="st0" d="M730.7,480.4c-.2,0-.4.1-.6.2l.3.6.3-.8h0Z"/>
      <path id="el" class="st3" d="M736.2,475.6l2-4.1-3.3-.8-1.2,2.9-.9,2h0c1.1,0,2.3,0,3.4,0h0Z"/>
      <path id="em" class="st21" d="M732.1,475.5c.3-1,.7-2,.5-3.2,0-.5-.1-.7-.2-.9-.1-.1-.2-.3-.2-.5,0-.2,0-.4-.1-.5,0-.2,0-.4,0-.5,0-.3.2-.6.3-.9.2,0,.6,0,.7-.1,1.4-.2,3.2,0,4.6.5,0,0,.2.1.2.2,0,.1.2.1.2-.1,0-1.3-.9-2.4-2.1-2.9-.6-.2-1.4-.4-2.1-.4-.7,0-1.6,0-1.9.2-1-.1-1.8.4-2.2,1.3-.6,1.3-.8,2.2-.7,2.8-1.3,1.5-.9,3.2-.2,4.9,1.1,0,2.3-.1,3.4,0h0Z"/>
      <path id="en" class="st14" d="M736.2,475.6c-1.2,0-2.3,0-3.4,0h0c-.2,0-.5,0-.7,0-1.2,0-2.3,0-3.4,0-.2,0-.5,0-.7,0l1,2.3c2.6-.4,5-.8,7.2-1.3,2.1-.4,4-1,5.6-1.6-1.9.4-3.8.6-5.6.7h0Z"/>
      <path id="eo" class="st0" d="M730.7,480.4c-.2,0-.4.1-.6.2l.3.6.3-.8h0Z"/>
      <path id="ep" class="st18" d="M733.5,477.2c-1.5.2-3,.5-4.5.8h0c.4.9.8,1.7,1.1,2.6,0,0,0,0,0,0,.2,0,.3-.1.5-.2,1.3-.4,2.5-.8,3.8-1.3,2.5-1,4.9-2.2,7.3-4.1-2.6,1-5.4,1.8-8.3,2.3h0Z"/>
      <path id="eq" class="st3" d="M728.9,478h0c0,0-1-2.4-1-2.4l-2.1-4.9-3.3.8,2.3,4.7,1.1,2.1h0c0,.1,1.2,2.6,1.2,2.6l1.7,3.5h3l1.8-3.6.9-1.8c-1.2.5-2.5.9-3.8,1.3l-.3.8-.2-.6-1.2-2.6h0Z"/>
      <path id="er" class="st3" d="M719.4,479.1c5.2-.6,10.6-1.4,16.3-2.4,1.8-.4,3.5-.8,4.8-1.2-2.5,1-5.8,1.7-9.9,2.3-3.2.5-6.9,1-11.1,1.5-.1,0-.1-.2,0-.2h0Z"/>
      <path id="es" class="st20" d="M735.9,468c.1-.1.5-.6.5-.8,1,.7,1.4,1.5,1.3,2.3-.4-.7-1-1.2-1.9-1.5h0Z"/>
      <path id="et" class="st23" d="M732,466.6c.4-.2,1-.2,1.6-.2,1.1,0,2.3.3,2.8.7-.1.4-.3.6-.6.8-1.3-.4-2.5-.4-3.7-.3,0-.3,0-.7-.1-1h0Z"/>
      <path id="eu" class="st19" d="M732.1,467.8s0,0,1.1,0c1,0,1.8,0,2.7.4.9.4,1.5.8,1.8,1.4-.8-.3-1.8-.5-2.7-.5-.7,0-1.4,0-2.2,0-.1,0,0,.2-.7,0-.2-.1-.3-.4-.2-.8,0-.2,0-.3.1-.5h0Z"/>
      <path id="ev" class="st23" d="M731.4,466.8c.2-.1.3-.2.4-.2s0,.1.1.2c0,.3,0,.7,0,1.1-.1.5-.2.9,0,1.2,0,0,0,.1,0,.2,0,.2-.4.8-.2,1.2.2.6.2.9,0,1.1,0,.4-.4.7-1.1.7-.5,0-1.1-.2-1.3-1-.2-.7.1-1.6.6-2.6.5-.9.9-1.6,1.2-1.9h0Z"/>
      <path id="ew" class="st21" d="M731.4,468.1c.2,0,.4-.2.4-.4s-.2-.4-.4-.4-.4.2-.4.4.2.4.4.4Z"/>
    </g>
    <g>
      <g class="st10">
        <text class="st2" transform="translate(823.5 492.2)"><tspan x="0" y="0">6</tspan></text>
      </g>
      <path id="dp" class="st15" d="M803.6,465.2c6,2,10.3,7.6,10.3,14.2s-4.3,12.2-10.3,14.2v-28.5h0Z"/>
      <path id="dq" class="st13" d="M794,465.2v28.5c-6-2-10.4-7.6-10.4-14.3s4.2-12.2,10.2-14.2h.2Z"/>
      <polygon id="dr" class="st3" points="803.6 493.8 794 493.8 794 465.1 803.6 465.1 803.6 493.8"/>
      <polygon id="ds" class="st3" points="809.5 485.6 809.5 473.5 806.4 473.5 806.4 485.6 809.5 485.6"/>
      <path id="dt" class="st3" d="M786,473.5v12h3.1v-4.8h2c1.7-.3,1.9-1.8,1.9-1.8v-3.5c-.1-1.7-1.9-2-1.9-2h-5.2ZM789.3,475.4v2.7c1,0,1-.6,1-.6v-1.3c0-1-1-.9-1-.9h0Z"/>
      <path id="du" class="st0" d="M786,473.5v12h3.1v-4.8h2c1.7-.3,1.9-1.8,1.9-1.8v-3.5c-.1-1.7-1.9-2-1.9-2h-5.1M789.3,475.4v2.7c1,0,1-.6,1-.6v-1.3c0-1-1-.9-1-.9h0Z"/>
      <path id="dv" class="st17" d="M795.3,468.9v12h3.1v-5.1c1.4,0,1.1,1,1.1,1v4.1h3.2v-4.7c.2-1-1-1.6-1-1.6,1-.5.9-1.7.9-1.7v-2.1c0-2-2.2-2-2.2-2h-5.1,0ZM798.5,470.9v2.7c1,0,1-.6,1-.6v-1.3c0-1-1-.9-1-.9h0Z"/>
      <path id="dw" class="st0" d="M795.3,468.9v12h3.1v-5.1c1.4,0,1.1,1,1.1,1v4.1h3.2v-4.7c.2-1-1-1.6-1-1.6,1-.5.9-1.7.9-1.7v-2.1c0-2-2.2-2-2.2-2h-5.1M798.5,470.9v2.7c1,0,1-.6,1-.6v-1.3c0-1-1-.9-1-.9h0Z"/>
    </g>
    <g>
      <path class="st31" d="M661.7,493.7h-21.9c-1.5,0-2.7-1.2-2.7-2.7v-21.9c0-1.5,1.2-2.7,2.7-2.7h21.9c1.5,0,2.7,1.2,2.7,2.7v21.9c0,1.5-1.2,2.7-2.7,2.7Z"/>
      <path class="st30" d="M649.6,479.2c.2-.2.5-.3.8-.4.1,0,.3-.1.4-.2.1,0,.3-.1.4-.2.1,0,.3-.2.4-.2,0,0,.1,0,.2-.2,0,0,0,0,0,0h0c.2-.3.3-.6.4-.9,0,0,0-.1,0-.2,0,0,0-.2,0-.2v-.2c0,0,0-.1,0-.2,0,0,0-.2,0-.2,0,0,0,0,0,0s-.2.1-.3.2c0,0,0,.1,0,.1v.4s0,.1,0,.2,0,.1,0,.2h0c0,.1,0,.2,0,.2h0c0,0,0,.1,0,.2,0,0,0,0,0,.2,0,0,0,0,0,0,0,0,0,0,0,0h0c0-.1-.2-.6-.2-.9,0-.5.8-.9.9-.9,0,0,.1.2.1.2,0,0,.3-.6,0-.7,0,0-.2,0-.3,0,0-.1,0-.2-.1-.3,0-.2-.2-.4-.3-.5,0,0,0,0-.2-.1,0,0,0,0,0,0,0,0,0,0,0,0h-.1c-.1,0-.2,0-.3.1-.2.1-.3.2-.4.3,0,0,0,0,0,0,0,0,0,0-.1.1,0,0,0,0,0,0-.1.1-.3,0-.3,0-.2-.2-.5-.6-.6-.6-.1,0-.3.2-.2.4,0,0,0,0,0,0s0-.1,0-.1c0,0,0,.2.1.3,0,0-.1,0-.2,0,0,0,0,0,0,0,0,0,0,0,0,.1,0,0,0,0,.2.1,0,0,.3,0,.5.2.3.2.5,0,.5,0,0,0,0,0,0,0,0,0,.2-.1.3-.2,0,0,.2-.2.3-.2,0,0,.1,0,.2,0h0s0,0,0,0c0,.1.2.3.2.5,0,0,0,.2,0,.2,0,0,0,0,0,0,0-.1-.1-.2-.3-.2-.1,0-.3.2-.6.4-.3.2-.6.2-.6.2,0,.2.2.2.2.2-.3.2-.4.6-.4.6h0c-.1.3-.3.6-.3,1.1-.1,0-.3,0-.3,0-.4-.1-.6-.2-.6-.2,0,0-1-.4-.3-1.3,0,0,.5-.5-.5-1,0,0-.7-.4-1.6-.4s-3.4-.1-4.8-.3c0,0,1.8,1.7,2.4,2.2,0,0,.3.3.7.2,0,0,.6,0,1.4-.2,0,0-.5.4-1,.5,0,0,.5,1,1.3,1.5,0,0,.2.1.5,0,0,0,.5,0,1-.3,0,0-.2.3-.9.5,0,0,.7.6,1.8.8,0,0,0,.4.3.6,0-.2,0-.3.1-.5.1-.2.3-.4.5-.6h0Z"/>
      <path class="st30" d="M655.3,474.6c-.9,0-1.6.4-1.6.4-1,.5-.5,1-.5,1,.6.9-.3,1.3-.3,1.3,0,0-.2,0-.6.2,0,.2-.2.4-.3.5,0,0,0,.1-.2.2,0,0,0,0,0,0h0c-.1.1-.3.2-.4.3-.1,0-.3.1-.4.2l-.4.2c-.2,0-.5.2-.7.4h0c-.1,0-.2.2-.3.2,1.1,0,1.4.7,1.4.7,0,0,.4-1,2-.6.5-.1,1.3-.3,1.9-.8-.7-.2-.9-.5-.9-.5.5.2,1,.3,1,.3.2,0,.5,0,.5,0,.7-.4,1.3-1.5,1.3-1.5-.5,0-1-.5-1-.5.8.2,1.4.2,1.4.2.4,0,.7-.2.7-.2.6-.5,2.4-2.2,2.4-2.2-1.4.2-3.9.2-4.8.3h0Z"/>
      <path class="st30" d="M645.1,481.2v1.4s0,0,0,0c0,0,0,0,0,0h-.3s0,0,0,0c0,0,0,0,0,0v-.7s0,0,0,0,0,0,0,0l-.3.6s0,0,0,0,0,0,0,0l-.3-.6s0,0,0,0,0,0,0,0v.7s0,0,0,0c0,0,0,0,0,0h-.3s0,0,0,0c0,0,0,0,0,0v-1.4s0,0,0,0c0,0,0,0,0,0h.3s0,0,0,0c0,0,0,0,0,0l.4.6s0,0,0,0,0,0,0,0l.4-.6s0,0,0,0c0,0,0,0,0,0h.3s0,0,0,0c0,0,0,0,0,0h0Z"/>
      <path class="st30" d="M645.4,481.9c0-.1,0-.2,0-.3,0,0,0-.2.2-.2s.2-.1.2-.2.2,0,.3,0,.2,0,.3,0c0,0,.2,0,.2.2s.1.2.2.2,0,.2,0,.3,0,.2,0,.3c0,0,0,.2-.2.2s-.2.1-.2.2-.2,0-.3,0-.2,0-.3,0c0,0-.2,0-.2-.2s-.1-.2-.2-.2c0,0,0-.2,0-.3ZM645.8,481.9s0,0,0,.2,0,0,0,.1c0,0,0,0,.1,0,0,0,0,0,.1,0s0,0,.1,0,0,0,.1,0c0,0,0,0,0-.1,0,0,0,0,0-.2s0,0,0-.2c0,0,0,0,0-.1,0,0,0,0-.1,0,0,0,0,0-.1,0s0,0-.1,0,0,0-.1,0c0,0,0,0,0,.1,0,0,0,0,0,.2Z"/>
      <path class="st30" d="M647.5,482.6l-.6-1.4h0s0,0,0,0h.3s0,0,0,0,0,0,0,0l.4.8s0,0,0,0,0,0,0,0l.4-.8h0s0,0,0,0h.3s0,0,0,0h0s-.6,1.4-.6,1.4h0s0,0,0,0h-.3s0,0,0,0c0,0,0,0,0,0h0Z"/>
      <path class="st30" d="M649.1,482.7h-.3s0,0,0,0c0,0,0,0,0,0v-1.4s0,0,0,0c0,0,0,0,0,0h.3s0,0,0,0c0,0,0,0,0,0v1.4s0,0,0,0c0,0,0,0,0,0Z"/>
      <path class="st30" d="M651.1,481.2v1.4s0,0,0,0c0,0,0,0,0,0h-.3s0,0,0,0c0,0,0,0,0,0v-.7s0,0,0,0,0,0,0,0l-.3.6s0,0,0,0,0,0,0,0l-.3-.6s0,0,0,0c0,0,0,0,0,0v.7s0,0,0,0c0,0,0,0,0,0h-.3s0,0,0,0c0,0,0,0,0,0v-1.4s0,0,0,0c0,0,0,0,0,0h.3s0,0,0,0c0,0,0,0,0,0l.4.6s0,0,0,0,0,0,0,0l.4-.6s0,0,0,0c0,0,0,0,0,0h.3s0,0,0,0c0,0,0,0,0,0h0Z"/>
      <path class="st30" d="M651.9,482.7h-.3s0,0,0,0c0,0,0,0,0,0v-1.4s0,0,0,0c0,0,0,0,0,0h.3s0,0,0,0c0,0,0,0,0,0v1.4s0,0,0,0c0,0,0,0,0,0Z"/>
      <path class="st30" d="M652.7,481.6h0c0,0,0,.1,0,.1,0,0,0,0,0,0h.5s0,0,0,0c0,0,0,0,0,0v.3s0,0,0,0c0,0,0,0,0,0h-.5s0,0,0,0c0,0,0,0,0,0h0c0,0,0,.1,0,.1,0,0,0,0,0,0h.6s0,0,0,0c0,0,0,0,0,0v.3s0,0,0,0c0,0,0,0,0,0h-1s0,0,0,0c0,0,0,0,0,0v-1.4s0,0,0,0c0,0,0,0,0,0h1s0,0,0,0c0,0,0,0,0,0v.3s0,0,0,0c0,0,0,0,0,0h-.6s0,0,0,0c0,0,0,0,0,0h0Z"/>
      <path class="st30" d="M655.1,481.2v1.4s0,0,0,0c0,0,0,0,0,0h-.3s0,0,0,0c0,0,0,0,0,0l-.5-.8s0,0,0,0c0,0,0,0,0,0v.7s0,0,0,0c0,0,0,0,0,0h-.3s0,0,0,0c0,0,0,0,0,0v-1.4s0,0,0,0c0,0,0,0,0,0h.3s0,0,0,0c0,0,0,0,0,0l.5.8s0,0,0,0c0,0,0,0,0,0v-.7s0,0,0,0c0,0,0,0,0,0h.3s0,0,0,0c0,0,0,0,0,0Z"/>
      <path class="st30" d="M656.5,481.6h-.3s0,0,0,0c0,0,0,0,0,0v1s0,0,0,0c0,0,0,0,0,0h-.3s0,0,0,0c0,0,0,0,0,0v-1s0,0,0,0c0,0,0,0,0,0h-.3s0,0,0,0c0,0,0,0,0,0v-.3s0,0,0,0c0,0,0,0,0,0h1.1s0,0,0,0c0,0,0,0,0,0v.3s0,0,0,0c0,0,0,0,0,0h0Z"/>
      <path class="st30" d="M656.6,481.9c0-.1,0-.2,0-.3,0,0,0-.2.2-.2s.2-.1.2-.2.2,0,.3,0,.2,0,.3,0c0,0,.2,0,.2.2s.1.2.2.2,0,.2,0,.3,0,.2,0,.3c0,0,0,.2-.2.2s-.2.1-.2.2-.2,0-.3,0-.2,0-.3,0c0,0-.2,0-.2-.2s-.1-.2-.2-.2c0,0,0-.2,0-.3ZM657,481.9s0,0,0,.2,0,0,0,.1,0,0,.1,0c0,0,0,0,.1,0s0,0,.1,0c0,0,0,0,.1,0s0,0,0-.1,0,0,0-.2,0,0,0-.2c0,0,0,0,0-.1s0,0-.1,0,0,0-.1,0,0,0-.1,0c0,0,0,0-.1,0s0,0,0,.1c0,0,0,0,0,.2Z"/>
      <path class="st30" d="M644.1,484.7c0,0-.1.2-.2.2s-.1.1-.2.2-.2,0-.3.1-.2,0-.3,0-.3,0-.4,0c-.1,0-.2-.1-.3-.2,0,0-.2-.2-.2-.3s0-.3,0-.4,0-.3,0-.4c0-.1.1-.2.2-.3s.2-.2.3-.2.3,0,.4,0,.2,0,.3,0,.2,0,.3.1.2.1.2.2.1.2.2.2c0,0,0,0,0,0,0,0,0,0,0,0l-.4.2h0s0,0,0,0c0,0-.1-.2-.2-.2,0,0-.2,0-.3,0s-.1,0-.2,0c0,0-.1,0-.2.1s0,0-.1.2c0,0,0,.1,0,.2s0,.1,0,.2,0,.1.1.2,0,0,.2.1c0,0,.1,0,.2,0,0,0,.2,0,.3,0s.1-.1.2-.2c0,0,0,0,0,0h0l.4.2s0,0,0,0c0,0,0,0,0,0h0Z"/>
      <path class="st30" d="M644.7,485.3h-.4s0,0,0,0c0,0,0,0,0,0v-1.9s0,0,0,0,0,0,0,0h.4s0,0,0,0,0,0,0,0v1.9s0,0,0,0c0,0,0,0,0,0Z"/>
      <path class="st30" d="M645.2,483.3s0,0,0,0,0,0,0,0h.4s0,0,0,0,0,0,0,0v1.1c0,0,0,.1,0,.2s0,0,0,.1,0,0,.1,0,0,0,0,0,0,0,0,0c0,0,0,0,.1,0,0,0,0,0,0-.1s0-.1,0-.2v-1.1s0,0,0,0,0,0,0,0h.4s0,0,0,0,0,0,0,0v1.1c0,.1,0,.2,0,.3,0,.1,0,.2-.2.3s-.2.1-.3.2-.2,0-.4,0-.2,0-.4,0-.2,0-.3-.2c0,0-.1-.2-.2-.3,0-.1,0-.2,0-.3v-1.1h0Z"/>
      <path class="st30" d="M647.3,485.2v-1.9s0,0,0,0,0,0,0,0h.7c.3,0,.5,0,.7.2,0,0,.2.2.2.3s0,.3,0,.4,0,.3,0,.4c0,.1-.1.2-.2.3,0,0-.2.1-.3.2s-.2,0-.4,0h-.7s0,0,0,0c0,0,0,0,0,0ZM647.9,484.8h.2s0,0,.2,0,0,0,.2,0,0,0,.1-.2,0-.2,0-.2,0-.2,0-.2c0,0,0-.1-.1-.2s0,0-.2,0-.1,0-.2,0h-.2s0,0,0,0,0,0,0,0v.9s0,0,0,0c0,0,0,0,0,0h0Z"/>
      <path class="st30" d="M649.8,483.3s0,0,0,0c0,0,0,0,0,0h.4s0,0,0,0c0,0,0,0,0,0l.8,1.9h0c0,0,0,0,0,0h-.5s0,0,0,0c0,0,0,0,0,0v-.2c0,0,0,0-.1,0,0,0,0,0,0,0h-.6s0,0,0,0c0,0,0,0,0,0v.2c0,0-.1,0-.1,0,0,0,0,0,0,0h-.5s0,0,0,0c0,0,0,0,0,0h0s.8-1.9.8-1.9ZM649.9,484.5h.2s0,0,0,0h0c0,0,0-.1,0-.2,0,0,0-.1,0-.2,0,0,0,0,0,0,0,0,0,0,0,0v.3c-.1,0-.1,0-.1,0,0,0,0,0,0,0h0Z"/>
      <path class="st30" d="M651.3,485.2v-1.9s0,0,0,0,0,0,0,0h.7c.3,0,.5,0,.7.2,0,0,.2.2.2.3s0,.3,0,.4,0,.3,0,.4c0,.1-.1.2-.2.3,0,0-.2.1-.3.2-.1,0-.2,0-.4,0h-.7s0,0,0,0c0,0,0,0,0,0ZM651.9,484.8h.2s0,0,.2,0,0,0,.2,0c0,0,0,0,.1-.2s0-.2,0-.2,0-.2,0-.2c0,0,0-.1-.1-.2s0,0-.2,0-.1,0-.2,0h-.2s0,0,0,0,0,0,0,0v.9s0,0,0,0,0,0,0,0h0Z"/>
      <path class="st30" d="M653.8,483.3s0,0,0,0c0,0,0,0,0,0h.4s0,0,0,0c0,0,0,0,0,0l.8,1.9h0c0,0,0,0,0,0h-.5s0,0,0,0c0,0,0,0,0,0v-.2c0,0,0,0-.1,0,0,0,0,0,0,0h-.6s0,0,0,0c0,0,0,0,0,0v.2c0,0-.1,0-.1,0s0,0,0,0h-.5s0,0,0,0,0,0,0,0h0s.8-1.9.8-1.9h0ZM654,484.5h.2s0,0,0,0h0c0,0,0-.1,0-.2,0,0,0-.1,0-.2,0,0,0,0,0,0,0,0,0,0,0,0v.3c-.1,0-.1,0-.1,0,0,0,0,0,0,0h0Z"/>
      <path class="st30" d="M657.2,483.3v1.9s0,0,0,0,0,0,0,0h-.4s0,0,0,0c0,0,0,0,0,0l-.7-1s0,0,0,0,0,0,0,0v1s0,0,0,0,0,0,0,0h-.4s0,0,0,0,0,0,0,0v-1.9s0,0,0,0,0,0,0,0h.4s0,0,0,0,0,0,0,0l.7,1s0,0,0,0,0,0,0,0v-1s0,0,0,0,0,0,0,0h.4s0,0,0,0c0,0,0,0,0,0h0Z"/>
      <path class="st30" d="M657.4,484.3c0-.1,0-.3,0-.4,0-.1.1-.2.2-.3,0,0,.2-.2.3-.2s.3,0,.4,0,.3,0,.4,0,.2.1.3.2c0,0,.2.2.2.3s0,.3,0,.4,0,.3,0,.4c0,.1-.1.2-.2.3,0,0-.2.2-.3.2s-.3,0-.4,0-.3,0-.4,0-.2-.1-.3-.2c0,0-.2-.2-.2-.3s0-.3,0-.4ZM658,484.3c0,0,0,.1,0,.2s0,.1,0,.2,0,0,.2.1c0,0,.1,0,.2,0s.1,0,.2,0c0,0,.1,0,.2-.1,0,0,0,0,.1-.2,0,0,0-.1,0-.2s0-.1,0-.2,0-.1-.1-.2,0,0-.2-.1-.1,0-.2,0-.1,0-.2,0c0,0-.1,0-.2.1,0,0,0,0,0,.2,0,0,0,.1,0,.2Z"/>
      <g class="st10">
        <text class="st6" transform="translate(670.4 493.1)"><tspan x="0" y="0">39</tspan></text>
      </g>
      <path class="st31" d="M660.9,493.6h-21.9c-1.5,0-2.7-1.2-2.7-2.7v-21.9c0-1.5,1.2-2.7,2.7-2.7h21.9c1.5,0,2.7,1.2,2.7,2.7v21.9c0,1.5-1.2,2.7-2.7,2.7Z"/>
      <path class="st30" d="M648.8,479.1c.2-.2.5-.3.8-.4.1,0,.3-.1.4-.2.1,0,.3-.1.4-.2.1,0,.3-.2.4-.2,0,0,.1,0,.2-.2,0,0,0,0,0,0h0c.2-.3.3-.6.4-.9,0,0,0-.1,0-.2,0,0,0-.2,0-.2v-.2c0,0,0-.1,0-.2,0,0,0-.2,0-.2,0,0,0,0,0,0s-.2.1-.3.2c0,0,0,.1,0,.1v.4s0,.1,0,.2,0,.1,0,.2h0c0,.1,0,.2,0,.2h0c0,0,0,.1,0,.2,0,0,0,0,0,.2,0,0,0,0,0,0,0,0,0,0,0,0h0c0-.1-.2-.6-.2-.9,0-.5.8-.9.9-.9,0,0,.1.2.1.2,0,0,.3-.6,0-.7,0,0-.2,0-.3,0,0-.1,0-.2-.1-.3,0-.2-.2-.4-.3-.5,0,0,0,0-.2-.1,0,0,0,0,0,0,0,0,0,0,0,0h-.1c-.1,0-.2,0-.3.1-.2.1-.3.2-.4.3,0,0,0,0,0,0,0,0,0,0-.1.1,0,0,0,0,0,0-.1.1-.3,0-.3,0-.2-.2-.5-.6-.6-.6-.1,0-.3.2-.2.4,0,0,0,0,0,0s0-.1,0-.1c0,0,0,.2.1.3,0,0-.1,0-.2,0,0,0,0,0,0,0,0,0,0,0,0,.1,0,0,0,0,.2.1,0,0,.3,0,.5.2.3.2.5,0,.5,0,0,0,0,0,0,0,0,0,.2-.1.3-.2,0,0,.2-.2.3-.2,0,0,.1,0,.2,0h0s0,0,0,0c0,.1.2.3.2.5,0,0,0,.2,0,.2,0,0,0,0,0,0,0-.1-.1-.2-.3-.2-.1,0-.3.2-.6.4-.3.2-.6.2-.6.2,0,.2.2.2.2.2-.3.2-.4.6-.4.6h0c-.1.3-.3.6-.3,1.1-.1,0-.3,0-.3,0-.4-.1-.6-.2-.6-.2,0,0-1-.4-.3-1.3,0,0,.5-.5-.5-1,0,0-.7-.4-1.6-.4s-3.4-.1-4.8-.3c0,0,1.8,1.7,2.4,2.2,0,0,.3.3.7.2,0,0,.6,0,1.4-.2,0,0-.5.4-1,.5,0,0,.5,1,1.3,1.5,0,0,.2.1.5,0,0,0,.5,0,1-.3,0,0-.2.3-.9.5,0,0,.7.6,1.8.8,0,0,0,.4.3.6,0-.2,0-.3.1-.5.1-.2.3-.4.5-.6h0Z"/>
      <path class="st30" d="M654.5,474.5c-.9,0-1.6.4-1.6.4-1,.5-.5,1-.5,1,.6.9-.3,1.3-.3,1.3,0,0-.2,0-.6.2,0,.2-.2.4-.3.5,0,0,0,.1-.2.2,0,0,0,0,0,0h0c-.1.1-.3.2-.4.3-.1,0-.3.1-.4.2l-.4.2c-.2,0-.5.2-.7.4h0c-.1,0-.2.2-.3.2,1.1,0,1.4.7,1.4.7,0,0,.4-1,2-.6.5-.1,1.3-.3,1.9-.8-.7-.2-.9-.5-.9-.5.5.2,1,.3,1,.3.2,0,.5,0,.5,0,.7-.4,1.3-1.5,1.3-1.5-.5,0-1-.5-1-.5.8.2,1.4.2,1.4.2.4,0,.7-.2.7-.2.6-.5,2.4-2.2,2.4-2.2-1.4.2-3.9.2-4.8.3h0Z"/>
      <path class="st30" d="M644.3,481.1v1.4s0,0,0,0c0,0,0,0,0,0h-.3s0,0,0,0c0,0,0,0,0,0v-.7s0,0,0,0,0,0,0,0l-.3.6s0,0,0,0,0,0,0,0l-.3-.6s0,0,0,0,0,0,0,0v.7s0,0,0,0c0,0,0,0,0,0h-.3s0,0,0,0c0,0,0,0,0,0v-1.4s0,0,0,0c0,0,0,0,0,0h.3s0,0,0,0c0,0,0,0,0,0l.4.6s0,0,0,0,0,0,0,0l.4-.6s0,0,0,0c0,0,0,0,0,0h.3s0,0,0,0c0,0,0,0,0,0h0Z"/>
      <path class="st30" d="M644.6,481.8c0-.1,0-.2,0-.3,0,0,0-.2.2-.2s.2-.1.2-.2.2,0,.3,0,.2,0,.3,0c0,0,.2,0,.2.2s.1.2.2.2,0,.2,0,.3,0,.2,0,.3c0,0,0,.2-.2.2s-.2.1-.2.2-.2,0-.3,0-.2,0-.3,0c0,0-.2,0-.2-.2s-.1-.2-.2-.2c0,0,0-.2,0-.3ZM645,481.8s0,0,0,.2,0,0,0,.1c0,0,0,0,.1,0,0,0,0,0,.1,0s0,0,.1,0,0,0,.1,0c0,0,0,0,0-.1,0,0,0,0,0-.2s0,0,0-.2c0,0,0,0,0-.1,0,0,0,0-.1,0,0,0,0,0-.1,0s0,0-.1,0,0,0-.1,0c0,0,0,0,0,.1,0,0,0,0,0,.2Z"/>
      <path class="st30" d="M646.8,482.5l-.6-1.4h0s0,0,0,0h.3s0,0,0,0,0,0,0,0l.4.8s0,0,0,0,0,0,0,0l.4-.8h0s0,0,0,0h.3s0,0,0,0h0s-.6,1.4-.6,1.4h0s0,0,0,0h-.3s0,0,0,0c0,0,0,0,0,0h0Z"/>
      <path class="st30" d="M648.3,482.6h-.3s0,0,0,0c0,0,0,0,0,0v-1.4s0,0,0,0c0,0,0,0,0,0h.3s0,0,0,0c0,0,0,0,0,0v1.4s0,0,0,0c0,0,0,0,0,0Z"/>
      <path class="st30" d="M650.4,481.1v1.4s0,0,0,0c0,0,0,0,0,0h-.3s0,0,0,0c0,0,0,0,0,0v-.7s0,0,0,0,0,0,0,0l-.3.6s0,0,0,0,0,0,0,0l-.3-.6s0,0,0,0c0,0,0,0,0,0v.7s0,0,0,0c0,0,0,0,0,0h-.3s0,0,0,0c0,0,0,0,0,0v-1.4s0,0,0,0c0,0,0,0,0,0h.3s0,0,0,0c0,0,0,0,0,0l.4.6s0,0,0,0,0,0,0,0l.4-.6s0,0,0,0c0,0,0,0,0,0h.3s0,0,0,0c0,0,0,0,0,0h0Z"/>
      <path class="st30" d="M651.1,482.6h-.3s0,0,0,0c0,0,0,0,0,0v-1.4s0,0,0,0c0,0,0,0,0,0h.3s0,0,0,0c0,0,0,0,0,0v1.4s0,0,0,0c0,0,0,0,0,0Z"/>
      <path class="st30" d="M651.9,481.5h0c0,0,0,.1,0,.1,0,0,0,0,0,0h.5s0,0,0,0c0,0,0,0,0,0v.3s0,0,0,0c0,0,0,0,0,0h-.5s0,0,0,0c0,0,0,0,0,0h0c0,0,0,.1,0,.1,0,0,0,0,0,0h.6s0,0,0,0c0,0,0,0,0,0v.3s0,0,0,0c0,0,0,0,0,0h-1s0,0,0,0c0,0,0,0,0,0v-1.4s0,0,0,0c0,0,0,0,0,0h1s0,0,0,0c0,0,0,0,0,0v.3s0,0,0,0c0,0,0,0,0,0h-.6s0,0,0,0c0,0,0,0,0,0h0Z"/>
      <path class="st30" d="M654.3,481.1v1.4s0,0,0,0c0,0,0,0,0,0h-.3s0,0,0,0c0,0,0,0,0,0l-.5-.8s0,0,0,0c0,0,0,0,0,0v.7s0,0,0,0c0,0,0,0,0,0h-.3s0,0,0,0c0,0,0,0,0,0v-1.4s0,0,0,0c0,0,0,0,0,0h.3s0,0,0,0c0,0,0,0,0,0l.5.8s0,0,0,0c0,0,0,0,0,0v-.7s0,0,0,0c0,0,0,0,0,0h.3s0,0,0,0c0,0,0,0,0,0Z"/>
      <path class="st30" d="M655.7,481.4h-.3s0,0,0,0c0,0,0,0,0,0v1s0,0,0,0c0,0,0,0,0,0h-.3s0,0,0,0c0,0,0,0,0,0v-1s0,0,0,0c0,0,0,0,0,0h-.3s0,0,0,0c0,0,0,0,0,0v-.3s0,0,0,0c0,0,0,0,0,0h1.1s0,0,0,0c0,0,0,0,0,0v.3s0,0,0,0c0,0,0,0,0,0h0Z"/>
      <path class="st30" d="M655.8,481.8c0-.1,0-.2,0-.3,0,0,0-.2.2-.2s.2-.1.2-.2.2,0,.3,0,.2,0,.3,0c0,0,.2,0,.2.2s.1.2.2.2,0,.2,0,.3,0,.2,0,.3c0,0,0,.2-.2.2s-.2.1-.2.2-.2,0-.3,0-.2,0-.3,0c0,0-.2,0-.2-.2s-.1-.2-.2-.2c0,0,0-.2,0-.3ZM656.2,481.8s0,0,0,.2,0,0,0,.1,0,0,.1,0c0,0,0,0,.1,0s0,0,.1,0c0,0,0,0,.1,0s0,0,0-.1,0,0,0-.2,0,0,0-.2c0,0,0,0,0-.1s0,0-.1,0,0,0-.1,0,0,0-.1,0c0,0,0,0-.1,0s0,0,0,.1c0,0,0,0,0,.2Z"/>
      <path class="st30" d="M643.3,484.6c0,0-.1.2-.2.2s-.1.1-.2.2-.2,0-.3.1-.2,0-.3,0-.3,0-.4,0c-.1,0-.2-.1-.3-.2,0,0-.2-.2-.2-.3s0-.3,0-.4,0-.3,0-.4c0-.1.1-.2.2-.3s.2-.2.3-.2.3,0,.4,0,.2,0,.3,0,.2,0,.3.1.2.1.2.2.1.2.2.2c0,0,0,0,0,0,0,0,0,0,0,0l-.4.2h0s0,0,0,0c0,0-.1-.2-.2-.2,0,0-.2,0-.3,0s-.1,0-.2,0c0,0-.1,0-.2.1s0,0-.1.2c0,0,0,.1,0,.2s0,.1,0,.2,0,.1.1.2,0,0,.2.1c0,0,.1,0,.2,0,0,0,.2,0,.3,0s.1-.1.2-.2c0,0,0,0,0,0h0l.4.2s0,0,0,0c0,0,0,0,0,0h0Z"/>
      <path class="st30" d="M643.9,485.1h-.4s0,0,0,0c0,0,0,0,0,0v-1.9s0,0,0,0,0,0,0,0h.4s0,0,0,0,0,0,0,0v1.9s0,0,0,0c0,0,0,0,0,0Z"/>
      <path class="st30" d="M644.4,483.2s0,0,0,0,0,0,0,0h.4s0,0,0,0,0,0,0,0v1.1c0,0,0,.1,0,.2s0,0,0,.1,0,0,.1,0,0,0,0,0,0,0,0,0c0,0,0,0,.1,0,0,0,0,0,0-.1s0-.1,0-.2v-1.1s0,0,0,0,0,0,0,0h.4s0,0,0,0,0,0,0,0v1.1c0,.1,0,.2,0,.3,0,.1,0,.2-.2.3s-.2.1-.3.2-.2,0-.4,0-.2,0-.4,0-.2,0-.3-.2c0,0-.1-.2-.2-.3,0-.1,0-.2,0-.3v-1.1h0Z"/>
      <path class="st30" d="M646.5,485.1v-1.9s0,0,0,0,0,0,0,0h.7c.3,0,.5,0,.7.2,0,0,.2.2.2.3s0,.3,0,.4,0,.3,0,.4c0,.1-.1.2-.2.3,0,0-.2.1-.3.2s-.2,0-.4,0h-.7s0,0,0,0c0,0,0,0,0,0ZM647.1,484.6h.2s0,0,.2,0,0,0,.2,0,0,0,.1-.2,0-.2,0-.2,0-.2,0-.2c0,0,0-.1-.1-.2s0,0-.2,0-.1,0-.2,0h-.2s0,0,0,0,0,0,0,0v.9s0,0,0,0c0,0,0,0,0,0h0Z"/>
      <path class="st30" d="M649,483.2s0,0,0,0c0,0,0,0,0,0h.4s0,0,0,0c0,0,0,0,0,0l.8,1.9h0c0,0,0,0,0,0h-.5s0,0,0,0c0,0,0,0,0,0v-.2c0,0,0,0-.1,0,0,0,0,0,0,0h-.6s0,0,0,0c0,0,0,0,0,0v.2c0,0-.1,0-.1,0,0,0,0,0,0,0h-.5s0,0,0,0c0,0,0,0,0,0h0s.8-1.9.8-1.9ZM649.1,484.4h.2s0,0,0,0h0c0,0,0-.1,0-.2,0,0,0-.1,0-.2,0,0,0,0,0,0,0,0,0,0,0,0v.3c-.1,0-.1,0-.1,0,0,0,0,0,0,0h0Z"/>
      <path class="st30" d="M650.5,485.1v-1.9s0,0,0,0,0,0,0,0h.7c.3,0,.5,0,.7.2,0,0,.2.2.2.3s0,.3,0,.4,0,.3,0,.4c0,.1-.1.2-.2.3,0,0-.2.1-.3.2-.1,0-.2,0-.4,0h-.7s0,0,0,0c0,0,0,0,0,0ZM651.1,484.6h.2s0,0,.2,0,0,0,.2,0c0,0,0,0,.1-.2s0-.2,0-.2,0-.2,0-.2c0,0,0-.1-.1-.2s0,0-.2,0-.1,0-.2,0h-.2s0,0,0,0,0,0,0,0v.9s0,0,0,0,0,0,0,0h0Z"/>
      <path class="st30" d="M653,483.2s0,0,0,0c0,0,0,0,0,0h.4s0,0,0,0c0,0,0,0,0,0l.8,1.9h0c0,0,0,0,0,0h-.5s0,0,0,0c0,0,0,0,0,0v-.2c0,0,0,0-.1,0,0,0,0,0,0,0h-.6s0,0,0,0c0,0,0,0,0,0v.2c0,0-.1,0-.1,0s0,0,0,0h-.5s0,0,0,0,0,0,0,0h0s.8-1.9.8-1.9h0ZM653.2,484.4h.2s0,0,0,0h0c0,0,0-.1,0-.2,0,0,0-.1,0-.2,0,0,0,0,0,0,0,0,0,0,0,0v.3c-.1,0-.1,0-.1,0,0,0,0,0,0,0h0Z"/>
      <path class="st30" d="M656.4,483.2v1.9s0,0,0,0,0,0,0,0h-.4s0,0,0,0c0,0,0,0,0,0l-.7-1s0,0,0,0,0,0,0,0v1s0,0,0,0,0,0,0,0h-.4s0,0,0,0,0,0,0,0v-1.9s0,0,0,0,0,0,0,0h.4s0,0,0,0,0,0,0,0l.7,1s0,0,0,0,0,0,0,0v-1s0,0,0,0,0,0,0,0h.4s0,0,0,0c0,0,0,0,0,0h0Z"/>
      <path class="st30" d="M656.7,484.1c0-.1,0-.3,0-.4,0-.1.1-.2.2-.3,0,0,.2-.2.3-.2s.3,0,.4,0,.3,0,.4,0,.2.1.3.2c0,0,.2.2.2.3s0,.3,0,.4,0,.3,0,.4c0,.1-.1.2-.2.3,0,0-.2.2-.3.2s-.3,0-.4,0-.3,0-.4,0-.2-.1-.3-.2c0,0-.2-.2-.2-.3s0-.3,0-.4ZM657.2,484.1c0,0,0,.1,0,.2s0,.1,0,.2,0,0,.2.1c0,0,.1,0,.2,0s.1,0,.2,0c0,0,.1,0,.2-.1,0,0,0,0,.1-.2,0,0,0-.1,0-.2s0-.1,0-.2,0-.1-.1-.2,0,0-.2-.1-.1,0-.2,0-.1,0-.2,0c0,0-.1,0-.2.1,0,0,0,0,0,.2,0,0,0,.1,0,.2Z"/>
    </g>
    <g>
      <path id="dk" class="st34" d="M534,466.1h21.3c1.5,0,2.7,1.2,2.7,2.7v21.3c0,1.5-1.2,2.7-2.7,2.7h-21.3c-1.5,0-2.7-1.2-2.7-2.7v-21.3c0-1.5,1.2-2.7,2.7-2.7h0Z"/>
      <circle id="dl" class="st7" cx="544.7" cy="479.6" r="12.9"/>
      <circle id="dm" class="st34" cx="544.7" cy="479.5" r="11.4"/>
      <circle id="dn" class="st7" cx="544.7" cy="479.5" r="10"/>
      <path id="do" class="st11" d="M539.6,479.3c.3,0,.4-.3.4-.7v-2.4c0-.4-.1-.6-.4-.6h-.9v3.7h.9ZM536.8,485.4v-11.8h4.1c.7,0,1,.9,1,1.8v3.7c0,1-.3,2.2-1.3,2.2h-1.9v4.3h-1.8s0,0,0,0ZM543.8,482.1h1l-.5-2.5-.5,2.5h0ZM543.2,483.9l-.3,1.6h-1.9l2.1-11.8h2.4l2,11.8h-1.9l-.3-1.6h-2.1,0ZM547.7,485.4v-11.8h1.7l1.2,4.1v-4.1h1.9v11.8h-1.8l-1.1-3.6v3.6h-1.9Z"/>
      <g class="st10">
        <text class="st6" transform="translate(570.6 493)"><tspan x="0" y="0">114</tspan></text>
      </g>
    </g>
  </g>
  <g id="Capa_2">
    <g id="_x30_-Partido-del-Trabajo">
      <circle class="st33" cx="435.3" cy="353.6" r="6.4"/>
      <circle class="st33" cx="451.2" cy="353.6" r="6.4"/>
      <circle class="st33" cx="467.1" cy="353.6" r="6.4"/>
      <circle class="st33" cx="483.1" cy="353.6" r="6.4"/>
      <circle class="st33" cx="499" cy="353.6" r="6.4"/>
      <circle class="st33" cx="437" cy="336.1" r="6.4"/>
    </g>
    <g id="_x31_-Morena">
      <circle class="st27" cx="452.9" cy="337.3" r="6.4"/>
      <circle class="st27" cx="469.1" cy="337.4" r="6.4"/>
      <circle class="st27" cx="485.3" cy="337.4" r="6.4"/>
      <circle class="st27" cx="501.5" cy="337.5" r="6.4"/>
      <circle class="st27" cx="440.6" cy="319" r="6.4"/>
      <circle class="st27" cx="456.4" cy="321.3" r="6.4"/>
      <circle class="st27" cx="473" cy="321.5" r="6.4"/>
      <circle class="st27" cx="489.6" cy="321.7" r="6.4"/>
      <circle class="st27" cx="445.9" cy="302.3" r="6.4"/>
      <circle class="st27" cx="461.6" cy="305.8" r="6.4"/>
      <circle class="st27" cx="506.5" cy="322.1" r="6.4"/>
      <circle class="st27" cx="478.7" cy="306.2" r="6.4"/>
      <circle class="st27" cx="453" cy="286.2" r="6.4"/>
      <circle class="st27" cx="496.1" cy="306.8" r="6.4"/>
      <circle class="st27" cx="468.5" cy="290.9" r="6.4"/>
      <circle class="st27" cx="486.3" cy="291.7" r="6.4"/>
      <circle class="st27" cx="513.9" cy="307.6" r="6.4"/>
      <circle class="st27" cx="461.7" cy="271" r="6.4"/>
      <circle class="st27" cx="476.9" cy="276.9" r="6.4"/>
      <circle class="st27" cx="504.6" cy="292.8" r="6.4"/>
      <circle class="st27" cx="495.6" cy="278.2" r="6.4"/>
      <circle class="st27" cx="472" cy="256.8" r="6.4"/>
      <circle class="st27" cx="486.8" cy="263.8" r="6.4"/>
      <circle class="st27" cx="523.4" cy="294.5" r="6.4"/>
      <circle class="st27" cx="514.8" cy="280.2" r="6.4"/>
      <circle class="st27" cx="483.7" cy="243.7" r="6.4"/>
      <circle class="st27" cx="506.4" cy="266" r="6.4"/>
      <circle class="st27" cx="498.1" cy="251.9" r="6.4"/>
      <circle class="st27" cx="534.9" cy="283" r="6.4"/>
      <circle class="st27" cx="526.7" cy="269" r="6.4"/>
      <circle class="st27" cx="496.7" cy="231.9" r="6.4"/>
      <circle class="st27" cx="518.6" cy="255.2" r="6.4"/>
      <circle class="st27" cx="510.6" cy="241.3" r="6.4"/>
      <circle class="st27" cx="510.9" cy="221.6" r="6.4"/>
      <circle class="st27" cx="548" cy="273.4" r="6.4"/>
      <circle class="st27" cx="540.1" cy="259.6" r="6.4"/>
      <circle class="st27" cx="532.1" cy="245.9" r="6.4"/>
      <circle class="st27" cx="524.1" cy="232.1" r="6.4"/>
      <circle class="st27" cx="526.1" cy="212.8" r="6.4"/>
      <circle class="st27" cx="538.6" cy="224.4" r="6.4"/>
      <circle class="st27" cx="546.6" cy="238.3" r="6.4"/>
      <circle class="st27" cx="554.5" cy="252.1" r="6.4"/>
      <circle class="st27" cx="562.5" cy="266" r="6.4"/>
      <circle class="st27" cx="542.1" cy="205.7" r="6.4"/>
      <circle class="st27" cx="553.8" cy="218.3" r="6.4"/>
      <circle class="st27" cx="561.8" cy="232.5" r="6.4"/>
      <circle class="st27" cx="569.9" cy="246.7" r="6.4"/>
      <circle class="st27" cx="558.7" cy="200.2" r="6.4"/>
      <circle class="st27" cx="578" cy="261" r="6.4"/>
      <circle class="st27" cx="569.6" cy="213.9" r="6.4"/>
      <circle class="st27" cx="577.7" cy="228.5" r="6.4"/>
      <circle class="st27" cx="575.9" cy="196.6" r="6.4"/>
      <circle class="st27" cx="585.9" cy="243.3" r="6.4"/>
      <circle class="st27" cx="585.8" cy="211.3" r="6.4"/>
      <circle class="st27" cx="594" cy="258.5" r="6.4"/>
      <circle class="st27" cx="593.9" cy="226.6" r="6.4"/>
      <circle class="st27" cx="593.3" cy="194.7" r="6.4"/>
      <circle class="st27" cx="602.1" cy="242.2" r="6.4"/>
      <circle class="st27" cx="602.1" cy="210.4" r="6.4"/>
      <circle class="st27" cx="610.9" cy="194.7" r="6.4"/>
      <circle class="st27" cx="610.3" cy="226.6" r="6.4"/>
      <circle class="st27" cx="610.2" cy="258.5" r="6.4"/>
      <circle class="st27" cx="618.5" cy="211.3" r="6.4"/>
      <circle class="st27" cx="618.4" cy="243.3" r="6.4"/>
      <circle class="st27" cx="628.3" cy="196.6" r="6.4"/>
      <circle class="st27" cx="626.5" cy="228.5" r="6.4"/>
    </g>
    <g id="_x33_-Movimiento-Ciudadano">
      <circle class="st28" cx="634.6" cy="213.9" r="6.4"/>
      <circle class="st28" cx="626.3" cy="261" r="6.4"/>
      <circle class="st28" cx="645.5" cy="200.2" r="6.4"/>
      <circle class="st28" cx="634.3" cy="246.7" r="6.4"/>
      <circle class="st28" cx="642.4" cy="232.5" r="6.4"/>
    </g>
    <g id="_x34_-Partido-Revolucionario-Institucional">
      <circle class="st29" cx="650.4" cy="218.3" r="6.4"/>
      <circle class="st29" cx="662.2" cy="205.7" r="6.4"/>
      <circle class="st29" cx="641.7" cy="266" r="6.4"/>
      <circle class="st29" cx="649.7" cy="252.1" r="6.4"/>
      <circle class="st29" cx="657.7" cy="238.3" r="6.4"/>
      <circle class="st29" cx="665.6" cy="224.4" r="6.4"/>
      <circle class="st29" cx="678.2" cy="212.8" r="6.4" transform="translate(359.5 848.2) rotate(-80.8)"/>
      <circle class="st29" cx="680.1" cy="232.1" r="6.4" transform="translate(342.1 866.2) rotate(-80.8)"/>
      <circle class="st29" cx="672.1" cy="245.9" r="6.4"/>
      <circle class="st29" cx="664.2" cy="259.6" r="6.4"/>
      <circle class="st29" cx="656.2" cy="273.4" r="6.4"/>
      <circle class="st29" cx="693.3" cy="221.6" r="6.4"/>
      <circle class="st29" cx="693.7" cy="241.3" r="6.4"/>
      <circle class="st29" cx="685.6" cy="255.2" r="6.4"/>
      <circle class="st29" cx="707.5" cy="231.9" r="6.4"/>
      <circle class="st29" cx="677.5" cy="269" r="6.4" transform="translate(303.4 894.7) rotate(-80.8)"/>
    </g>
    <g id="_x35_-Partido-Verde-Ecologista-de-M-xico">
      <circle class="st35" cx="669.3" cy="283" r="6.4"/>
      <circle class="st35" cx="706.1" cy="251.9" r="6.4"/>
      <circle class="st35" cx="697.8" cy="266" r="6.4"/>
      <circle class="st35" cx="720.5" cy="243.7" r="6.4"/>
      <circle class="st35" cx="689.4" cy="280.2" r="6.4"/>
      <circle class="st35" cx="680.8" cy="294.5" r="6.4" transform="translate(281.1 919.3) rotate(-80.8)"/>
      <circle class="st35" cx="717.4" cy="263.8" r="6.4"/>
      <circle class="st35" cx="732.2" cy="256.8" r="6.4"/>
      <circle class="st35" cx="708.6" cy="278.2" r="6.4"/>
      <circle class="st35" cx="699.7" cy="292.8" r="6.4"/>
      <circle class="st35" cx="727.3" cy="276.9" r="6.4"/>
      <circle class="st35" cx="742.5" cy="271" r="6.4"/>
      <circle class="st35" cx="690.3" cy="307.6" r="6.4"/>
    </g>
    <g id="_x36_-Partido-Acci-n-Nacional">
      <circle class="st34" cx="717.9" cy="291.7" r="6.4"/>
      <circle class="st34" cx="735.7" cy="290.9" r="6.4"/>
      <circle class="st34" cx="708.1" cy="306.8" r="6.4"/>
      <circle class="st34" cx="751.2" cy="286.2" r="6.4"/>
      <circle class="st34" cx="725.5" cy="306.2" r="6.4"/>
      <circle class="st34" cx="697.7" cy="322.1" r="6.4"/>
      <circle class="st34" cx="742.6" cy="305.8" r="6.4"/>
      <circle class="st34" cx="758.3" cy="302.3" r="6.4"/>
      <circle class="st34" cx="714.6" cy="321.7" r="6.4"/>
      <circle class="st34" cx="731.3" cy="321.5" r="6.4"/>
      <circle class="st34" cx="747.8" cy="321.3" r="6.4"/>
      <circle class="st34" cx="763.6" cy="319" r="6.4"/>
      <circle class="st34" cx="702.7" cy="337.5" r="6.4"/>
      <circle class="st34" cx="719" cy="337.4" r="6.4"/>
      <circle class="st34" cx="735.2" cy="337.4" r="6.4"/>
      <circle class="st34" cx="751.3" cy="337.3" r="6.4"/>
      <circle class="st34" cx="767.2" cy="336.1" r="6.4"/>
      <circle class="st34" cx="705.2" cy="353.6" r="6.4"/>
      <circle class="st34" cx="721.2" cy="353.6" r="6.4"/>
      <circle class="st34" cx="737.1" cy="353.6" r="6.4"/>
      <circle class="st34" cx="753" cy="353.6" r="6.4"/>
      <circle class="st34" cx="769" cy="353.6" r="6.4"/>
    </g>
    <text class="st4" transform="translate(584.3 731.5)"><tspan x="0" y="0">500</tspan></text>
    <g id="_x30_-Partido-del-Trabajo1" data-name="_x30_-Partido-del-Trabajo">
      <circle class="st33" cx="443.6" cy="732.3" r="3.3"/>
      <circle class="st33" cx="451.9" cy="732.3" r="3.3"/>
      <circle class="st33" cx="460.3" cy="732.3" r="3.3"/>
      <circle class="st33" cx="468.6" cy="732.3" r="3.3"/>
      <circle class="st33" cx="476.9" cy="732.3" r="3.3"/>
      <circle class="st33" cx="485.3" cy="732.3" r="3.3"/>
      <circle class="st33" cx="493.6" cy="732.3" r="3.3"/>
      <circle class="st33" cx="502" cy="732.3" r="3.3"/>
      <circle class="st33" cx="510.3" cy="732.3" r="3.3"/>
      <circle class="st33" cx="518.6" cy="732.3" r="3.3"/>
      <circle class="st33" cx="527" cy="732.3" r="3.3"/>
      <circle class="st33" cx="444" cy="723.4" r="3.3"/>
      <circle class="st33" cx="452.4" cy="723.5" r="3.3"/>
      <circle class="st33" cx="460.8" cy="723.5" r="3.3"/>
      <circle class="st33" cx="469.1" cy="723.3" r="3.3"/>
      <circle class="st33" cx="477.5" cy="723.3" r="3.3"/>
      <circle class="st33" cx="485.9" cy="723.3" r="3.3"/>
      <circle class="st33" cx="494.3" cy="723.3" r="3.3"/>
      <circle class="st33" cx="502.6" cy="723.5" r="3.3"/>
      <circle class="st33" cx="511" cy="723.5" r="3.3"/>
      <circle class="st33" cx="445" cy="714.5" r="3.3"/>
      <circle class="st33" cx="453.3" cy="714.8" r="3.3"/>
      <circle class="st33" cx="519.4" cy="723.5" r="3.3"/>
      <circle class="st33" cx="461.7" cy="714.8" r="3.3"/>
      <circle class="st33" cx="470.2" cy="714.4" r="3.3"/>
      <circle class="st33" cx="527.9" cy="723.2" r="3.3"/>
      <circle class="st33" cx="478.7" cy="714.4" r="3.3"/>
      <circle class="st33" cx="487.1" cy="714.4" r="3.3"/>
      <circle class="st33" cx="446.4" cy="705.6" r="3.3"/>
      <circle class="st33" cx="495.6" cy="714.3" r="3.3"/>
      <circle class="st33" cx="454.7" cy="706.1" r="3.3"/>
      <circle class="st33" cx="504" cy="714.8" r="3.3"/>
      <circle class="st33" cx="463.2" cy="706.1" r="3.3"/>
      <circle class="st33" cx="512.5" cy="714.8" r="3.3"/>
      <circle class="st33" cx="471.9" cy="705.6" r="3.3"/>
      <circle class="st33" cx="480.4" cy="705.6" r="3.3"/>
      <circle class="st33" cx="521" cy="714.8" r="3.3"/>
      <circle class="st33" cx="448.2" cy="696.9" r="3.3"/>
      <circle class="st33" cx="489" cy="705.5" r="3.3"/>
      <circle class="st33" cx="456.6" cy="697.5" r="3.3"/>
      <circle class="st33" cx="465.2" cy="697.5" r="3.3"/>
      <circle class="st33" cx="529.8" cy="714.2" r="3.3"/>
      <circle class="st33" cx="497.6" cy="705.5" r="3.3"/>
      <circle class="st33" cx="506" cy="706.2" r="3.3"/>
      <circle class="st33" cx="474" cy="696.8" r="3.3"/>
      <circle class="st33" cx="450.5" cy="688.2" r="3.3"/>
      <circle class="st33" cx="482.7" cy="696.8" r="3.3"/>
    </g>
    <g id="_x31_-Morena1" data-name="_x31_-Morena">
      <circle class="st27" cx="514.7" cy="706.2" r="3.3"/>
      <circle class="st27" cx="459" cy="689" r="3.3"/>
      <circle class="st27" cx="491.4" cy="696.8" r="3.3"/>
      <circle class="st27" cx="467.7" cy="689" r="3.3"/>
      <circle class="st27" cx="523.4" cy="706.2" r="3.3"/>
      <circle class="st27" cx="500.2" cy="696.9" r="3.3"/>
      <circle class="st27" cx="476.7" cy="688.3" r="3.3"/>
      <circle class="st27" cx="453.3" cy="679.7" r="3.3"/>
      <circle class="st27" cx="461.8" cy="680.6" r="3.3"/>
      <circle class="st27" cx="508.8" cy="697.7" r="3.3"/>
      <circle class="st27" cx="485.6" cy="688.3" r="3.3"/>
      <circle class="st27" cx="532.6" cy="705.4" r="3.3"/>
      <circle class="st27" cx="470.6" cy="680.7" r="3.3"/>
      <circle class="st27" cx="517.6" cy="697.8" r="3.3"/>
      <circle class="st27" cx="494.5" cy="688.4" r="3.3"/>
      <circle class="st27" cx="456.5" cy="671.3" r="3.3"/>
      <circle class="st27" cx="480" cy="679.9" r="3.3"/>
      <circle class="st27" cx="465" cy="672.4" r="3.3"/>
      <circle class="st27" cx="503.5" cy="688.4" r="3.3"/>
      <circle class="st27" cx="526.6" cy="698" r="3.3"/>
      <circle class="st27" cx="489" cy="680" r="3.3"/>
      <circle class="st27" cx="474.1" cy="672.6" r="3.3"/>
      <circle class="st27" cx="512.1" cy="689.6" r="3.3"/>
      <circle class="st27" cx="460.1" cy="663.2" r="3.3"/>
      <circle class="st27" cx="498.2" cy="680.1" r="3.3"/>
      <circle class="st27" cx="468.7" cy="664.4" r="3.3"/>
      <circle class="st27" cx="483.7" cy="671.7" r="3.3"/>
      <circle class="st27" cx="521.3" cy="689.8" r="3.3"/>
      <circle class="st27" cx="536.3" cy="697" r="3.3"/>
      <circle class="st27" cx="507.4" cy="680.3" r="3.3"/>
      <circle class="st27" cx="477.9" cy="664.7" r="3.3"/>
      <circle class="st27" cx="493" cy="671.9" r="3.3"/>
      <circle class="st27" cx="464.1" cy="655.2" r="3.3"/>
      <circle class="st27" cx="530.6" cy="690" r="3.3"/>
      <circle class="st27" cx="516.1" cy="681.7" r="3.3"/>
      <circle class="st27" cx="472.8" cy="656.7" r="3.3"/>
      <circle class="st27" cx="502.4" cy="672.1" r="3.3"/>
      <circle class="st27" cx="488" cy="663.8" r="3.3"/>
      <circle class="st27" cx="482.3" cy="657" r="3.3"/>
      <circle class="st27" cx="468.6" cy="647.4" r="3.3"/>
      <circle class="st27" cx="525.6" cy="682" r="3.3"/>
      <circle class="st27" cx="497.5" cy="664.1" r="3.3"/>
      <circle class="st27" cx="511.9" cy="672.4" r="3.3"/>
      <circle class="st27" cx="477.4" cy="649.1" r="3.3"/>
      <circle class="st27" cx="540.8" cy="689.1" r="3.3"/>
      <circle class="st27" cx="492.7" cy="656.1" r="3.3"/>
      <circle class="st27" cx="520.7" cy="674.1" r="3.3"/>
      <circle class="st27" cx="507.2" cy="664.4" r="3.3"/>
      <circle class="st27" cx="487" cy="649.6" r="3.3"/>
      <circle class="st27" cx="535.2" cy="682.5" r="3.3"/>
      <circle class="st27" cx="473.5" cy="639.9" r="3.3"/>
      <circle class="st27" cx="502.5" cy="656.6" r="3.3"/>
      <circle class="st27" cx="482.3" cy="641.8" r="3.3"/>
      <circle class="st27" cx="517" cy="664.9" r="3.3"/>
      <circle class="st27" cx="530.5" cy="674.7" r="3.3"/>
      <circle class="st27" cx="497.9" cy="648.8" r="3.3"/>
      <circle class="st27" cx="478.7" cy="632.6" r="3.3"/>
      <circle class="st27" cx="492.2" cy="642.5" r="3.3"/>
      <circle class="st27" cx="512.5" cy="657.1" r="3.3"/>
      <circle class="st27" cx="525.9" cy="667" r="3.3"/>
      <circle class="st27" cx="487.6" cy="634.8" r="3.3"/>
      <circle class="st27" cx="546.2" cy="681.6" r="3.3"/>
      <circle class="st27" cx="508" cy="649.4" r="3.3"/>
      <circle class="st27" cx="540.6" cy="675.4" r="3.3"/>
      <circle class="st27" cx="484.4" cy="625.7" r="3.3"/>
      <circle class="st27" cx="503.5" cy="641.8" r="3.3"/>
      <circle class="st27" cx="522.7" cy="657.8" r="3.3"/>
      <circle class="st27" cx="497.8" cy="635.6" r="3.3"/>
      <circle class="st27" cx="536.1" cy="667.8" r="3.3"/>
      <circle class="st27" cx="493.3" cy="628.1" r="3.3"/>
      <circle class="st27" cx="518.3" cy="650.2" r="3.3"/>
      <circle class="st27" cx="531.7" cy="660.2" r="3.3"/>
      <circle class="st27" cx="513.9" cy="642.6" r="3.3"/>
      <circle class="st27" cx="490.3" cy="619" r="3.3"/>
      <circle class="st27" cx="509.6" cy="635.1" r="3.3"/>
      <circle class="st27" cx="503.7" cy="629.1" r="3.3"/>
      <circle class="st27" cx="552.4" cy="674.8" r="3.3"/>
      <circle class="st27" cx="528.8" cy="651.2" r="3.3"/>
      <circle class="st27" cx="546.5" cy="668.8" r="3.3"/>
      <circle class="st27" cx="499.4" cy="621.7" r="3.3"/>
      <circle class="st27" cx="524.5" cy="643.7" r="3.3"/>
      <circle class="st27" cx="542.2" cy="661.4" r="3.3"/>
      <circle class="st27" cx="496.7" cy="612.7" r="3.3"/>
      <circle class="st27" cx="520.3" cy="636.2" r="3.3"/>
      <circle class="st27" cx="537.9" cy="654" r="3.3"/>
      <circle class="st27" cx="510" cy="623" r="3.3"/>
      <circle class="st27" cx="516" cy="628.8" r="3.3"/>
      <circle class="st27" cx="505.8" cy="615.6" r="3.3"/>
      <circle class="st27" cx="535.4" cy="645" r="3.3"/>
      <circle class="st27" cx="503.3" cy="606.7" r="3.3"/>
      <circle class="st27" cx="531.2" cy="637.6" r="3.3"/>
      <circle class="st27" cx="553.1" cy="662.8" r="3.3"/>
      <circle class="st27" cx="527" cy="630.3" r="3.3"/>
      <circle class="st27" cx="516.7" cy="617.2" r="3.3"/>
      <circle class="st27" cx="559.2" cy="668.6" r="3.3"/>
      <circle class="st27" cx="548.8" cy="655.5" r="3.3"/>
      <circle class="st27" cx="522.8" cy="623" r="3.3"/>
      <circle class="st27" cx="512.5" cy="609.9" r="3.3"/>
      <circle class="st27" cx="544.6" cy="648.2" r="3.3"/>
      <circle class="st27" cx="510.3" cy="601" r="3.3"/>
      <circle class="st27" cx="542.5" cy="639.4" r="3.3"/>
      <circle class="st27" cx="538.3" cy="632.1" r="3.3"/>
      <circle class="st27" cx="523.7" cy="611.8" r="3.3"/>
      <circle class="st27" cx="519.5" cy="604.6" r="3.3"/>
      <circle class="st27" cx="534.2" cy="624.8" r="3.3"/>
      <circle class="st27" cx="530" cy="617.5" r="3.3"/>
      <circle class="st27" cx="517.5" cy="595.8" r="3.3"/>
      <circle class="st27" cx="560.1" cy="657.5" r="3.3"/>
      <circle class="st27" cx="556" cy="650.2" r="3.3"/>
      <circle class="st27" cx="551.8" cy="643" r="3.3"/>
      <circle class="st27" cx="566.6" cy="663.2" r="3.3"/>
      <circle class="st27" cx="531" cy="606.8" r="3.3"/>
      <circle class="st27" cx="526.8" cy="599.6" r="3.3"/>
      <circle class="st27" cx="550" cy="634.3" r="3.3"/>
      <circle class="st27" cx="545.8" cy="627" r="3.3"/>
      <circle class="st27" cx="541.7" cy="619.8" r="3.3"/>
      <circle class="st27" cx="537.5" cy="612.6" r="3.3"/>
      <circle class="st27" cx="525" cy="590.9" r="3.3"/>
      <circle class="st27" cx="534.3" cy="595.1" r="3.3"/>
      <circle class="st27" cx="538.5" cy="602.3" r="3.3"/>
      <circle class="st27" cx="559.3" cy="638.4" r="3.3"/>
      <circle class="st27" cx="563.5" cy="645.6" r="3.3"/>
      <circle class="st27" cx="567.7" cy="652.8" r="3.3"/>
      <circle class="st27" cx="532.8" cy="586.4" r="3.3"/>
      <circle class="st27" cx="545.3" cy="608.1" r="3.3"/>
      <circle class="st27" cx="549.5" cy="615.3" r="3.3"/>
      <circle class="st27" cx="553.6" cy="622.5" r="3.3"/>
      <circle class="st27" cx="557.8" cy="629.7" r="3.3"/>
      <circle class="st27" cx="574.5" cy="658.6" r="3.3"/>
      <circle class="st27" cx="542.1" cy="590.9" r="3.3"/>
      <circle class="st27" cx="546.3" cy="598.2" r="3.3"/>
      <circle class="st27" cx="540.7" cy="582.3" r="3.3"/>
      <circle class="st27" cx="567.2" cy="634.4" r="3.3"/>
      <circle class="st27" cx="553.3" cy="604" r="3.3"/>
      <circle class="st27" cx="557.5" cy="611.3" r="3.3"/>
      <circle class="st27" cx="571.4" cy="641.6" r="3.3"/>
      <circle class="st27" cx="561.8" cy="618.5" r="3.3"/>
      <circle class="st27" cx="575.6" cy="648.9" r="3.3"/>
      <circle class="st27" cx="566" cy="625.8" r="3.3"/>
      <circle class="st27" cx="550.1" cy="587.2" r="3.3"/>
      <circle class="st27" cx="554.3" cy="594.5" r="3.3"/>
      <circle class="st27" cx="548.9" cy="578.7" r="3.3"/>
      <circle class="st27" cx="561.6" cy="600.5" r="3.3"/>
      <circle class="st27" cx="582.9" cy="654.8" r="3.3"/>
      <circle class="st27" cx="565.9" cy="607.8" r="3.3"/>
      <circle class="st27" cx="575.4" cy="631" r="3.3"/>
      <circle class="st27" cx="558.3" cy="584" r="3.3"/>
      <circle class="st27" cx="570.1" cy="615.1" r="3.3"/>
      <circle class="st27" cx="562.5" cy="591.3" r="3.3"/>
      <circle class="st27" cx="557.3" cy="575.5" r="3.3"/>
      <circle class="st27" cx="579.6" cy="638.3" r="3.3"/>
      <circle class="st27" cx="574.4" cy="622.5" r="3.3"/>
      <circle class="st27" cx="583.9" cy="645.6" r="3.3"/>
      <circle class="st27" cx="570.1" cy="597.5" r="3.3"/>
      <circle class="st27" cx="566.6" cy="581.2" r="3.3"/>
      <circle class="st27" cx="574.4" cy="604.9" r="3.3"/>
      <circle class="st27" cx="565.8" cy="572.7" r="3.3"/>
      <circle class="st27" cx="570.9" cy="588.6" r="3.3"/>
      <circle class="st27" cx="578.7" cy="612.3" r="3.3"/>
      <circle class="st27" cx="583.8" cy="628.2" r="3.3"/>
      <circle class="st27" cx="591.7" cy="652" r="3.3"/>
      <circle class="st27" cx="583" cy="619.8" r="3.3"/>
      <circle class="st27" cx="588.1" cy="635.7" r="3.3"/>
      <circle class="st27" cx="578.8" cy="595.1" r="3.3"/>
      <circle class="st27" cx="575.1" cy="578.8" r="3.3"/>
      <circle class="st27" cx="574.4" cy="570.4" r="3.3"/>
      <circle class="st27" cx="592.4" cy="643.2" r="3.3"/>
      <circle class="st27" cx="583.1" cy="602.6" r="3.3"/>
      <circle class="st27" cx="579.4" cy="586.3" r="3.3"/>
      <circle class="st27" cx="587.5" cy="610.2" r="3.3"/>
      <circle class="st27" cx="592.4" cy="626.2" r="3.3"/>
      <circle class="st27" cx="583.7" cy="576.9" r="3.3"/>
      <circle class="st27" cx="591.9" cy="617.8" r="3.3"/>
      <circle class="st27" cx="587.5" cy="593.2" r="3.3"/>
      <circle class="st27" cx="583.2" cy="568.5" r="3.3"/>
      <circle class="st27" cx="588.1" cy="584.6" r="3.3"/>
      <circle class="st27" cx="596.7" cy="633.8" r="3.3"/>
      <circle class="st27" cx="591.9" cy="600.8" r="3.3"/>
      <circle class="st27" cx="600.6" cy="650.1" r="3.3"/>
      <circle class="st27" cx="596.4" cy="608.6" r="3.3"/>
      <circle class="st27" cx="601.1" cy="641.6" r="3.3"/>
      <circle class="st27" cx="592.4" cy="575.5" r="3.3"/>
      <circle class="st27" cx="592.1" cy="567.1" r="3.3"/>
      <circle class="st27" cx="596.4" cy="591.8" r="3.3"/>
      <circle class="st27" cx="601.1" cy="624.8" r="3.3"/>
      <circle class="st27" cx="596.8" cy="583.3" r="3.3"/>
      <circle class="st27" cx="600.8" cy="616.4" r="3.3"/>
      <circle class="st27" cx="600.9" cy="599.7" r="3.3"/>
      <circle class="st27" cx="605.5" cy="632.7" r="3.3"/>
      <circle class="st27" cx="601.2" cy="574.5" r="3.3"/>
      <circle class="st27" cx="601" cy="566.2" r="3.3"/>
      <circle class="st27" cx="605.3" cy="607.6" r="3.3"/>
      <circle class="st27" cx="605.4" cy="590.9" r="3.3"/>
      <circle class="st27" cx="605.6" cy="582.6" r="3.3"/>
      <circle class="st27" cx="609.8" cy="649.1" r="3.3"/>
      <circle class="st27" cx="609.9" cy="640.8" r="3.3"/>
      <circle class="st27" cx="610" cy="624.1" r="3.3"/>
      <circle class="st27" cx="609.8" cy="615.7" r="3.3"/>
      <circle class="st27" cx="609.9" cy="599.1" r="3.3"/>
      <circle class="st27" cx="610" cy="574.1" r="3.3"/>
      <circle class="st27" cx="609.9" cy="565.7" r="3.3"/>
      <circle class="st27" cx="614.4" cy="607.3" r="3.3"/>
      <circle class="st27" cx="614.4" cy="632.3" r="3.3"/>
      <circle class="st27" cx="614.4" cy="590.7" r="3.3"/>
      <circle class="st27" cx="614.4" cy="582.3" r="3.3"/>
      <circle class="st27" cx="618.9" cy="565.7" r="3.3"/>
      <circle class="st27" cx="618.8" cy="574.1" r="3.3"/>
      <circle class="st27" cx="618.9" cy="599.1" r="3.3"/>
      <circle class="st27" cx="618.9" cy="615.7" r="3.3"/>
      <circle class="st27" cx="618.8" cy="624.1" r="3.3"/>
      <circle class="st27" cx="618.8" cy="640.8" r="3.3"/>
      <circle class="st27" cx="619" cy="649.1" r="3.3"/>
      <circle class="st27" cx="623.2" cy="582.6" r="3.3"/>
      <circle class="st27" cx="623.4" cy="590.9" r="3.3"/>
      <circle class="st27" cx="623.4" cy="607.6" r="3.3"/>
      <circle class="st27" cx="627.8" cy="566.2" r="3.3"/>
      <circle class="st27" cx="627.6" cy="574.5" r="3.3"/>
      <circle class="st27" cx="623.2" cy="632.7" r="3.3"/>
      <circle class="st27" cx="627.9" cy="599.7" r="3.3"/>
      <circle class="st27" cx="627.9" cy="616.4" r="3.3"/>
      <circle class="st27" cx="632" cy="583.3" r="3.3"/>
      <circle class="st27" cx="627.6" cy="624.8" r="3.3"/>
      <circle class="st27" cx="632.3" cy="591.8" r="3.3"/>
      <circle class="st27" cx="636.7" cy="567.1" r="3.3"/>
      <circle class="st27" cx="636.3" cy="575.5" r="3.3"/>
      <circle class="st27" cx="627.6" cy="641.6" r="3.3"/>
      <circle class="st27" cx="632.4" cy="608.6" r="3.3"/>
      <circle class="st27" cx="628.1" cy="650.1" r="3.3"/>
      <circle class="st27" cx="636.8" cy="600.8" r="3.3"/>
      <circle class="st27" cx="632" cy="633.8" r="3.3"/>
      <circle class="st27" cx="640.7" cy="584.6" r="3.3"/>
      <circle class="st27" cx="645.5" cy="568.5" r="3.3"/>
      <circle class="st27" cx="641.2" cy="593.2" r="3.3"/>
      <circle class="st27" cx="636.9" cy="617.8" r="3.3"/>
      <circle class="st27" cx="645" cy="576.9" r="3.3"/>
      <circle class="st27" cx="636.4" cy="626.2" r="3.3"/>
      <circle class="st27" cx="641.3" cy="610.2" r="3.3"/>
      <circle class="st27" cx="649.3" cy="586.3" r="3.3"/>
      <circle class="st27" cx="645.6" cy="602.6" r="3.3"/>
      <circle class="st27" cx="636.4" cy="643.2" r="3.3"/>
      <circle class="st27" cx="654.3" cy="570.4" r="3.3"/>
      <circle class="st27" cx="653.6" cy="578.8" r="3.3"/>
      <circle class="st27" cx="650" cy="595.1" r="3.3"/>
      <circle class="st27" cx="640.7" cy="635.7" r="3.3"/>
      <circle class="st27" cx="645.7" cy="619.8" r="3.3"/>
      <circle class="st27" cx="637.1" cy="652" r="3.3"/>
      <circle class="st27" cx="645" cy="628.2" r="3.3"/>
      <circle class="st27" cx="650" cy="612.3" r="3.3"/>
      <circle class="st27" cx="657.9" cy="588.6" r="3.3"/>
      <circle class="st27" cx="662.9" cy="572.7" r="3.3"/>
      <circle class="st27" cx="654.4" cy="604.9" r="3.3"/>
      <circle class="st27" cx="662.1" cy="581.2" r="3.3"/>
      <circle class="st27" cx="658.6" cy="597.5" r="3.3"/>
      <circle class="st27" cx="644.9" cy="645.6" r="3.3"/>
      <circle class="st27" cx="654.4" cy="622.5" r="3.3"/>
      <circle class="st27" cx="649.1" cy="638.3" r="3.3"/>
      <circle class="st27" cx="671.5" cy="575.5" r="3.3"/>
    </g>
    <g id="_x32_-Partido-de-la-Revoluci-n-Democratica">
      <circle class="st27" cx="666.2" cy="591.3" r="3.3"/>
    </g>
    <circle class="st27" cx="658.7" cy="615.5" r="3.3"/>
    <circle class="st27" cx="670.5" cy="584" r="3.3"/>
    <circle class="st27" cx="653.4" cy="631.2" r="3.3"/>
    <circle class="st27" cx="662.9" cy="607.8" r="3.3"/>
    <circle class="st27" cx="645.9" cy="654.9" r="3.3"/>
    <circle class="st27" cx="667.1" cy="600.5" r="3.3"/>
    <circle class="st27" cx="679.8" cy="578.7" r="3.3"/>
    <circle class="st27" cx="674.4" cy="594.5" r="3.3"/>
    <circle class="st27" cx="678.6" cy="587.2" r="3.3"/>
    <circle class="st27" cx="662.8" cy="626" r="3.3"/>
    <circle class="st27" cx="653.2" cy="648.9" r="3.3"/>
    <circle class="st27" cx="667" cy="618.8" r="3.3"/>
    <circle class="st27" cx="657.4" cy="641.7" r="3.3"/>
    <circle class="st27" cx="671.1" cy="611.6" r="3.3"/>
    <circle class="st27" cx="675.4" cy="604" r="3.3"/>
    <circle class="st27" cx="661.5" cy="634.4" r="3.3"/>
    <circle class="st27" cx="688" cy="582.3" r="3.3" transform="translate(-13.9 1147.8) rotate(-79.1)"/>
    <circle class="st27" cx="682.5" cy="598.2" r="3.3"/>
    <circle class="st27" cx="686.6" cy="590.9" r="3.3"/>
    <circle class="st34" cx="654.2" cy="658.6" r="3.3"/>
    <circle class="st27" cx="670.9" cy="629.9" r="3.3"/>
    <circle class="st27" cx="675" cy="622.7" r="3.3"/>
    <circle class="st27" cx="679.2" cy="615.6" r="3.3"/>
    <circle class="st27" cx="683.5" cy="608.1" r="3.3"/>
    <circle class="st27" cx="696" cy="586.4" r="3.3"/>
    <circle class="st27" cx="661.1" cy="652.8" r="3.3"/>
    <circle class="st27" cx="665.3" cy="645.6" r="3.3"/>
    <circle class="st27" cx="669.4" cy="638.4" r="3.3"/>
    <circle class="st27" cx="690.3" cy="602.3" r="3.3" transform="translate(-54.5 1135.7) rotate(-76.7)"/>
    <circle class="st27" cx="694.4" cy="595.1" r="3.3"/>
    <circle class="st34" cx="703.7" cy="590.9" r="3.3"/>
    <circle class="st34" cx="691.2" cy="612.6" r="3.3" transform="translate(-24.1 1196.8) rotate(-80.8)"/>
    <circle class="st34" cx="687.1" cy="619.8" r="3.3"/>
    <circle class="st34" cx="682.9" cy="627" r="3.3"/>
    <circle class="st34" cx="678.8" cy="634.3" r="3.3"/>
    <circle class="st34" cx="702" cy="599.6" r="3.3"/>
    <circle class="st34" cx="697.8" cy="606.8" r="3.3"/>
    <circle class="st34" cx="662.2" cy="663.2" r="3.3"/>
    <circle class="st34" cx="677" cy="643" r="3.3"/>
    <circle class="st34" cx="672.8" cy="650.2" r="3.3"/>
    <circle class="st34" cx="668.6" cy="657.5" r="3.3"/>
    <circle class="st34" cx="711.2" cy="595.8" r="3.3"/>
    <circle class="st34" cx="698.7" cy="617.5" r="3.3"/>
    <circle class="st34" cx="694.6" cy="624.8" r="3.3"/>
    <circle class="st34" cx="709.3" cy="604.6" r="3.3"/>
    <circle class="st34" cx="705.1" cy="611.8" r="3.3"/>
    <circle class="st34" cx="690.4" cy="632.1" r="3.3" transform="translate(-44.1 1212.3) rotate(-80.8)"/>
    <circle class="st34" cx="686.2" cy="639.4" r="3.3"/>
    <circle class="st34" cx="718.5" cy="601" r="3.3"/>
    <circle class="st34" cx="684.1" cy="648.2" r="3.3"/>
    <circle class="st34" cx="716.3" cy="609.9" r="3.3"/>
    <circle class="st34" cx="705.9" cy="623" r="3.3"/>
    <circle class="st34" cx="679.9" cy="655.5" r="3.3"/>
    <circle class="st34" cx="669.6" cy="668.6" r="3.3"/>
    <circle class="st34" cx="712" cy="617.2" r="3.3"/>
    <circle class="st34" cx="701.7" cy="630.3" r="3.3"/>
    <circle class="st34" cx="675.7" cy="662.8" r="3.3"/>
    <circle class="st34" cx="697.5" cy="637.6" r="3.3"/>
    <circle class="st34" cx="725.4" cy="606.7" r="3.3"/>
    <circle class="st34" cx="693.3" cy="645" r="3.3" transform="translate(-54.4 1226.1) rotate(-80.8)"/>
    <circle class="st34" cx="723" cy="615.6" r="3.3"/>
    <circle class="st34" cx="712.7" cy="628.8" r="3.3"/>
    <circle class="st34" cx="718.7" cy="623" r="3.3"/>
    <circle class="st34" cx="690.8" cy="654" r="3.3" transform="translate(-65.4 1231.1) rotate(-80.8)"/>
    <circle class="st34" cx="708.5" cy="636.2" r="3.3"/>
    <circle class="st34" cx="732.1" cy="612.7" r="3.3"/>
    <circle class="st34" cx="686.5" cy="661.4" r="3.3"/>
    <circle class="st34" cx="704.2" cy="643.7" r="3.3"/>
    <circle class="st34" cx="729.4" cy="621.7" r="3.3"/>
    <circle class="st34" cx="682.2" cy="668.8" r="3.3"/>
    <circle class="st34" cx="699.9" cy="651.2" r="3.3"/>
    <circle class="st34" cx="676.4" cy="674.8" r="3.3"/>
    <circle class="st34" cx="725" cy="629.1" r="3.3"/>
    <circle class="st34" cx="719.2" cy="635.1" r="3.3"/>
    <circle class="st34" cx="738.4" cy="619" r="3.3"/>
    <circle class="st34" cx="714.9" cy="642.6" r="3.3"/>
    <circle class="st34" cx="697.1" cy="660.2" r="3.3"/>
    <circle class="st34" cx="710.5" cy="650.2" r="3.3"/>
    <circle class="st34" cx="735.4" cy="628.1" r="3.3"/>
    <circle class="st34" cx="692.7" cy="667.8" r="3.3" transform="translate(-77.5 1244.5) rotate(-80.8)"/>
    <circle class="st34" cx="731" cy="635.6" r="3.3"/>
    <circle class="st34" cx="706.1" cy="657.8" r="3.3"/>
    <circle class="st34" cx="725.2" cy="641.8" r="3.3"/>
    <circle class="st34" cx="744.4" cy="625.7" r="3.3"/>
    <circle class="st34" cx="688.2" cy="675.4" r="3.3" transform="translate(-88.7 1246.5) rotate(-80.8)"/>
    <circle class="st34" cx="720.8" cy="649.4" r="3.3"/>
    <circle class="st34" cx="682.5" cy="681.6" r="3.3"/>
    <circle class="st34" cx="741.1" cy="634.8" r="3.3"/>
    <circle class="st34" cx="702.8" cy="667" r="3.3"/>
    <circle class="st34" cx="716.3" cy="657.1" r="3.3"/>
    <circle class="st34" cx="736.5" cy="642.5" r="3.3"/>
    <circle class="st34" cx="750" cy="632.6" r="3.3"/>
    <circle class="st34" cx="730.9" cy="648.8" r="3.3"/>
    <circle class="st34" cx="698.2" cy="674.7" r="3.3"/>
    <circle class="st34" cx="711.7" cy="664.9" r="3.3"/>
    <circle class="st34" cx="746.4" cy="641.8" r="3.3"/>
    <circle class="st34" cx="726.3" cy="656.6" r="3.3"/>
    <circle class="st34" cx="755.3" cy="639.9" r="3.3"/>
    <circle class="st34" cx="693.5" cy="682.5" r="3.3"/>
    <circle class="st34" cx="741.7" cy="649.6" r="3.3"/>
    <circle class="st34" cx="721.6" cy="664.4" r="3.3"/>
    <circle class="st34" cx="708" cy="674.1" r="3.3"/>
    <circle class="st34" cx="736.1" cy="656.1" r="3.3"/>
    <circle class="st34" cx="687.9" cy="689.1" r="3.3" transform="translate(-102.5 1257.7) rotate(-80.8)"/>
    <circle class="st34" cx="751.4" cy="649.1" r="3.3"/>
    <circle class="st34" cx="716.8" cy="672.4" r="3.3"/>
    <circle class="st34" cx="731.3" cy="664.1" r="3.3"/>
    <circle class="st34" cx="703.2" cy="682" r="3.3"/>
    <circle class="st34" cx="760.1" cy="647.4" r="3.3"/>
    <circle class="st34" cx="746.5" cy="657" r="3.3"/>
    <circle class="st34" cx="740.8" cy="663.8" r="3.3"/>
    <circle class="st34" cx="726.4" cy="672.1" r="3.3"/>
    <circle class="st34" cx="755.9" cy="656.7" r="3.3"/>
    <circle class="st34" cx="712.6" cy="681.7" r="3.3"/>
    <circle class="st34" cx="698.2" cy="690" r="3.3"/>
    <circle class="st34" cx="764.6" cy="655.2" r="3.3"/>
    <circle class="st34" cx="735.7" cy="671.9" r="3.3"/>
    <circle class="st34" cx="750.8" cy="664.7" r="3.3"/>
    <circle class="st34" cx="721.3" cy="680.3" r="3.3"/>
    <circle class="st34" cx="692.5" cy="697" r="3.3" transform="translate(-106.5 1268.9) rotate(-80.8)"/>
    <circle class="st34" cx="707.5" cy="689.8" r="3.3"/>
    <circle class="st34" cx="745" cy="671.7" r="3.3"/>
    <circle class="st34" cx="760" cy="664.4" r="3.3"/>
    <circle class="st34" cx="730.6" cy="680.1" r="3.3"/>
    <circle class="st34" cx="768.7" cy="663.2" r="3.3"/>
    <circle class="st34" cx="716.6" cy="689.6" r="3.3"/>
    <circle class="st34" cx="754.7" cy="672.6" r="3.3"/>
    <circle class="st34" cx="739.7" cy="680" r="3.3"/>
    <circle class="st34" cx="702.1" cy="698" r="3.3"/>
    <circle class="st34" cx="725.2" cy="688.4" r="3.3"/>
    <circle class="st34" cx="763.7" cy="672.4" r="3.3"/>
    <circle class="st34" cx="748.8" cy="679.9" r="3.3"/>
    <circle class="st34" cx="772.3" cy="671.3" r="3.3"/>
    <circle class="st34" cx="734.2" cy="688.4" r="3.3"/>
    <circle class="st34" cx="711.1" cy="697.8" r="3.3"/>
    <circle class="st34" cx="758.1" cy="680.7" r="3.3"/>
    <circle class="st28" cx="696.2" cy="705.4" r="3.3"/>
    <circle class="st34" cx="743.2" cy="688.3" r="3.3"/>
    <circle class="st28" cx="720" cy="697.7" r="3.3"/>
    <circle class="st34" cx="767" cy="680.6" r="3.3"/>
    <circle class="st34" cx="775.5" cy="679.7" r="3.3"/>
    <circle class="st34" cx="752" cy="688.3" r="3.3"/>
    <circle class="st28" cx="728.5" cy="696.9" r="3.3"/>
    <circle class="st28" cx="705.3" cy="706.2" r="3.3"/>
    <circle class="st34" cx="761.1" cy="689" r="3.3"/>
    <circle class="st28" cx="737.3" cy="696.8" r="3.3"/>
    <circle class="st34" cx="769.8" cy="689" r="3.3"/>
    <circle class="st28" cx="714" cy="706.2" r="3.3"/>
    <circle class="st28" cx="746" cy="696.8" r="3.3"/>
    <circle class="st34" cx="778.2" cy="688.2" r="3.3"/>
    <circle class="st28" cx="754.7" cy="696.8" r="3.3"/>
    <circle class="st28" cx="722.7" cy="706.2" r="3.3"/>
    <circle class="st28" cx="731.2" cy="705.5" r="3.3"/>
    <circle class="st28" cx="699" cy="714.2" r="3.3"/>
    <circle class="st28" cx="763.5" cy="697.5" r="3.3"/>
    <circle class="st28" cx="772.1" cy="697.5" r="3.3"/>
    <circle class="st28" cx="739.8" cy="705.5" r="3.3"/>
    <circle class="st28" cx="780.5" cy="696.9" r="3.3"/>
    <circle class="st28" cx="707.7" cy="714.8" r="3.3"/>
    <circle class="st28" cx="748.3" cy="705.6" r="3.3"/>
    <circle class="st28" cx="756.9" cy="705.6" r="3.3"/>
    <circle class="st28" cx="716.3" cy="714.8" r="3.3"/>
    <circle class="st28" cx="765.5" cy="706.1" r="3.3"/>
    <circle class="st28" cx="724.8" cy="714.8" r="3.3"/>
    <circle class="st28" cx="774" cy="706.1" r="3.3"/>
    <circle class="st28" cx="733.2" cy="714.3" r="3.3"/>
    <circle class="st28" cx="782.4" cy="705.6" r="3.3"/>
    <circle class="st28" cx="741.6" cy="714.4" r="3.3"/>
    <circle class="st28" cx="750.1" cy="714.4" r="3.3"/>
    <circle class="st28" cx="700.9" cy="723.2" r="3.3"/>
    <circle class="st28" cx="758.5" cy="714.4" r="3.3"/>
    <circle class="st28" cx="767" cy="714.8" r="3.3"/>
    <circle class="st28" cx="709.3" cy="723.5" r="3.3"/>
    <circle class="st28" cx="775.4" cy="714.8" r="3.3"/>
    <circle class="st28" cx="783.8" cy="714.5" r="3.3"/>
    <circle class="st28" cx="717.7" cy="723.5" r="3.3"/>
    <circle class="st28" cx="726.1" cy="723.5" r="3.3"/>
    <circle class="st28" cx="734.5" cy="723.3" r="3.3"/>
    <circle class="st28" cx="742.9" cy="723.3" r="3.3"/>
    <circle class="st28" cx="751.2" cy="723.3" r="3.3"/>
    <circle class="st28" cx="759.6" cy="723.3" r="3.3"/>
    <circle class="st28" cx="768" cy="723.5" r="3.3"/>
    <circle class="st35" cx="776.4" cy="723.5" r="3.3"/>
    <circle class="st35" cx="784.7" cy="723.4" r="3.3"/>
    <circle class="st35" cx="701.8" cy="732.3" r="3.3"/>
    <circle class="st35" cx="710.1" cy="732.3" r="3.3"/>
    <circle class="st35" cx="718.5" cy="732.3" r="3.3"/>
    <circle class="st35" cx="726.8" cy="732.3" r="3.3"/>
    <circle class="st35" cx="735.1" cy="732.3" r="3.3"/>
    <circle class="st25" cx="743.5" cy="732.3" r="3.3"/>
    <circle class="st25" cx="751.8" cy="732.3" r="3.3"/>
    <circle class="st25" cx="760.1" cy="732.3" r="3.3"/>
    <circle class="st25" cx="768.5" cy="732.3" r="3.3"/>
    <circle class="st25" cx="776.8" cy="732.3" r="3.3"/>
    <g id="_x37_-Independiente">
      <circle class="st25" cx="785.2" cy="732.3" r="3.3"/>
    </g>
  </g>
</svg>